ISO-10303-21;
HEADER;
/* Generated by software containing ST-Developer
 * from STEP Tools, Inc. (www.steptools.com) 
 */

FILE_DESCRIPTION(
/* description */ (''),
/* implementation_level */ '2;1');

FILE_NAME(
/* name */ 'Clamp for N20 Motor.step',
/* time_stamp */ '2025-07-09T13:18:20+05:30',
/* author */ (''),
/* organization */ (''),
/* preprocessor_version */ 'ST-DEVELOPER v20.1',
/* originating_system */ 'Autodesk Translation Framework v14.10.0.0',
/* authorisation */ '');

FILE_SCHEMA (('AUTOMOTIVE_DESIGN { 1 0 10303 214 3 1 1 }'));
ENDSEC;

DATA;
#10=MECHANICAL_DESIGN_GEOMETRIC_PRESENTATION_REPRESENTATION('',(#13),#875);
#11=SHAPE_REPRESENTATION_RELATIONSHIP('SRR','None',#882,#12);
#12=ADVANCED_BREP_SHAPE_REPRESENTATION('',(#14),#874);
#13=STYLED_ITEM('',(#892),#14);
#14=MANIFOLD_SOLID_BREP('Body1',#511);
#15=FACE_BOUND('',#64,.T.);
#16=FACE_BOUND('',#74,.T.);
#17=FACE_BOUND('',#84,.T.);
#18=FACE_BOUND('',#88,.T.);
#19=PLANE('',#534);
#20=PLANE('',#541);
#21=PLANE('',#545);
#22=PLANE('',#553);
#23=PLANE('',#556);
#24=PLANE('',#560);
#25=PLANE('',#565);
#26=PLANE('',#566);
#27=PLANE('',#567);
#28=PLANE('',#569);
#29=PLANE('',#571);
#30=PLANE('',#572);
#31=PLANE('',#573);
#32=PLANE('',#574);
#33=FACE_OUTER_BOUND('',#59,.T.);
#34=FACE_OUTER_BOUND('',#60,.T.);
#35=FACE_OUTER_BOUND('',#61,.T.);
#36=FACE_OUTER_BOUND('',#62,.T.);
#37=FACE_OUTER_BOUND('',#63,.T.);
#38=FACE_OUTER_BOUND('',#65,.T.);
#39=FACE_OUTER_BOUND('',#66,.T.);
#40=FACE_OUTER_BOUND('',#67,.T.);
#41=FACE_OUTER_BOUND('',#68,.T.);
#42=FACE_OUTER_BOUND('',#69,.T.);
#43=FACE_OUTER_BOUND('',#70,.T.);
#44=FACE_OUTER_BOUND('',#71,.T.);
#45=FACE_OUTER_BOUND('',#72,.T.);
#46=FACE_OUTER_BOUND('',#73,.T.);
#47=FACE_OUTER_BOUND('',#75,.T.);
#48=FACE_OUTER_BOUND('',#76,.T.);
#49=FACE_OUTER_BOUND('',#77,.T.);
#50=FACE_OUTER_BOUND('',#78,.T.);
#51=FACE_OUTER_BOUND('',#79,.T.);
#52=FACE_OUTER_BOUND('',#80,.T.);
#53=FACE_OUTER_BOUND('',#81,.T.);
#54=FACE_OUTER_BOUND('',#82,.T.);
#55=FACE_OUTER_BOUND('',#83,.T.);
#56=FACE_OUTER_BOUND('',#85,.T.);
#57=FACE_OUTER_BOUND('',#86,.T.);
#58=FACE_OUTER_BOUND('',#87,.T.);
#59=EDGE_LOOP('',(#329,#330,#331,#332));
#60=EDGE_LOOP('',(#333,#334,#335,#336));
#61=EDGE_LOOP('',(#337,#338,#339,#340));
#62=EDGE_LOOP('',(#341,#342,#343,#344,#345,#346,#347,#348,#349,#350,#351,
#352,#353,#354,#355,#356,#357,#358));
#63=EDGE_LOOP('',(#359,#360,#361,#362,#363,#364));
#64=EDGE_LOOP('',(#365));
#65=EDGE_LOOP('',(#366,#367,#368,#369));
#66=EDGE_LOOP('',(#370,#371,#372,#373,#374,#375,#376,#377,#378,#379,#380,
#381,#382,#383,#384,#385,#386,#387));
#67=EDGE_LOOP('',(#388,#389,#390,#391));
#68=EDGE_LOOP('',(#392,#393,#394,#395));
#69=EDGE_LOOP('',(#396,#397,#398,#399));
#70=EDGE_LOOP('',(#400,#401,#402,#403));
#71=EDGE_LOOP('',(#404,#405,#406,#407));
#72=EDGE_LOOP('',(#408,#409,#410,#411));
#73=EDGE_LOOP('',(#412,#413,#414,#415,#416,#417));
#74=EDGE_LOOP('',(#418));
#75=EDGE_LOOP('',(#419,#420,#421,#422));
#76=EDGE_LOOP('',(#423,#424,#425,#426));
#77=EDGE_LOOP('',(#427,#428,#429,#430));
#78=EDGE_LOOP('',(#431,#432,#433,#434));
#79=EDGE_LOOP('',(#435,#436,#437,#438));
#80=EDGE_LOOP('',(#439,#440,#441,#442));
#81=EDGE_LOOP('',(#443,#444,#445,#446));
#82=EDGE_LOOP('',(#447,#448,#449,#450));
#83=EDGE_LOOP('',(#451,#452,#453,#454,#455,#456));
#84=EDGE_LOOP('',(#457));
#85=EDGE_LOOP('',(#458,#459,#460,#461));
#86=EDGE_LOOP('',(#462,#463,#464,#465));
#87=EDGE_LOOP('',(#466,#467,#468,#469,#470,#471));
#88=EDGE_LOOP('',(#472));
#89=LINE('',#730,#137);
#90=LINE('',#736,#138);
#91=LINE('',#743,#139);
#92=LINE('',#746,#140);
#93=LINE('',#749,#141);
#94=LINE('',#751,#142);
#95=LINE('',#755,#143);
#96=LINE('',#759,#144);
#97=LINE('',#761,#145);
#98=LINE('',#763,#146);
#99=LINE('',#765,#147);
#100=LINE('',#769,#148);
#101=LINE('',#773,#149);
#102=LINE('',#777,#150);
#103=LINE('',#780,#151);
#104=LINE('',#783,#152);
#105=LINE('',#787,#153);
#106=LINE('',#788,#154);
#107=LINE('',#793,#155);
#108=LINE('',#794,#156);
#109=LINE('',#797,#157);
#110=LINE('',#801,#158);
#111=LINE('',#805,#159);
#112=LINE('',#809,#160);
#113=LINE('',#813,#161);
#114=LINE('',#815,#162);
#115=LINE('',#817,#163);
#116=LINE('',#819,#164);
#117=LINE('',#823,#165);
#118=LINE('',#826,#166);
#119=LINE('',#828,#167);
#120=LINE('',#829,#168);
#121=LINE('',#831,#169);
#122=LINE('',#833,#170);
#123=LINE('',#835,#171);
#124=LINE('',#836,#172);
#125=LINE('',#838,#173);
#126=LINE('',#844,#174);
#127=LINE('',#847,#175);
#128=LINE('',#851,#176);
#129=LINE('',#854,#177);
#130=LINE('',#857,#178);
#131=LINE('',#858,#179);
#132=LINE('',#860,#180);
#133=LINE('',#862,#181);
#134=LINE('',#864,#182);
#135=LINE('',#867,#183);
#136=LINE('',#870,#184);
#137=VECTOR('',#581,2.);
#138=VECTOR('',#588,2.);
#139=VECTOR('',#595,10.);
#140=VECTOR('',#598,10.);
#141=VECTOR('',#601,10.);
#142=VECTOR('',#602,10.);
#143=VECTOR('',#605,10.);
#144=VECTOR('',#608,10.);
#145=VECTOR('',#609,10.);
#146=VECTOR('',#610,10.);
#147=VECTOR('',#611,10.);
#148=VECTOR('',#614,10.);
#149=VECTOR('',#617,10.);
#150=VECTOR('',#620,10.);
#151=VECTOR('',#623,10.);
#152=VECTOR('',#626,10.);
#153=VECTOR('',#629,10.);
#154=VECTOR('',#630,10.);
#155=VECTOR('',#635,10.);
#156=VECTOR('',#636,10.);
#157=VECTOR('',#639,10.);
#158=VECTOR('',#642,10.);
#159=VECTOR('',#645,10.);
#160=VECTOR('',#648,10.);
#161=VECTOR('',#651,10.);
#162=VECTOR('',#652,10.);
#163=VECTOR('',#653,10.);
#164=VECTOR('',#654,10.);
#165=VECTOR('',#657,10.);
#166=VECTOR('',#660,10.);
#167=VECTOR('',#663,10.);
#168=VECTOR('',#664,10.);
#169=VECTOR('',#667,10.);
#170=VECTOR('',#670,10.);
#171=VECTOR('',#673,10.);
#172=VECTOR('',#674,10.);
#173=VECTOR('',#677,10.);
#174=VECTOR('',#684,10.);
#175=VECTOR('',#687,10.);
#176=VECTOR('',#692,10.);
#177=VECTOR('',#697,10.);
#178=VECTOR('',#702,10.);
#179=VECTOR('',#703,10.);
#180=VECTOR('',#706,10.);
#181=VECTOR('',#709,10.);
#182=VECTOR('',#712,10.);
#183=VECTOR('',#717,10.);
#184=VECTOR('',#722,10.);
#185=CIRCLE('',#526,2.);
#186=CIRCLE('',#527,2.);
#187=CIRCLE('',#529,2.);
#188=CIRCLE('',#530,2.);
#189=CIRCLE('',#532,1.);
#190=CIRCLE('',#533,1.);
#191=CIRCLE('',#535,1.);
#192=CIRCLE('',#536,1.);
#193=CIRCLE('',#537,1.);
#194=CIRCLE('',#538,1.);
#195=CIRCLE('',#539,1.);
#196=CIRCLE('',#540,1.);
#197=CIRCLE('',#542,1.);
#198=CIRCLE('',#544,1.);
#199=CIRCLE('',#546,1.);
#200=CIRCLE('',#547,1.);
#201=CIRCLE('',#548,1.);
#202=CIRCLE('',#549,1.);
#203=CIRCLE('',#550,1.);
#204=CIRCLE('',#551,1.);
#205=CIRCLE('',#558,1.);
#206=CIRCLE('',#559,1.);
#207=CIRCLE('',#561,1.);
#208=CIRCLE('',#563,1.);
#209=VERTEX_POINT('',#727);
#210=VERTEX_POINT('',#729);
#211=VERTEX_POINT('',#733);
#212=VERTEX_POINT('',#735);
#213=VERTEX_POINT('',#739);
#214=VERTEX_POINT('',#740);
#215=VERTEX_POINT('',#742);
#216=VERTEX_POINT('',#744);
#217=VERTEX_POINT('',#748);
#218=VERTEX_POINT('',#750);
#219=VERTEX_POINT('',#752);
#220=VERTEX_POINT('',#754);
#221=VERTEX_POINT('',#756);
#222=VERTEX_POINT('',#758);
#223=VERTEX_POINT('',#760);
#224=VERTEX_POINT('',#762);
#225=VERTEX_POINT('',#764);
#226=VERTEX_POINT('',#766);
#227=VERTEX_POINT('',#768);
#228=VERTEX_POINT('',#770);
#229=VERTEX_POINT('',#772);
#230=VERTEX_POINT('',#774);
#231=VERTEX_POINT('',#776);
#232=VERTEX_POINT('',#778);
#233=VERTEX_POINT('',#782);
#234=VERTEX_POINT('',#784);
#235=VERTEX_POINT('',#786);
#236=VERTEX_POINT('',#790);
#237=VERTEX_POINT('',#791);
#238=VERTEX_POINT('',#796);
#239=VERTEX_POINT('',#798);
#240=VERTEX_POINT('',#800);
#241=VERTEX_POINT('',#802);
#242=VERTEX_POINT('',#804);
#243=VERTEX_POINT('',#806);
#244=VERTEX_POINT('',#808);
#245=VERTEX_POINT('',#810);
#246=VERTEX_POINT('',#812);
#247=VERTEX_POINT('',#814);
#248=VERTEX_POINT('',#816);
#249=VERTEX_POINT('',#818);
#250=VERTEX_POINT('',#820);
#251=VERTEX_POINT('',#822);
#252=VERTEX_POINT('',#824);
#253=VERTEX_POINT('',#840);
#254=VERTEX_POINT('',#842);
#255=VERTEX_POINT('',#846);
#256=VERTEX_POINT('',#850);
#257=EDGE_CURVE('',#209,#209,#185,.T.);
#258=EDGE_CURVE('',#209,#210,#89,.T.);
#259=EDGE_CURVE('',#210,#210,#186,.T.);
#260=EDGE_CURVE('',#211,#211,#187,.T.);
#261=EDGE_CURVE('',#211,#212,#90,.T.);
#262=EDGE_CURVE('',#212,#212,#188,.T.);
#263=EDGE_CURVE('',#213,#214,#189,.T.);
#264=EDGE_CURVE('',#214,#215,#91,.T.);
#265=EDGE_CURVE('',#215,#216,#190,.T.);
#266=EDGE_CURVE('',#216,#213,#92,.T.);
#267=EDGE_CURVE('',#217,#216,#93,.T.);
#268=EDGE_CURVE('',#217,#218,#94,.T.);
#269=EDGE_CURVE('',#218,#219,#191,.T.);
#270=EDGE_CURVE('',#219,#220,#95,.T.);
#271=EDGE_CURVE('',#220,#221,#192,.T.);
#272=EDGE_CURVE('',#221,#222,#96,.T.);
#273=EDGE_CURVE('',#223,#222,#97,.T.);
#274=EDGE_CURVE('',#224,#223,#98,.T.);
#275=EDGE_CURVE('',#225,#224,#99,.T.);
#276=EDGE_CURVE('',#226,#225,#193,.T.);
#277=EDGE_CURVE('',#226,#227,#100,.T.);
#278=EDGE_CURVE('',#228,#227,#194,.T.);
#279=EDGE_CURVE('',#229,#228,#101,.T.);
#280=EDGE_CURVE('',#230,#229,#195,.T.);
#281=EDGE_CURVE('',#231,#230,#102,.T.);
#282=EDGE_CURVE('',#232,#231,#196,.T.);
#283=EDGE_CURVE('',#213,#232,#103,.T.);
#284=EDGE_CURVE('',#215,#233,#104,.T.);
#285=EDGE_CURVE('',#234,#233,#197,.T.);
#286=EDGE_CURVE('',#234,#235,#105,.T.);
#287=EDGE_CURVE('',#235,#217,#106,.T.);
#288=EDGE_CURVE('',#236,#237,#198,.T.);
#289=EDGE_CURVE('',#237,#234,#107,.T.);
#290=EDGE_CURVE('',#233,#236,#108,.T.);
#291=EDGE_CURVE('',#238,#237,#109,.T.);
#292=EDGE_CURVE('',#239,#238,#199,.T.);
#293=EDGE_CURVE('',#239,#240,#110,.T.);
#294=EDGE_CURVE('',#241,#240,#200,.T.);
#295=EDGE_CURVE('',#242,#241,#111,.T.);
#296=EDGE_CURVE('',#243,#242,#201,.T.);
#297=EDGE_CURVE('',#244,#243,#112,.T.);
#298=EDGE_CURVE('',#245,#244,#202,.T.);
#299=EDGE_CURVE('',#246,#245,#113,.T.);
#300=EDGE_CURVE('',#247,#246,#114,.T.);
#301=EDGE_CURVE('',#248,#247,#115,.T.);
#302=EDGE_CURVE('',#248,#249,#116,.T.);
#303=EDGE_CURVE('',#249,#250,#203,.T.);
#304=EDGE_CURVE('',#250,#251,#117,.T.);
#305=EDGE_CURVE('',#251,#252,#204,.T.);
#306=EDGE_CURVE('',#252,#235,#118,.T.);
#307=EDGE_CURVE('',#231,#239,#119,.T.);
#308=EDGE_CURVE('',#238,#232,#120,.T.);
#309=EDGE_CURVE('',#240,#230,#121,.T.);
#310=EDGE_CURVE('',#229,#241,#122,.T.);
#311=EDGE_CURVE('',#244,#226,#123,.T.);
#312=EDGE_CURVE('',#225,#245,#124,.T.);
#313=EDGE_CURVE('',#227,#243,#125,.T.);
#314=EDGE_CURVE('',#253,#224,#205,.T.);
#315=EDGE_CURVE('',#223,#254,#206,.T.);
#316=EDGE_CURVE('',#254,#253,#126,.T.);
#317=EDGE_CURVE('',#253,#255,#127,.T.);
#318=EDGE_CURVE('',#246,#255,#207,.T.);
#319=EDGE_CURVE('',#255,#256,#128,.T.);
#320=EDGE_CURVE('',#256,#247,#208,.T.);
#321=EDGE_CURVE('',#242,#228,#129,.T.);
#322=EDGE_CURVE('',#249,#221,#130,.T.);
#323=EDGE_CURVE('',#222,#248,#131,.T.);
#324=EDGE_CURVE('',#252,#218,#132,.T.);
#325=EDGE_CURVE('',#251,#219,#133,.T.);
#326=EDGE_CURVE('',#250,#220,#134,.T.);
#327=EDGE_CURVE('',#236,#214,#135,.T.);
#328=EDGE_CURVE('',#256,#254,#136,.T.);
#329=ORIENTED_EDGE('',*,*,#257,.F.);
#330=ORIENTED_EDGE('',*,*,#258,.T.);
#331=ORIENTED_EDGE('',*,*,#259,.F.);
#332=ORIENTED_EDGE('',*,*,#258,.F.);
#333=ORIENTED_EDGE('',*,*,#260,.F.);
#334=ORIENTED_EDGE('',*,*,#261,.T.);
#335=ORIENTED_EDGE('',*,*,#262,.F.);
#336=ORIENTED_EDGE('',*,*,#261,.F.);
#337=ORIENTED_EDGE('',*,*,#263,.T.);
#338=ORIENTED_EDGE('',*,*,#264,.T.);
#339=ORIENTED_EDGE('',*,*,#265,.T.);
#340=ORIENTED_EDGE('',*,*,#266,.T.);
#341=ORIENTED_EDGE('',*,*,#266,.F.);
#342=ORIENTED_EDGE('',*,*,#267,.F.);
#343=ORIENTED_EDGE('',*,*,#268,.T.);
#344=ORIENTED_EDGE('',*,*,#269,.T.);
#345=ORIENTED_EDGE('',*,*,#270,.T.);
#346=ORIENTED_EDGE('',*,*,#271,.T.);
#347=ORIENTED_EDGE('',*,*,#272,.T.);
#348=ORIENTED_EDGE('',*,*,#273,.F.);
#349=ORIENTED_EDGE('',*,*,#274,.F.);
#350=ORIENTED_EDGE('',*,*,#275,.F.);
#351=ORIENTED_EDGE('',*,*,#276,.F.);
#352=ORIENTED_EDGE('',*,*,#277,.T.);
#353=ORIENTED_EDGE('',*,*,#278,.F.);
#354=ORIENTED_EDGE('',*,*,#279,.F.);
#355=ORIENTED_EDGE('',*,*,#280,.F.);
#356=ORIENTED_EDGE('',*,*,#281,.F.);
#357=ORIENTED_EDGE('',*,*,#282,.F.);
#358=ORIENTED_EDGE('',*,*,#283,.F.);
#359=ORIENTED_EDGE('',*,*,#265,.F.);
#360=ORIENTED_EDGE('',*,*,#284,.T.);
#361=ORIENTED_EDGE('',*,*,#285,.F.);
#362=ORIENTED_EDGE('',*,*,#286,.T.);
#363=ORIENTED_EDGE('',*,*,#287,.T.);
#364=ORIENTED_EDGE('',*,*,#267,.T.);
#365=ORIENTED_EDGE('',*,*,#262,.T.);
#366=ORIENTED_EDGE('',*,*,#288,.T.);
#367=ORIENTED_EDGE('',*,*,#289,.T.);
#368=ORIENTED_EDGE('',*,*,#285,.T.);
#369=ORIENTED_EDGE('',*,*,#290,.T.);
#370=ORIENTED_EDGE('',*,*,#289,.F.);
#371=ORIENTED_EDGE('',*,*,#291,.F.);
#372=ORIENTED_EDGE('',*,*,#292,.F.);
#373=ORIENTED_EDGE('',*,*,#293,.T.);
#374=ORIENTED_EDGE('',*,*,#294,.F.);
#375=ORIENTED_EDGE('',*,*,#295,.F.);
#376=ORIENTED_EDGE('',*,*,#296,.F.);
#377=ORIENTED_EDGE('',*,*,#297,.F.);
#378=ORIENTED_EDGE('',*,*,#298,.F.);
#379=ORIENTED_EDGE('',*,*,#299,.F.);
#380=ORIENTED_EDGE('',*,*,#300,.F.);
#381=ORIENTED_EDGE('',*,*,#301,.F.);
#382=ORIENTED_EDGE('',*,*,#302,.T.);
#383=ORIENTED_EDGE('',*,*,#303,.T.);
#384=ORIENTED_EDGE('',*,*,#304,.T.);
#385=ORIENTED_EDGE('',*,*,#305,.T.);
#386=ORIENTED_EDGE('',*,*,#306,.T.);
#387=ORIENTED_EDGE('',*,*,#286,.F.);
#388=ORIENTED_EDGE('',*,*,#282,.T.);
#389=ORIENTED_EDGE('',*,*,#307,.T.);
#390=ORIENTED_EDGE('',*,*,#292,.T.);
#391=ORIENTED_EDGE('',*,*,#308,.T.);
#392=ORIENTED_EDGE('',*,*,#307,.F.);
#393=ORIENTED_EDGE('',*,*,#281,.T.);
#394=ORIENTED_EDGE('',*,*,#309,.F.);
#395=ORIENTED_EDGE('',*,*,#293,.F.);
#396=ORIENTED_EDGE('',*,*,#280,.T.);
#397=ORIENTED_EDGE('',*,*,#310,.T.);
#398=ORIENTED_EDGE('',*,*,#294,.T.);
#399=ORIENTED_EDGE('',*,*,#309,.T.);
#400=ORIENTED_EDGE('',*,*,#298,.T.);
#401=ORIENTED_EDGE('',*,*,#311,.T.);
#402=ORIENTED_EDGE('',*,*,#276,.T.);
#403=ORIENTED_EDGE('',*,*,#312,.T.);
#404=ORIENTED_EDGE('',*,*,#311,.F.);
#405=ORIENTED_EDGE('',*,*,#297,.T.);
#406=ORIENTED_EDGE('',*,*,#313,.F.);
#407=ORIENTED_EDGE('',*,*,#277,.F.);
#408=ORIENTED_EDGE('',*,*,#314,.T.);
#409=ORIENTED_EDGE('',*,*,#274,.T.);
#410=ORIENTED_EDGE('',*,*,#315,.T.);
#411=ORIENTED_EDGE('',*,*,#316,.T.);
#412=ORIENTED_EDGE('',*,*,#312,.F.);
#413=ORIENTED_EDGE('',*,*,#275,.T.);
#414=ORIENTED_EDGE('',*,*,#314,.F.);
#415=ORIENTED_EDGE('',*,*,#317,.T.);
#416=ORIENTED_EDGE('',*,*,#318,.F.);
#417=ORIENTED_EDGE('',*,*,#299,.T.);
#418=ORIENTED_EDGE('',*,*,#257,.T.);
#419=ORIENTED_EDGE('',*,*,#318,.T.);
#420=ORIENTED_EDGE('',*,*,#319,.T.);
#421=ORIENTED_EDGE('',*,*,#320,.T.);
#422=ORIENTED_EDGE('',*,*,#300,.T.);
#423=ORIENTED_EDGE('',*,*,#296,.T.);
#424=ORIENTED_EDGE('',*,*,#321,.T.);
#425=ORIENTED_EDGE('',*,*,#278,.T.);
#426=ORIENTED_EDGE('',*,*,#313,.T.);
#427=ORIENTED_EDGE('',*,*,#310,.F.);
#428=ORIENTED_EDGE('',*,*,#279,.T.);
#429=ORIENTED_EDGE('',*,*,#321,.F.);
#430=ORIENTED_EDGE('',*,*,#295,.T.);
#431=ORIENTED_EDGE('',*,*,#272,.F.);
#432=ORIENTED_EDGE('',*,*,#322,.F.);
#433=ORIENTED_EDGE('',*,*,#302,.F.);
#434=ORIENTED_EDGE('',*,*,#323,.F.);
#435=ORIENTED_EDGE('',*,*,#268,.F.);
#436=ORIENTED_EDGE('',*,*,#287,.F.);
#437=ORIENTED_EDGE('',*,*,#306,.F.);
#438=ORIENTED_EDGE('',*,*,#324,.T.);
#439=ORIENTED_EDGE('',*,*,#269,.F.);
#440=ORIENTED_EDGE('',*,*,#324,.F.);
#441=ORIENTED_EDGE('',*,*,#305,.F.);
#442=ORIENTED_EDGE('',*,*,#325,.T.);
#443=ORIENTED_EDGE('',*,*,#270,.F.);
#444=ORIENTED_EDGE('',*,*,#325,.F.);
#445=ORIENTED_EDGE('',*,*,#304,.F.);
#446=ORIENTED_EDGE('',*,*,#326,.T.);
#447=ORIENTED_EDGE('',*,*,#271,.F.);
#448=ORIENTED_EDGE('',*,*,#326,.F.);
#449=ORIENTED_EDGE('',*,*,#303,.F.);
#450=ORIENTED_EDGE('',*,*,#322,.T.);
#451=ORIENTED_EDGE('',*,*,#263,.F.);
#452=ORIENTED_EDGE('',*,*,#283,.T.);
#453=ORIENTED_EDGE('',*,*,#308,.F.);
#454=ORIENTED_EDGE('',*,*,#291,.T.);
#455=ORIENTED_EDGE('',*,*,#288,.F.);
#456=ORIENTED_EDGE('',*,*,#327,.T.);
#457=ORIENTED_EDGE('',*,*,#260,.T.);
#458=ORIENTED_EDGE('',*,*,#264,.F.);
#459=ORIENTED_EDGE('',*,*,#327,.F.);
#460=ORIENTED_EDGE('',*,*,#290,.F.);
#461=ORIENTED_EDGE('',*,*,#284,.F.);
#462=ORIENTED_EDGE('',*,*,#316,.F.);
#463=ORIENTED_EDGE('',*,*,#328,.F.);
#464=ORIENTED_EDGE('',*,*,#319,.F.);
#465=ORIENTED_EDGE('',*,*,#317,.F.);
#466=ORIENTED_EDGE('',*,*,#315,.F.);
#467=ORIENTED_EDGE('',*,*,#273,.T.);
#468=ORIENTED_EDGE('',*,*,#323,.T.);
#469=ORIENTED_EDGE('',*,*,#301,.T.);
#470=ORIENTED_EDGE('',*,*,#320,.F.);
#471=ORIENTED_EDGE('',*,*,#328,.T.);
#472=ORIENTED_EDGE('',*,*,#259,.T.);
#473=CYLINDRICAL_SURFACE('',#525,2.);
#474=CYLINDRICAL_SURFACE('',#528,2.);
#475=CYLINDRICAL_SURFACE('',#531,1.);
#476=CYLINDRICAL_SURFACE('',#543,1.);
#477=CYLINDRICAL_SURFACE('',#552,1.);
#478=CYLINDRICAL_SURFACE('',#554,1.);
#479=CYLINDRICAL_SURFACE('',#555,1.);
#480=CYLINDRICAL_SURFACE('',#557,1.);
#481=CYLINDRICAL_SURFACE('',#562,1.);
#482=CYLINDRICAL_SURFACE('',#564,1.);
#483=CYLINDRICAL_SURFACE('',#568,1.);
#484=CYLINDRICAL_SURFACE('',#570,1.);
#485=ADVANCED_FACE('',(#33),#473,.F.);
#486=ADVANCED_FACE('',(#34),#474,.F.);
#487=ADVANCED_FACE('',(#35),#475,.T.);
#488=ADVANCED_FACE('',(#36),#19,.T.);
#489=ADVANCED_FACE('',(#37,#15),#20,.F.);
#490=ADVANCED_FACE('',(#38),#476,.T.);
#491=ADVANCED_FACE('',(#39),#21,.T.);
#492=ADVANCED_FACE('',(#40),#477,.F.);
#493=ADVANCED_FACE('',(#41),#22,.T.);
#494=ADVANCED_FACE('',(#42),#478,.T.);
#495=ADVANCED_FACE('',(#43),#479,.F.);
#496=ADVANCED_FACE('',(#44),#23,.T.);
#497=ADVANCED_FACE('',(#45),#480,.T.);
#498=ADVANCED_FACE('',(#46,#16),#24,.T.);
#499=ADVANCED_FACE('',(#47),#481,.T.);
#500=ADVANCED_FACE('',(#48),#482,.T.);
#501=ADVANCED_FACE('',(#49),#25,.T.);
#502=ADVANCED_FACE('',(#50),#26,.F.);
#503=ADVANCED_FACE('',(#51),#27,.F.);
#504=ADVANCED_FACE('',(#52),#483,.F.);
#505=ADVANCED_FACE('',(#53),#28,.F.);
#506=ADVANCED_FACE('',(#54),#484,.F.);
#507=ADVANCED_FACE('',(#55,#17),#29,.T.);
#508=ADVANCED_FACE('',(#56),#30,.T.);
#509=ADVANCED_FACE('',(#57),#31,.T.);
#510=ADVANCED_FACE('',(#58,#18),#32,.F.);
#511=CLOSED_SHELL('',(#485,#486,#487,#488,#489,#490,#491,#492,#493,#494,
#495,#496,#497,#498,#499,#500,#501,#502,#503,#504,#505,#506,#507,#508,#509,
#510));
#512=DERIVED_UNIT_ELEMENT(#514,1.);
#513=DERIVED_UNIT_ELEMENT(#877,-3.);
#514=(
MASS_UNIT()
NAMED_UNIT(*)
SI_UNIT(.KILO.,.GRAM.)
);
#515=DERIVED_UNIT((#512,#513));
#516=MEASURE_REPRESENTATION_ITEM('density measure',
POSITIVE_RATIO_MEASURE(7850.),#515);
#517=PROPERTY_DEFINITION_REPRESENTATION(#522,#519);
#518=PROPERTY_DEFINITION_REPRESENTATION(#523,#520);
#519=REPRESENTATION('material name',(#521),#874);
#520=REPRESENTATION('density',(#516),#874);
#521=DESCRIPTIVE_REPRESENTATION_ITEM('Steel','Steel');
#522=PROPERTY_DEFINITION('material property','material name',#884);
#523=PROPERTY_DEFINITION('material property','density of part',#884);
#524=AXIS2_PLACEMENT_3D('',#725,#575,#576);
#525=AXIS2_PLACEMENT_3D('',#726,#577,#578);
#526=AXIS2_PLACEMENT_3D('',#728,#579,#580);
#527=AXIS2_PLACEMENT_3D('',#731,#582,#583);
#528=AXIS2_PLACEMENT_3D('',#732,#584,#585);
#529=AXIS2_PLACEMENT_3D('',#734,#586,#587);
#530=AXIS2_PLACEMENT_3D('',#737,#589,#590);
#531=AXIS2_PLACEMENT_3D('',#738,#591,#592);
#532=AXIS2_PLACEMENT_3D('',#741,#593,#594);
#533=AXIS2_PLACEMENT_3D('',#745,#596,#597);
#534=AXIS2_PLACEMENT_3D('',#747,#599,#600);
#535=AXIS2_PLACEMENT_3D('',#753,#603,#604);
#536=AXIS2_PLACEMENT_3D('',#757,#606,#607);
#537=AXIS2_PLACEMENT_3D('',#767,#612,#613);
#538=AXIS2_PLACEMENT_3D('',#771,#615,#616);
#539=AXIS2_PLACEMENT_3D('',#775,#618,#619);
#540=AXIS2_PLACEMENT_3D('',#779,#621,#622);
#541=AXIS2_PLACEMENT_3D('',#781,#624,#625);
#542=AXIS2_PLACEMENT_3D('',#785,#627,#628);
#543=AXIS2_PLACEMENT_3D('',#789,#631,#632);
#544=AXIS2_PLACEMENT_3D('',#792,#633,#634);
#545=AXIS2_PLACEMENT_3D('',#795,#637,#638);
#546=AXIS2_PLACEMENT_3D('',#799,#640,#641);
#547=AXIS2_PLACEMENT_3D('',#803,#643,#644);
#548=AXIS2_PLACEMENT_3D('',#807,#646,#647);
#549=AXIS2_PLACEMENT_3D('',#811,#649,#650);
#550=AXIS2_PLACEMENT_3D('',#821,#655,#656);
#551=AXIS2_PLACEMENT_3D('',#825,#658,#659);
#552=AXIS2_PLACEMENT_3D('',#827,#661,#662);
#553=AXIS2_PLACEMENT_3D('',#830,#665,#666);
#554=AXIS2_PLACEMENT_3D('',#832,#668,#669);
#555=AXIS2_PLACEMENT_3D('',#834,#671,#672);
#556=AXIS2_PLACEMENT_3D('',#837,#675,#676);
#557=AXIS2_PLACEMENT_3D('',#839,#678,#679);
#558=AXIS2_PLACEMENT_3D('',#841,#680,#681);
#559=AXIS2_PLACEMENT_3D('',#843,#682,#683);
#560=AXIS2_PLACEMENT_3D('',#845,#685,#686);
#561=AXIS2_PLACEMENT_3D('',#848,#688,#689);
#562=AXIS2_PLACEMENT_3D('',#849,#690,#691);
#563=AXIS2_PLACEMENT_3D('',#852,#693,#694);
#564=AXIS2_PLACEMENT_3D('',#853,#695,#696);
#565=AXIS2_PLACEMENT_3D('',#855,#698,#699);
#566=AXIS2_PLACEMENT_3D('',#856,#700,#701);
#567=AXIS2_PLACEMENT_3D('',#859,#704,#705);
#568=AXIS2_PLACEMENT_3D('',#861,#707,#708);
#569=AXIS2_PLACEMENT_3D('',#863,#710,#711);
#570=AXIS2_PLACEMENT_3D('',#865,#713,#714);
#571=AXIS2_PLACEMENT_3D('',#866,#715,#716);
#572=AXIS2_PLACEMENT_3D('',#868,#718,#719);
#573=AXIS2_PLACEMENT_3D('',#869,#720,#721);
#574=AXIS2_PLACEMENT_3D('',#871,#723,#724);
#575=DIRECTION('axis',(0.,0.,1.));
#576=DIRECTION('refdir',(1.,0.,0.));
#577=DIRECTION('center_axis',(0.,0.,-1.));
#578=DIRECTION('ref_axis',(-1.,0.,0.));
#579=DIRECTION('center_axis',(0.,0.,-1.));
#580=DIRECTION('ref_axis',(-1.,0.,0.));
#581=DIRECTION('',(0.,0.,-1.));
#582=DIRECTION('center_axis',(0.,0.,1.));
#583=DIRECTION('ref_axis',(-1.,0.,0.));
#584=DIRECTION('center_axis',(0.,0.,-1.));
#585=DIRECTION('ref_axis',(-1.,0.,0.));
#586=DIRECTION('center_axis',(0.,0.,-1.));
#587=DIRECTION('ref_axis',(-1.,0.,0.));
#588=DIRECTION('',(0.,0.,-1.));
#589=DIRECTION('center_axis',(0.,0.,1.));
#590=DIRECTION('ref_axis',(-1.,0.,0.));
#591=DIRECTION('center_axis',(0.,0.,1.));
#592=DIRECTION('ref_axis',(0.707106781186548,0.707106781186548,0.));
#593=DIRECTION('center_axis',(0.,0.,-1.));
#594=DIRECTION('ref_axis',(0.707106781186548,0.707106781186548,0.));
#595=DIRECTION('',(0.,0.,-1.));
#596=DIRECTION('center_axis',(0.,0.,1.));
#597=DIRECTION('ref_axis',(0.707106781186548,0.707106781186548,0.));
#598=DIRECTION('',(0.,0.,1.));
#599=DIRECTION('center_axis',(0.,1.,0.));
#600=DIRECTION('ref_axis',(-1.,0.,0.));
#601=DIRECTION('',(1.,0.,0.));
#602=DIRECTION('',(0.,0.,1.));
#603=DIRECTION('center_axis',(0.,-1.,0.));
#604=DIRECTION('ref_axis',(1.,0.,0.));
#605=DIRECTION('',(-1.,0.,0.));
#606=DIRECTION('center_axis',(0.,-1.,0.));
#607=DIRECTION('ref_axis',(0.,0.,1.));
#608=DIRECTION('',(0.,0.,-1.));
#609=DIRECTION('',(1.,0.,0.));
#610=DIRECTION('',(0.,0.,-1.));
#611=DIRECTION('',(-1.,0.,0.));
#612=DIRECTION('center_axis',(0.,1.,0.));
#613=DIRECTION('ref_axis',(0.707106781186548,0.,-0.707106781186547));
#614=DIRECTION('',(0.,0.,1.));
#615=DIRECTION('center_axis',(0.,-1.,0.));
#616=DIRECTION('ref_axis',(-0.707106781186548,0.,0.707106781186548));
#617=DIRECTION('',(-1.,0.,0.));
#618=DIRECTION('center_axis',(0.,-1.,0.));
#619=DIRECTION('ref_axis',(0.707106781186548,0.,0.707106781186548));
#620=DIRECTION('',(0.,0.,1.));
#621=DIRECTION('center_axis',(0.,1.,0.));
#622=DIRECTION('ref_axis',(-0.707106781186548,0.,-0.707106781186547));
#623=DIRECTION('',(-1.,0.,0.));
#624=DIRECTION('center_axis',(0.,0.,1.));
#625=DIRECTION('ref_axis',(1.,0.,0.));
#626=DIRECTION('',(0.,-1.,0.));
#627=DIRECTION('center_axis',(0.,0.,1.));
#628=DIRECTION('ref_axis',(0.707106781186548,-0.707106781186548,0.));
#629=DIRECTION('',(-1.,0.,0.));
#630=DIRECTION('',(0.,1.,0.));
#631=DIRECTION('center_axis',(0.,0.,1.));
#632=DIRECTION('ref_axis',(0.707106781186548,-0.707106781186548,0.));
#633=DIRECTION('center_axis',(0.,0.,-1.));
#634=DIRECTION('ref_axis',(0.707106781186548,-0.707106781186548,0.));
#635=DIRECTION('',(0.,0.,-1.));
#636=DIRECTION('',(0.,0.,1.));
#637=DIRECTION('center_axis',(0.,-1.,0.));
#638=DIRECTION('ref_axis',(1.,0.,0.));
#639=DIRECTION('',(1.,0.,0.));
#640=DIRECTION('center_axis',(0.,-1.,0.));
#641=DIRECTION('ref_axis',(-0.707106781186548,0.,-0.707106781186547));
#642=DIRECTION('',(0.,0.,1.));
#643=DIRECTION('center_axis',(0.,1.,0.));
#644=DIRECTION('ref_axis',(0.707106781186548,0.,0.707106781186548));
#645=DIRECTION('',(1.,0.,0.));
#646=DIRECTION('center_axis',(0.,1.,0.));
#647=DIRECTION('ref_axis',(-0.707106781186548,0.,0.707106781186548));
#648=DIRECTION('',(0.,0.,1.));
#649=DIRECTION('center_axis',(0.,-1.,0.));
#650=DIRECTION('ref_axis',(0.707106781186548,0.,-0.707106781186547));
#651=DIRECTION('',(1.,0.,0.));
#652=DIRECTION('',(0.,0.,1.));
#653=DIRECTION('',(-1.,0.,0.));
#654=DIRECTION('',(0.,0.,1.));
#655=DIRECTION('center_axis',(0.,1.,0.));
#656=DIRECTION('ref_axis',(0.,0.,1.));
#657=DIRECTION('',(1.,0.,0.));
#658=DIRECTION('center_axis',(0.,1.,0.));
#659=DIRECTION('ref_axis',(1.,0.,0.));
#660=DIRECTION('',(0.,0.,-1.));
#661=DIRECTION('center_axis',(0.,-1.,0.));
#662=DIRECTION('ref_axis',(-0.707106781186548,0.,-0.707106781186547));
#663=DIRECTION('',(0.,-1.,0.));
#664=DIRECTION('',(0.,1.,0.));
#665=DIRECTION('center_axis',(1.,0.,0.));
#666=DIRECTION('ref_axis',(0.,1.,0.));
#667=DIRECTION('',(0.,1.,0.));
#668=DIRECTION('center_axis',(0.,1.,0.));
#669=DIRECTION('ref_axis',(0.707106781186548,0.,0.707106781186548));
#670=DIRECTION('',(0.,-1.,0.));
#671=DIRECTION('center_axis',(0.,1.,0.));
#672=DIRECTION('ref_axis',(0.707106781186548,0.,-0.707106781186547));
#673=DIRECTION('',(0.,1.,0.));
#674=DIRECTION('',(0.,-1.,0.));
#675=DIRECTION('center_axis',(-1.,0.,0.));
#676=DIRECTION('ref_axis',(0.,-1.,0.));
#677=DIRECTION('',(0.,-1.,0.));
#678=DIRECTION('center_axis',(0.,0.,1.));
#679=DIRECTION('ref_axis',(-0.707106781186548,0.707106781186548,0.));
#680=DIRECTION('center_axis',(0.,0.,-1.));
#681=DIRECTION('ref_axis',(-0.707106781186548,0.707106781186548,0.));
#682=DIRECTION('center_axis',(0.,0.,1.));
#683=DIRECTION('ref_axis',(-0.707106781186548,0.707106781186548,0.));
#684=DIRECTION('',(0.,0.,1.));
#685=DIRECTION('center_axis',(0.,0.,1.));
#686=DIRECTION('ref_axis',(1.,0.,0.));
#687=DIRECTION('',(0.,-1.,0.));
#688=DIRECTION('center_axis',(0.,0.,-1.));
#689=DIRECTION('ref_axis',(-0.707106781186548,-0.707106781186548,0.));
#690=DIRECTION('center_axis',(0.,0.,1.));
#691=DIRECTION('ref_axis',(-0.707106781186548,-0.707106781186548,0.));
#692=DIRECTION('',(0.,0.,-1.));
#693=DIRECTION('center_axis',(0.,0.,1.));
#694=DIRECTION('ref_axis',(-0.707106781186548,-0.707106781186548,0.));
#695=DIRECTION('center_axis',(0.,-1.,0.));
#696=DIRECTION('ref_axis',(-0.707106781186548,0.,0.707106781186548));
#697=DIRECTION('',(0.,1.,0.));
#698=DIRECTION('center_axis',(0.,0.,1.));
#699=DIRECTION('ref_axis',(1.,0.,0.));
#700=DIRECTION('center_axis',(-1.,0.,0.));
#701=DIRECTION('ref_axis',(0.,0.,1.));
#702=DIRECTION('',(0.,1.,0.));
#703=DIRECTION('',(0.,-1.,0.));
#704=DIRECTION('center_axis',(1.,0.,0.));
#705=DIRECTION('ref_axis',(0.,0.,-1.));
#706=DIRECTION('',(0.,1.,0.));
#707=DIRECTION('center_axis',(0.,1.,0.));
#708=DIRECTION('ref_axis',(1.,0.,0.));
#709=DIRECTION('',(0.,1.,0.));
#710=DIRECTION('center_axis',(0.,0.,1.));
#711=DIRECTION('ref_axis',(1.,0.,0.));
#712=DIRECTION('',(0.,1.,0.));
#713=DIRECTION('center_axis',(0.,1.,0.));
#714=DIRECTION('ref_axis',(0.,0.,1.));
#715=DIRECTION('center_axis',(0.,0.,1.));
#716=DIRECTION('ref_axis',(1.,0.,0.));
#717=DIRECTION('',(0.,1.,0.));
#718=DIRECTION('center_axis',(1.,0.,0.));
#719=DIRECTION('ref_axis',(0.,1.,0.));
#720=DIRECTION('center_axis',(-1.,0.,0.));
#721=DIRECTION('ref_axis',(0.,-1.,0.));
#722=DIRECTION('',(0.,1.,0.));
#723=DIRECTION('center_axis',(0.,0.,1.));
#724=DIRECTION('ref_axis',(1.,0.,0.));
#725=CARTESIAN_POINT('',(0.,0.,0.));
#726=CARTESIAN_POINT('Origin',(-16.,-2.11471052309554E-15,4.));
#727=CARTESIAN_POINT('',(-14.,-1.86978116326607E-15,4.));
#728=CARTESIAN_POINT('Origin',(-16.,-2.11471052309554E-15,4.));
#729=CARTESIAN_POINT('',(-14.,-1.86978116326607E-15,0.));
#730=CARTESIAN_POINT('',(-14.,-2.35963988292501E-15,4.));
#731=CARTESIAN_POINT('Origin',(-16.,-2.11471052309554E-15,0.));
#732=CARTESIAN_POINT('Origin',(16.0000003129244,0.,4.));
#733=CARTESIAN_POINT('',(18.0000003129244,2.44929359829471E-16,4.));
#734=CARTESIAN_POINT('Origin',(16.0000003129244,0.,4.));
#735=CARTESIAN_POINT('',(18.0000003129244,2.44929359829471E-16,0.));
#736=CARTESIAN_POINT('',(18.0000003129244,-2.44929359829471E-16,4.));
#737=CARTESIAN_POINT('Origin',(16.0000003129244,0.,0.));
#738=CARTESIAN_POINT('Origin',(20.,5.25,0.));
#739=CARTESIAN_POINT('',(20.,6.25,4.));
#740=CARTESIAN_POINT('',(21.,5.25,4.));
#741=CARTESIAN_POINT('Origin',(20.,5.25,4.));
#742=CARTESIAN_POINT('',(21.,5.25,0.));
#743=CARTESIAN_POINT('',(21.,5.25,0.));
#744=CARTESIAN_POINT('',(20.,6.25,0.));
#745=CARTESIAN_POINT('Origin',(20.,5.25,0.));
#746=CARTESIAN_POINT('',(20.,6.25,0.));
#747=CARTESIAN_POINT('Origin',(21.,6.25,0.));
#748=CARTESIAN_POINT('',(6.,6.25,0.));
#749=CARTESIAN_POINT('',(-21.,6.25,0.));
#750=CARTESIAN_POINT('',(6.,6.25,9.));
#751=CARTESIAN_POINT('',(6.,6.25,4.5));
#752=CARTESIAN_POINT('',(5.,6.25,10.));
#753=CARTESIAN_POINT('Origin',(5.,6.25,9.));
#754=CARTESIAN_POINT('',(-5.,6.25,10.));
#755=CARTESIAN_POINT('',(8.,6.25,10.));
#756=CARTESIAN_POINT('',(-6.,6.25,9.));
#757=CARTESIAN_POINT('Origin',(-5.,6.25,9.));
#758=CARTESIAN_POINT('',(-6.,6.25,0.));
#759=CARTESIAN_POINT('',(-6.,6.25,0.));
#760=CARTESIAN_POINT('',(-20.,6.25,0.));
#761=CARTESIAN_POINT('',(-21.,6.25,0.));
#762=CARTESIAN_POINT('',(-20.,6.25,4.));
#763=CARTESIAN_POINT('',(-20.,6.25,0.));
#764=CARTESIAN_POINT('',(-11.,6.25,4.));
#765=CARTESIAN_POINT('',(-21.,6.25,4.));
#766=CARTESIAN_POINT('',(-10.,6.25,5.));
#767=CARTESIAN_POINT('Origin',(-11.,6.25,5.));
#768=CARTESIAN_POINT('',(-10.,6.25,13.));
#769=CARTESIAN_POINT('',(-10.,6.25,4.));
#770=CARTESIAN_POINT('',(-9.,6.25,14.));
#771=CARTESIAN_POINT('Origin',(-9.,6.25,13.));
#772=CARTESIAN_POINT('',(9.,6.25,14.));
#773=CARTESIAN_POINT('',(-10.,6.25,14.));
#774=CARTESIAN_POINT('',(10.,6.25,13.));
#775=CARTESIAN_POINT('Origin',(9.,6.25,13.));
#776=CARTESIAN_POINT('',(10.,6.25,5.));
#777=CARTESIAN_POINT('',(10.,6.25,4.));
#778=CARTESIAN_POINT('',(11.,6.25,4.));
#779=CARTESIAN_POINT('Origin',(11.,6.25,5.));
#780=CARTESIAN_POINT('',(-21.,6.25,4.));
#781=CARTESIAN_POINT('Origin',(0.,0.,0.));
#782=CARTESIAN_POINT('',(21.,-5.25,0.));
#783=CARTESIAN_POINT('',(21.,6.25,0.));
#784=CARTESIAN_POINT('',(20.,-6.25,0.));
#785=CARTESIAN_POINT('Origin',(20.,-5.25,0.));
#786=CARTESIAN_POINT('',(6.,-6.25,0.));
#787=CARTESIAN_POINT('',(21.,-6.25,0.));
#788=CARTESIAN_POINT('',(6.,-3.125,0.));
#789=CARTESIAN_POINT('Origin',(20.,-5.25,0.));
#790=CARTESIAN_POINT('',(21.,-5.25,4.));
#791=CARTESIAN_POINT('',(20.,-6.25,4.));
#792=CARTESIAN_POINT('Origin',(20.,-5.25,4.));
#793=CARTESIAN_POINT('',(20.,-6.25,0.));
#794=CARTESIAN_POINT('',(21.,-5.25,0.));
#795=CARTESIAN_POINT('Origin',(-21.,-6.25,0.));
#796=CARTESIAN_POINT('',(11.,-6.25,4.));
#797=CARTESIAN_POINT('',(21.,-6.25,4.));
#798=CARTESIAN_POINT('',(10.,-6.25,5.));
#799=CARTESIAN_POINT('Origin',(11.,-6.25,5.));
#800=CARTESIAN_POINT('',(10.,-6.25,13.));
#801=CARTESIAN_POINT('',(10.,-6.25,4.));
#802=CARTESIAN_POINT('',(9.,-6.25,14.));
#803=CARTESIAN_POINT('Origin',(9.,-6.25,13.));
#804=CARTESIAN_POINT('',(-9.,-6.25,14.));
#805=CARTESIAN_POINT('',(10.,-6.25,14.));
#806=CARTESIAN_POINT('',(-10.,-6.25,13.));
#807=CARTESIAN_POINT('Origin',(-9.,-6.25,13.));
#808=CARTESIAN_POINT('',(-10.,-6.25,5.));
#809=CARTESIAN_POINT('',(-10.,-6.25,4.));
#810=CARTESIAN_POINT('',(-11.,-6.25,4.));
#811=CARTESIAN_POINT('Origin',(-11.,-6.25,5.));
#812=CARTESIAN_POINT('',(-20.,-6.25,4.));
#813=CARTESIAN_POINT('',(21.,-6.25,4.));
#814=CARTESIAN_POINT('',(-20.,-6.25,0.));
#815=CARTESIAN_POINT('',(-20.,-6.25,0.));
#816=CARTESIAN_POINT('',(-6.,-6.25,0.));
#817=CARTESIAN_POINT('',(21.,-6.25,0.));
#818=CARTESIAN_POINT('',(-6.,-6.25,9.));
#819=CARTESIAN_POINT('',(-6.,-6.25,0.));
#820=CARTESIAN_POINT('',(-5.,-6.25,10.));
#821=CARTESIAN_POINT('Origin',(-5.,-6.25,9.));
#822=CARTESIAN_POINT('',(5.,-6.25,10.));
#823=CARTESIAN_POINT('',(-13.,-6.25,10.));
#824=CARTESIAN_POINT('',(6.,-6.25,9.));
#825=CARTESIAN_POINT('Origin',(5.,-6.25,9.));
#826=CARTESIAN_POINT('',(6.,-6.25,4.5));
#827=CARTESIAN_POINT('Origin',(11.,-3.125,5.));
#828=CARTESIAN_POINT('',(10.,-3.125,5.));
#829=CARTESIAN_POINT('',(11.,-3.125,4.));
#830=CARTESIAN_POINT('Origin',(10.,-6.25,4.));
#831=CARTESIAN_POINT('',(10.,-3.125,13.));
#832=CARTESIAN_POINT('Origin',(9.,-3.125,13.));
#833=CARTESIAN_POINT('',(9.,-3.125,14.));
#834=CARTESIAN_POINT('Origin',(-11.,3.125,5.));
#835=CARTESIAN_POINT('',(-10.,3.125,5.));
#836=CARTESIAN_POINT('',(-11.,3.125,4.));
#837=CARTESIAN_POINT('Origin',(-10.,6.25,4.));
#838=CARTESIAN_POINT('',(-10.,3.125,13.));
#839=CARTESIAN_POINT('Origin',(-20.,5.25,0.));
#840=CARTESIAN_POINT('',(-21.,5.25,4.));
#841=CARTESIAN_POINT('Origin',(-20.,5.25,4.));
#842=CARTESIAN_POINT('',(-21.,5.25,0.));
#843=CARTESIAN_POINT('Origin',(-20.,5.25,0.));
#844=CARTESIAN_POINT('',(-21.,5.25,0.));
#845=CARTESIAN_POINT('Origin',(0.,0.,4.));
#846=CARTESIAN_POINT('',(-21.,-5.25,4.));
#847=CARTESIAN_POINT('',(-21.,-6.25,4.));
#848=CARTESIAN_POINT('Origin',(-20.,-5.25,4.));
#849=CARTESIAN_POINT('Origin',(-20.,-5.25,0.));
#850=CARTESIAN_POINT('',(-21.,-5.25,0.));
#851=CARTESIAN_POINT('',(-21.,-5.25,0.));
#852=CARTESIAN_POINT('Origin',(-20.,-5.25,0.));
#853=CARTESIAN_POINT('Origin',(-9.,3.125,13.));
#854=CARTESIAN_POINT('',(-9.,3.125,14.));
#855=CARTESIAN_POINT('Origin',(0.,0.,14.));
#856=CARTESIAN_POINT('Origin',(-6.,-6.25,0.));
#857=CARTESIAN_POINT('',(-6.,-6.25,9.));
#858=CARTESIAN_POINT('',(-6.,-3.125,0.));
#859=CARTESIAN_POINT('Origin',(6.,-6.25,9.));
#860=CARTESIAN_POINT('',(6.,-6.25,9.));
#861=CARTESIAN_POINT('Origin',(5.,-6.25,9.));
#862=CARTESIAN_POINT('',(5.,-6.25,10.));
#863=CARTESIAN_POINT('Origin',(-5.,-6.25,10.));
#864=CARTESIAN_POINT('',(-5.,-6.25,10.));
#865=CARTESIAN_POINT('Origin',(-5.,-6.25,9.));
#866=CARTESIAN_POINT('Origin',(0.,0.,4.));
#867=CARTESIAN_POINT('',(21.,6.25,4.));
#868=CARTESIAN_POINT('Origin',(21.,-6.25,0.));
#869=CARTESIAN_POINT('Origin',(-21.,6.25,0.));
#870=CARTESIAN_POINT('',(-21.,-6.25,0.));
#871=CARTESIAN_POINT('Origin',(0.,0.,0.));
#872=UNCERTAINTY_MEASURE_WITH_UNIT(LENGTH_MEASURE(0.01),#876,
'DISTANCE_ACCURACY_VALUE',
'Maximum model space distance between geometric entities at asserted c
onnectivities');
#873=UNCERTAINTY_MEASURE_WITH_UNIT(LENGTH_MEASURE(0.01),#876,
'DISTANCE_ACCURACY_VALUE',
'Maximum model space distance between geometric entities at asserted c
onnectivities');
#874=(
GEOMETRIC_REPRESENTATION_CONTEXT(3)
GLOBAL_UNCERTAINTY_ASSIGNED_CONTEXT((#872))
GLOBAL_UNIT_ASSIGNED_CONTEXT((#876,#878,#879))
REPRESENTATION_CONTEXT('','3D')
);
#875=(
GEOMETRIC_REPRESENTATION_CONTEXT(3)
GLOBAL_UNCERTAINTY_ASSIGNED_CONTEXT((#873))
GLOBAL_UNIT_ASSIGNED_CONTEXT((#876,#878,#879))
REPRESENTATION_CONTEXT('','3D')
);
#876=(
LENGTH_UNIT()
NAMED_UNIT(*)
SI_UNIT(.MILLI.,.METRE.)
);
#877=(
LENGTH_UNIT()
NAMED_UNIT(*)
SI_UNIT($,.METRE.)
);
#878=(
NAMED_UNIT(*)
PLANE_ANGLE_UNIT()
SI_UNIT($,.RADIAN.)
);
#879=(
NAMED_UNIT(*)
SI_UNIT($,.STERADIAN.)
SOLID_ANGLE_UNIT()
);
#880=SHAPE_DEFINITION_REPRESENTATION(#881,#882);
#881=PRODUCT_DEFINITION_SHAPE('',$,#884);
#882=SHAPE_REPRESENTATION('',(#524),#874);
#883=PRODUCT_DEFINITION_CONTEXT('part definition',#888,'design');
#884=PRODUCT_DEFINITION('Clamp for N20 Motor','Clamp for N20 Motor v1',
#885,#883);
#885=PRODUCT_DEFINITION_FORMATION('',$,#890);
#886=PRODUCT_RELATED_PRODUCT_CATEGORY('Clamp for N20 Motor v1',
'Clamp for N20 Motor v1',(#890));
#887=APPLICATION_PROTOCOL_DEFINITION('international standard',
'automotive_design',2009,#888);
#888=APPLICATION_CONTEXT(
'Core Data for Automotive Mechanical Design Process');
#889=PRODUCT_CONTEXT('part definition',#888,'mechanical');
#890=PRODUCT('Clamp for N20 Motor','Clamp for N20 Motor v1',$,(#889));
#891=PRESENTATION_STYLE_ASSIGNMENT((#893));
#892=PRESENTATION_STYLE_ASSIGNMENT((#894));
#893=SURFACE_STYLE_USAGE(.BOTH.,#895);
#894=SURFACE_STYLE_USAGE(.BOTH.,#896);
#895=SURFACE_SIDE_STYLE('',(#897));
#896=SURFACE_SIDE_STYLE('',(#898));
#897=SURFACE_STYLE_FILL_AREA(#899);
#898=SURFACE_STYLE_FILL_AREA(#900);
#899=FILL_AREA_STYLE('Steel - Satin',(#901));
#900=FILL_AREA_STYLE('ABS (White)',(#902));
#901=FILL_AREA_STYLE_COLOUR('Steel - Satin',#903);
#902=FILL_AREA_STYLE_COLOUR('ABS (White)',#904);
#903=COLOUR_RGB('Steel - Satin',0.627450980392157,0.627450980392157,0.627450980392157);
#904=COLOUR_RGB('ABS (White)',0.964705882352941,0.964705882352941,0.952941176470588);
ENDSEC;
END-ISO-10303-21;
