ISO-10303-21;
HEADER;
FILE_DESCRIPTION (( 'STEP AP203' ),
    '1' );
FILE_NAME ('arandela_m4.STEP',
    '2026-09-14T13:32:39',
    ( '' ),
    ( '' ),
    'SwSTEP 2.0',
    'SolidWorks 2026',
    '' );
FILE_SCHEMA (( 'CONFIG_CONTROL_DESIGN' ));
ENDSEC;

DATA;
#1 = DIRECTION ( 'NONE',  ( -1.000000000000000000, 0.000000000000000000, 0.000000000000000000 ) ) ;
#2 = LOCAL_TIME ( 10, 32, 39.00000000000000000, #79 ) ;
#3 = DIRECTION ( 'NONE',  ( 1.000000000000000000, 0.000000000000000000, 0.000000000000000000 ) ) ;
#4 = LINE ( 'NONE', #75, #6 ) ;
#5 = CC_DESIGN_DATE_AND_TIME_ASSIGNMENT ( #66, #206, ( #96 ) ) ;
#6 = VECTOR ( 'NONE', #170, 1000.000000000000000 ) ;
#7 = CYLINDRICAL_SURFACE ( 'NONE', #164, 7.500000000000000000 ) ;
#8 = DIRECTION ( 'NONE',  ( 0.000000000000000000, 0.000000000000000000, 1.000000000000000000 ) ) ;
#9 = DIRECTION ( 'NONE',  ( -1.000000000000000000, 0.000000000000000000, 0.000000000000000000 ) ) ;
#10 = AXIS2_PLACEMENT_3D ( 'NONE', #59, #117, #112 ) ;
#11 = EDGE_CURVE ( 'NONE', #89, #153, #4, .T. ) ;
#12 = PERSON_AND_ORGANIZATION_ROLE ( 'classification_officer' ) ;
#13 = VERTEX_POINT ( 'NONE', #20 ) ;
#14 = COORDINATED_UNIVERSAL_TIME_OFFSET ( 3, 0, .BEHIND. ) ;
#15 = ORIENTED_EDGE ( 'NONE', *, *, #60, .F. ) ;
#16 = CIRCLE ( 'NONE', #24, 2.299999999999999822 ) ;
#17 = FACE_OUTER_BOUND ( 'NONE', #209, .T. ) ;
#18 = AXIS2_PLACEMENT_3D ( 'NONE', #45, #124, #200 ) ;
#19 = CYLINDRICAL_SURFACE ( 'NONE', #76, 2.299999999999999822 ) ;
#20 = CARTESIAN_POINT ( 'NONE',  ( -7.500000000000000000, 0.000000000000000000, 0.000000000000000000 ) ) ;
#21 = UNCERTAINTY_MEASURE_WITH_UNIT (LENGTH_MEASURE( 1.000000000000000082E-05 ), #121, 'distance_accuracy_value', 'NONE');
#22 = PLANE ( 'NONE',  #10 ) ;
#23 = EDGE_CURVE ( 'NONE', #153, #13, #224, .T. ) ;
#24 = AXIS2_PLACEMENT_3D ( 'NONE', #177, #46, #235 ) ;
#25 = DIRECTION ( 'NONE',  ( 1.000000000000000000, 0.000000000000000000, 0.000000000000000000 ) ) ;
#26 = MECHANICAL_CONTEXT ( 'NONE', #149, 'mechanical' ) ;
#27 = DIRECTION ( 'NONE',  ( 1.000000000000000000, 0.000000000000000000, 0.000000000000000000 ) ) ;
#28 = CARTESIAN_POINT ( 'NONE',  ( 2.299999999999999822, 2.816687638038912056E-16, 0.000000000000000000 ) ) ;
#29 =( NAMED_UNIT ( * ) SI_UNIT ( $, .STERADIAN. ) SOLID_ANGLE_UNIT ( ) );
#30 = ADVANCED_BREP_SHAPE_REPRESENTATION ( 'arandela_m4', ( #90, #33 ), #88 ) ;
#31 = PERSON_AND_ORGANIZATION ( #18446744073709551615, #18446744073709551615 ) ;
#32 = CC_DESIGN_PERSON_AND_ORGANIZATION_ASSIGNMENT ( #82, #161, ( #50 ) ) ;
#33 = AXIS2_PLACEMENT_3D ( 'NONE', #176, #204, #198 ) ;
#34 = APPROVAL_DATE_TIME ( #242, #236 ) ;
#35 = CIRCLE ( 'NONE', #114, 7.500000000000000000 ) ;
#36 = PERSON_AND_ORGANIZATION ( #18446744073709551615, #18446744073709551615 ) ;
#37 = VERTEX_POINT ( 'NONE', #78 ) ;
#38 = EDGE_LOOP ( 'NONE', ( #97, #58, #67, #87 ) ) ;
#39 = FACE_OUTER_BOUND ( 'NONE', #189, .T. ) ;
#40 = CIRCLE ( 'NONE', #192, 2.299999999999999822 ) ;
#41 = DIRECTION ( 'NONE',  ( -0.000000000000000000, -0.000000000000000000, -1.000000000000000000 ) ) ;
#42 = ORIENTED_EDGE ( 'NONE', *, *, #160, .T. ) ;
#43 = VERTEX_POINT ( 'NONE', #54 ) ;
#44 = DATE_AND_TIME ( #65, #230 ) ;
#45 = CARTESIAN_POINT ( 'NONE',  ( 0.000000000000000000, 0.000000000000000000, 1.199999999999999956 ) ) ;
#46 = DIRECTION ( 'NONE',  ( 0.000000000000000000, 0.000000000000000000, 1.000000000000000000 ) ) ;
#47 = CALENDAR_DATE ( 2026, 14, 9 ) ;
#48 = PRODUCT_DEFINITION_SHAPE ( 'NONE', 'NONE',  #50 ) ;
#49 = ORIENTED_EDGE ( 'NONE', *, *, #160, .F. ) ;
#50 = PRODUCT_DEFINITION ( 'General', '', #218, #208 ) ;
#51 = DATE_AND_TIME ( #205, #157 ) ;
#52 = CC_DESIGN_APPROVAL ( #236, ( #96 ) ) ;
#53 = VERTEX_POINT ( 'NONE', #215 ) ;
#54 = CARTESIAN_POINT ( 'NONE',  ( 2.299999999999999822, 2.816687638038912056E-16, 1.199999999999999956 ) ) ;
#55 = CARTESIAN_POINT ( 'NONE',  ( 0.000000000000000000, 0.000000000000000000, 1.199999999999999956 ) ) ;
#56 = AXIS2_PLACEMENT_3D ( 'NONE', #103, #122, #104 ) ;
#57 = CARTESIAN_POINT ( 'NONE',  ( 7.500000000000000000, 9.184850993605147944E-16, 1.199999999999999956 ) ) ;
#58 = ORIENTED_EDGE ( 'NONE', *, *, #211, .T. ) ;
#59 = CARTESIAN_POINT ( 'NONE',  ( 0.000000000000000000, 0.000000000000000000, 0.000000000000000000 ) ) ;
#60 = EDGE_CURVE ( 'NONE', #89, #37, #64, .T. ) ;
#61 = APPROVAL_DATE_TIME ( #125, #132 ) ;
#62 = ADVANCED_FACE ( 'NONE', ( #196 ), #19, .F. ) ;
#63 = CARTESIAN_POINT ( 'NONE',  ( -2.299999999999999822, 0.000000000000000000, 0.000000000000000000 ) ) ;
#64 = CIRCLE ( 'NONE', #123, 7.500000000000000000 ) ;
#65 = CALENDAR_DATE ( 2026, 14, 9 ) ;
#66 = DATE_AND_TIME ( #129, #240 ) ;
#67 = ORIENTED_EDGE ( 'NONE', *, *, #172, .F. ) ;
#68 = CIRCLE ( 'NONE', #18, 2.299999999999999822 ) ;
#69 = ORIENTED_EDGE ( 'NONE', *, *, #172, .T. ) ;
#70 = SHAPE_DEFINITION_REPRESENTATION ( #48, #30 ) ;
#71 = ORIENTED_EDGE ( 'NONE', *, *, #212, .F. ) ;
#72 = CARTESIAN_POINT ( 'NONE',  ( 0.000000000000000000, 0.000000000000000000, 0.000000000000000000 ) ) ;
#73 = ORIENTED_EDGE ( 'NONE', *, *, #131, .F. ) ;
#74 = ADVANCED_FACE ( 'NONE', ( #155, #152 ), #247, .T. ) ;
#75 = CARTESIAN_POINT ( 'NONE',  ( 7.500000000000000000, 9.184850993605147944E-16, 1.199999999999999956 ) ) ;
#76 = AXIS2_PLACEMENT_3D ( 'NONE', #169, #94, #1 ) ;
#77 = DIRECTION ( 'NONE',  ( -0.000000000000000000, -0.000000000000000000, -1.000000000000000000 ) ) ;
#78 = CARTESIAN_POINT ( 'NONE',  ( -7.500000000000000000, 0.000000000000000000, 1.199999999999999956 ) ) ;
#79 = COORDINATED_UNIVERSAL_TIME_OFFSET ( 3, 0, .BEHIND. ) ;
#80 = AXIS2_PLACEMENT_3D ( 'NONE', #231, #77, #95 ) ;
#81 = CARTESIAN_POINT ( 'NONE',  ( 0.000000000000000000, 0.000000000000000000, 1.199999999999999956 ) ) ;
#82 = PERSON_AND_ORGANIZATION ( #18446744073709551615, #18446744073709551615 ) ;
#83 = CALENDAR_DATE ( 2026, 14, 9 ) ;
#84 = ORIENTED_EDGE ( 'NONE', *, *, #131, .T. ) ;
#85 = APPROVAL_STATUS ( 'not_yet_approved' ) ;
#86 = PERSON_AND_ORGANIZATION_ROLE ( 'design_supplier' ) ;
#87 = ORIENTED_EDGE ( 'NONE', *, *, #163, .F. ) ;
#88 =( GEOMETRIC_REPRESENTATION_CONTEXT ( 3 ) GLOBAL_UNCERTAINTY_ASSIGNED_CONTEXT ( ( #21 ) ) GLOBAL_UNIT_ASSIGNED_CONTEXT ( ( #121, #120, #29 ) ) REPRESENTATION_CONTEXT ( 'NONE', 'WORKASPACE' ) );
#89 = VERTEX_POINT ( 'NONE', #57 ) ;
#90 = MANIFOLD_SOLID_BREP ( 'Saliente-Extruir1', #100 ) ;
#91 = FACE_OUTER_BOUND ( 'NONE', #225, .T. ) ;
#92 = CC_DESIGN_APPROVAL ( #244, ( #218 ) ) ;
#93 = CARTESIAN_POINT ( 'NONE',  ( 0.000000000000000000, 0.000000000000000000, 1.199999999999999956 ) ) ;
#94 = DIRECTION ( 'NONE',  ( -0.000000000000000000, -0.000000000000000000, -1.000000000000000000 ) ) ;
#95 = DIRECTION ( 'NONE',  ( -1.000000000000000000, 0.000000000000000000, 0.000000000000000000 ) ) ;
#96 = SECURITY_CLASSIFICATION ( '', '', #207 ) ;
#97 = ORIENTED_EDGE ( 'NONE', *, *, #212, .T. ) ;
#98 = DATE_TIME_ROLE ( 'creation_date' ) ;
#99 = CARTESIAN_POINT ( 'NONE',  ( 7.500000000000000000, 9.184850993605147944E-16, 0.000000000000000000 ) ) ;
#100 = CLOSED_SHELL ( 'NONE', ( #62, #119, #74, #102, #227, #130 ) ) ;
#101 = LINE ( 'NONE', #199, #144 ) ;
#102 = ADVANCED_FACE ( 'NONE', ( #17, #136 ), #22, .F. ) ;
#103 = CARTESIAN_POINT ( 'NONE',  ( 0.000000000000000000, 0.000000000000000000, 1.199999999999999956 ) ) ;
#104 = DIRECTION ( 'NONE',  ( 1.000000000000000000, 0.000000000000000000, 0.000000000000000000 ) ) ;
#105 = ORIENTED_EDGE ( 'NONE', *, *, #211, .F. ) ;
#106 = ORIENTED_EDGE ( 'NONE', *, *, #23, .F. ) ;
#107 = APPROVAL_DATE_TIME ( #51, #244 ) ;
#108 = CIRCLE ( 'NONE', #56, 7.500000000000000000 ) ;
#109 = EDGE_CURVE ( 'NONE', #13, #153, #35, .T. ) ;
#110 = COORDINATED_UNIVERSAL_TIME_OFFSET ( 3, 0, .BEHIND. ) ;
#111 = CC_DESIGN_PERSON_AND_ORGANIZATION_ASSIGNMENT ( #184, #86, ( #218 ) ) ;
#112 = DIRECTION ( 'NONE',  ( 1.000000000000000000, 0.000000000000000000, -0.000000000000000000 ) ) ;
#113 = CARTESIAN_POINT ( 'NONE',  ( 0.000000000000000000, 0.000000000000000000, 1.199999999999999956 ) ) ;
#114 = AXIS2_PLACEMENT_3D ( 'NONE', #216, #214, #190 ) ;
#115 = DIRECTION ( 'NONE',  ( -1.000000000000000000, 0.000000000000000000, 0.000000000000000000 ) ) ;
#116 = DIRECTION ( 'NONE',  ( 1.000000000000000000, 0.000000000000000000, 0.000000000000000000 ) ) ;
#117 = DIRECTION ( 'NONE',  ( 0.000000000000000000, 0.000000000000000000, 1.000000000000000000 ) ) ;
#118 = PRODUCT ( 'arandela_m4', 'arandela_m4', '', ( #26 ) ) ;
#119 = ADVANCED_FACE ( 'NONE', ( #91 ), #228, .T. ) ;
#120 =( NAMED_UNIT ( * ) PLANE_ANGLE_UNIT ( ) SI_UNIT ( $, .RADIAN. ) );
#121 =( LENGTH_UNIT ( ) NAMED_UNIT ( * ) SI_UNIT ( .MILLI., .METRE. ) );
#122 = DIRECTION ( 'NONE',  ( 0.000000000000000000, 0.000000000000000000, 1.000000000000000000 ) ) ;
#123 = AXIS2_PLACEMENT_3D ( 'NONE', #113, #195, #116 ) ;
#124 = DIRECTION ( 'NONE',  ( 0.000000000000000000, 0.000000000000000000, 1.000000000000000000 ) ) ;
#125 = DATE_AND_TIME ( #47, #2 ) ;
#126 = CIRCLE ( 'NONE', #222, 2.299999999999999822 ) ;
#127 = ORIENTED_EDGE ( 'NONE', *, *, #203, .F. ) ;
#128 = CC_DESIGN_PERSON_AND_ORGANIZATION_ASSIGNMENT ( #31, #220, ( #118 ) ) ;
#129 = CALENDAR_DATE ( 2026, 14, 9 ) ;
#130 = ADVANCED_FACE ( 'NONE', ( #39 ), #191, .F. ) ;
#131 = EDGE_CURVE ( 'NONE', #166, #246, #40, .T. ) ;
#132 = APPROVAL ( #142, 'Coincidente' ) ;
#133 = COORDINATED_UNIVERSAL_TIME_OFFSET ( 3, 0, .BEHIND. ) ;
#134 = AXIS2_PLACEMENT_3D ( 'NONE', #55, #233, #140 ) ;
#135 = ORIENTED_EDGE ( 'NONE', *, *, #23, .T. ) ;
#136 = FACE_BOUND ( 'NONE', #232, .T. ) ;
#137 = APPROVAL_PERSON_ORGANIZATION ( #145, #132, #223 ) ;
#138 = ORIENTED_EDGE ( 'NONE', *, *, #109, .F. ) ;
#139 = ORIENTED_EDGE ( 'NONE', *, *, #109, .T. ) ;
#140 = DIRECTION ( 'NONE',  ( 1.000000000000000000, 0.000000000000000000, -0.000000000000000000 ) ) ;
#141 = AXIS2_PLACEMENT_3D ( 'NONE', #72, #151, #25 ) ;
#142 = APPROVAL_STATUS ( 'not_yet_approved' ) ;
#143 = APPLICATION_PROTOCOL_DEFINITION ( 'international standard', 'config_control_design', 1994, #149 ) ;
#144 = VECTOR ( 'NONE', #180, 1000.000000000000000 ) ;
#145 = PERSON_AND_ORGANIZATION ( #18446744073709551615, #18446744073709551615 ) ;
#146 = ORIENTED_EDGE ( 'NONE', *, *, #11, .F. ) ;
#147 = EDGE_LOOP ( 'NONE', ( #243, #185 ) ) ;
#148 = PRODUCT_RELATED_PRODUCT_CATEGORY ( 'detail', '', ( #118 ) ) ;
#149 = APPLICATION_CONTEXT ( 'configuration controlled 3d designs of mechanical parts and assemblies' ) ;
#150 = EDGE_CURVE ( 'NONE', #37, #13, #173, .T. ) ;
#151 = DIRECTION ( 'NONE',  ( 0.000000000000000000, 0.000000000000000000, 1.000000000000000000 ) ) ;
#152 = FACE_BOUND ( 'NONE', #168, .T. ) ;
#153 = VERTEX_POINT ( 'NONE', #99 ) ;
#154 = CARTESIAN_POINT ( 'NONE',  ( -7.500000000000000000, 0.000000000000000000, 1.199999999999999956 ) ) ;
#155 = FACE_OUTER_BOUND ( 'NONE', #147, .T. ) ;
#156 = PERSON_AND_ORGANIZATION ( #18446744073709551615, #18446744073709551615 ) ;
#157 = LOCAL_TIME ( 10, 32, 39.00000000000000000, #14 ) ;
#158 = CARTESIAN_POINT ( 'NONE',  ( 0.000000000000000000, 0.000000000000000000, 1.199999999999999956 ) ) ;
#159 = APPLICATION_PROTOCOL_DEFINITION ( 'international standard', 'config_control_design', 1994, #221 ) ;
#160 = EDGE_CURVE ( 'NONE', #43, #53, #126, .T. ) ;
#161 = PERSON_AND_ORGANIZATION_ROLE ( 'creator' ) ;
#162 = ORIENTED_EDGE ( 'NONE', *, *, #11, .T. ) ;
#163 = EDGE_CURVE ( 'NONE', #53, #246, #219, .T. ) ;
#164 = AXIS2_PLACEMENT_3D ( 'NONE', #81, #202, #9 ) ;
#165 = APPROVAL_ROLE ( '' ) ;
#166 = VERTEX_POINT ( 'NONE', #28 ) ;
#167 = CC_DESIGN_DATE_AND_TIME_ASSIGNMENT ( #44, #98, ( #50 ) ) ;
#168 = EDGE_LOOP ( 'NONE', ( #71, #49 ) ) ;
#169 = CARTESIAN_POINT ( 'NONE',  ( 0.000000000000000000, 0.000000000000000000, 1.199999999999999956 ) ) ;
#170 = DIRECTION ( 'NONE',  ( -0.000000000000000000, -0.000000000000000000, -1.000000000000000000 ) ) ;
#171 = DIRECTION ( 'NONE',  ( 0.000000000000000000, 0.000000000000000000, 1.000000000000000000 ) ) ;
#172 = EDGE_CURVE ( 'NONE', #246, #166, #16, .T. ) ;
#173 = LINE ( 'NONE', #154, #179 ) ;
#174 = VECTOR ( 'NONE', #181, 1000.000000000000000 ) ;
#175 = ORIENTED_EDGE ( 'NONE', *, *, #150, .F. ) ;
#176 = CARTESIAN_POINT ( 'NONE',  ( 0.000000000000000000, 0.000000000000000000, 0.000000000000000000 ) ) ;
#177 = CARTESIAN_POINT ( 'NONE',  ( 0.000000000000000000, 0.000000000000000000, 0.000000000000000000 ) ) ;
#178 = APPROVAL_PERSON_ORGANIZATION ( #156, #244, #165 ) ;
#179 = VECTOR ( 'NONE', #217, 1000.000000000000000 ) ;
#180 = DIRECTION ( 'NONE',  ( -0.000000000000000000, -0.000000000000000000, -1.000000000000000000 ) ) ;
#181 = DIRECTION ( 'NONE',  ( -0.000000000000000000, -0.000000000000000000, -1.000000000000000000 ) ) ;
#182 = CARTESIAN_POINT ( 'NONE',  ( -2.299999999999999822, 0.000000000000000000, 1.199999999999999956 ) ) ;
#183 = PERSON_AND_ORGANIZATION ( #18446744073709551615, #18446744073709551615 ) ;
#184 = PERSON_AND_ORGANIZATION ( #18446744073709551615, #18446744073709551615 ) ;
#185 = ORIENTED_EDGE ( 'NONE', *, *, #60, .T. ) ;
#186 = CC_DESIGN_PERSON_AND_ORGANIZATION_ASSIGNMENT ( #241, #12, ( #96 ) ) ;
#187 = PERSON_AND_ORGANIZATION_ROLE ( 'creator' ) ;
#188 = EDGE_LOOP ( 'NONE', ( #146, #127, #229, #139 ) ) ;
#189 = EDGE_LOOP ( 'NONE', ( #105, #42, #210, #73 ) ) ;
#190 = DIRECTION ( 'NONE',  ( 1.000000000000000000, 0.000000000000000000, 0.000000000000000000 ) ) ;
#191 = CYLINDRICAL_SURFACE ( 'NONE', #245, 2.299999999999999822 ) ;
#192 = AXIS2_PLACEMENT_3D ( 'NONE', #193, #171, #3 ) ;
#193 = CARTESIAN_POINT ( 'NONE',  ( 0.000000000000000000, 0.000000000000000000, 0.000000000000000000 ) ) ;
#194 = CC_DESIGN_PERSON_AND_ORGANIZATION_ASSIGNMENT ( #36, #187, ( #218 ) ) ;
#195 = DIRECTION ( 'NONE',  ( 0.000000000000000000, 0.000000000000000000, 1.000000000000000000 ) ) ;
#196 = FACE_OUTER_BOUND ( 'NONE', #38, .T. ) ;
#197 = CC_DESIGN_SECURITY_CLASSIFICATION ( #96, ( #218 ) ) ;
#198 = DIRECTION ( 'NONE',  ( 1.000000000000000000, 0.000000000000000000, 0.000000000000000000 ) ) ;
#199 = CARTESIAN_POINT ( 'NONE',  ( 2.299999999999999822, 2.816687638038912056E-16, 1.199999999999999956 ) ) ;
#200 = DIRECTION ( 'NONE',  ( 1.000000000000000000, 0.000000000000000000, 0.000000000000000000 ) ) ;
#201 = APPROVAL_PERSON_ORGANIZATION ( #183, #236, #226 ) ;
#202 = DIRECTION ( 'NONE',  ( -0.000000000000000000, -0.000000000000000000, -1.000000000000000000 ) ) ;
#203 = EDGE_CURVE ( 'NONE', #37, #89, #108, .T. ) ;
#204 = DIRECTION ( 'NONE',  ( 0.000000000000000000, 0.000000000000000000, 1.000000000000000000 ) ) ;
#205 = CALENDAR_DATE ( 2026, 14, 9 ) ;
#206 = DATE_TIME_ROLE ( 'classification_date' ) ;
#207 = SECURITY_CLASSIFICATION_LEVEL ( 'unclassified' ) ;
#208 = DESIGN_CONTEXT ( 'detailed design', #221, 'design' ) ;
#209 = EDGE_LOOP ( 'NONE', ( #138, #106 ) ) ;
#210 = ORIENTED_EDGE ( 'NONE', *, *, #163, .T. ) ;
#211 = EDGE_CURVE ( 'NONE', #43, #166, #101, .T. ) ;
#212 = EDGE_CURVE ( 'NONE', #53, #43, #68, .T. ) ;
#213 = CC_DESIGN_APPROVAL ( #132, ( #50 ) ) ;
#214 = DIRECTION ( 'NONE',  ( 0.000000000000000000, 0.000000000000000000, 1.000000000000000000 ) ) ;
#215 = CARTESIAN_POINT ( 'NONE',  ( -2.299999999999999822, 0.000000000000000000, 1.199999999999999956 ) ) ;
#216 = CARTESIAN_POINT ( 'NONE',  ( 0.000000000000000000, 0.000000000000000000, 0.000000000000000000 ) ) ;
#217 = DIRECTION ( 'NONE',  ( -0.000000000000000000, -0.000000000000000000, -1.000000000000000000 ) ) ;
#218 = PRODUCT_DEFINITION_FORMATION_WITH_SPECIFIED_SOURCE ( 'Simétric', '', #118, .NOT_KNOWN. ) ;
#219 = LINE ( 'NONE', #182, #174 ) ;
#220 = PERSON_AND_ORGANIZATION_ROLE ( 'design_owner' ) ;
#221 = APPLICATION_CONTEXT ( 'configuration controlled 3d designs of mechanical parts and assemblies' ) ;
#222 = AXIS2_PLACEMENT_3D ( 'NONE', #158, #8, #27 ) ;
#223 = APPROVAL_ROLE ( '' ) ;
#224 = CIRCLE ( 'NONE', #141, 7.500000000000000000 ) ;
#225 = EDGE_LOOP ( 'NONE', ( #15, #162, #135, #175 ) ) ;
#226 = APPROVAL_ROLE ( '' ) ;
#227 = ADVANCED_FACE ( 'NONE', ( #237 ), #7, .T. ) ;
#228 = CYLINDRICAL_SURFACE ( 'NONE', #80, 7.500000000000000000 ) ;
#229 = ORIENTED_EDGE ( 'NONE', *, *, #150, .T. ) ;
#230 = LOCAL_TIME ( 10, 32, 39.00000000000000000, #239 ) ;
#231 = CARTESIAN_POINT ( 'NONE',  ( 0.000000000000000000, 0.000000000000000000, 1.199999999999999956 ) ) ;
#232 = EDGE_LOOP ( 'NONE', ( #69, #84 ) ) ;
#233 = DIRECTION ( 'NONE',  ( 0.000000000000000000, 0.000000000000000000, 1.000000000000000000 ) ) ;
#234 = APPROVAL_STATUS ( 'not_yet_approved' ) ;
#235 = DIRECTION ( 'NONE',  ( 1.000000000000000000, 0.000000000000000000, 0.000000000000000000 ) ) ;
#236 = APPROVAL ( #85, 'Coincidente' ) ;
#237 = FACE_OUTER_BOUND ( 'NONE', #188, .T. ) ;
#238 = LOCAL_TIME ( 10, 32, 39.00000000000000000, #133 ) ;
#239 = COORDINATED_UNIVERSAL_TIME_OFFSET ( 3, 0, .BEHIND. ) ;
#240 = LOCAL_TIME ( 10, 32, 39.00000000000000000, #110 ) ;
#241 = PERSON_AND_ORGANIZATION ( #18446744073709551615, #18446744073709551615 ) ;
#242 = DATE_AND_TIME ( #83, #238 ) ;
#243 = ORIENTED_EDGE ( 'NONE', *, *, #203, .T. ) ;
#244 = APPROVAL ( #234, 'Coincidente' ) ;
#245 = AXIS2_PLACEMENT_3D ( 'NONE', #93, #41, #115 ) ;
#246 = VERTEX_POINT ( 'NONE', #63 ) ;
#247 = PLANE ( 'NONE',  #134 ) ;
ENDSEC;
END-ISO-10303-21;
