ISO-10303-21;
HEADER;
FILE_DESCRIPTION (( 'STEP AP203' ),
    '1' );
FILE_NAME ('asml_eslabon_BC_externav4.STEP',
    '2026-09-14T13:32:39',
    ( '' ),
    ( '' ),
    'SwSTEP 2.0',
    'SolidWorks 2026',
    '' );
FILE_SCHEMA (( 'CONFIG_CONTROL_DESIGN' ));
ENDSEC;

DATA;
#1 = PLANE ( 'NONE',  #1125 ) ;
#2 = ORIENTED_EDGE ( 'NONE', *, *, #1060, .F. ) ;
#3 = CARTESIAN_POINT ( 'NONE',  ( -1.157291225194249043E-14, 54.00000000000000000, 4.000000000000000000 ) ) ;
#4 = VECTOR ( 'NONE', #681, 1000.000000000000000 ) ;
#5 = EDGE_CURVE ( 'NONE', #714, #331, #857, .T. ) ;
#6 = CIRCLE ( 'NONE', #1126, 2.099999999999999645 ) ;
#7 = LOCAL_TIME ( 10, 32, 39.00000000000000000, #91 ) ;
#8 = DIRECTION ( 'NONE',  ( -0.000000000000000000, -0.000000000000000000, -1.000000000000000000 ) ) ;
#9 = DIRECTION ( 'NONE',  ( 1.000000000000000000, 0.000000000000000000, -0.000000000000000000 ) ) ;
#10 = ORIENTED_EDGE ( 'NONE', *, *, #1036, .F. ) ;
#11 = PLANE ( 'NONE',  #159 ) ;
#12 = CC_DESIGN_PERSON_AND_ORGANIZATION_ASSIGNMENT ( #516, #952, ( #1015 ) ) ;
#13 = CARTESIAN_POINT ( 'NONE',  ( 13.99999999999996447, -14.00000000000009770, 4.000000000000000000 ) ) ;
#14 = DIRECTION ( 'NONE',  ( -0.000000000000000000, 0.000000000000000000, 1.000000000000000000 ) ) ;
#15 = ORIENTED_EDGE ( 'NONE', *, *, #64, .T. ) ;
#16 = FACE_OUTER_BOUND ( 'NONE', #1002, .T. ) ;
#17 = DIRECTION ( 'NONE',  ( -0.000000000000000000, 0.000000000000000000, -1.000000000000000000 ) ) ;
#18 = DIRECTION ( 'NONE',  ( 0.000000000000000000, -1.000000000000000000, 0.000000000000000000 ) ) ;
#19 = EDGE_CURVE ( 'NONE', #585, #286, #441, .T. ) ;
#20 = ORIENTED_EDGE ( 'NONE', *, *, #589, .T. ) ;
#21 = DIRECTION ( 'NONE',  ( 1.000000000000000000, -0.000000000000000000, 0.000000000000000000 ) ) ;
#22 = VECTOR ( 'NONE', #614, 1000.000000000000000 ) ;
#23 = DIRECTION ( 'NONE',  ( -0.000000000000000000, 0.000000000000000000, 1.000000000000000000 ) ) ;
#24 = AXIS2_PLACEMENT_3D ( 'NONE', #387, #21, #637 ) ;
#25 = CARTESIAN_POINT ( 'NONE',  ( -6.000000000000023093, -30.99999999999989697, 4.000000000000000000 ) ) ;
#26 = EDGE_LOOP ( 'NONE', ( #1110, #942, #766, #54, #971, #740 ) ) ;
#27 = LINE ( 'NONE', #371, #498 ) ;
#28 = EDGE_CURVE ( 'NONE', #759, #523, #848, .T. ) ;
#29 = PLANE ( 'NONE',  #61 ) ;
#30 = DIRECTION ( 'NONE',  ( -0.000000000000000000, -0.000000000000000000, -1.000000000000000000 ) ) ;
#31 = ORIENTED_EDGE ( 'NONE', *, *, #538, .F. ) ;
#32 = CARTESIAN_POINT ( 'NONE',  ( 12.49999999999996625, 12.50000000000009415, 0.000000000000000000 ) ) ;
#33 = ADVANCED_FACE ( 'NONE', ( #956 ), #1, .T. ) ;
#34 = CARTESIAN_POINT ( 'NONE',  ( -6.000000000000019540, -33.99999999999988631, 0.000000000000000000 ) ) ;
#35 = DIRECTION ( 'NONE',  ( -0.7071067811865507924, -0.7071067811865441310, 0.000000000000000000 ) ) ;
#36 = ORIENTED_EDGE ( 'NONE', *, *, #1102, .T. ) ;
#37 = CYLINDRICAL_SURFACE ( 'NONE', #24, 10.00000000000000000 ) ;
#38 = LINE ( 'NONE', #569, #570 ) ;
#39 = AXIS2_PLACEMENT_3D ( 'NONE', #396, #756, #927 ) ;
#40 = CARTESIAN_POINT ( 'NONE',  ( 3.650048451338441691, 42.76588596671410158, 5.185287164647838232 ) ) ;
#41 = AXIS2_PLACEMENT_3D ( 'NONE', #537, #116, #992 ) ;
#42 = VERTEX_POINT ( 'NONE', #96 ) ;
#43 = CIRCLE ( 'NONE', #283, 6.000000000000006217 ) ;
#44 = FACE_BOUND ( 'NONE', #603, .T. ) ;
#45 = CARTESIAN_POINT ( 'NONE',  ( -6.000000000000019540, 33.99999999999988631, 4.000000000000000000 ) ) ;
#46 = CARTESIAN_POINT ( 'NONE',  ( -3.947361375895790836, 42.53474478234457479, 5.061389938606068561 ) ) ;
#47 = EDGE_LOOP ( 'NONE', ( #97, #1021, #1124, #200 ) ) ;
#48 = APPROVAL_DATE_TIME ( #580, #484 ) ;
#49 = EDGE_CURVE ( 'NONE', #617, #331, #272, .T. ) ;
#50 = ORIENTED_EDGE ( 'NONE', *, *, #342, .T. ) ;
#51 = DIRECTION ( 'NONE',  ( 0.000000000000000000, 0.000000000000000000, 1.000000000000000000 ) ) ;
#52 = CARTESIAN_POINT ( 'NONE',  ( 5.999999999999991118, 0.000000000000000000, 0.000000000000000000 ) ) ;
#53 = EDGE_CURVE ( 'NONE', #1048, #940, #84, .T. ) ;
#54 = ORIENTED_EDGE ( 'NONE', *, *, #1001, .F. ) ;
#55 = LINE ( 'NONE', #1115, #866 ) ;
#56 = VERTEX_POINT ( 'NONE', #796 ) ;
#57 = CARTESIAN_POINT ( 'NONE',  ( 9.999999999998452793, 47.94999999999999574, 12.65000000000007851 ) ) ;
#58 = DIRECTION ( 'NONE',  ( -0.000000000000000000, -0.000000000000000000, -1.000000000000000000 ) ) ;
#59 = CIRCLE ( 'NONE', #1034, 2.099999999999999645 ) ;
#60 = ORIENTED_EDGE ( 'NONE', *, *, #698, .T. ) ;
#61 = AXIS2_PLACEMENT_3D ( 'NONE', #806, #1065, #17 ) ;
#62 = CC_DESIGN_APPROVAL ( #968, ( #1015 ) ) ;
#63 = ORIENTED_EDGE ( 'NONE', *, *, #832, .T. ) ;
#64 = EDGE_CURVE ( 'NONE', #1016, #787, #250, .T. ) ;
#65 = CARTESIAN_POINT ( 'NONE',  ( 4.087263743630772161, 42.39663216786969713, 4.996947172084134081 ) ) ;
#66 = ORIENTED_EDGE ( 'NONE', *, *, #902, .F. ) ;
#67 = COORDINATED_UNIVERSAL_TIME_OFFSET ( 3, 0, .BEHIND. ) ;
#68 = ORIENTED_EDGE ( 'NONE', *, *, #425, .T. ) ;
#69 = EDGE_CURVE ( 'NONE', #909, #985, #722, .T. ) ;
#70 = DIRECTION ( 'NONE',  ( 0.000000000000000000, -1.000000000000000000, 0.000000000000000000 ) ) ;
#71 = DIRECTION ( 'NONE',  ( 1.000000000000000000, 0.000000000000000000, 0.000000000000000000 ) ) ;
#72 = CARTESIAN_POINT ( 'NONE',  ( 5.999999999999991118, 21.99999999999999289, 4.000000000000000000 ) ) ;
#73 = VERTEX_POINT ( 'NONE', #1061 ) ;
#74 = B_SPLINE_CURVE_WITH_KNOTS ( 'NONE', 3,
 ( #729, #451, #1079, #639, #548, #901, #559, #136, #325, #65, #584, #40, #770, #330, #912, #409, #676, #471, #1026, #312, #220, #1020, #843, #745, #663, #658, #837, #827, #833, #307, #46, #319, #497, #1000, #392, #1005, #578, #226, #851, #415, #1117, #1095 ),
 .UNSPECIFIED., .F., .F.,
 ( 4, 2, 2, 2, 2, 2, 2, 2, 2, 2, 2, 2, 2, 2, 2, 2, 2, 2, 2, 2, 4 ),
 ( 0.000000000000000000, 0.001196570795672945164, 0.002393141591345890329, 0.003589712387018835493, 0.004786283182691780658, 0.005384568580528252373, 0.005982853978364724087, 0.007179424774037677925, 0.008375995569710631763, 0.009572566365383585602, 0.01076913716105653770, 0.01136742255889301549, 0.01196570795672949154, 0.01256399335456596933, 0.01316227875240244538, 0.01435884954807538881, 0.01555542034374833051, 0.01675199113942127394, 0.01735027653725774652, 0.01794856193509421563, 0.01914513273076713998 ),
 .UNSPECIFIED. ) ;
#75 = DIRECTION ( 'NONE',  ( 0.000000000000000000, -1.000000000000000000, 0.000000000000000000 ) ) ;
#76 = CARTESIAN_POINT ( 'NONE',  ( 10.00000000000000711, 54.00000000000000000, 4.000000000000000000 ) ) ;
#77 = APPROVAL_DATE_TIME ( #188, #968 ) ;
#78 = CIRCLE ( 'NONE', #922, 2.099999999999999645 ) ;
#79 = ORIENTED_EDGE ( 'NONE', *, *, #703, .T. ) ;
#80 = VECTOR ( 'NONE', #880, 1000.000000000000000 ) ;
#81 = DIRECTION ( 'NONE',  ( -0.000000000000000000, 0.000000000000000000, 1.000000000000000000 ) ) ;
#82 = AXIS2_PLACEMENT_3D ( 'NONE', #463, #991, #824 ) ;
#83 = LINE ( 'NONE', #350, #533 ) ;
#84 = LINE ( 'NONE', #341, #883 ) ;
#85 = ADVANCED_FACE ( 'NONE', ( #599 ), #969, .F. ) ;
#86 = CALENDAR_DATE ( 2026, 14, 9 ) ;
#87 = ORIENTED_EDGE ( 'NONE', *, *, #64, .F. ) ;
#88 = CARTESIAN_POINT ( 'NONE',  ( 0.000000000000000000, 47.94999999999999574, 12.65000000000007851 ) ) ;
#89 = CARTESIAN_POINT ( 'NONE',  ( 10.00000000000000711, 0.000000000000000000, 12.65000000000007851 ) ) ;
#90 = FACE_OUTER_BOUND ( 'NONE', #852, .T. ) ;
#91 = COORDINATED_UNIVERSAL_TIME_OFFSET ( 3, 0, .BEHIND. ) ;
#92 = ADVANCED_FACE ( 'NONE', ( #526 ), #346, .T. ) ;
#93 = ORIENTED_EDGE ( 'NONE', *, *, #820, .F. ) ;
#94 = DIRECTION ( 'NONE',  ( -0.000000000000000000, -0.000000000000000000, -1.000000000000000000 ) ) ;
#95 = PLANE ( 'NONE',  #959 ) ;
#96 = CARTESIAN_POINT ( 'NONE',  ( -6.000000000000021316, -38.00000000000000000, 4.000000000000000000 ) ) ;
#97 = ORIENTED_EDGE ( 'NONE', *, *, #820, .T. ) ;
#98 = CARTESIAN_POINT ( 'NONE',  ( 5.999999999999991118, -16.00000000000000355, 0.000000000000000000 ) ) ;
#99 = CC_DESIGN_PERSON_AND_ORGANIZATION_ASSIGNMENT ( #929, #505, ( #1077 ) ) ;
#100 = VECTOR ( 'NONE', #502, 1000.000000000000000 ) ;
#101 = LOCAL_TIME ( 10, 32, 39.00000000000000000, #67 ) ;
#102 = DIRECTION ( 'NONE',  ( 0.000000000000000000, -1.000000000000000000, 0.000000000000000000 ) ) ;
#103 = ADVANCED_FACE ( 'NONE', ( #420 ), #774, .F. ) ;
#104 = DIRECTION ( 'NONE',  ( -0.000000000000000000, -0.000000000000000000, -1.000000000000000000 ) ) ;
#105 = EDGE_LOOP ( 'NONE', ( #1100, #397, #600, #953, #1080, #844, #782, #132, #20, #771 ) ) ;
#106 = CARTESIAN_POINT ( 'NONE',  ( 5.999999999999991118, 0.000000000000000000, 0.000000000000000000 ) ) ;
#107 = EDGE_CURVE ( 'NONE', #696, #269, #509, .T. ) ;
#108 = DIRECTION ( 'NONE',  ( 0.000000000000000000, 0.000000000000000000, 1.000000000000000000 ) ) ;
#109 = DIRECTION ( 'NONE',  ( -0.000000000000000000, 0.000000000000000000, -1.000000000000000000 ) ) ;
#110 = ORIENTED_EDGE ( 'NONE', *, *, #288, .T. ) ;
#111 = DIRECTION ( 'NONE',  ( -0.000000000000000000, -0.000000000000000000, -1.000000000000000000 ) ) ;
#112 = CARTESIAN_POINT ( 'NONE',  ( -5.204748896376239852E-16, 38.00000000000000000, 4.000000000000000000 ) ) ;
#113 = PLANE ( 'NONE',  #864 ) ;
#114 = ORIENTED_EDGE ( 'NONE', *, *, #895, .F. ) ;
#115 = LINE ( 'NONE', #32, #247 ) ;
#116 = DIRECTION ( 'NONE',  ( 1.000000000000000000, 0.000000000000000000, -0.000000000000000000 ) ) ;
#117 = VECTOR ( 'NONE', #662, 1000.000000000000000 ) ;
#118 = AXIS2_PLACEMENT_3D ( 'NONE', #815, #892, #829 ) ;
#119 = DIRECTION ( 'NONE',  ( -0.7071067811865442421, 0.7071067811865509034, 0.000000000000000000 ) ) ;
#120 = ADVANCED_FACE ( 'NONE', ( #90 ), #113, .F. ) ;
#121 = ORIENTED_EDGE ( 'NONE', *, *, #439, .T. ) ;
#122 = CARTESIAN_POINT ( 'NONE',  ( -10.00000000000154721, 54.00000000000177636, 12.65000000000007851 ) ) ;
#123 = PRODUCT_DEFINITION_SHAPE ( 'NONE', 'NONE',  #1077 ) ;
#124 = LINE ( 'NONE', #367, #246 ) ;
#125 = DIRECTION ( 'NONE',  ( -0.7071067811865512365, 0.7071067811865439090, 0.000000000000000000 ) ) ;
#126 = VERTEX_POINT ( 'NONE', #295 ) ;
#127 = DIRECTION ( 'NONE',  ( 0.000000000000000000, -1.000000000000000000, 0.000000000000000000 ) ) ;
#128 = EDGE_CURVE ( 'NONE', #730, #73, #364, .T. ) ;
#129 = ORIENTED_EDGE ( 'NONE', *, *, #107, .F. ) ;
#130 = CARTESIAN_POINT ( 'NONE',  ( -6.000000000000021316, 7.000000000000115463, 4.000000000000000000 ) ) ;
#131 = DIRECTION ( 'NONE',  ( -0.7071067811865512365, -0.7071067811865439090, 0.000000000000000000 ) ) ;
#132 = ORIENTED_EDGE ( 'NONE', *, *, #1001, .T. ) ;
#133 = FACE_BOUND ( 'NONE', #683, .T. ) ;
#134 = LINE ( 'NONE', #926, #1071 ) ;
#135 = VECTOR ( 'NONE', #58, 1000.000000000000000 ) ;
#136 = CARTESIAN_POINT ( 'NONE',  ( 4.737889464685185459, 41.70169368801177257, 4.687717182561391915 ) ) ;
#137 = AXIS2_PLACEMENT_3D ( 'NONE', #224, #236, #749 ) ;
#138 = VERTEX_POINT ( 'NONE', #1073 ) ;
#139 = CC_DESIGN_APPROVAL ( #484, ( #1077 ) ) ;
#140 = APPLICATION_PROTOCOL_DEFINITION ( 'international standard', 'config_control_design', 1994, #208 ) ;
#141 = ORIENTED_EDGE ( 'NONE', *, *, #691, .T. ) ;
#142 = DIRECTION ( 'NONE',  ( 0.000000000000000000, -1.000000000000000000, 0.000000000000000000 ) ) ;
#143 = ADVANCED_FACE ( 'NONE', ( #277, #896, #385, #381, #807, #734, #1066, #979 ), #989, .F. ) ;
#144 = DIRECTION ( 'NONE',  ( -0.000000000000000000, -0.000000000000000000, -1.000000000000000000 ) ) ;
#145 = EDGE_LOOP ( 'NONE', ( #1107, #835, #1057, #245 ) ) ;
#146 = APPROVAL_ROLE ( '' ) ;
#147 = VERTEX_POINT ( 'NONE', #531 ) ;
#148 = LINE ( 'NONE', #831, #923 ) ;
#149 = DIRECTION ( 'NONE',  ( 0.000000000000000000, -1.000000000000000000, 0.000000000000000000 ) ) ;
#150 = ORIENTED_EDGE ( 'NONE', *, *, #881, .T. ) ;
#151 = DIRECTION ( 'NONE',  ( 1.000000000000000000, 0.000000000000000000, 0.000000000000000000 ) ) ;
#152 = ORIENTED_EDGE ( 'NONE', *, *, #1121, .T. ) ;
#153 = CARTESIAN_POINT ( 'NONE',  ( -6.000000000000021316, -4.000000000000105693, 0.000000000000000000 ) ) ;
#154 = FACE_OUTER_BOUND ( 'NONE', #170, .T. ) ;
#155 = EDGE_LOOP ( 'NONE', ( #79, #348, #754, #152 ) ) ;
#156 =( NAMED_UNIT ( * ) PLANE_ANGLE_UNIT ( ) SI_UNIT ( $, .RADIAN. ) );
#157 = VECTOR ( 'NONE', #529, 1000.000000000000000 ) ;
#158 = ADVANCED_FACE ( 'NONE', ( #822 ), #285, .T. ) ;
#159 = AXIS2_PLACEMENT_3D ( 'NONE', #344, #349, #624 ) ;
#160 = ORIENTED_EDGE ( 'NONE', *, *, #538, .T. ) ;
#161 = DIRECTION ( 'NONE',  ( 0.000000000000000000, -1.000000000000000000, 0.000000000000000000 ) ) ;
#162 = ORIENTED_EDGE ( 'NONE', *, *, #895, .T. ) ;
#163 = COORDINATED_UNIVERSAL_TIME_OFFSET ( 3, 0, .BEHIND. ) ;
#164 = ORIENTED_EDGE ( 'NONE', *, *, #1040, .T. ) ;
#165 = CARTESIAN_POINT ( 'NONE',  ( -1.157291225194249043E-14, -54.00000000000000000, 4.000000000000000000 ) ) ;
#166 = EDGE_LOOP ( 'NONE', ( #920, #1029, #659, #217 ) ) ;
#167 = EDGE_LOOP ( 'NONE', ( #481, #924, #1027 ) ) ;
#168 = EDGE_CURVE ( 'NONE', #205, #1129, #906, .T. ) ;
#169 = CARTESIAN_POINT ( 'NONE',  ( 5.999999999999991118, -19.00000000000000355, 4.000000000000000000 ) ) ;
#170 = EDGE_LOOP ( 'NONE', ( #808, #847, #838, #798 ) ) ;
#171 = VECTOR ( 'NONE', #360, 1000.000000000000000 ) ;
#172 = ORIENTED_EDGE ( 'NONE', *, *, #329, .T. ) ;
#173 = CIRCLE ( 'NONE', #408, 6.000000000000006217 ) ;
#174 = FACE_OUTER_BOUND ( 'NONE', #814, .T. ) ;
#175 = AXIS2_PLACEMENT_3D ( 'NONE', #767, #234, #240 ) ;
#176 = CARTESIAN_POINT ( 'NONE',  ( -6.500000000000037303, 6.500000000000104805, 0.000000000000000000 ) ) ;
#177 = EDGE_CURVE ( 'NONE', #501, #462, #59, .T. ) ;
#178 = CARTESIAN_POINT ( 'NONE',  ( -6.000000000000021316, 0.000000000000000000, 4.000000000000000000 ) ) ;
#179 = ORIENTED_EDGE ( 'NONE', *, *, #268, .F. ) ;
#180 = DIRECTION ( 'NONE',  ( 0.000000000000000000, -1.000000000000000000, 0.000000000000000000 ) ) ;
#181 = CARTESIAN_POINT ( 'NONE',  ( 2.099999999999987654, 54.00000000000000000, 0.000000000000000000 ) ) ;
#182 = CARTESIAN_POINT ( 'NONE',  ( -1.157291225194249043E-14, -54.00000000000000000, 4.000000000000000000 ) ) ;
#183 = ORIENTED_EDGE ( 'NONE', *, *, #503, .F. ) ;
#184 = CYLINDRICAL_SURFACE ( 'NONE', #724, 10.00000000000000000 ) ;
#185 = MANIFOLD_SOLID_BREP ( 'Redondeo1', #760 ) ;
#186 = LINE ( 'NONE', #882, #669 ) ;
#187 = CARTESIAN_POINT ( 'NONE',  ( 5.999999999999991118, 0.000000000000000000, 4.000000000000000000 ) ) ;
#188 = DATE_AND_TIME ( #622, #980 ) ;
#189 = EDGE_LOOP ( 'NONE', ( #879, #315, #964, #491 ) ) ;
#190 = DIRECTION ( 'NONE',  ( 1.000000000000000000, 0.000000000000000000, -0.000000000000000000 ) ) ;
#191 = EDGE_CURVE ( 'NONE', #690, #757, #78, .T. ) ;
#192 = CIRCLE ( 'NONE', #667, 6.000000000000006217 ) ;
#193 = AXIS2_PLACEMENT_3D ( 'NONE', #755, #826, #1094 ) ;
#194 = CARTESIAN_POINT ( 'NONE',  ( -6.000000000000021316, 38.00000000000000000, 4.000000000000000000 ) ) ;
#195 = PLANE ( 'NONE',  #442 ) ;
#196 = ORIENTED_EDGE ( 'NONE', *, *, #507, .F. ) ;
#197 = CARTESIAN_POINT ( 'NONE',  ( 9.999999999999987566, -54.00000000000000000, 0.000000000000000000 ) ) ;
#198 = CARTESIAN_POINT ( 'NONE',  ( -6.000000000000023093, 30.99999999999989697, 4.000000000000000000 ) ) ;
#199 = CARTESIAN_POINT ( 'NONE',  ( -1.157291225194249043E-14, 54.00000000000000000, 12.65000000000007851 ) ) ;
#200 = ORIENTED_EDGE ( 'NONE', *, *, #107, .T. ) ;
#201 = FACE_OUTER_BOUND ( 'NONE', #105, .T. ) ;
#202 = CARTESIAN_POINT ( 'NONE',  ( -6.000000000000021316, 4.000000000000105693, 4.000000000000000000 ) ) ;
#203 = EDGE_CURVE ( 'NONE', #296, #1085, #607, .T. ) ;
#204 = DIRECTION ( 'NONE',  ( 1.000000000000000000, 0.000000000000000000, 0.000000000000000000 ) ) ;
#205 = VERTEX_POINT ( 'NONE', #1083 ) ;
#206 = DIRECTION ( 'NONE',  ( -0.000000000000000000, 0.000000000000000000, 1.000000000000000000 ) ) ;
#207 = AXIS2_PLACEMENT_3D ( 'NONE', #1099, #144, #932 ) ;
#208 = APPLICATION_CONTEXT ( 'configuration controlled 3d designs of mechanical parts and assemblies' ) ;
#209 = CARTESIAN_POINT ( 'NONE',  ( -6.000000000000021316, 0.000000000000000000, 0.000000000000000000 ) ) ;
#210 = VECTOR ( 'NONE', #94, 1000.000000000000000 ) ;
#211 = DIRECTION ( 'NONE',  ( 0.000000000000000000, 0.000000000000000000, 1.000000000000000000 ) ) ;
#212 = EDGE_CURVE ( 'NONE', #147, #996, #984, .T. ) ;
#213 = VERTEX_POINT ( 'NONE', #994 ) ;
#214 = CARTESIAN_POINT ( 'NONE',  ( 5.999999999999991118, -19.00000000000000355, 0.000000000000000000 ) ) ;
#215 = DIRECTION ( 'NONE',  ( 0.000000000000000000, -1.000000000000000000, 0.000000000000000000 ) ) ;
#216 = CARTESIAN_POINT ( 'NONE',  ( 10.00000000000000711, 54.00000000000000000, 0.000000000000000000 ) ) ;
#217 = ORIENTED_EDGE ( 'NONE', *, *, #177, .F. ) ;
#218 = DIRECTION ( 'NONE',  ( -0.000000000000000000, 0.000000000000000000, 1.000000000000000000 ) ) ;
#219 = CARTESIAN_POINT ( 'NONE',  ( -9.999999999999992895, 38.04154401533718755, 4.000000000000000000 ) ) ;
#220 = CARTESIAN_POINT ( 'NONE',  ( -0.7948965195493101765, 43.96035752951507902, 5.939170544786997574 ) ) ;
#221 = ORIENTED_EDGE ( 'NONE', *, *, #555, .T. ) ;
#222 = EDGE_LOOP ( 'NONE', ( #636, #266, #386, #313, #141, #735 ) ) ;
#223 = EDGE_CURVE ( 'NONE', #696, #981, #495, .T. ) ;
#224 = CARTESIAN_POINT ( 'NONE',  ( -6.500000000000037303, -6.500000000000104805, 4.000000000000000000 ) ) ;
#225 = AXIS2_PLACEMENT_3D ( 'NONE', #785, #260, #71 ) ;
#226 = CARTESIAN_POINT ( 'NONE',  ( -5.779326335717953178, 39.62440090881903387, 4.124200106868197047 ) ) ;
#227 = VECTOR ( 'NONE', #982, 1000.000000000000000 ) ;
#228 = ORIENTED_EDGE ( 'NONE', *, *, #522, .T. ) ;
#229 = ORIENTED_EDGE ( 'NONE', *, *, #813, .T. ) ;
#230 = CARTESIAN_POINT ( 'NONE',  ( -6.000000000000021316, -38.00000000000000000, 4.000000000000000000 ) ) ;
#231 = DIRECTION ( 'NONE',  ( 1.000000000000000000, 0.000000000000000000, 0.000000000000000000 ) ) ;
#232 = EDGE_CURVE ( 'NONE', #138, #934, #290, .T. ) ;
#233 = ORIENTED_EDGE ( 'NONE', *, *, #732, .F. ) ;
#234 = DIRECTION ( 'NONE',  ( 0.000000000000000000, 0.000000000000000000, 1.000000000000000000 ) ) ;
#235 = EDGE_LOOP ( 'NONE', ( #256, #566, #354, #343 ) ) ;
#236 = DIRECTION ( 'NONE',  ( -0.7071067811865439090, -0.7071067811865512365, 0.000000000000000000 ) ) ;
#237 = CARTESIAN_POINT ( 'NONE',  ( -6.000000000000021316, -4.000000000000105693, 4.000000000000000000 ) ) ;
#238 = EDGE_CURVE ( 'NONE', #147, #422, #192, .T. ) ;
#239 = ORIENTED_EDGE ( 'NONE', *, *, #1053, .F. ) ;
#240 = DIRECTION ( 'NONE',  ( 1.000000000000000000, 0.000000000000000000, 0.000000000000000000 ) ) ;
#241 = EDGE_LOOP ( 'NONE', ( #411, #534, #936, #427 ) ) ;
#242 = CARTESIAN_POINT ( 'NONE',  ( -9.999999999999992895, -54.00000000000000000, 4.000000000000000000 ) ) ;
#243 = AXIS2_PLACEMENT_3D ( 'NONE', #333, #955, #1136 ) ;
#244 = ADVANCED_FACE ( 'NONE', ( #626 ), #195, .T. ) ;
#245 = ORIENTED_EDGE ( 'NONE', *, *, #596, .T. ) ;
#246 = VECTOR ( 'NONE', #464, 1000.000000000000000 ) ;
#247 = VECTOR ( 'NONE', #557, 1000.000000000000000 ) ;
#248 = ORIENTED_EDGE ( 'NONE', *, *, #168, .T. ) ;
#249 = CARTESIAN_POINT ( 'NONE',  ( -6.000000000000019540, 33.99999999999988631, 4.000000000000000000 ) ) ;
#250 = LINE ( 'NONE', #1055, #705 ) ;
#251 = APPROVAL_ROLE ( '' ) ;
#252 = ORIENTED_EDGE ( 'NONE', *, *, #342, .F. ) ;
#253 = CARTESIAN_POINT ( 'NONE',  ( 5.999999999999991118, -16.00000000000000355, 4.000000000000000000 ) ) ;
#254 = DIRECTION ( 'NONE',  ( -1.000000000000000000, -0.000000000000000000, 0.000000000000000000 ) ) ;
#255 = SECURITY_CLASSIFICATION_LEVEL ( 'unclassified' ) ;
#256 = ORIENTED_EDGE ( 'NONE', *, *, #425, .F. ) ;
#257 = PLANE ( 'NONE',  #706 ) ;
#258 = EDGE_CURVE ( 'NONE', #422, #1128, #74, .T. ) ;
#259 = CARTESIAN_POINT ( 'NONE',  ( -9.999999999999992895, -54.00000000000000000, 4.000000000000000000 ) ) ;
#260 = DIRECTION ( 'NONE',  ( -0.000000000000000000, 0.000000000000000000, 1.000000000000000000 ) ) ;
#261 = VECTOR ( 'NONE', #131, 1000.000000000000000 ) ;
#262 = ORIENTED_EDGE ( 'NONE', *, *, #613, .F. ) ;
#263 = CIRCLE ( 'NONE', #1052, 10.00000000000000000 ) ;
#264 = DIRECTION ( 'NONE',  ( 0.7071067811865439090, -0.7071067811865512365, 0.000000000000000000 ) ) ;
#265 = CARTESIAN_POINT ( 'NONE',  ( -6.000000000000021316, 4.000000000000105693, 0.000000000000000000 ) ) ;
#266 = ORIENTED_EDGE ( 'NONE', *, *, #1121, .F. ) ;
#267 = DATE_TIME_ROLE ( 'classification_date' ) ;
#268 = EDGE_CURVE ( 'NONE', #585, #949, #1010, .T. ) ;
#269 = VERTEX_POINT ( 'NONE', #216 ) ;
#270 = CARTESIAN_POINT ( 'NONE',  ( -1.157291225194249043E-14, 54.00000000000000000, 4.000000000000000000 ) ) ;
#271 = CARTESIAN_POINT ( 'NONE',  ( -6.000000000000021316, 0.000000000000000000, 0.000000000000000000 ) ) ;
#272 = LINE ( 'NONE', #869, #22 ) ;
#273 = EDGE_CURVE ( 'NONE', #909, #501, #478, .T. ) ;
#274 = ORIENTED_EDGE ( 'NONE', *, *, #577, .F. ) ;
#275 = CARTESIAN_POINT ( 'NONE',  ( -9.999999999999992895, 54.00000000000000000, 0.000000000000000000 ) ) ;
#276 = FACE_OUTER_BOUND ( 'NONE', #222, .T. ) ;
#277 = FACE_BOUND ( 'NONE', #1043, .T. ) ;
#278 = VERTEX_POINT ( 'NONE', #938 ) ;
#279 = LINE ( 'NONE', #976, #1037 ) ;
#280 = AXIS2_PLACEMENT_3D ( 'NONE', #199, #554, #885 ) ;
#281 = VECTOR ( 'NONE', #905, 1000.000000000000000 ) ;
#282 = EDGE_CURVE ( 'NONE', #757, #690, #777, .T. ) ;
#283 = AXIS2_PLACEMENT_3D ( 'NONE', #304, #218, #151 ) ;
#284 = PLANE ( 'NONE',  #41 ) ;
#285 = CYLINDRICAL_SURFACE ( 'NONE', #627, 10.00000000000000000 ) ;
#286 = VERTEX_POINT ( 'NONE', #237 ) ;
#287 = CARTESIAN_POINT ( 'NONE',  ( 9.999999999999987566, -54.00000000000000000, 4.000000000000000000 ) ) ;
#288 = EDGE_CURVE ( 'NONE', #772, #138, #489, .T. ) ;
#289 = DIRECTION ( 'NONE',  ( 0.000000000000000000, -1.000000000000000000, 0.000000000000000000 ) ) ;
#290 = LINE ( 'NONE', #25, #686 ) ;
#291 = EDGE_LOOP ( 'NONE', ( #309, #746, #776, #66 ) ) ;
#292 = DIRECTION ( 'NONE',  ( -1.000000000000000000, 0.000000000000000000, -0.000000000000000000 ) ) ;
#293 = ADVANCED_FACE ( 'NONE', ( #154 ), #918, .F. ) ;
#294 = CARTESIAN_POINT ( 'NONE',  ( -9.999999999999992895, 38.04154401533718755, 4.000000000000000000 ) ) ;
#295 = CARTESIAN_POINT ( 'NONE',  ( 5.999999999999991118, -38.00000000000000000, 4.000000000000000000 ) ) ;
#296 = VERTEX_POINT ( 'NONE', #764 ) ;
#297 = DIRECTION ( 'NONE',  ( 1.000000000000000000, 0.000000000000000000, -0.000000000000000000 ) ) ;
#298 = VECTOR ( 'NONE', #592, 1000.000000000000000 ) ;
#299 = DIRECTION ( 'NONE',  ( 1.000000000000000000, 0.000000000000000000, 0.000000000000000000 ) ) ;
#300 = VECTOR ( 'NONE', #543, 1000.000000000000000 ) ;
#301 = AXIS2_PLACEMENT_3D ( 'NONE', #383, #656, #642 ) ;
#302 = DIRECTION ( 'NONE',  ( -0.000000000000000000, 0.000000000000000000, 1.000000000000000000 ) ) ;
#303 = ORIENTED_EDGE ( 'NONE', *, *, #323, .F. ) ;
#304 = CARTESIAN_POINT ( 'NONE',  ( -5.204748896376270421E-16, -38.00000000000000000, 4.000000000000000000 ) ) ;
#305 = EDGE_CURVE ( 'NONE', #930, #897, #483, .T. ) ;
#306 = DIRECTION ( 'NONE',  ( -1.000000000000000000, 0.000000000000000000, 0.000000000000000000 ) ) ;
#307 = CARTESIAN_POINT ( 'NONE',  ( -3.653255576420363582, 42.77502658791117796, 5.187831636659685941 ) ) ;
#308 = EDGE_CURVE ( 'NONE', #462, #501, #919, .T. ) ;
#309 = ORIENTED_EDGE ( 'NONE', *, *, #282, .T. ) ;
#310 = CYLINDRICAL_SURFACE ( 'NONE', #301, 2.099999999999999645 ) ;
#311 = LINE ( 'NONE', #657, #337 ) ;
#312 = CARTESIAN_POINT ( 'NONE',  ( -0.3981021470421327590, 44.00045902316018243, 5.969350445833217833 ) ) ;
#313 = ORIENTED_EDGE ( 'NONE', *, *, #258, .T. ) ;
#314 = DATE_TIME_ROLE ( 'creation_date' ) ;
#315 = ORIENTED_EDGE ( 'NONE', *, *, #379, .F. ) ;
#316 = DIRECTION ( 'NONE',  ( 0.7071067811865512365, 0.7071067811865439090, 0.000000000000000000 ) ) ;
#317 = VECTOR ( 'NONE', #508, 1000.000000000000000 ) ;
#318 = VECTOR ( 'NONE', #359, 1000.000000000000000 ) ;
#319 = CARTESIAN_POINT ( 'NONE',  ( -4.489971056290684714, 41.99821610053626131, 4.811292312164065166 ) ) ;
#320 = CC_DESIGN_SECURITY_CLASSIFICATION ( #571, ( #1015 ) ) ;
#321 = ORIENTED_EDGE ( 'NONE', *, *, #703, .F. ) ;
#322 = VERTEX_POINT ( 'NONE', #1113 ) ;
#323 = EDGE_CURVE ( 'NONE', #399, #752, #873, .T. ) ;
#324 = CARTESIAN_POINT ( 'NONE',  ( 5.999999999999991118, 0.000000000000000000, 0.000000000000000000 ) ) ;
#325 = CARTESIAN_POINT ( 'NONE',  ( 4.492238205700516573, 41.99552164572107671, 4.810164688487843065 ) ) ;
#326 = VERTEX_POINT ( 'NONE', #253 ) ;
#327 = APPLICATION_PROTOCOL_DEFINITION ( 'international standard', 'config_control_design', 1994, #616 ) ;
#328 = EDGE_LOOP ( 'NONE', ( #556, #15, #610 ) ) ;
#329 = EDGE_CURVE ( 'NONE', #834, #752, #860, .T. ) ;
#330 = CARTESIAN_POINT ( 'NONE',  ( 3.018293614423980475, 43.19962781157958176, 5.429468224756377914 ) ) ;
#331 = VERTEX_POINT ( 'NONE', #340 ) ;
#332 = ORIENTED_EDGE ( 'NONE', *, *, #177, .T. ) ;
#333 = CARTESIAN_POINT ( 'NONE',  ( -6.000000000000021316, 0.000000000000000000, 4.000000000000000000 ) ) ;
#334 = VECTOR ( 'NONE', #874, 1000.000000000000000 ) ;
#335 = DIRECTION ( 'NONE',  ( -0.7071067811865507924, -0.7071067811865441310, 0.000000000000000000 ) ) ;
#336 = CARTESIAN_POINT ( 'NONE',  ( -5.999856172841957935, 38.04154401533718755, 4.000000000000000000 ) ) ;
#337 = VECTOR ( 'NONE', #400, 1000.000000000000000 ) ;
#338 = APPROVAL_PERSON_ORGANIZATION ( #948, #484, #480 ) ;
#339 = EDGE_LOOP ( 'NONE', ( #436, #655, #129, #50, #1075, #1116 ) ) ;
#340 = CARTESIAN_POINT ( 'NONE',  ( -6.000000000000021316, 7.000000000000115463, 0.000000000000000000 ) ) ;
#341 = CARTESIAN_POINT ( 'NONE',  ( 9.999999999999987566, -54.00000000000000000, 4.000000000000000000 ) ) ;
#342 = EDGE_CURVE ( 'NONE', #696, #759, #961, .T. ) ;
#343 = ORIENTED_EDGE ( 'NONE', *, *, #1088, .T. ) ;
#344 = CARTESIAN_POINT ( 'NONE',  ( 12.49999999999996625, 12.50000000000009415, 4.000000000000000000 ) ) ;
#345 = LINE ( 'NONE', #1054, #298 ) ;
#346 = PLANE ( 'NONE',  #459 ) ;
#347 = COORDINATED_UNIVERSAL_TIME_OFFSET ( 3, 0, .BEHIND. ) ;
#348 = ORIENTED_EDGE ( 'NONE', *, *, #1088, .F. ) ;
#349 = DIRECTION ( 'NONE',  ( -0.7071067811865439090, -0.7071067811865512365, 0.000000000000000000 ) ) ;
#350 = CARTESIAN_POINT ( 'NONE',  ( 5.999999999999991118, -21.99999999999999289, 4.000000000000000000 ) ) ;
#351 = EDGE_CURVE ( 'NONE', #1016, #934, #687, .T. ) ;
#352 = DIRECTION ( 'NONE',  ( -0.000000000000000000, -0.000000000000000000, -1.000000000000000000 ) ) ;
#353 = VECTOR ( 'NONE', #520, 1000.000000000000000 ) ;
#354 = ORIENTED_EDGE ( 'NONE', *, *, #751, .T. ) ;
#355 = CIRCLE ( 'NONE', #373, 10.00000000000000000 ) ;
#356 = CARTESIAN_POINT ( 'NONE',  ( -2.100000000000011191, -54.00000000000000000, 4.000000000000000000 ) ) ;
#357 = VECTOR ( 'NONE', #127, 1000.000000000000000 ) ;
#358 = EDGE_CURVE ( 'NONE', #205, #680, #856, .T. ) ;
#359 = DIRECTION ( 'NONE',  ( 0.000000000000000000, -1.000000000000000000, 0.000000000000000000 ) ) ;
#360 = DIRECTION ( 'NONE',  ( -0.000000000000000000, -0.000000000000000000, -1.000000000000000000 ) ) ;
#361 = ORIENTED_EDGE ( 'NONE', *, *, #308, .F. ) ;
#362 = CARTESIAN_POINT ( 'NONE',  ( -6.000000000000021316, -7.000000000000115463, 0.000000000000000000 ) ) ;
#363 = CARTESIAN_POINT ( 'NONE',  ( -6.000000000000019540, 33.99999999999988631, 0.000000000000000000 ) ) ;
#364 = LINE ( 'NONE', #368, #830 ) ;
#365 = ORIENTED_EDGE ( 'NONE', *, *, #881, .F. ) ;
#366 = DIRECTION ( 'NONE',  ( -0.000000000000000000, -0.000000000000000000, -1.000000000000000000 ) ) ;
#367 = CARTESIAN_POINT ( 'NONE',  ( -6.000000000000021316, -4.000000000000105693, 4.000000000000000000 ) ) ;
#368 = CARTESIAN_POINT ( 'NONE',  ( 13.99999999999996447, -14.00000000000009770, 0.000000000000000000 ) ) ;
#369 = ADVANCED_FACE ( 'NONE', ( #877 ), #95, .T. ) ;
#370 = EDGE_LOOP ( 'NONE', ( #1096, #647, #823, #499 ) ) ;
#371 = CARTESIAN_POINT ( 'NONE',  ( -9.999999999999992895, 38.04154401533718755, 4.000000000000000000 ) ) ;
#372 = AXIS2_PLACEMENT_3D ( 'NONE', #646, #634, #539 ) ;
#373 = AXIS2_PLACEMENT_3D ( 'NONE', #889, #638, #553 ) ;
#374 =( GEOMETRIC_REPRESENTATION_CONTEXT ( 3 ) GLOBAL_UNCERTAINTY_ASSIGNED_CONTEXT ( ( #674 ) ) GLOBAL_UNIT_ASSIGNED_CONTEXT ( ( #845, #156, #565 ) ) REPRESENTATION_CONTEXT ( 'NONE', 'WORKASPACE' ) );
#375 = CARTESIAN_POINT ( 'NONE',  ( 10.00000000000000711, 38.04154401533718755, 4.000000000000000000 ) ) ;
#376 = CARTESIAN_POINT ( 'NONE',  ( 10.00000000000000711, 0.000000000000000000, 4.000000000000000000 ) ) ;
#377 = ORIENTED_EDGE ( 'NONE', *, *, #223, .T. ) ;
#378 = PLANE ( 'NONE',  #118 ) ;
#379 = EDGE_CURVE ( 'NONE', #126, #928, #440, .T. ) ;
#380 = CARTESIAN_POINT ( 'NONE',  ( -9.999999999999992895, 0.000000000000000000, 4.000000000000000000 ) ) ;
#381 = FACE_BOUND ( 'NONE', #328, .T. ) ;
#382 = ORIENTED_EDGE ( 'NONE', *, *, #445, .T. ) ;
#383 = CARTESIAN_POINT ( 'NONE',  ( -1.157291225194249043E-14, -54.00000000000000000, 4.000000000000000000 ) ) ;
#384 = DIRECTION ( 'NONE',  ( -0.000000000000000000, 0.000000000000000000, 1.000000000000000000 ) ) ;
#385 = FACE_BOUND ( 'NONE', #710, .T. ) ;
#386 = ORIENTED_EDGE ( 'NONE', *, *, #238, .T. ) ;
#387 = CARTESIAN_POINT ( 'NONE',  ( 0.000000000000000000, 38.04154401533718755, 14.00000000000000000 ) ) ;
#388 = VECTOR ( 'NONE', #598, 1000.000000000000000 ) ;
#389 = CARTESIAN_POINT ( 'NONE',  ( 5.999999999999991118, -19.00000000000000355, 4.000000000000000000 ) ) ;
#390 = VECTOR ( 'NONE', #983, 1000.000000000000000 ) ;
#391 = EDGE_CURVE ( 'NONE', #680, #331, #794, .T. ) ;
#392 = CARTESIAN_POINT ( 'NONE',  ( -5.356999668802187919, 40.73071273222934963, 4.361223751247428559 ) ) ;
#393 = ORIENTED_EDGE ( 'NONE', *, *, #53, .F. ) ;
#394 = DIRECTION ( 'NONE',  ( 1.000000000000000000, 0.000000000000000000, 0.000000000000000000 ) ) ;
#395 = FACE_OUTER_BOUND ( 'NONE', #907, .T. ) ;
#396 = CARTESIAN_POINT ( 'NONE',  ( -1.157291225194249043E-14, -54.00000000000000000, 4.000000000000000000 ) ) ;
#397 = ORIENTED_EDGE ( 'NONE', *, *, #737, .T. ) ;
#398 = MECHANICAL_CONTEXT ( 'NONE', #616, 'mechanical' ) ;
#399 = VERTEX_POINT ( 'NONE', #242 ) ;
#400 = DIRECTION ( 'NONE',  ( -0.7071067811865512365, 0.7071067811865439090, 0.000000000000000000 ) ) ;
#401 = CARTESIAN_POINT ( 'NONE',  ( -5.000000000000033751, 5.000000000000082601, 4.000000000000000000 ) ) ;
#402 = ORIENTED_EDGE ( 'NONE', *, *, #677, .T. ) ;
#403 = DIRECTION ( 'NONE',  ( 0.000000000000000000, -1.000000000000000000, 0.000000000000000000 ) ) ;
#404 = EDGE_CURVE ( 'NONE', #326, #897, #1038, .T. ) ;
#405 = ORIENTED_EDGE ( 'NONE', *, *, #282, .F. ) ;
#406 = CARTESIAN_POINT ( 'NONE',  ( -1.157291225194249043E-14, -54.00000000000000000, 0.000000000000000000 ) ) ;
#407 = VECTOR ( 'NONE', #563, 1000.000000000000000 ) ;
#408 = AXIS2_PLACEMENT_3D ( 'NONE', #910, #384, #299 ) ;
#409 = CARTESIAN_POINT ( 'NONE',  ( 1.969451121612025180, 43.68073775496208100, 5.739754687306883874 ) ) ;
#410 = VECTOR ( 'NONE', #799, 1000.000000000000000 ) ;
#411 = ORIENTED_EDGE ( 'NONE', *, *, #128, .T. ) ;
#412 = CARTESIAN_POINT ( 'NONE',  ( -1.157291225194249043E-14, 54.00000000000000000, 4.000000000000000000 ) ) ;
#413 = ORIENTED_EDGE ( 'NONE', *, *, #445, .F. ) ;
#414 = EDGE_CURVE ( 'NONE', #772, #1016, #1046, .T. ) ;
#415 = CARTESIAN_POINT ( 'NONE',  ( -5.952765751501710056, 38.84989085972491552, 4.025042141717452893 ) ) ;
#416 = VERTEX_POINT ( 'NONE', #265 ) ;
#417 = CARTESIAN_POINT ( 'NONE',  ( 5.999999999999991118, 38.00000000000000000, 4.000000000000000000 ) ) ;
#418 = ORIENTED_EDGE ( 'NONE', *, *, #456, .F. ) ;
#419 = FACE_OUTER_BOUND ( 'NONE', #145, .T. ) ;
#420 = FACE_OUTER_BOUND ( 'NONE', #241, .T. ) ;
#421 = DIRECTION ( 'NONE',  ( -0.000000000000000000, -0.000000000000000000, -1.000000000000000000 ) ) ;
#422 = VERTEX_POINT ( 'NONE', #784 ) ;
#423 = CARTESIAN_POINT ( 'NONE',  ( 5.999999999999992895, 19.00000000000000355, 4.000000000000000000 ) ) ;
#424 = VECTOR ( 'NONE', #75, 1000.000000000000000 ) ;
#425 = EDGE_CURVE ( 'NONE', #641, #457, #345, .T. ) ;
#426 = VECTOR ( 'NONE', #149, 1000.000000000000000 ) ;
#427 = ORIENTED_EDGE ( 'NONE', *, *, #682, .T. ) ;
#428 = CIRCLE ( 'NONE', #193, 2.099999999999999645 ) ;
#429 = ORIENTED_EDGE ( 'NONE', *, *, #414, .F. ) ;
#430 = DIRECTION ( 'NONE',  ( 1.000000000000000000, 0.000000000000000000, 0.000000000000000000 ) ) ;
#431 = CARTESIAN_POINT ( 'NONE',  ( -9.999999999999992895, 0.000000000000000000, 0.000000000000000000 ) ) ;
#432 = DIRECTION ( 'NONE',  ( -0.7071067811865512365, 0.7071067811865439090, 0.000000000000000000 ) ) ;
#433 = EDGE_LOOP ( 'NONE', ( #1133, #332 ) ) ;
#434 = CARTESIAN_POINT ( 'NONE',  ( -6.000000000000021316, 0.000000000000000000, 4.000000000000000000 ) ) ;
#435 = DIRECTION ( 'NONE',  ( 1.000000000000000000, 0.000000000000000000, 0.000000000000000000 ) ) ;
#436 = ORIENTED_EDGE ( 'NONE', *, *, #53, .T. ) ;
#437 = ORIENTED_EDGE ( 'NONE', *, *, #1102, .F. ) ;
#438 = CARTESIAN_POINT ( 'NONE',  ( 5.999999999999991118, -38.00000000000000000, 0.000000000000000000 ) ) ;
#439 = EDGE_CURVE ( 'NONE', #278, #587, #1089, .T. ) ;
#440 = LINE ( 'NONE', #1030, #993 ) ;
#441 = LINE ( 'NONE', #504, #567 ) ;
#442 = AXIS2_PLACEMENT_3D ( 'NONE', #376, #544, #109 ) ;
#443 = ORIENTED_EDGE ( 'NONE', *, *, #613, .T. ) ;
#444 = LINE ( 'NONE', #356, #410 ) ;
#445 = EDGE_CURVE ( 'NONE', #205, #714, #867, .T. ) ;
#446 = LINE ( 'NONE', #13, #390 ) ;
#447 = CARTESIAN_POINT ( 'NONE',  ( -5.204748896376239852E-16, 38.00000000000000000, 4.000000000000000000 ) ) ;
#448 = EDGE_LOOP ( 'NONE', ( #31, #485, #150, #402 ) ) ;
#449 = CYLINDRICAL_SURFACE ( 'NONE', #995, 2.099999999999999645 ) ;
#450 = CARTESIAN_POINT ( 'NONE',  ( -2.100000000000011191, 54.00000000000000000, 4.000000000000000000 ) ) ;
#451 = CARTESIAN_POINT ( 'NONE',  ( 5.997050510366706000, 38.44674248217835810, 3.999999999999999112 ) ) ;
#452 = ORIENTED_EDGE ( 'NONE', *, *, #414, .T. ) ;
#453 = FACE_OUTER_BOUND ( 'NONE', #903, .T. ) ;
#454 = DIRECTION ( 'NONE',  ( -0.000000000000000000, -0.000000000000000000, -1.000000000000000000 ) ) ;
#455 = DIRECTION ( 'NONE',  ( 1.000000000000000000, 0.000000000000000000, 0.000000000000000000 ) ) ;
#456 = EDGE_CURVE ( 'NONE', #981, #213, #1120, .T. ) ;
#457 = VERTEX_POINT ( 'NONE', #692 ) ;
#458 = CARTESIAN_POINT ( 'NONE',  ( 2.099999999999987654, -54.00000000000000000, 4.000000000000000000 ) ) ;
#459 = AXIS2_PLACEMENT_3D ( 'NONE', #178, #9, #620 ) ;
#460 = DIRECTION ( 'NONE',  ( -0.000000000000000000, -0.000000000000000000, -1.000000000000000000 ) ) ;
#461 = CARTESIAN_POINT ( 'NONE',  ( -1.157291225194249043E-14, -54.00000000000000000, 4.000000000000000000 ) ) ;
#462 = VERTEX_POINT ( 'NONE', #699 ) ;
#463 = CARTESIAN_POINT ( 'NONE',  ( 5.999999999999991118, 0.000000000000000000, 4.000000000000000000 ) ) ;
#464 = DIRECTION ( 'NONE',  ( -0.000000000000000000, -0.000000000000000000, -1.000000000000000000 ) ) ;
#465 = ADVANCED_FACE ( 'NONE', ( #419 ), #1042, .T. ) ;
#466 = DIRECTION ( 'NONE',  ( 0.7071067811865507924, 0.7071067811865441310, 0.000000000000000000 ) ) ;
#467 = ORIENTED_EDGE ( 'NONE', *, *, #232, .T. ) ;
#468 = FACE_OUTER_BOUND ( 'NONE', #1119, .T. ) ;
#469 = EDGE_CURVE ( 'NONE', #672, #641, #773, .T. ) ;
#470 = LINE ( 'NONE', #475, #496 ) ;
#471 = CARTESIAN_POINT ( 'NONE',  ( 0.8103008580869941468, 43.95824221590622471, 5.937605537026164448 ) ) ;
#472 = ORIENTED_EDGE ( 'NONE', *, *, #19, .F. ) ;
#473 = CARTESIAN_POINT ( 'NONE',  ( 5.999999999999991118, 0.000000000000000000, 4.000000000000000000 ) ) ;
#474 = AXIS2_PLACEMENT_3D ( 'NONE', #182, #951, #1132 ) ;
#475 = CARTESIAN_POINT ( 'NONE',  ( -6.000000000000019540, -33.99999999999988631, 4.000000000000000000 ) ) ;
#476 = CIRCLE ( 'NONE', #1072, 10.00000000000000000 ) ;
#477 = VECTOR ( 'NONE', #111, 1000.000000000000000 ) ;
#478 = LINE ( 'NONE', #572, #135 ) ;
#479 = EDGE_LOOP ( 'NONE', ( #262, #196, #164, #725 ) ) ;
#480 = APPROVAL_ROLE ( '' ) ;
#481 = ORIENTED_EDGE ( 'NONE', *, *, #391, .F. ) ;
#482 = CARTESIAN_POINT ( 'NONE',  ( 9.999999999998452793, 54.00000000000177636, 12.65000000000007851 ) ) ;
#483 = LINE ( 'NONE', #52, #426 ) ;
#484 = APPROVAL ( #595, 'Coincidente' ) ;
#485 = ORIENTED_EDGE ( 'NONE', *, *, #682, .F. ) ;
#486 = LINE ( 'NONE', #72, #688 ) ;
#487 = EDGE_LOOP ( 'NONE', ( #1012, #790, #160, #228 ) ) ;
#488 = CARTESIAN_POINT ( 'NONE',  ( -1.157291225194249043E-14, -54.00000000000000000, 0.000000000000000000 ) ) ;
#489 = LINE ( 'NONE', #750, #261 ) ;
#490 = EDGE_CURVE ( 'NONE', #1118, #73, #83, .T. ) ;
#491 = ORIENTED_EDGE ( 'NONE', *, *, #490, .T. ) ;
#492 = CARTESIAN_POINT ( 'NONE',  ( 2.099999999999987654, -54.00000000000000000, 0.000000000000000000 ) ) ;
#493 = ORIENTED_EDGE ( 'NONE', *, *, #203, .T. ) ;
#494 = LINE ( 'NONE', #562, #884 ) ;
#495 = CIRCLE ( 'NONE', #280, 10.00000000000000000 ) ;
#496 = VECTOR ( 'NONE', #738, 1000.000000000000000 ) ;
#497 = CARTESIAN_POINT ( 'NONE',  ( -4.738501918415955139, 41.70044428073817500, 4.687371334047349514 ) ) ;
#498 = VECTOR ( 'NONE', #292, 1000.000000000000000 ) ;
#499 = ORIENTED_EDGE ( 'NONE', *, *, #765, .F. ) ;
#500 = COORDINATED_UNIVERSAL_TIME_OFFSET ( 3, 0, .BEHIND. ) ;
#501 = VERTEX_POINT ( 'NONE', #181 ) ;
#502 = DIRECTION ( 'NONE',  ( -0.7071067811865512365, -0.7071067811865439090, 0.000000000000000000 ) ) ;
#503 = EDGE_CURVE ( 'NONE', #399, #1048, #761, .T. ) ;
#504 = CARTESIAN_POINT ( 'NONE',  ( -6.000000000000021316, 0.000000000000000000, 4.000000000000000000 ) ) ;
#505 = PERSON_AND_ORGANIZATION_ROLE ( 'creator' ) ;
#506 = ORIENTED_EDGE ( 'NONE', *, *, #640, .T. ) ;
#507 = EDGE_CURVE ( 'NONE', #545, #587, #716, .T. ) ;
#508 = DIRECTION ( 'NONE',  ( -0.000000000000000000, -0.000000000000000000, -1.000000000000000000 ) ) ;
#509 = LINE ( 'NONE', #76, #334 ) ;
#510 = PERSON_AND_ORGANIZATION_ROLE ( 'design_supplier' ) ;
#511 = ORIENTED_EDGE ( 'NONE', *, *, #404, .T. ) ;
#512 = DIRECTION ( 'NONE',  ( -0.000000000000000000, -0.000000000000000000, -1.000000000000000000 ) ) ;
#513 = AXIS2_PLACEMENT_3D ( 'NONE', #890, #811, #204 ) ;
#514 = VECTOR ( 'NONE', #721, 1000.000000000000000 ) ;
#515 = DIRECTION ( 'NONE',  ( -0.7071067811865507924, 0.7071067811865441310, 0.000000000000000000 ) ) ;
#516 = PERSON_AND_ORGANIZATION ( #18446744073709551615, #18446744073709551615 ) ;
#517 = CC_DESIGN_APPROVAL ( #621, ( #571 ) ) ;
#518 = EDGE_LOOP ( 'NONE', ( #840, #393, #183, #768 ) ) ;
#519 = LINE ( 'NONE', #88, #80 ) ;
#520 = DIRECTION ( 'NONE',  ( -0.7071067811865512365, -0.7071067811865439090, 0.000000000000000000 ) ) ;
#521 = CARTESIAN_POINT ( 'NONE',  ( 13.99999999999996447, -14.00000000000009770, 4.000000000000000000 ) ) ;
#522 = EDGE_CURVE ( 'NONE', #56, #928, #960, .T. ) ;
#523 = VERTEX_POINT ( 'NONE', #375 ) ;
#524 = CARTESIAN_POINT ( 'NONE',  ( 2.099999999999987654, 54.00000000000000000, 12.65000000000007851 ) ) ;
#525 = CARTESIAN_POINT ( 'NONE',  ( 12.49999999999996625, -12.50000000000009415, 0.000000000000000000 ) ) ;
#526 = FACE_OUTER_BOUND ( 'NONE', #479, .T. ) ;
#527 = ADVANCED_FACE ( 'NONE', ( #1078 ), #733, .F. ) ;
#528 = ORIENTED_EDGE ( 'NONE', *, *, #933, .T. ) ;
#529 = DIRECTION ( 'NONE',  ( -0.000000000000000000, -0.000000000000000000, -1.000000000000000000 ) ) ;
#530 = DIRECTION ( 'NONE',  ( 1.000000000000000000, 0.000000000000000000, -0.000000000000000000 ) ) ;
#531 = CARTESIAN_POINT ( 'NONE',  ( 5.999999999999991118, 38.00000000000000000, 4.000000000000000000 ) ) ;
#532 = DATE_AND_TIME ( #1062, #743 ) ;
#533 = VECTOR ( 'NONE', #967, 1000.000000000000000 ) ;
#534 = ORIENTED_EDGE ( 'NONE', *, *, #490, .F. ) ;
#535 = AXIS2_PLACEMENT_3D ( 'NONE', #1070, #23, #816 ) ;
#536 = DIRECTION ( 'NONE',  ( -0.000000000000000000, -0.000000000000000000, -1.000000000000000000 ) ) ;
#537 = CARTESIAN_POINT ( 'NONE',  ( -6.000000000000021316, 0.000000000000000000, 4.000000000000000000 ) ) ;
#538 = EDGE_CURVE ( 'NONE', #730, #56, #625, .T. ) ;
#539 = DIRECTION ( 'NONE',  ( 1.000000000000000000, 0.000000000000000000, 0.000000000000000000 ) ) ;
#540 = VERTEX_POINT ( 'NONE', #294 ) ;
#541 = DIRECTION ( 'NONE',  ( -0.000000000000000000, 0.000000000000000000, -1.000000000000000000 ) ) ;
#542 = CC_DESIGN_PERSON_AND_ORGANIZATION_ASSIGNMENT ( #921, #1032, ( #916 ) ) ;
#543 = DIRECTION ( 'NONE',  ( -0.000000000000000000, -0.000000000000000000, -1.000000000000000000 ) ) ;
#544 = DIRECTION ( 'NONE',  ( 1.000000000000000000, 0.000000000000000000, -0.000000000000000000 ) ) ;
#545 = VERTEX_POINT ( 'NONE', #194 ) ;
#546 = CARTESIAN_POINT ( 'NONE',  ( -2.100000000000011191, 54.00000000000000000, 12.65000000000007851 ) ) ;
#547 = DIRECTION ( 'NONE',  ( 1.000000000000000000, 0.000000000000000000, 0.000000000000000000 ) ) ;
#548 = CARTESIAN_POINT ( 'NONE',  ( 5.669196913808580263, 40.00330637276528023, 4.187347489493084218 ) ) ;
#549 = ORIENTED_EDGE ( 'NONE', *, *, #232, .F. ) ;
#550 = LINE ( 'NONE', #648, #709 ) ;
#551 = AXIS2_PLACEMENT_3D ( 'NONE', #609, #254, #602 ) ;
#552 = VECTOR ( 'NONE', #801, 1000.000000000000000 ) ;
#553 = DIRECTION ( 'NONE',  ( 0.000000000000000000, 0.000000000000000000, -1.000000000000000000 ) ) ;
#554 = DIRECTION ( 'NONE',  ( -0.000000000000000000, 0.000000000000000000, 1.000000000000000000 ) ) ;
#555 = EDGE_CURVE ( 'NONE', #540, #213, #355, .T. ) ;
#556 = ORIENTED_EDGE ( 'NONE', *, *, #351, .F. ) ;
#557 = DIRECTION ( 'NONE',  ( -0.7071067811865512365, 0.7071067811865439090, 0.000000000000000000 ) ) ;
#558 = DIRECTION ( 'NONE',  ( 0.000000000000000000, 0.000000000000000000, 1.000000000000000000 ) ) ;
#559 = CARTESIAN_POINT ( 'NONE',  ( 5.174648674318750530, 41.06155905329494971, 4.460879701521151652 ) ) ;
#560 = ORIENTED_EDGE ( 'NONE', *, *, #329, .F. ) ;
#561 = FACE_OUTER_BOUND ( 'NONE', #370, .T. ) ;
#562 = CARTESIAN_POINT ( 'NONE',  ( -6.000000000000021316, 0.000000000000000000, 4.000000000000000000 ) ) ;
#563 = DIRECTION ( 'NONE',  ( 0.7071067811865507924, 0.7071067811865441310, 0.000000000000000000 ) ) ;
#564 = ORIENTED_EDGE ( 'NONE', *, *, #456, .T. ) ;
#565 =( NAMED_UNIT ( * ) SI_UNIT ( $, .STERADIAN. ) SOLID_ANGLE_UNIT ( ) );
#566 = ORIENTED_EDGE ( 'NONE', *, *, #469, .F. ) ;
#567 = VECTOR ( 'NONE', #861, 1000.000000000000000 ) ;
#568 = ADVANCED_FACE ( 'NONE', ( #644 ), #284, .T. ) ;
#569 = CARTESIAN_POINT ( 'NONE',  ( 10.00000000000000711, 0.000000000000000000, 4.000000000000000000 ) ) ;
#570 = VECTOR ( 'NONE', #1004, 1000.000000000000000 ) ;
#571 = SECURITY_CLASSIFICATION ( '', '', #255 ) ;
#572 = CARTESIAN_POINT ( 'NONE',  ( 2.099999999999987654, 54.00000000000000000, 4.000000000000000000 ) ) ;
#573 = ORIENTED_EDGE ( 'NONE', *, *, #1084, .F. ) ;
#574 = FACE_OUTER_BOUND ( 'NONE', #579, .T. ) ;
#575 = ORIENTED_EDGE ( 'NONE', *, *, #966, .T. ) ;
#576 = LINE ( 'NONE', #931, #117 ) ;
#577 = EDGE_CURVE ( 'NONE', #985, #462, #633, .T. ) ;
#578 = CARTESIAN_POINT ( 'NONE',  ( -5.659512095101005613, 40.00230218815759287, 4.192233339738187681 ) ) ;
#579 = EDGE_LOOP ( 'NONE', ( #828, #707, #361, #274 ) ) ;
#580 = DATE_AND_TIME ( #753, #780 ) ;
#581 = EDGE_CURVE ( 'NONE', #1129, #617, #899, .T. ) ;
#582 = EDGE_LOOP ( 'NONE', ( #229, #252, #377, #564 ) ) ;
#583 = CARTESIAN_POINT ( 'NONE',  ( -9.999999999999992895, -54.00000000000000000, 0.000000000000000000 ) ) ;
#584 = CARTESIAN_POINT ( 'NONE',  ( 3.945943788470960722, 42.52394190535952845, 5.059827831703391787 ) ) ;
#585 = VERTEX_POINT ( 'NONE', #202 ) ;
#586 = APPROVAL_STATUS ( 'not_yet_approved' ) ;
#587 = VERTEX_POINT ( 'NONE', #728 ) ;
#588 = ADVANCED_FACE ( 'NONE', ( #973 ), #29, .T. ) ;
#589 = EDGE_CURVE ( 'NONE', #540, #399, #988, .T. ) ;
#590 = AXIS2_PLACEMENT_3D ( 'NONE', #946, #612, #435 ) ;
#591 = VECTOR ( 'NONE', #1009, 1000.000000000000000 ) ;
#592 = DIRECTION ( 'NONE',  ( 0.7071067811865507924, -0.7071067811865441310, 0.000000000000000000 ) ) ;
#593 = VECTOR ( 'NONE', #1093, 1000.000000000000000 ) ;
#594 = ORIENTED_EDGE ( 'NONE', *, *, #748, .T. ) ;
#595 = APPROVAL_STATUS ( 'not_yet_approved' ) ;
#596 = EDGE_CURVE ( 'NONE', #286, #678, #124, .T. ) ;
#597 = ORIENTED_EDGE ( 'NONE', *, *, #191, .F. ) ;
#598 = DIRECTION ( 'NONE',  ( -0.000000000000000000, -0.000000000000000000, -1.000000000000000000 ) ) ;
#599 = FACE_OUTER_BOUND ( 'NONE', #291, .T. ) ;
#600 = ORIENTED_EDGE ( 'NONE', *, *, #238, .F. ) ;
#601 = CARTESIAN_POINT ( 'NONE',  ( -5.000000000000033751, -5.000000000000082601, 4.000000000000000000 ) ) ;
#602 = DIRECTION ( 'NONE',  ( 0.000000000000000000, -6.938893903907228378E-16, -1.000000000000000000 ) ) ;
#603 = EDGE_LOOP ( 'NONE', ( #36, #10, #472, #781 ) ) ;
#604 = CARTESIAN_POINT ( 'NONE',  ( -1.157291225194249043E-14, 54.00000000000000000, 0.000000000000000000 ) ) ;
#605 = EDGE_CURVE ( 'NONE', #1118, #126, #712, .T. ) ;
#606 = DIRECTION ( 'NONE',  ( -0.7071067811865507924, 0.7071067811865441310, 0.000000000000000000 ) ) ;
#607 = CIRCLE ( 'NONE', #513, 2.099999999999999645 ) ;
#608 = VECTOR ( 'NONE', #652, 1000.000000000000000 ) ;
#609 = CARTESIAN_POINT ( 'NONE',  ( 10.00000000000000711, 38.04154401533718755, 14.00000000000000000 ) ) ;
#610 = ORIENTED_EDGE ( 'NONE', *, *, #1060, .T. ) ;
#611 = PLANE ( 'NONE',  #944 ) ;
#612 = DIRECTION ( 'NONE',  ( -0.000000000000000000, 0.000000000000000000, 1.000000000000000000 ) ) ;
#613 = EDGE_CURVE ( 'NONE', #587, #641, #1059, .T. ) ;
#614 = DIRECTION ( 'NONE',  ( 0.000000000000000000, -1.000000000000000000, 0.000000000000000000 ) ) ;
#615 = PERSON_AND_ORGANIZATION ( #18446744073709551615, #18446744073709551615 ) ;
#616 = APPLICATION_CONTEXT ( 'configuration controlled 3d designs of mechanical parts and assemblies' ) ;
#617 = VERTEX_POINT ( 'NONE', #619 ) ;
#618 = LINE ( 'NONE', #434, #849 ) ;
#619 = CARTESIAN_POINT ( 'NONE',  ( -6.000000000000023093, 30.99999999999989697, 0.000000000000000000 ) ) ;
#620 = DIRECTION ( 'NONE',  ( -0.000000000000000000, 0.000000000000000000, -1.000000000000000000 ) ) ;
#621 = APPROVAL ( #791, 'Coincidente' ) ;
#622 = CALENDAR_DATE ( 2026, 14, 9 ) ;
#623 = EDGE_LOOP ( 'NONE', ( #2, #701, #60, #467 ) ) ;
#624 = DIRECTION ( 'NONE',  ( 0.7071067811865512365, -0.7071067811865439090, 0.000000000000000000 ) ) ;
#625 = LINE ( 'NONE', #209, #1035 ) ;
#626 = FACE_OUTER_BOUND ( 'NONE', #339, .T. ) ;
#627 = AXIS2_PLACEMENT_3D ( 'NONE', #817, #30, #802 ) ;
#628 = ORIENTED_EDGE ( 'NONE', *, *, #305, .F. ) ;
#629 = AXIS2_PLACEMENT_3D ( 'NONE', #1082, #530, #977 ) ;
#630 = LINE ( 'NONE', #106, #227 ) ;
#631 = EDGE_CURVE ( 'NONE', #269, #940, #186, .T. ) ;
#632 = AXIS2_PLACEMENT_3D ( 'NONE', #839, #1123, #858 ) ;
#633 = LINE ( 'NONE', #450, #778 ) ;
#634 = DIRECTION ( 'NONE',  ( -0.000000000000000000, 0.000000000000000000, 1.000000000000000000 ) ) ;
#635 = ADVANCED_BREP_SHAPE_REPRESENTATION ( 'asml_eslabon_BC_externav4', ( #185, #175 ), #374 ) ;
#636 = ORIENTED_EDGE ( 'NONE', *, *, #439, .F. ) ;
#637 = DIRECTION ( 'NONE',  ( 0.000000000000000000, 0.000000000000000000, -1.000000000000000000 ) ) ;
#638 = DIRECTION ( 'NONE',  ( 1.000000000000000000, 0.000000000000000000, -0.000000000000000000 ) ) ;
#639 = CARTESIAN_POINT ( 'NONE',  ( 5.790851331333171537, 39.61969831400306674, 4.117573856920303754 ) ) ;
#640 = EDGE_CURVE ( 'NONE', #322, #1118, #446, .T. ) ;
#641 = VERTEX_POINT ( 'NONE', #363 ) ;
#642 = DIRECTION ( 'NONE',  ( -1.000000000000000000, 0.000000000000000000, 0.000000000000000000 ) ) ;
#643 = CC_DESIGN_PERSON_AND_ORGANIZATION_ASSIGNMENT ( #708, #510, ( #1015 ) ) ;
#644 = FACE_OUTER_BOUND ( 'NONE', #448, .T. ) ;
#645 = ADVANCED_FACE ( 'NONE', ( #276 ), #894, .F. ) ;
#646 = CARTESIAN_POINT ( 'NONE',  ( 0.000000000000000000, 0.000000000000000000, 0.000000000000000000 ) ) ;
#647 = ORIENTED_EDGE ( 'NONE', *, *, #191, .T. ) ;
#648 = CARTESIAN_POINT ( 'NONE',  ( -5.000000000000033751, -5.000000000000082601, 4.000000000000000000 ) ) ;
#649 = VECTOR ( 'NONE', #512, 1000.000000000000000 ) ;
#650 = VECTOR ( 'NONE', #711, 1000.000000000000000 ) ;
#651 = APPROVAL_PERSON_ORGANIZATION ( #870, #621, #251 ) ;
#652 = DIRECTION ( 'NONE',  ( -0.000000000000000000, -0.000000000000000000, -1.000000000000000000 ) ) ;
#653 = DIRECTION ( 'NONE',  ( 1.000000000000000000, 0.000000000000000000, 0.000000000000000000 ) ) ;
#654 = EDGE_CURVE ( 'NONE', #678, #897, #148, .T. ) ;
#655 = ORIENTED_EDGE ( 'NONE', *, *, #631, .F. ) ;
#656 = DIRECTION ( 'NONE',  ( -0.000000000000000000, -0.000000000000000000, -1.000000000000000000 ) ) ;
#657 = CARTESIAN_POINT ( 'NONE',  ( -6.500000000000037303, -6.500000000000104805, 4.000000000000000000 ) ) ;
#658 = CARTESIAN_POINT ( 'NONE',  ( -2.493299254940454013, 43.46088059101602141, 5.595308710365369365 ) ) ;
#659 = ORIENTED_EDGE ( 'NONE', *, *, #577, .T. ) ;
#660 = CARTESIAN_POINT ( 'NONE',  ( 5.999999999999991118, 21.99999999999999289, 4.000000000000000000 ) ) ;
#661 = EDGE_LOOP ( 'NONE', ( #1033, #560, #93, #878 ) ) ;
#662 = DIRECTION ( 'NONE',  ( 0.7071067811865507924, -0.7071067811865441310, 0.000000000000000000 ) ) ;
#663 = CARTESIAN_POINT ( 'NONE',  ( -2.134736355433822563, 43.61076275534897206, 5.693866891239210304 ) ) ;
#664 = ORIENTED_EDGE ( 'NONE', *, *, #5, .F. ) ;
#665 = PERSON_AND_ORGANIZATION ( #18446744073709551615, #18446744073709551615 ) ;
#666 = ORIENTED_EDGE ( 'NONE', *, *, #800, .T. ) ;
#667 = AXIS2_PLACEMENT_3D ( 'NONE', #447, #14, #717 ) ;
#668 = ADVANCED_FACE ( 'NONE', ( #1104 ), #1024, .F. ) ;
#669 = VECTOR ( 'NONE', #102, 1000.000000000000000 ) ;
#670 = LINE ( 'NONE', #230, #608 ) ;
#671 = DIRECTION ( 'NONE',  ( -0.000000000000000000, 0.000000000000000000, 1.000000000000000000 ) ) ;
#672 = VERTEX_POINT ( 'NONE', #45 ) ;
#673 = ORIENTED_EDGE ( 'NONE', *, *, #748, .F. ) ;
#674 = UNCERTAINTY_MEASURE_WITH_UNIT (LENGTH_MEASURE( 1.000000000000000082E-05 ), #845, 'distance_accuracy_value', 'NONE');
#675 = DIRECTION ( 'NONE',  ( 0.000000000000000000, -1.000000000000000000, 0.000000000000000000 ) ) ;
#676 = CARTESIAN_POINT ( 'NONE',  ( 1.587373457709425173, 43.79978303816474039, 5.823680202609843093 ) ) ;
#677 = EDGE_CURVE ( 'NONE', #42, #56, #670, .T. ) ;
#678 = VERTEX_POINT ( 'NONE', #153 ) ;
#679 = CARTESIAN_POINT ( 'NONE',  ( 5.999999999999991118, -21.99999999999999289, 4.000000000000000000 ) ) ;
#680 = VERTEX_POINT ( 'NONE', #999 ) ;
#681 = DIRECTION ( 'NONE',  ( -0.7071067811865512365, -0.7071067811865439090, 0.000000000000000000 ) ) ;
#682 = EDGE_CURVE ( 'NONE', #322, #730, #470, .T. ) ;
#683 = EDGE_LOOP ( 'NONE', ( #405, #597 ) ) ;
#684 = FACE_OUTER_BOUND ( 'NONE', #582, .T. ) ;
#685 = ORIENTED_EDGE ( 'NONE', *, *, #786, .F. ) ;
#686 = VECTOR ( 'NONE', #104, 1000.000000000000000 ) ;
#687 = LINE ( 'NONE', #525, #353 ) ;
#688 = VECTOR ( 'NONE', #941, 1000.000000000000000 ) ;
#689 = ORIENTED_EDGE ( 'NONE', *, *, #915, .T. ) ;
#690 = VERTEX_POINT ( 'NONE', #1087 ) ;
#691 = EDGE_CURVE ( 'NONE', #1128, #545, #173, .T. ) ;
#692 = CARTESIAN_POINT ( 'NONE',  ( 5.999999999999991118, 21.99999999999999289, 0.000000000000000000 ) ) ;
#693 = ORIENTED_EDGE ( 'NONE', *, *, #288, .F. ) ;
#694 = DATE_AND_TIME ( #86, #7 ) ;
#695 = CC_DESIGN_DATE_AND_TIME_ASSIGNMENT ( #694, #267, ( #571 ) ) ;
#696 = VERTEX_POINT ( 'NONE', #482 ) ;
#697 = CARTESIAN_POINT ( 'NONE',  ( -6.000000000000021316, 0.000000000000000000, 0.000000000000000000 ) ) ;
#698 = EDGE_CURVE ( 'NONE', #1044, #138, #494, .T. ) ;
#699 = CARTESIAN_POINT ( 'NONE',  ( -2.100000000000011191, 54.00000000000000000, 0.000000000000000000 ) ) ;
#700 = CARTESIAN_POINT ( 'NONE',  ( 13.99999999999996447, 14.00000000000009770, 4.000000000000000000 ) ) ;
#701 = ORIENTED_EDGE ( 'NONE', *, *, #915, .F. ) ;
#702 = FACE_OUTER_BOUND ( 'NONE', #47, .T. ) ;
#703 = EDGE_CURVE ( 'NONE', #278, #457, #1112, .T. ) ;
#704 = CARTESIAN_POINT ( 'NONE',  ( 5.999999999999991118, -16.00000000000000355, 4.000000000000000000 ) ) ;
#705 = VECTOR ( 'NONE', #432, 1000.000000000000000 ) ;
#706 = AXIS2_PLACEMENT_3D ( 'NONE', #972, #264, #1130 ) ;
#707 = ORIENTED_EDGE ( 'NONE', *, *, #273, .T. ) ;
#708 = PERSON_AND_ORGANIZATION ( #18446744073709551615, #18446744073709551615 ) ;
#709 = VECTOR ( 'NONE', #1076, 1000.000000000000000 ) ;
#710 = EDGE_LOOP ( 'NONE', ( #1103, #628, #825, #63 ) ) ;
#711 = DIRECTION ( 'NONE',  ( -0.000000000000000000, -0.000000000000000000, -1.000000000000000000 ) ) ;
#712 = LINE ( 'NONE', #821, #318 ) ;
#713 = DIRECTION ( 'NONE',  ( 0.7071067811865442421, 0.7071067811865509034, -0.000000000000000000 ) ) ;
#714 = VERTEX_POINT ( 'NONE', #130 ) ;
#715 = CARTESIAN_POINT ( 'NONE',  ( -9.999999999999992895, 54.00000000000000000, 4.000000000000000000 ) ) ;
#716 = LINE ( 'NONE', #810, #552 ) ;
#717 = DIRECTION ( 'NONE',  ( 1.000000000000000000, 0.000000000000000000, 0.000000000000000000 ) ) ;
#718 = ADVANCED_FACE ( 'NONE', ( #395 ), #1019, .T. ) ;
#719 = ORIENTED_EDGE ( 'NONE', *, *, #589, .F. ) ;
#720 = FACE_OUTER_BOUND ( 'NONE', #975, .T. ) ;
#721 = DIRECTION ( 'NONE',  ( 0.000000000000000000, -1.000000000000000000, 0.000000000000000000 ) ) ;
#722 = CIRCLE ( 'NONE', #225, 2.099999999999999645 ) ;
#723 = CARTESIAN_POINT ( 'NONE',  ( -5.000000000000033751, 5.000000000000082601, 4.000000000000000000 ) ) ;
#724 = AXIS2_PLACEMENT_3D ( 'NONE', #3, #1058, #1049 ) ;
#725 = ORIENTED_EDGE ( 'NONE', *, *, #469, .T. ) ;
#726 = AXIS2_PLACEMENT_3D ( 'NONE', #473, #297, #541 ) ;
#727 = FACE_BOUND ( 'NONE', #854, .T. ) ;
#728 = CARTESIAN_POINT ( 'NONE',  ( -6.000000000000021316, 38.00000000000000000, 0.000000000000000000 ) ) ;
#729 = CARTESIAN_POINT ( 'NONE',  ( 5.999856172841956159, 38.04154401533718755, 4.000000000000000000 ) ) ;
#730 = VERTEX_POINT ( 'NONE', #34 ) ;
#731 = LINE ( 'NONE', #458, #477 ) ;
#732 = EDGE_CURVE ( 'NONE', #985, #909, #428, .T. ) ;
#733 = PLANE ( 'NONE',  #629 ) ;
#734 = FACE_OUTER_BOUND ( 'NONE', #661, .T. ) ;
#735 = ORIENTED_EDGE ( 'NONE', *, *, #507, .T. ) ;
#736 = PLANE ( 'NONE',  #797 ) ;
#737 = EDGE_CURVE ( 'NONE', #523, #422, #1098, .T. ) ;
#738 = DIRECTION ( 'NONE',  ( -0.000000000000000000, -0.000000000000000000, -1.000000000000000000 ) ) ;
#739 = CARTESIAN_POINT ( 'NONE',  ( 12.49999999999996625, 12.50000000000009415, 4.000000000000000000 ) ) ;
#740 = ORIENTED_EDGE ( 'NONE', *, *, #737, .F. ) ;
#741 = LINE ( 'NONE', #819, #593 ) ;
#742 = VECTOR ( 'NONE', #70, 1000.000000000000000 ) ;
#743 = LOCAL_TIME ( 10, 32, 39.00000000000000000, #347 ) ;
#744 = DIRECTION ( 'NONE',  ( 0.7071067811865507924, -0.7071067811865441310, 0.000000000000000000 ) ) ;
#745 = CARTESIAN_POINT ( 'NONE',  ( -1.950813840302662250, 43.67744884432105579, 5.739154685673625522 ) ) ;
#746 = ORIENTED_EDGE ( 'NONE', *, *, #970, .T. ) ;
#747 = CARTESIAN_POINT ( 'NONE',  ( 0.000000000000000000, 0.000000000000000000, 4.000000000000000000 ) ) ;
#748 = EDGE_CURVE ( 'NONE', #772, #1044, #311, .T. ) ;
#749 = DIRECTION ( 'NONE',  ( 0.7071067811865512365, -0.7071067811865439090, 0.000000000000000000 ) ) ;
#750 = CARTESIAN_POINT ( 'NONE',  ( 12.49999999999996625, -12.50000000000009415, 4.000000000000000000 ) ) ;
#751 = EDGE_CURVE ( 'NONE', #672, #996, #576, .T. ) ;
#752 = VERTEX_POINT ( 'NONE', #583 ) ;
#753 = CALENDAR_DATE ( 2026, 14, 9 ) ;
#754 = ORIENTED_EDGE ( 'NONE', *, *, #212, .F. ) ;
#755 = CARTESIAN_POINT ( 'NONE',  ( -1.157291225194249043E-14, 54.00000000000000000, 12.65000000000007851 ) ) ;
#756 = DIRECTION ( 'NONE',  ( 0.000000000000000000, 0.000000000000000000, 1.000000000000000000 ) ) ;
#757 = VERTEX_POINT ( 'NONE', #836 ) ;
#758 = FACE_BOUND ( 'NONE', #947, .T. ) ;
#759 = VERTEX_POINT ( 'NONE', #57 ) ;
#760 = CLOSED_SHELL ( 'NONE', ( #85, #1135, #963, #868, #527, #33, #911, #143, #668, #120, #1025, #369, #718, #846, #103, #1018, #293, #92, #954, #465, #588, #568, #645, #244, #855, #795, #987, #158, #1111, #998 ) ) ;
#761 = CIRCLE ( 'NONE', #1014, 10.00000000000000000 ) ;
#762 = DIRECTION ( 'NONE',  ( 0.7071067811865439090, -0.7071067811865512365, 0.000000000000000000 ) ) ;
#763 = EDGE_CURVE ( 'NONE', #752, #940, #476, .T. ) ;
#764 = CARTESIAN_POINT ( 'NONE',  ( -2.100000000000011191, -54.00000000000000000, 0.000000000000000000 ) ) ;
#765 = EDGE_CURVE ( 'NONE', #1085, #296, #6, .T. ) ;
#766 = ORIENTED_EDGE ( 'NONE', *, *, #555, .F. ) ;
#767 = CARTESIAN_POINT ( 'NONE',  ( 0.000000000000000000, 0.000000000000000000, 0.000000000000000000 ) ) ;
#768 = ORIENTED_EDGE ( 'NONE', *, *, #323, .T. ) ;
#769 = EDGE_CURVE ( 'NONE', #523, #1048, #38, .T. ) ;
#770 = CARTESIAN_POINT ( 'NONE',  ( 3.495045015118674492, 42.88069838985676085, 5.247997613148871032 ) ) ;
#771 = ORIENTED_EDGE ( 'NONE', *, *, #503, .T. ) ;
#772 = VERTEX_POINT ( 'NONE', #389 ) ;
#773 = LINE ( 'NONE', #249, #388 ) ;
#774 = PLANE ( 'NONE',  #1106 ) ;
#775 = LINE ( 'NONE', #417, #1074 ) ;
#776 = ORIENTED_EDGE ( 'NONE', *, *, #203, .F. ) ;
#777 = CIRCLE ( 'NONE', #39, 2.099999999999999645 ) ;
#778 = VECTOR ( 'NONE', #460, 1000.000000000000000 ) ;
#779 = DIRECTION ( 'NONE',  ( 0.7071067811865442421, 0.7071067811865509034, -0.000000000000000000 ) ) ;
#780 = LOCAL_TIME ( 10, 32, 39.00000000000000000, #163 ) ;
#781 = ORIENTED_EDGE ( 'NONE', *, *, #268, .T. ) ;
#782 = ORIENTED_EDGE ( 'NONE', *, *, #691, .F. ) ;
#783 = CARTESIAN_POINT ( 'NONE',  ( 5.999999999999991118, 16.00000000000000355, 4.000000000000000000 ) ) ;
#784 = CARTESIAN_POINT ( 'NONE',  ( 5.999856172841956159, 38.04154401533718755, 4.000000000000000000 ) ) ;
#785 = CARTESIAN_POINT ( 'NONE',  ( -1.157291225194249043E-14, 54.00000000000000000, 12.65000000000007851 ) ) ;
#786 = EDGE_CURVE ( 'NONE', #1129, #714, #134, .T. ) ;
#787 = VERTEX_POINT ( 'NONE', #362 ) ;
#788 = CARTESIAN_POINT ( 'NONE',  ( -9.999999999999992895, 0.000000000000000000, 4.000000000000000000 ) ) ;
#789 = CARTESIAN_POINT ( 'NONE',  ( -6.500000000000037303, 6.500000000000104805, 4.000000000000000000 ) ) ;
#790 = ORIENTED_EDGE ( 'NONE', *, *, #128, .F. ) ;
#791 = APPROVAL_STATUS ( 'not_yet_approved' ) ;
#792 = ORIENTED_EDGE ( 'NONE', *, *, #698, .F. ) ;
#793 = CARTESIAN_POINT ( 'NONE',  ( 5.999999999999991118, 16.00000000000000355, 0.000000000000000000 ) ) ;
#794 = LINE ( 'NONE', #176, #4 ) ;
#795 = ADVANCED_FACE ( 'NONE', ( #702 ), #184, .T. ) ;
#796 = CARTESIAN_POINT ( 'NONE',  ( -6.000000000000021316, -38.00000000000000000, 0.000000000000000000 ) ) ;
#797 = AXIS2_PLACEMENT_3D ( 'NONE', #747, #206, #394 ) ;
#798 = ORIENTED_EDGE ( 'NONE', *, *, #379, .T. ) ;
#799 = DIRECTION ( 'NONE',  ( -0.000000000000000000, -0.000000000000000000, -1.000000000000000000 ) ) ;
#800 = EDGE_CURVE ( 'NONE', #981, #834, #1045, .T. ) ;
#801 = DIRECTION ( 'NONE',  ( -0.000000000000000000, -0.000000000000000000, -1.000000000000000000 ) ) ;
#802 = DIRECTION ( 'NONE',  ( -1.000000000000000000, 0.000000000000000000, 0.000000000000000000 ) ) ;
#803 = SHAPE_DEFINITION_REPRESENTATION ( #123, #635 ) ;
#804 = ORIENTED_EDGE ( 'NONE', *, *, #1036, .T. ) ;
#805 = FACE_OUTER_BOUND ( 'NONE', #166, .T. ) ;
#806 = CARTESIAN_POINT ( 'NONE',  ( -6.000000000000021316, 0.000000000000000000, 4.000000000000000000 ) ) ;
#807 = FACE_BOUND ( 'NONE', #487, .T. ) ;
#808 = ORIENTED_EDGE ( 'NONE', *, *, #522, .F. ) ;
#809 = PLANE ( 'NONE',  #82 ) ;
#810 = CARTESIAN_POINT ( 'NONE',  ( -6.000000000000021316, 38.00000000000000000, 4.000000000000000000 ) ) ;
#811 = DIRECTION ( 'NONE',  ( 0.000000000000000000, 0.000000000000000000, 1.000000000000000000 ) ) ;
#812 = AXIS2_PLACEMENT_3D ( 'NONE', #112, #454, #306 ) ;
#813 = EDGE_CURVE ( 'NONE', #213, #759, #519, .T. ) ;
#814 = EDGE_LOOP ( 'NONE', ( #719, #221, #418, #666, #172, #303 ) ) ;
#815 = CARTESIAN_POINT ( 'NONE',  ( -6.000000000000021316, 0.000000000000000000, 4.000000000000000000 ) ) ;
#816 = DIRECTION ( 'NONE',  ( 1.000000000000000000, 0.000000000000000000, 0.000000000000000000 ) ) ;
#817 = CARTESIAN_POINT ( 'NONE',  ( -1.157291225194249043E-14, -54.00000000000000000, 4.000000000000000000 ) ) ;
#818 = ORIENTED_EDGE ( 'NONE', *, *, #69, .F. ) ;
#819 = CARTESIAN_POINT ( 'NONE',  ( -6.000000000000021316, 0.000000000000000000, 4.000000000000000000 ) ) ;
#820 = EDGE_CURVE ( 'NONE', #269, #834, #263, .T. ) ;
#821 = CARTESIAN_POINT ( 'NONE',  ( 5.999999999999991118, 0.000000000000000000, 4.000000000000000000 ) ) ;
#822 = FACE_OUTER_BOUND ( 'NONE', #518, .T. ) ;
#823 = ORIENTED_EDGE ( 'NONE', *, *, #902, .T. ) ;
#824 = DIRECTION ( 'NONE',  ( -0.000000000000000000, 0.000000000000000000, -1.000000000000000000 ) ) ;
#825 = ORIENTED_EDGE ( 'NONE', *, *, #966, .F. ) ;
#826 = DIRECTION ( 'NONE',  ( -0.000000000000000000, 0.000000000000000000, 1.000000000000000000 ) ) ;
#827 = CARTESIAN_POINT ( 'NONE',  ( -3.008486470478559660, 43.19483977853630563, 5.429406561833473255 ) ) ;
#828 = ORIENTED_EDGE ( 'NONE', *, *, #732, .T. ) ;
#829 = DIRECTION ( 'NONE',  ( -0.000000000000000000, 0.000000000000000000, -1.000000000000000000 ) ) ;
#830 = VECTOR ( 'NONE', #466, 1000.000000000000000 ) ;
#831 = CARTESIAN_POINT ( 'NONE',  ( -5.000000000000033751, -5.000000000000082601, 0.000000000000000000 ) ) ;
#832 = EDGE_CURVE ( 'NONE', #416, #678, #1064, .T. ) ;
#833 = CARTESIAN_POINT ( 'NONE',  ( -3.174876409382016096, 43.09479622660473552, 5.369838690876108878 ) ) ;
#834 = VERTEX_POINT ( 'NONE', #275 ) ;
#835 = ORIENTED_EDGE ( 'NONE', *, *, #933, .F. ) ;
#836 = CARTESIAN_POINT ( 'NONE',  ( -2.100000000000011191, -54.00000000000000000, 4.000000000000000000 ) ) ;
#837 = CARTESIAN_POINT ( 'NONE',  ( -2.667937622182123825, 43.37768165772769180, 5.542035459591225788 ) ) ;
#838 = ORIENTED_EDGE ( 'NONE', *, *, #1084, .T. ) ;
#839 = CARTESIAN_POINT ( 'NONE',  ( -1.554312234475219157E-12, 1.776356839400250465E-12, 12.65000000000007851 ) ) ;
#840 = ORIENTED_EDGE ( 'NONE', *, *, #763, .T. ) ;
#841 = DESIGN_CONTEXT ( 'detailed design', #208, 'design' ) ;
#842 = DIRECTION ( 'NONE',  ( 1.000000000000000000, 0.000000000000000000, 0.000000000000000000 ) ) ;
#843 = CARTESIAN_POINT ( 'NONE',  ( -1.572772461397140109, 43.79357288761171674, 5.819587271957986196 ) ) ;
#844 = ORIENTED_EDGE ( 'NONE', *, *, #1040, .F. ) ;
#845 =( LENGTH_UNIT ( ) NAMED_UNIT ( * ) SI_UNIT ( .MILLI., .METRE. ) );
#846 = ADVANCED_FACE ( 'NONE', ( #16 ), #257, .F. ) ;
#847 = ORIENTED_EDGE ( 'NONE', *, *, #677, .F. ) ;
#848 = CIRCLE ( 'NONE', #551, 10.00000000000000000 ) ;
#849 = VECTOR ( 'NONE', #180, 1000.000000000000000 ) ;
#850 = VECTOR ( 'NONE', #1086, 1000.000000000000000 ) ;
#851 = CARTESIAN_POINT ( 'NONE',  ( -5.829796077786939534, 39.43279842715016059, 4.095318612623271015 ) ) ;
#852 = EDGE_LOOP ( 'NONE', ( #575, #114, #179, #528 ) ) ;
#853 = CYLINDRICAL_SURFACE ( 'NONE', #925, 2.099999999999999645 ) ;
#854 = EDGE_LOOP ( 'NONE', ( #506, #859, #573, #365 ) ) ;
#855 = ADVANCED_FACE ( 'NONE', ( #174 ), #611, .F. ) ;
#856 = LINE ( 'NONE', #423, #1069 ) ;
#857 = LINE ( 'NONE', #974, #171 ) ;
#858 = DIRECTION ( 'NONE',  ( 1.000000000000000000, 0.000000000000000000, 0.000000000000000000 ) ) ;
#859 = ORIENTED_EDGE ( 'NONE', *, *, #605, .T. ) ;
#860 = LINE ( 'NONE', #431, #424 ) ;
#861 = DIRECTION ( 'NONE',  ( 0.000000000000000000, -1.000000000000000000, 0.000000000000000000 ) ) ;
#862 = ORIENTED_EDGE ( 'NONE', *, *, #5, .T. ) ;
#863 = CARTESIAN_POINT ( 'NONE',  ( 5.999999999999991118, 16.00000000000000355, 4.000000000000000000 ) ) ;
#864 = AXIS2_PLACEMENT_3D ( 'NONE', #723, #119, #35 ) ;
#865 = VECTOR ( 'NONE', #958, 1000.000000000000000 ) ;
#866 = VECTOR ( 'NONE', #403, 1000.000000000000000 ) ;
#867 = LINE ( 'NONE', #789, #100 ) ;
#868 = ADVANCED_FACE ( 'NONE', ( #805 ), #449, .F. ) ;
#869 = CARTESIAN_POINT ( 'NONE',  ( -6.000000000000021316, 0.000000000000000000, 0.000000000000000000 ) ) ;
#870 = PERSON_AND_ORGANIZATION ( #18446744073709551615, #18446744073709551615 ) ;
#871 = ORIENTED_EDGE ( 'NONE', *, *, #49, .F. ) ;
#872 = DIRECTION ( 'NONE',  ( -0.000000000000000000, 0.000000000000000000, -1.000000000000000000 ) ) ;
#873 = LINE ( 'NONE', #259, #317 ) ;
#874 = DIRECTION ( 'NONE',  ( -0.000000000000000000, -0.000000000000000000, -1.000000000000000000 ) ) ;
#875 = ORIENTED_EDGE ( 'NONE', *, *, #358, .T. ) ;
#876 = LINE ( 'NONE', #1068, #210 ) ;
#877 = FACE_OUTER_BOUND ( 'NONE', #891, .T. ) ;
#878 = ORIENTED_EDGE ( 'NONE', *, *, #631, .T. ) ;
#879 = ORIENTED_EDGE ( 'NONE', *, *, #939, .T. ) ;
#880 = DIRECTION ( 'NONE',  ( 1.000000000000000000, -0.000000000000000000, 0.000000000000000000 ) ) ;
#881 = EDGE_CURVE ( 'NONE', #322, #42, #618, .T. ) ;
#882 = CARTESIAN_POINT ( 'NONE',  ( 10.00000000000000711, 0.000000000000000000, 0.000000000000000000 ) ) ;
#883 = VECTOR ( 'NONE', #352, 1000.000000000000000 ) ;
#884 = VECTOR ( 'NONE', #215, 1000.000000000000000 ) ;
#885 = DIRECTION ( 'NONE',  ( 1.000000000000000000, 0.000000000000000000, 0.000000000000000000 ) ) ;
#886 = APPROVAL_DATE_TIME ( #532, #621 ) ;
#887 = ORIENTED_EDGE ( 'NONE', *, *, #404, .F. ) ;
#888 = CARTESIAN_POINT ( 'NONE',  ( -6.000000000000023093, -30.99999999999989697, 0.000000000000000000 ) ) ;
#889 = CARTESIAN_POINT ( 'NONE',  ( -9.999999999999992895, 38.04154401533718755, 14.00000000000000000 ) ) ;
#890 = CARTESIAN_POINT ( 'NONE',  ( -1.157291225194249043E-14, -54.00000000000000000, 0.000000000000000000 ) ) ;
#891 = EDGE_LOOP ( 'NONE', ( #1006, #1092, #804, #511 ) ) ;
#892 = DIRECTION ( 'NONE',  ( 1.000000000000000000, 0.000000000000000000, -0.000000000000000000 ) ) ;
#893 = CC_DESIGN_DATE_AND_TIME_ASSIGNMENT ( #1101, #314, ( #1077 ) ) ;
#894 = CYLINDRICAL_SURFACE ( 'NONE', #812, 6.000000000000006217 ) ;
#895 = EDGE_CURVE ( 'NONE', #949, #930, #1134, .T. ) ;
#896 = FACE_BOUND ( 'NONE', #167, .T. ) ;
#897 = VERTEX_POINT ( 'NONE', #98 ) ;
#898 = FACE_BOUND ( 'NONE', #1023, .T. ) ;
#899 = LINE ( 'NONE', #198, #300 ) ;
#900 = VECTOR ( 'NONE', #161, 1000.000000000000000 ) ;
#901 = CARTESIAN_POINT ( 'NONE',  ( 5.361084144423681863, 40.72246338214267070, 4.358976600605786622 ) ) ;
#902 = EDGE_CURVE ( 'NONE', #757, #296, #444, .T. ) ;
#903 = EDGE_LOOP ( 'NONE', ( #990, #887, #437, #162 ) ) ;
#904 = CARTESIAN_POINT ( 'NONE',  ( -6.000000000000021316, -7.000000000000115463, 4.000000000000000000 ) ) ;
#905 = DIRECTION ( 'NONE',  ( 0.000000000000000000, -1.000000000000000000, 0.000000000000000000 ) ) ;
#906 = LINE ( 'NONE', #739, #1011 ) ;
#907 = EDGE_LOOP ( 'NONE', ( #87, #429, #594, #689 ) ) ;
#908 = LINE ( 'NONE', #986, #357 ) ;
#909 = VERTEX_POINT ( 'NONE', #524 ) ;
#910 = CARTESIAN_POINT ( 'NONE',  ( -5.204748896376239852E-16, 38.00000000000000000, 4.000000000000000000 ) ) ;
#911 = ADVANCED_FACE ( 'NONE', ( #720 ), #11, .T. ) ;
#912 = CARTESIAN_POINT ( 'NONE',  ( 2.682334501847652319, 43.38094794448600311, 5.542877301334493190 ) ) ;
#913 = ORIENTED_EDGE ( 'NONE', *, *, #351, .T. ) ;
#914 = PLANE ( 'NONE',  #726 ) ;
#915 = EDGE_CURVE ( 'NONE', #1044, #787, #876, .T. ) ;
#916 = PRODUCT ( 'asml_eslabon_BC_externav4', 'asml_eslabon_BC_externav4', '', ( #398 ) ) ;
#917 = DIRECTION ( 'NONE',  ( 1.000000000000000000, 0.000000000000000000, 0.000000000000000000 ) ) ;
#918 = CYLINDRICAL_SURFACE ( 'NONE', #207, 6.000000000000006217 ) ;
#919 = CIRCLE ( 'NONE', #978, 2.099999999999999645 ) ;
#920 = ORIENTED_EDGE ( 'NONE', *, *, #273, .F. ) ;
#921 = PERSON_AND_ORGANIZATION ( #18446744073709551615, #18446744073709551615 ) ;
#922 = AXIS2_PLACEMENT_3D ( 'NONE', #461, #211, #455 ) ;
#923 = VECTOR ( 'NONE', #744, 1000.000000000000000 ) ;
#924 = ORIENTED_EDGE ( 'NONE', *, *, #1053, .T. ) ;
#925 = AXIS2_PLACEMENT_3D ( 'NONE', #412, #421, #1022 ) ;
#926 = CARTESIAN_POINT ( 'NONE',  ( -6.000000000000021316, 0.000000000000000000, 4.000000000000000000 ) ) ;
#927 = DIRECTION ( 'NONE',  ( 1.000000000000000000, 0.000000000000000000, 0.000000000000000000 ) ) ;
#928 = VERTEX_POINT ( 'NONE', #438 ) ;
#929 = PERSON_AND_ORGANIZATION ( #18446744073709551615, #18446744073709551615 ) ;
#930 = VERTEX_POINT ( 'NONE', #793 ) ;
#931 = CARTESIAN_POINT ( 'NONE',  ( 13.99999999999996447, 14.00000000000009770, 4.000000000000000000 ) ) ;
#932 = DIRECTION ( 'NONE',  ( -1.000000000000000000, 0.000000000000000000, 0.000000000000000000 ) ) ;
#933 = EDGE_CURVE ( 'NONE', #585, #416, #279, .T. ) ;
#934 = VERTEX_POINT ( 'NONE', #888 ) ;
#935 = CARTESIAN_POINT ( 'NONE',  ( -6.000000000000023093, 30.99999999999989697, 4.000000000000000000 ) ) ;
#936 = ORIENTED_EDGE ( 'NONE', *, *, #640, .F. ) ;
#937 = CARTESIAN_POINT ( 'NONE',  ( -6.500000000000037303, 6.500000000000104805, 4.000000000000000000 ) ) ;
#938 = CARTESIAN_POINT ( 'NONE',  ( 5.999999999999991118, 38.00000000000000000, 0.000000000000000000 ) ) ;
#939 = EDGE_CURVE ( 'NONE', #73, #928, #630, .T. ) ;
#940 = VERTEX_POINT ( 'NONE', #197 ) ;
#941 = DIRECTION ( 'NONE',  ( -0.000000000000000000, -0.000000000000000000, -1.000000000000000000 ) ) ;
#942 = ORIENTED_EDGE ( 'NONE', *, *, #813, .F. ) ;
#943 = VECTOR ( 'NONE', #1131, 1000.000000000000000 ) ;
#944 = AXIS2_PLACEMENT_3D ( 'NONE', #788, #190, #872 ) ;
#945 = APPROVAL_PERSON_ORGANIZATION ( #665, #968, #146 ) ;
#946 = CARTESIAN_POINT ( 'NONE',  ( -5.204748896376239852E-16, 38.00000000000000000, 0.000000000000000000 ) ) ;
#947 = EDGE_LOOP ( 'NONE', ( #233, #818 ) ) ;
#948 = PERSON_AND_ORGANIZATION ( #18446744073709551615, #18446744073709551615 ) ;
#949 = VERTEX_POINT ( 'NONE', #863 ) ;
#950 = DIRECTION ( 'NONE',  ( -0.000000000000000000, -0.000000000000000000, -1.000000000000000000 ) ) ;
#951 = DIRECTION ( 'NONE',  ( -0.000000000000000000, -0.000000000000000000, -1.000000000000000000 ) ) ;
#952 = PERSON_AND_ORGANIZATION_ROLE ( 'creator' ) ;
#953 = ORIENTED_EDGE ( 'NONE', *, *, #212, .T. ) ;
#954 = ADVANCED_FACE ( 'NONE', ( #468 ), #378, .T. ) ;
#955 = DIRECTION ( 'NONE',  ( 1.000000000000000000, 0.000000000000000000, -0.000000000000000000 ) ) ;
#956 = FACE_OUTER_BOUND ( 'NONE', #235, .T. ) ;
#957 = EDGE_LOOP ( 'NONE', ( #962, #382, #685 ) ) ;
#958 = DIRECTION ( 'NONE',  ( 0.000000000000000000, -1.000000000000000000, 0.000000000000000000 ) ) ;
#959 = AXIS2_PLACEMENT_3D ( 'NONE', #601, #779, #606 ) ;
#960 = CIRCLE ( 'NONE', #535, 6.000000000000006217 ) ;
#961 = LINE ( 'NONE', #89, #900 ) ;
#962 = ORIENTED_EDGE ( 'NONE', *, *, #168, .F. ) ;
#963 = ADVANCED_FACE ( 'NONE', ( #133, #727, #898, #44, #997, #201 ), #736, .T. ) ;
#964 = ORIENTED_EDGE ( 'NONE', *, *, #605, .F. ) ;
#965 = DIRECTION ( 'NONE',  ( -1.000000000000000000, 0.000000000000000000, 0.000000000000000000 ) ) ;
#966 = EDGE_CURVE ( 'NONE', #416, #930, #1097, .T. ) ;
#967 = DIRECTION ( 'NONE',  ( -0.000000000000000000, -0.000000000000000000, -1.000000000000000000 ) ) ;
#968 = APPROVAL ( #586, 'Coincidente' ) ;
#969 = CYLINDRICAL_SURFACE ( 'NONE', #474, 2.099999999999999645 ) ;
#970 = EDGE_CURVE ( 'NONE', #690, #1085, #731, .T. ) ;
#971 = ORIENTED_EDGE ( 'NONE', *, *, #258, .F. ) ;
#972 = CARTESIAN_POINT ( 'NONE',  ( 12.49999999999996625, -12.50000000000009415, 4.000000000000000000 ) ) ;
#973 = FACE_OUTER_BOUND ( 'NONE', #623, .T. ) ;
#974 = CARTESIAN_POINT ( 'NONE',  ( -6.000000000000021316, 7.000000000000115463, 4.000000000000000000 ) ) ;
#975 = EDGE_LOOP ( 'NONE', ( #239, #1031, #248, #1063 ) ) ;
#976 = CARTESIAN_POINT ( 'NONE',  ( -6.000000000000021316, 4.000000000000105693, 4.000000000000000000 ) ) ;
#977 = DIRECTION ( 'NONE',  ( -0.000000000000000000, 0.000000000000000000, -1.000000000000000000 ) ) ;
#978 = AXIS2_PLACEMENT_3D ( 'NONE', #1105, #671, #231 ) ;
#979 = FACE_BOUND ( 'NONE', #433, .T. ) ;
#980 = LOCAL_TIME ( 10, 32, 39.00000000000000000, #500 ) ;
#981 = VERTEX_POINT ( 'NONE', #122 ) ;
#982 = DIRECTION ( 'NONE',  ( 0.000000000000000000, -1.000000000000000000, 0.000000000000000000 ) ) ;
#983 = DIRECTION ( 'NONE',  ( 0.7071067811865507924, 0.7071067811865441310, 0.000000000000000000 ) ) ;
#984 = LINE ( 'NONE', #187, #1050 ) ;
#985 = VERTEX_POINT ( 'NONE', #546 ) ;
#986 = CARTESIAN_POINT ( 'NONE',  ( -6.000000000000021316, 0.000000000000000000, 0.000000000000000000 ) ) ;
#987 = ADVANCED_FACE ( 'NONE', ( #561 ), #310, .F. ) ;
#988 = LINE ( 'NONE', #380, #281 ) ;
#989 = PLANE ( 'NONE',  #372 ) ;
#990 = ORIENTED_EDGE ( 'NONE', *, *, #305, .T. ) ;
#991 = DIRECTION ( 'NONE',  ( 1.000000000000000000, 0.000000000000000000, -0.000000000000000000 ) ) ;
#992 = DIRECTION ( 'NONE',  ( -0.000000000000000000, 0.000000000000000000, -1.000000000000000000 ) ) ;
#993 = VECTOR ( 'NONE', #950, 1000.000000000000000 ) ;
#994 = CARTESIAN_POINT ( 'NONE',  ( -9.999999999999992895, 47.94999999999999574, 12.65000000000007851 ) ) ;
#995 = AXIS2_PLACEMENT_3D ( 'NONE', #270, #366, #965 ) ;
#996 = VERTEX_POINT ( 'NONE', #660 ) ;
#997 = FACE_BOUND ( 'NONE', #957, .T. ) ;
#998 = ADVANCED_FACE ( 'NONE', ( #1081 ), #37, .F. ) ;
#999 = CARTESIAN_POINT ( 'NONE',  ( 5.999999999999992895, 19.00000000000000355, 0.000000000000000000 ) ) ;
#1000 = CARTESIAN_POINT ( 'NONE',  ( -5.170548027214879383, 41.06791808951017231, 4.463036972639141453 ) ) ;
#1001 = EDGE_CURVE ( 'NONE', #1128, #540, #27, .T. ) ;
#1002 = EDGE_LOOP ( 'NONE', ( #913, #549, #693, #452 ) ) ;
#1003 = CARTESIAN_POINT ( 'NONE',  ( -5.000000000000033751, 5.000000000000082601, 0.000000000000000000 ) ) ;
#1004 = DIRECTION ( 'NONE',  ( 0.000000000000000000, -1.000000000000000000, 0.000000000000000000 ) ) ;
#1005 = CARTESIAN_POINT ( 'NONE',  ( -5.589684417767473157, 40.18951763618020578, 4.231652221868860586 ) ) ;
#1006 = ORIENTED_EDGE ( 'NONE', *, *, #654, .F. ) ;
#1007 = FACE_OUTER_BOUND ( 'NONE', #189, .T. ) ;
#1008 = ORIENTED_EDGE ( 'NONE', *, *, #391, .T. ) ;
#1009 = DIRECTION ( 'NONE',  ( -1.000000000000000000, 0.000000000000000000, -0.000000000000000000 ) ) ;
#1010 = LINE ( 'NONE', #401, #407 ) ;
#1011 = VECTOR ( 'NONE', #125, 1000.000000000000000 ) ;
#1012 = ORIENTED_EDGE ( 'NONE', *, *, #939, .F. ) ;
#1013 = DIRECTION ( 'NONE',  ( -0.000000000000000000, -0.000000000000000000, -1.000000000000000000 ) ) ;
#1014 = AXIS2_PLACEMENT_3D ( 'NONE', #165, #108, #547 ) ;
#1015 = PRODUCT_DEFINITION_FORMATION_WITH_SPECIFIED_SOURCE ( 'Simétric', '', #916, .NOT_KNOWN. ) ;
#1016 = VERTEX_POINT ( 'NONE', #214 ) ;
#1017 = CC_DESIGN_PERSON_AND_ORGANIZATION_ASSIGNMENT ( #615, #1056, ( #571 ) ) ;
#1018 = ADVANCED_FACE ( 'NONE', ( #1007 ), #914, .F. ) ;
#1019 = PLANE ( 'NONE',  #137 ) ;
#1020 = CARTESIAN_POINT ( 'NONE',  ( -1.378892239286350296, 43.84278074049897356, 5.854572835692080091 ) ) ;
#1021 = ORIENTED_EDGE ( 'NONE', *, *, #800, .F. ) ;
#1022 = DIRECTION ( 'NONE',  ( -1.000000000000000000, 0.000000000000000000, 0.000000000000000000 ) ) ;
#1023 = EDGE_LOOP ( 'NONE', ( #673, #110, #792 ) ) ;
#1024 = PLANE ( 'NONE',  #1091 ) ;
#1025 = ADVANCED_FACE ( 'NONE', ( #453 ), #809, .F. ) ;
#1026 = CARTESIAN_POINT ( 'NONE',  ( 0.4118203030397975528, 43.99953313567880997, 5.968663500127272314 ) ) ;
#1027 = ORIENTED_EDGE ( 'NONE', *, *, #49, .T. ) ;
#1028 = CALENDAR_DATE ( 2026, 14, 9 ) ;
#1029 = ORIENTED_EDGE ( 'NONE', *, *, #69, .T. ) ;
#1030 = CARTESIAN_POINT ( 'NONE',  ( 5.999999999999991118, -38.00000000000000000, 4.000000000000000000 ) ) ;
#1031 = ORIENTED_EDGE ( 'NONE', *, *, #358, .F. ) ;
#1032 = PERSON_AND_ORGANIZATION_ROLE ( 'design_owner' ) ;
#1033 = ORIENTED_EDGE ( 'NONE', *, *, #763, .F. ) ;
#1034 = AXIS2_PLACEMENT_3D ( 'NONE', #1090, #302, #653 ) ;
#1035 = VECTOR ( 'NONE', #289, 1000.000000000000000 ) ;
#1036 = EDGE_CURVE ( 'NONE', #286, #326, #550, .T. ) ;
#1037 = VECTOR ( 'NONE', #536, 1000.000000000000000 ) ;
#1038 = LINE ( 'NONE', #704, #943 ) ;
#1039 = EDGE_LOOP ( 'NONE', ( #1008, #664, #413, #875 ) ) ;
#1040 = EDGE_CURVE ( 'NONE', #545, #672, #741, .T. ) ;
#1041 = ORIENTED_EDGE ( 'NONE', *, *, #765, .T. ) ;
#1042 = PLANE ( 'NONE',  #243 ) ;
#1043 = EDGE_LOOP ( 'NONE', ( #68, #321, #121, #443 ) ) ;
#1044 = VERTEX_POINT ( 'NONE', #904 ) ;
#1045 = LINE ( 'NONE', #715, #650 ) ;
#1046 = LINE ( 'NONE', #169, #649 ) ;
#1047 = ORIENTED_EDGE ( 'NONE', *, *, #786, .T. ) ;
#1048 = VERTEX_POINT ( 'NONE', #287 ) ;
#1049 = DIRECTION ( 'NONE',  ( -1.000000000000000000, 0.000000000000000000, 0.000000000000000000 ) ) ;
#1050 = VECTOR ( 'NONE', #18, 1000.000000000000000 ) ;
#1051 = PRODUCT_RELATED_PRODUCT_CATEGORY ( 'detail', '', ( #916 ) ) ;
#1052 = AXIS2_PLACEMENT_3D ( 'NONE', #604, #81, #430 ) ;
#1053 = EDGE_CURVE ( 'NONE', #680, #617, #115, .T. ) ;
#1054 = CARTESIAN_POINT ( 'NONE',  ( 13.99999999999996447, 14.00000000000009770, 0.000000000000000000 ) ) ;
#1055 = CARTESIAN_POINT ( 'NONE',  ( -6.500000000000037303, -6.500000000000104805, 0.000000000000000000 ) ) ;
#1056 = PERSON_AND_ORGANIZATION_ROLE ( 'classification_officer' ) ;
#1057 = ORIENTED_EDGE ( 'NONE', *, *, #19, .T. ) ;
#1058 = DIRECTION ( 'NONE',  ( -0.000000000000000000, -0.000000000000000000, -1.000000000000000000 ) ) ;
#1059 = LINE ( 'NONE', #271, #514 ) ;
#1060 = EDGE_CURVE ( 'NONE', #787, #934, #908, .T. ) ;
#1061 = CARTESIAN_POINT ( 'NONE',  ( 5.999999999999991118, -21.99999999999999289, 0.000000000000000000 ) ) ;
#1062 = CALENDAR_DATE ( 2026, 14, 9 ) ;
#1063 = ORIENTED_EDGE ( 'NONE', *, *, #581, .T. ) ;
#1064 = LINE ( 'NONE', #697, #865 ) ;
#1065 = DIRECTION ( 'NONE',  ( 1.000000000000000000, 0.000000000000000000, -0.000000000000000000 ) ) ;
#1066 = FACE_BOUND ( 'NONE', #1114, .T. ) ;
#1067 = ORIENTED_EDGE ( 'NONE', *, *, #581, .F. ) ;
#1068 = CARTESIAN_POINT ( 'NONE',  ( -6.000000000000021316, -7.000000000000115463, 4.000000000000000000 ) ) ;
#1069 = VECTOR ( 'NONE', #8, 1000.000000000000000 ) ;
#1070 = CARTESIAN_POINT ( 'NONE',  ( -5.204748896376270421E-16, -38.00000000000000000, 0.000000000000000000 ) ) ;
#1071 = VECTOR ( 'NONE', #142, 1000.000000000000000 ) ;
#1072 = AXIS2_PLACEMENT_3D ( 'NONE', #488, #51, #842 ) ;
#1073 = CARTESIAN_POINT ( 'NONE',  ( -6.000000000000023093, -30.99999999999989697, 4.000000000000000000 ) ) ;
#1074 = VECTOR ( 'NONE', #1013, 1000.000000000000000 ) ;
#1075 = ORIENTED_EDGE ( 'NONE', *, *, #28, .T. ) ;
#1076 = DIRECTION ( 'NONE',  ( 0.7071067811865507924, -0.7071067811865441310, 0.000000000000000000 ) ) ;
#1077 = PRODUCT_DEFINITION ( 'General', '', #1015, #841 ) ;
#1078 = FACE_OUTER_BOUND ( 'NONE', #155, .T. ) ;
#1079 = CARTESIAN_POINT ( 'NONE',  ( 5.953693031422780280, 38.84316134729682091, 4.024513690204143401 ) ) ;
#1080 = ORIENTED_EDGE ( 'NONE', *, *, #751, .F. ) ;
#1081 = FACE_OUTER_BOUND ( 'NONE', #26, .T. ) ;
#1082 = CARTESIAN_POINT ( 'NONE',  ( 5.999999999999991118, 0.000000000000000000, 4.000000000000000000 ) ) ;
#1083 = CARTESIAN_POINT ( 'NONE',  ( 5.999999999999992895, 19.00000000000000355, 4.000000000000000000 ) ) ;
#1084 = EDGE_CURVE ( 'NONE', #42, #126, #43, .T. ) ;
#1085 = VERTEX_POINT ( 'NONE', #492 ) ;
#1086 = DIRECTION ( 'NONE',  ( 0.7071067811865507924, 0.7071067811865441310, 0.000000000000000000 ) ) ;
#1087 = CARTESIAN_POINT ( 'NONE',  ( 2.099999999999987654, -54.00000000000000000, 4.000000000000000000 ) ) ;
#1088 = EDGE_CURVE ( 'NONE', #996, #457, #486, .T. ) ;
#1089 = CIRCLE ( 'NONE', #590, 6.000000000000006217 ) ;
#1090 = CARTESIAN_POINT ( 'NONE',  ( -1.157291225194249043E-14, 54.00000000000000000, 0.000000000000000000 ) ) ;
#1091 = AXIS2_PLACEMENT_3D ( 'NONE', #937, #762, #316 ) ;
#1092 = ORIENTED_EDGE ( 'NONE', *, *, #596, .F. ) ;
#1093 = DIRECTION ( 'NONE',  ( 0.000000000000000000, -1.000000000000000000, 0.000000000000000000 ) ) ;
#1094 = DIRECTION ( 'NONE',  ( 1.000000000000000000, 0.000000000000000000, 0.000000000000000000 ) ) ;
#1095 = CARTESIAN_POINT ( 'NONE',  ( -5.999856172841957935, 38.04154401533718755, 4.000000000000000000 ) ) ;
#1096 = ORIENTED_EDGE ( 'NONE', *, *, #970, .F. ) ;
#1097 = LINE ( 'NONE', #1003, #850 ) ;
#1098 = LINE ( 'NONE', #219, #591 ) ;
#1099 = CARTESIAN_POINT ( 'NONE',  ( -5.204748896376270421E-16, -38.00000000000000000, 4.000000000000000000 ) ) ;
#1100 = ORIENTED_EDGE ( 'NONE', *, *, #769, .F. ) ;
#1101 = DATE_AND_TIME ( #1028, #101 ) ;
#1102 = EDGE_CURVE ( 'NONE', #949, #326, #55, .T. ) ;
#1103 = ORIENTED_EDGE ( 'NONE', *, *, #654, .T. ) ;
#1104 = FACE_OUTER_BOUND ( 'NONE', #1039, .T. ) ;
#1105 = CARTESIAN_POINT ( 'NONE',  ( -1.157291225194249043E-14, 54.00000000000000000, 0.000000000000000000 ) ) ;
#1106 = AXIS2_PLACEMENT_3D ( 'NONE', #521, #1122, #335 ) ;
#1107 = ORIENTED_EDGE ( 'NONE', *, *, #832, .F. ) ;
#1108 = PLANE ( 'NONE',  #632 ) ;
#1109 = VECTOR ( 'NONE', #675, 1000.000000000000000 ) ;
#1110 = ORIENTED_EDGE ( 'NONE', *, *, #28, .F. ) ;
#1111 = ADVANCED_FACE ( 'NONE', ( #758, #684 ), #1108, .T. ) ;
#1112 = LINE ( 'NONE', #324, #1109 ) ;
#1113 = CARTESIAN_POINT ( 'NONE',  ( -6.000000000000019540, -33.99999999999988631, 4.000000000000000000 ) ) ;
#1114 = EDGE_LOOP ( 'NONE', ( #493, #1041 ) ) ;
#1115 = CARTESIAN_POINT ( 'NONE',  ( 5.999999999999991118, 0.000000000000000000, 4.000000000000000000 ) ) ;
#1116 = ORIENTED_EDGE ( 'NONE', *, *, #769, .T. ) ;
#1117 = CARTESIAN_POINT ( 'NONE',  ( -5.997046621874454253, 38.44730406473217244, 4.000000000000000888 ) ) ;
#1118 = VERTEX_POINT ( 'NONE', #679 ) ;
#1119 = EDGE_LOOP ( 'NONE', ( #871, #1067, #1047, #862 ) ) ;
#1120 = LINE ( 'NONE', #1127, #742 ) ;
#1121 = EDGE_CURVE ( 'NONE', #147, #278, #775, .T. ) ;
#1122 = DIRECTION ( 'NONE',  ( -0.7071067811865442421, 0.7071067811865509034, 0.000000000000000000 ) ) ;
#1123 = DIRECTION ( 'NONE',  ( -0.000000000000000000, 0.000000000000000000, 1.000000000000000000 ) ) ;
#1124 = ORIENTED_EDGE ( 'NONE', *, *, #223, .F. ) ;
#1125 = AXIS2_PLACEMENT_3D ( 'NONE', #700, #713, #515 ) ;
#1126 = AXIS2_PLACEMENT_3D ( 'NONE', #406, #558, #917 ) ;
#1127 = CARTESIAN_POINT ( 'NONE',  ( -9.999999999999992895, 0.000000000000000000, 12.65000000000007851 ) ) ;
#1128 = VERTEX_POINT ( 'NONE', #336 ) ;
#1129 = VERTEX_POINT ( 'NONE', #935 ) ;
#1130 = DIRECTION ( 'NONE',  ( 0.7071067811865512365, 0.7071067811865439090, 0.000000000000000000 ) ) ;
#1131 = DIRECTION ( 'NONE',  ( -0.000000000000000000, -0.000000000000000000, -1.000000000000000000 ) ) ;
#1132 = DIRECTION ( 'NONE',  ( -1.000000000000000000, 0.000000000000000000, 0.000000000000000000 ) ) ;
#1133 = ORIENTED_EDGE ( 'NONE', *, *, #308, .T. ) ;
#1134 = LINE ( 'NONE', #783, #157 ) ;
#1135 = ADVANCED_FACE ( 'NONE', ( #574 ), #853, .F. ) ;
#1136 = DIRECTION ( 'NONE',  ( -0.000000000000000000, 0.000000000000000000, -1.000000000000000000 ) ) ;
ENDSEC;
END-ISO-10303-21;
