ISO-10303-21;
HEADER;
FILE_DESCRIPTION (( 'STEP AP203' ),
    '1' );
FILE_NAME ('asml_eslabon_BCv4.STEP',
    '2026-09-14T13:32:39',
    ( '' ),
    ( '' ),
    'SwSTEP 2.0',
    'SolidWorks 2026',
    '' );
FILE_SCHEMA (( 'CONFIG_CONTROL_DESIGN' ));
ENDSEC;

DATA;
#1 = FACE_BOUND ( 'NONE', #922, .T. ) ;
#2 = ORIENTED_EDGE ( 'NONE', *, *, #344, .F. ) ;
#3 = CARTESIAN_POINT ( 'NONE',  ( -6.000000000000021316, 0.000000000000000000, 4.000000000000000000 ) ) ;
#4 = CIRCLE ( 'NONE', #740, 10.00000000000000000 ) ;
#5 = EDGE_CURVE ( 'NONE', #366, #993, #166, .T. ) ;
#6 = LINE ( 'NONE', #159, #1056 ) ;
#7 = CYLINDRICAL_SURFACE ( 'NONE', #745, 2.099999999999999645 ) ;
#8 = ORIENTED_EDGE ( 'NONE', *, *, #47, .T. ) ;
#9 = FACE_OUTER_BOUND ( 'NONE', #787, .T. ) ;
#10 = CIRCLE ( 'NONE', #899, 2.099999999999999645 ) ;
#11 = AXIS2_PLACEMENT_3D ( 'NONE', #853, #16, #762 ) ;
#12 = DIRECTION ( 'NONE',  ( 1.000000000000000000, 0.000000000000000000, 0.000000000000000000 ) ) ;
#13 = LINE ( 'NONE', #764, #389 ) ;
#14 = ORIENTED_EDGE ( 'NONE', *, *, #608, .F. ) ;
#15 = CARTESIAN_POINT ( 'NONE',  ( -1.157291225194249043E-14, -54.00000000000000000, 0.000000000000000000 ) ) ;
#16 = DIRECTION ( 'NONE',  ( -0.000000000000000000, 0.000000000000000000, 1.000000000000000000 ) ) ;
#17 = DIRECTION ( 'NONE',  ( 1.000000000000000000, 0.000000000000000000, -0.000000000000000000 ) ) ;
#18 = EDGE_CURVE ( 'NONE', #804, #29, #590, .T. ) ;
#19 = ORIENTED_EDGE ( 'NONE', *, *, #132, .F. ) ;
#20 = CC_DESIGN_APPROVAL ( #647, ( #211 ) ) ;
#21 = CARTESIAN_POINT ( 'NONE',  ( -2.100000000000011191, 54.00000000000000000, 6.000000000000000000 ) ) ;
#22 = DIRECTION ( 'NONE',  ( 1.000000000000000000, 0.000000000000000000, 0.000000000000000000 ) ) ;
#23 = EDGE_LOOP ( 'NONE', ( #146, #140, #966, #1050 ) ) ;
#24 = EDGE_CURVE ( 'NONE', #213, #550, #72, .T. ) ;
#25 = VECTOR ( 'NONE', #353, 1000.000000000000000 ) ;
#26 = LINE ( 'NONE', #352, #335 ) ;
#27 = APPLICATION_CONTEXT ( 'configuration controlled 3d designs of mechanical parts and assemblies' ) ;
#28 = PLANE ( 'NONE',  #711 ) ;
#29 = VERTEX_POINT ( 'NONE', #594 ) ;
#30 =( LENGTH_UNIT ( ) NAMED_UNIT ( * ) SI_UNIT ( .MILLI., .METRE. ) );
#31 = ADVANCED_FACE ( 'NONE', ( #322 ), #666, .T. ) ;
#32 = DIRECTION ( 'NONE',  ( -0.000000000000000000, 0.000000000000000000, -1.000000000000000000 ) ) ;
#33 = CARTESIAN_POINT ( 'NONE',  ( 9.999999999999987566, -54.00000000000000000, 4.000000000000000000 ) ) ;
#34 = ORIENTED_EDGE ( 'NONE', *, *, #513, .T. ) ;
#35 = PERSON_AND_ORGANIZATION ( #18446744073709551615, #18446744073709551615 ) ;
#36 = ORIENTED_EDGE ( 'NONE', *, *, #975, .F. ) ;
#37 = DIRECTION ( 'NONE',  ( 0.7071067811865462405, -0.7071067811865489050, 0.000000000000000000 ) ) ;
#38 = VECTOR ( 'NONE', #337, 1000.000000000000000 ) ;
#39 = DIRECTION ( 'NONE',  ( 0.000000000000000000, -1.000000000000000000, 0.000000000000000000 ) ) ;
#40 = ORIENTED_EDGE ( 'NONE', *, *, #725, .T. ) ;
#41 = CARTESIAN_POINT ( 'NONE',  ( -9.999999999999992895, -54.00000000000000000, 0.000000000000000000 ) ) ;
#42 = CARTESIAN_POINT ( 'NONE',  ( 10.00000000000000711, 54.00000000000000000, 0.000000000000000000 ) ) ;
#43 = VECTOR ( 'NONE', #304, 1000.000000000000000 ) ;
#44 = LINE ( 'NONE', #463, #780 ) ;
#45 = VECTOR ( 'NONE', #422, 1000.000000000000000 ) ;
#46 = ORIENTED_EDGE ( 'NONE', *, *, #350, .T. ) ;
#47 = EDGE_CURVE ( 'NONE', #29, #699, #839, .T. ) ;
#48 = ORIENTED_EDGE ( 'NONE', *, *, #861, .F. ) ;
#49 = DIRECTION ( 'NONE',  ( 0.000000000000000000, -1.000000000000000000, 0.000000000000000000 ) ) ;
#50 = DIRECTION ( 'NONE',  ( -0.000000000000000000, -0.000000000000000000, -1.000000000000000000 ) ) ;
#51 = ADVANCED_FACE ( 'NONE', ( #920 ), #576, .F. ) ;
#52 = ORIENTED_EDGE ( 'NONE', *, *, #608, .T. ) ;
#53 = APPROVAL_STATUS ( 'not_yet_approved' ) ;
#54 = ORIENTED_EDGE ( 'NONE', *, *, #967, .F. ) ;
#55 = DIRECTION ( 'NONE',  ( 0.000000000000000000, 0.000000000000000000, 1.000000000000000000 ) ) ;
#56 = CARTESIAN_POINT ( 'NONE',  ( -5.204748896376239852E-16, 38.00000000000000000, 4.000000000000000000 ) ) ;
#57 = AXIS2_PLACEMENT_3D ( 'NONE', #467, #295, #802 ) ;
#58 = ORIENTED_EDGE ( 'NONE', *, *, #269, .F. ) ;
#59 = CALENDAR_DATE ( 2026, 14, 9 ) ;
#60 = VERTEX_POINT ( 'NONE', #677 ) ;
#61 = EDGE_CURVE ( 'NONE', #628, #323, #1021, .T. ) ;
#62 = LINE ( 'NONE', #371, #1054 ) ;
#63 = VECTOR ( 'NONE', #327, 1000.000000000000000 ) ;
#64 = VERTEX_POINT ( 'NONE', #996 ) ;
#65 = ORIENTED_EDGE ( 'NONE', *, *, #121, .F. ) ;
#66 = ADVANCED_FACE ( 'NONE', ( #1064 ), #821, .F. ) ;
#67 = CARTESIAN_POINT ( 'NONE',  ( -2.100000000000011191, -54.00000000000000000, 0.000000000000000000 ) ) ;
#68 = DIRECTION ( 'NONE',  ( -0.000000000000000000, 0.000000000000000000, -1.000000000000000000 ) ) ;
#69 = PERSON_AND_ORGANIZATION ( #18446744073709551615, #18446744073709551615 ) ;
#70 = ORIENTED_EDGE ( 'NONE', *, *, #811, .F. ) ;
#71 = CARTESIAN_POINT ( 'NONE',  ( -6.000000000000021316, 38.00000000000000000, 0.000000000000000000 ) ) ;
#72 = LINE ( 'NONE', #925, #63 ) ;
#73 = LOCAL_TIME ( 10, 32, 39.00000000000000000, #454 ) ;
#74 = ORIENTED_EDGE ( 'NONE', *, *, #18, .F. ) ;
#75 = DIRECTION ( 'NONE',  ( -0.000000000000000000, -0.000000000000000000, -1.000000000000000000 ) ) ;
#76 = FACE_OUTER_BOUND ( 'NONE', #1009, .T. ) ;
#77 = FACE_OUTER_BOUND ( 'NONE', #908, .T. ) ;
#78 = EDGE_CURVE ( 'NONE', #80, #142, #830, .T. ) ;
#79 = VECTOR ( 'NONE', #217, 1000.000000000000000 ) ;
#80 = VERTEX_POINT ( 'NONE', #395 ) ;
#81 = CARTESIAN_POINT ( 'NONE',  ( -9.999999999999992895, 54.00000000000000000, 4.000000000000000000 ) ) ;
#82 = DIRECTION ( 'NONE',  ( 0.000000000000000000, -1.000000000000000000, 0.000000000000000000 ) ) ;
#83 = VERTEX_POINT ( 'NONE', #88 ) ;
#84 = ADVANCED_FACE ( 'NONE', ( #573 ), #334, .F. ) ;
#85 = ORIENTED_EDGE ( 'NONE', *, *, #938, .F. ) ;
#86 = CARTESIAN_POINT ( 'NONE',  ( -6.000000000000021316, 4.000000000001718625, 4.000000000000000000 ) ) ;
#87 = CARTESIAN_POINT ( 'NONE',  ( -6.000000000000021316, 0.000000000000000000, 0.000000000000000000 ) ) ;
#88 = CARTESIAN_POINT ( 'NONE',  ( -6.000000000000021316, -7.000000000000169642, 0.000000000000000000 ) ) ;
#89 = ORIENTED_EDGE ( 'NONE', *, *, #178, .F. ) ;
#90 = CYLINDRICAL_SURFACE ( 'NONE', #362, 6.000000000000006217 ) ;
#91 = VECTOR ( 'NONE', #841, 1000.000000000000000 ) ;
#92 = CARTESIAN_POINT ( 'NONE',  ( -1.157291225194249043E-14, 54.00000000000000000, 6.000000000000000000 ) ) ;
#93 = ADVANCED_FACE ( 'NONE', ( #77 ), #7, .F. ) ;
#94 = DIRECTION ( 'NONE',  ( -0.000000000000000000, -0.000000000000000000, -1.000000000000000000 ) ) ;
#95 = EDGE_LOOP ( 'NONE', ( #229, #319, #862, #973 ) ) ;
#96 = DIRECTION ( 'NONE',  ( 0.000000000000000000, 1.000000000000000000, 0.000000000000000000 ) ) ;
#97 = AXIS2_PLACEMENT_3D ( 'NONE', #56, #1058, #715 ) ;
#98 = ADVANCED_FACE ( 'NONE', ( #156 ), #402, .T. ) ;
#99 = DIRECTION ( 'NONE',  ( -0.000000000000000000, -0.000000000000000000, -1.000000000000000000 ) ) ;
#100 = CARTESIAN_POINT ( 'NONE',  ( 5.999999999999991118, -16.00000000000177636, 4.000000000000000000 ) ) ;
#101 = VERTEX_POINT ( 'NONE', #738 ) ;
#102 = MECHANICAL_CONTEXT ( 'NONE', #928, 'mechanical' ) ;
#103 = ORIENTED_EDGE ( 'NONE', *, *, #953, .F. ) ;
#104 = LINE ( 'NONE', #434, #1048 ) ;
#105 = CARTESIAN_POINT ( 'NONE',  ( 5.999999999999991118, 19.00000000000021672, 4.000000000000000000 ) ) ;
#106 = ORIENTED_EDGE ( 'NONE', *, *, #657, .T. ) ;
#107 = DIRECTION ( 'NONE',  ( 1.000000000000000000, 0.000000000000000000, 0.000000000000000000 ) ) ;
#108 = VECTOR ( 'NONE', #923, 1000.000000000000000 ) ;
#109 = DIRECTION ( 'NONE',  ( -0.7071067811865464625, -0.7071067811865486830, 0.000000000000000000 ) ) ;
#110 = CC_DESIGN_APPROVAL ( #428, ( #634 ) ) ;
#111 = LINE ( 'NONE', #440, #25 ) ;
#112 = ADVANCED_FACE ( 'NONE', ( #1, #487, #1068, #171, #747, #1073, #502 ), #1012, .T. ) ;
#113 = VERTEX_POINT ( 'NONE', #33 ) ;
#114 = APPLICATION_PROTOCOL_DEFINITION ( 'international standard', 'config_control_design', 1994, #928 ) ;
#115 = AXIS2_PLACEMENT_3D ( 'NONE', #181, #17, #525 ) ;
#116 = VECTOR ( 'NONE', #524, 1000.000000000000000 ) ;
#117 = DIRECTION ( 'NONE',  ( 0.000000000000000000, -0.000000000000000000, -1.000000000000000000 ) ) ;
#118 = LINE ( 'NONE', #134, #620 ) ;
#119 = ORIENTED_EDGE ( 'NONE', *, *, #446, .T. ) ;
#120 = APPROVAL_STATUS ( 'not_yet_approved' ) ;
#121 = EDGE_CURVE ( 'NONE', #488, #970, #850, .T. ) ;
#122 = CARTESIAN_POINT ( 'NONE',  ( 14.00000000000089706, 14.00000000000084377, 0.000000000000000000 ) ) ;
#123 = PLANE ( 'NONE',  #424 ) ;
#124 = EDGE_LOOP ( 'NONE', ( #941, #739, #650, #557 ) ) ;
#125 = DATE_AND_TIME ( #690, #653 ) ;
#126 = FACE_BOUND ( 'NONE', #207, .T. ) ;
#127 = VECTOR ( 'NONE', #375, 1000.000000000000000 ) ;
#128 = CARTESIAN_POINT ( 'NONE',  ( 10.00000000000000711, 47.94999999999999574, 6.000000000000000000 ) ) ;
#129 = ORIENTED_EDGE ( 'NONE', *, *, #921, .T. ) ;
#130 = VERTEX_POINT ( 'NONE', #1017 ) ;
#131 = CARTESIAN_POINT ( 'NONE',  ( 5.999999999999991118, -22.00000000000178346, 0.000000000000000000 ) ) ;
#132 = EDGE_CURVE ( 'NONE', #977, #876, #1027, .T. ) ;
#133 = AXIS2_PLACEMENT_3D ( 'NONE', #407, #497, #907 ) ;
#134 = CARTESIAN_POINT ( 'NONE',  ( 5.999999999999991118, 16.00000000000177636, 4.000000000000000000 ) ) ;
#135 = ORIENTED_EDGE ( 'NONE', *, *, #283, .F. ) ;
#136 = COORDINATED_UNIVERSAL_TIME_OFFSET ( 3, 0, .BEHIND. ) ;
#137 = ORIENTED_EDGE ( 'NONE', *, *, #78, .T. ) ;
#138 = FACE_BOUND ( 'NONE', #1003, .T. ) ;
#139 = CARTESIAN_POINT ( 'NONE',  ( -1.157291225194249043E-14, -54.00000000000000000, 4.000000000000000000 ) ) ;
#140 = ORIENTED_EDGE ( 'NONE', *, *, #748, .T. ) ;
#141 = APPROVAL_DATE_TIME ( #965, #428 ) ;
#142 = VERTEX_POINT ( 'NONE', #607 ) ;
#143 = DIRECTION ( 'NONE',  ( -0.7071067811865464625, -0.7071067811865486830, 0.000000000000000000 ) ) ;
#144 = CARTESIAN_POINT ( 'NONE',  ( 10.00000000000000711, 0.000000000000000000, 0.000000000000000000 ) ) ;
#145 = VECTOR ( 'NONE', #942, 1000.000000000000000 ) ;
#146 = ORIENTED_EDGE ( 'NONE', *, *, #469, .F. ) ;
#147 = EDGE_CURVE ( 'NONE', #29, #305, #13, .T. ) ;
#148 = ORIENTED_EDGE ( 'NONE', *, *, #842, .T. ) ;
#149 = DIRECTION ( 'NONE',  ( 1.000000000000000000, 0.000000000000000000, 0.000000000000000000 ) ) ;
#150 = VECTOR ( 'NONE', #940, 1000.000000000000000 ) ;
#151 = ORIENTED_EDGE ( 'NONE', *, *, #158, .F. ) ;
#152 = VECTOR ( 'NONE', #686, 1000.000000000000000 ) ;
#153 = PERSON_AND_ORGANIZATION ( #18446744073709551615, #18446744073709551615 ) ;
#154 = ORIENTED_EDGE ( 'NONE', *, *, #388, .F. ) ;
#155 = CARTESIAN_POINT ( 'NONE',  ( 10.00000000000000711, 0.000000000000000000, 4.000000000000000000 ) ) ;
#156 = FACE_OUTER_BOUND ( 'NONE', #377, .T. ) ;
#157 = EDGE_LOOP ( 'NONE', ( #465, #103, #40, #652 ) ) ;
#158 = EDGE_CURVE ( 'NONE', #1024, #1043, #358, .T. ) ;
#159 = CARTESIAN_POINT ( 'NONE',  ( 5.999999999999991118, 0.000000000000000000, 0.000000000000000000 ) ) ;
#160 = CARTESIAN_POINT ( 'NONE',  ( -5.204748896376270421E-16, -38.00000000000000000, 4.000000000000000000 ) ) ;
#161 = LOCAL_TIME ( 10, 32, 39.00000000000000000, #810 ) ;
#162 = ORIENTED_EDGE ( 'NONE', *, *, #842, .F. ) ;
#163 = DIRECTION ( 'NONE',  ( 1.000000000000000000, 0.000000000000000000, -0.000000000000000000 ) ) ;
#164 = DIRECTION ( 'NONE',  ( -0.7071067811865489050, 0.7071067811865462405, 0.000000000000000000 ) ) ;
#165 = CC_DESIGN_PERSON_AND_ORGANIZATION_ASSIGNMENT ( #278, #438, ( #678 ) ) ;
#166 = LINE ( 'NONE', #254, #216 ) ;
#167 = CIRCLE ( 'NONE', #316, 6.000000000000006217 ) ;
#168 = ORIENTED_EDGE ( 'NONE', *, *, #241, .F. ) ;
#169 = CARTESIAN_POINT ( 'NONE',  ( 0.000000000000000000, 47.94999999999999574, 6.000000000000000000 ) ) ;
#170 = DIRECTION ( 'NONE',  ( 1.000000000000000000, 0.000000000000000000, -0.000000000000000000 ) ) ;
#171 = FACE_BOUND ( 'NONE', #656, .T. ) ;
#172 = ORIENTED_EDGE ( 'NONE', *, *, #147, .F. ) ;
#173 = CARTESIAN_POINT ( 'NONE',  ( 5.999999999999991118, 0.000000000000000000, 4.000000000000000000 ) ) ;
#174 = FACE_OUTER_BOUND ( 'NONE', #960, .T. ) ;
#175 = DIRECTION ( 'NONE',  ( 1.000000000000000000, 0.000000000000000000, 0.000000000000000000 ) ) ;
#176 = ORIENTED_EDGE ( 'NONE', *, *, #635, .T. ) ;
#177 = DIRECTION ( 'NONE',  ( -0.000000000000000000, -0.000000000000000000, -1.000000000000000000 ) ) ;
#178 = EDGE_CURVE ( 'NONE', #323, #533, #259, .T. ) ;
#179 = VECTOR ( 'NONE', #832, 1000.000000000000000 ) ;
#180 = DIRECTION ( 'NONE',  ( 0.000000000000000000, 0.000000000000000000, 1.000000000000000000 ) ) ;
#181 = CARTESIAN_POINT ( 'NONE',  ( -6.000000000000021316, 0.000000000000000000, 4.000000000000000000 ) ) ;
#182 = VERTEX_POINT ( 'NONE', #280 ) ;
#183 = CARTESIAN_POINT ( 'NONE',  ( -6.000000000000022204, -31.00000000000338574, 0.000000000000000000 ) ) ;
#184 = AXIS2_PLACEMENT_3D ( 'NONE', #482, #417, #411 ) ;
#185 = DIRECTION ( 'NONE',  ( -0.7071067811865489050, 0.7071067811865462405, 0.000000000000000000 ) ) ;
#186 = CARTESIAN_POINT ( 'NONE',  ( -2.100000000000011191, -54.00000000000000000, 4.000000000000000000 ) ) ;
#187 = ORIENTED_EDGE ( 'NONE', *, *, #905, .T. ) ;
#188 = CC_DESIGN_PERSON_AND_ORGANIZATION_ASSIGNMENT ( #776, #282, ( #274 ) ) ;
#189 = LINE ( 'NONE', #264, #116 ) ;
#190 = EDGE_CURVE ( 'NONE', #356, #220, #768, .T. ) ;
#191 = LINE ( 'NONE', #530, #570 ) ;
#192 = EDGE_LOOP ( 'NONE', ( #65, #599, #781, #52 ) ) ;
#193 = CARTESIAN_POINT ( 'NONE',  ( -6.000000000000021316, 0.000000000000000000, 0.000000000000000000 ) ) ;
#194 = VECTOR ( 'NONE', #750, 1000.000000000000000 ) ;
#195 = CARTESIAN_POINT ( 'NONE',  ( -6.000000000000023093, 34.00000000000184741, 4.000000000000000000 ) ) ;
#196 = DIRECTION ( 'NONE',  ( -0.000000000000000000, -0.000000000000000000, -1.000000000000000000 ) ) ;
#197 = EDGE_CURVE ( 'NONE', #825, #542, #447, .T. ) ;
#198 = ORIENTED_EDGE ( 'NONE', *, *, #716, .T. ) ;
#199 = FACE_OUTER_BOUND ( 'NONE', #894, .T. ) ;
#200 = VECTOR ( 'NONE', #617, 1000.000000000000000 ) ;
#201 = AXIS2_PLACEMENT_3D ( 'NONE', #1072, #170, #648 ) ;
#202 = CARTESIAN_POINT ( 'NONE',  ( -1.157291225194249043E-14, -54.00000000000000000, 4.000000000000000000 ) ) ;
#203 = CARTESIAN_POINT ( 'NONE',  ( 5.999999999999991118, 22.00000000000178346, 4.000000000000000000 ) ) ;
#204 = ORIENTED_EDGE ( 'NONE', *, *, #147, .T. ) ;
#205 = DIRECTION ( 'NONE',  ( -1.000000000000000000, 0.000000000000000000, -0.000000000000000000 ) ) ;
#206 = DIRECTION ( 'NONE',  ( 0.000000000000000000, -1.000000000000000000, 0.000000000000000000 ) ) ;
#207 = EDGE_LOOP ( 'NONE', ( #526, #162, #710 ) ) ;
#208 = ORIENTED_EDGE ( 'NONE', *, *, #563, .T. ) ;
#209 = ADVANCED_FACE ( 'NONE', ( #779 ), #430, .T. ) ;
#210 = FACE_BOUND ( 'NONE', #124, .T. ) ;
#211 = PRODUCT_DEFINITION_FORMATION_WITH_SPECIFIED_SOURCE ( 'Simétric', '', #678, .NOT_KNOWN. ) ;
#212 = DIRECTION ( 'NONE',  ( 1.000000000000000000, 0.000000000000000000, 0.000000000000000000 ) ) ;
#213 = VERTEX_POINT ( 'NONE', #514 ) ;
#214 = ORIENTED_EDGE ( 'NONE', *, *, #774, .T. ) ;
#215 = DIRECTION ( 'NONE',  ( 0.7071067811865462405, 0.7071067811865489050, 0.000000000000000000 ) ) ;
#216 = VECTOR ( 'NONE', #986, 1000.000000000000000 ) ;
#217 = DIRECTION ( 'NONE',  ( -0.000000000000000000, -0.000000000000000000, -1.000000000000000000 ) ) ;
#218 = EDGE_CURVE ( 'NONE', #736, #488, #191, .T. ) ;
#219 = ORIENTED_EDGE ( 'NONE', *, *, #503, .F. ) ;
#220 = VERTEX_POINT ( 'NONE', #100 ) ;
#221 = CYLINDRICAL_SURFACE ( 'NONE', #57, 10.00000000000000000 ) ;
#222 = LINE ( 'NONE', #203, #640 ) ;
#223 = ADVANCED_FACE ( 'NONE', ( #520 ), #28, .T. ) ;
#224 = EDGE_LOOP ( 'NONE', ( #982, #89, #54, #1039 ) ) ;
#225 = ORIENTED_EDGE ( 'NONE', *, *, #905, .F. ) ;
#226 = CARTESIAN_POINT ( 'NONE',  ( 10.00000000000000711, 54.00000000000000000, 4.000000000000000000 ) ) ;
#227 = AXIS2_PLACEMENT_3D ( 'NONE', #3, #1004, #915 ) ;
#228 = EDGE_CURVE ( 'NONE', #542, #769, #10, .T. ) ;
#229 = ORIENTED_EDGE ( 'NONE', *, *, #190, .T. ) ;
#230 = PERSON_AND_ORGANIZATION ( #18446744073709551615, #18446744073709551615 ) ;
#231 = ORIENTED_EDGE ( 'NONE', *, *, #24, .T. ) ;
#232 = CARTESIAN_POINT ( 'NONE',  ( 2.099999999999987654, -54.00000000000000000, 4.000000000000000000 ) ) ;
#233 = VECTOR ( 'NONE', #655, 1000.000000000000000 ) ;
#234 = DIRECTION ( 'NONE',  ( -0.000000000000000000, -0.000000000000000000, -1.000000000000000000 ) ) ;
#235 = VECTOR ( 'NONE', #489, 1000.000000000000000 ) ;
#236 = ORIENTED_EDGE ( 'NONE', *, *, #436, .F. ) ;
#237 = LINE ( 'NONE', #87, #659 ) ;
#238 = CARTESIAN_POINT ( 'NONE',  ( -9.999999999999992895, 0.000000000000000000, 6.000000000000000000 ) ) ;
#239 = VERTEX_POINT ( 'NONE', #105 ) ;
#240 = LINE ( 'NONE', #86, #859 ) ;
#241 = EDGE_CURVE ( 'NONE', #993, #488, #460, .T. ) ;
#242 = FACE_OUTER_BOUND ( 'NONE', #426, .T. ) ;
#243 = DIRECTION ( 'NONE',  ( -0.000000000000000000, -0.000000000000000000, -1.000000000000000000 ) ) ;
#244 = VECTOR ( 'NONE', #510, 1000.000000000000000 ) ;
#245 = ORIENTED_EDGE ( 'NONE', *, *, #774, .F. ) ;
#246 = CARTESIAN_POINT ( 'NONE',  ( -6.000000000000021316, 7.000000000000169642, 0.000000000000000000 ) ) ;
#247 = LINE ( 'NONE', #660, #303 ) ;
#248 = CARTESIAN_POINT ( 'NONE',  ( 0.000000000000000000, 47.94999999999999574, 6.000000000000000000 ) ) ;
#249 = AXIS2_PLACEMENT_3D ( 'NONE', #630, #962, #212 ) ;
#250 = AXIS2_PLACEMENT_3D ( 'NONE', #929, #117, #943 ) ;
#251 = ORIENTED_EDGE ( 'NONE', *, *, #618, .F. ) ;
#252 = DIRECTION ( 'NONE',  ( 1.000000000000000000, 0.000000000000000000, 0.000000000000000000 ) ) ;
#253 = LINE ( 'NONE', #593, #731 ) ;
#254 = CARTESIAN_POINT ( 'NONE',  ( 5.999999999999991118, 38.00000000000000000, 4.000000000000000000 ) ) ;
#255 = ADVANCED_FACE ( 'NONE', ( #864 ), #507, .T. ) ;
#256 = ORIENTED_EDGE ( 'NONE', *, *, #953, .T. ) ;
#257 = DIRECTION ( 'NONE',  ( -0.000000000000000000, -0.000000000000000000, -1.000000000000000000 ) ) ;
#258 = LINE ( 'NONE', #848, #45 ) ;
#259 = LINE ( 'NONE', #598, #150 ) ;
#260 = ORIENTED_EDGE ( 'NONE', *, *, #756, .T. ) ;
#261 = DIRECTION ( 'NONE',  ( 0.000000000000000000, 0.000000000000000000, 1.000000000000000000 ) ) ;
#262 = CIRCLE ( 'NONE', #382, 2.099999999999999645 ) ;
#263 = EDGE_CURVE ( 'NONE', #64, #870, #111, .T. ) ;
#264 = CARTESIAN_POINT ( 'NONE',  ( 14.00000000000089706, -14.00000000000084377, 4.000000000000000000 ) ) ;
#265 = CARTESIAN_POINT ( 'NONE',  ( -1.157291225194249043E-14, -54.00000000000000000, 0.000000000000000000 ) ) ;
#266 = VERTEX_POINT ( 'NONE', #698 ) ;
#267 = PRODUCT_RELATED_PRODUCT_CATEGORY ( 'detail', '', ( #678 ) ) ;
#268 = AXIS2_PLACEMENT_3D ( 'NONE', #844, #1023, #860 ) ;
#269 = EDGE_CURVE ( 'NONE', #130, #870, #276, .T. ) ;
#270 = CARTESIAN_POINT ( 'NONE',  ( -6.000000000000023093, -34.00000000000184741, 4.000000000000000000 ) ) ;
#271 = DIRECTION ( 'NONE',  ( 1.000000000000000000, 0.000000000000000000, 0.000000000000000000 ) ) ;
#272 = ORIENTED_EDGE ( 'NONE', *, *, #450, .F. ) ;
#273 = CARTESIAN_POINT ( 'NONE',  ( 12.50000000000167510, 12.50000000000163425, 4.000000000000000000 ) ) ;
#274 = PRODUCT_DEFINITION ( 'General', '', #211, #393 ) ;
#275 = CARTESIAN_POINT ( 'NONE',  ( -1.157291225194249043E-14, -54.00000000000000000, 0.000000000000000000 ) ) ;
#276 = LINE ( 'NONE', #945, #1069 ) ;
#277 = EDGE_LOOP ( 'NONE', ( #801, #470, #689, #1059 ) ) ;
#278 = PERSON_AND_ORGANIZATION ( #18446744073709551615, #18446744073709551615 ) ;
#279 = CARTESIAN_POINT ( 'NONE',  ( -6.500000000000105693, -6.500000000000084377, 0.000000000000000000 ) ) ;
#280 = CARTESIAN_POINT ( 'NONE',  ( 2.099999999999987654, -54.00000000000000000, 4.000000000000000000 ) ) ;
#281 = ORIENTED_EDGE ( 'NONE', *, *, #1044, .T. ) ;
#282 = PERSON_AND_ORGANIZATION_ROLE ( 'creator' ) ;
#283 = EDGE_CURVE ( 'NONE', #356, #673, #118, .T. ) ;
#284 = VECTOR ( 'NONE', #39, 1000.000000000000000 ) ;
#285 = CIRCLE ( 'NONE', #1005, 2.099999999999999645 ) ;
#286 = CARTESIAN_POINT ( 'NONE',  ( 2.099999999999987654, -54.00000000000000000, 0.000000000000000000 ) ) ;
#287 = DIRECTION ( 'NONE',  ( -0.000000000000000000, -0.000000000000000000, -1.000000000000000000 ) ) ;
#288 = EDGE_CURVE ( 'NONE', #305, #1024, #803, .T. ) ;
#289 = EDGE_LOOP ( 'NONE', ( #1061, #85, #566, #412 ) ) ;
#290 = DIRECTION ( 'NONE',  ( -0.7071067811865464625, 0.7071067811865486830, 0.000000000000000000 ) ) ;
#291 = LINE ( 'NONE', #456, #418 ) ;
#292 = FACE_BOUND ( 'NONE', #705, .T. ) ;
#293 = EDGE_LOOP ( 'NONE', ( #19, #372, #584, #619 ) ) ;
#294 = EDGE_LOOP ( 'NONE', ( #437, #822, #36, #34 ) ) ;
#295 = DIRECTION ( 'NONE',  ( -0.000000000000000000, -0.000000000000000000, -1.000000000000000000 ) ) ;
#296 = AXIS2_PLACEMENT_3D ( 'NONE', #961, #558, #143 ) ;
#297 = DIRECTION ( 'NONE',  ( 1.000000000000000000, 0.000000000000000000, 0.000000000000000000 ) ) ;
#298 = EDGE_LOOP ( 'NONE', ( #492, #882, #1049, #306 ) ) ;
#299 = EDGE_LOOP ( 'NONE', ( #168, #577, #380, #701 ) ) ;
#300 = EDGE_CURVE ( 'NONE', #1013, #448, #222, .T. ) ;
#301 = DIRECTION ( 'NONE',  ( 0.000000000000000000, 0.000000000000000000, 1.000000000000000000 ) ) ;
#302 = VECTOR ( 'NONE', #1062, 1000.000000000000000 ) ;
#303 = VECTOR ( 'NONE', #741, 1000.000000000000000 ) ;
#304 = DIRECTION ( 'NONE',  ( -0.000000000000000000, -0.000000000000000000, -1.000000000000000000 ) ) ;
#305 = VERTEX_POINT ( 'NONE', #624 ) ;
#306 = ORIENTED_EDGE ( 'NONE', *, *, #121, .T. ) ;
#307 = EDGE_CURVE ( 'NONE', #1035, #533, #167, .T. ) ;
#308 = CARTESIAN_POINT ( 'NONE',  ( -6.000000000000022204, -31.00000000000338574, 4.000000000000000000 ) ) ;
#309 = ORIENTED_EDGE ( 'NONE', *, *, #756, .F. ) ;
#310 = SHAPE_DEFINITION_REPRESENTATION ( #641, #495 ) ;
#311 = ORIENTED_EDGE ( 'NONE', *, *, #563, .F. ) ;
#312 = DIRECTION ( 'NONE',  ( -0.000000000000000000, 0.000000000000000000, -1.000000000000000000 ) ) ;
#313 = CARTESIAN_POINT ( 'NONE',  ( 0.000000000000000000, 0.000000000000000000, 4.000000000000000000 ) ) ;
#314 = VERTEX_POINT ( 'NONE', #791 ) ;
#315 = LINE ( 'NONE', #155, #917 ) ;
#316 = AXIS2_PLACEMENT_3D ( 'NONE', #733, #559, #886 ) ;
#317 = DIRECTION ( 'NONE',  ( -0.000000000000000000, 0.000000000000000000, 1.000000000000000000 ) ) ;
#318 = EDGE_CURVE ( 'NONE', #366, #736, #515, .T. ) ;
#319 = ORIENTED_EDGE ( 'NONE', *, *, #601, .F. ) ;
#320 = CARTESIAN_POINT ( 'NONE',  ( -6.500000000000105693, 6.500000000000084377, 4.000000000000000000 ) ) ;
#321 = PLANE ( 'NONE',  #1038 ) ;
#322 = FACE_OUTER_BOUND ( 'NONE', #471, .T. ) ;
#323 = VERTEX_POINT ( 'NONE', #365 ) ;
#324 = CARTESIAN_POINT ( 'NONE',  ( -6.000000000000021316, 0.000000000000000000, 4.000000000000000000 ) ) ;
#325 = DIRECTION ( 'NONE',  ( 0.000000000000000000, -0.000000000000000000, -1.000000000000000000 ) ) ;
#326 = EDGE_CURVE ( 'NONE', #812, #1057, #891, .T. ) ;
#327 = DIRECTION ( 'NONE',  ( 0.000000000000000000, -1.000000000000000000, 0.000000000000000000 ) ) ;
#328 = VECTOR ( 'NONE', #852, 1000.000000000000000 ) ;
#329 = EDGE_LOOP ( 'NONE', ( #1070, #260, #667, #958 ) ) ;
#330 = PLANE ( 'NONE',  #827 ) ;
#331 = CC_DESIGN_DATE_AND_TIME_ASSIGNMENT ( #386, #567, ( #634 ) ) ;
#332 = EDGE_CURVE ( 'NONE', #550, #977, #869, .T. ) ;
#333 = CARTESIAN_POINT ( 'NONE',  ( 10.00000000000000711, 47.94999999999999574, 6.000000000000000000 ) ) ;
#334 = CYLINDRICAL_SURFACE ( 'NONE', #184, 2.099999999999999645 ) ;
#335 = VECTOR ( 'NONE', #939, 1000.000000000000000 ) ;
#336 = ORIENTED_EDGE ( 'NONE', *, *, #948, .T. ) ;
#337 = DIRECTION ( 'NONE',  ( 0.000000000000000000, -1.000000000000000000, 0.000000000000000000 ) ) ;
#338 = DIRECTION ( 'NONE',  ( -0.000000000000000000, -0.000000000000000000, -1.000000000000000000 ) ) ;
#339 = CARTESIAN_POINT ( 'NONE',  ( 12.50000000000167510, -12.50000000000163425, 0.000000000000000000 ) ) ;
#340 = ORIENTED_EDGE ( 'NONE', *, *, #503, .T. ) ;
#341 = DIRECTION ( 'NONE',  ( 1.000000000000000000, 0.000000000000000000, -0.000000000000000000 ) ) ;
#342 = LINE ( 'NONE', #529, #152 ) ;
#343 = CARTESIAN_POINT ( 'NONE',  ( 14.00000000000089706, 14.00000000000084377, 4.000000000000000000 ) ) ;
#344 = EDGE_CURVE ( 'NONE', #538, #765, #376, .T. ) ;
#345 = ORIENTED_EDGE ( 'NONE', *, *, #178, .T. ) ;
#346 = LINE ( 'NONE', #691, #687 ) ;
#347 = DIRECTION ( 'NONE',  ( 0.7071067811865464625, 0.7071067811865486830, 0.000000000000000000 ) ) ;
#348 = ORIENTED_EDGE ( 'NONE', *, *, #300, .F. ) ;
#349 = DIRECTION ( 'NONE',  ( 0.000000000000000000, -1.000000000000000000, 0.000000000000000000 ) ) ;
#350 = EDGE_CURVE ( 'NONE', #213, #980, #62, .T. ) ;
#351 = VECTOR ( 'NONE', #682, 1000.000000000000000 ) ;
#352 = CARTESIAN_POINT ( 'NONE',  ( -9.999999999999992895, 0.000000000000000000, 0.000000000000000000 ) ) ;
#353 = DIRECTION ( 'NONE',  ( 0.000000000000000000, -1.000000000000000000, 0.000000000000000000 ) ) ;
#354 = ORIENTED_EDGE ( 'NONE', *, *, #518, .F. ) ;
#355 = CARTESIAN_POINT ( 'NONE',  ( -5.000000000000881073, -5.000000000000861533, 4.000000000000000000 ) ) ;
#356 = VERTEX_POINT ( 'NONE', #874 ) ;
#357 = CARTESIAN_POINT ( 'NONE',  ( 10.00000000000000711, 47.94999999999999574, 4.000000000000000000 ) ) ;
#358 = LINE ( 'NONE', #612, #351 ) ;
#359 = ORIENTED_EDGE ( 'NONE', *, *, #975, .T. ) ;
#360 = LINE ( 'NONE', #782, #145 ) ;
#361 = EDGE_LOOP ( 'NONE', ( #403, #1074, #236, #574 ) ) ;
#362 = AXIS2_PLACEMENT_3D ( 'NONE', #585, #177, #500 ) ;
#363 = LINE ( 'NONE', #1052, #895 ) ;
#364 = ADVANCED_FACE ( 'NONE', ( #951 ), #123, .F. ) ;
#365 = CARTESIAN_POINT ( 'NONE',  ( 5.999999999999991118, -38.00000000000000000, 4.000000000000000000 ) ) ;
#366 = VERTEX_POINT ( 'NONE', #1053 ) ;
#367 = DIRECTION ( 'NONE',  ( -0.7071067811865462405, 0.7071067811865489050, 0.000000000000000000 ) ) ;
#368 = AXIS2_PLACEMENT_3D ( 'NONE', #603, #931, #22 ) ;
#369 = CIRCLE ( 'NONE', #990, 2.099999999999999645 ) ;
#370 = CARTESIAN_POINT ( 'NONE',  ( -5.000000000000881073, -5.000000000000861533, 0.000000000000000000 ) ) ;
#371 = CARTESIAN_POINT ( 'NONE',  ( -6.500000000000105693, -6.500000000000084377, 4.000000000000000000 ) ) ;
#372 = ORIENTED_EDGE ( 'NONE', *, *, #332, .F. ) ;
#373 = PERSON_AND_ORGANIZATION_ROLE ( 'design_supplier' ) ;
#374 = ORIENTED_EDGE ( 'NONE', *, *, #796, .T. ) ;
#375 = DIRECTION ( 'NONE',  ( 0.000000000000000000, -1.000000000000000000, 0.000000000000000000 ) ) ;
#376 = LINE ( 'NONE', #814, #406 ) ;
#377 = EDGE_LOOP ( 'NONE', ( #775, #824, #214, #914 ) ) ;
#378 = CALENDAR_DATE ( 2026, 14, 9 ) ;
#379 = ADVANCED_FACE ( 'NONE', ( #1037 ), #1042, .F. ) ;
#380 = ORIENTED_EDGE ( 'NONE', *, *, #318, .T. ) ;
#381 = FACE_BOUND ( 'NONE', #433, .T. ) ;
#382 = AXIS2_PLACEMENT_3D ( 'NONE', #202, #55, #461 ) ;
#383 = CC_DESIGN_SECURITY_CLASSIFICATION ( #634, ( #211 ) ) ;
#384 = LINE ( 'NONE', #575, #693 ) ;
#385 = EDGE_LOOP ( 'NONE', ( #743, #172, #74, #387, #912, #151 ) ) ;
#386 = DATE_AND_TIME ( #378, #161 ) ;
#387 = ORIENTED_EDGE ( 'NONE', *, *, #984, .T. ) ;
#388 = EDGE_CURVE ( 'NONE', #1028, #628, #44, .T. ) ;
#389 = VECTOR ( 'NONE', #94, 1000.000000000000000 ) ;
#390 = DIRECTION ( 'NONE',  ( 0.7071067811865464625, -0.7071067811865486830, 0.000000000000000000 ) ) ;
#391 = EDGE_LOOP ( 'NONE', ( #964, #806 ) ) ;
#392 = ORIENTED_EDGE ( 'NONE', *, *, #263, .T. ) ;
#393 = DESIGN_CONTEXT ( 'detailed design', #27, 'design' ) ;
#394 = CARTESIAN_POINT ( 'NONE',  ( -6.000000000000022204, -31.00000000000338574, 4.000000000000000000 ) ) ;
#395 = CARTESIAN_POINT ( 'NONE',  ( 2.099999999999987654, 54.00000000000000000, 6.000000000000000000 ) ) ;
#396 = DATE_AND_TIME ( #59, #490 ) ;
#397 = ORIENTED_EDGE ( 'NONE', *, *, #664, .T. ) ;
#398 = CARTESIAN_POINT ( 'NONE',  ( -1.157291225194249043E-14, 54.00000000000000000, 4.000000000000000000 ) ) ;
#399 = AXIS2_PLACEMENT_3D ( 'NONE', #273, #866, #290 ) ;
#400 = EDGE_CURVE ( 'NONE', #699, #836, #541, .T. ) ;
#401 = AXIS2_PLACEMENT_3D ( 'NONE', #934, #185, #519 ) ;
#402 = PLANE ( 'NONE',  #478 ) ;
#403 = ORIENTED_EDGE ( 'NONE', *, *, #938, .T. ) ;
#404 = LINE ( 'NONE', #754, #194 ) ;
#405 = CARTESIAN_POINT ( 'NONE',  ( -2.100000000000011191, 54.00000000000000000, 6.000000000000000000 ) ) ;
#406 = VECTOR ( 'NONE', #537, 1000.000000000000000 ) ;
#407 = CARTESIAN_POINT ( 'NONE',  ( -6.500000000000105693, -6.500000000000084377, 4.000000000000000000 ) ) ;
#408 = ORIENTED_EDGE ( 'NONE', *, *, #24, .F. ) ;
#409 = CARTESIAN_POINT ( 'NONE',  ( 12.50000000000167510, -12.50000000000163425, 4.000000000000000000 ) ) ;
#410 = CARTESIAN_POINT ( 'NONE',  ( 5.999999999999991118, 19.00000000000021672, 4.000000000000000000 ) ) ;
#411 = DIRECTION ( 'NONE',  ( -1.000000000000000000, 0.000000000000000000, 0.000000000000000000 ) ) ;
#412 = ORIENTED_EDGE ( 'NONE', *, *, #683, .F. ) ;
#413 = DIRECTION ( 'NONE',  ( 1.000000000000000000, 0.000000000000000000, 0.000000000000000000 ) ) ;
#414 = ADVANCED_FACE ( 'NONE', ( #292, #457 ), #1047, .T. ) ;
#415 = UNCERTAINTY_MEASURE_WITH_UNIT (LENGTH_MEASURE( 1.000000000000000082E-05 ), #30, 'distance_accuracy_value', 'NONE');
#416 = DIRECTION ( 'NONE',  ( -0.000000000000000000, -0.000000000000000000, -1.000000000000000000 ) ) ;
#417 = DIRECTION ( 'NONE',  ( -0.000000000000000000, -0.000000000000000000, -1.000000000000000000 ) ) ;
#418 = VECTOR ( 'NONE', #215, 1000.000000000000000 ) ;
#419 = ORIENTED_EDGE ( 'NONE', *, *, #469, .T. ) ;
#420 = FACE_OUTER_BOUND ( 'NONE', #277, .T. ) ;
#421 = EDGE_CURVE ( 'NONE', #628, #1035, #548, .T. ) ;
#422 = DIRECTION ( 'NONE',  ( 0.000000000000000000, -1.000000000000000000, 0.000000000000000000 ) ) ;
#423 = DIRECTION ( 'NONE',  ( -0.000000000000000000, -0.000000000000000000, -1.000000000000000000 ) ) ;
#424 = AXIS2_PLACEMENT_3D ( 'NONE', #709, #957, #554 ) ;
#425 = VECTOR ( 'NONE', #924, 1000.000000000000000 ) ;
#426 = EDGE_LOOP ( 'NONE', ( #374, #135, #561, #256 ) ) ;
#427 = DIRECTION ( 'NONE',  ( 0.000000000000000000, -0.000000000000000000, 1.000000000000000000 ) ) ;
#428 = APPROVAL ( #53, 'Coincidente' ) ;
#429 = FACE_OUTER_BOUND ( 'NONE', #293, .T. ) ;
#430 = PLANE ( 'NONE',  #115 ) ;
#431 = ORIENTED_EDGE ( 'NONE', *, *, #579, .F. ) ;
#432 = APPLICATION_PROTOCOL_DEFINITION ( 'international standard', 'config_control_design', 1994, #27 ) ;
#433 = EDGE_LOOP ( 'NONE', ( #831, #70, #459, #845 ) ) ;
#434 = CARTESIAN_POINT ( 'NONE',  ( -6.000000000000022204, 31.00000000000338574, 4.000000000000000000 ) ) ;
#435 = DIRECTION ( 'NONE',  ( 0.000000000000000000, -1.000000000000000000, 0.000000000000000000 ) ) ;
#436 = EDGE_CURVE ( 'NONE', #1024, #113, #883, .T. ) ;
#437 = ORIENTED_EDGE ( 'NONE', *, *, #683, .T. ) ;
#438 = PERSON_AND_ORGANIZATION_ROLE ( 'design_owner' ) ;
#439 = LINE ( 'NONE', #1006, #819 ) ;
#440 = CARTESIAN_POINT ( 'NONE',  ( -6.000000000000021316, 0.000000000000000000, 0.000000000000000000 ) ) ;
#441 = ORIENTED_EDGE ( 'NONE', *, *, #513, .F. ) ;
#442 = VECTOR ( 'NONE', #823, 1000.000000000000000 ) ;
#443 = PLANE ( 'NONE',  #813 ) ;
#444 = VECTOR ( 'NONE', #1022, 1000.000000000000000 ) ;
#445 = LINE ( 'NONE', #785, #425 ) ;
#446 = EDGE_CURVE ( 'NONE', #113, #1057, #637, .T. ) ;
#447 = LINE ( 'NONE', #186, #675 ) ;
#448 = VERTEX_POINT ( 'NONE', #808 ) ;
#449 = CARTESIAN_POINT ( 'NONE',  ( 12.50000000000167510, 12.50000000000163425, 4.000000000000000000 ) ) ;
#450 = EDGE_CURVE ( 'NONE', #213, #83, #384, .T. ) ;
#451 = DIRECTION ( 'NONE',  ( 0.7071067811865462405, -0.7071067811865489050, 0.000000000000000000 ) ) ;
#452 = CARTESIAN_POINT ( 'NONE',  ( -9.999999999999992895, 0.000000000000000000, 4.000000000000000000 ) ) ;
#453 = ORIENTED_EDGE ( 'NONE', *, *, #1030, .F. ) ;
#454 = COORDINATED_UNIVERSAL_TIME_OFFSET ( 3, 0, .BEHIND. ) ;
#455 = AXIS2_PLACEMENT_3D ( 'NONE', #92, #338, #512 ) ;
#456 = CARTESIAN_POINT ( 'NONE',  ( -5.000000000000881073, 5.000000000000861533, 0.000000000000000000 ) ) ;
#457 = FACE_OUTER_BOUND ( 'NONE', #613, .T. ) ;
#458 = EDGE_LOOP ( 'NONE', ( #722, #58, #187, #340 ) ) ;
#459 = ORIENTED_EDGE ( 'NONE', *, *, #796, .F. ) ;
#460 = CIRCLE ( 'NONE', #496, 6.000000000000006217 ) ;
#461 = DIRECTION ( 'NONE',  ( 1.000000000000000000, 0.000000000000000000, 0.000000000000000000 ) ) ;
#462 = CC_DESIGN_PERSON_AND_ORGANIZATION_ASSIGNMENT ( #153, #651, ( #211 ) ) ;
#463 = CARTESIAN_POINT ( 'NONE',  ( -6.000000000000021316, 0.000000000000000000, 4.000000000000000000 ) ) ;
#464 = EDGE_CURVE ( 'NONE', #980, #876, #247, .T. ) ;
#465 = ORIENTED_EDGE ( 'NONE', *, *, #1000, .F. ) ;
#466 = VERTEX_POINT ( 'NONE', #979 ) ;
#467 = CARTESIAN_POINT ( 'NONE',  ( -1.157291225194249043E-14, -54.00000000000000000, 4.000000000000000000 ) ) ;
#468 = DIRECTION ( 'NONE',  ( 0.000000000000000000, 0.000000000000000000, 1.000000000000000000 ) ) ;
#469 = EDGE_CURVE ( 'NONE', #182, #769, #838, .T. ) ;
#470 = ORIENTED_EDGE ( 'NONE', *, *, #664, .F. ) ;
#471 = EDGE_LOOP ( 'NONE', ( #477, #1065 ) ) ;
#472 = CARTESIAN_POINT ( 'NONE',  ( 5.999999999999991118, 0.000000000000000000, 0.000000000000000000 ) ) ;
#473 = AXIS2_PLACEMENT_3D ( 'NONE', #890, #974, #1036 ) ;
#474 = DIRECTION ( 'NONE',  ( -0.000000000000000000, -0.000000000000000000, -1.000000000000000000 ) ) ;
#475 = ORIENTED_EDGE ( 'NONE', *, *, #18, .T. ) ;
#476 = APPROVAL_ROLE ( '' ) ;
#477 = ORIENTED_EDGE ( 'NONE', *, *, #568, .F. ) ;
#478 = AXIS2_PLACEMENT_3D ( 'NONE', #752, #1002, #68 ) ;
#479 = VECTOR ( 'NONE', #99, 1000.000000000000000 ) ;
#480 = LINE ( 'NONE', #902, #302 ) ;
#481 = EDGE_CURVE ( 'NONE', #60, #356, #480, .T. ) ;
#482 = CARTESIAN_POINT ( 'NONE',  ( -1.157291225194249043E-14, 54.00000000000000000, 6.000000000000000000 ) ) ;
#483 = PERSON_AND_ORGANIZATION ( #18446744073709551615, #18446744073709551615 ) ;
#484 = VERTEX_POINT ( 'NONE', #820 ) ;
#485 = EDGE_CURVE ( 'NONE', #836, #113, #315, .T. ) ;
#486 = DIRECTION ( 'NONE',  ( -1.000000000000000000, 0.000000000000000000, 0.000000000000000000 ) ) ;
#487 = FACE_BOUND ( 'NONE', #605, .T. ) ;
#488 = VERTEX_POINT ( 'NONE', #71 ) ;
#489 = DIRECTION ( 'NONE',  ( -0.000000000000000000, -0.000000000000000000, -1.000000000000000000 ) ) ;
#490 = LOCAL_TIME ( 10, 32, 39.00000000000000000, #1060 ) ;
#491 = DIRECTION ( 'NONE',  ( -1.000000000000000000, 0.000000000000000000, 0.000000000000000000 ) ) ;
#492 = ORIENTED_EDGE ( 'NONE', *, *, #854, .T. ) ;
#493 = LINE ( 'NONE', #578, #38 ) ;
#494 = DIRECTION ( 'NONE',  ( 1.000000000000000000, 0.000000000000000000, 0.000000000000000000 ) ) ;
#495 = ADVANCED_BREP_SHAPE_REPRESENTATION ( 'asml_eslabon_BCv4', ( #784, #878 ), #930 ) ;
#496 = AXIS2_PLACEMENT_3D ( 'NONE', #692, #1032, #175 ) ;
#497 = DIRECTION ( 'NONE',  ( 0.7071067811865486830, 0.7071067811865464625, -0.000000000000000000 ) ) ;
#498 = ADVANCED_FACE ( 'NONE', ( #911 ), #1077, .T. ) ;
#499 = EDGE_LOOP ( 'NONE', ( #936, #272, #231, #509 ) ) ;
#500 = DIRECTION ( 'NONE',  ( -1.000000000000000000, 0.000000000000000000, 0.000000000000000000 ) ) ;
#501 = LINE ( 'NONE', #226, #235 ) ;
#502 = FACE_OUTER_BOUND ( 'NONE', #329, .T. ) ;
#503 = EDGE_CURVE ( 'NONE', #239, #504, #755, .T. ) ;
#504 = VERTEX_POINT ( 'NONE', #1067 ) ;
#505 = PLANE ( 'NONE',  #227 ) ;
#506 = CYLINDRICAL_SURFACE ( 'NONE', #455, 2.099999999999999645 ) ;
#507 = PLANE ( 'NONE',  #268 ) ;
#508 = VECTOR ( 'NONE', #37, 1000.000000000000000 ) ;
#509 = ORIENTED_EDGE ( 'NONE', *, *, #332, .T. ) ;
#510 = DIRECTION ( 'NONE',  ( -0.000000000000000000, -0.000000000000000000, -1.000000000000000000 ) ) ;
#511 = CC_DESIGN_PERSON_AND_ORGANIZATION_ASSIGNMENT ( #632, #972, ( #634 ) ) ;
#512 = DIRECTION ( 'NONE',  ( -1.000000000000000000, 0.000000000000000000, 0.000000000000000000 ) ) ;
#513 = EDGE_CURVE ( 'NONE', #484, #812, #501, .T. ) ;
#514 = CARTESIAN_POINT ( 'NONE',  ( -6.000000000000021316, -7.000000000000169642, 4.000000000000000000 ) ) ;
#515 = CIRCLE ( 'NONE', #97, 6.000000000000006217 ) ;
#516 = CIRCLE ( 'NONE', #589, 2.099999999999999645 ) ;
#517 = ORIENTED_EDGE ( 'NONE', *, *, #228, .F. ) ;
#518 = EDGE_CURVE ( 'NONE', #718, #734, #572, .T. ) ;
#519 = DIRECTION ( 'NONE',  ( -0.7071067811865462405, -0.7071067811865489050, 0.000000000000000000 ) ) ;
#520 = FACE_OUTER_BOUND ( 'NONE', #595, .T. ) ;
#521 = ORIENTED_EDGE ( 'NONE', *, *, #464, .F. ) ;
#522 = APPROVAL_DATE_TIME ( #125, #1051 ) ;
#523 = ORIENTED_EDGE ( 'NONE', *, *, #350, .F. ) ;
#524 = DIRECTION ( 'NONE',  ( 0.7071067811865462405, 0.7071067811865489050, 0.000000000000000000 ) ) ;
#525 = DIRECTION ( 'NONE',  ( -0.000000000000000000, 0.000000000000000000, -1.000000000000000000 ) ) ;
#526 = ORIENTED_EDGE ( 'NONE', *, *, #132, .T. ) ;
#527 =( NAMED_UNIT ( * ) PLANE_ANGLE_UNIT ( ) SI_UNIT ( $, .RADIAN. ) );
#528 = AXIS2_PLACEMENT_3D ( 'NONE', #719, #642, #32 ) ;
#529 = CARTESIAN_POINT ( 'NONE',  ( -6.500000000000105693, 6.500000000000084377, 0.000000000000000000 ) ) ;
#530 = CARTESIAN_POINT ( 'NONE',  ( -6.000000000000021316, 38.00000000000000000, 4.000000000000000000 ) ) ;
#531 = CC_DESIGN_DATE_AND_TIME_ASSIGNMENT ( #543, #898, ( #274 ) ) ;
#532 = EDGE_CURVE ( 'NONE', #758, #1035, #237, .T. ) ;
#533 = VERTEX_POINT ( 'NONE', #670 ) ;
#534 = CARTESIAN_POINT ( 'NONE',  ( -9.999999999999992895, -54.00000000000000000, 4.000000000000000000 ) ) ;
#535 = AXIS2_PLACEMENT_3D ( 'NONE', #398, #834, #486 ) ;
#536 = LINE ( 'NONE', #370, #615 ) ;
#537 = DIRECTION ( 'NONE',  ( -0.000000000000000000, -0.000000000000000000, -1.000000000000000000 ) ) ;
#538 = VERTEX_POINT ( 'NONE', #828 ) ;
#539 = CARTESIAN_POINT ( 'NONE',  ( 12.50000000000167510, 12.50000000000163425, 0.000000000000000000 ) ) ;
#540 = CARTESIAN_POINT ( 'NONE',  ( -1.157291225194249043E-14, -54.00000000000000000, 4.000000000000000000 ) ) ;
#541 = LINE ( 'NONE', #128, #43 ) ;
#542 = VERTEX_POINT ( 'NONE', #67 ) ;
#543 = DATE_AND_TIME ( #793, #73 ) ;
#544 = VERTEX_POINT ( 'NONE', #906 ) ;
#545 = CC_DESIGN_APPROVAL ( #1051, ( #274 ) ) ;
#546 = EDGE_CURVE ( 'NONE', #765, #533, #6, .T. ) ;
#547 = FACE_OUTER_BOUND ( 'NONE', #361, .T. ) ;
#548 = LINE ( 'NONE', #643, #604 ) ;
#549 = ORIENTED_EDGE ( 'NONE', *, *, #811, .T. ) ;
#550 = VERTEX_POINT ( 'NONE', #394 ) ;
#551 = AXIS2_PLACEMENT_3D ( 'NONE', #881, #468, #297 ) ;
#552 = PLANE ( 'NONE',  #528 ) ;
#553 = ADVANCED_FACE ( 'NONE', ( #76 ), #746, .F. ) ;
#554 = DIRECTION ( 'NONE',  ( -0.000000000000000000, 0.000000000000000000, -1.000000000000000000 ) ) ;
#555 = ORIENTED_EDGE ( 'NONE', *, *, #921, .F. ) ;
#556 = ADVANCED_FACE ( 'NONE', ( #1001 ), #321, .T. ) ;
#557 = ORIENTED_EDGE ( 'NONE', *, *, #307, .T. ) ;
#558 = DIRECTION ( 'NONE',  ( -0.7071067811865486830, 0.7071067811865464625, 0.000000000000000000 ) ) ;
#559 = DIRECTION ( 'NONE',  ( -0.000000000000000000, 0.000000000000000000, 1.000000000000000000 ) ) ;
#560 = ORIENTED_EDGE ( 'NONE', *, *, #611, .T. ) ;
#561 = ORIENTED_EDGE ( 'NONE', *, *, #481, .F. ) ;
#562 = ADVANCED_FACE ( 'NONE', ( #242 ), #737, .F. ) ;
#563 = EDGE_CURVE ( 'NONE', #80, #718, #369, .T. ) ;
#564 = CIRCLE ( 'NONE', #999, 2.099999999999999645 ) ;
#565 = DIRECTION ( 'NONE',  ( -0.7071067811865462405, -0.7071067811865489050, 0.000000000000000000 ) ) ;
#566 = ORIENTED_EDGE ( 'NONE', *, *, #644, .F. ) ;
#567 = DATE_TIME_ROLE ( 'classification_date' ) ;
#568 = EDGE_CURVE ( 'NONE', #734, #142, #516, .T. ) ;
#569 = EDGE_LOOP ( 'NONE', ( #176, #2, #251, #397 ) ) ;
#570 = VECTOR ( 'NONE', #704, 1000.000000000000000 ) ;
#571 = VECTOR ( 'NONE', #991, 1000.000000000000000 ) ;
#572 = LINE ( 'NONE', #405, #571 ) ;
#573 = FACE_OUTER_BOUND ( 'NONE', #721, .T. ) ;
#574 = ORIENTED_EDGE ( 'NONE', *, *, #158, .T. ) ;
#575 = CARTESIAN_POINT ( 'NONE',  ( -6.000000000000021316, -7.000000000000169642, 4.000000000000000000 ) ) ;
#576 = PLANE ( 'NONE',  #133 ) ;
#577 = ORIENTED_EDGE ( 'NONE', *, *, #5, .F. ) ;
#578 = CARTESIAN_POINT ( 'NONE',  ( 5.999999999999991118, 0.000000000000000000, 4.000000000000000000 ) ) ;
#579 = EDGE_CURVE ( 'NONE', #736, #266, #258, .T. ) ;
#580 = CARTESIAN_POINT ( 'NONE',  ( -5.000000000000881073, 5.000000000000861533, 4.000000000000000000 ) ) ;
#581 = AXIS2_PLACEMENT_3D ( 'NONE', #15, #261, #252 ) ;
#582 = LOCAL_TIME ( 10, 32, 39.00000000000000000, #136 ) ;
#583 = DIRECTION ( 'NONE',  ( -0.000000000000000000, -0.000000000000000000, -1.000000000000000000 ) ) ;
#584 = ORIENTED_EDGE ( 'NONE', *, *, #861, .T. ) ;
#585 = CARTESIAN_POINT ( 'NONE',  ( -5.204748896376239852E-16, 38.00000000000000000, 4.000000000000000000 ) ) ;
#586 = AXIS2_PLACEMENT_3D ( 'NONE', #313, #317, #903 ) ;
#587 = DIRECTION ( 'NONE',  ( 0.000000000000000000, -1.000000000000000000, 0.000000000000000000 ) ) ;
#588 = ADVANCED_FACE ( 'NONE', ( #429 ), #767, .T. ) ;
#589 = AXIS2_PLACEMENT_3D ( 'NONE', #919, #325, #494 ) ;
#590 = LINE ( 'NONE', #238, #816 ) ;
#591 = ORIENTED_EDGE ( 'NONE', *, *, #61, .F. ) ;
#592 = CARTESIAN_POINT ( 'NONE',  ( 5.999999999999991118, -19.00000000000333245, 0.000000000000000000 ) ) ;
#593 = CARTESIAN_POINT ( 'NONE',  ( 14.00000000000089706, -14.00000000000084377, 0.000000000000000000 ) ) ;
#594 = CARTESIAN_POINT ( 'NONE',  ( -9.999999999999992895, 47.94999999999999574, 6.000000000000000000 ) ) ;
#595 = EDGE_LOOP ( 'NONE', ( #900, #14, #694, #730 ) ) ;
#596 = CARTESIAN_POINT ( 'NONE',  ( 5.999999999999991118, 0.000000000000000000, 4.000000000000000000 ) ) ;
#597 = PLANE ( 'NONE',  #401 ) ;
#598 = CARTESIAN_POINT ( 'NONE',  ( 5.999999999999991118, -38.00000000000000000, 4.000000000000000000 ) ) ;
#599 = ORIENTED_EDGE ( 'NONE', *, *, #218, .F. ) ;
#600 = CARTESIAN_POINT ( 'NONE',  ( -1.157291225194249043E-14, 54.00000000000000000, 6.000000000000000000 ) ) ;
#601 = EDGE_CURVE ( 'NONE', #101, #220, #439, .T. ) ;
#602 = CARTESIAN_POINT ( 'NONE',  ( -6.000000000000021316, -4.000000000001718625, 0.000000000000000000 ) ) ;
#603 = CARTESIAN_POINT ( 'NONE',  ( 0.000000000000000000, 0.000000000000000000, 4.000000000000000000 ) ) ;
#604 = VECTOR ( 'NONE', #720, 1000.000000000000000 ) ;
#605 = EDGE_LOOP ( 'NONE', ( #281, #225, #245 ) ) ;
#606 = LINE ( 'NONE', #195, #444 ) ;
#607 = CARTESIAN_POINT ( 'NONE',  ( 2.099999999999987654, 54.00000000000000000, 4.000000000000000000 ) ) ;
#608 = EDGE_CURVE ( 'NONE', #266, #970, #606, .T. ) ;
#609 = ORIENTED_EDGE ( 'NONE', *, *, #421, .F. ) ;
#610 = CARTESIAN_POINT ( 'NONE',  ( -1.157291225194249043E-14, 54.00000000000000000, 0.000000000000000000 ) ) ;
#611 = EDGE_CURVE ( 'NONE', #718, #80, #952, .T. ) ;
#612 = CARTESIAN_POINT ( 'NONE',  ( -9.999999999999992895, -54.00000000000000000, 4.000000000000000000 ) ) ;
#613 = EDGE_LOOP ( 'NONE', ( #809, #359, #475, #8 ) ) ;
#614 = CARTESIAN_POINT ( 'NONE',  ( 5.999999999999991118, 22.00000000000178346, 4.000000000000000000 ) ) ;
#615 = VECTOR ( 'NONE', #451, 1000.000000000000000 ) ;
#616 = DIRECTION ( 'NONE',  ( 0.7071067811865464625, -0.7071067811865486830, 0.000000000000000000 ) ) ;
#617 = DIRECTION ( 'NONE',  ( 0.000000000000000000, -1.000000000000000000, 0.000000000000000000 ) ) ;
#618 = EDGE_CURVE ( 'NONE', #1028, #538, #189, .T. ) ;
#619 = ORIENTED_EDGE ( 'NONE', *, *, #464, .T. ) ;
#620 = VECTOR ( 'NONE', #976, 1000.000000000000000 ) ;
#621 = CARTESIAN_POINT ( 'NONE',  ( -6.000000000000021316, -38.00000000000000000, 0.000000000000000000 ) ) ;
#622 = CIRCLE ( 'NONE', #250, 2.099999999999999645 ) ;
#623 = PLANE ( 'NONE',  #473 ) ;
#624 = CARTESIAN_POINT ( 'NONE',  ( -9.999999999999992895, 47.94999999999999574, 4.000000000000000000 ) ) ;
#625 = CC_DESIGN_PERSON_AND_ORGANIZATION_ASSIGNMENT ( #483, #373, ( #211 ) ) ;
#626 = ORIENTED_EDGE ( 'NONE', *, *, #696, .T. ) ;
#627 = LINE ( 'NONE', #449, #794 ) ;
#628 = VERTEX_POINT ( 'NONE', #1011 ) ;
#629 = DIRECTION ( 'NONE',  ( 1.000000000000000000, 0.000000000000000000, 0.000000000000000000 ) ) ;
#630 = CARTESIAN_POINT ( 'NONE',  ( 0.000000000000000000, 0.000000000000000000, 6.000000000000000000 ) ) ;
#631 = ORIENTED_EDGE ( 'NONE', *, *, #5, .T. ) ;
#632 = PERSON_AND_ORGANIZATION ( #18446744073709551615, #18446744073709551615 ) ;
#633 = EDGE_LOOP ( 'NONE', ( #989, #888, #392 ) ) ;
#634 = SECURITY_CLASSIFICATION ( '', '', #805 ) ;
#635 = EDGE_CURVE ( 'NONE', #758, #765, #253, .T. ) ;
#636 = CARTESIAN_POINT ( 'NONE',  ( -6.000000000000023093, -34.00000000000184741, 0.000000000000000000 ) ) ;
#637 = LINE ( 'NONE', #969, #79 ) ;
#638 = ORIENTED_EDGE ( 'NONE', *, *, #987, .F. ) ;
#639 = ORIENTED_EDGE ( 'NONE', *, *, #568, .T. ) ;
#640 = VECTOR ( 'NONE', #50, 1000.000000000000000 ) ;
#641 = PRODUCT_DEFINITION_SHAPE ( 'NONE', 'NONE',  #274 ) ;
#642 = DIRECTION ( 'NONE',  ( 1.000000000000000000, 0.000000000000000000, -0.000000000000000000 ) ) ;
#643 = CARTESIAN_POINT ( 'NONE',  ( -6.000000000000021316, -38.00000000000000000, 4.000000000000000000 ) ) ;
#644 = EDGE_CURVE ( 'NONE', #544, #1043, #26, .T. ) ;
#645 = ORIENTED_EDGE ( 'NONE', *, *, #916, .T. ) ;
#646 = ORIENTED_EDGE ( 'NONE', *, *, #450, .T. ) ;
#647 = APPROVAL ( #877, 'Coincidente' ) ;
#648 = DIRECTION ( 'NONE',  ( -0.000000000000000000, 0.000000000000000000, -1.000000000000000000 ) ) ;
#649 = EDGE_CURVE ( 'NONE', #142, #734, #622, .T. ) ;
#650 = ORIENTED_EDGE ( 'NONE', *, *, #532, .T. ) ;
#651 = PERSON_AND_ORGANIZATION_ROLE ( 'creator' ) ;
#652 = ORIENTED_EDGE ( 'NONE', *, *, #1030, .T. ) ;
#653 = LOCAL_TIME ( 10, 32, 39.00000000000000000, #770 ) ;
#654 = DIRECTION ( 'NONE',  ( -0.000000000000000000, -0.000000000000000000, -1.000000000000000000 ) ) ;
#655 = DIRECTION ( 'NONE',  ( 1.000000000000000000, 0.000000000000000000, 0.000000000000000000 ) ) ;
#656 = EDGE_LOOP ( 'NONE', ( #46, #48, #408 ) ) ;
#657 = EDGE_CURVE ( 'NONE', #769, #542, #285, .T. ) ;
#658 = VECTOR ( 'NONE', #474, 1000.000000000000000 ) ;
#659 = VECTOR ( 'NONE', #82, 1000.000000000000000 ) ;
#660 = CARTESIAN_POINT ( 'NONE',  ( 5.999999999999991118, -19.00000000000333245, 4.000000000000000000 ) ) ;
#661 = CARTESIAN_POINT ( 'NONE',  ( 2.099999999999987654, 54.00000000000000000, 6.000000000000000000 ) ) ;
#662 = EDGE_LOOP ( 'NONE', ( #789, #219, #954, #198 ) ) ;
#663 = LINE ( 'NONE', #994, #108 ) ;
#664 = EDGE_CURVE ( 'NONE', #1028, #758, #843, .T. ) ;
#665 = DIRECTION ( 'NONE',  ( 1.000000000000000000, 0.000000000000000000, -0.000000000000000000 ) ) ;
#666 = PLANE ( 'NONE',  #586 ) ;
#667 = ORIENTED_EDGE ( 'NONE', *, *, #288, .T. ) ;
#668 = CARTESIAN_POINT ( 'NONE',  ( 5.999999999999991118, -19.00000000000333245, 4.000000000000000000 ) ) ;
#669 = EDGE_CURVE ( 'NONE', #870, #504, #342, .T. ) ;
#670 = CARTESIAN_POINT ( 'NONE',  ( 5.999999999999991118, -38.00000000000000000, 0.000000000000000000 ) ) ;
#671 = AXIS2_PLACEMENT_3D ( 'NONE', #173, #341, #826 ) ;
#672 = DIRECTION ( 'NONE',  ( -0.000000000000000000, 0.000000000000000000, 1.000000000000000000 ) ) ;
#673 = VERTEX_POINT ( 'NONE', #697 ) ;
#674 = DIRECTION ( 'NONE',  ( -0.000000000000000000, 0.000000000000000000, -1.000000000000000000 ) ) ;
#675 = VECTOR ( 'NONE', #196, 1000.000000000000000 ) ;
#676 = CARTESIAN_POINT ( 'NONE',  ( 12.50000000000167510, -12.50000000000163425, 4.000000000000000000 ) ) ;
#677 = CARTESIAN_POINT ( 'NONE',  ( -6.000000000000021316, 4.000000000001718625, 4.000000000000000000 ) ) ;
#678 = PRODUCT ( 'asml_eslabon_BCv4', 'asml_eslabon_BCv4', '', ( #102 ) ) ;
#679 = EDGE_LOOP ( 'NONE', ( #336, #348, #856, #631 ) ) ;
#680 = CARTESIAN_POINT ( 'NONE',  ( -6.000000000000023093, 34.00000000000184741, 0.000000000000000000 ) ) ;
#681 = FACE_OUTER_BOUND ( 'NONE', #569, .T. ) ;
#682 = DIRECTION ( 'NONE',  ( -0.000000000000000000, -0.000000000000000000, -1.000000000000000000 ) ) ;
#683 = EDGE_CURVE ( 'NONE', #812, #544, #763, .T. ) ;
#684 = VERTEX_POINT ( 'NONE', #602 ) ;
#685 = FACE_OUTER_BOUND ( 'NONE', #192, .T. ) ;
#686 = DIRECTION ( 'NONE',  ( 0.7071067811865464625, 0.7071067811865486830, 0.000000000000000000 ) ) ;
#687 = VECTOR ( 'NONE', #949, 1000.000000000000000 ) ;
#688 = DIRECTION ( 'NONE',  ( -0.7071067811865462405, 0.7071067811865489050, 0.000000000000000000 ) ) ;
#689 = ORIENTED_EDGE ( 'NONE', *, *, #388, .T. ) ;
#690 = CALENDAR_DATE ( 2026, 14, 9 ) ;
#691 = CARTESIAN_POINT ( 'NONE',  ( -6.000000000000021316, 0.000000000000000000, 4.000000000000000000 ) ) ;
#692 = CARTESIAN_POINT ( 'NONE',  ( -5.204748896376239852E-16, 38.00000000000000000, 0.000000000000000000 ) ) ;
#693 = VECTOR ( 'NONE', #416, 1000.000000000000000 ) ;
#694 = ORIENTED_EDGE ( 'NONE', *, *, #987, .T. ) ;
#695 = CARTESIAN_POINT ( 'NONE',  ( 9.999999999999987566, -54.00000000000000000, 0.000000000000000000 ) ) ;
#696 = EDGE_CURVE ( 'NONE', #484, #699, #445, .T. ) ;
#697 = CARTESIAN_POINT ( 'NONE',  ( 5.999999999999991118, 16.00000000000177636, 0.000000000000000000 ) ) ;
#698 = CARTESIAN_POINT ( 'NONE',  ( -6.000000000000023093, 34.00000000000184741, 4.000000000000000000 ) ) ;
#699 = VERTEX_POINT ( 'NONE', #333 ) ;
#700 =( NAMED_UNIT ( * ) SI_UNIT ( $, .STERADIAN. ) SOLID_ANGLE_UNIT ( ) );
#701 = ORIENTED_EDGE ( 'NONE', *, *, #218, .T. ) ;
#702 = ADVANCED_FACE ( 'NONE', ( #174 ), #506, .F. ) ;
#703 = LINE ( 'NONE', #956, #707 ) ;
#704 = DIRECTION ( 'NONE',  ( -0.000000000000000000, -0.000000000000000000, -1.000000000000000000 ) ) ;
#705 = EDGE_LOOP ( 'NONE', ( #1055, #311 ) ) ;
#706 = LINE ( 'NONE', #193, #944 ) ;
#707 = VECTOR ( 'NONE', #205, 1000.000000000000000 ) ;
#708 = LINE ( 'NONE', #409, #179 ) ;
#709 = CARTESIAN_POINT ( 'NONE',  ( -9.999999999999992895, 0.000000000000000000, 4.000000000000000000 ) ) ;
#710 = ORIENTED_EDGE ( 'NONE', *, *, #1063, .T. ) ;
#711 = AXIS2_PLACEMENT_3D ( 'NONE', #343, #855, #688 ) ;
#712 = CARTESIAN_POINT ( 'NONE',  ( -6.000000000000023093, -34.00000000000184741, 4.000000000000000000 ) ) ;
#713 = ADVANCED_FACE ( 'NONE', ( #681 ), #597, .F. ) ;
#714 = CARTESIAN_POINT ( 'NONE',  ( -2.100000000000011191, -54.00000000000000000, 4.000000000000000000 ) ) ;
#715 = DIRECTION ( 'NONE',  ( 1.000000000000000000, 0.000000000000000000, 0.000000000000000000 ) ) ;
#716 = EDGE_CURVE ( 'NONE', #926, #64, #104, .T. ) ;
#717 = ORIENTED_EDGE ( 'NONE', *, *, #783, .T. ) ;
#718 = VERTEX_POINT ( 'NONE', #21 ) ;
#719 = CARTESIAN_POINT ( 'NONE',  ( 5.999999999999991118, 0.000000000000000000, 4.000000000000000000 ) ) ;
#720 = DIRECTION ( 'NONE',  ( -0.000000000000000000, -0.000000000000000000, -1.000000000000000000 ) ) ;
#721 = EDGE_LOOP ( 'NONE', ( #560, #137, #851, #354 ) ) ;
#722 = ORIENTED_EDGE ( 'NONE', *, *, #669, .F. ) ;
#723 = VECTOR ( 'NONE', #616, 1000.000000000000000 ) ;
#724 = FACE_BOUND ( 'NONE', #633, .T. ) ;
#725 = EDGE_CURVE ( 'NONE', #60, #101, #346, .T. ) ;
#726 = DIRECTION ( 'NONE',  ( -1.000000000000000000, 0.000000000000000000, 0.000000000000000000 ) ) ;
#727 = ADVANCED_FACE ( 'NONE', ( #885, #138, #210, #126, #381, #724, #873 ), #623, .F. ) ;
#728 = ORIENTED_EDGE ( 'NONE', *, *, #818, .F. ) ;
#729 = CLOSED_SHELL ( 'NONE', ( #84, #93, #112, #829, #223, #1076, #727, #760, #562, #553, #1007, #51, #588, #713, #868, #66, #887, #98, #209, #255, #913, #872, #556, #364, #379, #732, #498, #702, #892, #414, #31 ) ) ;
#730 = ORIENTED_EDGE ( 'NONE', *, *, #300, .T. ) ;
#731 = VECTOR ( 'NONE', #777, 1000.000000000000000 ) ;
#732 = ADVANCED_FACE ( 'NONE', ( #547 ), #221, .T. ) ;
#733 = CARTESIAN_POINT ( 'NONE',  ( -5.204748896376270421E-16, -38.00000000000000000, 0.000000000000000000 ) ) ;
#734 = VERTEX_POINT ( 'NONE', #807 ) ;
#735 = APPROVAL_ROLE ( '' ) ;
#736 = VERTEX_POINT ( 'NONE', #880 ) ;
#737 = PLANE ( 'NONE',  #849 ) ;
#738 = CARTESIAN_POINT ( 'NONE',  ( -6.000000000000021316, -4.000000000001718625, 4.000000000000000000 ) ) ;
#739 = ORIENTED_EDGE ( 'NONE', *, *, #635, .F. ) ;
#740 = AXIS2_PLACEMENT_3D ( 'NONE', #600, #933, #413 ) ;
#741 = DIRECTION ( 'NONE',  ( -0.000000000000000000, -0.000000000000000000, -1.000000000000000000 ) ) ;
#742 = DIRECTION ( 'NONE',  ( 1.000000000000000000, 0.000000000000000000, 0.000000000000000000 ) ) ;
#743 = ORIENTED_EDGE ( 'NONE', *, *, #288, .F. ) ;
#744 = FACE_OUTER_BOUND ( 'NONE', #224, .T. ) ;
#745 = AXIS2_PLACEMENT_3D ( 'NONE', #1008, #583, #835 ) ;
#746 = PLANE ( 'NONE',  #201 ) ;
#747 = FACE_BOUND ( 'NONE', #865, .T. ) ;
#748 = EDGE_CURVE ( 'NONE', #182, #825, #262, .T. ) ;
#749 = ORIENTED_EDGE ( 'NONE', *, *, #326, .F. ) ;
#750 = DIRECTION ( 'NONE',  ( 0.7071067811865462405, -0.7071067811865489050, 0.000000000000000000 ) ) ;
#751 = CARTESIAN_POINT ( 'NONE',  ( 10.00000000000000711, 0.000000000000000000, 4.000000000000000000 ) ) ;
#752 = CARTESIAN_POINT ( 'NONE',  ( -6.000000000000021316, 0.000000000000000000, 4.000000000000000000 ) ) ;
#753 = EDGE_LOOP ( 'NONE', ( #932, #609, #798, #345 ) ) ;
#754 = CARTESIAN_POINT ( 'NONE',  ( 14.00000000000089706, 14.00000000000084377, 4.000000000000000000 ) ) ;
#755 = LINE ( 'NONE', #410, #442 ) ;
#756 = EDGE_CURVE ( 'NONE', #836, #305, #703, .T. ) ;
#757 = CARTESIAN_POINT ( 'NONE',  ( -5.204748896376270421E-16, -38.00000000000000000, 4.000000000000000000 ) ) ;
#758 = VERTEX_POINT ( 'NONE', #636 ) ;
#759 = CARTESIAN_POINT ( 'NONE',  ( 5.999999999999991118, -16.00000000000177636, 4.000000000000000000 ) ) ;
#760 = ADVANCED_FACE ( 'NONE', ( #968 ), #1041, .T. ) ;
#761 = VECTOR ( 'NONE', #797, 1000.000000000000000 ) ;
#762 = DIRECTION ( 'NONE',  ( 1.000000000000000000, 0.000000000000000000, 0.000000000000000000 ) ) ;
#763 = CIRCLE ( 'NONE', #901, 10.00000000000000000 ) ;
#764 = CARTESIAN_POINT ( 'NONE',  ( -9.999999999999992895, 47.94999999999999574, 6.000000000000000000 ) ) ;
#765 = VERTEX_POINT ( 'NONE', #131 ) ;
#766 = PLANE ( 'NONE',  #875 ) ;
#767 = PLANE ( 'NONE',  #918 ) ;
#768 = LINE ( 'NONE', #786, #200 ) ;
#769 = VERTEX_POINT ( 'NONE', #286 ) ;
#770 = COORDINATED_UNIVERSAL_TIME_OFFSET ( 3, 0, .BEHIND. ) ;
#771 = DIRECTION ( 'NONE',  ( -0.000000000000000000, -0.000000000000000000, -1.000000000000000000 ) ) ;
#772 = APPROVAL_PERSON_ORGANIZATION ( #230, #428, #476 ) ;
#773 = DIRECTION ( 'NONE',  ( 0.000000000000000000, 0.000000000000000000, 1.000000000000000000 ) ) ;
#774 = EDGE_CURVE ( 'NONE', #926, #130, #363, .T. ) ;
#775 = ORIENTED_EDGE ( 'NONE', *, *, #263, .F. ) ;
#776 = PERSON_AND_ORGANIZATION ( #18446744073709551615, #18446744073709551615 ) ;
#777 = DIRECTION ( 'NONE',  ( 0.7071067811865462405, 0.7071067811865489050, 0.000000000000000000 ) ) ;
#778 = VECTOR ( 'NONE', #654, 1000.000000000000000 ) ;
#779 = FACE_OUTER_BOUND ( 'NONE', #157, .T. ) ;
#780 = VECTOR ( 'NONE', #206, 1000.000000000000000 ) ;
#781 = ORIENTED_EDGE ( 'NONE', *, *, #579, .T. ) ;
#782 = CARTESIAN_POINT ( 'NONE',  ( -6.000000000000021316, 0.000000000000000000, 0.000000000000000000 ) ) ;
#783 = EDGE_CURVE ( 'NONE', #825, #182, #564, .T. ) ;
#784 = MANIFOLD_SOLID_BREP ( 'Saliente-Extruir3', #729 ) ;
#785 = CARTESIAN_POINT ( 'NONE',  ( 10.00000000000000711, 0.000000000000000000, 6.000000000000000000 ) ) ;
#786 = CARTESIAN_POINT ( 'NONE',  ( 5.999999999999991118, 0.000000000000000000, 4.000000000000000000 ) ) ;
#787 = EDGE_LOOP ( 'NONE', ( #309, #946, #792, #204 ) ) ;
#788 = APPROVAL_ROLE ( '' ) ;
#789 = ORIENTED_EDGE ( 'NONE', *, *, #1020, .T. ) ;
#790 = LINE ( 'NONE', #472, #127 ) ;
#791 = CARTESIAN_POINT ( 'NONE',  ( -6.000000000000021316, 4.000000000001718625, 0.000000000000000000 ) ) ;
#792 = ORIENTED_EDGE ( 'NONE', *, *, #47, .F. ) ;
#793 = CALENDAR_DATE ( 2026, 14, 9 ) ;
#794 = VECTOR ( 'NONE', #959, 1000.000000000000000 ) ;
#795 = CARTESIAN_POINT ( 'NONE',  ( -9.999999999999992895, 54.00000000000000000, 6.000000000000000000 ) ) ;
#796 = EDGE_CURVE ( 'NONE', #314, #673, #291, .T. ) ;
#797 = DIRECTION ( 'NONE',  ( 0.000000000000000000, -1.000000000000000000, 0.000000000000000000 ) ) ;
#798 = ORIENTED_EDGE ( 'NONE', *, *, #61, .T. ) ;
#799 = VECTOR ( 'NONE', #243, 1000.000000000000000 ) ;
#800 = CALENDAR_DATE ( 2026, 14, 9 ) ;
#801 = ORIENTED_EDGE ( 'NONE', *, *, #532, .F. ) ;
#802 = DIRECTION ( 'NONE',  ( -1.000000000000000000, 0.000000000000000000, 0.000000000000000000 ) ) ;
#803 = LINE ( 'NONE', #452, #761 ) ;
#804 = VERTEX_POINT ( 'NONE', #795 ) ;
#805 = SECURITY_CLASSIFICATION_LEVEL ( 'unclassified' ) ;
#806 = ORIENTED_EDGE ( 'NONE', *, *, #748, .F. ) ;
#807 = CARTESIAN_POINT ( 'NONE',  ( -2.100000000000011191, 54.00000000000000000, 4.000000000000000000 ) ) ;
#808 = CARTESIAN_POINT ( 'NONE',  ( 5.999999999999991118, 22.00000000000178346, 0.000000000000000000 ) ) ;
#809 = ORIENTED_EDGE ( 'NONE', *, *, #696, .F. ) ;
#810 = COORDINATED_UNIVERSAL_TIME_OFFSET ( 3, 0, .BEHIND. ) ;
#811 = EDGE_CURVE ( 'NONE', #673, #466, #790, .T. ) ;
#812 = VERTEX_POINT ( 'NONE', #42 ) ;
#813 = AXIS2_PLACEMENT_3D ( 'NONE', #355, #1040, #367 ) ;
#814 = CARTESIAN_POINT ( 'NONE',  ( 5.999999999999991118, -22.00000000000178346, 4.000000000000000000 ) ) ;
#815 = EDGE_LOOP ( 'NONE', ( #119, #749, #441, #626, #1018, #897 ) ) ;
#816 = VECTOR ( 'NONE', #992, 1000.000000000000000 ) ;
#817 = ORIENTED_EDGE ( 'NONE', *, *, #618, .T. ) ;
#818 = EDGE_CURVE ( 'NONE', #684, #466, #536, .T. ) ;
#819 = VECTOR ( 'NONE', #1026, 1000.000000000000000 ) ;
#820 = CARTESIAN_POINT ( 'NONE',  ( 10.00000000000000711, 54.00000000000000000, 6.000000000000000000 ) ) ;
#821 = CYLINDRICAL_SURFACE ( 'NONE', #833, 6.000000000000006217 ) ;
#822 = ORIENTED_EDGE ( 'NONE', *, *, #984, .F. ) ;
#823 = DIRECTION ( 'NONE',  ( -0.000000000000000000, -0.000000000000000000, -1.000000000000000000 ) ) ;
#824 = ORIENTED_EDGE ( 'NONE', *, *, #716, .F. ) ;
#825 = VERTEX_POINT ( 'NONE', #714 ) ;
#826 = DIRECTION ( 'NONE',  ( -0.000000000000000000, 0.000000000000000000, -1.000000000000000000 ) ) ;
#827 = AXIS2_PLACEMENT_3D ( 'NONE', #169, #96, #427 ) ;
#828 = CARTESIAN_POINT ( 'NONE',  ( 5.999999999999991118, -22.00000000000178346, 4.000000000000000000 ) ) ;
#829 = ADVANCED_FACE ( 'NONE', ( #1046 ), #552, .F. ) ;
#830 = LINE ( 'NONE', #661, #799 ) ;
#831 = ORIENTED_EDGE ( 'NONE', *, *, #818, .T. ) ;
#832 = DIRECTION ( 'NONE',  ( 0.7071067811865464625, 0.7071067811865486830, 0.000000000000000000 ) ) ;
#833 = AXIS2_PLACEMENT_3D ( 'NONE', #757, #234, #491 ) ;
#834 = DIRECTION ( 'NONE',  ( -0.000000000000000000, -0.000000000000000000, -1.000000000000000000 ) ) ;
#835 = DIRECTION ( 'NONE',  ( -1.000000000000000000, 0.000000000000000000, 0.000000000000000000 ) ) ;
#836 = VERTEX_POINT ( 'NONE', #357 ) ;
#837 = LINE ( 'NONE', #759, #244 ) ;
#838 = LINE ( 'NONE', #232, #778 ) ;
#839 = LINE ( 'NONE', #248, #233 ) ;
#840 = ORIENTED_EDGE ( 'NONE', *, *, #78, .F. ) ;
#841 = DIRECTION ( 'NONE',  ( 0.7071067811865464625, 0.7071067811865486830, 0.000000000000000000 ) ) ;
#842 = EDGE_CURVE ( 'NONE', #83, #876, #1029, .T. ) ;
#843 = LINE ( 'NONE', #270, #479 ) ;
#844 = CARTESIAN_POINT ( 'NONE',  ( -6.000000000000021316, 0.000000000000000000, 4.000000000000000000 ) ) ;
#845 = ORIENTED_EDGE ( 'NONE', *, *, #1000, .T. ) ;
#846 = CARTESIAN_POINT ( 'NONE',  ( -6.000000000000022204, 31.00000000000338574, 4.000000000000000000 ) ) ;
#847 = AXIS2_PLACEMENT_3D ( 'NONE', #139, #287, #726 ) ;
#848 = CARTESIAN_POINT ( 'NONE',  ( -6.000000000000021316, 0.000000000000000000, 4.000000000000000000 ) ) ;
#849 = AXIS2_PLACEMENT_3D ( 'NONE', #580, #164, #565 ) ;
#850 = LINE ( 'NONE', #935, #988 ) ;
#851 = ORIENTED_EDGE ( 'NONE', *, *, #649, .T. ) ;
#852 = DIRECTION ( 'NONE',  ( -0.000000000000000000, -0.000000000000000000, -1.000000000000000000 ) ) ;
#853 = CARTESIAN_POINT ( 'NONE',  ( -1.157291225194249043E-14, 54.00000000000000000, 6.000000000000000000 ) ) ;
#854 = EDGE_CURVE ( 'NONE', #970, #448, #867, .T. ) ;
#855 = DIRECTION ( 'NONE',  ( 0.7071067811865489050, 0.7071067811865462405, -0.000000000000000000 ) ) ;
#856 = ORIENTED_EDGE ( 'NONE', *, *, #916, .F. ) ;
#857 = LINE ( 'NONE', #539, #1031 ) ;
#858 = DIRECTION ( 'NONE',  ( -0.7071067811865486830, 0.7071067811865464625, 0.000000000000000000 ) ) ;
#859 = VECTOR ( 'NONE', #75, 1000.000000000000000 ) ;
#860 = DIRECTION ( 'NONE',  ( -0.000000000000000000, 0.000000000000000000, -1.000000000000000000 ) ) ;
#861 = EDGE_CURVE ( 'NONE', #550, #980, #708, .T. ) ;
#862 = ORIENTED_EDGE ( 'NONE', *, *, #725, .F. ) ;
#863 = DIRECTION ( 'NONE',  ( 1.000000000000000000, 0.000000000000000000, 0.000000000000000000 ) ) ;
#864 = FACE_OUTER_BOUND ( 'NONE', #499, .T. ) ;
#865 = EDGE_LOOP ( 'NONE', ( #817, #893, #591, #154 ) ) ;
#866 = DIRECTION ( 'NONE',  ( 0.7071067811865486830, 0.7071067811865464625, -0.000000000000000000 ) ) ;
#867 = LINE ( 'NONE', #122, #508 ) ;
#868 = ADVANCED_FACE ( 'NONE', ( #744 ), #998, .F. ) ;
#869 = LINE ( 'NONE', #308, #658 ) ;
#870 = VERTEX_POINT ( 'NONE', #246 ) ;
#871 = CARTESIAN_POINT ( 'NONE',  ( 0.000000000000000000, 0.000000000000000000, 0.000000000000000000 ) ) ;
#872 = ADVANCED_FACE ( 'NONE', ( #1071 ), #90, .F. ) ;
#873 = FACE_BOUND ( 'NONE', #298, .T. ) ;
#874 = CARTESIAN_POINT ( 'NONE',  ( 5.999999999999991118, 16.00000000000177636, 4.000000000000000000 ) ) ;
#875 = AXIS2_PLACEMENT_3D ( 'NONE', #324, #163, #674 ) ;
#876 = VERTEX_POINT ( 'NONE', #592 ) ;
#877 = APPROVAL_STATUS ( 'not_yet_approved' ) ;
#878 = AXIS2_PLACEMENT_3D ( 'NONE', #871, #1034, #107 ) ;
#879 = ORIENTED_EDGE ( 'NONE', *, *, #190, .F. ) ;
#880 = CARTESIAN_POINT ( 'NONE',  ( -6.000000000000021316, 38.00000000000000000, 4.000000000000000000 ) ) ;
#881 = CARTESIAN_POINT ( 'NONE',  ( -1.157291225194249043E-14, -54.00000000000000000, 4.000000000000000000 ) ) ;
#882 = ORIENTED_EDGE ( 'NONE', *, *, #948, .F. ) ;
#883 = CIRCLE ( 'NONE', #551, 10.00000000000000000 ) ;
#884 = EDGE_LOOP ( 'NONE', ( #148, #521, #523, #646 ) ) ;
#885 = FACE_OUTER_BOUND ( 'NONE', #289, .T. ) ;
#886 = DIRECTION ( 'NONE',  ( 1.000000000000000000, 0.000000000000000000, 0.000000000000000000 ) ) ;
#887 = ADVANCED_FACE ( 'NONE', ( #685 ), #505, .T. ) ;
#888 = ORIENTED_EDGE ( 'NONE', *, *, #1020, .F. ) ;
#889 = ORIENTED_EDGE ( 'NONE', *, *, #228, .T. ) ;
#890 = CARTESIAN_POINT ( 'NONE',  ( 0.000000000000000000, 0.000000000000000000, 0.000000000000000000 ) ) ;
#891 = LINE ( 'NONE', #144, #284 ) ;
#892 = ADVANCED_FACE ( 'NONE', ( #9 ), #330, .F. ) ;
#893 = ORIENTED_EDGE ( 'NONE', *, *, #967, .T. ) ;
#894 = EDGE_LOOP ( 'NONE', ( #728, #453, #978, #129 ) ) ;
#895 = VECTOR ( 'NONE', #49, 1000.000000000000000 ) ;
#896 = DIRECTION ( 'NONE',  ( -0.000000000000000000, 0.000000000000000000, 1.000000000000000000 ) ) ;
#897 = ORIENTED_EDGE ( 'NONE', *, *, #485, .T. ) ;
#898 = DATE_TIME_ROLE ( 'creation_date' ) ;
#899 = AXIS2_PLACEMENT_3D ( 'NONE', #265, #773, #271 ) ;
#900 = ORIENTED_EDGE ( 'NONE', *, *, #854, .F. ) ;
#901 = AXIS2_PLACEMENT_3D ( 'NONE', #610, #1016, #863 ) ;
#902 = CARTESIAN_POINT ( 'NONE',  ( -5.000000000000881073, 5.000000000000861533, 4.000000000000000000 ) ) ;
#903 = DIRECTION ( 'NONE',  ( 1.000000000000000000, 0.000000000000000000, 0.000000000000000000 ) ) ;
#904 = ORIENTED_EDGE ( 'NONE', *, *, #197, .F. ) ;
#905 = EDGE_CURVE ( 'NONE', #130, #239, #909, .T. ) ;
#906 = CARTESIAN_POINT ( 'NONE',  ( -9.999999999999992895, 54.00000000000000000, 0.000000000000000000 ) ) ;
#907 = DIRECTION ( 'NONE',  ( -0.7071067811865464625, 0.7071067811865486830, 0.000000000000000000 ) ) ;
#908 = EDGE_LOOP ( 'NONE', ( #717, #419, #517, #904 ) ) ;
#909 = LINE ( 'NONE', #320, #91 ) ;
#910 = CIRCLE ( 'NONE', #581, 10.00000000000000000 ) ;
#911 = FACE_OUTER_BOUND ( 'NONE', #294, .T. ) ;
#912 = ORIENTED_EDGE ( 'NONE', *, *, #644, .T. ) ;
#913 = ADVANCED_FACE ( 'NONE', ( #420 ), #766, .T. ) ;
#914 = ORIENTED_EDGE ( 'NONE', *, *, #269, .T. ) ;
#915 = DIRECTION ( 'NONE',  ( -0.000000000000000000, 0.000000000000000000, -1.000000000000000000 ) ) ;
#916 = EDGE_CURVE ( 'NONE', #366, #1013, #927, .T. ) ;
#917 = VECTOR ( 'NONE', #995, 1000.000000000000000 ) ;
#918 = AXIS2_PLACEMENT_3D ( 'NONE', #676, #858, #109 ) ;
#919 = CARTESIAN_POINT ( 'NONE',  ( -1.157291225194249043E-14, 54.00000000000000000, 4.000000000000000000 ) ) ;
#920 = FACE_OUTER_BOUND ( 'NONE', #884, .T. ) ;
#921 = EDGE_CURVE ( 'NONE', #220, #466, #837, .T. ) ;
#922 = EDGE_LOOP ( 'NONE', ( #645, #638, #431, #997 ) ) ;
#923 = DIRECTION ( 'NONE',  ( 0.000000000000000000, -1.000000000000000000, 0.000000000000000000 ) ) ;
#924 = DIRECTION ( 'NONE',  ( 0.000000000000000000, -1.000000000000000000, 0.000000000000000000 ) ) ;
#925 = CARTESIAN_POINT ( 'NONE',  ( -6.000000000000021316, 0.000000000000000000, 4.000000000000000000 ) ) ;
#926 = VERTEX_POINT ( 'NONE', #846 ) ;
#927 = LINE ( 'NONE', #596, #983 ) ;
#928 = APPLICATION_CONTEXT ( 'configuration controlled 3d designs of mechanical parts and assemblies' ) ;
#929 = CARTESIAN_POINT ( 'NONE',  ( -1.157291225194249043E-14, 54.00000000000000000, 4.000000000000000000 ) ) ;
#930 =( GEOMETRIC_REPRESENTATION_CONTEXT ( 3 ) GLOBAL_UNCERTAINTY_ASSIGNED_CONTEXT ( ( #415 ) ) GLOBAL_UNIT_ASSIGNED_CONTEXT ( ( #30, #527, #700 ) ) REPRESENTATION_CONTEXT ( 'NONE', 'WORKASPACE' ) );
#931 = DIRECTION ( 'NONE',  ( -0.000000000000000000, 0.000000000000000000, 1.000000000000000000 ) ) ;
#932 = ORIENTED_EDGE ( 'NONE', *, *, #307, .F. ) ;
#933 = DIRECTION ( 'NONE',  ( -0.000000000000000000, 0.000000000000000000, 1.000000000000000000 ) ) ;
#934 = CARTESIAN_POINT ( 'NONE',  ( 14.00000000000089706, -14.00000000000084377, 4.000000000000000000 ) ) ;
#935 = CARTESIAN_POINT ( 'NONE',  ( -6.000000000000021316, 0.000000000000000000, 0.000000000000000000 ) ) ;
#936 = ORIENTED_EDGE ( 'NONE', *, *, #1063, .F. ) ;
#937 = PLANE ( 'NONE',  #399 ) ;
#938 = EDGE_CURVE ( 'NONE', #1043, #1057, #910, .T. ) ;
#939 = DIRECTION ( 'NONE',  ( 0.000000000000000000, -1.000000000000000000, 0.000000000000000000 ) ) ;
#940 = DIRECTION ( 'NONE',  ( -0.000000000000000000, -0.000000000000000000, -1.000000000000000000 ) ) ;
#941 = ORIENTED_EDGE ( 'NONE', *, *, #546, .F. ) ;
#942 = DIRECTION ( 'NONE',  ( 0.000000000000000000, -1.000000000000000000, 0.000000000000000000 ) ) ;
#943 = DIRECTION ( 'NONE',  ( 1.000000000000000000, 0.000000000000000000, 0.000000000000000000 ) ) ;
#944 = VECTOR ( 'NONE', #349, 1000.000000000000000 ) ;
#945 = CARTESIAN_POINT ( 'NONE',  ( -6.000000000000021316, 7.000000000000169642, 4.000000000000000000 ) ) ;
#946 = ORIENTED_EDGE ( 'NONE', *, *, #400, .F. ) ;
#947 = DIRECTION ( 'NONE',  ( 0.7071067811865464625, -0.7071067811865486830, 0.000000000000000000 ) ) ;
#948 = EDGE_CURVE ( 'NONE', #993, #448, #663, .T. ) ;
#949 = DIRECTION ( 'NONE',  ( 0.000000000000000000, -1.000000000000000000, 0.000000000000000000 ) ) ;
#950 = AXIS2_PLACEMENT_3D ( 'NONE', #160, #672, #742 ) ;
#951 = FACE_OUTER_BOUND ( 'NONE', #385, .T. ) ;
#952 = CIRCLE ( 'NONE', #11, 2.099999999999999645 ) ;
#953 = EDGE_CURVE ( 'NONE', #60, #314, #240, .T. ) ;
#954 = ORIENTED_EDGE ( 'NONE', *, *, #1044, .F. ) ;
#955 = FACE_OUTER_BOUND ( 'NONE', #662, .T. ) ;
#956 = CARTESIAN_POINT ( 'NONE',  ( 0.000000000000000000, 47.94999999999999574, 4.000000000000000000 ) ) ;
#957 = DIRECTION ( 'NONE',  ( 1.000000000000000000, 0.000000000000000000, -0.000000000000000000 ) ) ;
#958 = ORIENTED_EDGE ( 'NONE', *, *, #436, .T. ) ;
#959 = DIRECTION ( 'NONE',  ( 0.7071067811865464625, -0.7071067811865486830, 0.000000000000000000 ) ) ;
#960 = EDGE_LOOP ( 'NONE', ( #840, #208, #1033, #639 ) ) ;
#961 = CARTESIAN_POINT ( 'NONE',  ( -6.500000000000105693, 6.500000000000084377, 4.000000000000000000 ) ) ;
#962 = DIRECTION ( 'NONE',  ( -0.000000000000000000, 0.000000000000000000, 1.000000000000000000 ) ) ;
#963 = APPROVAL_PERSON_ORGANIZATION ( #69, #647, #735 ) ;
#964 = ORIENTED_EDGE ( 'NONE', *, *, #783, .F. ) ;
#965 = DATE_AND_TIME ( #800, #582 ) ;
#966 = ORIENTED_EDGE ( 'NONE', *, *, #197, .T. ) ;
#967 = EDGE_CURVE ( 'NONE', #538, #323, #493, .T. ) ;
#968 = FACE_OUTER_BOUND ( 'NONE', #458, .T. ) ;
#969 = CARTESIAN_POINT ( 'NONE',  ( 9.999999999999987566, -54.00000000000000000, 4.000000000000000000 ) ) ;
#970 = VERTEX_POINT ( 'NONE', #680 ) ;
#971 = VECTOR ( 'NONE', #347, 1000.000000000000000 ) ;
#972 = PERSON_AND_ORGANIZATION_ROLE ( 'classification_officer' ) ;
#973 = ORIENTED_EDGE ( 'NONE', *, *, #481, .T. ) ;
#974 = DIRECTION ( 'NONE',  ( -0.000000000000000000, 0.000000000000000000, 1.000000000000000000 ) ) ;
#975 = EDGE_CURVE ( 'NONE', #484, #804, #4, .T. ) ;
#976 = DIRECTION ( 'NONE',  ( -0.000000000000000000, -0.000000000000000000, -1.000000000000000000 ) ) ;
#977 = VERTEX_POINT ( 'NONE', #183 ) ;
#978 = ORIENTED_EDGE ( 'NONE', *, *, #601, .T. ) ;
#979 = CARTESIAN_POINT ( 'NONE',  ( 5.999999999999991118, -16.00000000000177636, 0.000000000000000000 ) ) ;
#980 = VERTEX_POINT ( 'NONE', #668 ) ;
#981 = APPROVAL_DATE_TIME ( #396, #647 ) ;
#982 = ORIENTED_EDGE ( 'NONE', *, *, #546, .T. ) ;
#983 = VECTOR ( 'NONE', #1014, 1000.000000000000000 ) ;
#984 = EDGE_CURVE ( 'NONE', #804, #544, #1010, .T. ) ;
#985 = CARTESIAN_POINT ( 'NONE',  ( -1.157291225194249043E-14, 54.00000000000000000, 6.000000000000000000 ) ) ;
#986 = DIRECTION ( 'NONE',  ( -0.000000000000000000, -0.000000000000000000, -1.000000000000000000 ) ) ;
#987 = EDGE_CURVE ( 'NONE', #266, #1013, #404, .T. ) ;
#988 = VECTOR ( 'NONE', #435, 1000.000000000000000 ) ;
#989 = ORIENTED_EDGE ( 'NONE', *, *, #669, .T. ) ;
#990 = AXIS2_PLACEMENT_3D ( 'NONE', #985, #896, #149 ) ;
#991 = DIRECTION ( 'NONE',  ( -0.000000000000000000, -0.000000000000000000, -1.000000000000000000 ) ) ;
#992 = DIRECTION ( 'NONE',  ( 0.000000000000000000, -1.000000000000000000, 0.000000000000000000 ) ) ;
#993 = VERTEX_POINT ( 'NONE', #1075 ) ;
#994 = CARTESIAN_POINT ( 'NONE',  ( 5.999999999999991118, 0.000000000000000000, 0.000000000000000000 ) ) ;
#995 = DIRECTION ( 'NONE',  ( 0.000000000000000000, -1.000000000000000000, 0.000000000000000000 ) ) ;
#996 = CARTESIAN_POINT ( 'NONE',  ( -6.000000000000022204, 31.00000000000338574, 0.000000000000000000 ) ) ;
#997 = ORIENTED_EDGE ( 'NONE', *, *, #318, .F. ) ;
#998 = PLANE ( 'NONE',  #671 ) ;
#999 = AXIS2_PLACEMENT_3D ( 'NONE', #540, #301, #629 ) ;
#1000 = EDGE_CURVE ( 'NONE', #314, #684, #360, .T. ) ;
#1001 = FACE_OUTER_BOUND ( 'NONE', #815, .T. ) ;
#1002 = DIRECTION ( 'NONE',  ( 1.000000000000000000, 0.000000000000000000, -0.000000000000000000 ) ) ;
#1003 = EDGE_LOOP ( 'NONE', ( #889, #106 ) ) ;
#1004 = DIRECTION ( 'NONE',  ( 1.000000000000000000, 0.000000000000000000, -0.000000000000000000 ) ) ;
#1005 = AXIS2_PLACEMENT_3D ( 'NONE', #275, #180, #12 ) ;
#1006 = CARTESIAN_POINT ( 'NONE',  ( -5.000000000000881073, -5.000000000000861533, 4.000000000000000000 ) ) ;
#1007 = ADVANCED_FACE ( 'NONE', ( #199 ), #443, .T. ) ;
#1008 = CARTESIAN_POINT ( 'NONE',  ( -1.157291225194249043E-14, -54.00000000000000000, 4.000000000000000000 ) ) ;
#1009 = EDGE_LOOP ( 'NONE', ( #549, #555, #879, #1045 ) ) ;
#1010 = LINE ( 'NONE', #81, #1066 ) ;
#1011 = CARTESIAN_POINT ( 'NONE',  ( -6.000000000000021316, -38.00000000000000000, 4.000000000000000000 ) ) ;
#1012 = PLANE ( 'NONE',  #368 ) ;
#1013 = VERTEX_POINT ( 'NONE', #614 ) ;
#1014 = DIRECTION ( 'NONE',  ( 0.000000000000000000, -1.000000000000000000, 0.000000000000000000 ) ) ;
#1015 = APPROVAL_PERSON_ORGANIZATION ( #35, #1051, #788 ) ;
#1016 = DIRECTION ( 'NONE',  ( 0.000000000000000000, 0.000000000000000000, 1.000000000000000000 ) ) ;
#1017 = CARTESIAN_POINT ( 'NONE',  ( -6.000000000000021316, 7.000000000000169642, 4.000000000000000000 ) ) ;
#1018 = ORIENTED_EDGE ( 'NONE', *, *, #400, .T. ) ;
#1019 = LINE ( 'NONE', #1025, #328 ) ;
#1020 = EDGE_CURVE ( 'NONE', #64, #504, #857, .T. ) ;
#1021 = CIRCLE ( 'NONE', #950, 6.000000000000006217 ) ;
#1022 = DIRECTION ( 'NONE',  ( -0.000000000000000000, -0.000000000000000000, -1.000000000000000000 ) ) ;
#1023 = DIRECTION ( 'NONE',  ( 1.000000000000000000, 0.000000000000000000, -0.000000000000000000 ) ) ;
#1024 = VERTEX_POINT ( 'NONE', #534 ) ;
#1025 = CARTESIAN_POINT ( 'NONE',  ( -6.000000000000021316, -4.000000000001718625, 4.000000000000000000 ) ) ;
#1026 = DIRECTION ( 'NONE',  ( 0.7071067811865462405, -0.7071067811865489050, 0.000000000000000000 ) ) ;
#1027 = LINE ( 'NONE', #339, #971 ) ;
#1028 = VERTEX_POINT ( 'NONE', #712 ) ;
#1029 = LINE ( 'NONE', #279, #723 ) ;
#1030 = EDGE_CURVE ( 'NONE', #101, #684, #1019, .T. ) ;
#1031 = VECTOR ( 'NONE', #947, 1000.000000000000000 ) ;
#1032 = DIRECTION ( 'NONE',  ( -0.000000000000000000, 0.000000000000000000, 1.000000000000000000 ) ) ;
#1033 = ORIENTED_EDGE ( 'NONE', *, *, #518, .T. ) ;
#1034 = DIRECTION ( 'NONE',  ( 0.000000000000000000, 0.000000000000000000, 1.000000000000000000 ) ) ;
#1035 = VERTEX_POINT ( 'NONE', #621 ) ;
#1036 = DIRECTION ( 'NONE',  ( 1.000000000000000000, 0.000000000000000000, 0.000000000000000000 ) ) ;
#1037 = FACE_OUTER_BOUND ( 'NONE', #23, .T. ) ;
#1038 = AXIS2_PLACEMENT_3D ( 'NONE', #751, #665, #312 ) ;
#1039 = ORIENTED_EDGE ( 'NONE', *, *, #344, .T. ) ;
#1040 = DIRECTION ( 'NONE',  ( 0.7071067811865489050, 0.7071067811865462405, -0.000000000000000000 ) ) ;
#1041 = PLANE ( 'NONE',  #296 ) ;
#1042 = CYLINDRICAL_SURFACE ( 'NONE', #847, 2.099999999999999645 ) ;
#1043 = VERTEX_POINT ( 'NONE', #41 ) ;
#1044 = EDGE_CURVE ( 'NONE', #926, #239, #627, .T. ) ;
#1045 = ORIENTED_EDGE ( 'NONE', *, *, #283, .T. ) ;
#1046 = FACE_OUTER_BOUND ( 'NONE', #679, .T. ) ;
#1047 = PLANE ( 'NONE',  #249 ) ;
#1048 = VECTOR ( 'NONE', #771, 1000.000000000000000 ) ;
#1049 = ORIENTED_EDGE ( 'NONE', *, *, #241, .T. ) ;
#1050 = ORIENTED_EDGE ( 'NONE', *, *, #657, .F. ) ;
#1051 = APPROVAL ( #120, 'Coincidente' ) ;
#1052 = CARTESIAN_POINT ( 'NONE',  ( -6.000000000000021316, 0.000000000000000000, 4.000000000000000000 ) ) ;
#1053 = CARTESIAN_POINT ( 'NONE',  ( 5.999999999999991118, 38.00000000000000000, 4.000000000000000000 ) ) ;
#1054 = VECTOR ( 'NONE', #390, 1000.000000000000000 ) ;
#1055 = ORIENTED_EDGE ( 'NONE', *, *, #611, .F. ) ;
#1056 = VECTOR ( 'NONE', #587, 1000.000000000000000 ) ;
#1057 = VERTEX_POINT ( 'NONE', #695 ) ;
#1058 = DIRECTION ( 'NONE',  ( -0.000000000000000000, 0.000000000000000000, 1.000000000000000000 ) ) ;
#1059 = ORIENTED_EDGE ( 'NONE', *, *, #421, .T. ) ;
#1060 = COORDINATED_UNIVERSAL_TIME_OFFSET ( 3, 0, .BEHIND. ) ;
#1061 = ORIENTED_EDGE ( 'NONE', *, *, #326, .T. ) ;
#1062 = DIRECTION ( 'NONE',  ( 0.7071067811865462405, 0.7071067811865489050, 0.000000000000000000 ) ) ;
#1063 = EDGE_CURVE ( 'NONE', #83, #977, #706, .T. ) ;
#1064 = FACE_OUTER_BOUND ( 'NONE', #753, .T. ) ;
#1065 = ORIENTED_EDGE ( 'NONE', *, *, #649, .F. ) ;
#1066 = VECTOR ( 'NONE', #257, 1000.000000000000000 ) ;
#1067 = CARTESIAN_POINT ( 'NONE',  ( 5.999999999999991118, 19.00000000000021672, 0.000000000000000000 ) ) ;
#1068 = FACE_BOUND ( 'NONE', #95, .T. ) ;
#1069 = VECTOR ( 'NONE', #423, 1000.000000000000000 ) ;
#1070 = ORIENTED_EDGE ( 'NONE', *, *, #485, .F. ) ;
#1071 = FACE_OUTER_BOUND ( 'NONE', #299, .T. ) ;
#1072 = CARTESIAN_POINT ( 'NONE',  ( 5.999999999999991118, 0.000000000000000000, 4.000000000000000000 ) ) ;
#1073 = FACE_BOUND ( 'NONE', #391, .T. ) ;
#1074 = ORIENTED_EDGE ( 'NONE', *, *, #446, .F. ) ;
#1075 = CARTESIAN_POINT ( 'NONE',  ( 5.999999999999991118, 38.00000000000000000, 0.000000000000000000 ) ) ;
#1076 = ADVANCED_FACE ( 'NONE', ( #955 ), #937, .F. ) ;
#1077 = CYLINDRICAL_SURFACE ( 'NONE', #535, 10.00000000000000000 ) ;
ENDSEC;
END-ISO-10303-21;
