ISO-10303-21;
HEADER;
FILE_DESCRIPTION (( 'STEP AP203' ),
    '1' );
FILE_NAME ('eslabon_CDP_v2.STEP',
    '2026-09-14T13:32:39',
    ( '' ),
    ( '' ),
    'SwSTEP 2.0',
    'SolidWorks 2026',
    '' );
FILE_SCHEMA (( 'CONFIG_CONTROL_DESIGN' ));
ENDSEC;

DATA;
#1 = CYLINDRICAL_SURFACE ( 'NONE', #1190, 2.100000000000000089 ) ;
#2 = CALENDAR_DATE ( 2026, 14, 9 ) ;
#3 = ORIENTED_EDGE ( 'NONE', *, *, #90, .T. ) ;
#4 = DIRECTION ( 'NONE',  ( 0.9912617988564165206, 0.1319092344301240338, 0.000000000000000000 ) ) ;
#5 = VECTOR ( 'NONE', #248, 1000.000000000000000 ) ;
#6 = EDGE_CURVE ( 'NONE', #17, #121, #960, .T. ) ;
#7 = CIRCLE ( 'NONE', #580, 2.100000000000000089 ) ;
#8 = AXIS2_PLACEMENT_3D ( 'NONE', #733, #818, #1024 ) ;
#9 = CYLINDRICAL_SURFACE ( 'NONE', #85, 2.100000000000004530 ) ;
#10 = DIRECTION ( 'NONE',  ( 0.000000000000000000, 0.000000000000000000, 1.000000000000000000 ) ) ;
#11 = FACE_BOUND ( 'NONE', #1004, .T. ) ;
#12 = VERTEX_POINT ( 'NONE', #1222 ) ;
#13 = CARTESIAN_POINT ( 'NONE',  ( -13.89958383686705545, 7.618161528593489606, 4.829737272531298586 ) ) ;
#14 = CARTESIAN_POINT ( 'NONE',  ( -18.92476408197864757, -9.304755488527137075, 1.000000000000000000 ) ) ;
#15 = CARTESIAN_POINT ( 'NONE',  ( -96.99764685695583921, -7.238379486784013217, 4.000000000000003553 ) ) ;
#16 = DATE_AND_TIME ( #487, #309 ) ;
#17 = VERTEX_POINT ( 'NONE', #1217 ) ;
#18 = CARTESIAN_POINT ( 'NONE',  ( -56.00000000000019895, 269.3054965373763139, 6.000000000000000000 ) ) ;
#19 = UNCERTAINTY_MEASURE_WITH_UNIT (LENGTH_MEASURE( 1.000000000000000082E-05 ), #558, 'distance_accuracy_value', 'NONE');
#20 = CARTESIAN_POINT ( 'NONE',  ( -56.00000000000019895, 269.3054965373763139, 0.000000000000000000 ) ) ;
#21 = CARTESIAN_POINT ( 'NONE',  ( 0.000000000000000000, 0.000000000000000000, 6.000000000000000000 ) ) ;
#22 = EDGE_CURVE ( 'NONE', #544, #830, #44, .T. ) ;
#23 = VERTEX_POINT ( 'NONE', #860 ) ;
#24 = LINE ( 'NONE', #1067, #1194 ) ;
#25 = CIRCLE ( 'NONE', #64, 7.000000000000006217 ) ;
#26 = DIRECTION ( 'NONE',  ( 1.000000000000000000, 0.000000000000000000, 0.000000000000000000 ) ) ;
#27 = VECTOR ( 'NONE', #392, 1000.000000000000000 ) ;
#28 = CARTESIAN_POINT ( 'NONE',  ( -56.00000000000019895, 269.3054965373763139, 5.000000000000000000 ) ) ;
#29 = AXIS2_PLACEMENT_3D ( 'NONE', #838, #813, #435 ) ;
#30 = ORIENTED_EDGE ( 'NONE', *, *, #203, .T. ) ;
#31 = DIRECTION ( 'NONE',  ( -0.000000000000000000, -0.000000000000000000, -1.000000000000000000 ) ) ;
#32 = PRODUCT ( 'eslabon_CDP_v2', 'eslabon_CDP_v2', '', ( #96 ) ) ;
#33 = EDGE_CURVE ( 'NONE', #605, #337, #123, .T. ) ;
#34 = DIRECTION ( 'NONE',  ( 0.000000000000000000, 0.000000000000000000, 1.000000000000000000 ) ) ;
#35 = DIRECTION ( 'NONE',  ( -0.000000000000000000, -0.000000000000000000, -1.000000000000000000 ) ) ;
#36 = ORIENTED_EDGE ( 'NONE', *, *, #1168, .T. ) ;
#37 = CARTESIAN_POINT ( 'NONE',  ( -13.83628408463457582, 7.621357461352452844, 1.120129833663724650 ) ) ;
#38 = EDGE_CURVE ( 'NONE', #883, #169, #220, .T. ) ;
#39 = CARTESIAN_POINT ( 'NONE',  ( -97.79339571729180136, 7.602727044728429640, 4.693996359717411693 ) ) ;
#40 = CARTESIAN_POINT ( 'NONE',  ( -13.77142276770749341, -7.053046157585042941, 1.000000000000000000 ) ) ;
#41 = VERTEX_POINT ( 'NONE', #478 ) ;
#42 = DIRECTION ( 'NONE',  ( 1.000000000000000000, 0.000000000000000000, 0.000000000000000000 ) ) ;
#43 = CARTESIAN_POINT ( 'NONE',  ( -92.28378051144066774, -3.357184695388723217, 2.000000000000000000 ) ) ;
#44 = CIRCLE ( 'NONE', #421, 7.000000000000002665 ) ;
#45 = CARTESIAN_POINT ( 'NONE',  ( -2.100000000000000089, 0.000000000000000000, 0.000000000000000000 ) ) ;
#46 = CIRCLE ( 'NONE', #322, 7.000000000000002665 ) ;
#47 = EDGE_LOOP ( 'NONE', ( #426, #964, #250, #1089 ) ) ;
#48 = AXIS2_PLACEMENT_3D ( 'NONE', #518, #902, #715 ) ;
#49 = FACE_OUTER_BOUND ( 'NONE', #152, .T. ) ;
#50 = DIRECTION ( 'NONE',  ( -0.000000000000000000, -0.000000000000000000, -1.000000000000000000 ) ) ;
#51 = CARTESIAN_POINT ( 'NONE',  ( 0.000000000000000000, 0.000000000000000000, 6.000000000000000000 ) ) ;
#52 = ORIENTED_EDGE ( 'NONE', *, *, #347, .T. ) ;
#53 = CARTESIAN_POINT ( 'NONE',  ( -18.79285484754852220, -10.29601728738355249, 6.000000000000000000 ) ) ;
#54 = EDGE_CURVE ( 'NONE', #928, #870, #458, .T. ) ;
#55 = VERTEX_POINT ( 'NONE', #1027 ) ;
#56 = CYLINDRICAL_SURFACE ( 'NONE', #1097, 265.0662655892990074 ) ;
#57 = CARTESIAN_POINT ( 'NONE',  ( -92.28378051144066774, -3.357184695388723217, 6.000000000000000000 ) ) ;
#58 = EDGE_CURVE ( 'NONE', #956, #922, #143, .T. ) ;
#59 = ORIENTED_EDGE ( 'NONE', *, *, #255, .F. ) ;
#60 = DIRECTION ( 'NONE',  ( 1.000000000000000000, 0.000000000000000000, 0.000000000000000000 ) ) ;
#61 = ORIENTED_EDGE ( 'NONE', *, *, #484, .T. ) ;
#62 = DIRECTION ( 'NONE',  ( -0.000000000000000000, -0.000000000000000000, -1.000000000000000000 ) ) ;
#63 = CARTESIAN_POINT ( 'NONE',  ( -98.22857723229256521, 7.624636674846252404, 1.000000000000000000 ) ) ;
#64 = AXIS2_PLACEMENT_3D ( 'NONE', #57, #157, #1189 ) ;
#65 = VERTEX_POINT ( 'NONE', #564 ) ;
#66 = LINE ( 'NONE', #997, #886 ) ;
#67 = AXIS2_PLACEMENT_3D ( 'NONE', #970, #696, #485 ) ;
#68 = EDGE_LOOP ( 'NONE', ( #59, #1044, #717, #1151 ) ) ;
#69 = ADVANCED_FACE ( 'NONE', ( #472 ), #1, .F. ) ;
#70 = CARTESIAN_POINT ( 'NONE',  ( -98.21728835716886863, 7.624065473132525916, 1.054599774174598270 ) ) ;
#71 = ORIENTED_EDGE ( 'NONE', *, *, #386, .T. ) ;
#72 = CARTESIAN_POINT ( 'NONE',  ( -92.28378051144066774, -3.357184695388723217, 6.000000000000000000 ) ) ;
#73 = MANIFOLD_SOLID_BREP ( 'Redondeo2', #679 ) ;
#74 = ORIENTED_EDGE ( 'NONE', *, *, #58, .F. ) ;
#75 = EDGE_CURVE ( 'NONE', #65, #870, #640, .T. ) ;
#76 = DIRECTION ( 'NONE',  ( 1.000000000000000000, 0.000000000000000000, 0.000000000000000000 ) ) ;
#77 = ORIENTED_EDGE ( 'NONE', *, *, #753, .F. ) ;
#78 = DIRECTION ( 'NONE',  ( -1.000000000000000000, 0.000000000000000000, 0.000000000000000000 ) ) ;
#79 = B_SPLINE_CURVE_WITH_KNOTS ( 'NONE', 3,
 ( #1183, #921, #716, #1003, #341, #1093, #241, #526, #521, #532, #151, #540, #909, #355, #989, #70, #447, #63 ),
 .UNSPECIFIED., .F., .F.,
 ( 4, 2, 2, 2, 2, 2, 2, 2, 4 ),
 ( 1.930575044324368255E-15, 0.005294900317401843477, 0.007942350476101799409, 0.009266075555451778675, 0.009927938095126787391, 0.01025886936496427267, 0.01042433499988301357, 0.01050706781734240224, 0.01058980063480178917 ),
 .UNSPECIFIED. ) ;
#80 = ORIENTED_EDGE ( 'NONE', *, *, #667, .F. ) ;
#81 = LINE ( 'NONE', #857, #881 ) ;
#82 = EDGE_LOOP ( 'NONE', ( #1023, #746, #1025, #237, #979 ) ) ;
#83 = AXIS2_PLACEMENT_3D ( 'NONE', #334, #234, #628 ) ;
#84 = ORIENTED_EDGE ( 'NONE', *, *, #446, .F. ) ;
#85 = AXIS2_PLACEMENT_3D ( 'NONE', #1208, #174, #736 ) ;
#86 = CARTESIAN_POINT ( 'NONE',  ( -14.09717784283725450, 7.608213940352204219, 4.731409209743334898 ) ) ;
#87 = AXIS2_PLACEMENT_3D ( 'NONE', #1056, #1045, #470 ) ;
#88 = DIRECTION ( 'NONE',  ( -0.000000000000000000, -0.000000000000000000, -1.000000000000000000 ) ) ;
#89 = CARTESIAN_POINT ( 'NONE',  ( 0.000000000000000000, 0.000000000000000000, 6.000000000000000000 ) ) ;
#90 = EDGE_CURVE ( 'NONE', #376, #629, #578, .T. ) ;
#91 = APPROVAL_ROLE ( '' ) ;
#92 = EDGE_LOOP ( 'NONE', ( #635, #799, #945, #77 ) ) ;
#93 = CARTESIAN_POINT ( 'NONE',  ( -13.77142276770739926, 7.624636674846254181, 5.000000000000000000 ) ) ;
#94 = CARTESIAN_POINT ( 'NONE',  ( -87.81610454478244776, 7.162924424653827060, 4.000000000000000000 ) ) ;
#95 = DIRECTION ( 'NONE',  ( 1.000000000000000000, 0.000000000000000000, 0.000000000000000000 ) ) ;
#96 = MECHANICAL_CONTEXT ( 'NONE', #1073, 'mechanical' ) ;
#97 = EDGE_CURVE ( 'NONE', #1165, #668, #853, .T. ) ;
#98 = ORIENTED_EDGE ( 'NONE', *, *, #547, .F. ) ;
#99 = CARTESIAN_POINT ( 'NONE',  ( -97.45709246830136863, -7.169873028395931769, 1.911958548032865579 ) ) ;
#100 = DIRECTION ( 'NONE',  ( 1.000000000000000000, 0.000000000000000000, 0.000000000000000000 ) ) ;
#101 = DIRECTION ( 'NONE',  ( -0.000000000000000000, -0.000000000000000000, -1.000000000000000000 ) ) ;
#102 = PLANE ( 'NONE',  #687 ) ;
#103 = ORIENTED_EDGE ( 'NONE', *, *, #178, .F. ) ;
#104 = CARTESIAN_POINT ( 'NONE',  ( -97.15298106853356330, -7.215303117240177144, 1.983892958252975847 ) ) ;
#105 = AXIS2_PLACEMENT_3D ( 'NONE', #1138, #477, #359 ) ;
#106 = VECTOR ( 'NONE', #170, 1000.000000000000000 ) ;
#107 = TOROIDAL_SURFACE ( 'NONE', #385, 6.000000000000005329, 1.000000000000000000 ) ;
#108 = DIRECTION ( 'NONE',  ( 0.000000000000000000, 0.000000000000000000, 1.000000000000000000 ) ) ;
#109 = ADVANCED_FACE ( 'NONE', ( #288 ), #1048, .F. ) ;
#110 = CARTESIAN_POINT ( 'NONE',  ( -97.60864787349861160, -7.147096247134550495, 4.145434021350671294 ) ) ;
#111 = COORDINATED_UNIVERSAL_TIME_OFFSET ( 3, 0, .BEHIND. ) ;
#112 = VERTEX_POINT ( 'NONE', #175 ) ;
#113 = CARTESIAN_POINT ( 'NONE',  ( -98.22857723229260785, -7.053046157585081133, 1.161477607381930177 ) ) ;
#114 = APPROVAL_PERSON_ORGANIZATION ( #1123, #1135, #401 ) ;
#115 = EDGE_CURVE ( 'NONE', #912, #1066, #598, .T. ) ;
#116 = CARTESIAN_POINT ( 'NONE',  ( -92.28378051144066774, -3.357184695388723217, 0.000000000000000000 ) ) ;
#117 = FACE_OUTER_BOUND ( 'NONE', #819, .T. ) ;
#118 = ORIENTED_EDGE ( 'NONE', *, *, #1124, .T. ) ;
#119 = CARTESIAN_POINT ( 'NONE',  ( -112.0000000000000711, -1.110223024625156540E-13, 0.000000000000000000 ) ) ;
#120 = CARTESIAN_POINT ( 'NONE',  ( -13.82352535693538620, -7.061016881740241224, 1.317497458953918121 ) ) ;
#121 = VERTEX_POINT ( 'NONE', #1210 ) ;
#122 = CARTESIAN_POINT ( 'NONE',  ( -13.77142276770739926, 7.624636674846254181, 1.000000000000000000 ) ) ;
#123 = CIRCLE ( 'NONE', #439, 9.999999999999994671 ) ;
#124 = DIRECTION ( 'NONE',  ( 0.000000000000000000, 0.000000000000000000, 1.000000000000000000 ) ) ;
#125 = AXIS2_PLACEMENT_3D ( 'NONE', #72, #1206, #923 ) ;
#126 = CARTESIAN_POINT ( 'NONE',  ( -37.85810974427979403, 132.9741559209938089, 2.000000000000000000 ) ) ;
#127 = EDGE_CURVE ( 'NONE', #235, #912, #272, .T. ) ;
#128 = ORIENTED_EDGE ( 'NONE', *, *, #631, .T. ) ;
#129 = CARTESIAN_POINT ( 'NONE',  ( -87.81610454478244776, 7.162924424653827060, 2.000000000000000000 ) ) ;
#130 = PRODUCT_DEFINITION_SHAPE ( 'NONE', 'NONE',  #412 ) ;
#131 = CYLINDRICAL_SURFACE ( 'NONE', #999, 268.0662655892990074 ) ;
#132 = CARTESIAN_POINT ( 'NONE',  ( -15.16050910466865886, -7.261733695991424042, 4.000000000000000000 ) ) ;
#133 = EDGE_LOOP ( 'NONE', ( #271, #1098, #1006, #833 ) ) ;
#134 = CARTESIAN_POINT ( 'NONE',  ( 41.31947719428340093, 11.24600411733359095, 6.000000000000000000 ) ) ;
#135 = ADVANCED_FACE ( 'NONE', ( #394 ), #1059, .T. ) ;
#136 = ORIENTED_EDGE ( 'NONE', *, *, #33, .F. ) ;
#137 = CARTESIAN_POINT ( 'NONE',  ( -93.97992548216861053, 7.420063655051874818, 4.164221880788441688 ) ) ;
#138 = DIRECTION ( 'NONE',  ( 0.000000000000000000, 0.000000000000000000, 1.000000000000000000 ) ) ;
#139 = ORIENTED_EDGE ( 'NONE', *, *, #496, .T. ) ;
#140 = FACE_OUTER_BOUND ( 'NONE', #243, .T. ) ;
#141 = DIRECTION ( 'NONE',  ( 1.000000000000000000, -8.673617379884027583E-16, 0.000000000000000000 ) ) ;
#142 = APPLICATION_CONTEXT ( 'configuration controlled 3d designs of mechanical parts and assemblies' ) ;
#143 = CIRCLE ( 'NONE', #339, 2.100000000000000089 ) ;
#144 = DIRECTION ( 'NONE',  ( -1.000000000000000000, 0.000000000000000000, 0.000000000000000000 ) ) ;
#145 = CIRCLE ( 'NONE', #600, 1.000000000000000444 ) ;
#146 = ORIENTED_EDGE ( 'NONE', *, *, #992, .T. ) ;
#147 = CARTESIAN_POINT ( 'NONE',  ( -56.00000000000019895, 269.3054965373763139, 0.000000000000000000 ) ) ;
#148 = ORIENTED_EDGE ( 'NONE', *, *, #54, .T. ) ;
#149 = FACE_OUTER_BOUND ( 'NONE', #497, .T. ) ;
#150 = ADVANCED_FACE ( 'NONE', ( #117 ), #798, .F. ) ;
#151 = CARTESIAN_POINT ( 'NONE',  ( -97.90282215716320025, 7.608213940352341886, 1.268590790257154266 ) ) ;
#152 = EDGE_LOOP ( 'NONE', ( #550, #812, #793, #728 ) ) ;
#153 = CARTESIAN_POINT ( 'NONE',  ( -14.10106175405562823, 7.608018920061202728, 1.270075028437857911 ) ) ;
#154 = EDGE_LOOP ( 'NONE', ( #1195, #443 ) ) ;
#155 = DESIGN_CONTEXT ( 'detailed design', #142, 'design' ) ;
#156 = DIRECTION ( 'NONE',  ( -0.000000000000000000, -0.000000000000000000, -1.000000000000000000 ) ) ;
#157 = DIRECTION ( 'NONE',  ( 0.000000000000000000, 0.000000000000000000, 1.000000000000000000 ) ) ;
#158 = EDGE_LOOP ( 'NONE', ( #445, #607, #835, #894, #738 ) ) ;
#159 = DIRECTION ( 'NONE',  ( -0.000000000000000000, -0.000000000000000000, -1.000000000000000000 ) ) ;
#160 = ORIENTED_EDGE ( 'NONE', *, *, #533, .F. ) ;
#161 = CARTESIAN_POINT ( 'NONE',  ( -98.09793220356270638, 7.618036201953668929, 4.828103666512155279 ) ) ;
#162 = DIRECTION ( 'NONE',  ( -0.000000000000000000, -0.000000000000000000, -1.000000000000000000 ) ) ;
#163 = AXIS2_PLACEMENT_3D ( 'NONE', #230, #138, #931 ) ;
#164 = ORIENTED_EDGE ( 'NONE', *, *, #697, .T. ) ;
#165 = CARTESIAN_POINT ( 'NONE',  ( 0.000000000000000000, 0.000000000000000000, 0.000000000000000000 ) ) ;
#166 = AXIS2_PLACEMENT_3D ( 'NONE', #836, #194, #100 ) ;
#167 = EDGE_CURVE ( 'NONE', #534, #235, #877, .T. ) ;
#168 = CIRCLE ( 'NONE', #87, 279.5662655892990074 ) ;
#169 = VERTEX_POINT ( 'NONE', #317 ) ;
#170 = DIRECTION ( 'NONE',  ( -0.000000000000000000, -0.000000000000000000, -1.000000000000000000 ) ) ;
#171 = ORIENTED_EDGE ( 'NONE', *, *, #898, .F. ) ;
#172 = FACE_OUTER_BOUND ( 'NONE', #92, .T. ) ;
#173 = VERTEX_POINT ( 'NONE', #1149 ) ;
#174 = DIRECTION ( 'NONE',  ( -0.000000000000000000, -0.000000000000000000, -1.000000000000000000 ) ) ;
#175 = CARTESIAN_POINT ( 'NONE',  ( -93.20714515245173004, -10.29601728738355249, 6.000000000000000000 ) ) ;
#176 = APPROVAL_STATUS ( 'not_yet_approved' ) ;
#177 = ORIENTED_EDGE ( 'NONE', *, *, #1172, .T. ) ;
#178 = EDGE_CURVE ( 'NONE', #830, #845, #938, .T. ) ;
#179 = CARTESIAN_POINT ( 'NONE',  ( -56.00000000000019895, 269.3054965373763139, 4.000000000000000000 ) ) ;
#180 = CARTESIAN_POINT ( 'NONE',  ( 0.000000000000000000, 0.000000000000000000, 6.000000000000000000 ) ) ;
#181 = AXIS2_PLACEMENT_3D ( 'NONE', #21, #873, #576 ) ;
#182 = EDGE_LOOP ( 'NONE', ( #218, #1112, #30, #201 ) ) ;
#183 = AXIS2_PLACEMENT_3D ( 'NONE', #754, #221, #594 ) ;
#184 = CARTESIAN_POINT ( 'NONE',  ( -15.82093303063218670, 7.523355362892786502, 4.371882171054837229 ) ) ;
#185 = AXIS2_PLACEMENT_3D ( 'NONE', #800, #326, #42 ) ;
#186 = AXIS2_PLACEMENT_3D ( 'NONE', #236, #1192, #615 ) ;
#187 = CARTESIAN_POINT ( 'NONE',  ( -13.77142276770749341, -7.053046157585042941, 4.000000000000000000 ) ) ;
#188 = EDGE_CURVE ( 'NONE', #845, #365, #320, .T. ) ;
#189 = CARTESIAN_POINT ( 'NONE',  ( -112.0000000000000711, -1.110223024625156540E-13, 6.000000000000000000 ) ) ;
#190 = PERSON_AND_ORGANIZATION ( #18446744073709551615, #18446744073709551615 ) ;
#191 = SECURITY_CLASSIFICATION ( '', '', #955 ) ;
#192 = ORIENTED_EDGE ( 'NONE', *, *, #484, .F. ) ;
#193 = CARTESIAN_POINT ( 'NONE',  ( -15.16050910466865886, -7.261733695991424042, 2.000000000000000000 ) ) ;
#194 = DIRECTION ( 'NONE',  ( 0.000000000000000000, 0.000000000000000000, 1.000000000000000000 ) ) ;
#195 = CARTESIAN_POINT ( 'NONE',  ( -92.28378051144066774, -3.357184695388723217, 6.000000000000000000 ) ) ;
#196 = PERSON_AND_ORGANIZATION ( #18446744073709551615, #18446744073709551615 ) ;
#197 = ORIENTED_EDGE ( 'NONE', *, *, #261, .T. ) ;
#198 = DIRECTION ( 'NONE',  ( 0.000000000000000000, 0.000000000000000000, 1.000000000000000000 ) ) ;
#199 = CARTESIAN_POINT ( 'NONE',  ( -97.87965258285846915, -7.106171694408839556, 4.309685467211314069 ) ) ;
#200 = PERSON_AND_ORGANIZATION_ROLE ( 'classification_officer' ) ;
#201 = ORIENTED_EDGE ( 'NONE', *, *, #720, .T. ) ;
#202 = FACE_OUTER_BOUND ( 'NONE', #925, .T. ) ;
#203 = EDGE_CURVE ( 'NONE', #1034, #567, #517, .T. ) ;
#204 = VECTOR ( 'NONE', #101, 1000.000000000000000 ) ;
#205 = CIRCLE ( 'NONE', #681, 2.100000000000004530 ) ;
#206 = AXIS2_PLACEMENT_3D ( 'NONE', #43, #62, #141 ) ;
#207 = CARTESIAN_POINT ( 'NONE',  ( -56.00000000000019895, 269.3054965373763139, 6.000000000000000000 ) ) ;
#208 = DIRECTION ( 'NONE',  ( 0.000000000000000000, 0.000000000000000000, 1.000000000000000000 ) ) ;
#209 = ORIENTED_EDGE ( 'NONE', *, *, #386, .F. ) ;
#210 = CARTESIAN_POINT ( 'NONE',  ( 41.31947719428340093, 11.24600411733359095, 6.000000000000000000 ) ) ;
#211 = DIRECTION ( 'NONE',  ( 1.000000000000000000, 0.000000000000000000, 0.000000000000000000 ) ) ;
#212 = CARTESIAN_POINT ( 'NONE',  ( -14.39135212650145768, -7.147096247134499869, 1.854565978649321822 ) ) ;
#213 = VERTEX_POINT ( 'NONE', #1164 ) ;
#214 = CARTESIAN_POINT ( 'NONE',  ( -112.0000000000000711, -1.110223024625156540E-13, 6.000000000000000000 ) ) ;
#215 = LINE ( 'NONE', #1171, #743 ) ;
#216 = ADVANCED_FACE ( 'NONE', ( #603 ), #1036, .F. ) ;
#217 = CARTESIAN_POINT ( 'NONE',  ( 39.21947719428340662, 11.24600411733359095, 6.000000000000000000 ) ) ;
#218 = ORIENTED_EDGE ( 'NONE', *, *, #379, .T. ) ;
#219 = DIRECTION ( 'NONE',  ( -1.000000000000000000, 0.000000000000000000, 0.000000000000000000 ) ) ;
#220 = CIRCLE ( 'NONE', #499, 2.099999999999997868 ) ;
#221 = DIRECTION ( 'NONE',  ( -0.000000000000000000, -0.000000000000000000, -1.000000000000000000 ) ) ;
#222 = AXIS2_PLACEMENT_3D ( 'NONE', #887, #867, #393 ) ;
#223 = CIRCLE ( 'NONE', #286, 1.000000000000000444 ) ;
#224 = DIRECTION ( 'NONE',  ( -0.000000000000000000, -0.000000000000000000, -1.000000000000000000 ) ) ;
#225 = ADVANCED_FACE ( 'NONE', ( #977 ), #983, .F. ) ;
#226 = VERTEX_POINT ( 'NONE', #312 ) ;
#227 = CARTESIAN_POINT ( 'NONE',  ( -13.81561593924577913, 7.622401875367566859, 1.100805802341846551 ) ) ;
#228 = ORIENTED_EDGE ( 'NONE', *, *, #446, .T. ) ;
#229 = LINE ( 'NONE', #233, #1215 ) ;
#230 = CARTESIAN_POINT ( 'NONE',  ( -92.28378051144066774, -3.357184695388723217, 5.000000000000000000 ) ) ;
#231 = ORIENTED_EDGE ( 'NONE', *, *, #618, .T. ) ;
#232 = CARTESIAN_POINT ( 'NONE',  ( -92.28378051144066774, -3.357184695388723217, 1.000000000000000000 ) ) ;
#233 = CARTESIAN_POINT ( 'NONE',  ( 37.11947719428340520, 11.24600411733359095, 6.000000000000000000 ) ) ;
#234 = DIRECTION ( 'NONE',  ( -0.000000000000000000, -0.000000000000000000, -1.000000000000000000 ) ) ;
#235 = VERTEX_POINT ( 'NONE', #132 ) ;
#236 = CARTESIAN_POINT ( 'NONE',  ( -112.0000000000000711, -1.110223024625156540E-13, 6.000000000000000000 ) ) ;
#237 = ORIENTED_EDGE ( 'NONE', *, *, #1204, .F. ) ;
#238 = ADVANCED_FACE ( 'NONE', ( #508 ), #792, .F. ) ;
#239 = CARTESIAN_POINT ( 'NONE',  ( -91.36041587042983281, 3.581647896606254822, 6.000000000000000000 ) ) ;
#240 = VECTOR ( 'NONE', #330, 1000.000000000000000 ) ;
#241 = CARTESIAN_POINT ( 'NONE',  ( -96.61635436290229961, 7.544519677468578323, 1.570423844937802960 ) ) ;
#242 = AXIS2_PLACEMENT_3D ( 'NONE', #1166, #875, #420 ) ;
#243 = EDGE_LOOP ( 'NONE', ( #231, #688, #454, #403 ) ) ;
#244 = CARTESIAN_POINT ( 'NONE',  ( -109.9000000000000625, -1.107651266346947128E-13, 6.000000000000000000 ) ) ;
#245 = EDGE_LOOP ( 'NONE', ( #262, #301 ) ) ;
#246 = DIRECTION ( 'NONE',  ( 1.000000000000000000, 0.000000000000000000, 0.000000000000000000 ) ) ;
#247 = AXIS2_PLACEMENT_3D ( 'NONE', #147, #1012, #523 ) ;
#248 = DIRECTION ( 'NONE',  ( -0.000000000000000000, -0.000000000000000000, -1.000000000000000000 ) ) ;
#249 = EDGE_CURVE ( 'NONE', #542, #213, #282, .T. ) ;
#250 = ORIENTED_EDGE ( 'NONE', *, *, #859, .F. ) ;
#251 = DIRECTION ( 'NONE',  ( 1.000000000000000000, 0.000000000000000000, 0.000000000000000000 ) ) ;
#252 = EDGE_LOOP ( 'NONE', ( #900, #850, #164, #276 ) ) ;
#253 = CARTESIAN_POINT ( 'NONE',  ( -98.21702477241680640, 7.624052135210575010, 4.944786587304551340 ) ) ;
#254 = DIRECTION ( 'NONE',  ( 0.000000000000000000, 0.000000000000000000, 1.000000000000000000 ) ) ;
#255 = EDGE_CURVE ( 'NONE', #256, #930, #1202, .T. ) ;
#256 = VERTEX_POINT ( 'NONE', #425 ) ;
#257 = DIRECTION ( 'NONE',  ( 0.1319092344301415476, 0.9912617988564141891, 0.000000000000000000 ) ) ;
#258 = EDGE_LOOP ( 'NONE', ( #103, #1116, #623, #515 ) ) ;
#259 = DIRECTION ( 'NONE',  ( 1.000000000000000000, 0.000000000000000000, 0.000000000000000000 ) ) ;
#260 = AXIS2_PLACEMENT_3D ( 'NONE', #195, #570, #749 ) ;
#261 = EDGE_CURVE ( 'NONE', #448, #707, #976, .T. ) ;
#262 = ORIENTED_EDGE ( 'NONE', *, *, #618, .F. ) ;
#263 = DIRECTION ( 'NONE',  ( 0.000000000000000000, 0.000000000000000000, 1.000000000000000000 ) ) ;
#264 = CIRCLE ( 'NONE', #1214, 7.000000000000006217 ) ;
#265 = AXIS2_PLACEMENT_3D ( 'NONE', #562, #965, #957 ) ;
#266 = ORIENTED_EDGE ( 'NONE', *, *, #75, .T. ) ;
#267 = CARTESIAN_POINT ( 'NONE',  ( -109.9641269393749070, 9.790567954976904019, 0.000000000000000000 ) ) ;
#268 = CC_DESIGN_APPROVAL ( #1144, ( #412 ) ) ;
#269 = CARTESIAN_POINT ( 'NONE',  ( -56.00000000000019895, 269.3054965373763139, 0.000000000000000000 ) ) ;
#270 = FACE_OUTER_BOUND ( 'NONE', #82, .T. ) ;
#271 = ORIENTED_EDGE ( 'NONE', *, *, #992, .F. ) ;
#272 = B_SPLINE_CURVE_WITH_KNOTS ( 'NONE', 3,
 ( #361, #553, #932, #368, #1127, #274, #652, #495, #409, #399 ),
 .UNSPECIFIED., .F., .F.,
 ( 4, 2, 2, 2, 4 ),
 ( 2.597744785232103399E-16, 0.0004727549295263408068, 0.0009455098590524218388, 0.001418264788578502871, 0.001891019718104583903 ),
 .UNSPECIFIED. ) ;
#273 = CARTESIAN_POINT ( 'NONE',  ( -98.22857723229256521, 7.624636674846252404, 5.000000000000000000 ) ) ;
#274 = CARTESIAN_POINT ( 'NONE',  ( -14.12264608499472374, -7.106519659675695877, 4.308011335936210884 ) ) ;
#275 = DATE_TIME_ROLE ( 'creation_date' ) ;
#276 = ORIENTED_EDGE ( 'NONE', *, *, #97, .F. ) ;
#277 = DIRECTION ( 'NONE',  ( -0.1319092344301240616, 0.9912617988564165206, 0.000000000000000000 ) ) ;
#278 = EDGE_CURVE ( 'NONE', #707, #448, #995, .T. ) ;
#279 = CARTESIAN_POINT ( 'NONE',  ( -93.20714515245173004, -10.29601728738355249, 6.000000000000000000 ) ) ;
#280 = DIRECTION ( 'NONE',  ( 0.000000000000000000, 0.000000000000000000, 1.000000000000000000 ) ) ;
#281 = PERSON_AND_ORGANIZATION ( #18446744073709551615, #18446744073709551615 ) ;
#282 = CIRCLE ( 'NONE', #381, 9.999999999999994671 ) ;
#283 = VERTEX_POINT ( 'NONE', #45 ) ;
#284 = AXIS2_PLACEMENT_3D ( 'NONE', #179, #1047, #1216 ) ;
#285 = DIRECTION ( 'NONE',  ( 1.000000000000000000, 0.000000000000000000, 0.000000000000000000 ) ) ;
#286 = AXIS2_PLACEMENT_3D ( 'NONE', #1142, #4, #277 ) ;
#287 = DIRECTION ( 'NONE',  ( 1.000000000000000000, 0.000000000000000000, 0.000000000000000000 ) ) ;
#288 = FACE_OUTER_BOUND ( 'NONE', #951, .T. ) ;
#289 = APPROVAL_DATE_TIME ( #764, #735 ) ;
#290 = ADVANCED_FACE ( 'NONE', ( #994 ), #433, .F. ) ;
#291 = ORIENTED_EDGE ( 'NONE', *, *, #811, .F. ) ;
#292 = CARTESIAN_POINT ( 'NONE',  ( -87.81610454478244776, 7.162924424653827060, 4.000000000000000000 ) ) ;
#293 = DIRECTION ( 'NONE',  ( -0.000000000000000000, -0.000000000000000000, -1.000000000000000000 ) ) ;
#294 = DIRECTION ( 'NONE',  ( 0.9912617988564114135, -0.1319092344301615594, 0.000000000000000000 ) ) ;
#295 = EDGE_CURVE ( 'NONE', #1019, #996, #617, .T. ) ;
#296 =( NAMED_UNIT ( * ) SI_UNIT ( $, .STERADIAN. ) SOLID_ANGLE_UNIT ( ) );
#297 = ORIENTED_EDGE ( 'NONE', *, *, #1009, .T. ) ;
#298 = CARTESIAN_POINT ( 'NONE',  ( -56.00000000000039080, 555.8110695203223486, 4.000000000000000000 ) ) ;
#299 = CYLINDRICAL_SURFACE ( 'NONE', #222, 9.999999999999994671 ) ;
#300 = DIRECTION ( 'NONE',  ( -1.000000000000000000, 0.000000000000000000, 0.000000000000000000 ) ) ;
#301 = ORIENTED_EDGE ( 'NONE', *, *, #1172, .F. ) ;
#302 = CARTESIAN_POINT ( 'NONE',  ( -14.20191175257143890, 7.602962071533378996, 4.695582526335655871 ) ) ;
#303 = EDGE_CURVE ( 'NONE', #922, #956, #1075, .T. ) ;
#304 = AXIS2_PLACEMENT_3D ( 'NONE', #338, #908, #815 ) ;
#305 = DIRECTION ( 'NONE',  ( 0.000000000000000000, 0.000000000000000000, 1.000000000000000000 ) ) ;
#306 = DIRECTION ( 'NONE',  ( 0.000000000000000000, 0.000000000000000000, 1.000000000000000000 ) ) ;
#307 = ORIENTED_EDGE ( 'NONE', *, *, #645, .T. ) ;
#308 = CARTESIAN_POINT ( 'NONE',  ( 35.75778490023610345, 20.62772498620053341, 6.000000000000000000 ) ) ;
#309 = LOCAL_TIME ( 10, 32, 39.00000000000000000, #111 ) ;
#310 = EDGE_CURVE ( 'NONE', #996, #740, #79, .T. ) ;
#311 = CARTESIAN_POINT ( 'NONE',  ( -24.18389545521757711, 7.162924424653827060, 4.000000000000000000 ) ) ;
#312 = CARTESIAN_POINT ( 'NONE',  ( -91.36041587042983281, 3.581647896606254822, 6.000000000000000000 ) ) ;
#313 = ORIENTED_EDGE ( 'NONE', *, *, #507, .T. ) ;
#314 = CARTESIAN_POINT ( 'NONE',  ( 2.100000000000000089, 2.571758278209441957E-16, 6.000000000000000000 ) ) ;
#315 = EDGE_CURVE ( 'NONE', #365, #928, #538, .T. ) ;
#316 = DIRECTION ( 'NONE',  ( -0.000000000000000000, -0.000000000000000000, -1.000000000000000000 ) ) ;
#317 = CARTESIAN_POINT ( 'NONE',  ( 37.11947719428340520, 11.24600411733359095, 0.000000000000000000 ) ) ;
#318 = EDGE_LOOP ( 'NONE', ( #1110, #949, #313, #693 ) ) ;
#319 = FACE_OUTER_BOUND ( 'NONE', #258, .T. ) ;
#320 = CIRCLE ( 'NONE', #779, 6.000000000000001776 ) ;
#321 = FACE_BOUND ( 'NONE', #158, .T. ) ;
#322 = AXIS2_PLACEMENT_3D ( 'NONE', #555, #760, #259 ) ;
#323 = CIRCLE ( 'NONE', #1021, 0.9999999999999993339 ) ;
#324 = CARTESIAN_POINT ( 'NONE',  ( -98.00076787184670479, -7.087774456928260136, 4.417494825162041394 ) ) ;
#325 = ORIENTED_EDGE ( 'NONE', *, *, #656, .T. ) ;
#326 = DIRECTION ( 'NONE',  ( 0.000000000000000000, 0.000000000000000000, 1.000000000000000000 ) ) ;
#327 = EDGE_CURVE ( 'NONE', #1176, #17, #914, .T. ) ;
#328 = CC_DESIGN_APPROVAL ( #735, ( #866 ) ) ;
#329 = FACE_OUTER_BOUND ( 'NONE', #133, .T. ) ;
#330 = DIRECTION ( 'NONE',  ( -0.000000000000000000, -0.000000000000000000, -1.000000000000000000 ) ) ;
#331 = ADVANCED_FACE ( 'NONE', ( #816 ), #441, .T. ) ;
#332 = ORIENTED_EDGE ( 'NONE', *, *, #436, .T. ) ;
#333 = CARTESIAN_POINT ( 'NONE',  ( -56.00000000000019895, 269.3054965373763139, 5.000000000000000000 ) ) ;
#334 = CARTESIAN_POINT ( 'NONE',  ( -56.00000000000019895, 269.3054965373763139, 2.000000000000000000 ) ) ;
#335 = VERTEX_POINT ( 'NONE', #1084 ) ;
#336 = CARTESIAN_POINT ( 'NONE',  ( -14.52450186391073039, 7.586850648213949277, 1.401629016012977624 ) ) ;
#337 = VERTEX_POINT ( 'NONE', #711 ) ;
#338 = CARTESIAN_POINT ( 'NONE',  ( -84.00000000000012790, 134.6527482686881001, 6.000000000000000000 ) ) ;
#339 = AXIS2_PLACEMENT_3D ( 'NONE', #180, #280, #557 ) ;
#340 = CIRCLE ( 'NONE', #1175, 268.0662655892990074 ) ;
#341 = CARTESIAN_POINT ( 'NONE',  ( -94.86482962543261976, 7.460791628387610785, 1.775233280702808392 ) ) ;
#342 = TOROIDAL_SURFACE ( 'NONE', #500, 6.000000000000002665, 1.000000000000000000 ) ;
#343 = ORIENTED_EDGE ( 'NONE', *, *, #249, .T. ) ;
#344 = VECTOR ( 'NONE', #159, 1000.000000000000000 ) ;
#345 = DIRECTION ( 'NONE',  ( -0.000000000000000000, -0.000000000000000000, -1.000000000000000000 ) ) ;
#346 = ORIENTED_EDGE ( 'NONE', *, *, #255, .T. ) ;
#347 = EDGE_CURVE ( 'NONE', #226, #1205, #25, .T. ) ;
#348 = FACE_BOUND ( 'NONE', #245, .T. ) ;
#349 = CIRCLE ( 'NONE', #247, 285.0662655892989505 ) ;
#350 = DIRECTION ( 'NONE',  ( 1.000000000000000000, 0.000000000000000000, 0.000000000000000000 ) ) ;
#351 = ORIENTED_EDGE ( 'NONE', *, *, #315, .T. ) ;
#352 = CARTESIAN_POINT ( 'NONE',  ( -18.02007451783138592, 7.420063655051933438, 1.835778119211552095 ) ) ;
#353 = ORIENTED_EDGE ( 'NONE', *, *, #1168, .F. ) ;
#354 = EDGE_CURVE ( 'NONE', #173, #376, #1102, .T. ) ;
#355 = CARTESIAN_POINT ( 'NONE',  ( -98.16491419719632461, 7.621418003282634857, 1.119017104888813119 ) ) ;
#356 = EDGE_LOOP ( 'NONE', ( #910, #450, #1187, #1199 ) ) ;
#357 = CARTESIAN_POINT ( 'NONE',  ( -56.00000000000019895, 269.3054965373763139, 1.000000000000000000 ) ) ;
#358 = VERTEX_POINT ( 'NONE', #805 ) ;
#359 = DIRECTION ( 'NONE',  ( 1.000000000000000000, 0.000000000000000000, 0.000000000000000000 ) ) ;
#360 = AXIS2_PLACEMENT_3D ( 'NONE', #28, #224, #786 ) ;
#361 = CARTESIAN_POINT ( 'NONE',  ( -15.16050910466865886, -7.261733695991424042, 4.000000000000000000 ) ) ;
#362 = DIRECTION ( 'NONE',  ( -0.000000000000000000, -0.000000000000000000, -1.000000000000000000 ) ) ;
#363 = CIRCLE ( 'NONE', #1136, 2.099999999999997868 ) ;
#364 = VECTOR ( 'NONE', #619, 1000.000000000000000 ) ;
#365 = VERTEX_POINT ( 'NONE', #1008 ) ;
#366 = DIRECTION ( 'NONE',  ( -0.000000000000000000, -0.000000000000000000, -1.000000000000000000 ) ) ;
#367 = LOCAL_TIME ( 10, 32, 39.00000000000000000, #861 ) ;
#368 = CARTESIAN_POINT ( 'NONE',  ( -14.54290753169876460, -7.169873028395840286, 4.088041451967100670 ) ) ;
#369 = COORDINATED_UNIVERSAL_TIME_OFFSET ( 3, 0, .BEHIND. ) ;
#370 = ADVANCED_FACE ( 'NONE', ( #825 ), #702, .F. ) ;
#371 = ORIENTED_EDGE ( 'NONE', *, *, #706, .F. ) ;
#372 = CARTESIAN_POINT ( 'NONE',  ( -13.78271164283246719, 7.624065473132347392, 4.945400225825994589 ) ) ;
#373 = CYLINDRICAL_SURFACE ( 'NONE', #183, 7.000000000000002665 ) ;
#374 = ORIENTED_EDGE ( 'NONE', *, *, #1100, .F. ) ;
#375 = APPLICATION_PROTOCOL_DEFINITION ( 'international standard', 'config_control_design', 1994, #142 ) ;
#376 = VERTEX_POINT ( 'NONE', #1198 ) ;
#377 = FACE_OUTER_BOUND ( 'NONE', #918, .T. ) ;
#378 = DIRECTION ( 'NONE',  ( 1.000000000000000000, 0.000000000000000000, 0.000000000000000000 ) ) ;
#379 = EDGE_CURVE ( 'NONE', #740, #1095, #480, .T. ) ;
#380 = CARTESIAN_POINT ( 'NONE',  ( -92.28378051144066774, -3.357184695388723217, 1.000000000000000000 ) ) ;
#381 = AXIS2_PLACEMENT_3D ( 'NONE', #962, #774, #893 ) ;
#382 = ORIENTED_EDGE ( 'NONE', *, *, #808, .F. ) ;
#383 = CIRCLE ( 'NONE', #840, 2.100000000000004530 ) ;
#384 = CARTESIAN_POINT ( 'NONE',  ( -14.73411541087269327, 7.576460717350793850, 4.553116358619434756 ) ) ;
#385 = AXIS2_PLACEMENT_3D ( 'NONE', #232, #416, #701 ) ;
#386 = EDGE_CURVE ( 'NONE', #112, #905, #948, .T. ) ;
#387 = DIRECTION ( 'NONE',  ( 1.000000000000000000, 0.000000000000000000, 0.000000000000000000 ) ) ;
#388 = DIRECTION ( 'NONE',  ( 1.000000000000000000, 0.000000000000000000, 0.000000000000000000 ) ) ;
#389 = DIRECTION ( 'NONE',  ( 0.000000000000000000, 0.000000000000000000, 1.000000000000000000 ) ) ;
#390 = B_SPLINE_CURVE_WITH_KNOTS ( 'NONE', 3,
 ( #1134, #482, #397, #935, #752, #184, #864, #384, #1152, #302, #86, #489, #13, #464, #846, #372, #1035, #93 ),
 .UNSPECIFIED., .F., .F.,
 ( 4, 2, 2, 2, 2, 2, 2, 2, 4 ),
 ( 1.968745689985475374E-15, 0.005294900317401825263, 0.007942350476101749102, 0.009266075555451711021, 0.009927938095126691981, 0.01025886936496418420, 0.01042433499988292510, 0.01050706781734229642, 0.01058980063480166600 ),
 .UNSPECIFIED. ) ;
#391 = ORIENTED_EDGE ( 'NONE', *, *, #261, .F. ) ;
#392 = DIRECTION ( 'NONE',  ( -0.000000000000000000, -0.000000000000000000, -1.000000000000000000 ) ) ;
#393 = DIRECTION ( 'NONE',  ( -1.000000000000000000, 0.000000000000000000, 0.000000000000000000 ) ) ;
#394 = FACE_OUTER_BOUND ( 'NONE', #660, .T. ) ;
#395 = DATE_TIME_ROLE ( 'classification_date' ) ;
#396 = ORIENTED_EDGE ( 'NONE', *, *, #903, .F. ) ;
#397 = CARTESIAN_POINT ( 'NONE',  ( -20.65630932946985610, 7.302913518862336417, 4.027984313157150886 ) ) ;
#398 = DIRECTION ( 'NONE',  ( 1.000000000000000000, 0.000000000000000000, 0.000000000000000000 ) ) ;
#399 = CARTESIAN_POINT ( 'NONE',  ( -13.77142276770748808, -7.053046157585045606, 5.000000000000000000 ) ) ;
#400 = CC_DESIGN_PERSON_AND_ORGANIZATION_ASSIGNMENT ( #770, #200, ( #191 ) ) ;
#401 = APPROVAL_ROLE ( '' ) ;
#402 = EDGE_CURVE ( 'NONE', #23, #1184, #1227, .T. ) ;
#403 = ORIENTED_EDGE ( 'NONE', *, *, #327, .F. ) ;
#404 = DIRECTION ( 'NONE',  ( 1.000000000000000000, 0.000000000000000000, 0.000000000000000000 ) ) ;
#405 = AXIS2_PLACEMENT_3D ( 'NONE', #207, #1069, #1154 ) ;
#406 = AXIS2_PLACEMENT_3D ( 'NONE', #713, #784, #404 ) ;
#407 = AXIS2_PLACEMENT_3D ( 'NONE', #727, #916, #60 ) ;
#408 = DIRECTION ( 'NONE',  ( -0.1319092344301240616, 0.9912617988564165206, 0.000000000000000000 ) ) ;
#409 = CARTESIAN_POINT ( 'NONE',  ( -13.77142276770748452, -7.053046157585034948, 4.838522392618068935 ) ) ;
#410 = EDGE_LOOP ( 'NONE', ( #874, #734, #171, #391 ) ) ;
#411 = LINE ( 'NONE', #308, #1079 ) ;
#412 = PRODUCT_DEFINITION ( 'General', '', #866, #155 ) ;
#413 = DIRECTION ( 'NONE',  ( 0.9912617988564165206, 0.1319092344301240338, -0.000000000000000000 ) ) ;
#414 = CARTESIAN_POINT ( 'NONE',  ( -56.00000000000019895, 269.3054965373763139, 1.000000000000000000 ) ) ;
#415 = ORIENTED_EDGE ( 'NONE', *, *, #589, .T. ) ;
#416 = DIRECTION ( 'NONE',  ( 0.000000000000000000, 0.000000000000000000, 1.000000000000000000 ) ) ;
#417 = DIRECTION ( 'NONE',  ( 1.000000000000000000, 0.000000000000000000, 0.000000000000000000 ) ) ;
#418 = CARTESIAN_POINT ( 'NONE',  ( -98.22857723229255100, -7.053046157585081133, 5.000000000000000000 ) ) ;
#419 = ORIENTED_EDGE ( 'NONE', *, *, #706, .T. ) ;
#420 = DIRECTION ( 'NONE',  ( -1.000000000000000000, 0.000000000000000000, 0.000000000000000000 ) ) ;
#421 = AXIS2_PLACEMENT_3D ( 'NONE', #755, #1041, #388 ) ;
#422 = DIRECTION ( 'NONE',  ( -1.000000000000000000, 0.000000000000000000, 0.000000000000000000 ) ) ;
#423 = AXIS2_PLACEMENT_3D ( 'NONE', #119, #108, #773 ) ;
#424 = EDGE_CURVE ( 'NONE', #912, #830, #455, .T. ) ;
#425 = CARTESIAN_POINT ( 'NONE',  ( -98.22857723229255100, -7.053046157585081133, 5.000000000000000000 ) ) ;
#426 = ORIENTED_EDGE ( 'NONE', *, *, #941, .T. ) ;
#427 = DIRECTION ( 'NONE',  ( -0.000000000000000000, -0.000000000000000000, -1.000000000000000000 ) ) ;
#428 = CARTESIAN_POINT ( 'NONE',  ( -56.00000000000019895, 269.3054965373763139, 2.000000000000000000 ) ) ;
#429 = ORIENTED_EDGE ( 'NONE', *, *, #667, .T. ) ;
#430 = CARTESIAN_POINT ( 'NONE',  ( 39.21947719428340662, 11.24600411733359095, 6.000000000000000000 ) ) ;
#431 = ORIENTED_EDGE ( 'NONE', *, *, #1162, .F. ) ;
#432 = DIRECTION ( 'NONE',  ( 1.000000000000000000, 0.000000000000000000, 0.000000000000000000 ) ) ;
#433 = CYLINDRICAL_SURFACE ( 'NONE', #1153, 835.7595331965638934 ) ;
#434 = EDGE_LOOP ( 'NONE', ( #382, #744, #481, #84 ) ) ;
#435 = DIRECTION ( 'NONE',  ( 1.000000000000000000, 0.000000000000000000, 0.000000000000000000 ) ) ;
#436 = EDGE_CURVE ( 'NONE', #605, #542, #81, .T. ) ;
#437 = ORIENTED_EDGE ( 'NONE', *, *, #656, .F. ) ;
#438 = DIRECTION ( 'NONE',  ( 0.000000000000000000, 0.000000000000000000, 1.000000000000000000 ) ) ;
#439 = AXIS2_PLACEMENT_3D ( 'NONE', #189, #10, #548 ) ;
#440 = VECTOR ( 'NONE', #88, 1000.000000000000000 ) ;
#441 = CYLINDRICAL_SURFACE ( 'NONE', #761, 285.0662655892989505 ) ;
#442 = AXIS2_PLACEMENT_3D ( 'NONE', #214, #1087, #219 ) ;
#443 = ORIENTED_EDGE ( 'NONE', *, *, #1124, .F. ) ;
#444 = DIRECTION ( 'NONE',  ( 1.000000000000000000, 0.000000000000000000, 0.000000000000000000 ) ) ;
#445 = ORIENTED_EDGE ( 'NONE', *, *, #1085, .F. ) ;
#446 = EDGE_CURVE ( 'NONE', #632, #283, #7, .T. ) ;
#447 = CARTESIAN_POINT ( 'NONE',  ( -98.22857723229429894, 7.624636674846386519, 1.027974951283949334 ) ) ;
#448 = VERTEX_POINT ( 'NONE', #94 ) ;
#449 = CARTESIAN_POINT ( 'NONE',  ( -20.65812441245484621, 7.302841245176419527, 1.972005216474662648 ) ) ;
#450 = ORIENTED_EDGE ( 'NONE', *, *, #167, .F. ) ;
#451 = DIRECTION ( 'NONE',  ( -0.000000000000000000, -0.000000000000000000, -1.000000000000000000 ) ) ;
#452 = CARTESIAN_POINT ( 'NONE',  ( -93.07523591802156204, -9.304755488527147733, 1.000000000000000000 ) ) ;
#453 = CYLINDRICAL_SURFACE ( 'NONE', #942, 2.099999999999997868 ) ;
#454 = ORIENTED_EDGE ( 'NONE', *, *, #6, .F. ) ;
#455 = LINE ( 'NONE', #187, #1193 ) ;
#456 = AXIS2_PLACEMENT_3D ( 'NONE', #904, #730, #810 ) ;
#457 = ADVANCED_FACE ( 'NONE', ( #841 ), #927, .F. ) ;
#458 = CIRCLE ( 'NONE', #1058, 0.9999999999999995559 ) ;
#459 = DIRECTION ( 'NONE',  ( 0.000000000000000000, 0.000000000000000000, 1.000000000000000000 ) ) ;
#460 = DIRECTION ( 'NONE',  ( 1.000000000000000000, 0.000000000000000000, 0.000000000000000000 ) ) ;
#461 = CIRCLE ( 'NONE', #762, 2.099999999999997868 ) ;
#462 = VECTOR ( 'NONE', #156, 1000.000000000000000 ) ;
#463 = EDGE_LOOP ( 'NONE', ( #1125, #610, #1212, #1086, #554, #510, #848, #675 ) ) ;
#464 = CARTESIAN_POINT ( 'NONE',  ( -13.83508580280364697, 7.621418003282748543, 4.880982895110818731 ) ) ;
#465 = FACE_OUTER_BOUND ( 'NONE', #463, .T. ) ;
#466 = LOCAL_TIME ( 10, 32, 39.00000000000000000, #369 ) ;
#467 = DIRECTION ( 'NONE',  ( 1.000000000000000000, 0.000000000000000000, 0.000000000000000000 ) ) ;
#468 = APPROVAL_DATE_TIME ( #844, #1144 ) ;
#469 = EDGE_LOOP ( 'NONE', ( #52, #1160, #437, #1133 ) ) ;
#470 = DIRECTION ( 'NONE',  ( 1.000000000000000000, 0.000000000000000000, 0.000000000000000000 ) ) ;
#471 = FACE_OUTER_BOUND ( 'NONE', #573, .T. ) ;
#472 = FACE_OUTER_BOUND ( 'NONE', #434, .T. ) ;
#473 = APPROVAL_STATUS ( 'not_yet_approved' ) ;
#474 = ORIENTED_EDGE ( 'NONE', *, *, #1209, .T. ) ;
#475 = CARTESIAN_POINT ( 'NONE',  ( -97.87735391500538640, -7.106519659675739398, 1.691988664063777348 ) ) ;
#476 = EDGE_CURVE ( 'NONE', #12, #376, #46, .T. ) ;
#477 = DIRECTION ( 'NONE',  ( 0.000000000000000000, 0.000000000000000000, 1.000000000000000000 ) ) ;
#478 = CARTESIAN_POINT ( 'NONE',  ( -99.28378051144066774, -3.357184695388723217, 0.000000000000000000 ) ) ;
#479 = COORDINATED_UNIVERSAL_TIME_OFFSET ( 3, 0, .BEHIND. ) ;
#480 = CIRCLE ( 'NONE', #105, 265.0662655892990074 ) ;
#481 = ORIENTED_EDGE ( 'NONE', *, *, #604, .T. ) ;
#482 = CARTESIAN_POINT ( 'NONE',  ( -22.42015969201916548, 7.230115889191147893, 4.000000000000000000 ) ) ;
#483 = AXIS2_PLACEMENT_3D ( 'NONE', #1090, #588, #969 ) ;
#484 = EDGE_CURVE ( 'NONE', #1066, #905, #519, .T. ) ;
#485 = DIRECTION ( 'NONE',  ( 1.000000000000000000, 0.000000000000000000, 0.000000000000000000 ) ) ;
#486 = CARTESIAN_POINT ( 'NONE',  ( -97.46149896518427624, -7.169213233527105267, 4.089335254881673265 ) ) ;
#487 = CALENDAR_DATE ( 2026, 14, 9 ) ;
#488 = ORIENTED_EDGE ( 'NONE', *, *, #1204, .T. ) ;
#489 = CARTESIAN_POINT ( 'NONE',  ( -13.94819536373099567, 7.615710714993746855, 4.802974955762327802 ) ) ;
#490 = DIRECTION ( 'NONE',  ( -0.000000000000000000, -0.000000000000000000, -1.000000000000000000 ) ) ;
#491 = CARTESIAN_POINT ( 'NONE',  ( -37.85810974427979403, 132.9741559209938089, 4.000000000000000000 ) ) ;
#492 = EDGE_LOOP ( 'NONE', ( #680, #197 ) ) ;
#493 = DIRECTION ( 'NONE',  ( 1.000000000000000000, 0.000000000000000000, 0.000000000000000000 ) ) ;
#494 = CARTESIAN_POINT ( 'NONE',  ( -56.00000000000019895, 269.3054965373763139, 4.000000000000000000 ) ) ;
#495 = CARTESIAN_POINT ( 'NONE',  ( -13.82349918033079561, -7.061013220234960031, 4.681977817136671938 ) ) ;
#496 = EDGE_CURVE ( 'NONE', #41, #335, #721, .T. ) ;
#497 = EDGE_LOOP ( 'NONE', ( #934, #712, #429, #36, #817 ) ) ;
#498 = CARTESIAN_POINT ( 'NONE',  ( -13.77142276770739926, 7.624636674846255957, 1.028454831873763187 ) ) ;
#499 = AXIS2_PLACEMENT_3D ( 'NONE', #1131, #763, #769 ) ;
#500 = AXIS2_PLACEMENT_3D ( 'NONE', #789, #981, #493 ) ;
#501 = CIRCLE ( 'NONE', #1099, 282.0662655892990642 ) ;
#502 = CARTESIAN_POINT ( 'NONE',  ( -19.71621948855938555, -3.357184695388635731, 5.000000000000000000 ) ) ;
#503 = DIRECTION ( 'NONE',  ( 1.000000000000000000, 0.000000000000000000, 0.000000000000000000 ) ) ;
#504 = EDGE_LOOP ( 'NONE', ( #646, #228 ) ) ;
#505 = CARTESIAN_POINT ( 'NONE',  ( -93.07523591802156204, -9.304755488527147733, 2.000000000000000000 ) ) ;
#506 = CARTESIAN_POINT ( 'NONE',  ( -91.36041587042983281, 3.581647896606254822, 0.000000000000000000 ) ) ;
#507 = EDGE_CURVE ( 'NONE', #173, #226, #340, .T. ) ;
#508 = FACE_OUTER_BOUND ( 'NONE', #561, .T. ) ;
#509 = COORDINATED_UNIVERSAL_TIME_OFFSET ( 3, 0, .BEHIND. ) ;
#510 = ORIENTED_EDGE ( 'NONE', *, *, #1016, .T. ) ;
#511 = CARTESIAN_POINT ( 'NONE',  ( -13.77142276770741702, 7.624636674846363427, 4.000000000000000000 ) ) ;
#512 = EDGE_CURVE ( 'NONE', #256, #65, #1130, .T. ) ;
#513 = CARTESIAN_POINT ( 'NONE',  ( -91.34187558754513248, 7.302841245176358242, 4.027994783525350009 ) ) ;
#514 = DIRECTION ( 'NONE',  ( -0.000000000000000000, -0.000000000000000000, -1.000000000000000000 ) ) ;
#515 = ORIENTED_EDGE ( 'NONE', *, *, #188, .F. ) ;
#516 = DIRECTION ( 'NONE',  ( 1.000000000000000000, 0.000000000000000000, 0.000000000000000000 ) ) ;
#517 = CIRCLE ( 'NONE', #360, 265.0662655892990074 ) ;
#518 = CARTESIAN_POINT ( 'NONE',  ( -56.00000000000019895, 269.3054965373763139, 6.000000000000000000 ) ) ;
#519 = CIRCLE ( 'NONE', #556, 282.0662655892990642 ) ;
#520 = CIRCLE ( 'NONE', #1001, 281.0662655892990642 ) ;
#521 = CARTESIAN_POINT ( 'NONE',  ( -97.48167227447679295, 7.587157698384181082, 1.400108512173435793 ) ) ;
#522 = ORIENTED_EDGE ( 'NONE', *, *, #178, .T. ) ;
#523 = DIRECTION ( 'NONE',  ( 1.000000000000000000, 0.000000000000000000, 0.000000000000000000 ) ) ;
#524 = ORIENTED_EDGE ( 'NONE', *, *, #831, .T. ) ;
#525 = CYLINDRICAL_SURFACE ( 'NONE', #48, 282.0662655892990642 ) ;
#526 = CARTESIAN_POINT ( 'NONE',  ( -97.26588458912746660, 7.576460717350682827, 1.446883641380348084 ) ) ;
#527 = ADVANCED_FACE ( 'NONE', ( #471 ), #9, .F. ) ;
#528 = ORIENTED_EDGE ( 'NONE', *, *, #476, .T. ) ;
#529 = DIRECTION ( 'NONE',  ( -0.000000000000000000, -0.000000000000000000, -1.000000000000000000 ) ) ;
#530 = EDGE_LOOP ( 'NONE', ( #74, #984 ) ) ;
#531 = FACE_BOUND ( 'NONE', #182, .T. ) ;
#532 = CARTESIAN_POINT ( 'NONE',  ( -97.79808824742877960, 7.602962071533390542, 1.304417473664482907 ) ) ;
#533 = EDGE_CURVE ( 'NONE', #121, #17, #205, .T. ) ;
#534 = VERTEX_POINT ( 'NONE', #742 ) ;
#535 = DIRECTION ( 'NONE',  ( -0.000000000000000000, -0.000000000000000000, -1.000000000000000000 ) ) ;
#536 = ORIENTED_EDGE ( 'NONE', *, *, #865, .T. ) ;
#537 = CARTESIAN_POINT ( 'NONE',  ( -98.04860912835586362, 7.615549719359311354, 4.801258914274921352 ) ) ;
#538 = CIRCLE ( 'NONE', #1094, 281.0662655892990642 ) ;
#539 = CIRCLE ( 'NONE', #405, 285.0662655892989505 ) ;
#540 = CARTESIAN_POINT ( 'NONE',  ( -98.05180463626960830, 7.615710714993891628, 1.197025044238286817 ) ) ;
#541 = CIRCLE ( 'NONE', #8, 282.0662655892990642 ) ;
#542 = VERTEX_POINT ( 'NONE', #267 ) ;
#543 = CARTESIAN_POINT ( 'NONE',  ( -99.28378051144066774, -3.357184695388723217, 6.000000000000000000 ) ) ;
#544 = VERTEX_POINT ( 'NONE', #1221 ) ;
#545 = CC_DESIGN_APPROVAL ( #1135, ( #191 ) ) ;
#546 = DIRECTION ( 'NONE',  ( 0.000000000000000000, 0.000000000000000000, 1.000000000000000000 ) ) ;
#547 = EDGE_CURVE ( 'NONE', #1106, #121, #642, .T. ) ;
#548 = DIRECTION ( 'NONE',  ( 1.000000000000000000, 0.000000000000000000, 0.000000000000000000 ) ) ;
#549 = CARTESIAN_POINT ( 'NONE',  ( -15.38884234324320310, 7.544267011815374069, 1.571168279908655707 ) ) ;
#550 = ORIENTED_EDGE ( 'NONE', *, *, #310, .F. ) ;
#551 = EDGE_CURVE ( 'NONE', #169, #883, #363, .T. ) ;
#552 = DIRECTION ( 'NONE',  ( -0.000000000000000000, -0.000000000000000000, -1.000000000000000000 ) ) ;
#553 = CARTESIAN_POINT ( 'NONE',  ( -15.00240902486318717, -7.238387738611293365, 4.000000000000000000 ) ) ;
#554 = ORIENTED_EDGE ( 'NONE', *, *, #1209, .F. ) ;
#555 = CARTESIAN_POINT ( 'NONE',  ( -19.71621948855938555, -3.357184695388635731, 0.000000000000000000 ) ) ;
#556 = AXIS2_PLACEMENT_3D ( 'NONE', #657, #953, #287 ) ;
#557 = DIRECTION ( 'NONE',  ( 1.000000000000000000, 0.000000000000000000, 0.000000000000000000 ) ) ;
#558 =( LENGTH_UNIT ( ) NAMED_UNIT ( * ) SI_UNIT ( .MILLI., .METRE. ) );
#559 = AXIS2_PLACEMENT_3D ( 'NONE', #991, #1181, #516 ) ;
#560 = CIRCLE ( 'NONE', #29, 10.00000000000000178 ) ;
#561 = EDGE_LOOP ( 'NONE', ( #351, #814, #1224, #839 ) ) ;
#562 = CARTESIAN_POINT ( 'NONE',  ( -56.00000000000019895, 269.3054965373763139, 6.000000000000000000 ) ) ;
#563 = DIRECTION ( 'NONE',  ( 1.000000000000000000, 0.000000000000000000, 0.000000000000000000 ) ) ;
#564 = CARTESIAN_POINT ( 'NONE',  ( -98.22857723229255100, -7.053046157585081133, 1.000000000000000000 ) ) ;
#565 = EDGE_CURVE ( 'NONE', #905, #256, #264, .T. ) ;
#566 = CALENDAR_DATE ( 2026, 14, 9 ) ;
#567 = VERTEX_POINT ( 'NONE', #273 ) ;
#568 = PLANE ( 'NONE',  #583 ) ;
#569 = DIRECTION ( 'NONE',  ( 0.000000000000000000, 0.000000000000000000, 1.000000000000000000 ) ) ;
#570 = DIRECTION ( 'NONE',  ( -0.000000000000000000, -0.000000000000000000, -1.000000000000000000 ) ) ;
#571 = PERSON_AND_ORGANIZATION_ROLE ( 'design_supplier' ) ;
#572 = CC_DESIGN_PERSON_AND_ORGANIZATION_ASSIGNMENT ( #1132, #944, ( #32 ) ) ;
#573 = EDGE_LOOP ( 'NONE', ( #98, #177, #907, #160 ) ) ;
#574 = CARTESIAN_POINT ( 'NONE',  ( -98.22857723229255100, -7.053046157585081133, 1.000000000000000000 ) ) ;
#575 = CYLINDRICAL_SURFACE ( 'NONE', #961, 7.000000000000006217 ) ;
#576 = DIRECTION ( 'NONE',  ( -1.000000000000000000, 0.000000000000000000, 0.000000000000000000 ) ) ;
#577 = APPLICATION_PROTOCOL_DEFINITION ( 'international standard', 'config_control_design', 1994, #1073 ) ;
#578 = CIRCLE ( 'NONE', #741, 268.0662655892990074 ) ;
#579 = ORIENTED_EDGE ( 'NONE', *, *, #720, .F. ) ;
#580 = AXIS2_PLACEMENT_3D ( 'NONE', #847, #569, #378 ) ;
#581 = CARTESIAN_POINT ( 'NONE',  ( -97.60755007721236609, -7.147261172895492898, 1.854946826112259917 ) ) ;
#582 = CC_DESIGN_DATE_AND_TIME_ASSIGNMENT ( #16, #395, ( #191 ) ) ;
#583 = AXIS2_PLACEMENT_3D ( 'NONE', #856, #198, #952 ) ;
#584 = CARTESIAN_POINT ( 'NONE',  ( -112.0000000000000711, -1.110223024625156540E-13, 6.000000000000000000 ) ) ;
#585 = ADVANCED_FACE ( 'NONE', ( #465 ), #373, .F. ) ;
#586 = DIRECTION ( 'NONE',  ( 1.000000000000000000, 0.000000000000000000, 0.000000000000000000 ) ) ;
#587 = ORIENTED_EDGE ( 'NONE', *, *, #38, .F. ) ;
#588 = DIRECTION ( 'NONE',  ( 0.000000000000000000, 0.000000000000000000, 1.000000000000000000 ) ) ;
#589 = EDGE_CURVE ( 'NONE', #365, #544, #145, .T. ) ;
#590 = CARTESIAN_POINT ( 'NONE',  ( -114.0358730606250504, -9.790567954976847176, 0.000000000000000000 ) ) ;
#591 = DIRECTION ( 'NONE',  ( -0.000000000000000000, -0.000000000000000000, -1.000000000000000000 ) ) ;
#592 = EDGE_LOOP ( 'NONE', ( #771, #118, #1017, #587 ) ) ;
#593 = CARTESIAN_POINT ( 'NONE',  ( -18.79285484754852220, -10.29601728738355249, 5.000000000000000000 ) ) ;
#594 = DIRECTION ( 'NONE',  ( -1.000000000000000000, 0.000000000000000000, 0.000000000000000000 ) ) ;
#595 = DIRECTION ( 'NONE',  ( 0.000000000000000000, 0.000000000000000000, 1.000000000000000000 ) ) ;
#596 = VERTEX_POINT ( 'NONE', #602 ) ;
#597 = DIRECTION ( 'NONE',  ( -0.000000000000000000, -0.000000000000000000, -1.000000000000000000 ) ) ;
#598 = CIRCLE ( 'NONE', #658, 7.000000000000002665 ) ;
#599 = ADVANCED_FACE ( 'NONE', ( #791 ), #659, .F. ) ;
#600 = AXIS2_PLACEMENT_3D ( 'NONE', #14, #413, #408 ) ;
#601 = VECTOR ( 'NONE', #427, 1000.000000000000000 ) ;
#602 = CARTESIAN_POINT ( 'NONE',  ( 35.75778490023610345, 20.62772498620053341, 6.000000000000000000 ) ) ;
#603 = FACE_OUTER_BOUND ( 'NONE', #776, .T. ) ;
#604 = EDGE_CURVE ( 'NONE', #956, #283, #982, .T. ) ;
#605 = VERTEX_POINT ( 'NONE', #1064 ) ;
#606 = CARTESIAN_POINT ( 'NONE',  ( -13.90206779643736645, 7.618036201953774622, 1.171896333487926212 ) ) ;
#607 = ORIENTED_EDGE ( 'NONE', *, *, #1081, .F. ) ;
#608 = CARTESIAN_POINT ( 'NONE',  ( -97.89893824594433624, 7.608018920061094370, 4.729924971562285307 ) ) ;
#609 = CARTESIAN_POINT ( 'NONE',  ( -96.83949089533139443, -7.261733695991479109, 4.000000000000000000 ) ) ;
#610 = ORIENTED_EDGE ( 'NONE', *, *, #22, .T. ) ;
#611 = CARTESIAN_POINT ( 'NONE',  ( -2.100000000000000089, 0.000000000000000000, 6.000000000000000000 ) ) ;
#612 = CARTESIAN_POINT ( 'NONE',  ( -112.0000000000000711, -1.110223024625156540E-13, 6.000000000000000000 ) ) ;
#613 = CARTESIAN_POINT ( 'NONE',  ( -20.63958412957033417, 3.581647896606271253, 6.000000000000000000 ) ) ;
#614 = EDGE_LOOP ( 'NONE', ( #297, #990, #353, #616 ) ) ;
#615 = DIRECTION ( 'NONE',  ( 1.000000000000000000, 0.000000000000000000, 0.000000000000000000 ) ) ;
#616 = ORIENTED_EDGE ( 'NONE', *, *, #402, .T. ) ;
#617 = CIRCLE ( 'NONE', #83, 264.0662655892990074 ) ;
#618 = EDGE_CURVE ( 'NONE', #1176, #1106, #383, .T. ) ;
#619 = DIRECTION ( 'NONE',  ( -0.000000000000000000, -0.000000000000000000, -1.000000000000000000 ) ) ;
#620 = AXIS2_PLACEMENT_3D ( 'NONE', #116, #34, #398 ) ;
#621 = CIRCLE ( 'NONE', #206, 6.000000000000005329 ) ;
#622 = CARTESIAN_POINT ( 'NONE',  ( -56.00000000000019895, 269.3054965373763139, 4.000000000000000000 ) ) ;
#623 = ORIENTED_EDGE ( 'NONE', *, *, #589, .F. ) ;
#624 = CARTESIAN_POINT ( 'NONE',  ( -93.07523591802159046, -9.304755488527201024, 5.000000000000000000 ) ) ;
#625 = ORIENTED_EDGE ( 'NONE', *, *, #808, .T. ) ;
#626 = CARTESIAN_POINT ( 'NONE',  ( -98.22857723229256521, 7.624636674846252404, 5.000000000000000000 ) ) ;
#627 = ADVANCED_FACE ( 'NONE', ( #1057 ), #131, .T. ) ;
#628 = DIRECTION ( 'NONE',  ( 1.000000000000000000, 0.000000000000000000, 0.000000000000000000 ) ) ;
#629 = VERTEX_POINT ( 'NONE', #506 ) ;
#630 = CARTESIAN_POINT ( 'NONE',  ( 42.68116948833056767, 1.864283248466658272, 0.000000000000000000 ) ) ;
#631 = EDGE_CURVE ( 'NONE', #930, #795, #781, .T. ) ;
#632 = VERTEX_POINT ( 'NONE', #677 ) ;
#633 = CARTESIAN_POINT ( 'NONE',  ( -98.18438406075482305, 7.622401875367598834, 4.899194197657811500 ) ) ;
#634 = DIRECTION ( 'NONE',  ( 1.000000000000000000, 0.000000000000000000, 0.000000000000000000 ) ) ;
#635 = ORIENTED_EDGE ( 'NONE', *, *, #638, .T. ) ;
#636 = CARTESIAN_POINT ( 'NONE',  ( 35.75778490023610345, 20.62772498620053341, 0.000000000000000000 ) ) ;
#637 = ORIENTED_EDGE ( 'NONE', *, *, #278, .F. ) ;
#638 = EDGE_CURVE ( 'NONE', #358, #968, #461, .T. ) ;
#639 = ADVANCED_FACE ( 'NONE', ( #1148 ), #299, .T. ) ;
#640 = CIRCLE ( 'NONE', #1117, 7.000000000000006217 ) ;
#641 = CIRCLE ( 'NONE', #620, 7.000000000000006217 ) ;
#642 = LINE ( 'NONE', #1022, #106 ) ;
#643 = ORIENTED_EDGE ( 'NONE', *, *, #38, .T. ) ;
#644 = CARTESIAN_POINT ( 'NONE',  ( -114.0358730606250504, -9.790567954976847176, 6.000000000000000000 ) ) ;
#645 = EDGE_CURVE ( 'NONE', #335, #12, #1156, .T. ) ;
#646 = ORIENTED_EDGE ( 'NONE', *, *, #1100, .T. ) ;
#647 = CARTESIAN_POINT ( 'NONE',  ( -92.28378051144066774, -3.357184695388723217, 5.000000000000000000 ) ) ;
#648 = DIRECTION ( 'NONE',  ( 1.000000000000000000, 0.000000000000000000, 0.000000000000000000 ) ) ;
#649 = PERSON_AND_ORGANIZATION ( #18446744073709551615, #18446744073709551615 ) ;
#650 = ORIENTED_EDGE ( 'NONE', *, *, #1085, .T. ) ;
#651 = DIRECTION ( 'NONE',  ( -0.000000000000000000, -0.000000000000000000, -1.000000000000000000 ) ) ;
#652 = CARTESIAN_POINT ( 'NONE',  ( -14.00124382600788309, -7.088080480674094019, 4.415031258026643535 ) ) ;
#653 = PERSON_AND_ORGANIZATION_ROLE ( 'creator' ) ;
#654 = ORIENTED_EDGE ( 'NONE', *, *, #604, .F. ) ;
#655 = CARTESIAN_POINT ( 'NONE',  ( 41.31947719428340093, 11.24600411733359095, 0.000000000000000000 ) ) ;
#656 = EDGE_CURVE ( 'NONE', #629, #41, #641, .T. ) ;
#657 = CARTESIAN_POINT ( 'NONE',  ( -56.00000000000019895, 269.3054965373763139, 5.000000000000000000 ) ) ;
#658 = AXIS2_PLACEMENT_3D ( 'NONE', #954, #837, #648 ) ;
#659 = TOROIDAL_SURFACE ( 'NONE', #821, 264.0662655892990074, 1.000000000000000000 ) ;
#660 = EDGE_LOOP ( 'NONE', ( #419, #128, #1169, #806 ) ) ;
#661 = CALENDAR_DATE ( 2026, 14, 9 ) ;
#662 = CIRCLE ( 'NONE', #125, 7.000000000000006217 ) ;
#663 = ORIENTED_EDGE ( 'NONE', *, *, #496, .F. ) ;
#664 = DIRECTION ( 'NONE',  ( -0.000000000000000000, -0.000000000000000000, -1.000000000000000000 ) ) ;
#665 = CC_DESIGN_SECURITY_CLASSIFICATION ( #191, ( #866 ) ) ;
#666 = CARTESIAN_POINT ( 'NONE',  ( -56.00000000000019895, 269.3054965373763139, 6.000000000000000000 ) ) ;
#667 = EDGE_CURVE ( 'NONE', #1165, #23, #539, .T. ) ;
#668 = VERTEX_POINT ( 'NONE', #590 ) ;
#669 = PERSON_AND_ORGANIZATION ( #18446744073709551615, #18446744073709551615 ) ;
#670 = ORIENTED_EDGE ( 'NONE', *, *, #295, .T. ) ;
#671 = CARTESIAN_POINT ( 'NONE',  ( -13.77142276770748808, -7.053046157585045606, 5.000000000000000000 ) ) ;
#672 = B_SPLINE_CURVE_WITH_KNOTS ( 'NONE', 3,
 ( #946, #1225, #104, #99, #581, #475, #682, #1129, #113, #574 ),
 .UNSPECIFIED., .F., .F.,
 ( 4, 2, 2, 2, 4 ),
 ( 3.127148822154630638E-16, 0.0004727549295263724655, 0.0009455098590524321387, 0.001418264788578491812, 0.001891019718104551594 ),
 .UNSPECIFIED. ) ;
#673 = FACE_OUTER_BOUND ( 'NONE', #356, .T. ) ;
#674 = DIRECTION ( 'NONE',  ( -0.000000000000000000, -0.000000000000000000, -1.000000000000000000 ) ) ;
#675 = ORIENTED_EDGE ( 'NONE', *, *, #476, .F. ) ;
#676 = DIRECTION ( 'NONE',  ( 0.000000000000000000, 0.000000000000000000, 1.000000000000000000 ) ) ;
#677 = CARTESIAN_POINT ( 'NONE',  ( 2.100000000000000089, 2.571758278209441957E-16, 0.000000000000000000 ) ) ;
#678 = DIRECTION ( 'NONE',  ( 0.000000000000000000, 0.000000000000000000, 1.000000000000000000 ) ) ;
#679 = CLOSED_SHELL ( 'NONE', ( #958, #1137, #150, #639, #692, #759, #109, #737, #585, #747, #1226, #978, #331, #1119, #69, #225, #527, #826, #627, #457, #135, #238, #290, #917, #849, #1046, #216, #971, #683, #775, #370, #1030, #599 ) ) ;
#680 = ORIENTED_EDGE ( 'NONE', *, *, #278, .T. ) ;
#681 = AXIS2_PLACEMENT_3D ( 'NONE', #748, #1121, #1113 ) ;
#682 = CARTESIAN_POINT ( 'NONE',  ( -97.99875617399220573, -7.088080480674139316, 1.584968741973348250 ) ) ;
#683 = ADVANCED_FACE ( 'NONE', ( #673 ), #1155, .F. ) ;
#684 = AXIS2_PLACEMENT_3D ( 'NONE', #822, #1188, #246 ) ;
#685 = DIRECTION ( 'NONE',  ( 1.000000000000000000, 0.000000000000000000, 0.000000000000000000 ) ) ;
#686 = CARTESIAN_POINT ( 'NONE',  ( -13.77142276770748630, -7.053046157585046494, 1.161323865806436872 ) ) ;
#687 = AXIS2_PLACEMENT_3D ( 'NONE', #1140, #389, #950 ) ;
#688 = ORIENTED_EDGE ( 'NONE', *, *, #547, .T. ) ;
#689 = DIRECTION ( 'NONE',  ( -0.000000000000000000, -0.000000000000000000, -1.000000000000000000 ) ) ;
#690 = DIRECTION ( 'NONE',  ( 0.000000000000000000, 0.000000000000000000, 1.000000000000000000 ) ) ;
#691 = CARTESIAN_POINT ( 'NONE',  ( -13.99923212815334495, -7.087774456928208622, 1.582505174837947726 ) ) ;
#692 = ADVANCED_FACE ( 'NONE', ( #778 ), #575, .F. ) ;
#693 = ORIENTED_EDGE ( 'NONE', *, *, #731, .T. ) ;
#694 = DIRECTION ( 'NONE',  ( 1.000000000000000000, 0.000000000000000000, -0.000000000000000000 ) ) ;
#695 = CC_DESIGN_DATE_AND_TIME_ASSIGNMENT ( #933, #275, ( #412 ) ) ;
#696 = DIRECTION ( 'NONE',  ( 0.000000000000000000, 0.000000000000000000, 1.000000000000000000 ) ) ;
#697 = EDGE_CURVE ( 'NONE', #213, #668, #1037, .T. ) ;
#698 = CARTESIAN_POINT ( 'NONE',  ( -19.71621948855938555, -3.357184695388635731, 4.000000000000000000 ) ) ;
#699 = B_SPLINE_CURVE_WITH_KNOTS ( 'NONE', 3,
 ( #122, #498, #890, #227, #37, #606, #895, #153, #739, #336, #718, #549, #929, #1200, #352, #449, #1211, #1096 ),
 .UNSPECIFIED., .F., .F.,
 ( 4, 2, 2, 2, 2, 2, 2, 2, 4 ),
 ( 0.000000000000000000, 8.381533930681868145E-05, 0.0001676306786136373629, 0.0003352613572272751595, 0.0006705227144545458737, 0.001341045428909087194, 0.002682090857818169617, 0.005364181715636334898, 0.01072836343127266459 ),
 .UNSPECIFIED. ) ;
#700 = ORIENTED_EDGE ( 'NONE', *, *, #565, .T. ) ;
#701 = DIRECTION ( 'NONE',  ( 1.000000000000000000, 0.000000000000000000, 0.000000000000000000 ) ) ;
#702 = TOROIDAL_SURFACE ( 'NONE', #163, 6.000000000000005329, 1.000000000000000000 ) ;
#703 = AXIS2_PLACEMENT_3D ( 'NONE', #502, #690, #26 ) ;
#704 = CIRCLE ( 'NONE', #862, 2.100000000000000089 ) ;
#705 = CARTESIAN_POINT ( 'NONE',  ( -96.61115765675678801, 7.544267011815375845, 4.428831720091357838 ) ) ;
#706 = EDGE_CURVE ( 'NONE', #235, #930, #884, .T. ) ;
#707 = VERTEX_POINT ( 'NONE', #311 ) ;
#708 = AXIS2_PLACEMENT_3D ( 'NONE', #756, #869, #460 ) ;
#709 = CARTESIAN_POINT ( 'NONE',  ( -93.20714515245173004, -10.29601728738355249, 6.000000000000000000 ) ) ;
#710 = FACE_BOUND ( 'NONE', #530, .T. ) ;
#711 = CARTESIAN_POINT ( 'NONE',  ( -122.0000000000000711, -1.110223024625156540E-13, 6.000000000000000000 ) ) ;
#712 = ORIENTED_EDGE ( 'NONE', *, *, #796, .T. ) ;
#713 = CARTESIAN_POINT ( 'NONE',  ( -56.00000000000019895, 269.3054965373763139, 0.000000000000000000 ) ) ;
#714 = ORIENTED_EDGE ( 'NONE', *, *, #6, .T. ) ;
#715 = DIRECTION ( 'NONE',  ( -1.000000000000000000, 0.000000000000000000, 0.000000000000000000 ) ) ;
#716 = CARTESIAN_POINT ( 'NONE',  ( -91.34369067053025049, 7.302913518862170328, 1.972015686842801596 ) ) ;
#717 = ORIENTED_EDGE ( 'NONE', *, *, #1108, .T. ) ;
#718 = CARTESIAN_POINT ( 'NONE',  ( -14.73979408326218632, 7.576180049890900214, 1.448083387274818001 ) ) ;
#719 = ORIENTED_EDGE ( 'NONE', *, *, #988, .T. ) ;
#720 = EDGE_CURVE ( 'NONE', #567, #740, #215, .T. ) ;
#721 = CIRCLE ( 'NONE', #166, 7.000000000000006217 ) ;
#722 = FACE_BOUND ( 'NONE', #154, .T. ) ;
#723 = CIRCLE ( 'NONE', #185, 7.000000000000002665 ) ;
#724 = CIRCLE ( 'NONE', #186, 2.100000000000004530 ) ;
#725 = DIRECTION ( 'NONE',  ( 0.000000000000000000, 0.000000000000000000, 1.000000000000000000 ) ) ;
#726 = ORIENTED_EDGE ( 'NONE', *, *, #865, .F. ) ;
#727 = CARTESIAN_POINT ( 'NONE',  ( 39.21947719428340662, 11.24600411733359095, 6.000000000000000000 ) ) ;
#728 = ORIENTED_EDGE ( 'NONE', *, *, #379, .F. ) ;
#729 = LINE ( 'NONE', #239, #462 ) ;
#730 = DIRECTION ( 'NONE',  ( -0.000000000000000000, -0.000000000000000000, -1.000000000000000000 ) ) ;
#731 = EDGE_CURVE ( 'NONE', #226, #629, #729, .T. ) ;
#732 = ORIENTED_EDGE ( 'NONE', *, *, #1108, .F. ) ;
#733 = CARTESIAN_POINT ( 'NONE',  ( -56.00000000000019895, 269.3054965373763139, 6.000000000000000000 ) ) ;
#734 = ORIENTED_EDGE ( 'NONE', *, *, #203, .F. ) ;
#735 = APPROVAL ( #473, 'Coincidente' ) ;
#736 = DIRECTION ( 'NONE',  ( -1.000000000000000000, 0.000000000000000000, 0.000000000000000000 ) ) ;
#737 = ADVANCED_FACE ( 'NONE', ( #329 ), #525, .F. ) ;
#738 = ORIENTED_EDGE ( 'NONE', *, *, #1016, .F. ) ;
#739 = CARTESIAN_POINT ( 'NONE',  ( -14.20660428270822351, 7.602727044728541550, 1.306003640282710654 ) ) ;
#740 = VERTEX_POINT ( 'NONE', #896 ) ;
#741 = AXIS2_PLACEMENT_3D ( 'NONE', #269, #674, #95 ) ;
#742 = CARTESIAN_POINT ( 'NONE',  ( -18.92476408197864757, -9.304755488527137075, 4.000000000000000000 ) ) ;
#743 = VECTOR ( 'NONE', #809, 1000.000000000000000 ) ;
#744 = ORIENTED_EDGE ( 'NONE', *, *, #303, .T. ) ;
#745 = DIRECTION ( 'NONE',  ( -1.000000000000000000, 0.000000000000000000, 0.000000000000000000 ) ) ;
#746 = ORIENTED_EDGE ( 'NONE', *, *, #941, .F. ) ;
#747 = ADVANCED_FACE ( 'NONE', ( #722, #149, #710, #348, #321 ), #1007, .T. ) ;
#748 = CARTESIAN_POINT ( 'NONE',  ( -112.0000000000000711, -1.110223024625156540E-13, 0.000000000000000000 ) ) ;
#749 = DIRECTION ( 'NONE',  ( -1.000000000000000000, 0.000000000000000000, 0.000000000000000000 ) ) ;
#750 = FACE_BOUND ( 'NONE', #1103, .T. ) ;
#751 = ORIENTED_EDGE ( 'NONE', *, *, #75, .F. ) ;
#752 = CARTESIAN_POINT ( 'NONE',  ( -17.13517037456746905, 7.460791628387716479, 4.224766719297149642 ) ) ;
#753 = EDGE_CURVE ( 'NONE', #358, #169, #229, .T. ) ;
#754 = CARTESIAN_POINT ( 'NONE',  ( -19.71621948855938555, -3.357184695388635731, 6.000000000000000000 ) ) ;
#755 = CARTESIAN_POINT ( 'NONE',  ( -19.71621948855938555, -3.357184695388635731, 1.000000000000000000 ) ) ;
#756 = CARTESIAN_POINT ( 'NONE',  ( 0.000000000000000000, 0.000000000000000000, 0.000000000000000000 ) ) ;
#757 = ORIENTED_EDGE ( 'NONE', *, *, #127, .T. ) ;
#758 = DIRECTION ( 'NONE',  ( 0.000000000000000000, 0.000000000000000000, 1.000000000000000000 ) ) ;
#759 = ADVANCED_FACE ( 'NONE', ( #1002, #531 ), #56, .F. ) ;
#760 = DIRECTION ( 'NONE',  ( 0.000000000000000000, 0.000000000000000000, 1.000000000000000000 ) ) ;
#761 = AXIS2_PLACEMENT_3D ( 'NONE', #1109, #514, #1203 ) ;
#762 = AXIS2_PLACEMENT_3D ( 'NONE', #872, #1074, #387 ) ;
#763 = DIRECTION ( 'NONE',  ( 0.000000000000000000, 0.000000000000000000, 1.000000000000000000 ) ) ;
#764 = DATE_AND_TIME ( #2, #466 ) ;
#765 = CIRCLE ( 'NONE', #406, 265.0662655892990074 ) ;
#766 = ORIENTED_EDGE ( 'NONE', *, *, #533, .T. ) ;
#767 = CARTESIAN_POINT ( 'NONE',  ( -93.20714515245173004, -10.29601728738355249, 5.000000000000000000 ) ) ;
#768 = DIRECTION ( 'NONE',  ( 0.000000000000000000, 0.000000000000000000, 1.000000000000000000 ) ) ;
#769 = DIRECTION ( 'NONE',  ( 1.000000000000000000, 0.000000000000000000, 0.000000000000000000 ) ) ;
#770 = PERSON_AND_ORGANIZATION ( #18446744073709551615, #18446744073709551615 ) ;
#771 = ORIENTED_EDGE ( 'NONE', *, *, #891, .F. ) ;
#772 = PLANE ( 'NONE',  #920 ) ;
#773 = DIRECTION ( 'NONE',  ( 1.000000000000000000, 0.000000000000000000, 0.000000000000000000 ) ) ;
#774 = DIRECTION ( 'NONE',  ( 0.000000000000000000, 0.000000000000000000, 1.000000000000000000 ) ) ;
#775 = ADVANCED_FACE ( 'NONE', ( #1182 ), #783, .F. ) ;
#776 = EDGE_LOOP ( 'NONE', ( #415, #431, #1078, #855 ) ) ;
#777 = CARTESIAN_POINT ( 'NONE',  ( -13.77142276770749341, -7.053046157585042941, 1.000000000000000000 ) ) ;
#778 = FACE_OUTER_BOUND ( 'NONE', #469, .T. ) ;
#779 = AXIS2_PLACEMENT_3D ( 'NONE', #1076, #591, #586 ) ;
#780 = CARTESIAN_POINT ( 'NONE',  ( -14.84611000386175306, -7.215168834184976454, 1.983925145864420037 ) ) ;
#781 = CIRCLE ( 'NONE', #67, 6.000000000000005329 ) ;
#782 = ORIENTED_EDGE ( 'NONE', *, *, #898, .T. ) ;
#783 = TOROIDAL_SURFACE ( 'NONE', #963, 281.0662655892990642, 1.000000000000000000 ) ;
#784 = DIRECTION ( 'NONE',  ( -0.000000000000000000, -0.000000000000000000, -1.000000000000000000 ) ) ;
#785 = DIRECTION ( 'NONE',  ( -0.000000000000000000, -0.000000000000000000, -1.000000000000000000 ) ) ;
#786 = DIRECTION ( 'NONE',  ( 1.000000000000000000, 0.000000000000000000, 0.000000000000000000 ) ) ;
#787 = APPROVAL_PERSON_ORGANIZATION ( #649, #1144, #91 ) ;
#788 = EDGE_LOOP ( 'NONE', ( #726, #827, #148, #751 ) ) ;
#789 = CARTESIAN_POINT ( 'NONE',  ( -19.71621948855938555, -3.357184695388635731, 1.000000000000000000 ) ) ;
#790 = EDGE_CURVE ( 'NONE', #928, #986, #621, .T. ) ;
#791 = FACE_OUTER_BOUND ( 'NONE', #410, .T. ) ;
#792 = PLANE ( 'NONE',  #820 ) ;
#793 = ORIENTED_EDGE ( 'NONE', *, *, #1068, .F. ) ;
#794 = LINE ( 'NONE', #511, #601 ) ;
#795 = VERTEX_POINT ( 'NONE', #1088 ) ;
#796 = EDGE_CURVE ( 'NONE', #337, #1165, #1158, .T. ) ;
#797 = CARTESIAN_POINT ( 'NONE',  ( -97.47549813608924296, 7.586850648213837367, 4.598370983987097205 ) ) ;
#798 = CYLINDRICAL_SURFACE ( 'NONE', #181, 2.100000000000000089 ) ;
#799 = ORIENTED_EDGE ( 'NONE', *, *, #891, .T. ) ;
#800 = CARTESIAN_POINT ( 'NONE',  ( -19.71621948855938555, -3.357184695388635731, 6.000000000000000000 ) ) ;
#801 = VECTOR ( 'NONE', #552, 1000.000000000000000 ) ;
#802 = CIRCLE ( 'NONE', #407, 2.099999999999997868 ) ;
#803 = CARTESIAN_POINT ( 'NONE',  ( -89.57914215782692224, 7.230089292388652389, 4.000000000000034639 ) ) ;
#804 = CC_DESIGN_PERSON_AND_ORGANIZATION_ASSIGNMENT ( #196, #571, ( #866 ) ) ;
#805 = CARTESIAN_POINT ( 'NONE',  ( 37.11947719428340520, 11.24600411733359095, 6.000000000000000000 ) ) ;
#806 = ORIENTED_EDGE ( 'NONE', *, *, #167, .T. ) ;
#807 = LINE ( 'NONE', #709, #901 ) ;
#808 = EDGE_CURVE ( 'NONE', #922, #632, #1101, .T. ) ;
#809 = DIRECTION ( 'NONE',  ( -0.000000000000000000, -0.000000000000000000, -1.000000000000000000 ) ) ;
#810 = DIRECTION ( 'NONE',  ( 1.000000000000000000, 0.000000000000000000, 0.000000000000000000 ) ) ;
#811 = EDGE_CURVE ( 'NONE', #1019, #996, #823, .T. ) ;
#812 = ORIENTED_EDGE ( 'NONE', *, *, #295, .F. ) ;
#813 = DIRECTION ( 'NONE',  ( 0.000000000000000000, 0.000000000000000000, 1.000000000000000000 ) ) ;
#814 = ORIENTED_EDGE ( 'NONE', *, *, #790, .T. ) ;
#815 = DIRECTION ( 'NONE',  ( 1.000000000000000000, 0.000000000000000000, -0.000000000000000000 ) ) ;
#816 = FACE_OUTER_BOUND ( 'NONE', #1207, .T. ) ;
#817 = ORIENTED_EDGE ( 'NONE', *, *, #859, .T. ) ;
#818 = DIRECTION ( 'NONE',  ( 0.000000000000000000, 0.000000000000000000, 1.000000000000000000 ) ) ;
#819 = EDGE_LOOP ( 'NONE', ( #1180, #625, #374, #654 ) ) ;
#820 = AXIS2_PLACEMENT_3D ( 'NONE', #126, #208, #1167 ) ;
#821 = AXIS2_PLACEMENT_3D ( 'NONE', #1053, #305, #211 ) ;
#822 = CARTESIAN_POINT ( 'NONE',  ( -56.00000000000058265, 842.3166425032684401, 2.000000000000000000 ) ) ;
#823 = CIRCLE ( 'NONE', #684, 835.7595331965638934 ) ;
#824 = EDGE_CURVE ( 'NONE', #567, #448, #1159, .T. ) ;
#825 = FACE_OUTER_BOUND ( 'NONE', #68, .T. ) ;
#826 = ADVANCED_FACE ( 'NONE', ( #377 ), #1147, .F. ) ;
#827 = ORIENTED_EDGE ( 'NONE', *, *, #790, .F. ) ;
#828 = LINE ( 'NONE', #53, #947 ) ;
#829 = APPROVAL_PERSON_ORGANIZATION ( #190, #735, #854 ) ;
#830 = VERTEX_POINT ( 'NONE', #777 ) ;
#831 = EDGE_CURVE ( 'NONE', #845, #986, #168, .T. ) ;
#832 = DIRECTION ( 'NONE',  ( 1.000000000000000000, 0.000000000000000000, 0.000000000000000000 ) ) ;
#833 = ORIENTED_EDGE ( 'NONE', *, *, #645, .F. ) ;
#834 = DIRECTION ( 'NONE',  ( 0.000000000000000000, 0.000000000000000000, 1.000000000000000000 ) ) ;
#835 = ORIENTED_EDGE ( 'NONE', *, *, #347, .F. ) ;
#836 = CARTESIAN_POINT ( 'NONE',  ( -92.28378051144066774, -3.357184695388723217, 0.000000000000000000 ) ) ;
#837 = DIRECTION ( 'NONE',  ( -0.000000000000000000, -0.000000000000000000, -1.000000000000000000 ) ) ;
#838 = CARTESIAN_POINT ( 'NONE',  ( 39.21947719428340662, 11.24600411733359095, 6.000000000000000000 ) ) ;
#839 = ORIENTED_EDGE ( 'NONE', *, *, #188, .T. ) ;
#840 = AXIS2_PLACEMENT_3D ( 'NONE', #584, #124, #685 ) ;
#841 = FACE_OUTER_BOUND ( 'NONE', #1146, .T. ) ;
#842 = AXIS2_PLACEMENT_3D ( 'NONE', #18, #664, #871 ) ;
#843 = CARTESIAN_POINT ( 'NONE',  ( -114.0358730606250504, -9.790567954976847176, 6.000000000000000000 ) ) ;
#844 = DATE_AND_TIME ( #566, #367 ) ;
#845 = VERTEX_POINT ( 'NONE', #193 ) ;
#846 = CARTESIAN_POINT ( 'NONE',  ( -13.81470222880308540, 7.622448059939777032, 4.900233823225315533 ) ) ;
#847 = CARTESIAN_POINT ( 'NONE',  ( 0.000000000000000000, 0.000000000000000000, 0.000000000000000000 ) ) ;
#848 = ORIENTED_EDGE ( 'NONE', *, *, #354, .T. ) ;
#849 = ADVANCED_FACE ( 'NONE', ( #202 ), #568, .F. ) ;
#850 = ORIENTED_EDGE ( 'NONE', *, *, #1186, .T. ) ;
#851 = CARTESIAN_POINT ( 'NONE',  ( -56.00000000000019895, 269.3054965373763139, 4.000000000000000000 ) ) ;
#852 = CARTESIAN_POINT ( 'NONE',  ( 42.68116948833056767, 1.864283248466658272, 6.000000000000000000 ) ) ;
#853 = LINE ( 'NONE', #843, #204 ) ;
#854 = APPROVAL_ROLE ( '' ) ;
#855 = ORIENTED_EDGE ( 'NONE', *, *, #315, .F. ) ;
#856 = CARTESIAN_POINT ( 'NONE',  ( -56.00000000000039080, 555.8110695203223486, 2.000000000000000000 ) ) ;
#857 = CARTESIAN_POINT ( 'NONE',  ( -109.9641269393749070, 9.790567954976904019, 6.000000000000000000 ) ) ;
#858 = AXIS2_PLACEMENT_3D ( 'NONE', #414, #678, #1070 ) ;
#859 = EDGE_CURVE ( 'NONE', #596, #605, #1061, .T. ) ;
#860 = CARTESIAN_POINT ( 'NONE',  ( 42.68116948833056767, 1.864283248466658272, 6.000000000000000000 ) ) ;
#861 = COORDINATED_UNIVERSAL_TIME_OFFSET ( 3, 0, .BEHIND. ) ;
#862 = AXIS2_PLACEMENT_3D ( 'NONE', #165, #834, #251 ) ;
#863 = ORIENTED_EDGE ( 'NONE', *, *, #1081, .T. ) ;
#864 = CARTESIAN_POINT ( 'NONE',  ( -15.38364563709786026, 7.544519677468687568, 4.429576155062034282 ) ) ;
#865 = EDGE_CURVE ( 'NONE', #986, #65, #672, .T. ) ;
#866 = PRODUCT_DEFINITION_FORMATION_WITH_SPECIFIED_SOURCE ( 'Simétric', '', #32, .NOT_KNOWN. ) ;
#867 = DIRECTION ( 'NONE',  ( -0.000000000000000000, -0.000000000000000000, -1.000000000000000000 ) ) ;
#868 = CARTESIAN_POINT ( 'NONE',  ( -97.15388999613828958, -7.215168834185029745, 4.016074854135576189 ) ) ;
#869 = DIRECTION ( 'NONE',  ( 0.000000000000000000, 0.000000000000000000, 1.000000000000000000 ) ) ;
#870 = VERTEX_POINT ( 'NONE', #1063 ) ;
#871 = DIRECTION ( 'NONE',  ( 1.000000000000000000, 0.000000000000000000, 0.000000000000000000 ) ) ;
#872 = CARTESIAN_POINT ( 'NONE',  ( 39.21947719428340662, 11.24600411733359095, 6.000000000000000000 ) ) ;
#873 = DIRECTION ( 'NONE',  ( -0.000000000000000000, -0.000000000000000000, -1.000000000000000000 ) ) ;
#874 = ORIENTED_EDGE ( 'NONE', *, *, #824, .F. ) ;
#875 = DIRECTION ( 'NONE',  ( -0.000000000000000000, -0.000000000000000000, -1.000000000000000000 ) ) ;
#876 = CARTESIAN_POINT ( 'NONE',  ( -92.28378051144066774, -3.357184695388723217, 6.000000000000000000 ) ) ;
#877 = CIRCLE ( 'NONE', #1020, 6.000000000000001776 ) ;
#878 = CARTESIAN_POINT ( 'NONE',  ( -14.53850103481577882, -7.169213233527055529, 1.910664745118320074 ) ) ;
#879 = PRODUCT_RELATED_PRODUCT_CATEGORY ( 'detail', '', ( #32 ) ) ;
#880 = CALENDAR_DATE ( 2026, 14, 9 ) ;
#881 = VECTOR ( 'NONE', #651, 1000.000000000000000 ) ;
#882 = EDGE_CURVE ( 'NONE', #1066, #534, #223, .T. ) ;
#883 = VERTEX_POINT ( 'NONE', #655 ) ;
#884 = CIRCLE ( 'NONE', #939, 279.5662655892990074 ) ;
#885 = CARTESIAN_POINT ( 'NONE',  ( -96.83949089533139443, -7.261733695991479109, 2.000000000000000000 ) ) ;
#886 = VECTOR ( 'NONE', #345, 1000.000000000000000 ) ;
#887 = CARTESIAN_POINT ( 'NONE',  ( -112.0000000000000711, -1.110223024625156540E-13, 6.000000000000000000 ) ) ;
#888 = CARTESIAN_POINT ( 'NONE',  ( -15.00235314304428158, -7.238379486783914629, 2.000000000000001776 ) ) ;
#889 = ORIENTED_EDGE ( 'NONE', *, *, #1196, .F. ) ;
#890 = CARTESIAN_POINT ( 'NONE',  ( -13.78297522758400184, 7.624052135210534153, 1.055213412695162667 ) ) ;
#891 = EDGE_CURVE ( 'NONE', #968, #883, #1220, .T. ) ;
#892 = CARTESIAN_POINT ( 'NONE',  ( -56.00000000000019895, 269.3054965373763139, 6.000000000000000000 ) ) ;
#893 = DIRECTION ( 'NONE',  ( 1.000000000000000000, 0.000000000000000000, 0.000000000000000000 ) ) ;
#894 = ORIENTED_EDGE ( 'NONE', *, *, #507, .F. ) ;
#895 = CARTESIAN_POINT ( 'NONE',  ( -13.95139087164404934, 7.615549719359423264, 1.198741085725243627 ) ) ;
#896 = CARTESIAN_POINT ( 'NONE',  ( -98.22857723229256521, 7.624636674846252404, 1.000000000000000000 ) ) ;
#897 = CARTESIAN_POINT ( 'NONE',  ( -114.1000000000000796, -1.110223024625156540E-13, 6.000000000000000000 ) ) ;
#898 = EDGE_CURVE ( 'NONE', #707, #1034, #390, .T. ) ;
#899 = APPROVAL_DATE_TIME ( #1060, #1135 ) ;
#900 = ORIENTED_EDGE ( 'NONE', *, *, #796, .F. ) ;
#901 = VECTOR ( 'NONE', #689, 1000.000000000000000 ) ;
#902 = DIRECTION ( 'NONE',  ( -0.000000000000000000, -0.000000000000000000, -1.000000000000000000 ) ) ;
#903 = EDGE_CURVE ( 'NONE', #795, #534, #520, .T. ) ;
#904 = CARTESIAN_POINT ( 'NONE',  ( -56.00000000000058265, 842.3166425032684401, 4.000000000000000000 ) ) ;
#905 = VERTEX_POINT ( 'NONE', #767 ) ;
#906 = CARTESIAN_POINT ( 'NONE',  ( -99.28378051144066774, -3.357184695388723217, 6.000000000000000000 ) ) ;
#907 = ORIENTED_EDGE ( 'NONE', *, *, #327, .T. ) ;
#908 = DIRECTION ( 'NONE',  ( 0.000000000000000000, 0.000000000000000000, 1.000000000000000000 ) ) ;
#909 = CARTESIAN_POINT ( 'NONE',  ( -98.10041616313307600, 7.618161528593384801, 1.170262727468346586 ) ) ;
#910 = ORIENTED_EDGE ( 'NONE', *, *, #127, .F. ) ;
#911 = FACE_OUTER_BOUND ( 'NONE', #614, .T. ) ;
#912 = VERTEX_POINT ( 'NONE', #671 ) ;
#913 = CARTESIAN_POINT ( 'NONE',  ( -56.00000000000019895, 269.3054965373763139, 6.000000000000000000 ) ) ;
#914 = LINE ( 'NONE', #897, #240 ) ;
#915 = ORIENTED_EDGE ( 'NONE', *, *, #1186, .F. ) ;
#916 = DIRECTION ( 'NONE',  ( 0.000000000000000000, 0.000000000000000000, 1.000000000000000000 ) ) ;
#917 = ADVANCED_FACE ( 'NONE', ( #1052 ), #772, .T. ) ;
#918 = EDGE_LOOP ( 'NONE', ( #474, #61, #209, #650 ) ) ;
#919 = AXIS2_PLACEMENT_3D ( 'NONE', #491, #595, #1157 ) ;
#920 = AXIS2_PLACEMENT_3D ( 'NONE', #298, #676, #694 ) ;
#921 = CARTESIAN_POINT ( 'NONE',  ( -89.57984030798093045, 7.230115889191093714, 2.000000000000000444 ) ) ;
#922 = VERTEX_POINT ( 'NONE', #314 ) ;
#923 = DIRECTION ( 'NONE',  ( 1.000000000000000000, 0.000000000000000000, 0.000000000000000000 ) ) ;
#924 = LOCAL_TIME ( 10, 32, 39.00000000000000000, #479 ) ;
#925 = EDGE_LOOP ( 'NONE', ( #291, #670 ) ) ;
#926 = CC_DESIGN_PERSON_AND_ORGANIZATION_ASSIGNMENT ( #281, #1218, ( #412 ) ) ;
#927 = CYLINDRICAL_SURFACE ( 'NONE', #284, 279.5662655892990074 ) ;
#928 = VERTEX_POINT ( 'NONE', #505 ) ;
#929 = CARTESIAN_POINT ( 'NONE',  ( -15.82680663874952387, 7.523072595442140020, 1.628872331129929352 ) ) ;
#930 = VERTEX_POINT ( 'NONE', #985 ) ;
#931 = DIRECTION ( 'NONE',  ( 1.000000000000000000, 0.000000000000000000, 0.000000000000000000 ) ) ;
#932 = CARTESIAN_POINT ( 'NONE',  ( -14.84701893146658236, -7.215303117240085662, 4.016107041747008388 ) ) ;
#933 = DATE_AND_TIME ( #661, #924 ) ;
#934 = ORIENTED_EDGE ( 'NONE', *, *, #33, .T. ) ;
#935 = CARTESIAN_POINT ( 'NONE',  ( -18.01502685232322420, 7.420292153514978395, 4.164534815174037341 ) ) ;
#936 = AXIS2_PLACEMENT_3D ( 'NONE', #51, #254, #634 ) ;
#937 = VECTOR ( 'NONE', #316, 1000.000000000000000 ) ;
#938 = B_SPLINE_CURVE_WITH_KNOTS ( 'NONE', 3,
 ( #40, #686, #120, #691, #1065, #212, #878, #780, #888, #972 ),
 .UNSPECIFIED., .F., .F.,
 ( 4, 2, 2, 2, 4 ),
 ( 8.673617379884035472E-19, 0.0004761348634987829127, 0.0009522697269975649581, 0.001428404590496347003, 0.001904539453995129049 ),
 .UNSPECIFIED. ) ;
#939 = AXIS2_PLACEMENT_3D ( 'NONE', #494, #785, #1163 ) ;
#940 = CARTESIAN_POINT ( 'NONE',  ( -98.22857723229255100, -7.053046157585081133, 4.000000000000000000 ) ) ;
#941 = EDGE_CURVE ( 'NONE', #1128, #542, #765, .T. ) ;
#942 = AXIS2_PLACEMENT_3D ( 'NONE', #430, #362, #745 ) ;
#943 = DIRECTION ( 'NONE',  ( 0.000000000000000000, 0.000000000000000000, 1.000000000000000000 ) ) ;
#944 = PERSON_AND_ORGANIZATION_ROLE ( 'design_owner' ) ;
#945 = ORIENTED_EDGE ( 'NONE', *, *, #551, .F. ) ;
#946 = CARTESIAN_POINT ( 'NONE',  ( -96.83949089533139443, -7.261733695991479109, 2.000000000000000000 ) ) ;
#947 = VECTOR ( 'NONE', #535, 1000.000000000000000 ) ;
#948 = LINE ( 'NONE', #279, #801 ) ;
#949 = ORIENTED_EDGE ( 'NONE', *, *, #354, .F. ) ;
#950 = DIRECTION ( 'NONE',  ( 1.000000000000000000, 0.000000000000000000, -0.000000000000000000 ) ) ;
#951 = EDGE_LOOP ( 'NONE', ( #889, #863, #71, #700, #1013, #266, #146, #663 ) ) ;
#952 = DIRECTION ( 'NONE',  ( 1.000000000000000000, 0.000000000000000000, -0.000000000000000000 ) ) ;
#953 = DIRECTION ( 'NONE',  ( -0.000000000000000000, -0.000000000000000000, -1.000000000000000000 ) ) ;
#954 = CARTESIAN_POINT ( 'NONE',  ( -19.71621948855938555, -3.357184695388635731, 5.000000000000000000 ) ) ;
#955 = SECURITY_CLASSIFICATION_LEVEL ( 'unclassified' ) ;
#956 = VERTEX_POINT ( 'NONE', #611 ) ;
#957 = DIRECTION ( 'NONE',  ( -1.000000000000000000, 0.000000000000000000, 0.000000000000000000 ) ) ;
#958 = ADVANCED_FACE ( 'NONE', ( #140 ), #1072, .F. ) ;
#959 = DIRECTION ( 'NONE',  ( -1.000000000000000000, 0.000000000000000000, 0.000000000000000000 ) ) ;
#960 = CIRCLE ( 'NONE', #1213, 2.100000000000004530 ) ;
#961 = AXIS2_PLACEMENT_3D ( 'NONE', #876, #490, #959 ) ;
#962 = CARTESIAN_POINT ( 'NONE',  ( -112.0000000000000711, -1.110223024625156540E-13, 0.000000000000000000 ) ) ;
#963 = AXIS2_PLACEMENT_3D ( 'NONE', #333, #438, #432 ) ;
#964 = ORIENTED_EDGE ( 'NONE', *, *, #436, .F. ) ;
#965 = DIRECTION ( 'NONE',  ( -0.000000000000000000, -0.000000000000000000, -1.000000000000000000 ) ) ;
#966 = CARTESIAN_POINT ( 'NONE',  ( -2.100000000000000089, 0.000000000000000000, 6.000000000000000000 ) ) ;
#967 = CARTESIAN_POINT ( 'NONE',  ( -98.22857723229259364, -7.053046157585097120, 4.838676134193563350 ) ) ;
#968 = VERTEX_POINT ( 'NONE', #134 ) ;
#969 = DIRECTION ( 'NONE',  ( 1.000000000000000000, 0.000000000000000000, 0.000000000000000000 ) ) ;
#970 = CARTESIAN_POINT ( 'NONE',  ( -92.28378051144066774, -3.357184695388723217, 4.000000000000000000 ) ) ;
#971 = ADVANCED_FACE ( 'NONE', ( #1161 ), #107, .F. ) ;
#972 = CARTESIAN_POINT ( 'NONE',  ( -15.16050910466865886, -7.261733695991424042, 2.000000000000000000 ) ) ;
#973 = ORIENTED_EDGE ( 'NONE', *, *, #97, .T. ) ;
#974 = FACE_OUTER_BOUND ( 'NONE', #1011, .T. ) ;
#975 = DIRECTION ( 'NONE',  ( -1.000000000000000000, 0.000000000000000000, 0.000000000000000000 ) ) ;
#976 = CIRCLE ( 'NONE', #998, 264.0662655892990074 ) ;
#977 = FACE_OUTER_BOUND ( 'NONE', #592, .T. ) ;
#978 = ADVANCED_FACE ( 'NONE', ( #974 ), #1080, .T. ) ;
#979 = ORIENTED_EDGE ( 'NONE', *, *, #697, .F. ) ;
#980 = CIRCLE ( 'NONE', #559, 10.00000000000000178 ) ;
#981 = DIRECTION ( 'NONE',  ( 0.000000000000000000, 0.000000000000000000, 1.000000000000000000 ) ) ;
#982 = LINE ( 'NONE', #966, #937 ) ;
#983 = CYLINDRICAL_SURFACE ( 'NONE', #1173, 2.099999999999997868 ) ;
#984 = ORIENTED_EDGE ( 'NONE', *, *, #303, .F. ) ;
#985 = CARTESIAN_POINT ( 'NONE',  ( -96.83949089533139443, -7.261733695991479109, 4.000000000000000000 ) ) ;
#986 = VERTEX_POINT ( 'NONE', #885 ) ;
#987 = CARTESIAN_POINT ( 'NONE',  ( -94.85845301831251675, 7.460494451772447633, 4.224248967667339372 ) ) ;
#988 = EDGE_CURVE ( 'NONE', #1034, #1095, #794, .T. ) ;
#989 = CARTESIAN_POINT ( 'NONE',  ( -98.18529777119799462, 7.622448059939944898, 1.099766176775278215 ) ) ;
#990 = ORIENTED_EDGE ( 'NONE', *, *, #1043, .F. ) ;
#991 = CARTESIAN_POINT ( 'NONE',  ( 39.21947719428340662, 11.24600411733359095, 0.000000000000000000 ) ) ;
#992 = EDGE_CURVE ( 'NONE', #870, #335, #807, .T. ) ;
#993 = DIRECTION ( 'NONE',  ( 0.000000000000000000, 0.000000000000000000, 1.000000000000000000 ) ) ;
#994 = FACE_OUTER_BOUND ( 'NONE', #1071, .T. ) ;
#995 = CIRCLE ( 'NONE', #456, 835.7595331965638934 ) ;
#996 = VERTEX_POINT ( 'NONE', #129 ) ;
#997 = CARTESIAN_POINT ( 'NONE',  ( -122.0000000000000711, -1.110223024625156540E-13, 6.000000000000000000 ) ) ;
#998 = AXIS2_PLACEMENT_3D ( 'NONE', #622, #725, #350 ) ;
#999 = AXIS2_PLACEMENT_3D ( 'NONE', #892, #293, #975 ) ;
#1000 = ORIENTED_EDGE ( 'NONE', *, *, #551, .T. ) ;
#1001 = AXIS2_PLACEMENT_3D ( 'NONE', #851, #758, #285 ) ;
#1002 = FACE_OUTER_BOUND ( 'NONE', #47, .T. ) ;
#1003 = CARTESIAN_POINT ( 'NONE',  ( -93.98497314767685396, 7.420292153514809641, 1.835465184825895824 ) ) ;
#1004 = EDGE_LOOP ( 'NONE', ( #325, #139, #307, #528, #3 ) ) ;
#1005 = CARTESIAN_POINT ( 'NONE',  ( 39.21947719428340662, 11.24600411733359095, 6.000000000000000000 ) ) ;
#1006 = ORIENTED_EDGE ( 'NONE', *, *, #1049, .T. ) ;
#1007 = PLANE ( 'NONE',  #304 ) ;
#1008 = CARTESIAN_POINT ( 'NONE',  ( -18.92476408197864757, -9.304755488527137075, 2.000000000000000000 ) ) ;
#1009 = EDGE_CURVE ( 'NONE', #1184, #1128, #980, .T. ) ;
#1010 = ADVANCED_BREP_SHAPE_REPRESENTATION ( 'eslabon_CDP_v2', ( #73, #708 ), #1104 ) ;
#1011 = EDGE_LOOP ( 'NONE', ( #915, #136, #332, #343 ) ) ;
#1012 = DIRECTION ( 'NONE',  ( 0.000000000000000000, 0.000000000000000000, 1.000000000000000000 ) ) ;
#1013 = ORIENTED_EDGE ( 'NONE', *, *, #512, .T. ) ;
#1014 = CARTESIAN_POINT ( 'NONE',  ( -98.16371591536547214, 7.621357461352347151, 4.879870166336399251 ) ) ;
#1015 = CARTESIAN_POINT ( 'NONE',  ( -56.00000000000058265, 842.3166425032684401, 4.000000000000000000 ) ) ;
#1016 = EDGE_CURVE ( 'NONE', #55, #173, #723, .T. ) ;
#1017 = ORIENTED_EDGE ( 'NONE', *, *, #753, .T. ) ;
#1018 = DIRECTION ( 'NONE',  ( 0.9912617988564143001, -0.1319092344301413255, 2.064826044312071471E-14 ) ) ;
#1019 = VERTEX_POINT ( 'NONE', #1177 ) ;
#1020 = AXIS2_PLACEMENT_3D ( 'NONE', #698, #306, #503 ) ;
#1021 = AXIS2_PLACEMENT_3D ( 'NONE', #624, #1018, #257 ) ;
#1022 = CARTESIAN_POINT ( 'NONE',  ( -109.9000000000000625, -1.107651266346947128E-13, 6.000000000000000000 ) ) ;
#1023 = ORIENTED_EDGE ( 'NONE', *, *, #249, .F. ) ;
#1024 = DIRECTION ( 'NONE',  ( 1.000000000000000000, 0.000000000000000000, 0.000000000000000000 ) ) ;
#1025 = ORIENTED_EDGE ( 'NONE', *, *, #1009, .F. ) ;
#1026 = DIRECTION ( 'NONE',  ( -0.000000000000000000, -0.000000000000000000, -1.000000000000000000 ) ) ;
#1027 = CARTESIAN_POINT ( 'NONE',  ( -18.79285484754852220, -10.29601728738355249, 6.000000000000000000 ) ) ;
#1028 = FACE_BOUND ( 'NONE', #504, .T. ) ;
#1029 = ORIENTED_EDGE ( 'NONE', *, *, #824, .T. ) ;
#1030 = ADVANCED_FACE ( 'NONE', ( #49 ), #1120, .F. ) ;
#1031 = DIRECTION ( 'NONE',  ( 1.000000000000000000, 2.664039623821522927E-15, 0.000000000000000000 ) ) ;
#1032 = DIRECTION ( 'NONE',  ( -1.000000000000000000, 0.000000000000000000, 0.000000000000000000 ) ) ;
#1033 = FACE_BOUND ( 'NONE', #1062, .T. ) ;
#1034 = VERTEX_POINT ( 'NONE', #1170 ) ;
#1035 = CARTESIAN_POINT ( 'NONE',  ( -13.77142276770607587, 7.624636674846366091, 4.972025048716048445 ) ) ;
#1036 = TOROIDAL_SURFACE ( 'NONE', #858, 281.0662655892990642, 1.000000000000000000 ) ;
#1037 = CIRCLE ( 'NONE', #423, 9.999999999999994671 ) ;
#1038 = AXIS2_PLACEMENT_3D ( 'NONE', #612, #993, #417 ) ;
#1039 = DIRECTION ( 'NONE',  ( -0.000000000000000000, -0.000000000000000000, -1.000000000000000000 ) ) ;
#1040 = AXIS2_PLACEMENT_3D ( 'NONE', #1005, #529, #78 ) ;
#1041 = DIRECTION ( 'NONE',  ( 0.000000000000000000, 0.000000000000000000, 1.000000000000000000 ) ) ;
#1042 =( NAMED_UNIT ( * ) PLANE_ANGLE_UNIT ( ) SI_UNIT ( $, .RADIAN. ) );
#1043 = EDGE_CURVE ( 'NONE', #596, #1128, #411, .T. ) ;
#1044 = ORIENTED_EDGE ( 'NONE', *, *, #565, .F. ) ;
#1045 = DIRECTION ( 'NONE',  ( -0.000000000000000000, -0.000000000000000000, -1.000000000000000000 ) ) ;
#1046 = ADVANCED_FACE ( 'NONE', ( #319 ), #342, .F. ) ;
#1047 = DIRECTION ( 'NONE',  ( -0.000000000000000000, -0.000000000000000000, -1.000000000000000000 ) ) ;
#1048 = CYLINDRICAL_SURFACE ( 'NONE', #260, 7.000000000000006217 ) ;
#1049 = EDGE_CURVE ( 'NONE', #544, #12, #24, .T. ) ;
#1050 = APPROVAL_STATUS ( 'not_yet_approved' ) ;
#1051 = ORIENTED_EDGE ( 'NONE', *, *, #811, .T. ) ;
#1052 = FACE_OUTER_BOUND ( 'NONE', #492, .T. ) ;
#1053 = CARTESIAN_POINT ( 'NONE',  ( -56.00000000000019895, 269.3054965373763139, 5.000000000000000000 ) ) ;
#1054 = DIRECTION ( 'NONE',  ( 0.1319092344301553976, 0.9912617988564123017, 0.000000000000000000 ) ) ;
#1055 = EDGE_LOOP ( 'NONE', ( #1114, #396, #732, #192 ) ) ;
#1056 = CARTESIAN_POINT ( 'NONE',  ( -56.00000000000019895, 269.3054965373763139, 2.000000000000000000 ) ) ;
#1057 = FACE_OUTER_BOUND ( 'NONE', #318, .T. ) ;
#1058 = AXIS2_PLACEMENT_3D ( 'NONE', #452, #294, #1054 ) ;
#1059 = PLANE ( 'NONE',  #919 ) ;
#1060 = DATE_AND_TIME ( #880, #1083 ) ;
#1061 = CIRCLE ( 'NONE', #842, 265.0662655892990074 ) ;
#1062 = EDGE_LOOP ( 'NONE', ( #1000, #643 ) ) ;
#1063 = CARTESIAN_POINT ( 'NONE',  ( -93.20714515245173004, -10.29601728738355249, 1.000000000000000000 ) ) ;
#1064 = CARTESIAN_POINT ( 'NONE',  ( -109.9641269393749070, 9.790567954976904019, 6.000000000000000000 ) ) ;
#1065 = CARTESIAN_POINT ( 'NONE',  ( -14.12034741714161257, -7.106171694408788930, 1.690314532788681490 ) ) ;
#1066 = VERTEX_POINT ( 'NONE', #593 ) ;
#1067 = CARTESIAN_POINT ( 'NONE',  ( -18.79285484754852220, -10.29601728738355249, 6.000000000000000000 ) ) ;
#1068 = EDGE_CURVE ( 'NONE', #1095, #1019, #699, .T. ) ;
#1069 = DIRECTION ( 'NONE',  ( 0.000000000000000000, 0.000000000000000000, 1.000000000000000000 ) ) ;
#1070 = DIRECTION ( 'NONE',  ( 1.000000000000000000, 0.000000000000000000, 0.000000000000000000 ) ) ;
#1071 = EDGE_LOOP ( 'NONE', ( #719, #1141, #1051, #1191, #579, #1029, #637, #782 ) ) ;
#1072 = CYLINDRICAL_SURFACE ( 'NONE', #442, 2.100000000000004530 ) ;
#1073 = APPLICATION_CONTEXT ( 'configuration controlled 3d designs of mechanical parts and assemblies' ) ;
#1074 = DIRECTION ( 'NONE',  ( 0.000000000000000000, 0.000000000000000000, 1.000000000000000000 ) ) ;
#1075 = CIRCLE ( 'NONE', #936, 2.100000000000000089 ) ;
#1076 = CARTESIAN_POINT ( 'NONE',  ( -19.71621948855938555, -3.357184695388635731, 2.000000000000000000 ) ) ;
#1077 = AXIS2_PLACEMENT_3D ( 'NONE', #20, #768, #1143 ) ;
#1078 = ORIENTED_EDGE ( 'NONE', *, *, #54, .F. ) ;
#1079 = VECTOR ( 'NONE', #597, 1000.000000000000000 ) ;
#1080 = CYLINDRICAL_SURFACE ( 'NONE', #242, 9.999999999999994671 ) ;
#1081 = EDGE_CURVE ( 'NONE', #1205, #112, #662, .T. ) ;
#1082 = CARTESIAN_POINT ( 'NONE',  ( -96.17319336125052587, 7.523072595442121369, 4.371127668870005145 ) ) ;
#1083 = LOCAL_TIME ( 10, 32, 39.00000000000000000, #509 ) ;
#1084 = CARTESIAN_POINT ( 'NONE',  ( -93.20714515245173004, -10.29601728738355249, 0.000000000000000000 ) ) ;
#1085 = EDGE_CURVE ( 'NONE', #112, #55, #541, .T. ) ;
#1086 = ORIENTED_EDGE ( 'NONE', *, *, #115, .T. ) ;
#1087 = DIRECTION ( 'NONE',  ( -0.000000000000000000, -0.000000000000000000, -1.000000000000000000 ) ) ;
#1088 = CARTESIAN_POINT ( 'NONE',  ( -93.07523591802156204, -9.304755488527149510, 4.000000000000000000 ) ) ;
#1089 = ORIENTED_EDGE ( 'NONE', *, *, #1043, .T. ) ;
#1090 = CARTESIAN_POINT ( 'NONE',  ( -56.00000000000019895, 269.3054965373763139, 1.000000000000000000 ) ) ;
#1091 = ORIENTED_EDGE ( 'NONE', *, *, #512, .F. ) ;
#1092 = CARTESIAN_POINT ( 'NONE',  ( 2.100000000000000089, 2.571758278209441957E-16, 6.000000000000000000 ) ) ;
#1093 = CARTESIAN_POINT ( 'NONE',  ( -96.17906696936798028, 7.523355362892682585, 1.628117828945094381 ) ) ;
#1094 = AXIS2_PLACEMENT_3D ( 'NONE', #428, #162, #832 ) ;
#1095 = VERTEX_POINT ( 'NONE', #1111 ) ;
#1096 = CARTESIAN_POINT ( 'NONE',  ( -24.18389545521757711, 7.162924424653827060, 2.000000000000000000 ) ) ;
#1097 = AXIS2_PLACEMENT_3D ( 'NONE', #913, #50, #422 ) ;
#1098 = ORIENTED_EDGE ( 'NONE', *, *, #1162, .T. ) ;
#1099 = AXIS2_PLACEMENT_3D ( 'NONE', #357, #263, #444 ) ;
#1100 = EDGE_CURVE ( 'NONE', #283, #632, #704, .T. ) ;
#1101 = LINE ( 'NONE', #1092, #364 ) ;
#1102 = LINE ( 'NONE', #613, #5 ) ;
#1103 = EDGE_LOOP ( 'NONE', ( #714, #766 ) ) ;
#1104 =( GEOMETRIC_REPRESENTATION_CONTEXT ( 3 ) GLOBAL_UNCERTAINTY_ASSIGNED_CONTEXT ( ( #19 ) ) GLOBAL_UNIT_ASSIGNED_CONTEXT ( ( #558, #1042, #296 ) ) REPRESENTATION_CONTEXT ( 'NONE', 'WORKASPACE' ) );
#1105 = CARTESIAN_POINT ( 'NONE',  ( -114.1000000000000796, -1.110223024625156540E-13, 6.000000000000000000 ) ) ;
#1106 = VERTEX_POINT ( 'NONE', #244 ) ;
#1107 = DIRECTION ( 'NONE',  ( -0.000000000000000000, -0.000000000000000000, -1.000000000000000000 ) ) ;
#1108 = EDGE_CURVE ( 'NONE', #905, #795, #323, .T. ) ;
#1109 = CARTESIAN_POINT ( 'NONE',  ( -56.00000000000019895, 269.3054965373763139, 6.000000000000000000 ) ) ;
#1110 = ORIENTED_EDGE ( 'NONE', *, *, #90, .F. ) ;
#1111 = CARTESIAN_POINT ( 'NONE',  ( -13.77142276770739926, 7.624636674846254181, 1.000000000000000000 ) ) ;
#1112 = ORIENTED_EDGE ( 'NONE', *, *, #988, .F. ) ;
#1113 = DIRECTION ( 'NONE',  ( 1.000000000000000000, 0.000000000000000000, 0.000000000000000000 ) ) ;
#1114 = ORIENTED_EDGE ( 'NONE', *, *, #882, .T. ) ;
#1115 = CYLINDRICAL_SURFACE ( 'NONE', #1040, 9.999999999999998224 ) ;
#1116 = ORIENTED_EDGE ( 'NONE', *, *, #22, .F. ) ;
#1117 = AXIS2_PLACEMENT_3D ( 'NONE', #380, #943, #1139 ) ;
#1118 = VECTOR ( 'NONE', #1039, 1000.000000000000000 ) ;
#1119 = ADVANCED_FACE ( 'NONE', ( #911 ), #1115, .T. ) ;
#1120 = TOROIDAL_SURFACE ( 'NONE', #483, 264.0662655892990074, 1.000000000000000000 ) ;
#1121 = DIRECTION ( 'NONE',  ( 0.000000000000000000, 0.000000000000000000, 1.000000000000000000 ) ) ;
#1122 = CARTESIAN_POINT ( 'NONE',  ( -112.0000000000000711, -1.110223024625156540E-13, 0.000000000000000000 ) ) ;
#1123 = PERSON_AND_ORGANIZATION ( #18446744073709551615, #18446744073709551615 ) ;
#1124 = EDGE_CURVE ( 'NONE', #968, #358, #802, .T. ) ;
#1125 = ORIENTED_EDGE ( 'NONE', *, *, #1049, .F. ) ;
#1126 = CARTESIAN_POINT ( 'NONE',  ( 39.21947719428340662, 11.24600411733359095, 0.000000000000000000 ) ) ;
#1127 = CARTESIAN_POINT ( 'NONE',  ( -14.39244992278776536, -7.147261172895454706, 4.145053173887724540 ) ) ;
#1128 = VERTEX_POINT ( 'NONE', #636 ) ;
#1129 = CARTESIAN_POINT ( 'NONE',  ( -98.17650081966928610, -7.061013220235006216, 1.318022182863338276 ) ) ;
#1130 = LINE ( 'NONE', #940, #440 ) ;
#1131 = CARTESIAN_POINT ( 'NONE',  ( 39.21947719428340662, 11.24600411733359095, 0.000000000000000000 ) ) ;
#1132 = PERSON_AND_ORGANIZATION ( #18446744073709551615, #18446744073709551615 ) ;
#1133 = ORIENTED_EDGE ( 'NONE', *, *, #731, .F. ) ;
#1134 = CARTESIAN_POINT ( 'NONE',  ( -24.18389545521757711, 7.162924424653827060, 4.000000000000000000 ) ) ;
#1135 = APPROVAL ( #176, 'Coincidente' ) ;
#1136 = AXIS2_PLACEMENT_3D ( 'NONE', #1126, #546, #76 ) ;
#1137 = ADVANCED_FACE ( 'NONE', ( #172 ), #453, .F. ) ;
#1138 = CARTESIAN_POINT ( 'NONE',  ( -56.00000000000019895, 269.3054965373763139, 1.000000000000000000 ) ) ;
#1139 = DIRECTION ( 'NONE',  ( 1.000000000000000000, 0.000000000000000000, 0.000000000000000000 ) ) ;
#1140 = CARTESIAN_POINT ( 'NONE',  ( -84.00000000000012790, 134.6527482686881001, 0.000000000000000000 ) ) ;
#1141 = ORIENTED_EDGE ( 'NONE', *, *, #1068, .T. ) ;
#1142 = CARTESIAN_POINT ( 'NONE',  ( -18.92476408197864757, -9.304755488527137075, 5.000000000000000000 ) ) ;
#1143 = DIRECTION ( 'NONE',  ( 1.000000000000000000, 0.000000000000000000, 0.000000000000000000 ) ) ;
#1144 = APPROVAL ( #1050, 'Coincidente' ) ;
#1145 = DIRECTION ( 'NONE',  ( -0.000000000000000000, -0.000000000000000000, -1.000000000000000000 ) ) ;
#1146 = EDGE_LOOP ( 'NONE', ( #1219, #522, #524, #536, #1091, #346, #371, #757 ) ) ;
#1147 = CYLINDRICAL_SURFACE ( 'NONE', #265, 282.0662655892990642 ) ;
#1148 = FACE_OUTER_BOUND ( 'NONE', #252, .T. ) ;
#1149 = CARTESIAN_POINT ( 'NONE',  ( -20.63958412957033772, 3.581647896606254822, 6.000000000000000000 ) ) ;
#1150 = SHAPE_DEFINITION_REPRESENTATION ( #130, #1010 ) ;
#1151 = ORIENTED_EDGE ( 'NONE', *, *, #631, .F. ) ;
#1152 = CARTESIAN_POINT ( 'NONE',  ( -14.51832772552343087, 7.587157698384171312, 4.599891487826656800 ) ) ;
#1153 = AXIS2_PLACEMENT_3D ( 'NONE', #1015, #1179, #144 ) ;
#1154 = DIRECTION ( 'NONE',  ( 1.000000000000000000, 0.000000000000000000, 0.000000000000000000 ) ) ;
#1155 = TOROIDAL_SURFACE ( 'NONE', #703, 6.000000000000002665, 1.000000000000000000 ) ;
#1156 = CIRCLE ( 'NONE', #1077, 282.0662655892990642 ) ;
#1157 = DIRECTION ( 'NONE',  ( 1.000000000000000000, 0.000000000000000000, -0.000000000000000000 ) ) ;
#1158 = CIRCLE ( 'NONE', #1038, 9.999999999999994671 ) ;
#1159 = B_SPLINE_CURVE_WITH_KNOTS ( 'NONE', 3,
 ( #626, #1197, #253, #633, #1014, #161, #537, #608, #39, #797, #1178, #705, #1082, #987, #137, #513, #803, #292 ),
 .UNSPECIFIED., .F., .F.,
 ( 4, 2, 2, 2, 2, 2, 2, 2, 4 ),
 ( 1.734723475976807094E-18, 8.381533930679289099E-05, 0.0001676306786135840473, 0.0003352613572271663598, 0.0006705227144542942304, 0.001341045428908550297, 0.002682090857817103196, 0.005364181715634208994, 0.01072836343126842146 ),
 .UNSPECIFIED. ) ;
#1160 = ORIENTED_EDGE ( 'NONE', *, *, #1196, .T. ) ;
#1161 = FACE_OUTER_BOUND ( 'NONE', #788, .T. ) ;
#1162 = EDGE_CURVE ( 'NONE', #870, #544, #501, .T. ) ;
#1163 = DIRECTION ( 'NONE',  ( 1.000000000000000000, 0.000000000000000000, 0.000000000000000000 ) ) ;
#1164 = CARTESIAN_POINT ( 'NONE',  ( -122.0000000000000711, -1.110223024625156540E-13, 0.000000000000000000 ) ) ;
#1165 = VERTEX_POINT ( 'NONE', #644 ) ;
#1166 = CARTESIAN_POINT ( 'NONE',  ( -112.0000000000000711, -1.110223024625156540E-13, 6.000000000000000000 ) ) ;
#1167 = DIRECTION ( 'NONE',  ( 1.000000000000000000, 0.000000000000000000, -0.000000000000000000 ) ) ;
#1168 = EDGE_CURVE ( 'NONE', #23, #596, #560, .T. ) ;
#1169 = ORIENTED_EDGE ( 'NONE', *, *, #903, .T. ) ;
#1170 = CARTESIAN_POINT ( 'NONE',  ( -13.77142276770739926, 7.624636674846254181, 5.000000000000000000 ) ) ;
#1171 = CARTESIAN_POINT ( 'NONE',  ( -98.22857723229256521, 7.624636674846252404, 4.000000000000000000 ) ) ;
#1172 = EDGE_CURVE ( 'NONE', #1106, #1176, #724, .T. ) ;
#1173 = AXIS2_PLACEMENT_3D ( 'NONE', #217, #35, #300 ) ;
#1174 = CARTESIAN_POINT ( 'NONE',  ( -98.17647464306469374, -7.061016881740294515, 4.682502541046082989 ) ) ;
#1175 = AXIS2_PLACEMENT_3D ( 'NONE', #666, #366, #563 ) ;
#1176 = VERTEX_POINT ( 'NONE', #1105 ) ;
#1177 = CARTESIAN_POINT ( 'NONE',  ( -24.18389545521757711, 7.162924424653827060, 2.000000000000000000 ) ) ;
#1178 = CARTESIAN_POINT ( 'NONE',  ( -97.26020591673780302, 7.576180049890902879, 4.551916612725176670 ) ) ;
#1179 = DIRECTION ( 'NONE',  ( -0.000000000000000000, -0.000000000000000000, -1.000000000000000000 ) ) ;
#1180 = ORIENTED_EDGE ( 'NONE', *, *, #58, .T. ) ;
#1181 = DIRECTION ( 'NONE',  ( 0.000000000000000000, 0.000000000000000000, 1.000000000000000000 ) ) ;
#1182 = FACE_OUTER_BOUND ( 'NONE', #1055, .T. ) ;
#1183 = CARTESIAN_POINT ( 'NONE',  ( -87.81610454478244776, 7.162924424653827060, 2.000000000000000000 ) ) ;
#1184 = VERTEX_POINT ( 'NONE', #630 ) ;
#1185 = LINE ( 'NONE', #543, #344 ) ;
#1186 = EDGE_CURVE ( 'NONE', #337, #213, #66, .T. ) ;
#1187 = ORIENTED_EDGE ( 'NONE', *, *, #882, .F. ) ;
#1188 = DIRECTION ( 'NONE',  ( -0.000000000000000000, -0.000000000000000000, -1.000000000000000000 ) ) ;
#1189 = DIRECTION ( 'NONE',  ( 1.000000000000000000, 0.000000000000000000, 0.000000000000000000 ) ) ;
#1190 = AXIS2_PLACEMENT_3D ( 'NONE', #89, #1145, #1032 ) ;
#1191 = ORIENTED_EDGE ( 'NONE', *, *, #310, .T. ) ;
#1192 = DIRECTION ( 'NONE',  ( 0.000000000000000000, 0.000000000000000000, 1.000000000000000000 ) ) ;
#1193 = VECTOR ( 'NONE', #1026, 1000.000000000000000 ) ;
#1194 = VECTOR ( 'NONE', #31, 1000.000000000000000 ) ;
#1195 = ORIENTED_EDGE ( 'NONE', *, *, #638, .F. ) ;
#1196 = EDGE_CURVE ( 'NONE', #1205, #41, #1185, .T. ) ;
#1197 = CARTESIAN_POINT ( 'NONE',  ( -98.22857723229260785, 7.624636674846145823, 4.971545168126315417 ) ) ;
#1198 = CARTESIAN_POINT ( 'NONE',  ( -20.63958412957033417, 3.581647896606271253, 0.000000000000000000 ) ) ;
#1199 = ORIENTED_EDGE ( 'NONE', *, *, #115, .F. ) ;
#1200 = CARTESIAN_POINT ( 'NONE',  ( -17.14154698168749036, 7.460494451772462732, 1.775751032332608448 ) ) ;
#1201 = ORIENTED_EDGE ( 'NONE', *, *, #402, .F. ) ;
#1202 = B_SPLINE_CURVE_WITH_KNOTS ( 'NONE', 3,
 ( #418, #967, #1174, #324, #199, #110, #486, #868, #15, #609 ),
 .UNSPECIFIED., .F., .F.,
 ( 4, 2, 2, 2, 4 ),
 ( 4.336808689942017736E-18, 0.0004761348634987877916, 0.0009522697269975712465, 0.001428404590496354810, 0.001904539453995138156 ),
 .UNSPECIFIED. ) ;
#1203 = DIRECTION ( 'NONE',  ( -1.000000000000000000, 0.000000000000000000, 0.000000000000000000 ) ) ;
#1204 = EDGE_CURVE ( 'NONE', #668, #1184, #349, .T. ) ;
#1205 = VERTEX_POINT ( 'NONE', #906 ) ;
#1206 = DIRECTION ( 'NONE',  ( 0.000000000000000000, 0.000000000000000000, 1.000000000000000000 ) ) ;
#1207 = EDGE_LOOP ( 'NONE', ( #488, #1201, #80, #973 ) ) ;
#1208 = CARTESIAN_POINT ( 'NONE',  ( -112.0000000000000711, -1.110223024625156540E-13, 6.000000000000000000 ) ) ;
#1209 = EDGE_CURVE ( 'NONE', #55, #1066, #828, .T. ) ;
#1210 = CARTESIAN_POINT ( 'NONE',  ( -109.9000000000000625, -1.107651266346947128E-13, 0.000000000000000000 ) ) ;
#1211 = CARTESIAN_POINT ( 'NONE',  ( -22.42085784217314526, 7.230089292388825584, 1.999999999999990452 ) ) ;
#1212 = ORIENTED_EDGE ( 'NONE', *, *, #424, .F. ) ;
#1213 = AXIS2_PLACEMENT_3D ( 'NONE', #1122, #459, #467 ) ;
#1214 = AXIS2_PLACEMENT_3D ( 'NONE', #647, #451, #1031 ) ;
#1215 = VECTOR ( 'NONE', #1107, 1000.000000000000000 ) ;
#1216 = DIRECTION ( 'NONE',  ( -1.000000000000000000, 0.000000000000000000, 0.000000000000000000 ) ) ;
#1217 = CARTESIAN_POINT ( 'NONE',  ( -114.1000000000000796, -1.110223024625156540E-13, 0.000000000000000000 ) ) ;
#1218 = PERSON_AND_ORGANIZATION_ROLE ( 'creator' ) ;
#1219 = ORIENTED_EDGE ( 'NONE', *, *, #424, .T. ) ;
#1220 = LINE ( 'NONE', #210, #27 ) ;
#1221 = CARTESIAN_POINT ( 'NONE',  ( -18.79285484754852220, -10.29601728738355249, 1.000000000000000000 ) ) ;
#1222 = CARTESIAN_POINT ( 'NONE',  ( -18.79285484754852220, -10.29601728738355249, 0.000000000000000000 ) ) ;
#1223 = CC_DESIGN_PERSON_AND_ORGANIZATION_ASSIGNMENT ( #669, #653, ( #866 ) ) ;
#1224 = ORIENTED_EDGE ( 'NONE', *, *, #831, .F. ) ;
#1225 = CARTESIAN_POINT ( 'NONE',  ( -96.99759097513688744, -7.238387738611335998, 1.999999999999999556 ) ) ;
#1226 = ADVANCED_FACE ( 'NONE', ( #750, #1033, #1028, #270, #11 ), #102, .F. ) ;
#1227 = LINE ( 'NONE', #852, #1118 ) ;
ENDSEC;
END-ISO-10303-21;
