ISO-10303-21;
HEADER;
FILE_DESCRIPTION (( 'STEP AP203' ),
    '1' );
FILE_NAME ('eslabon_AD_tapa.STEP',
    '2026-09-14T13:32:39',
    ( '' ),
    ( '' ),
    'SwSTEP 2.0',
    'SolidWorks 2026',
    '' );
FILE_SCHEMA (( 'CONFIG_CONTROL_DESIGN' ));
ENDSEC;

DATA;
#1 = DIRECTION ( 'NONE',  ( 1.000000000000000000, 0.000000000000000000, 0.000000000000000000 ) ) ;
#2 = DIRECTION ( 'NONE',  ( -0.5260311741397497576, -0.8504652866714529358, -1.748575777297104657E-16 ) ) ;
#3 = ORIENTED_EDGE ( 'NONE', *, *, #956, .T. ) ;
#4 = CARTESIAN_POINT ( 'NONE',  ( -16.91141368720048277, -1.182561244603843598, 2.500000000000000000 ) ) ;
#5 = VECTOR ( 'NONE', #278, 999.9999999999998863 ) ;
#6 = ADVANCED_FACE ( 'NONE', ( #887, #295, #996, #91 ), #1292, .T. ) ;
#7 = CIRCLE ( 'NONE', #1053, 1.749999999999994671 ) ;
#8 = FACE_OUTER_BOUND ( 'NONE', #1107, .T. ) ;
#9 = ORIENTED_EDGE ( 'NONE', *, *, #321, .F. ) ;
#10 = CARTESIAN_POINT ( 'NONE',  ( 15.50000000000000178, -7.276347106161925815, -0.5000000000000000000 ) ) ;
#11 = ORIENTED_EDGE ( 'NONE', *, *, #685, .T. ) ;
#12 = LINE ( 'NONE', #802, #549 ) ;
#13 = CIRCLE ( 'NONE', #175, 4.500000000000000888 ) ;
#14 = CIRCLE ( 'NONE', #709, 2.000000000000000000 ) ;
#15 = DIRECTION ( 'NONE',  ( -1.000000000000000000, 0.000000000000000000, 0.000000000000000000 ) ) ;
#16 = DIRECTION ( 'NONE',  ( 1.000000000000000000, 0.000000000000000000, 0.000000000000000000 ) ) ;
#17 = CARTESIAN_POINT ( 'NONE',  ( 19.85182279967736463, -2.139512947488254380, -2.500000000000000000 ) ) ;
#18 = ORIENTED_EDGE ( 'NONE', *, *, #276, .F. ) ;
#19 = DIRECTION ( 'NONE',  ( -0.000000000000000000, -0.000000000000000000, -1.000000000000000000 ) ) ;
#20 = DIRECTION ( 'NONE',  ( 0.4955627776074905677, 0.8685721233437951883, 0.000000000000000000 ) ) ;
#21 = CARTESIAN_POINT ( 'NONE',  ( 12.50000000000000000, -7.276347106161925815, -0.5000000000000000000 ) ) ;
#22 = ADVANCED_FACE ( 'NONE', ( #402 ), #1094, .F. ) ;
#23 = VERTEX_POINT ( 'NONE', #608 ) ;
#24 = FACE_OUTER_BOUND ( 'NONE', #1044, .T. ) ;
#25 = AXIS2_PLACEMENT_3D ( 'NONE', #1052, #684, #178 ) ;
#26 = DIRECTION ( 'NONE',  ( -0.000000000000000000, -0.000000000000000000, -1.000000000000000000 ) ) ;
#27 = CYLINDRICAL_SURFACE ( 'NONE', #1058, 2.500000000000000444 ) ;
#28 = DIRECTION ( 'NONE',  ( 1.000000000000000000, 0.000000000000000000, 0.000000000000000000 ) ) ;
#29 = EDGE_LOOP ( 'NONE', ( #795, #889, #630 ) ) ;
#30 = FACE_BOUND ( 'NONE', #901, .T. ) ;
#31 = ADVANCED_FACE ( 'NONE', ( #821, #34 ), #1223, .T. ) ;
#32 = CIRCLE ( 'NONE', #836, 2.000000000000001332 ) ;
#33 = LINE ( 'NONE', #826, #534 ) ;
#34 = FACE_OUTER_BOUND ( 'NONE', #849, .T. ) ;
#35 = DIRECTION ( 'NONE',  ( -1.000000000000000000, 0.000000000000000000, 0.000000000000000000 ) ) ;
#36 = EDGE_LOOP ( 'NONE', ( #1057, #1021 ) ) ;
#37 = DIRECTION ( 'NONE',  ( -1.000000000000000000, 0.000000000000000000, 0.000000000000000000 ) ) ;
#38 = CC_DESIGN_PERSON_AND_ORGANIZATION_ASSIGNMENT ( #761, #465, ( #363 ) ) ;
#39 = EDGE_CURVE ( 'NONE', #567, #818, #1000, .T. ) ;
#40 = LINE ( 'NONE', #61, #575 ) ;
#41 = CARTESIAN_POINT ( 'NONE',  ( 8.823132837382037032E-15, -72.04634710616191740, 2.500000000000000000 ) ) ;
#42 = CARTESIAN_POINT ( 'NONE',  ( -19.32709379002153938, -9.643487389790799114, 2.500000000000000000 ) ) ;
#43 = ORIENTED_EDGE ( 'NONE', *, *, #860, .T. ) ;
#44 = DIRECTION ( 'NONE',  ( -1.000000000000000000, -1.224646799147353207E-16, 0.000000000000000000 ) ) ;
#45 = LINE ( 'NONE', #648, #642 ) ;
#46 = VECTOR ( 'NONE', #670, 999.9999999999998863 ) ;
#47 = CARTESIAN_POINT ( 'NONE',  ( 17.86904023701712063, -6.453131846632102153, 4.499999983106745205 ) ) ;
#48 = PERSON_AND_ORGANIZATION ( #18446744073709551615, #18446744073709551615 ) ;
#49 = VECTOR ( 'NONE', #93, 1000.000000000000000 ) ;
#50 = EDGE_LOOP ( 'NONE', ( #756, #869, #325, #1286 ) ) ;
#51 = CARTESIAN_POINT ( 'NONE',  ( 15.77066689063235572, -17.49600046573700851, -2.500000000000000000 ) ) ;
#52 = CARTESIAN_POINT ( 'NONE',  ( 18.00000000000000355, -7.276347106179602342, 4.434894976452754989 ) ) ;
#53 = CC_DESIGN_DATE_AND_TIME_ASSIGNMENT ( #775, #1157, ( #634 ) ) ;
#54 = VECTOR ( 'NONE', #688, 999.9999999999998863 ) ;
#55 = CARTESIAN_POINT ( 'NONE',  ( 17.90625913832488791, -6.558725997366050109, 2.747235816107099104 ) ) ;
#56 = VECTOR ( 'NONE', #1155, 999.9999999999998863 ) ;
#57 = VERTEX_POINT ( 'NONE', #1037 ) ;
#58 = LINE ( 'NONE', #868, #681 ) ;
#59 = EDGE_CURVE ( 'NONE', #588, #1265, #835, .T. ) ;
#60 = ORIENTED_EDGE ( 'NONE', *, *, #881, .F. ) ;
#61 = CARTESIAN_POINT ( 'NONE',  ( -19.90410583797994448, -1.391830665836229608, 2.500000000000000000 ) ) ;
#62 = CARTESIAN_POINT ( 'NONE',  ( -18.00000000000000000, -7.276347106172425860, 4.434894976452990356 ) ) ;
#63 = EDGE_CURVE ( 'NONE', #82, #602, #513, .T. ) ;
#64 = ORIENTED_EDGE ( 'NONE', *, *, #1011, .F. ) ;
#65 = CARTESIAN_POINT ( 'NONE',  ( -18.00000000000000000, -7.276347106172425860, 4.434894976452990356 ) ) ;
#66 = ORIENTED_EDGE ( 'NONE', *, *, #1042, .T. ) ;
#67 = DIRECTION ( 'NONE',  ( -0.000000000000000000, -0.000000000000000000, -1.000000000000000000 ) ) ;
#68 = CARTESIAN_POINT ( 'NONE',  ( 14.28491784957641464, -14.04634710616192805, -2.500000000000000000 ) ) ;
#69 = CIRCLE ( 'NONE', #1261, 1.749999999999994671 ) ;
#70 = ORIENTED_EDGE ( 'NONE', *, *, #1105, .F. ) ;
#71 = DIRECTION ( 'NONE',  ( 1.000000000000000000, 0.000000000000000000, 0.000000000000000000 ) ) ;
#72 = ORIENTED_EDGE ( 'NONE', *, *, #577, .T. ) ;
#73 = ADVANCED_FACE ( 'NONE', ( #531 ), #930, .F. ) ;
#74 = CARTESIAN_POINT ( 'NONE',  ( -17.95999256749361095, -7.736420999346115046, 4.438577348543153001 ) ) ;
#75 = CIRCLE ( 'NONE', #594, 2.000000000000000000 ) ;
#76 = VERTEX_POINT ( 'NONE', #1124 ) ;
#77 = ORIENTED_EDGE ( 'NONE', *, *, #1146, .T. ) ;
#78 = ADVANCED_FACE ( 'NONE', ( #733 ), #916, .F. ) ;
#79 = DIRECTION ( 'NONE',  ( -0.000000000000000000, -0.000000000000000000, -1.000000000000000000 ) ) ;
#80 = VERTEX_POINT ( 'NONE', #924 ) ;
#81 = CARTESIAN_POINT ( 'NONE',  ( -15.49999999999999822, -7.276347106161928480, 11.00000000000000000 ) ) ;
#82 = VERTEX_POINT ( 'NONE', #21 ) ;
#83 = CARTESIAN_POINT ( 'NONE',  ( 19.90410583797994448, -1.391830665836224723, 2.500000000000000000 ) ) ;
#84 = VERTEX_POINT ( 'NONE', #433 ) ;
#85 = LINE ( 'NONE', #899, #1284 ) ;
#86 = CIRCLE ( 'NONE', #806, 2.500000000000000444 ) ;
#87 = ORIENTED_EDGE ( 'NONE', *, *, #633, .T. ) ;
#88 = APPROVAL_PERSON_ORGANIZATION ( #939, #519, #221 ) ;
#89 = DIRECTION ( 'NONE',  ( 0.000000000000000000, 0.000000000000000000, 1.000000000000000000 ) ) ;
#90 = CARTESIAN_POINT ( 'NONE',  ( -17.78849501667645328, -6.269972146891265474, 2.500000000000000888 ) ) ;
#91 = FACE_BOUND ( 'NONE', #934, .T. ) ;
#92 = EDGE_CURVE ( 'NONE', #762, #779, #706, .T. ) ;
#93 = DIRECTION ( 'NONE',  ( -0.000000000000000000, -0.000000000000000000, -1.000000000000000000 ) ) ;
#94 = AXIS2_PLACEMENT_3D ( 'NONE', #352, #569, #464 ) ;
#95 = EDGE_LOOP ( 'NONE', ( #115, #43, #625, #861 ) ) ;
#96 = CARTESIAN_POINT ( 'NONE',  ( -15.49999999999999822, -7.276347106161928480, -2.500000000000000000 ) ) ;
#97 = DIRECTION ( 'NONE',  ( -1.000000000000000000, 0.000000000000000000, 0.000000000000000000 ) ) ;
#98 = EDGE_LOOP ( 'NONE', ( #693, #317 ) ) ;
#99 = DIRECTION ( 'NONE',  ( -0.000000000000000000, -0.000000000000000000, -1.000000000000000000 ) ) ;
#100 = EDGE_CURVE ( 'NONE', #1265, #122, #303, .T. ) ;
#101 = VERTEX_POINT ( 'NONE', #417 ) ;
#102 = DIRECTION ( 'NONE',  ( 0.000000000000000000, 0.000000000000000000, -1.000000000000000000 ) ) ;
#103 = CARTESIAN_POINT ( 'NONE',  ( -2.311324531849125235E-31, 1.887339707627014958E-15, 2.500000000000000000 ) ) ;
#104 = ORIENTED_EDGE ( 'NONE', *, *, #671, .T. ) ;
#105 = PLANE ( 'NONE',  #1014 ) ;
#106 = ORIENTED_EDGE ( 'NONE', *, *, #1211, .F. ) ;
#107 = DIRECTION ( 'NONE',  ( -1.000000000000000000, 0.000000000000000000, 0.000000000000000000 ) ) ;
#108 = CIRCLE ( 'NONE', #765, 1.749999999999999778 ) ;
#109 = LOCAL_TIME ( 10, 32, 39.00000000000000000, #316 ) ;
#110 = LINE ( 'NONE', #943, #1142 ) ;
#111 = EDGE_CURVE ( 'NONE', #964, #273, #740, .T. ) ;
#112 = ADVANCED_FACE ( 'NONE', ( #220 ), #27, .T. ) ;
#113 = CARTESIAN_POINT ( 'NONE',  ( 8.694992273946206563E-15, -71.00000000000000000, -2.500000000000000000 ) ) ;
#114 = DIRECTION ( 'NONE',  ( -1.000000000000000000, 0.000000000000000000, 0.000000000000000000 ) ) ;
#115 = ORIENTED_EDGE ( 'NONE', *, *, #739, .T. ) ;
#116 = CARTESIAN_POINT ( 'NONE',  ( 15.50000000000000178, -7.276347106161925815, 11.00000000000000000 ) ) ;
#117 = AXIS2_PLACEMENT_3D ( 'NONE', #1002, #1243, #1117 ) ;
#118 = EDGE_CURVE ( 'NONE', #414, #101, #664, .T. ) ;
#119 = DIRECTION ( 'NONE',  ( -0.000000000000000000, -0.000000000000000000, -1.000000000000000000 ) ) ;
#120 = CARTESIAN_POINT ( 'NONE',  ( 17.83610363580520541, -6.378233999400475973, 2.643741903811845706 ) ) ;
#121 = DATE_TIME_ROLE ( 'creation_date' ) ;
#122 = VERTEX_POINT ( 'NONE', #615 ) ;
#123 = PLANE ( 'NONE',  #404 ) ;
#124 = CYLINDRICAL_SURFACE ( 'NONE', #1209, 3.000000000000004441 ) ;
#125 = CARTESIAN_POINT ( 'NONE',  ( -15.49999999999999822, -7.276347106161928480, 4.500000000000000888 ) ) ;
#126 = ORIENTED_EDGE ( 'NONE', *, *, #900, .T. ) ;
#127 = DIRECTION ( 'NONE',  ( -0.000000000000000000, -0.000000000000000000, -1.000000000000000000 ) ) ;
#128 = VECTOR ( 'NONE', #127, 1000.000000000000000 ) ;
#129 = CYLINDRICAL_SURFACE ( 'NONE', #1036, 3.000000000000000888 ) ;
#130 = CIRCLE ( 'NONE', #745, 1.999999999999999334 ) ;
#131 = CALENDAR_DATE ( 2026, 14, 9 ) ;
#132 = ADVANCED_FACE ( 'NONE', ( #1030 ), #598, .F. ) ;
#133 = ORIENTED_EDGE ( 'NONE', *, *, #1211, .T. ) ;
#134 = PLANE ( 'NONE',  #1220 ) ;
#135 = CIRCLE ( 'NONE', #1248, 3.000000000000004441 ) ;
#136 = AXIS2_PLACEMENT_3D ( 'NONE', #1055, #153, #666 ) ;
#137 = DIRECTION ( 'NONE',  ( -0.06975647374412896617, -0.9975640502598240866, 0.000000000000000000 ) ) ;
#138 = CARTESIAN_POINT ( 'NONE',  ( 12.50000000000000000, -7.276347106161925815, -0.5000000000000000000 ) ) ;
#139 = ORIENTED_EDGE ( 'NONE', *, *, #860, .F. ) ;
#140 = DIRECTION ( 'NONE',  ( -0.4955627776074905122, -0.8685721233437952993, 0.000000000000000000 ) ) ;
#141 = EDGE_CURVE ( 'NONE', #374, #180, #268, .T. ) ;
#142 = CARTESIAN_POINT ( 'NONE',  ( 8.823132837382037032E-15, -72.04634710616191740, -2.500000000000000000 ) ) ;
#143 = CARTESIAN_POINT ( 'NONE',  ( 17.99163876754422731, -6.976590790099011841, 2.869983313248597678 ) ) ;
#144 = VERTEX_POINT ( 'NONE', #68 ) ;
#145 = DIRECTION ( 'NONE',  ( -1.000000000000000000, 0.000000000000000000, 0.000000000000000000 ) ) ;
#146 = FACE_OUTER_BOUND ( 'NONE', #301, .T. ) ;
#147 = AXIS2_PLACEMENT_3D ( 'NONE', #1098, #1290, #819 ) ;
#148 = CARTESIAN_POINT ( 'NONE',  ( 17.62616321667863417, -8.591425041511300265, 4.500000000000000888 ) ) ;
#149 = APPROVAL_STATUS ( 'not_yet_approved' ) ;
#150 = ORIENTED_EDGE ( 'NONE', *, *, #252, .T. ) ;
#151 = DIRECTION ( 'NONE',  ( -0.4025499837082669452, 0.9153980066705816876, 0.000000000000000000 ) ) ;
#152 = ORIENTED_EDGE ( 'NONE', *, *, #154, .T. ) ;
#153 = DIRECTION ( 'NONE',  ( -0.000000000000000000, -0.000000000000000000, -1.000000000000000000 ) ) ;
#154 = EDGE_CURVE ( 'NONE', #1214, #23, #185, .T. ) ;
#155 = AXIS2_PLACEMENT_3D ( 'NONE', #125, #227, #728 ) ;
#156 = CARTESIAN_POINT ( 'NONE',  ( 17.94109617605181128, -7.852027488663806842, 4.445351433601105740 ) ) ;
#157 = ORIENTED_EDGE ( 'NONE', *, *, #1171, .T. ) ;
#158 = CARTESIAN_POINT ( 'NONE',  ( -17.78849501667645328, -6.269972146891264586, 4.500000000000000888 ) ) ;
#159 = ORIENTED_EDGE ( 'NONE', *, *, #1227, .F. ) ;
#160 = DIRECTION ( 'NONE',  ( 0.000000000000000000, -1.000000000000000000, 0.000000000000000000 ) ) ;
#161 = CARTESIAN_POINT ( 'NONE',  ( -17.84229299849552675, -8.179889231010612605, 4.473413279241189144 ) ) ;
#162 = EDGE_LOOP ( 'NONE', ( #507, #1131, #921, #152, #222 ) ) ;
#163 = CARTESIAN_POINT ( 'NONE',  ( 15.50000000000000178, -7.276347106161925815, 11.00000000000000000 ) ) ;
#164 = ORIENTED_EDGE ( 'NONE', *, *, #980, .F. ) ;
#165 = DIRECTION ( 'NONE',  ( -1.000000000000000000, 0.000000000000000000, 0.000000000000000000 ) ) ;
#166 = CARTESIAN_POINT ( 'NONE',  ( 19.42850633384578884, -11.08491086094229061, 2.500000000000000000 ) ) ;
#167 = PERSON_AND_ORGANIZATION ( #18446744073709551615, #18446744073709551615 ) ;
#168 = CIRCLE ( 'NONE', #254, 2.500000000000000444 ) ;
#169 = ORIENTED_EDGE ( 'NONE', *, *, #118, .T. ) ;
#170 = LINE ( 'NONE', #375, #5 ) ;
#171 = CC_DESIGN_APPROVAL ( #969, ( #634 ) ) ;
#172 = EDGE_CURVE ( 'NONE', #1112, #672, #665, .T. ) ;
#173 = ORIENTED_EDGE ( 'NONE', *, *, #614, .F. ) ;
#174 = CARTESIAN_POINT ( 'NONE',  ( -10.99999999999999822, -7.276347106161928480, 2.500000000000000444 ) ) ;
#175 = AXIS2_PLACEMENT_3D ( 'NONE', #738, #607, #1210 ) ;
#176 = ORIENTED_EDGE ( 'NONE', *, *, #100, .T. ) ;
#177 = CIRCLE ( 'NONE', #918, 1.749999999999999778 ) ;
#178 = DIRECTION ( 'NONE',  ( -1.000000000000000000, 0.000000000000000000, 0.000000000000000000 ) ) ;
#179 = CARTESIAN_POINT ( 'NONE',  ( -18.00000000000000000, -7.276347106161928480, 11.00000000000000000 ) ) ;
#180 = VERTEX_POINT ( 'NONE', #1156 ) ;
#181 = FACE_OUTER_BOUND ( 'NONE', #678, .T. ) ;
#182 = EDGE_LOOP ( 'NONE', ( #394, #298, #1169, #202 ) ) ;
#183 = ADVANCED_FACE ( 'NONE', ( #755 ), #963, .F. ) ;
#184 = DIRECTION ( 'NONE',  ( -0.000000000000000000, -0.000000000000000000, -1.000000000000000000 ) ) ;
#185 = B_SPLINE_CURVE_WITH_KNOTS ( 'NONE', 3,
 ( #62, #858, #1062, #74, #1268, #161, #262, #668 ),
 .UNSPECIFIED., .F., .F.,
 ( 4, 2, 2, 4 ),
 ( 0.001043084602483244829, 0.001391053216085335123, 0.001739021829687425200, 0.002434959056891600367 ),
 .UNSPECIFIED. ) ;
#186 = ORIENTED_EDGE ( 'NONE', *, *, #401, .T. ) ;
#187 = CARTESIAN_POINT ( 'NONE',  ( 15.50000000000000178, -7.276347106161925815, 2.500000000000000000 ) ) ;
#188 = CIRCLE ( 'NONE', #362, 1.749999999999994671 ) ;
#189 = ORIENTED_EDGE ( 'NONE', *, *, #543, .T. ) ;
#190 =( GEOMETRIC_REPRESENTATION_CONTEXT ( 3 ) GLOBAL_UNCERTAINTY_ASSIGNED_CONTEXT ( ( #991 ) ) GLOBAL_UNIT_ASSIGNED_CONTEXT ( ( #1118, #1032, #729 ) ) REPRESENTATION_CONTEXT ( 'NONE', 'WORKASPACE' ) );
#191 = CARTESIAN_POINT ( 'NONE',  ( -12.99999999999999822, -7.276347106161928480, 4.500000000000000888 ) ) ;
#192 = DIRECTION ( 'NONE',  ( 1.000000000000000000, 0.000000000000000000, 0.000000000000000000 ) ) ;
#193 = EDGE_CURVE ( 'NONE', #1066, #1251, #75, .T. ) ;
#194 = ORIENTED_EDGE ( 'NONE', *, *, #797, .F. ) ;
#195 = CARTESIAN_POINT ( 'NONE',  ( 19.32709379002153938, -9.643487389790797337, 4.500000000000000888 ) ) ;
#196 = CIRCLE ( 'NONE', #370, 1.749999999999999778 ) ;
#197 = VERTEX_POINT ( 'NONE', #485 ) ;
#198 = CARTESIAN_POINT ( 'NONE',  ( -17.24999999999999645, -7.276347106161928480, 2.500000000000000000 ) ) ;
#199 = DIRECTION ( 'NONE',  ( -1.000000000000000000, 0.000000000000000000, 0.000000000000000000 ) ) ;
#200 = ORIENTED_EDGE ( 'NONE', *, *, #1046, .T. ) ;
#201 = CARTESIAN_POINT ( 'NONE',  ( 15.50000000000000178, -7.276347106161925815, 11.00000000000000000 ) ) ;
#202 = ORIENTED_EDGE ( 'NONE', *, *, #1266, .T. ) ;
#203 = DIRECTION ( 'NONE',  ( 1.000000000000000000, 0.000000000000000000, 0.000000000000000000 ) ) ;
#204 = EDGE_CURVE ( 'NONE', #84, #1089, #371, .T. ) ;
#205 = DIRECTION ( 'NONE',  ( 0.000000000000000000, 0.000000000000000000, 1.000000000000000000 ) ) ;
#206 = CARTESIAN_POINT ( 'NONE',  ( 18.00000000000000355, -7.276347106179602342, 4.434894976452754989 ) ) ;
#207 = CARTESIAN_POINT ( 'NONE',  ( -15.49999999999999822, -7.276347106161928480, 11.00000000000000000 ) ) ;
#208 = ORIENTED_EDGE ( 'NONE', *, *, #543, .F. ) ;
#209 = CYLINDRICAL_SURFACE ( 'NONE', #870, 3.000000000000000888 ) ;
#210 = ADVANCED_FACE ( 'NONE', ( #1177 ), #1122, .F. ) ;
#211 = VECTOR ( 'NONE', #825, 1000.000000000000000 ) ;
#212 = AXIS2_PLACEMENT_3D ( 'NONE', #207, #794, #1213 ) ;
#213 = CARTESIAN_POINT ( 'NONE',  ( -17.85669469915771757, -2.000000000000000444, 2.500000000000000000 ) ) ;
#214 = DIRECTION ( 'NONE',  ( -0.000000000000000000, 0.000000000000000000, 1.000000000000000000 ) ) ;
#215 = DIRECTION ( 'NONE',  ( -0.000000000000000000, -0.000000000000000000, -1.000000000000000000 ) ) ;
#216 = ORIENTED_EDGE ( 'NONE', *, *, #1099, .T. ) ;
#217 = DIRECTION ( 'NONE',  ( 0.000000000000000000, 0.000000000000000000, 1.000000000000000000 ) ) ;
#218 = AXIS2_PLACEMENT_3D ( 'NONE', #799, #702, #1 ) ;
#219 = CARTESIAN_POINT ( 'NONE',  ( -12.49999999999999467, -7.276347106161928480, -0.5000000000000000000 ) ) ;
#220 = FACE_OUTER_BOUND ( 'NONE', #162, .T. ) ;
#221 = APPROVAL_ROLE ( '' ) ;
#222 = ORIENTED_EDGE ( 'NONE', *, *, #1241, .T. ) ;
#223 = FACE_BOUND ( 'NONE', #29, .T. ) ;
#224 = CC_DESIGN_PERSON_AND_ORGANIZATION_ASSIGNMENT ( #332, #1224, ( #812 ) ) ;
#225 = LINE ( 'NONE', #727, #455 ) ;
#226 = EDGE_CURVE ( 'NONE', #595, #964, #585, .T. ) ;
#227 = DIRECTION ( 'NONE',  ( -0.000000000000000000, 0.000000000000000000, 1.000000000000000000 ) ) ;
#228 = DIRECTION ( 'NONE',  ( 0.000000000000000000, 0.000000000000000000, -1.000000000000000000 ) ) ;
#229 = VERTEX_POINT ( 'NONE', #699 ) ;
#230 = DIRECTION ( 'NONE',  ( -0.000000000000000000, -0.000000000000000000, -1.000000000000000000 ) ) ;
#231 = AXIS2_PLACEMENT_3D ( 'NONE', #96, #313, #591 ) ;
#232 = CARTESIAN_POINT ( 'NONE',  ( -15.49999999999999822, -7.276347106161928480, -2.500000000000000000 ) ) ;
#233 = LOCAL_TIME ( 10, 32, 39.00000000000000000, #1151 ) ;
#234 = DIRECTION ( 'NONE',  ( 1.000000000000000000, 0.000000000000000000, 0.000000000000000000 ) ) ;
#235 = EDGE_CURVE ( 'NONE', #122, #273, #707, .T. ) ;
#236 = CARTESIAN_POINT ( 'NONE',  ( 19.85182279967736463, -2.139512947488254380, 2.500000000000000000 ) ) ;
#237 = VERTEX_POINT ( 'NONE', #986 ) ;
#238 = CARTESIAN_POINT ( 'NONE',  ( 15.50000000000000178, -7.276347106161925815, -0.5000000000000000000 ) ) ;
#239 = VECTOR ( 'NONE', #627, 1000.000000000000000 ) ;
#240 = AXIS2_PLACEMENT_3D ( 'NONE', #1029, #432, #834 ) ;
#241 = DIRECTION ( 'NONE',  ( 0.000000000000000000, 0.000000000000000000, -1.000000000000000000 ) ) ;
#242 = CARTESIAN_POINT ( 'NONE',  ( 17.97740556806590462, -7.686641602649314287, 2.896894984309696941 ) ) ;
#243 = CARTESIAN_POINT ( 'NONE',  ( -15.49999999999999822, -7.276347106161928480, -0.5000000000000000000 ) ) ;
#244 = VERTEX_POINT ( 'NONE', #400 ) ;
#245 = FACE_OUTER_BOUND ( 'NONE', #663, .T. ) ;
#246 = CARTESIAN_POINT ( 'NONE',  ( 17.85867615147037313, -6.429563932995484343, 4.500000000000001776 ) ) ;
#247 = CARTESIAN_POINT ( 'NONE',  ( -19.52391878946024661, -6.828758761843754854, 2.499999999999955147 ) ) ;
#248 = PERSON_AND_ORGANIZATION ( #18446744073709551615, #18446744073709551615 ) ;
#249 = ORIENTED_EDGE ( 'NONE', *, *, #335, .F. ) ;
#250 = CARTESIAN_POINT ( 'NONE',  ( 19.61929103001762087, -5.464872179474723701, 4.500000000000000888 ) ) ;
#251 = EDGE_LOOP ( 'NONE', ( #60, #573, #354, #339 ) ) ;
#252 = EDGE_CURVE ( 'NONE', #958, #492, #1081, .T. ) ;
#253 = LINE ( 'NONE', #657, #791 ) ;
#254 = AXIS2_PLACEMENT_3D ( 'NONE', #81, #572, #561 ) ;
#255 = CARTESIAN_POINT ( 'NONE',  ( -17.62616321667863062, -8.591425041511302041, 4.500000000000000888 ) ) ;
#256 = PERSON_AND_ORGANIZATION_ROLE ( 'classification_officer' ) ;
#257 = ORIENTED_EDGE ( 'NONE', *, *, #596, .T. ) ;
#258 = CARTESIAN_POINT ( 'NONE',  ( 16.82278996381440095, -9.598222528119816133, -2.500000000000000000 ) ) ;
#259 = EDGE_LOOP ( 'NONE', ( #126, #801 ) ) ;
#260 = CARTESIAN_POINT ( 'NONE',  ( 17.98241969663204998, -6.933460618528966890, 4.454798145099514883 ) ) ;
#261 = VECTOR ( 'NONE', #539, 1000.000000000000000 ) ;
#262 = CARTESIAN_POINT ( 'NONE',  ( -17.74865444268243309, -8.393386330576674936, 4.500000000000000888 ) ) ;
#263 = EDGE_CURVE ( 'NONE', #57, #704, #908, .T. ) ;
#264 = ORIENTED_EDGE ( 'NONE', *, *, #577, .F. ) ;
#265 = CARTESIAN_POINT ( 'NONE',  ( -17.85869247911254476, -6.429601062027176184, 4.500000000000000000 ) ) ;
#266 = ORIENTED_EDGE ( 'NONE', *, *, #235, .T. ) ;
#267 = CARTESIAN_POINT ( 'NONE',  ( 18.00000000000121858, -7.104115484884518494, 4.440551978542247369 ) ) ;
#268 = LINE ( 'NONE', #166, #574 ) ;
#269 = CALENDAR_DATE ( 2026, 14, 9 ) ;
#270 = ADVANCED_FACE ( 'NONE', ( #8 ), #805, .T. ) ;
#271 = EDGE_LOOP ( 'NONE', ( #560, #3 ) ) ;
#272 = LINE ( 'NONE', #652, #1158 ) ;
#273 = VERTEX_POINT ( 'NONE', #780 ) ;
#274 = DIRECTION ( 'NONE',  ( 0.000000000000000000, -0.000000000000000000, -1.000000000000000000 ) ) ;
#275 = CIRCLE ( 'NONE', #231, 3.000000000000004441 ) ;
#276 = EDGE_CURVE ( 'NONE', #1112, #1214, #692, .T. ) ;
#277 = ORIENTED_EDGE ( 'NONE', *, *, #436, .T. ) ;
#278 = DIRECTION ( 'NONE',  ( -0.06975647374412892454, -0.9975640502598240866, 0.000000000000000000 ) ) ;
#279 = LOCAL_TIME ( 10, 32, 39.00000000000000000, #1020 ) ;
#280 = ORIENTED_EDGE ( 'NONE', *, *, #304, .T. ) ;
#281 = CARTESIAN_POINT ( 'NONE',  ( -13.74999999999999822, -7.276347106161928480, 2.500000000000000000 ) ) ;
#282 = VECTOR ( 'NONE', #184, 1000.000000000000000 ) ;
#283 = ORIENTED_EDGE ( 'NONE', *, *, #1046, .F. ) ;
#284 = CIRCLE ( 'NONE', #240, 3.000000000000000888 ) ;
#285 = CARTESIAN_POINT ( 'NONE',  ( 12.51554955520196799, -64.04634710616191740, 2.500000000000000000 ) ) ;
#286 = APPROVAL ( #823, 'Coincidente' ) ;
#287 = VERTEX_POINT ( 'NONE', #1285 ) ;
#288 = DIRECTION ( 'NONE',  ( -0.000000000000000000, -0.000000000000000000, -1.000000000000000000 ) ) ;
#289 = ORIENTED_EDGE ( 'NONE', *, *, #193, .F. ) ;
#290 = CARTESIAN_POINT ( 'NONE',  ( 17.78849501667645683, -6.269972146891258369, 4.500000000000000888 ) ) ;
#291 = ORIENTED_EDGE ( 'NONE', *, *, #538, .T. ) ;
#292 = FACE_OUTER_BOUND ( 'NONE', #940, .T. ) ;
#293 = EDGE_CURVE ( 'NONE', #1262, #23, #32, .T. ) ;
#294 = DIRECTION ( 'NONE',  ( 0.8504652866714532689, 0.5260311741397488694, 0.000000000000000000 ) ) ;
#295 = FACE_BOUND ( 'NONE', #769, .T. ) ;
#296 = CARTESIAN_POINT ( 'NONE',  ( -17.85669469915771757, -2.994746930404857380E-16, 2.500000000000000000 ) ) ;
#297 = AXIS2_PLACEMENT_3D ( 'NONE', #990, #89, #499 ) ;
#298 = ORIENTED_EDGE ( 'NONE', *, *, #1146, .F. ) ;
#299 = LINE ( 'NONE', #198, #211 ) ;
#300 = CARTESIAN_POINT ( 'NONE',  ( 1.521777119683755696E-15, -14.04634710616192805, 2.500000000000000000 ) ) ;
#301 = EDGE_LOOP ( 'NONE', ( #173, #467, #578, #946, #169 ) ) ;
#302 = CARTESIAN_POINT ( 'NONE',  ( 1.521777119683755696E-15, -14.04634710616192805, 2.500000000000000000 ) ) ;
#303 = CIRCLE ( 'NONE', #896, 2.000000000000001776 ) ;
#304 = EDGE_CURVE ( 'NONE', #1251, #312, #328, .T. ) ;
#305 = VECTOR ( 'NONE', #1259, 1000.000000000000000 ) ;
#306 = EDGE_LOOP ( 'NONE', ( #378, #453, #1245, #987 ) ) ;
#307 = FACE_OUTER_BOUND ( 'NONE', #271, .T. ) ;
#308 = PLANE ( 'NONE',  #390 ) ;
#309 = ORIENTED_EDGE ( 'NONE', *, *, #436, .F. ) ;
#310 = EDGE_CURVE ( 'NONE', #1277, #57, #601, .T. ) ;
#311 = DIRECTION ( 'NONE',  ( -1.083397062725421613E-16, 1.000000000000000000, 0.000000000000000000 ) ) ;
#312 = VERTEX_POINT ( 'NONE', #174 ) ;
#313 = DIRECTION ( 'NONE',  ( 0.000000000000000000, 0.000000000000000000, -1.000000000000000000 ) ) ;
#314 = DIRECTION ( 'NONE',  ( -0.000000000000000000, -0.000000000000000000, -1.000000000000000000 ) ) ;
#315 = DIRECTION ( 'NONE',  ( 0.000000000000000000, 0.000000000000000000, -1.000000000000000000 ) ) ;
#316 = COORDINATED_UNIVERSAL_TIME_OFFSET ( 3, 0, .BEHIND. ) ;
#317 = ORIENTED_EDGE ( 'NONE', *, *, #679, .T. ) ;
#318 = DIRECTION ( 'NONE',  ( -0.000000000000000000, 0.000000000000000000, 1.000000000000000000 ) ) ;
#319 = CIRCLE ( 'NONE', #992, 2.000000000000000888 ) ;
#320 = AXIS2_PLACEMENT_3D ( 'NONE', #778, #711, #1197 ) ;
#321 = EDGE_CURVE ( 'NONE', #180, #1185, #576, .T. ) ;
#322 = DIRECTION ( 'NONE',  ( -1.000000000000000000, 0.000000000000000000, 0.000000000000000000 ) ) ;
#323 = DIRECTION ( 'NONE',  ( -1.000000000000000000, 0.000000000000000000, -0.000000000000000000 ) ) ;
#324 = CARTESIAN_POINT ( 'NONE',  ( 19.42850633384578884, -11.08491086094229061, 2.500000000000000000 ) ) ;
#325 = ORIENTED_EDGE ( 'NONE', *, *, #293, .F. ) ;
#326 = DIRECTION ( 'NONE',  ( -0.000000000000000000, -0.000000000000000000, -1.000000000000000000 ) ) ;
#327 = PRODUCT_RELATED_PRODUCT_CATEGORY ( 'detail', '', ( #803 ) ) ;
#328 = CIRCLE ( 'NONE', #1167, 4.500000000000000888 ) ;
#329 = EDGE_CURVE ( 'NONE', #1097, #80, #982, .T. ) ;
#330 = DIRECTION ( 'NONE',  ( 0.06975647374412920210, -0.9975640502598240866, 0.000000000000000000 ) ) ;
#331 = CARTESIAN_POINT ( 'NONE',  ( -17.85669469915771757, -2.000000000000000444, -2.500000000000000000 ) ) ;
#332 = PERSON_AND_ORGANIZATION ( #18446744073709551615, #18446744073709551615 ) ;
#333 = ORIENTED_EDGE ( 'NONE', *, *, #739, .F. ) ;
#334 = CARTESIAN_POINT ( 'NONE',  ( -12.49999999999999467, -7.276347106161928480, -0.5000000000000000000 ) ) ;
#335 = EDGE_CURVE ( 'NONE', #832, #818, #1278, .T. ) ;
#336 = CARTESIAN_POINT ( 'NONE',  ( 14.28491784957641464, -14.04634710616192805, 2.500000000000000000 ) ) ;
#337 = DIRECTION ( 'NONE',  ( -1.000000000000000000, 0.000000000000000000, 0.000000000000000000 ) ) ;
#338 = CALENDAR_DATE ( 2026, 14, 9 ) ;
#339 = ORIENTED_EDGE ( 'NONE', *, *, #377, .T. ) ;
#340 = CARTESIAN_POINT ( 'NONE',  ( 19.90410583797994448, -1.391830665836224723, 2.500000000000000000 ) ) ;
#341 = AXIS2_PLACEMENT_3D ( 'NONE', #359, #579, #1281 ) ;
#342 = DIRECTION ( 'NONE',  ( -0.06975647374412896617, -0.9975640502598240866, 0.000000000000000000 ) ) ;
#343 = AXIS2_PLACEMENT_3D ( 'NONE', #514, #716, #920 ) ;
#344 = DIRECTION ( 'NONE',  ( -0.000000000000000000, -0.000000000000000000, -1.000000000000000000 ) ) ;
#345 = PLANE ( 'NONE',  #658 ) ;
#346 = ORIENTED_EDGE ( 'NONE', *, *, #580, .F. ) ;
#347 = DIRECTION ( 'NONE',  ( -0.000000000000000000, 0.000000000000000000, 1.000000000000000000 ) ) ;
#348 = EDGE_CURVE ( 'NONE', #815, #144, #936, .T. ) ;
#349 = AXIS2_PLACEMENT_3D ( 'NONE', #785, #1297, #97 ) ;
#350 = CIRCLE ( 'NONE', #1250, 4.000000000000001776 ) ;
#351 = CARTESIAN_POINT ( 'NONE',  ( 17.78849501667645683, -6.269972146891258369, 4.500000000000000888 ) ) ;
#352 = CARTESIAN_POINT ( 'NONE',  ( -15.49999999999999822, -7.276347106161928480, 11.00000000000000000 ) ) ;
#353 = EDGE_CURVE ( 'NONE', #1275, #492, #225, .T. ) ;
#354 = ORIENTED_EDGE ( 'NONE', *, *, #797, .T. ) ;
#355 = FACE_OUTER_BOUND ( 'NONE', #517, .T. ) ;
#356 = CARTESIAN_POINT ( 'NONE',  ( 14.96346075389736363, -72.04634710616191740, 2.500000000000000000 ) ) ;
#357 = CARTESIAN_POINT ( 'NONE',  ( 19.37348652380390135, -8.980040387227434806, 2.500000000000073275 ) ) ;
#358 = EDGE_LOOP ( 'NONE', ( #1070, #405, #200, #208, #730 ) ) ;
#359 = CARTESIAN_POINT ( 'NONE',  ( 15.50000000000000178, -7.276347106161925815, 4.500000000000000888 ) ) ;
#360 = VERTEX_POINT ( 'NONE', #219 ) ;
#361 = DIRECTION ( 'NONE',  ( -0.000000000000000000, -0.000000000000000000, -1.000000000000000000 ) ) ;
#362 = AXIS2_PLACEMENT_3D ( 'NONE', #163, #566, #971 ) ;
#363 = PRODUCT_DEFINITION_FORMATION_WITH_SPECIFIED_SOURCE ( 'Simétric', '', #803, .NOT_KNOWN. ) ;
#364 = CARTESIAN_POINT ( 'NONE',  ( -17.68837564972981014, -8.490842625066200355, 2.643741903812845795 ) ) ;
#365 = ORIENTED_EDGE ( 'NONE', *, *, #310, .F. ) ;
#366 = LINE ( 'NONE', #258, #46 ) ;
#367 = ORIENTED_EDGE ( 'NONE', *, *, #1266, .F. ) ;
#368 = EDGE_CURVE ( 'NONE', #244, #1097, #196, .T. ) ;
#369 = CARTESIAN_POINT ( 'NONE',  ( -12.49999999999999467, -7.276347106161928480, -2.500000000000000000 ) ) ;
#370 = AXIS2_PLACEMENT_3D ( 'NONE', #409, #205, #917 ) ;
#371 = CIRCLE ( 'NONE', #349, 2.500000000000000444 ) ;
#372 = CARTESIAN_POINT ( 'NONE',  ( 17.62616321667863417, -8.591425041511300265, 2.500000000000000444 ) ) ;
#373 = PERSON_AND_ORGANIZATION_ROLE ( 'design_supplier' ) ;
#374 = VERTEX_POINT ( 'NONE', #1115 ) ;
#375 = CARTESIAN_POINT ( 'NONE',  ( 16.91141368720047566, -1.182561244603837380, -2.500000000000000000 ) ) ;
#376 = ORIENTED_EDGE ( 'NONE', *, *, #100, .F. ) ;
#377 = EDGE_CURVE ( 'NONE', #1218, #619, #135, .T. ) ;
#378 = ORIENTED_EDGE ( 'NONE', *, *, #972, .F. ) ;
#379 = DIRECTION ( 'NONE',  ( -0.9153980066705815766, -0.4025499837082668897, 0.000000000000000000 ) ) ;
#380 = B_SPLINE_CURVE_WITH_KNOTS ( 'NONE', 3,
 ( #52, #267, #260, #673, #246, #351 ),
 .UNSPECIFIED., .F., .F.,
 ( 4, 2, 4 ),
 ( 0.001392864474768034733, 0.001913911765829820911, 0.002434959056891606872 ),
 .UNSPECIFIED. ) ;
#381 = ORIENTED_EDGE ( 'NONE', *, *, #656, .F. ) ;
#382 = CARTESIAN_POINT ( 'NONE',  ( 16.91141368720047566, -1.182561244603837380, 2.500000000000000000 ) ) ;
#383 = CC_DESIGN_PERSON_AND_ORGANIZATION_ASSIGNMENT ( #248, #373, ( #363 ) ) ;
#384 = AXIS2_PLACEMENT_3D ( 'NONE', #953, #326, #620 ) ;
#385 = EDGE_LOOP ( 'NONE', ( #867, #462 ) ) ;
#386 = FACE_OUTER_BOUND ( 'NONE', #391, .T. ) ;
#387 = AXIS2_PLACEMENT_3D ( 'NONE', #502, #403, #28 ) ;
#388 = ORIENTED_EDGE ( 'NONE', *, *, #1063, .T. ) ;
#389 = CARTESIAN_POINT ( 'NONE',  ( -17.86901877132398297, -6.453083033680917069, 4.499999983999594555 ) ) ;
#390 = AXIS2_PLACEMENT_3D ( 'NONE', #416, #530, #928 ) ;
#391 = EDGE_LOOP ( 'NONE', ( #1204, #1016, #782, #717 ) ) ;
#392 = LINE ( 'NONE', #597, #587 ) ;
#393 = EDGE_CURVE ( 'NONE', #595, #588, #1100, .T. ) ;
#394 = ORIENTED_EDGE ( 'NONE', *, *, #469, .T. ) ;
#395 = PLANE ( 'NONE',  #1116 ) ;
#396 = ORIENTED_EDGE ( 'NONE', *, *, #235, .F. ) ;
#397 = DIRECTION ( 'NONE',  ( 1.000000000000000000, 0.000000000000000000, 0.000000000000000000 ) ) ;
#398 = ORIENTED_EDGE ( 'NONE', *, *, #252, .F. ) ;
#399 = FACE_OUTER_BOUND ( 'NONE', #1258, .T. ) ;
#400 = CARTESIAN_POINT ( 'NONE',  ( -17.24999999999999645, -7.276347106161928480, 11.00000000000000000 ) ) ;
#401 = EDGE_CURVE ( 'NONE', #704, #571, #33, .T. ) ;
#402 = FACE_OUTER_BOUND ( 'NONE', #509, .T. ) ;
#403 = DIRECTION ( 'NONE',  ( -0.000000000000000000, 0.000000000000000000, 1.000000000000000000 ) ) ;
#404 = AXIS2_PLACEMENT_3D ( 'NONE', #731, #1127, #140 ) ;
#405 = ORIENTED_EDGE ( 'NONE', *, *, #263, .F. ) ;
#406 = VECTOR ( 'NONE', #694, 1000.000000000000000 ) ;
#407 = CARTESIAN_POINT ( 'NONE',  ( -15.49999999999999822, -7.276347106161928480, 4.500000000000000888 ) ) ;
#408 = ADVANCED_FACE ( 'NONE', ( #438 ), #129, .F. ) ;
#409 = CARTESIAN_POINT ( 'NONE',  ( -15.49999999999999822, -7.276347106161928480, 11.00000000000000000 ) ) ;
#410 = ORIENTED_EDGE ( 'NONE', *, *, #881, .T. ) ;
#411 = FACE_OUTER_BOUND ( 'NONE', #898, .T. ) ;
#412 = CIRCLE ( 'NONE', #751, 3.000000000000004441 ) ;
#413 = AXIS2_PLACEMENT_3D ( 'NONE', #1133, #714, #1109 ) ;
#414 = VERTEX_POINT ( 'NONE', #1216 ) ;
#415 = LINE ( 'NONE', #420, #1134 ) ;
#416 = CARTESIAN_POINT ( 'NONE',  ( -19.90410583797994448, -1.391830665836229608, 2.500000000000000000 ) ) ;
#417 = CARTESIAN_POINT ( 'NONE',  ( 18.00000000000000355, -7.276347106179602342, 4.434894976452754989 ) ) ;
#418 = DIRECTION ( 'NONE',  ( -0.000000000000000000, -0.000000000000000000, -1.000000000000000000 ) ) ;
#419 = VERTEX_POINT ( 'NONE', #1012 ) ;
#420 = CARTESIAN_POINT ( 'NONE',  ( -16.91141368720048277, -1.182561244603843598, 2.500000000000000000 ) ) ;
#421 = MANIFOLD_SOLID_BREP ( 'Cortar-Extruir1', #556 ) ;
#422 = APPLICATION_CONTEXT ( 'configuration controlled 3d designs of mechanical parts and assemblies' ) ;
#423 = CARTESIAN_POINT ( 'NONE',  ( 1.521777119683755696E-15, -14.04634710616192805, -2.500000000000000000 ) ) ;
#424 = CARTESIAN_POINT ( 'NONE',  ( 16.91141368720047566, -1.182561244603837380, 2.500000000000000000 ) ) ;
#425 = DIRECTION ( 'NONE',  ( 0.000000000000000000, 0.000000000000000000, -1.000000000000000000 ) ) ;
#426 = EDGE_CURVE ( 'NONE', #76, #360, #412, .T. ) ;
#427 = ORIENTED_EDGE ( 'NONE', *, *, #697, .T. ) ;
#428 = FACE_BOUND ( 'NONE', #98, .T. ) ;
#429 = AXIS2_PLACEMENT_3D ( 'NONE', #757, #347, #641 ) ;
#430 = ADVANCED_BREP_SHAPE_REPRESENTATION ( 'eslabon_AD_tapa', ( #421, #655 ), #190 ) ;
#431 = CIRCLE ( 'NONE', #1222, 3.000000000000004441 ) ;
#432 = DIRECTION ( 'NONE',  ( 0.000000000000000000, 0.000000000000000000, -1.000000000000000000 ) ) ;
#433 = CARTESIAN_POINT ( 'NONE',  ( 18.00000000000000355, -7.276347106161925815, 11.00000000000000000 ) ) ;
#434 = ORIENTED_EDGE ( 'NONE', *, *, #59, .F. ) ;
#435 = CARTESIAN_POINT ( 'NONE',  ( -14.96346075389734764, -72.04634710616191740, 2.500000000000000000 ) ) ;
#436 = EDGE_CURVE ( 'NONE', #1265, #818, #1129, .T. ) ;
#437 = VECTOR ( 'NONE', #79, 1000.000000000000000 ) ;
#438 = FACE_OUTER_BOUND ( 'NONE', #906, .T. ) ;
#439 = CARTESIAN_POINT ( 'NONE',  ( -15.49999999999999822, -7.276347106161928480, -0.5000000000000000000 ) ) ;
#440 = CARTESIAN_POINT ( 'NONE',  ( -19.61929103001761732, -5.464872179474732583, 2.500000000000000000 ) ) ;
#441 = ORIENTED_EDGE ( 'NONE', *, *, #526, .F. ) ;
#442 = FACE_OUTER_BOUND ( 'NONE', #1126, .T. ) ;
#443 = DIRECTION ( 'NONE',  ( -0.000000000000000000, -0.000000000000000000, -1.000000000000000000 ) ) ;
#444 = CARTESIAN_POINT ( 'NONE',  ( -19.85182279967736463, -2.139512947488258821, -2.500000000000000000 ) ) ;
#445 = EDGE_CURVE ( 'NONE', #779, #565, #520, .T. ) ;
#446 = APPLICATION_PROTOCOL_DEFINITION ( 'international standard', 'config_control_design', 1994, #422 ) ;
#447 = ORIENTED_EDGE ( 'NONE', *, *, #348, .F. ) ;
#448 = CARTESIAN_POINT ( 'NONE',  ( -19.90410583797994448, -1.391830665836229608, 2.500000000000000000 ) ) ;
#449 = DIRECTION ( 'NONE',  ( -1.000000000000000000, 0.000000000000000000, 0.000000000000000000 ) ) ;
#450 = LOCAL_TIME ( 10, 32, 39.00000000000000000, #624 ) ;
#451 = EDGE_CURVE ( 'NONE', #229, #197, #110, .T. ) ;
#452 = CARTESIAN_POINT ( 'NONE',  ( 17.97973615036097783, -7.653343126512580419, 4.431997399425822159 ) ) ;
#453 = ORIENTED_EDGE ( 'NONE', *, *, #900, .F. ) ;
#454 = CARTESIAN_POINT ( 'NONE',  ( -2.311324531849125235E-31, 1.887339707627014958E-15, 2.500000000000000000 ) ) ;
#455 = VECTOR ( 'NONE', #923, 999.9999999999998863 ) ;
#456 = CIRCLE ( 'NONE', #1145, 2.000000000000001776 ) ;
#457 = CARTESIAN_POINT ( 'NONE',  ( -16.91141368720048277, -1.182561244603843598, -2.500000000000000000 ) ) ;
#458 = CARTESIAN_POINT ( 'NONE',  ( 19.32709379002153938, -9.643487389790800890, 2.500000000000000444 ) ) ;
#459 = SECURITY_CLASSIFICATION_LEVEL ( 'unclassified' ) ;
#460 = ORIENTED_EDGE ( 'NONE', *, *, #1279, .T. ) ;
#461 = CARTESIAN_POINT ( 'NONE',  ( -15.49999999999999822, -7.276347106161928480, 4.500000000000000888 ) ) ;
#462 = ORIENTED_EDGE ( 'NONE', *, *, #1063, .F. ) ;
#463 = CYLINDRICAL_SURFACE ( 'NONE', #1101, 4.000000000000001776 ) ;
#464 = DIRECTION ( 'NONE',  ( 1.000000000000000000, 0.000000000000000000, 0.000000000000000000 ) ) ;
#465 = PERSON_AND_ORGANIZATION_ROLE ( 'creator' ) ;
#466 = EDGE_CURVE ( 'NONE', #312, #1262, #13, .T. ) ;
#467 = ORIENTED_EDGE ( 'NONE', *, *, #204, .T. ) ;
#468 = DIRECTION ( 'NONE',  ( -0.000000000000000000, 0.000000000000000000, 1.000000000000000000 ) ) ;
#469 = EDGE_CURVE ( 'NONE', #863, #883, #1221, .T. ) ;
#470 = CARTESIAN_POINT ( 'NONE',  ( 12.50000000000000000, -7.276347106161925815, -2.500000000000000000 ) ) ;
#471 = CIRCLE ( 'NONE', #909, 4.000000000000001776 ) ;
#472 = AXIS2_PLACEMENT_3D ( 'NONE', #201, #1088, #1015 ) ;
#473 = CARTESIAN_POINT ( 'NONE',  ( -17.78296803477393695, -8.321870921652019248, 2.747235816106446737 ) ) ;
#474 = ORIENTED_EDGE ( 'NONE', *, *, #580, .T. ) ;
#475 = CARTESIAN_POINT ( 'NONE',  ( 13.00000000000000178, -7.276347106161925815, 11.00000000000000000 ) ) ;
#476 = ADVANCED_FACE ( 'NONE', ( #613 ), #308, .F. ) ;
#477 = CARTESIAN_POINT ( 'NONE',  ( -19.44771077435152762, -7.918584151996888032, 2.499999999999995115 ) ) ;
#478 = ORIENTED_EDGE ( 'NONE', *, *, #193, .T. ) ;
#479 = CARTESIAN_POINT ( 'NONE',  ( -17.98224842921622724, -6.932813956941209277, 4.454855474489125555 ) ) ;
#480 = ORIENTED_EDGE ( 'NONE', *, *, #92, .T. ) ;
#481 = CARTESIAN_POINT ( 'NONE',  ( -14.96346075389734764, -72.04634710616191740, 2.500000000000000000 ) ) ;
#482 = ORIENTED_EDGE ( 'NONE', *, *, #445, .T. ) ;
#483 = CARTESIAN_POINT ( 'NONE',  ( -17.91183096412487785, -6.596167946345613764, 4.484558249765363769 ) ) ;
#484 = ORIENTED_EDGE ( 'NONE', *, *, #487, .F. ) ;
#485 = CARTESIAN_POINT ( 'NONE',  ( 17.24999999999999289, -7.276347106161925815, -0.5000000000000000000 ) ) ;
#486 = VECTOR ( 'NONE', #518, 1000.000000000000000 ) ;
#487 = EDGE_CURVE ( 'NONE', #419, #602, #284, .T. ) ;
#488 = AXIS2_PLACEMENT_3D ( 'NONE', #1010, #796, #107 ) ;
#489 = ORIENTED_EDGE ( 'NONE', *, *, #466, .T. ) ;
#490 = CARTESIAN_POINT ( 'NONE',  ( 13.75000000000000711, -7.276347106161925815, 11.00000000000000000 ) ) ;
#491 = AXIS2_PLACEMENT_3D ( 'NONE', #931, #735, #35 ) ;
#492 = VERTEX_POINT ( 'NONE', #336 ) ;
#493 = DIRECTION ( 'NONE',  ( -1.000000000000000000, 0.000000000000000000, 0.000000000000000000 ) ) ;
#494 = DIRECTION ( 'NONE',  ( 1.000000000000000000, 0.000000000000000000, 0.000000000000000000 ) ) ;
#495 = VECTOR ( 'NONE', #1235, 1000.000000000000000 ) ;
#496 = EDGE_LOOP ( 'NONE', ( #346, #1282, #277, #249, #498, #541 ) ) ;
#497 = DIRECTION ( 'NONE',  ( 0.8504652866714524917, -0.5260311741397503127, 0.000000000000000000 ) ) ;
#498 = ORIENTED_EDGE ( 'NONE', *, *, #856, .F. ) ;
#499 = DIRECTION ( 'NONE',  ( 1.000000000000000000, 0.000000000000000000, 0.000000000000000000 ) ) ;
#500 = CARTESIAN_POINT ( 'NONE',  ( -17.92862969963301722, -6.650155262081664631, 4.479439096642098939 ) ) ;
#501 = ORIENTED_EDGE ( 'NONE', *, *, #789, .T. ) ;
#502 = CARTESIAN_POINT ( 'NONE',  ( -15.49999999999999822, -7.276347106161928480, 4.500000000000000888 ) ) ;
#503 = ORIENTED_EDGE ( 'NONE', *, *, #368, .F. ) ;
#504 = DIRECTION ( 'NONE',  ( -1.000000000000000000, 0.000000000000000000, 0.000000000000000000 ) ) ;
#505 = EDGE_CURVE ( 'NONE', #571, #832, #618, .T. ) ;
#506 = DIRECTION ( 'NONE',  ( 1.000000000000000000, 1.083397062725421490E-16, 0.000000000000000000 ) ) ;
#507 = ORIENTED_EDGE ( 'NONE', *, *, #1236, .F. ) ;
#508 = CARTESIAN_POINT ( 'NONE',  ( -18.00000000000000000, -7.276347106172425860, 4.434894976452990356 ) ) ;
#509 = EDGE_LOOP ( 'NONE', ( #1189, #1119, #388, #651 ) ) ;
#510 = CARTESIAN_POINT ( 'NONE',  ( 15.50000000000000178, -7.276347106161925815, -0.5000000000000000000 ) ) ;
#511 = ADVANCED_FACE ( 'NONE', ( #820 ), #124, .F. ) ;
#512 = DIRECTION ( 'NONE',  ( 0.000000000000000000, 0.000000000000000000, -1.000000000000000000 ) ) ;
#513 = LINE ( 'NONE', #138, #495 ) ;
#514 = CARTESIAN_POINT ( 'NONE',  ( -15.49999999999999822, -7.276347106161928480, 2.500000000000000000 ) ) ;
#515 = AXIS2_PLACEMENT_3D ( 'NONE', #1203, #288, #199 ) ;
#516 = CIRCLE ( 'NONE', #1080, 2.000000000000001776 ) ;
#517 = EDGE_LOOP ( 'NONE', ( #1198, #911, #396, #1289 ) ) ;
#518 = DIRECTION ( 'NONE',  ( -0.000000000000000000, -0.000000000000000000, 1.000000000000000000 ) ) ;
#519 = APPROVAL ( #925, 'Coincidente' ) ;
#520 = LINE ( 'NONE', #1234, #239 ) ;
#521 = DIRECTION ( 'NONE',  ( 0.000000000000000000, 0.000000000000000000, -1.000000000000000000 ) ) ;
#522 = EDGE_LOOP ( 'NONE', ( #723, #742, #164, #478, #926 ) ) ;
#523 = LINE ( 'NONE', #448, #700 ) ;
#524 = CARTESIAN_POINT ( 'NONE',  ( -15.49999999999999822, -7.276347106161928480, -0.5000000000000000000 ) ) ;
#525 = CARTESIAN_POINT ( 'NONE',  ( 17.95987153911278966, -7.737206759514801746, 4.438608166527591159 ) ) ;
#526 = EDGE_CURVE ( 'NONE', #571, #567, #622, .T. ) ;
#527 = DIRECTION ( 'NONE',  ( 0.000000000000000000, 0.000000000000000000, 1.000000000000000000 ) ) ;
#528 = ORIENTED_EDGE ( 'NONE', *, *, #393, .T. ) ;
#529 = CYLINDRICAL_SURFACE ( 'NONE', #722, 3.000000000000004441 ) ;
#530 = DIRECTION ( 'NONE',  ( 0.9975640502598240866, 0.06975647374412920210, -0.000000000000000000 ) ) ;
#531 = FACE_OUTER_BOUND ( 'NONE', #1206, .T. ) ;
#532 = DATE_AND_TIME ( #131, #279 ) ;
#533 = EDGE_LOOP ( 'NONE', ( #1280, #1027 ) ) ;
#534 = VECTOR ( 'NONE', #137, 999.9999999999998863 ) ;
#535 = CARTESIAN_POINT ( 'NONE',  ( 15.50000000000000178, -7.276347106161925815, 11.00000000000000000 ) ) ;
#536 = VECTOR ( 'NONE', #165, 1000.000000000000000 ) ;
#537 = DIRECTION ( 'NONE',  ( -0.000000000000000000, -0.000000000000000000, -1.000000000000000000 ) ) ;
#538 = EDGE_CURVE ( 'NONE', #1277, #964, #516, .T. ) ;
#539 = DIRECTION ( 'NONE',  ( 0.000000000000000000, 0.000000000000000000, -1.000000000000000000 ) ) ;
#540 = CARTESIAN_POINT ( 'NONE',  ( 15.50000000000000178, -7.276347106161925815, -2.500000000000000000 ) ) ;
#541 = ORIENTED_EDGE ( 'NONE', *, *, #1024, .F. ) ;
#542 = CARTESIAN_POINT ( 'NONE',  ( -16.01189015237767066, -14.04634710616192805, -2.500000000000000000 ) ) ;
#543 = EDGE_CURVE ( 'NONE', #101, #1180, #380, .T. ) ;
#544 = DIRECTION ( 'NONE',  ( -0.000000000000000000, 0.000000000000000000, 1.000000000000000000 ) ) ;
#545 = CARTESIAN_POINT ( 'NONE',  ( 19.49867404568758644, -7.189775417269110847, 2.500000000000007550 ) ) ;
#546 = PERSON_AND_ORGANIZATION_ROLE ( 'design_owner' ) ;
#547 = ORIENTED_EDGE ( 'NONE', *, *, #708, .T. ) ;
#548 = CARTESIAN_POINT ( 'NONE',  ( -12.70409954258696494, -61.34995666386175373, 2.500000000000000000 ) ) ;
#549 = VECTOR ( 'NONE', #713, 1000.000000000000000 ) ;
#550 = DIRECTION ( 'NONE',  ( 0.000000000000000000, -0.000000000000000000, -1.000000000000000000 ) ) ;
#551 = AXIS2_PLACEMENT_3D ( 'NONE', #540, #228, #1026 ) ;
#552 = CARTESIAN_POINT ( 'NONE',  ( 19.52372662553407068, -6.831506834016457752, 2.499999999999984457 ) ) ;
#553 = ORIENTED_EDGE ( 'NONE', *, *, #310, .T. ) ;
#554 = CARTESIAN_POINT ( 'NONE',  ( -15.49999999999999822, -7.276347106161928480, -0.5000000000000000000 ) ) ;
#555 = EDGE_LOOP ( 'NONE', ( #669, #1159 ) ) ;
#556 = CLOSED_SHELL ( 'NONE', ( #408, #875, #995, #270, #1140, #621, #22, #1061, #766, #1187, #6, #839, #933, #822, #1128, #1296, #845, #680, #476, #73, #1096, #1183, #817, #564, #915, #726, #112, #210, #132, #78, #183, #942, #776, #511, #31, #748, #698 ) ) ;
#557 = CARTESIAN_POINT ( 'NONE',  ( 17.85669469915771757, -1.999999999999996225, -2.500000000000000000 ) ) ;
#558 = CARTESIAN_POINT ( 'NONE',  ( 17.81784538160738052, -8.234444820642888629, 4.479439096642098050 ) ) ;
#559 = EDGE_CURVE ( 'NONE', #1104, #1079, #1253, .T. ) ;
#560 = ORIENTED_EDGE ( 'NONE', *, *, #172, .T. ) ;
#561 = DIRECTION ( 'NONE',  ( 1.000000000000000000, 0.000000000000000000, 0.000000000000000000 ) ) ;
#562 = LINE ( 'NONE', #457, #56 ) ;
#563 = CARTESIAN_POINT ( 'NONE',  ( -19.32709379002153938, -9.643487389790800890, 2.500000000000000444 ) ) ;
#564 = ADVANCED_FACE ( 'NONE', ( #146 ), #773, .T. ) ;
#565 = VERTEX_POINT ( 'NONE', #948 ) ;
#566 = DIRECTION ( 'NONE',  ( -0.000000000000000000, -0.000000000000000000, -1.000000000000000000 ) ) ;
#567 = VERTEX_POINT ( 'NONE', #568 ) ;
#568 = CARTESIAN_POINT ( 'NONE',  ( 14.96346075389736363, -72.04634710616191740, -2.500000000000000000 ) ) ;
#569 = DIRECTION ( 'NONE',  ( 0.000000000000000000, 0.000000000000000000, 1.000000000000000000 ) ) ;
#570 = CALENDAR_DATE ( 2026, 14, 9 ) ;
#571 = VERTEX_POINT ( 'NONE', #356 ) ;
#572 = DIRECTION ( 'NONE',  ( 0.000000000000000000, 0.000000000000000000, 1.000000000000000000 ) ) ;
#573 = ORIENTED_EDGE ( 'NONE', *, *, #426, .F. ) ;
#574 = VECTOR ( 'NONE', #853, 1000.000000000000000 ) ;
#575 = VECTOR ( 'NONE', #1164, 999.9999999999998863 ) ;
#576 = LINE ( 'NONE', #382, #979 ) ;
#577 = EDGE_CURVE ( 'NONE', #492, #144, #45, .T. ) ;
#578 = ORIENTED_EDGE ( 'NONE', *, *, #1105, .T. ) ;
#579 = DIRECTION ( 'NONE',  ( -0.000000000000000000, 0.000000000000000000, 1.000000000000000000 ) ) ;
#580 = EDGE_CURVE ( 'NONE', #588, #1251, #40, .T. ) ;
#581 = DIRECTION ( 'NONE',  ( -0.06975647374412892454, -0.9975640502598240866, 0.000000000000000000 ) ) ;
#582 = ORIENTED_EDGE ( 'NONE', *, *, #781, .F. ) ;
#583 = CARTESIAN_POINT ( 'NONE',  ( -18.50000000000000355, -7.276347106161928480, -2.500000000000000000 ) ) ;
#584 = ORIENTED_EDGE ( 'NONE', *, *, #1236, .T. ) ;
#585 = LINE ( 'NONE', #103, #1078 ) ;
#586 = CIRCLE ( 'NONE', #341, 2.500000000000000444 ) ;
#587 = VECTOR ( 'NONE', #905, 1000.000000000000000 ) ;
#588 = VERTEX_POINT ( 'NONE', #872 ) ;
#589 = CYLINDRICAL_SURFACE ( 'NONE', #472, 2.500000000000000444 ) ;
#590 = ORIENTED_EDGE ( 'NONE', *, *, #1279, .F. ) ;
#591 = DIRECTION ( 'NONE',  ( -1.000000000000000000, 0.000000000000000000, 0.000000000000000000 ) ) ;
#592 = DESIGN_CONTEXT ( 'detailed design', #422, 'design' ) ;
#593 = CARTESIAN_POINT ( 'NONE',  ( -17.90641999854756250, -6.559681988492933158, 2.747461791683192711 ) ) ;
#594 = AXIS2_PLACEMENT_3D ( 'NONE', #903, #1001, #1184 ) ;
#595 = VERTEX_POINT ( 'NONE', #961 ) ;
#596 = EDGE_CURVE ( 'NONE', #683, #312, #14, .T. ) ;
#597 = CARTESIAN_POINT ( 'NONE',  ( -12.99999999999999822, -7.276347106161928480, 11.00000000000000000 ) ) ;
#598 =( BOUNDED_SURFACE ( )  B_SPLINE_SURFACE ( 3, 2, ( 
 ( #841, #1217, #720 ),
 ( #1019, #120, #47 ),
 ( #1056, #55, #874 ),
 ( #552, #143, #1048 ),
 ( #545, #1249, #1273 ),
 ( #949, #242, #452 ),
 ( #976, #1254, #156 ),
 ( #357, #760, #558 ),
 ( #768, #1165, #962 ),
 ( #458, #372, #148 ) ),
 .UNSPECIFIED., .F., .F., .F. ) 
 B_SPLINE_SURFACE_WITH_KNOTS ( ( 4, 2, 2, 2, 4 ),
 ( 3, 3 ),
 ( 0.003888102701881735509, 0.004980535510575192712, 0.006072968319268649481, 0.007165401127962106251, 0.008257833936655563020 ),
 ( 0.000000000000000000, 1.000000000000000000 ),
 .UNSPECIFIED. ) 
 GEOMETRIC_REPRESENTATION_ITEM ( )  RATIONAL_B_SPLINE_SURFACE ( (
 ( 1.000000000000000000, 0.7071067811865480168, 1.000000000000000000),
 ( 1.000000000000000000, 0.7334426340253216159, 1.000000000000000000),
 ( 1.000000000000000000, 0.7556066299215725701, 1.000000000000000000),
 ( 1.000000000000000000, 0.7854744988633516334, 1.000000000000000000),
 ( 1.000000000000000000, 0.7932714538739266130, 1.000000000000000000),
 ( 1.000000000000000000, 0.7932673753161542107, 1.000000000000000000),
 ( 1.000000000000000000, 0.7853667967637666392, 1.000000000000000000),
 ( 1.000000000000000000, 0.7556608284338165449, 1.000000000000000000),
 ( 1.000000000000000000, 0.7334493157191267487, 1.000000000000000000),
 ( 1.000000000000000000, 0.7071067811865475727, 1.000000000000000000) ) ) 
 REPRESENTATION_ITEM ( '' )  SURFACE ( )  );
#599 = ORIENTED_EDGE ( 'NONE', *, *, #1042, .F. ) ;
#600 = CARTESIAN_POINT ( 'NONE',  ( 15.50000000000000178, -7.276347106161925815, -0.5000000000000000000 ) ) ;
#601 = LINE ( 'NONE', #682, #54 ) ;
#602 = VERTEX_POINT ( 'NONE', #470 ) ;
#603 = CARTESIAN_POINT ( 'NONE',  ( -13.74999999999999822, -7.276347106161928480, 11.00000000000000000 ) ) ;
#604 = EDGE_CURVE ( 'NONE', #273, #1196, #456, .T. ) ;
#605 = ORIENTED_EDGE ( 'NONE', *, *, #1227, .T. ) ;
#606 = PLANE ( 'NONE',  #687 ) ;
#607 = DIRECTION ( 'NONE',  ( 0.000000000000000000, -0.000000000000000000, -1.000000000000000000 ) ) ;
#608 = CARTESIAN_POINT ( 'NONE',  ( -17.62616321667863062, -8.591425041511300265, 4.500000000000000888 ) ) ;
#609 = DIRECTION ( 'NONE',  ( -0.000000000000000000, 0.000000000000000000, 1.000000000000000000 ) ) ;
#610 = TOROIDAL_SURFACE ( 'NONE', #1181, 4.500000000000000888, 2.000000000000000000 ) ;
#611 = ORIENTED_EDGE ( 'NONE', *, *, #538, .F. ) ;
#612 = CARTESIAN_POINT ( 'NONE',  ( -3.999999999999993339, -72.04634710616191740, 2.500000000000000000 ) ) ;
#613 = FACE_OUTER_BOUND ( 'NONE', #496, .T. ) ;
#614 = EDGE_CURVE ( 'NONE', #84, #101, #852, .T. ) ;
#615 = CARTESIAN_POINT ( 'NONE',  ( -17.85669469915771757, -2.994746930404857380E-16, -2.500000000000000000 ) ) ;
#616 = DIRECTION ( 'NONE',  ( -0.8685721233437951883, 0.4955627776074905677, 0.000000000000000000 ) ) ;
#617 = VECTOR ( 'NONE', #506, 1000.000000000000000 ) ;
#618 = CIRCLE ( 'NONE', #413, 14.99999999999999822 ) ;
#619 = VERTEX_POINT ( 'NONE', #369 ) ;
#620 = DIRECTION ( 'NONE',  ( -1.000000000000000000, 0.000000000000000000, 0.000000000000000000 ) ) ;
#621 = ADVANCED_FACE ( 'NONE', ( #1247 ), #463, .F. ) ;
#622 = LINE ( 'NONE', #1149, #981 ) ;
#623 = CARTESIAN_POINT ( 'NONE',  ( 17.62616321667863417, -8.591425041511298488, 4.500000000000000888 ) ) ;
#624 = COORDINATED_UNIVERSAL_TIME_OFFSET ( 3, 0, .BEHIND. ) ;
#625 = ORIENTED_EDGE ( 'NONE', *, *, #1069, .F. ) ;
#626 = LINE ( 'NONE', #1040, #744 ) ;
#627 = DIRECTION ( 'NONE',  ( -0.000000000000000000, -0.000000000000000000, -1.000000000000000000 ) ) ;
#628 = CARTESIAN_POINT ( 'NONE',  ( -15.49999999999999822, -7.276347106161928480, 11.00000000000000000 ) ) ;
#629 = CARTESIAN_POINT ( 'NONE',  ( 0.000000000000000000, 0.000000000000000000, 0.000000000000000000 ) ) ;
#630 = ORIENTED_EDGE ( 'NONE', *, *, #469, .F. ) ;
#631 = DIRECTION ( 'NONE',  ( -1.000000000000000000, 0.000000000000000000, 0.000000000000000000 ) ) ;
#632 = AXIS2_PLACEMENT_3D ( 'NONE', #510, #102, #504 ) ;
#633 = EDGE_CURVE ( 'NONE', #287, #815, #562, .T. ) ;
#634 = SECURITY_CLASSIFICATION ( '', '', #459 ) ;
#635 = CARTESIAN_POINT ( 'NONE',  ( -19.90410583797994448, -1.391830665836229608, -2.500000000000000000 ) ) ;
#636 = DIRECTION ( 'NONE',  ( 0.9975640502598240866, -0.06975647374412892454, 0.000000000000000000 ) ) ;
#637 = FACE_OUTER_BOUND ( 'NONE', #182, .T. ) ;
#638 = EDGE_CURVE ( 'NONE', #958, #815, #253, .T. ) ;
#639 = ORIENTED_EDGE ( 'NONE', *, *, #950, .T. ) ;
#640 = AXIS2_PLACEMENT_3D ( 'NONE', #213, #719, #814 ) ;
#641 = DIRECTION ( 'NONE',  ( 1.000000000000000000, 0.000000000000000000, 0.000000000000000000 ) ) ;
#642 = VECTOR ( 'NONE', #67, 1000.000000000000000 ) ;
#643 = DIRECTION ( 'NONE',  ( -1.000000000000000000, 0.000000000000000000, 0.000000000000000000 ) ) ;
#644 = CARTESIAN_POINT ( 'NONE',  ( -19.49869398512228003, -7.189490270068286115, 2.500000000000004885 ) ) ;
#645 = DIRECTION ( 'NONE',  ( -0.4955627776074905677, -0.8685721233437951883, 0.000000000000000000 ) ) ;
#646 = ORIENTED_EDGE ( 'NONE', *, *, #401, .F. ) ;
#647 = FACE_OUTER_BOUND ( 'NONE', #712, .T. ) ;
#648 = CARTESIAN_POINT ( 'NONE',  ( 14.28491784957641464, -14.04634710616192805, 2.500000000000000000 ) ) ;
#649 = CARTESIAN_POINT ( 'NONE',  ( -17.99134273488944302, -6.974979911955411893, 2.869562795584166270 ) ) ;
#650 = PERSON_AND_ORGANIZATION ( #18446744073709551615, #18446744073709551615 ) ;
#651 = ORIENTED_EDGE ( 'NONE', *, *, #697, .F. ) ;
#652 = CARTESIAN_POINT ( 'NONE',  ( 18.50000000000000355, -7.276347106161925815, -0.5000000000000000000 ) ) ;
#653 = ORIENTED_EDGE ( 'NONE', *, *, #353, .F. ) ;
#654 = CIRCLE ( 'NONE', #1050, 3.000000000000000888 ) ;
#655 = AXIS2_PLACEMENT_3D ( 'NONE', #629, #527, #741 ) ;
#656 = EDGE_CURVE ( 'NONE', #1185, #374, #967, .T. ) ;
#657 = CARTESIAN_POINT ( 'NONE',  ( -16.01189015237767066, -14.04634710616192805, 2.500000000000000000 ) ) ;
#658 = AXIS2_PLACEMENT_3D ( 'NONE', #324, #616, #645 ) ;
#659 = CARTESIAN_POINT ( 'NONE',  ( -19.37338260323647887, -8.981526520585413564, 2.499999999999990230 ) ) ;
#660 = APPROVAL_ROLE ( '' ) ;
#661 = ORIENTED_EDGE ( 'NONE', *, *, #39, .T. ) ;
#662 = DIRECTION ( 'NONE',  ( -1.000000000000000000, 0.000000000000000000, 0.000000000000000000 ) ) ;
#663 = EDGE_LOOP ( 'NONE', ( #599, #689, #1110, #72 ) ) ;
#664 = B_SPLINE_CURVE_WITH_KNOTS ( 'NONE', 3,
 ( #623, #1025, #1135, #938, #525, #747, #1230, #206 ),
 .UNSPECIFIED., .F., .F.,
 ( 4, 2, 2, 4 ),
 ( 0.000000000000000000, 0.0006964322373840173665, 0.001044648356076026104, 0.001392864474768034733 ),
 .UNSPECIFIED. ) ;
#665 = CIRCLE ( 'NONE', #94, 2.500000000000000444 ) ;
#666 = DIRECTION ( 'NONE',  ( -1.000000000000000000, 0.000000000000000000, 0.000000000000000000 ) ) ;
#667 = EDGE_CURVE ( 'NONE', #1196, #567, #846, .T. ) ;
#668 = CARTESIAN_POINT ( 'NONE',  ( -17.62616321667863062, -8.591425041511300265, 4.500000000000000888 ) ) ;
#669 = ORIENTED_EDGE ( 'NONE', *, *, #910, .F. ) ;
#670 = DIRECTION ( 'NONE',  ( 0.4955627776074905122, 0.8685721233437952993, 0.000000000000000000 ) ) ;
#671 = EDGE_CURVE ( 'NONE', #1232, #80, #177, .T. ) ;
#672 = VERTEX_POINT ( 'NONE', #1041 ) ;
#673 = CARTESIAN_POINT ( 'NONE',  ( 17.91145093021105694, -6.594523738410265956, 4.484703594961684026 ) ) ;
#674 = CARTESIAN_POINT ( 'NONE',  ( -17.92567229430000353, -7.919955308113742376, 2.869983313249208745 ) ) ;
#675 = DATE_AND_TIME ( #269, #807 ) ;
#676 = ORIENTED_EDGE ( 'NONE', *, *, #321, .T. ) ;
#677 = FACE_OUTER_BOUND ( 'NONE', #1087, .T. ) ;
#678 = EDGE_LOOP ( 'NONE', ( #777, #216, #427, #104 ) ) ;
#679 = EDGE_CURVE ( 'NONE', #237, #565, #350, .T. ) ;
#680 = ADVANCED_FACE ( 'NONE', ( #292 ), #606, .F. ) ;
#681 = VECTOR ( 'NONE', #884, 999.9999999999998863 ) ;
#682 = CARTESIAN_POINT ( 'NONE',  ( 19.90410583797994448, -1.391830665836224723, 2.500000000000000000 ) ) ;
#683 = VERTEX_POINT ( 'NONE', #191 ) ;
#684 = DIRECTION ( 'NONE',  ( -0.000000000000000000, -0.000000000000000000, -1.000000000000000000 ) ) ;
#685 = EDGE_CURVE ( 'NONE', #1275, #958, #415, .T. ) ;
#686 = VECTOR ( 'NONE', #20, 1000.000000000000000 ) ;
#687 = AXIS2_PLACEMENT_3D ( 'NONE', #4, #1207, #1199 ) ;
#688 = DIRECTION ( 'NONE',  ( -0.06975647374412896617, -0.9975640502598240866, 0.000000000000000000 ) ) ;
#689 = ORIENTED_EDGE ( 'NONE', *, *, #873, .F. ) ;
#690 = LINE ( 'NONE', #296, #406 ) ;
#691 = ORIENTED_EDGE ( 'NONE', *, *, #393, .F. ) ;
#692 = LINE ( 'NONE', #179, #282 ) ;
#693 = ORIENTED_EDGE ( 'NONE', *, *, #1069, .T. ) ;
#694 = DIRECTION ( 'NONE',  ( -0.000000000000000000, -0.000000000000000000, 1.000000000000000000 ) ) ;
#695 = EDGE_LOOP ( 'NONE', ( #691, #758, #376, #434 ) ) ;
#696 = CYLINDRICAL_SURFACE ( 'NONE', #297, 2.000000000000001776 ) ;
#697 = EDGE_CURVE ( 'NONE', #244, #1232, #299, .T. ) ;
#698 = ADVANCED_FACE ( 'NONE', ( #718 ), #209, .F. ) ;
#699 = CARTESIAN_POINT ( 'NONE',  ( 17.24999999999999289, -7.276347106161925815, 11.00000000000000000 ) ) ;
#700 = VECTOR ( 'NONE', #1045, 999.9999999999998863 ) ;
#701 = CIRCLE ( 'NONE', #551, 3.000000000000000888 ) ;
#702 = DIRECTION ( 'NONE',  ( -0.000000000000000000, 0.000000000000000000, 1.000000000000000000 ) ) ;
#703 = DIRECTION ( 'NONE',  ( 0.000000000000000000, -0.000000000000000000, -1.000000000000000000 ) ) ;
#704 = VERTEX_POINT ( 'NONE', #1215 ) ;
#705 = FACE_OUTER_BOUND ( 'NONE', #259, .T. ) ;
#706 = CIRCLE ( 'NONE', #1228, 4.000000000000001776 ) ;
#707 = LINE ( 'NONE', #886, #937 ) ;
#708 = EDGE_CURVE ( 'NONE', #619, #1218, #275, .T. ) ;
#709 = AXIS2_PLACEMENT_3D ( 'NONE', #1047, #160, #1067 ) ;
#710 = ORIENTED_EDGE ( 'NONE', *, *, #1099, .F. ) ;
#711 = DIRECTION ( 'NONE',  ( -0.000000000000000000, -0.000000000000000000, -1.000000000000000000 ) ) ;
#712 = EDGE_LOOP ( 'NONE', ( #590, #410, #547, #194 ) ) ;
#713 = DIRECTION ( 'NONE',  ( -0.000000000000000000, -0.000000000000000000, -1.000000000000000000 ) ) ;
#714 = DIRECTION ( 'NONE',  ( 0.000000000000000000, -0.000000000000000000, -1.000000000000000000 ) ) ;
#715 = EDGE_LOOP ( 'NONE', ( #333, #1064 ) ) ;
#716 = DIRECTION ( 'NONE',  ( -0.000000000000000000, -0.000000000000000000, -1.000000000000000000 ) ) ;
#717 = ORIENTED_EDGE ( 'NONE', *, *, #559, .F. ) ;
#718 = FACE_OUTER_BOUND ( 'NONE', #306, .T. ) ;
#719 = DIRECTION ( 'NONE',  ( -0.000000000000000000, 0.000000000000000000, 1.000000000000000000 ) ) ;
#720 = CARTESIAN_POINT ( 'NONE',  ( 17.78849501667645683, -6.269972146891258369, 4.500000000000000888 ) ) ;
#721 = LINE ( 'NONE', #951, #932 ) ;
#722 = AXIS2_PLACEMENT_3D ( 'NONE', #935, #230, #145 ) ;
#723 = ORIENTED_EDGE ( 'NONE', *, *, #293, .T. ) ;
#724 = CIRCLE ( 'NONE', #1161, 2.500000000000000444 ) ;
#725 = DIRECTION ( 'NONE',  ( -0.000000000000000000, -0.000000000000000000, -1.000000000000000000 ) ) ;
#726 = ADVANCED_FACE ( 'NONE', ( #307, #1120 ), #395, .T. ) ;
#727 = CARTESIAN_POINT ( 'NONE',  ( 16.82278996381440095, -9.598222528119816133, 2.500000000000000000 ) ) ;
#728 = DIRECTION ( 'NONE',  ( 1.000000000000000000, 0.000000000000000000, 0.000000000000000000 ) ) ;
#729 =( NAMED_UNIT ( * ) SI_UNIT ( $, .STERADIAN. ) SOLID_ANGLE_UNIT ( ) );
#730 = ORIENTED_EDGE ( 'NONE', *, *, #118, .F. ) ;
#731 = CARTESIAN_POINT ( 'NONE',  ( 16.82278996381440095, -9.598222528119816133, 2.500000000000000000 ) ) ;
#732 = CARTESIAN_POINT ( 'NONE',  ( 15.50000000000000178, -7.276347106161925815, -0.5000000000000000000 ) ) ;
#733 = FACE_OUTER_BOUND ( 'NONE', #50, .T. ) ;
#734 = EDGE_CURVE ( 'NONE', #1196, #1277, #902, .T. ) ;
#735 = DIRECTION ( 'NONE',  ( -0.000000000000000000, -0.000000000000000000, 1.000000000000000000 ) ) ;
#736 = ORIENTED_EDGE ( 'NONE', *, *, #505, .T. ) ;
#737 = DIRECTION ( 'NONE',  ( -0.000000000000000000, -0.000000000000000000, -1.000000000000000000 ) ) ;
#738 = CARTESIAN_POINT ( 'NONE',  ( -15.49999999999999822, -7.276347106161928480, 2.500000000000000000 ) ) ;
#739 = EDGE_CURVE ( 'NONE', #779, #762, #471, .T. ) ;
#740 = LINE ( 'NONE', #847, #1188 ) ;
#741 = DIRECTION ( 'NONE',  ( 1.000000000000000000, 0.000000000000000000, 0.000000000000000000 ) ) ;
#742 = ORIENTED_EDGE ( 'NONE', *, *, #154, .F. ) ;
#743 = DIRECTION ( 'NONE',  ( 0.9975640502598240866, -0.06975647374412896617, 0.000000000000000000 ) ) ;
#744 = VECTOR ( 'NONE', #1028, 1000.000000000000000 ) ;
#745 = AXIS2_PLACEMENT_3D ( 'NONE', #195, #2, #497 ) ;
#746 = CARTESIAN_POINT ( 'NONE',  ( -15.49999999999999822, -7.276347106161928480, -0.5000000000000000000 ) ) ;
#747 = CARTESIAN_POINT ( 'NONE',  ( 17.99190125809976593, -7.508268922527930656, 4.431079933871960641 ) ) ;
#748 = ADVANCED_FACE ( 'NONE', ( #705, #1005 ), #1108, .T. ) ;
#749 = MECHANICAL_CONTEXT ( 'NONE', #828, 'mechanical' ) ;
#750 = ORIENTED_EDGE ( 'NONE', *, *, #1274, .T. ) ;
#751 = AXIS2_PLACEMENT_3D ( 'NONE', #840, #512, #15 ) ;
#752 = DIRECTION ( 'NONE',  ( -1.224646799147353207E-16, 1.000000000000000000, 0.000000000000000000 ) ) ;
#753 = VECTOR ( 'NONE', #759, 1000.000000000000000 ) ;
#754 = CARTESIAN_POINT ( 'NONE',  ( 0.000000000000000000, -64.04634710616191740, 2.500000000000000000 ) ) ;
#755 = FACE_OUTER_BOUND ( 'NONE', #522, .T. ) ;
#756 = ORIENTED_EDGE ( 'NONE', *, *, #596, .F. ) ;
#757 = CARTESIAN_POINT ( 'NONE',  ( 0.000000000000000000, 0.000000000000000000, -2.500000000000000000 ) ) ;
#758 = ORIENTED_EDGE ( 'NONE', *, *, #1202, .F. ) ;
#759 = DIRECTION ( 'NONE',  ( -0.000000000000000000, -0.000000000000000000, -1.000000000000000000 ) ) ;
#760 = CARTESIAN_POINT ( 'NONE',  ( 17.78326037776760771, -8.320946621581112979, 2.747461791683680321 ) ) ;
#761 = PERSON_AND_ORGANIZATION ( #18446744073709551615, #18446744073709551615 ) ;
#762 = VERTEX_POINT ( 'NONE', #922 ) ;
#763 = CARTESIAN_POINT ( 'NONE',  ( -16.01189015237767066, -14.04634710616192805, 2.500000000000000000 ) ) ;
#764 = ORIENTED_EDGE ( 'NONE', *, *, #1121, .F. ) ;
#765 = AXIS2_PLACEMENT_3D ( 'NONE', #554, #960, #1059 ) ;
#766 = ADVANCED_FACE ( 'NONE', ( #399 ), #895, .F. ) ;
#767 = DIRECTION ( 'NONE',  ( 1.000000000000000000, 0.000000000000000000, 0.000000000000000000 ) ) ;
#768 = CARTESIAN_POINT ( 'NONE',  ( 19.34930803361716656, -9.325808905974023233, 2.500000000000000444 ) ) ;
#769 = EDGE_LOOP ( 'NONE', ( #808, #1238, #676 ) ) ;
#770 = DIRECTION ( 'NONE',  ( 0.06975647374412896617, 0.9975640502598240866, 0.000000000000000000 ) ) ;
#771 = ORIENTED_EDGE ( 'NONE', *, *, #873, .T. ) ;
#772 = VECTOR ( 'NONE', #1035, 1000.000000000000000 ) ;
#773 = CYLINDRICAL_SURFACE ( 'NONE', #136, 2.500000000000000444 ) ;
#774 = CARTESIAN_POINT ( 'NONE',  ( -17.62616321667862707, -8.591425041511303817, 2.500000000000000444 ) ) ;
#775 = DATE_AND_TIME ( #570, #233 ) ;
#776 = ADVANCED_FACE ( 'NONE', ( #1113 ), #696, .T. ) ;
#777 = ORIENTED_EDGE ( 'NONE', *, *, #329, .F. ) ;
#778 = CARTESIAN_POINT ( 'NONE',  ( 8.823132837382037032E-15, -72.04634710616191740, 2.500000000000000000 ) ) ;
#779 = VERTEX_POINT ( 'NONE', #612 ) ;
#780 = CARTESIAN_POINT ( 'NONE',  ( 17.85669469915771757, 4.074154108294516049E-15, -2.500000000000000000 ) ) ;
#781 = EDGE_CURVE ( 'NONE', #1039, #82, #974, .T. ) ;
#782 = ORIENTED_EDGE ( 'NONE', *, *, #1171, .F. ) ;
#783 = CARTESIAN_POINT ( 'NONE',  ( 17.85669469915771757, -1.999999999999996225, 2.500000000000000000 ) ) ;
#784 = ORIENTED_EDGE ( 'NONE', *, *, #505, .F. ) ;
#785 = CARTESIAN_POINT ( 'NONE',  ( 15.50000000000000178, -7.276347106161925815, 11.00000000000000000 ) ) ;
#786 = ORIENTED_EDGE ( 'NONE', *, *, #638, .F. ) ;
#787 = DIRECTION ( 'NONE',  ( -0.000000000000000000, -0.000000000000000000, -1.000000000000000000 ) ) ;
#788 = ORIENTED_EDGE ( 'NONE', *, *, #559, .T. ) ;
#789 = EDGE_CURVE ( 'NONE', #683, #1066, #1200, .T. ) ;
#790 = VECTOR ( 'NONE', #314, 1000.000000000000000 ) ;
#791 = VECTOR ( 'NONE', #857, 1000.000000000000000 ) ;
#792 = CARTESIAN_POINT ( 'NONE',  ( -19.61929103001761732, -5.464872179474734359, 2.500000000000000444 ) ) ;
#793 = ORIENTED_EDGE ( 'NONE', *, *, #956, .F. ) ;
#794 = DIRECTION ( 'NONE',  ( 0.000000000000000000, 0.000000000000000000, 1.000000000000000000 ) ) ;
#795 = ORIENTED_EDGE ( 'NONE', *, *, #1031, .F. ) ;
#796 = DIRECTION ( 'NONE',  ( -0.000000000000000000, -0.000000000000000000, -1.000000000000000000 ) ) ;
#797 = EDGE_CURVE ( 'NONE', #76, #1218, #12, .T. ) ;
#798 = DIRECTION ( 'NONE',  ( 1.000000000000000000, 1.224646799147353207E-16, 0.000000000000000000 ) ) ;
#799 = CARTESIAN_POINT ( 'NONE',  ( 0.000000000000000000, 0.000000000000000000, 2.500000000000000000 ) ) ;
#800 = DIRECTION ( 'NONE',  ( -0.000000000000000000, -0.000000000000000000, 1.000000000000000000 ) ) ;
#801 = ORIENTED_EDGE ( 'NONE', *, *, #781, .T. ) ;
#802 = CARTESIAN_POINT ( 'NONE',  ( -18.50000000000000355, -7.276347106161928480, -0.5000000000000000000 ) ) ;
#803 = PRODUCT ( 'eslabon_AD_tapa', 'eslabon_AD_tapa', '', ( #749 ) ) ;
#804 = EDGE_CURVE ( 'NONE', #229, #1104, #69, .T. ) ;
#805 = CYLINDRICAL_SURFACE ( 'NONE', #515, 2.500000000000000444 ) ;
#806 = AXIS2_PLACEMENT_3D ( 'NONE', #1252, #1239, #631 ) ;
#807 = LOCAL_TIME ( 10, 32, 39.00000000000000000, #859 ) ;
#808 = ORIENTED_EDGE ( 'NONE', *, *, #656, .T. ) ;
#809 = DIRECTION ( 'NONE',  ( 0.000000000000000000, -0.000000000000000000, -1.000000000000000000 ) ) ;
#810 = ORIENTED_EDGE ( 'NONE', *, *, #679, .F. ) ;
#811 = DIRECTION ( 'NONE',  ( 1.000000000000000000, 0.000000000000000000, 0.000000000000000000 ) ) ;
#812 = PRODUCT_DEFINITION ( 'General', '', #363, #592 ) ;
#813 = VECTOR ( 'NONE', #330, 999.9999999999998863 ) ;
#814 = DIRECTION ( 'NONE',  ( 1.000000000000000000, 0.000000000000000000, 0.000000000000000000 ) ) ;
#815 = VERTEX_POINT ( 'NONE', #542 ) ;
#816 = FACE_OUTER_BOUND ( 'NONE', #1033, .T. ) ;
#817 = ADVANCED_FACE ( 'NONE', ( #850, #1246, #30, #428, #223, #1153 ), #833, .F. ) ;
#818 = VERTEX_POINT ( 'NONE', #1226 ) ;
#819 = DIRECTION ( 'NONE',  ( -1.000000000000000000, 0.000000000000000000, -0.000000000000000000 ) ) ;
#820 = FACE_OUTER_BOUND ( 'NONE', #251, .T. ) ;
#821 = FACE_BOUND ( 'NONE', #385, .T. ) ;
#822 = ADVANCED_FACE ( 'NONE', ( #355 ), #947, .T. ) ;
#823 = APPROVAL_STATUS ( 'not_yet_approved' ) ;
#824 = VERTEX_POINT ( 'NONE', #1148 ) ;
#825 = DIRECTION ( 'NONE',  ( -0.000000000000000000, -0.000000000000000000, -1.000000000000000000 ) ) ;
#826 = CARTESIAN_POINT ( 'NONE',  ( 19.90410583797994448, -1.391830665836224723, 2.500000000000000000 ) ) ;
#827 = AXIS2_PLACEMENT_3D ( 'NONE', #783, #1168, #662 ) ;
#828 = APPLICATION_CONTEXT ( 'configuration controlled 3d designs of mechanical parts and assemblies' ) ;
#829 = DIRECTION ( 'NONE',  ( 0.000000000000000000, -0.000000000000000000, -1.000000000000000000 ) ) ;
#830 = APPROVAL_ROLE ( '' ) ;
#831 = AXIS2_PLACEMENT_3D ( 'NONE', #187, #703, #1008 ) ;
#832 = VERTEX_POINT ( 'NONE', #435 ) ;
#833 = PLANE ( 'NONE',  #429 ) ;
#834 = DIRECTION ( 'NONE',  ( -1.000000000000000000, 0.000000000000000000, 0.000000000000000000 ) ) ;
#835 = LINE ( 'NONE', #444, #261 ) ;
#836 = AXIS2_PLACEMENT_3D ( 'NONE', #897, #1195, #294 ) ;
#837 = ORIENTED_EDGE ( 'NONE', *, *, #39, .F. ) ;
#838 = CARTESIAN_POINT ( 'NONE',  ( -10.78857725240071375, -64.04634710616191740, -2.500000000000000000 ) ) ;
#839 = ADVANCED_FACE ( 'NONE', ( #24 ), #1022, .T. ) ;
#840 = CARTESIAN_POINT ( 'NONE',  ( -15.49999999999999822, -7.276347106161928480, -0.5000000000000000000 ) ) ;
#841 = CARTESIAN_POINT ( 'NONE',  ( 19.61929103001761732, -5.464872179474723701, 2.500000000000000444 ) ) ;
#842 = CALENDAR_DATE ( 2026, 14, 9 ) ;
#843 = ORIENTED_EDGE ( 'NONE', *, *, #1031, .T. ) ;
#844 = PLANE ( 'NONE',  #929 ) ;
#845 = ADVANCED_FACE ( 'NONE', ( #245 ), #123, .T. ) ;
#846 = LINE ( 'NONE', #1240, #1271 ) ;
#847 = CARTESIAN_POINT ( 'NONE',  ( 17.85669469915771757, 4.074154108294516049E-15, 2.500000000000000000 ) ) ;
#848 = DIRECTION ( 'NONE',  ( -1.000000000000000000, 0.000000000000000000, 0.000000000000000000 ) ) ;
#849 = EDGE_LOOP ( 'NONE', ( #1162, #460 ) ) ;
#850 = FACE_BOUND ( 'NONE', #1051, .T. ) ;
#851 = CIRCLE ( 'NONE', #954, 4.000000000000001776 ) ;
#852 = LINE ( 'NONE', #955, #753 ) ;
#853 = DIRECTION ( 'NONE',  ( 0.4955627776074905677, 0.8685721233437951883, 0.000000000000000000 ) ) ;
#854 = ORIENTED_EDGE ( 'NONE', *, *, #734, .F. ) ;
#855 = DIRECTION ( 'NONE',  ( -1.000000000000000000, 0.000000000000000000, 0.000000000000000000 ) ) ;
#856 = EDGE_CURVE ( 'NONE', #1262, #832, #523, .T. ) ;
#857 = DIRECTION ( 'NONE',  ( -0.000000000000000000, -0.000000000000000000, -1.000000000000000000 ) ) ;
#858 = CARTESIAN_POINT ( 'NONE',  ( -17.99999999999951683, -7.391838084833121769, 4.431101638721988145 ) ) ;
#859 = COORDINATED_UNIVERSAL_TIME_OFFSET ( 3, 0, .BEHIND. ) ;
#860 = EDGE_CURVE ( 'NONE', #762, #237, #626, .T. ) ;
#861 = ORIENTED_EDGE ( 'NONE', *, *, #445, .F. ) ;
#862 = LINE ( 'NONE', #1179, #1073 ) ;
#863 = VERTEX_POINT ( 'NONE', #838 ) ;
#864 = CARTESIAN_POINT ( 'NONE',  ( 8.823132837382037032E-15, -72.04634710616191740, 2.500000000000000000 ) ) ;
#865 = PRODUCT_DEFINITION_SHAPE ( 'NONE', 'NONE',  #812 ) ;
#866 = CARTESIAN_POINT ( 'NONE',  ( -17.73141547985574817, -8.421257567459724314, 4.499999983106745205 ) ) ;
#867 = ORIENTED_EDGE ( 'NONE', *, *, #671, .F. ) ;
#868 = CARTESIAN_POINT ( 'NONE',  ( -19.90410583797994448, -1.391830665836229608, 2.500000000000000000 ) ) ;
#869 = ORIENTED_EDGE ( 'NONE', *, *, #1241, .F. ) ;
#870 = AXIS2_PLACEMENT_3D ( 'NONE', #600, #725, #1194 ) ;
#871 = CIRCLE ( 'NONE', #831, 4.500000000000002665 ) ;
#872 = CARTESIAN_POINT ( 'NONE',  ( -19.85182279967736463, -2.139512947488258821, 2.500000000000000000 ) ) ;
#873 = EDGE_CURVE ( 'NONE', #1275, #287, #927, .T. ) ;
#874 = CARTESIAN_POINT ( 'NONE',  ( 17.92851370021585922, -6.649317483773139692, 4.479507949764093944 ) ) ;
#875 = ADVANCED_FACE ( 'NONE', ( #647 ), #529, .F. ) ;
#876 = SHAPE_DEFINITION_REPRESENTATION ( #865, #430 ) ;
#877 = EDGE_LOOP ( 'NONE', ( #1072, #1191, #189, #989, #70 ) ) ;
#878 = FACE_OUTER_BOUND ( 'NONE', #1225, .T. ) ;
#879 = AXIS2_PLACEMENT_3D ( 'NONE', #424, #636, #944 ) ;
#880 = CC_DESIGN_PERSON_AND_ORGANIZATION_ASSIGNMENT ( #1231, #546, ( #803 ) ) ;
#881 = EDGE_CURVE ( 'NONE', #360, #619, #1233, .T. ) ;
#882 = CARTESIAN_POINT ( 'NONE',  ( -17.97743564596784438, -7.686457135128517137, 2.896909493000769942 ) ) ;
#883 = VERTEX_POINT ( 'NONE', #51 ) ;
#884 = DIRECTION ( 'NONE',  ( 0.06975647374412920210, -0.9975640502598240866, 0.000000000000000000 ) ) ;
#885 = ORIENTED_EDGE ( 'NONE', *, *, #487, .T. ) ;
#886 = CARTESIAN_POINT ( 'NONE',  ( -2.311324531849125235E-31, 1.887339707627014958E-15, -2.500000000000000000 ) ) ;
#887 = FACE_OUTER_BOUND ( 'NONE', #1294, .T. ) ;
#888 = CARTESIAN_POINT ( 'NONE',  ( -18.00000000000073186, -7.103246922912237693, 4.440580506735787303 ) ) ;
#889 = ORIENTED_EDGE ( 'NONE', *, *, #950, .F. ) ;
#890 = CIRCLE ( 'NONE', #491, 1.749999999999994671 ) ;
#891 = DIRECTION ( 'NONE',  ( 1.000000000000000000, 1.224646799147353207E-16, 0.000000000000000000 ) ) ;
#892 = ORIENTED_EDGE ( 'NONE', *, *, #604, .T. ) ;
#893 = LINE ( 'NONE', #1095, #1201 ) ;
#894 = ORIENTED_EDGE ( 'NONE', *, *, #667, .T. ) ;
#895 = CYLINDRICAL_SURFACE ( 'NONE', #488, 1.749999999999994671 ) ;
#896 = AXIS2_PLACEMENT_3D ( 'NONE', #331, #829, #16 ) ;
#897 = CARTESIAN_POINT ( 'NONE',  ( -19.32709379002153938, -9.643487389790799114, 4.500000000000000888 ) ) ;
#898 = EDGE_LOOP ( 'NONE', ( #843, #367, #381, #605 ) ) ;
#899 = CARTESIAN_POINT ( 'NONE',  ( 13.00000000000000178, -7.276347106161925815, 11.00000000000000000 ) ) ;
#900 = EDGE_CURVE ( 'NONE', #82, #1039, #654, .T. ) ;
#901 = EDGE_LOOP ( 'NONE', ( #66, #447, #985 ) ) ;
#902 = LINE ( 'NONE', #1295, #486 ) ;
#903 = CARTESIAN_POINT ( 'NONE',  ( -19.61929103001761732, -5.464872179474732583, 4.500000000000000888 ) ) ;
#904 = ORIENTED_EDGE ( 'NONE', *, *, #451, .F. ) ;
#905 = DIRECTION ( 'NONE',  ( -0.000000000000000000, -0.000000000000000000, -1.000000000000000000 ) ) ;
#906 = EDGE_LOOP ( 'NONE', ( #582, #966, #885, #1255 ) ) ;
#907 = DIRECTION ( 'NONE',  ( 1.000000000000000000, 0.000000000000000000, 0.000000000000000000 ) ) ;
#908 = LINE ( 'NONE', #83, #1269 ) ;
#909 = AXIS2_PLACEMENT_3D ( 'NONE', #1017, #318, #907 ) ;
#910 = EDGE_CURVE ( 'NONE', #1089, #84, #86, .T. ) ;
#911 = ORIENTED_EDGE ( 'NONE', *, *, #111, .T. ) ;
#912 = LINE ( 'NONE', #1192, #49 ) ;
#913 = ORIENTED_EDGE ( 'NONE', *, *, #263, .T. ) ;
#914 = DIRECTION ( 'NONE',  ( -0.000000000000000000, 0.000000000000000000, 1.000000000000000000 ) ) ;
#915 = ADVANCED_FACE ( 'NONE', ( #1139, #1034 ), #134, .F. ) ;
#916 = TOROIDAL_SURFACE ( 'NONE', #155, 4.500000000000000888, 2.000000000000000000 ) ;
#917 = DIRECTION ( 'NONE',  ( 1.000000000000000000, 0.000000000000000000, 0.000000000000000000 ) ) ;
#918 = AXIS2_PLACEMENT_3D ( 'NONE', #746, #241, #643 ) ;
#919 = DIRECTION ( 'NONE',  ( 1.000000000000000000, 9.251858538542971828E-16, 0.000000000000000000 ) ) ;
#920 = DIRECTION ( 'NONE',  ( -1.000000000000000000, 0.000000000000000000, 0.000000000000000000 ) ) ;
#921 = ORIENTED_EDGE ( 'NONE', *, *, #276, .T. ) ;
#922 = CARTESIAN_POINT ( 'NONE',  ( 4.000000000000010658, -72.04634710616191740, 2.500000000000000000 ) ) ;
#923 = DIRECTION ( 'NONE',  ( 0.4955627776074905122, 0.8685721233437952993, 0.000000000000000000 ) ) ;
#924 = CARTESIAN_POINT ( 'NONE',  ( -13.74999999999999822, -7.276347106161928480, -0.5000000000000000000 ) ) ;
#925 = APPROVAL_STATUS ( 'not_yet_approved' ) ;
#926 = ORIENTED_EDGE ( 'NONE', *, *, #1024, .T. ) ;
#927 = LINE ( 'NONE', #548, #128 ) ;
#928 = DIRECTION ( 'NONE',  ( -0.06975647374412920210, 0.9975640502598240866, 0.000000000000000000 ) ) ;
#929 = AXIS2_PLACEMENT_3D ( 'NONE', #340, #743, #770 ) ;
#930 = PLANE ( 'NONE',  #879 ) ;
#931 = CARTESIAN_POINT ( 'NONE',  ( 15.50000000000000178, -7.276347106161925815, -0.5000000000000000000 ) ) ;
#932 = VECTOR ( 'NONE', #215, 1000.000000000000000 ) ;
#933 = ADVANCED_FACE ( 'NONE', ( #442 ), #844, .T. ) ;
#934 = EDGE_LOOP ( 'NONE', ( #653, #11, #150 ) ) ;
#935 = CARTESIAN_POINT ( 'NONE',  ( -15.49999999999999822, -7.276347106161928480, -0.5000000000000000000 ) ) ;
#936 = LINE ( 'NONE', #423, #772 ) ;
#937 = VECTOR ( 'NONE', #798, 1000.000000000000000 ) ;
#938 = CARTESIAN_POINT ( 'NONE',  ( 17.93612758230838367, -7.849391364358389467, 4.446054982266744560 ) ) ;
#939 = PERSON_AND_ORGANIZATION ( #18446744073709551615, #18446744073709551615 ) ;
#940 = EDGE_LOOP ( 'NONE', ( #87, #786, #1084, #771 ) ) ;
#941 = DIRECTION ( 'NONE',  ( -0.000000000000000000, 0.000000000000000000, -1.000000000000000000 ) ) ;
#942 = ADVANCED_FACE ( 'NONE', ( #1071 ), #1175, .T. ) ;
#943 = CARTESIAN_POINT ( 'NONE',  ( 17.24999999999999289, -7.276347106161925815, 2.500000000000000000 ) ) ;
#944 = DIRECTION ( 'NONE',  ( 0.06975647374412892454, 0.9975640502598240866, 0.000000000000000000 ) ) ;
#945 = APPROVAL_DATE_TIME ( #1237, #286 ) ;
#946 = ORIENTED_EDGE ( 'NONE', *, *, #1011, .T. ) ;
#947 = PLANE ( 'NONE',  #1242 ) ;
#948 = CARTESIAN_POINT ( 'NONE',  ( -3.999999999999993339, -72.04634710616191740, -2.500000000000000000 ) ) ;
#949 = CARTESIAN_POINT ( 'NONE',  ( 19.44769083491691575, -7.918869299196770406, 2.499999999999993339 ) ) ;
#950 = EDGE_CURVE ( 'NONE', #883, #1152, #170, .T. ) ;
#951 = CARTESIAN_POINT ( 'NONE',  ( -10.78857725240071375, -64.04634710616191740, 2.500000000000000000 ) ) ;
#952 = ORIENTED_EDGE ( 'NONE', *, *, #348, .T. ) ;
#953 = CARTESIAN_POINT ( 'NONE',  ( 8.694992273946206563E-15, -71.00000000000000000, 2.500000000000000000 ) ) ;
#954 = AXIS2_PLACEMENT_3D ( 'NONE', #965, #468, #1263 ) ;
#955 = CARTESIAN_POINT ( 'NONE',  ( 18.00000000000000355, -7.276347106161925815, 11.00000000000000000 ) ) ;
#956 = EDGE_CURVE ( 'NONE', #672, #1112, #168, .T. ) ;
#957 = CARTESIAN_POINT ( 'NONE',  ( -17.99745881986588714, -7.046004130132061505, 4.445351433601106628 ) ) ;
#958 = VERTEX_POINT ( 'NONE', #763 ) ;
#959 = AXIS2_PLACEMENT_3D ( 'NONE', #1291, #1086, #494 ) ;
#960 = DIRECTION ( 'NONE',  ( 0.000000000000000000, 0.000000000000000000, -1.000000000000000000 ) ) ;
#961 = CARTESIAN_POINT ( 'NONE',  ( -17.85669469915771757, -2.994746930404857380E-16, 2.500000000000000000 ) ) ;
#962 = CARTESIAN_POINT ( 'NONE',  ( 17.73138742961542391, -8.421302917919646802, 4.499999983999594555 ) ) ;
#963 =( BOUNDED_SURFACE ( )  B_SPLINE_SURFACE ( 3, 2, ( 
 ( #563, #774, #255 ),
 ( #968, #364, #866 ),
 ( #659, #473, #1172 ),
 ( #1260, #674, #1068 ),
 ( #477, #882, #1143 ),
 ( #644, #1043, #1150 ),
 ( #247, #649, #957 ),
 ( #1074, #593, #500 ),
 ( #994, #1006, #389 ),
 ( #792, #90, #1190 ) ),
 .UNSPECIFIED., .F., .F., .F. ) 
 B_SPLINE_SURFACE_WITH_KNOTS ( ( 4, 2, 2, 2, 4 ),
 ( 3, 3 ),
 ( 0.003888102701881776709, 0.004980535510575230876, 0.006072968319268684176, 0.007165401127962138343, 0.008257833936655592511 ),
 ( 0.000000000000000000, 1.000000000000000000 ),
 .UNSPECIFIED. ) 
 GEOMETRIC_REPRESENTATION_ITEM ( )  RATIONAL_B_SPLINE_SURFACE ( (
 ( 1.000000000000000000, 0.7071067811865475727, 1.000000000000000000),
 ( 1.000000000000000000, 0.7334426340254115440, 1.000000000000000000),
 ( 1.000000000000000000, 0.7556066299214513338, 1.000000000000000000),
 ( 1.000000000000000000, 0.7854744988634728697, 1.000000000000000000),
 ( 1.000000000000000000, 0.7932714538740279764, 1.000000000000000000),
 ( 1.000000000000000000, 0.7932673753160528474, 1.000000000000000000),
 ( 1.000000000000000000, 0.7853667967638670033, 1.000000000000000000),
 ( 1.000000000000000000, 0.7556608284337159587, 1.000000000000000000),
 ( 1.000000000000000000, 0.7334493157192010226, 1.000000000000000000),
 ( 1.000000000000000000, 0.7071067811865476838, 1.000000000000000000) ) ) 
 REPRESENTATION_ITEM ( '' )  SURFACE ( )  );
#964 = VERTEX_POINT ( 'NONE', #1076 ) ;
#965 = CARTESIAN_POINT ( 'NONE',  ( 8.823132837382037032E-15, -72.04634710616191740, -2.500000000000000000 ) ) ;
#966 = ORIENTED_EDGE ( 'NONE', *, *, #972, .T. ) ;
#967 = LINE ( 'NONE', #754, #536 ) ;
#968 = CARTESIAN_POINT ( 'NONE',  ( -19.34931704149680343, -9.325680087292862908, 2.500000000000000444 ) ) ;
#969 = APPROVAL ( #149, 'Coincidente' ) ;
#970 = ORIENTED_EDGE ( 'NONE', *, *, #638, .T. ) ;
#971 = DIRECTION ( 'NONE',  ( -1.000000000000000000, 0.000000000000000000, 0.000000000000000000 ) ) ;
#972 = EDGE_CURVE ( 'NONE', #1039, #419, #272, .T. ) ;
#973 = EDGE_LOOP ( 'NONE', ( #611, #854, #1270, #1176 ) ) ;
#974 = CIRCLE ( 'NONE', #632, 3.000000000000000888 ) ;
#975 = CIRCLE ( 'NONE', #387, 2.500000000000000444 ) ;
#976 = CARTESIAN_POINT ( 'NONE',  ( 19.42246603057951404, -8.279600807421768849, 2.499999999999926725 ) ) ;
#977 = ORIENTED_EDGE ( 'NONE', *, *, #526, .T. ) ;
#978 = CARTESIAN_POINT ( 'NONE',  ( -17.78849501667645328, -6.269972146891264586, 4.500000000000000888 ) ) ;
#979 = VECTOR ( 'NONE', #581, 999.9999999999998863 ) ;
#980 = EDGE_CURVE ( 'NONE', #1066, #1214, #1114, .T. ) ;
#981 = VECTOR ( 'NONE', #361, 1000.000000000000000 ) ;
#982 = LINE ( 'NONE', #281, #437 ) ;
#983 = ORIENTED_EDGE ( 'NONE', *, *, #1257, .F. ) ;
#984 = DIRECTION ( 'NONE',  ( -0.000000000000000000, 0.000000000000000000, 1.000000000000000000 ) ) ;
#985 = ORIENTED_EDGE ( 'NONE', *, *, #633, .F. ) ;
#986 = CARTESIAN_POINT ( 'NONE',  ( 4.000000000000010658, -72.04634710616191740, -2.500000000000000000 ) ) ;
#987 = ORIENTED_EDGE ( 'NONE', *, *, #1257, .T. ) ;
#988 = PLANE ( 'NONE',  #993 ) ;
#989 = ORIENTED_EDGE ( 'NONE', *, *, #1163, .T. ) ;
#990 = CARTESIAN_POINT ( 'NONE',  ( -17.85669469915771757, -2.000000000000000444, 2.500000000000000000 ) ) ;
#991 = UNCERTAINTY_MEASURE_WITH_UNIT (LENGTH_MEASURE( 1.000000000000000082E-05 ), #1118, 'distance_accuracy_value', 'NONE');
#992 = AXIS2_PLACEMENT_3D ( 'NONE', #250, #151, #379 ) ;
#993 = AXIS2_PLACEMENT_3D ( 'NONE', #1111, #1083, #809 ) ;
#994 = CARTESIAN_POINT ( 'NONE',  ( -19.59707678642089235, -5.782550663291394777, 2.500000000000000444 ) ) ;
#995 = ADVANCED_FACE ( 'NONE', ( #677 ), #610, .F. ) ;
#996 = FACE_BOUND ( 'NONE', #715, .T. ) ;
#997 = FACE_OUTER_BOUND ( 'NONE', #877, .T. ) ;
#998 = EDGE_LOOP ( 'NONE', ( #283, #106, #764, #64, #1009 ) ) ;
#999 = DIRECTION ( 'NONE',  ( 1.000000000000000000, 0.000000000000000000, -0.000000000000000000 ) ) ;
#1000 = CIRCLE ( 'NONE', #1208, 14.99999999999999822 ) ;
#1001 = DIRECTION ( 'NONE',  ( 0.4025499837082658350, 0.9153980066705821317, 0.000000000000000000 ) ) ;
#1002 = CARTESIAN_POINT ( 'NONE',  ( -15.49999999999999822, -7.276347106161928480, 2.500000000000000000 ) ) ;
#1003 = DIRECTION ( 'NONE',  ( -1.000000000000000000, -1.083397062725421613E-16, 0.000000000000000000 ) ) ;
#1004 = ORIENTED_EDGE ( 'NONE', *, *, #304, .F. ) ;
#1005 = FACE_BOUND ( 'NONE', #1138, .T. ) ;
#1006 = CARTESIAN_POINT ( 'NONE',  ( -17.83609684806729945, -6.378218563550278830, 2.643721414868113406 ) ) ;
#1007 = ORIENTED_EDGE ( 'NONE', *, *, #980, .T. ) ;
#1008 = DIRECTION ( 'NONE',  ( 1.000000000000000000, 0.000000000000000000, 0.000000000000000000 ) ) ;
#1009 = ORIENTED_EDGE ( 'NONE', *, *, #1163, .F. ) ;
#1010 = CARTESIAN_POINT ( 'NONE',  ( 15.50000000000000178, -7.276347106161925815, 2.500000000000000000 ) ) ;
#1011 = EDGE_CURVE ( 'NONE', #824, #414, #586, .T. ) ;
#1012 = CARTESIAN_POINT ( 'NONE',  ( 18.50000000000000355, -7.276347106161925815, -2.500000000000000000 ) ) ;
#1013 = AXIS2_PLACEMENT_3D ( 'NONE', #407, #914, #811 ) ;
#1014 = AXIS2_PLACEMENT_3D ( 'NONE', #302, #311, #1003 ) ;
#1015 = DIRECTION ( 'NONE',  ( -1.000000000000000000, 0.000000000000000000, 0.000000000000000000 ) ) ;
#1016 = ORIENTED_EDGE ( 'NONE', *, *, #451, .T. ) ;
#1017 = CARTESIAN_POINT ( 'NONE',  ( 8.823132837382037032E-15, -72.04634710616191740, 2.500000000000000000 ) ) ;
#1018 = DIRECTION ( 'NONE',  ( 0.000000000000000000, 0.000000000000000000, -1.000000000000000000 ) ) ;
#1019 = CARTESIAN_POINT ( 'NONE',  ( 19.59706777854175641, -5.782679481972741620, 2.500000000000000444 ) ) ;
#1020 = COORDINATED_UNIVERSAL_TIME_OFFSET ( 3, 0, .BEHIND. ) ;
#1021 = ORIENTED_EDGE ( 'NONE', *, *, #708, .F. ) ;
#1022 = CYLINDRICAL_SURFACE ( 'NONE', #384, 14.99999999999999822 ) ;
#1023 = DIRECTION ( 'NONE',  ( -1.000000000000000000, 0.000000000000000000, 0.000000000000000000 ) ) ;
#1024 = EDGE_CURVE ( 'NONE', #1251, #1262, #58, .T. ) ;
#1025 = CARTESIAN_POINT ( 'NONE',  ( 17.74865371723103635, -8.393387503456272825, 4.500000000000000000 ) ) ;
#1026 = DIRECTION ( 'NONE',  ( -1.000000000000000000, 0.000000000000000000, 0.000000000000000000 ) ) ;
#1027 = ORIENTED_EDGE ( 'NONE', *, *, #804, .T. ) ;
#1028 = DIRECTION ( 'NONE',  ( -0.000000000000000000, -0.000000000000000000, -1.000000000000000000 ) ) ;
#1029 = CARTESIAN_POINT ( 'NONE',  ( 15.50000000000000178, -7.276347106161925815, -2.500000000000000000 ) ) ;
#1030 = FACE_OUTER_BOUND ( 'NONE', #358, .T. ) ;
#1031 = EDGE_CURVE ( 'NONE', #1152, #863, #862, .T. ) ;
#1032 =( NAMED_UNIT ( * ) PLANE_ANGLE_UNIT ( ) SI_UNIT ( $, .RADIAN. ) );
#1033 = EDGE_LOOP ( 'NONE', ( #952, #264, #398, #970 ) ) ;
#1034 = FACE_OUTER_BOUND ( 'NONE', #555, .T. ) ;
#1035 = DIRECTION ( 'NONE',  ( 1.000000000000000000, 1.083397062725421490E-16, 0.000000000000000000 ) ) ;
#1036 = AXIS2_PLACEMENT_3D ( 'NONE', #732, #26, #1229 ) ;
#1037 = CARTESIAN_POINT ( 'NONE',  ( 19.61929103001761732, -5.464872179474723701, 2.500000000000000000 ) ) ;
#1038 = CARTESIAN_POINT ( 'NONE',  ( -19.85182279967736463, -2.139512947488258821, -2.500000000000000000 ) ) ;
#1039 = VERTEX_POINT ( 'NONE', #1160 ) ;
#1040 = CARTESIAN_POINT ( 'NONE',  ( 4.000000000000010658, -72.04634710616191740, 2.500000000000000000 ) ) ;
#1041 = CARTESIAN_POINT ( 'NONE',  ( -12.99999999999999822, -7.276347106161928480, 11.00000000000000000 ) ) ;
#1042 = EDGE_CURVE ( 'NONE', #287, #144, #366, .T. ) ;
#1043 = CARTESIAN_POINT ( 'NONE',  ( -18.01039758476127517, -7.214833782753198754, 2.896894984309142274 ) ) ;
#1044 = EDGE_LOOP ( 'NONE', ( #837, #441, #736, #1212 ) ) ;
#1045 = DIRECTION ( 'NONE',  ( 0.06975647374412920210, -0.9975640502598240866, 0.000000000000000000 ) ) ;
#1046 = EDGE_CURVE ( 'NONE', #57, #1180, #319, .T. ) ;
#1047 = CARTESIAN_POINT ( 'NONE',  ( -10.99999999999999822, -7.276347106161928480, 4.500000000000000888 ) ) ;
#1048 = CARTESIAN_POINT ( 'NONE',  ( 17.99769877062746559, -7.047555081180306047, 4.445221173038935270 ) ) ;
#1049 = APPROVAL_DATE_TIME ( #675, #969 ) ;
#1050 = AXIS2_PLACEMENT_3D ( 'NONE', #238, #1132, #855 ) ;
#1051 = EDGE_LOOP ( 'NONE', ( #983, #484 ) ) ;
#1052 = CARTESIAN_POINT ( 'NONE',  ( 15.50000000000000178, -7.276347106161925815, 2.500000000000000000 ) ) ;
#1053 = AXIS2_PLACEMENT_3D ( 'NONE', #10, #800, #114 ) ;
#1054 = ORIENTED_EDGE ( 'NONE', *, *, #789, .F. ) ;
#1055 = CARTESIAN_POINT ( 'NONE',  ( 15.50000000000000178, -7.276347106161925815, 11.00000000000000000 ) ) ;
#1056 = CARTESIAN_POINT ( 'NONE',  ( 19.57300221680266006, -6.126833048679946714, 2.500000000000016431 ) ) ;
#1057 = ORIENTED_EDGE ( 'NONE', *, *, #377, .F. ) ;
#1058 = AXIS2_PLACEMENT_3D ( 'NONE', #628, #344, #337 ) ;
#1059 = DIRECTION ( 'NONE',  ( -1.000000000000000000, 0.000000000000000000, 0.000000000000000000 ) ) ;
#1060 = DIRECTION ( 'NONE',  ( -0.000000000000000000, 0.000000000000000000, 1.000000000000000000 ) ) ;
#1061 = ADVANCED_FACE ( 'NONE', ( #386 ), #1256, .F. ) ;
#1062 = CARTESIAN_POINT ( 'NONE',  ( -17.99184645960527718, -7.508581128359574031, 4.431095190184091592 ) ) ;
#1063 = EDGE_CURVE ( 'NONE', #80, #1232, #108, .T. ) ;
#1064 = ORIENTED_EDGE ( 'NONE', *, *, #92, .F. ) ;
#1065 = CARTESIAN_POINT ( 'NONE',  ( 13.75000000000000711, -7.276347106161925815, -0.5000000000000000000 ) ) ;
#1066 = VERTEX_POINT ( 'NONE', #158 ) ;
#1067 = DIRECTION ( 'NONE',  ( 0.000000000000000000, 0.000000000000000000, -1.000000000000000000 ) ) ;
#1068 = CARTESIAN_POINT ( 'NONE',  ( -17.94154964229594640, -7.850525026055947819, 4.445221173038935270 ) ) ;
#1069 = EDGE_CURVE ( 'NONE', #565, #237, #851, .T. ) ;
#1070 = ORIENTED_EDGE ( 'NONE', *, *, #1121, .T. ) ;
#1071 = FACE_OUTER_BOUND ( 'NONE', #973, .T. ) ;
#1072 = ORIENTED_EDGE ( 'NONE', *, *, #910, .T. ) ;
#1073 = VECTOR ( 'NONE', #1276, 1000.000000000000000 ) ;
#1074 = CARTESIAN_POINT ( 'NONE',  ( -19.57289829623464783, -6.128319182038094226, 2.500000000000047073 ) ) ;
#1075 = ORIENTED_EDGE ( 'NONE', *, *, #667, .F. ) ;
#1076 = CARTESIAN_POINT ( 'NONE',  ( 17.85669469915771757, 4.074154108294516049E-15, 2.500000000000000000 ) ) ;
#1077 = CC_DESIGN_DATE_AND_TIME_ASSIGNMENT ( #532, #121, ( #812 ) ) ;
#1078 = VECTOR ( 'NONE', #891, 1000.000000000000000 ) ;
#1079 = VERTEX_POINT ( 'NONE', #1065 ) ;
#1080 = AXIS2_PLACEMENT_3D ( 'NONE', #1170, #1060, #767 ) ;
#1081 = LINE ( 'NONE', #300, #617 ) ;
#1082 = EDGE_LOOP ( 'NONE', ( #503, #710 ) ) ;
#1083 = DIRECTION ( 'NONE',  ( 0.000000000000000000, -1.000000000000000000, 0.000000000000000000 ) ) ;
#1084 = ORIENTED_EDGE ( 'NONE', *, *, #685, .F. ) ;
#1085 = EDGE_CURVE ( 'NONE', #1104, #229, #188, .T. ) ;
#1086 = DIRECTION ( 'NONE',  ( -0.000000000000000000, 0.000000000000000000, 1.000000000000000000 ) ) ;
#1087 = EDGE_LOOP ( 'NONE', ( #1054, #257, #1004, #289 ) ) ;
#1088 = DIRECTION ( 'NONE',  ( -0.000000000000000000, -0.000000000000000000, -1.000000000000000000 ) ) ;
#1089 = VERTEX_POINT ( 'NONE', #475 ) ;
#1090 = CARTESIAN_POINT ( 'NONE',  ( -15.49999999999999822, -7.276347106161928480, 11.00000000000000000 ) ) ;
#1091 = CIRCLE ( 'NONE', #212, 1.749999999999999778 ) ;
#1092 = APPROVAL_PERSON_ORGANIZATION ( #48, #286, #830 ) ;
#1093 = CARTESIAN_POINT ( 'NONE',  ( -15.49999999999999822, -7.276347106161928480, 2.500000000000000000 ) ) ;
#1094 = CYLINDRICAL_SURFACE ( 'NONE', #117, 1.749999999999999778 ) ;
#1095 = CARTESIAN_POINT ( 'NONE',  ( 12.51554955520196799, -64.04634710616191740, 2.500000000000000000 ) ) ;
#1096 = ADVANCED_FACE ( 'NONE', ( #878 ), #1272, .F. ) ;
#1097 = VERTEX_POINT ( 'NONE', #603 ) ;
#1098 = CARTESIAN_POINT ( 'NONE',  ( 15.50000000000000178, -7.276347106161925815, -0.5000000000000000000 ) ) ;
#1099 = EDGE_CURVE ( 'NONE', #1097, #244, #1091, .T. ) ;
#1100 = CIRCLE ( 'NONE', #640, 2.000000000000001776 ) ;
#1101 = AXIS2_PLACEMENT_3D ( 'NONE', #864, #443, #449 ) ;
#1102 = DIRECTION ( 'NONE',  ( -0.06975647374412896617, -0.9975640502598240866, 0.000000000000000000 ) ) ;
#1103 = CC_DESIGN_PERSON_AND_ORGANIZATION_ASSIGNMENT ( #167, #256, ( #634 ) ) ;
#1104 = VERTEX_POINT ( 'NONE', #490 ) ;
#1105 = EDGE_CURVE ( 'NONE', #1089, #824, #85, .T. ) ;
#1106 = CYLINDRICAL_SURFACE ( 'NONE', #343, 1.749999999999999778 ) ;
#1107 = EDGE_LOOP ( 'NONE', ( #793, #584, #501, #1007, #18 ) ) ;
#1108 = PLANE ( 'NONE',  #147 ) ;
#1109 = DIRECTION ( 'NONE',  ( 1.000000000000000000, 9.251858538542971828E-16, 0.000000000000000000 ) ) ;
#1110 = ORIENTED_EDGE ( 'NONE', *, *, #353, .T. ) ;
#1111 = CARTESIAN_POINT ( 'NONE',  ( 0.000000000000000000, -64.04634710616191740, 2.500000000000000000 ) ) ;
#1112 = VERTEX_POINT ( 'NONE', #1186 ) ;
#1113 = FACE_OUTER_BOUND ( 'NONE', #695, .T. ) ;
#1114 = B_SPLINE_CURVE_WITH_KNOTS ( 'NONE', 3,
 ( #978, #265, #483, #479, #888, #65 ),
 .UNSPECIFIED., .F., .F.,
 ( 4, 2, 4 ),
 ( 0.000000000000000000, 0.0005215423012416224146, 0.001043084602483244829 ),
 .UNSPECIFIED. ) ;
#1115 = CARTESIAN_POINT ( 'NONE',  ( -10.78857725240071375, -64.04634710616191740, 2.500000000000000000 ) ) ;
#1116 = AXIS2_PLACEMENT_3D ( 'NONE', #1090, #217, #999 ) ;
#1117 = DIRECTION ( 'NONE',  ( -1.000000000000000000, 0.000000000000000000, 0.000000000000000000 ) ) ;
#1118 =( LENGTH_UNIT ( ) NAMED_UNIT ( * ) SI_UNIT ( .MILLI., .METRE. ) );
#1119 = ORIENTED_EDGE ( 'NONE', *, *, #329, .T. ) ;
#1120 = FACE_BOUND ( 'NONE', #1082, .T. ) ;
#1121 = EDGE_CURVE ( 'NONE', #414, #704, #130, .T. ) ;
#1122 = TOROIDAL_SURFACE ( 'NONE', #959, 4.500000000000000888, 2.000000000000000000 ) ;
#1123 = CARTESIAN_POINT ( 'NONE',  ( 19.42850633384578884, -11.08491086094229061, -2.500000000000000000 ) ) ;
#1124 = CARTESIAN_POINT ( 'NONE',  ( -18.50000000000000355, -7.276347106161928480, -0.5000000000000000000 ) ) ;
#1125 = APPLICATION_PROTOCOL_DEFINITION ( 'international standard', 'config_control_design', 1994, #828 ) ;
#1126 = EDGE_LOOP ( 'NONE', ( #1075, #1178, #553, #913, #186, #977 ) ) ;
#1127 = DIRECTION ( 'NONE',  ( -0.8685721233437952993, 0.4955627776074905122, 0.000000000000000000 ) ) ;
#1128 = ADVANCED_FACE ( 'NONE', ( #411 ), #988, .F. ) ;
#1129 = LINE ( 'NONE', #635, #813 ) ;
#1130 = DIRECTION ( 'NONE',  ( 0.000000000000000000, -0.000000000000000000, -1.000000000000000000 ) ) ;
#1131 = ORIENTED_EDGE ( 'NONE', *, *, #172, .F. ) ;
#1132 = DIRECTION ( 'NONE',  ( 0.000000000000000000, 0.000000000000000000, -1.000000000000000000 ) ) ;
#1133 = CARTESIAN_POINT ( 'NONE',  ( 8.694992273946206563E-15, -71.00000000000000000, 2.500000000000000000 ) ) ;
#1134 = VECTOR ( 'NONE', #1219, 999.9999999999998863 ) ;
#1135 = CARTESIAN_POINT ( 'NONE',  ( 17.84231150315178738, -8.179655524558057778, 4.473404023818236652 ) ) ;
#1136 = DATE_AND_TIME ( #338, #450 ) ;
#1137 = CC_DESIGN_APPROVAL ( #286, ( #812 ) ) ;
#1138 = EDGE_LOOP ( 'NONE', ( #157, #750 ) ) ;
#1139 = FACE_BOUND ( 'NONE', #533, .T. ) ;
#1140 = ADVANCED_FACE ( 'NONE', ( #997 ), #589, .T. ) ;
#1141 = CARTESIAN_POINT ( 'NONE',  ( 13.75000000000000711, -7.276347106161925815, 2.500000000000000000 ) ) ;
#1142 = VECTOR ( 'NONE', #537, 1000.000000000000000 ) ;
#1143 = CARTESIAN_POINT ( 'NONE',  ( -17.97976009243872397, -7.653185610982797371, 4.431991185732838012 ) ) ;
#1144 = CARTESIAN_POINT ( 'NONE',  ( -12.70409954258696494, -61.34995666386175373, 2.500000000000000000 ) ) ;
#1145 = AXIS2_PLACEMENT_3D ( 'NONE', #557, #550, #1267 ) ;
#1146 = EDGE_CURVE ( 'NONE', #180, #883, #912, .T. ) ;
#1147 = ORIENTED_EDGE ( 'NONE', *, *, #1085, .F. ) ;
#1148 = CARTESIAN_POINT ( 'NONE',  ( 13.00000000000000178, -7.276347106161925815, 4.500000000000000888 ) ) ;
#1149 = CARTESIAN_POINT ( 'NONE',  ( 14.96346075389736363, -72.04634710616191740, 2.500000000000000000 ) ) ;
#1150 = CARTESIAN_POINT ( 'NONE',  ( -18.00807123380842967, -7.248132554774485925, 4.431997399425981143 ) ) ;
#1151 = COORDINATED_UNIVERSAL_TIME_OFFSET ( 3, 0, .BEHIND. ) ;
#1152 = VERTEX_POINT ( 'NONE', #1205 ) ;
#1153 = FACE_OUTER_BOUND ( 'NONE', #1166, .T. ) ;
#1154 = ORIENTED_EDGE ( 'NONE', *, *, #226, .F. ) ;
#1155 = DIRECTION ( 'NONE',  ( -0.06975647374412925761, 0.9975640502598240866, 0.000000000000000000 ) ) ;
#1156 = CARTESIAN_POINT ( 'NONE',  ( 15.77066689063235572, -17.49600046573700851, 2.500000000000000000 ) ) ;
#1157 = DATE_TIME_ROLE ( 'classification_date' ) ;
#1158 = VECTOR ( 'NONE', #787, 1000.000000000000000 ) ;
#1159 = ORIENTED_EDGE ( 'NONE', *, *, #204, .F. ) ;
#1160 = CARTESIAN_POINT ( 'NONE',  ( 18.50000000000000355, -7.276347106161925815, -0.5000000000000000000 ) ) ;
#1161 = AXIS2_PLACEMENT_3D ( 'NONE', #1293, #609, #397 ) ;
#1162 = ORIENTED_EDGE ( 'NONE', *, *, #426, .T. ) ;
#1163 = EDGE_CURVE ( 'NONE', #1180, #824, #724, .T. ) ;
#1164 = DIRECTION ( 'NONE',  ( 0.06975647374412920210, -0.9975640502598240866, 0.000000000000000000 ) ) ;
#1165 = CARTESIAN_POINT ( 'NONE',  ( 17.68836677979104266, -8.490856966021089747, 2.643721414866378794 ) ) ;
#1166 = EDGE_LOOP ( 'NONE', ( #266, #892, #894, #661, #309, #176 ) ) ;
#1167 = AXIS2_PLACEMENT_3D ( 'NONE', #1093, #274, #192 ) ;
#1168 = DIRECTION ( 'NONE',  ( 0.000000000000000000, 0.000000000000000000, -1.000000000000000000 ) ) ;
#1169 = ORIENTED_EDGE ( 'NONE', *, *, #141, .F. ) ;
#1170 = CARTESIAN_POINT ( 'NONE',  ( 17.85669469915771757, -1.999999999999996225, 2.500000000000000000 ) ) ;
#1171 = EDGE_CURVE ( 'NONE', #1079, #197, #7, .T. ) ;
#1172 = CARTESIAN_POINT ( 'NONE',  ( -17.81761391488340251, -8.235258301752072185, 4.479507949764093944 ) ) ;
#1173 = APPROVAL_DATE_TIME ( #1136, #519 ) ;
#1174 = ORIENTED_EDGE ( 'NONE', *, *, #1274, .F. ) ;
#1175 = CYLINDRICAL_SURFACE ( 'NONE', #827, 2.000000000000001776 ) ;
#1176 = ORIENTED_EDGE ( 'NONE', *, *, #111, .F. ) ;
#1177 = FACE_OUTER_BOUND ( 'NONE', #998, .T. ) ;
#1178 = ORIENTED_EDGE ( 'NONE', *, *, #734, .T. ) ;
#1179 = CARTESIAN_POINT ( 'NONE',  ( -0.000000000000000000, -64.04634710616191740, -2.500000000000000000 ) ) ;
#1180 = VERTEX_POINT ( 'NONE', #290 ) ;
#1181 = AXIS2_PLACEMENT_3D ( 'NONE', #461, #984, #71 ) ;
#1182 = CC_DESIGN_SECURITY_CLASSIFICATION ( #634, ( #363 ) ) ;
#1183 = ADVANCED_FACE ( 'NONE', ( #816 ), #105, .F. ) ;
#1184 = DIRECTION ( 'NONE',  ( -0.9153980066705820207, 0.4025499837082657795, 0.000000000000000000 ) ) ;
#1185 = VERTEX_POINT ( 'NONE', #285 ) ;
#1186 = CARTESIAN_POINT ( 'NONE',  ( -18.00000000000000000, -7.276347106161928480, 11.00000000000000000 ) ) ;
#1187 = ADVANCED_FACE ( 'NONE', ( #181 ), #1106, .F. ) ;
#1188 = VECTOR ( 'NONE', #315, 1000.000000000000000 ) ;
#1189 = ORIENTED_EDGE ( 'NONE', *, *, #368, .T. ) ;
#1190 = CARTESIAN_POINT ( 'NONE',  ( -17.78849501667645328, -6.269972146891265474, 4.500000000000000888 ) ) ;
#1191 = ORIENTED_EDGE ( 'NONE', *, *, #614, .T. ) ;
#1192 = CARTESIAN_POINT ( 'NONE',  ( 15.77066689063235572, -17.49600046573700851, 2.500000000000000000 ) ) ;
#1193 = ORIENTED_EDGE ( 'NONE', *, *, #856, .T. ) ;
#1194 = DIRECTION ( 'NONE',  ( -1.000000000000000000, 0.000000000000000000, 0.000000000000000000 ) ) ;
#1195 = DIRECTION ( 'NONE',  ( 0.5260311741397488694, -0.8504652866714533799, 0.000000000000000000 ) ) ;
#1196 = VERTEX_POINT ( 'NONE', #17 ) ;
#1197 = DIRECTION ( 'NONE',  ( -1.000000000000000000, 0.000000000000000000, 0.000000000000000000 ) ) ;
#1198 = ORIENTED_EDGE ( 'NONE', *, *, #226, .T. ) ;
#1199 = DIRECTION ( 'NONE',  ( 0.06975647374412925761, -0.9975640502598240866, 0.000000000000000000 ) ) ;
#1200 = CIRCLE ( 'NONE', #1013, 2.500000000000000444 ) ;
#1201 = VECTOR ( 'NONE', #99, 1000.000000000000000 ) ;
#1202 = EDGE_CURVE ( 'NONE', #122, #595, #690, .T. ) ;
#1203 = CARTESIAN_POINT ( 'NONE',  ( -15.49999999999999822, -7.276347106161928480, 11.00000000000000000 ) ) ;
#1204 = ORIENTED_EDGE ( 'NONE', *, *, #804, .F. ) ;
#1205 = CARTESIAN_POINT ( 'NONE',  ( 12.51554955520196799, -64.04634710616191740, -2.500000000000000000 ) ) ;
#1206 = EDGE_LOOP ( 'NONE', ( #639, #159, #9, #77 ) ) ;
#1207 = DIRECTION ( 'NONE',  ( -0.9975640502598240866, -0.06975647374412925761, 0.000000000000000000 ) ) ;
#1208 = AXIS2_PLACEMENT_3D ( 'NONE', #113, #1130, #919 ) ;
#1209 = AXIS2_PLACEMENT_3D ( 'NONE', #524, #119, #322 ) ;
#1210 = DIRECTION ( 'NONE',  ( 1.000000000000000000, 0.000000000000000000, 0.000000000000000000 ) ) ;
#1211 = EDGE_CURVE ( 'NONE', #704, #57, #871, .T. ) ;
#1212 = ORIENTED_EDGE ( 'NONE', *, *, #335, .T. ) ;
#1213 = DIRECTION ( 'NONE',  ( 1.000000000000000000, 0.000000000000000000, 0.000000000000000000 ) ) ;
#1214 = VERTEX_POINT ( 'NONE', #508 ) ;
#1215 = CARTESIAN_POINT ( 'NONE',  ( 19.32709379002153938, -9.643487389790799114, 2.500000000000000000 ) ) ;
#1216 = CARTESIAN_POINT ( 'NONE',  ( 17.62616321667863417, -8.591425041511298488, 4.500000000000000888 ) ) ;
#1217 = CARTESIAN_POINT ( 'NONE',  ( 17.78849501667645683, -6.269972146891257481, 2.500000000000003553 ) ) ;
#1218 = VERTEX_POINT ( 'NONE', #583 ) ;
#1219 = DIRECTION ( 'NONE',  ( -0.06975647374412925761, 0.9975640502598240866, 0.000000000000000000 ) ) ;
#1220 = AXIS2_PLACEMENT_3D ( 'NONE', #535, #941, #37 ) ;
#1221 = LINE ( 'NONE', #1123, #686 ) ;
#1222 = AXIS2_PLACEMENT_3D ( 'NONE', #243, #425, #848 ) ;
#1223 = PLANE ( 'NONE',  #1288 ) ;
#1224 = PERSON_AND_ORGANIZATION_ROLE ( 'creator' ) ;
#1225 = EDGE_LOOP ( 'NONE', ( #139, #480, #482, #810 ) ) ;
#1226 = CARTESIAN_POINT ( 'NONE',  ( -14.96346075389734764, -72.04634710616191740, -2.500000000000000000 ) ) ;
#1227 = EDGE_CURVE ( 'NONE', #1185, #1152, #893, .T. ) ;
#1228 = AXIS2_PLACEMENT_3D ( 'NONE', #41, #214, #234 ) ;
#1229 = DIRECTION ( 'NONE',  ( -1.000000000000000000, 0.000000000000000000, 0.000000000000000000 ) ) ;
#1230 = CARTESIAN_POINT ( 'NONE',  ( 17.99999999999918998, -7.391449569453505397, 4.431114399632133605 ) ) ;
#1231 = PERSON_AND_ORGANIZATION ( #18446744073709551615, #18446744073709551615 ) ;
#1232 = VERTEX_POINT ( 'NONE', #1287 ) ;
#1233 = LINE ( 'NONE', #334, #1283 ) ;
#1234 = CARTESIAN_POINT ( 'NONE',  ( -3.999999999999993339, -72.04634710616191740, 2.500000000000000000 ) ) ;
#1235 = DIRECTION ( 'NONE',  ( -0.000000000000000000, -0.000000000000000000, -1.000000000000000000 ) ) ;
#1236 = EDGE_CURVE ( 'NONE', #672, #683, #392, .T. ) ;
#1237 = DATE_AND_TIME ( #842, #109 ) ;
#1238 = ORIENTED_EDGE ( 'NONE', *, *, #141, .T. ) ;
#1239 = DIRECTION ( 'NONE',  ( -0.000000000000000000, -0.000000000000000000, -1.000000000000000000 ) ) ;
#1240 = CARTESIAN_POINT ( 'NONE',  ( 19.90410583797994448, -1.391830665836224723, -2.500000000000000000 ) ) ;
#1241 = EDGE_CURVE ( 'NONE', #23, #683, #975, .T. ) ;
#1242 = AXIS2_PLACEMENT_3D ( 'NONE', #454, #752, #44 ) ;
#1243 = DIRECTION ( 'NONE',  ( -0.000000000000000000, -0.000000000000000000, -1.000000000000000000 ) ) ;
#1244 = APPROVAL_PERSON_ORGANIZATION ( #650, #969, #660 ) ;
#1245 = ORIENTED_EDGE ( 'NONE', *, *, #63, .T. ) ;
#1246 = FACE_BOUND ( 'NONE', #36, .T. ) ;
#1247 = FACE_OUTER_BOUND ( 'NONE', #95, .T. ) ;
#1248 = AXIS2_PLACEMENT_3D ( 'NONE', #232, #1018, #1023 ) ;
#1249 = CARTESIAN_POINT ( 'NONE',  ( 18.01040169703020766, -7.215020641084291420, 2.896909493000216163 ) ) ;
#1250 = AXIS2_PLACEMENT_3D ( 'NONE', #142, #544, #203 ) ;
#1251 = VERTEX_POINT ( 'NONE', #440 ) ;
#1252 = CARTESIAN_POINT ( 'NONE',  ( 15.50000000000000178, -7.276347106161925815, 11.00000000000000000 ) ) ;
#1253 = LINE ( 'NONE', #1141, #305 ) ;
#1254 = CARTESIAN_POINT ( 'NONE',  ( 17.92515495170626494, -7.921509309519291442, 2.869562795583711523 ) ) ;
#1255 = ORIENTED_EDGE ( 'NONE', *, *, #63, .F. ) ;
#1256 = CYLINDRICAL_SURFACE ( 'NONE', #25, 1.749999999999994671 ) ;
#1257 = EDGE_CURVE ( 'NONE', #602, #419, #701, .T. ) ;
#1258 = EDGE_LOOP ( 'NONE', ( #904, #1147, #788, #1174 ) ) ;
#1259 = DIRECTION ( 'NONE',  ( -0.000000000000000000, -0.000000000000000000, -1.000000000000000000 ) ) ;
#1260 = CARTESIAN_POINT ( 'NONE',  ( -19.42265819450510378, -8.276852735249221382, 2.500000000000011102 ) ) ;
#1261 = AXIS2_PLACEMENT_3D ( 'NONE', #116, #19, #493 ) ;
#1262 = VERTEX_POINT ( 'NONE', #42 ) ;
#1263 = DIRECTION ( 'NONE',  ( 1.000000000000000000, 0.000000000000000000, 0.000000000000000000 ) ) ;
#1264 = CC_DESIGN_APPROVAL ( #519, ( #363 ) ) ;
#1265 = VERTEX_POINT ( 'NONE', #1038 ) ;
#1266 = EDGE_CURVE ( 'NONE', #374, #863, #721, .T. ) ;
#1267 = DIRECTION ( 'NONE',  ( 1.000000000000000000, 0.000000000000000000, 0.000000000000000000 ) ) ;
#1268 = CARTESIAN_POINT ( 'NONE',  ( -17.93634253690491676, -7.848550093232088187, 4.445990382371753924 ) ) ;
#1269 = VECTOR ( 'NONE', #1102, 999.9999999999998863 ) ;
#1270 = ORIENTED_EDGE ( 'NONE', *, *, #604, .F. ) ;
#1271 = VECTOR ( 'NONE', #342, 999.9999999999998863 ) ;
#1272 = CYLINDRICAL_SURFACE ( 'NONE', #320, 4.000000000000001776 ) ;
#1273 = CARTESIAN_POINT ( 'NONE',  ( 18.00807302095878271, -7.248291869467310633, 4.431991185732996108 ) ) ;
#1274 = EDGE_CURVE ( 'NONE', #197, #1079, #890, .T. ) ;
#1275 = VERTEX_POINT ( 'NONE', #1144 ) ;
#1276 = DIRECTION ( 'NONE',  ( -1.000000000000000000, 0.000000000000000000, 0.000000000000000000 ) ) ;
#1277 = VERTEX_POINT ( 'NONE', #236 ) ;
#1278 = LINE ( 'NONE', #481, #790 ) ;
#1279 = EDGE_CURVE ( 'NONE', #360, #76, #431, .T. ) ;
#1280 = ORIENTED_EDGE ( 'NONE', *, *, #1085, .T. ) ;
#1281 = DIRECTION ( 'NONE',  ( 1.000000000000000000, 0.000000000000000000, 0.000000000000000000 ) ) ;
#1282 = ORIENTED_EDGE ( 'NONE', *, *, #59, .T. ) ;
#1283 = VECTOR ( 'NONE', #737, 1000.000000000000000 ) ;
#1284 = VECTOR ( 'NONE', #418, 1000.000000000000000 ) ;
#1285 = CARTESIAN_POINT ( 'NONE',  ( -12.70409954258696494, -61.34995666386175373, -2.500000000000000000 ) ) ;
#1286 = ORIENTED_EDGE ( 'NONE', *, *, #466, .F. ) ;
#1287 = CARTESIAN_POINT ( 'NONE',  ( -17.24999999999999645, -7.276347106161928480, -0.5000000000000000000 ) ) ;
#1288 = AXIS2_PLACEMENT_3D ( 'NONE', #439, #521, #323 ) ;
#1289 = ORIENTED_EDGE ( 'NONE', *, *, #1202, .T. ) ;
#1290 = DIRECTION ( 'NONE',  ( 0.000000000000000000, 0.000000000000000000, -1.000000000000000000 ) ) ;
#1291 = CARTESIAN_POINT ( 'NONE',  ( 15.50000000000000178, -7.276347106161925815, 4.500000000000000888 ) ) ;
#1292 = PLANE ( 'NONE',  #218 ) ;
#1293 = CARTESIAN_POINT ( 'NONE',  ( 15.50000000000000178, -7.276347106161925815, 4.500000000000000888 ) ) ;
#1294 = EDGE_LOOP ( 'NONE', ( #365, #291, #1154, #528, #474, #280, #489, #1193, #784, #646, #133 ) ) ;
#1295 = CARTESIAN_POINT ( 'NONE',  ( 19.85182279967736463, -2.139512947488254380, 2.500000000000000000 ) ) ;
#1296 = ADVANCED_FACE ( 'NONE', ( #637 ), #345, .F. ) ;
#1297 = DIRECTION ( 'NONE',  ( -0.000000000000000000, -0.000000000000000000, -1.000000000000000000 ) ) ;
ENDSEC;
END-ISO-10303-21;
