ISO-10303-21;
HEADER;
FILE_DESCRIPTION (( 'STEP AP203' ),
    '1' );
FILE_NAME ('hexagon_nut_M4_plain.STEP',
    '2026-09-14T13:32:39',
    ( '' ),
    ( '' ),
    'SwSTEP 2.0',
    'SolidWorks 2026',
    '' );
FILE_SCHEMA (( 'CONFIG_CONTROL_DESIGN' ));
ENDSEC;

DATA;
#1 = DESIGN_CONTEXT ( 'detailed design', #245, 'design' ) ;
#2 = ORIENTED_EDGE ( 'NONE', *, *, #316, .T. ) ;
#3 = COORDINATED_UNIVERSAL_TIME_OFFSET ( 3, 0, .BEHIND. ) ;
#4 = VECTOR ( 'NONE', #374, 1000.000000000000000 ) ;
#5 = VERTEX_POINT ( 'NONE', #299 ) ;
#6 = ORIENTED_EDGE ( 'NONE', *, *, #248, .T. ) ;
#7 = ADVANCED_BREP_SHAPE_REPRESENTATION ( 'hexagon_nut_M4_plain', ( #30, #279 ), #131 ) ;
#8 = EDGE_LOOP ( 'NONE', ( #375, #236, #113, #73 ) ) ;
#9 = DIRECTION ( 'NONE',  ( 0.000000000000000000, 0.000000000000000000, 1.000000000000000000 ) ) ;
#10 = VECTOR ( 'NONE', #78, 1000.000000000000114 ) ;
#11 = EDGE_LOOP ( 'NONE', ( #173, #203, #122, #207, #118, #351 ) ) ;
#12 = EDGE_CURVE ( 'NONE', #328, #76, #128, .T. ) ;
#13 = DIRECTION ( 'NONE',  ( -0.8660254037843289066, 0.5000000000001899592, 0.000000000000000000 ) ) ;
#14 = CYLINDRICAL_SURFACE ( 'NONE', #66, 2.100000000000000089 ) ;
#15 = EDGE_CURVE ( 'NONE', #55, #175, #186, .T. ) ;
#16 = DIRECTION ( 'NONE',  ( -0.8660254037843289066, -0.5000000000001899592, 0.000000000000000000 ) ) ;
#17 = DIRECTION ( 'NONE',  ( -1.098835820790999913E-16, 1.000000000000000000, 0.000000000000000000 ) ) ;
#18 = DIRECTION ( 'NONE',  ( -3.296507462372000475E-16, -1.000000000000000000, 0.000000000000000000 ) ) ;
#19 = VECTOR ( 'NONE', #183, 1000.000000000000114 ) ;
#20 = DIRECTION ( 'NONE',  ( -1.098835820790999913E-16, 1.000000000000000000, 0.000000000000000000 ) ) ;
#21 = CARTESIAN_POINT ( 'NONE',  ( 2.474675557025000149E-16, 4.041451884326999533, -3.200000000000000178 ) ) ;
#22 = PERSON_AND_ORGANIZATION_ROLE ( 'design_owner' ) ;
#23 = ORIENTED_EDGE ( 'NONE', *, *, #116, .F. ) ;
#24 = EDGE_CURVE ( 'NONE', #149, #5, #332, .T. ) ;
#25 = CIRCLE ( 'NONE', #201, 2.100000000000000089 ) ;
#26 = DIRECTION ( 'NONE',  ( 0.000000000000000000, 0.000000000000000000, 1.000000000000000000 ) ) ;
#27 = ORIENTED_EDGE ( 'NONE', *, *, #100, .F. ) ;
#28 = DIRECTION ( 'NONE',  ( 0.000000000000000000, 0.000000000000000000, 1.000000000000000000 ) ) ;
#29 = ORIENTED_EDGE ( 'NONE', *, *, #12, .T. ) ;
#30 = MANIFOLD_SOLID_BREP ( 'c61ec2c7dab3[1]', #355 ) ;
#31 = PERSON_AND_ORGANIZATION ( #18446744073709551615, #18446744073709551615 ) ;
#32 = ORIENTED_EDGE ( 'NONE', *, *, #93, .T. ) ;
#33 = EDGE_CURVE ( 'NONE', #171, #347, #185, .T. ) ;
#34 = PERSON_AND_ORGANIZATION ( #18446744073709551615, #18446744073709551615 ) ;
#35 = AXIS2_PLACEMENT_3D ( 'NONE', #308, #339, #134 ) ;
#36 = ORIENTED_EDGE ( 'NONE', *, *, #226, .F. ) ;
#37 = CARTESIAN_POINT ( 'NONE',  ( 3.500000000000000000, -2.020725942163999811, 0.000000000000000000 ) ) ;
#38 = CARTESIAN_POINT ( 'NONE',  ( 2.474675557025000149E-16, 4.041451884326999533, 0.000000000000000000 ) ) ;
#39 = PRODUCT_RELATED_PRODUCT_CATEGORY ( 'detail', '', ( #182 ) ) ;
#40 = APPROVAL_ROLE ( '' ) ;
#41 = DIRECTION ( 'NONE',  ( 0.000000000000000000, 0.000000000000000000, -1.000000000000000000 ) ) ;
#42 = VECTOR ( 'NONE', #17, 1000.000000000000000 ) ;
#43 = SHAPE_DEFINITION_REPRESENTATION ( #334, #7 ) ;
#44 = LINE ( 'NONE', #210, #237 ) ;
#45 = CARTESIAN_POINT ( 'NONE',  ( 3.500000000000000000, 2.020725942163999811, -3.200000000000000178 ) ) ;
#46 = PLANE ( 'NONE',  #232 ) ;
#47 = EDGE_CURVE ( 'NONE', #328, #171, #239, .T. ) ;
#48 = LOCAL_TIME ( 10, 32, 39.00000000000000000, #3 ) ;
#49 = CARTESIAN_POINT ( 'NONE',  ( 2.474675557025000149E-16, 4.041451884326999533, 0.000000000000000000 ) ) ;
#50 = DIRECTION ( 'NONE',  ( -1.000000000000000000, 0.000000000000000000, 0.000000000000000000 ) ) ;
#51 = ADVANCED_FACE ( 'NONE', ( #129 ), #302, .T. ) ;
#52 = DIRECTION ( 'NONE',  ( 1.000000000000000000, 1.098835820790999913E-16, 0.000000000000000000 ) ) ;
#53 = PRODUCT_DEFINITION_FORMATION_WITH_SPECIFIED_SOURCE ( 'Simétric', '', #182, .NOT_KNOWN. ) ;
#54 = DIRECTION ( 'NONE',  ( 0.000000000000000000, 0.000000000000000000, 1.000000000000000000 ) ) ;
#55 = VERTEX_POINT ( 'NONE', #99 ) ;
#56 = ADVANCED_FACE ( 'NONE', ( #211 ), #265, .T. ) ;
#57 = EDGE_LOOP ( 'NONE', ( #167, #373 ) ) ;
#58 = AXIS2_PLACEMENT_3D ( 'NONE', #135, #275, #191 ) ;
#59 = CARTESIAN_POINT ( 'NONE',  ( -3.500000000000000000, -2.020725942163999811, -3.200000000000000178 ) ) ;
#60 = VERTEX_POINT ( 'NONE', #272 ) ;
#61 = CALENDAR_DATE ( 2026, 14, 9 ) ;
#62 = ORIENTED_EDGE ( 'NONE', *, *, #33, .T. ) ;
#63 = EDGE_CURVE ( 'NONE', #92, #328, #44, .T. ) ;
#64 = ORIENTED_EDGE ( 'NONE', *, *, #47, .F. ) ;
#65 = PERSON_AND_ORGANIZATION_ROLE ( 'classification_officer' ) ;
#66 = AXIS2_PLACEMENT_3D ( 'NONE', #104, #238, #296 ) ;
#67 = ORIENTED_EDGE ( 'NONE', *, *, #133, .T. ) ;
#68 = PERSON_AND_ORGANIZATION_ROLE ( 'design_supplier' ) ;
#69 = LINE ( 'NONE', #101, #295 ) ;
#70 = CARTESIAN_POINT ( 'NONE',  ( 3.500000000000000000, 2.020725942163999811, 0.000000000000000000 ) ) ;
#71 = ORIENTED_EDGE ( 'NONE', *, *, #316, .F. ) ;
#72 = COORDINATED_UNIVERSAL_TIME_OFFSET ( 3, 0, .BEHIND. ) ;
#73 = ORIENTED_EDGE ( 'NONE', *, *, #273, .F. ) ;
#74 = CARTESIAN_POINT ( 'NONE',  ( 0.000000000000000000, 0.000000000000000000, 0.000000000000000000 ) ) ;
#75 = CARTESIAN_POINT ( 'NONE',  ( -2.100000000000000089, 0.000000000000000000, -3.200000000000000178 ) ) ;
#76 = VERTEX_POINT ( 'NONE', #127 ) ;
#77 = APPROVAL_PERSON_ORGANIZATION ( #31, #220, #293 ) ;
#78 = DIRECTION ( 'NONE',  ( -0.8660254037843289066, -0.5000000000001899592, 0.000000000000000000 ) ) ;
#79 = CC_DESIGN_PERSON_AND_ORGANIZATION_ASSIGNMENT ( #123, #68, ( #53 ) ) ;
#80 = PLANE ( 'NONE',  #168 ) ;
#81 = CARTESIAN_POINT ( 'NONE',  ( -3.500000000000000000, -2.020725942163999811, 0.000000000000000000 ) ) ;
#82 = UNCERTAINTY_MEASURE_WITH_UNIT (LENGTH_MEASURE( 1.000000000000000082E-05 ), #288, 'distance_accuracy_value', 'NONE');
#83 = AXIS2_PLACEMENT_3D ( 'NONE', #165, #317, #204 ) ;
#84 = CALENDAR_DATE ( 2026, 14, 9 ) ;
#85 = ORIENTED_EDGE ( 'NONE', *, *, #116, .T. ) ;
#86 = ORIENTED_EDGE ( 'NONE', *, *, #133, .F. ) ;
#87 = VECTOR ( 'NONE', #95, 1000.000000000000000 ) ;
#88 = ORIENTED_EDGE ( 'NONE', *, *, #284, .F. ) ;
#89 = APPROVAL_DATE_TIME ( #228, #220 ) ;
#90 = ORIENTED_EDGE ( 'NONE', *, *, #100, .T. ) ;
#91 = CALENDAR_DATE ( 2026, 14, 9 ) ;
#92 = VERTEX_POINT ( 'NONE', #330 ) ;
#93 = EDGE_CURVE ( 'NONE', #60, #145, #181, .T. ) ;
#94 = AXIS2_PLACEMENT_3D ( 'NONE', #159, #250, #370 ) ;
#95 = DIRECTION ( 'NONE',  ( 0.000000000000000000, 0.000000000000000000, -1.000000000000000000 ) ) ;
#96 = ADVANCED_FACE ( 'NONE', ( #327 ), #14, .F. ) ;
#97 = LINE ( 'NONE', #70, #19 ) ;
#98 = DATE_TIME_ROLE ( 'classification_date' ) ;
#99 = CARTESIAN_POINT ( 'NONE',  ( 3.500000000000000000, 2.020725942163999811, -3.200000000000000178 ) ) ;
#100 = EDGE_CURVE ( 'NONE', #76, #264, #69, .T. ) ;
#101 = CARTESIAN_POINT ( 'NONE',  ( 3.500000000000000000, -2.020725942163999811, 0.000000000000000000 ) ) ;
#102 = APPROVAL_PERSON_ORGANIZATION ( #240, #305, #40 ) ;
#103 = CC_DESIGN_PERSON_AND_ORGANIZATION_ASSIGNMENT ( #117, #22, ( #182 ) ) ;
#104 = CARTESIAN_POINT ( 'NONE',  ( 0.000000000000000000, 0.000000000000000000, 0.000000000000000000 ) ) ;
#105 = PLANE ( 'NONE',  #35 ) ;
#106 = FACE_OUTER_BOUND ( 'NONE', #289, .T. ) ;
#107 = CC_DESIGN_PERSON_AND_ORGANIZATION_ASSIGNMENT ( #206, #324, ( #53 ) ) ;
#108 = CARTESIAN_POINT ( 'NONE',  ( 3.500000000000000000, -2.020725942163999811, 0.000000000000000000 ) ) ;
#109 = DIRECTION ( 'NONE',  ( 0.000000000000000000, 0.000000000000000000, -1.000000000000000000 ) ) ;
#110 = COORDINATED_UNIVERSAL_TIME_OFFSET ( 3, 0, .BEHIND. ) ;
#111 = VECTOR ( 'NONE', #357, 1000.000000000000000 ) ;
#112 = APPLICATION_PROTOCOL_DEFINITION ( 'international standard', 'config_control_design', 1994, #163 ) ;
#113 = ORIENTED_EDGE ( 'NONE', *, *, #24, .F. ) ;
#114 = CARTESIAN_POINT ( 'NONE',  ( 3.500000000000000000, -2.020725942163999811, -3.200000000000000178 ) ) ;
#115 = ORIENTED_EDGE ( 'NONE', *, *, #93, .F. ) ;
#116 = EDGE_CURVE ( 'NONE', #76, #347, #325, .T. ) ;
#117 = PERSON_AND_ORGANIZATION ( #18446744073709551615, #18446744073709551615 ) ;
#118 = ORIENTED_EDGE ( 'NONE', *, *, #190, .F. ) ;
#119 = EDGE_CURVE ( 'NONE', #178, #175, #298, .T. ) ;
#120 = AXIS2_PLACEMENT_3D ( 'NONE', #267, #209, #9 ) ;
#121 =( NAMED_UNIT ( * ) SI_UNIT ( $, .STERADIAN. ) SOLID_ANGLE_UNIT ( ) );
#122 = ORIENTED_EDGE ( 'NONE', *, *, #318, .F. ) ;
#123 = PERSON_AND_ORGANIZATION ( #18446744073709551615, #18446744073709551615 ) ;
#124 = ORIENTED_EDGE ( 'NONE', *, *, #179, .T. ) ;
#125 = ORIENTED_EDGE ( 'NONE', *, *, #176, .T. ) ;
#126 = LOCAL_TIME ( 10, 32, 39.00000000000000000, #180 ) ;
#127 = CARTESIAN_POINT ( 'NONE',  ( 3.500000000000000000, -2.020725942163999811, 0.000000000000000000 ) ) ;
#128 = LINE ( 'NONE', #244, #337 ) ;
#129 = FACE_OUTER_BOUND ( 'NONE', #8, .T. ) ;
#130 = DIRECTION ( 'NONE',  ( 0.000000000000000000, 0.000000000000000000, 1.000000000000000000 ) ) ;
#131 =( GEOMETRIC_REPRESENTATION_CONTEXT ( 3 ) GLOBAL_UNCERTAINTY_ASSIGNED_CONTEXT ( ( #82 ) ) GLOBAL_UNIT_ASSIGNED_CONTEXT ( ( #288, #282, #121 ) ) REPRESENTATION_CONTEXT ( 'NONE', 'WORKASPACE' ) );
#132 = CARTESIAN_POINT ( 'NONE',  ( 0.000000000000000000, 0.000000000000000000, 0.000000000000000000 ) ) ;
#133 = EDGE_CURVE ( 'NONE', #264, #178, #97, .T. ) ;
#134 = DIRECTION ( 'NONE',  ( 0.000000000000000000, 0.000000000000000000, -1.000000000000000000 ) ) ;
#135 = CARTESIAN_POINT ( 'NONE',  ( 0.000000000000000000, 0.000000000000000000, -3.200000000000000178 ) ) ;
#136 = AXIS2_PLACEMENT_3D ( 'NONE', #197, #28, #222 ) ;
#137 = LINE ( 'NONE', #310, #300 ) ;
#138 = FACE_OUTER_BOUND ( 'NONE', #320, .T. ) ;
#139 = DIRECTION ( 'NONE',  ( 0.8660254037843289066, -0.5000000000001899592, 0.000000000000000000 ) ) ;
#140 = ORIENTED_EDGE ( 'NONE', *, *, #12, .F. ) ;
#141 = VECTOR ( 'NONE', #365, 1000.000000000000000 ) ;
#142 = DIRECTION ( 'NONE',  ( 1.000000000000000000, 0.000000000000000000, 0.000000000000000000 ) ) ;
#143 = ORIENTED_EDGE ( 'NONE', *, *, #47, .T. ) ;
#144 = DIRECTION ( 'NONE',  ( 0.000000000000000000, 0.000000000000000000, -1.000000000000000000 ) ) ;
#145 = VERTEX_POINT ( 'NONE', #156 ) ;
#146 = EDGE_LOOP ( 'NONE', ( #143, #62, #23, #140 ) ) ;
#147 = CC_DESIGN_SECURITY_CLASSIFICATION ( #262, ( #53 ) ) ;
#148 = PERSON_AND_ORGANIZATION_ROLE ( 'creator' ) ;
#149 = VERTEX_POINT ( 'NONE', #367 ) ;
#150 = DIRECTION ( 'NONE',  ( 0.000000000000000000, 0.000000000000000000, -1.000000000000000000 ) ) ;
#151 = EDGE_LOOP ( 'NONE', ( #321, #32, #6, #71 ) ) ;
#152 = CARTESIAN_POINT ( 'NONE',  ( 2.474675557025000149E-16, 4.041451884326999533, 0.000000000000000000 ) ) ;
#153 = ADVANCED_FACE ( 'NONE', ( #252 ), #221, .T. ) ;
#154 = ORIENTED_EDGE ( 'NONE', *, *, #63, .F. ) ;
#155 = CARTESIAN_POINT ( 'NONE',  ( -3.500000000000000000, 2.020725942163999811, 0.000000000000000000 ) ) ;
#156 = CARTESIAN_POINT ( 'NONE',  ( 2.100000000000000089, 2.571758278209441464E-16, -3.200000000000000178 ) ) ;
#157 = VECTOR ( 'NONE', #358, 1000.000000000000114 ) ;
#158 = CARTESIAN_POINT ( 'NONE',  ( -3.500000000000000000, 2.020725942163999811, -3.200000000000000178 ) ) ;
#159 = CARTESIAN_POINT ( 'NONE',  ( 3.500000000000000000, 2.020725942163999811, 0.000000000000000000 ) ) ;
#160 = LINE ( 'NONE', #340, #195 ) ;
#161 = LOCAL_TIME ( 10, 32, 39.00000000000000000, #110 ) ;
#162 = ADVANCED_FACE ( 'NONE', ( #281, #194 ), #80, .F. ) ;
#163 = APPLICATION_CONTEXT ( 'configuration controlled 3d designs of mechanical parts and assemblies' ) ;
#164 = DIRECTION ( 'NONE',  ( 1.000000000000000000, 0.000000000000000000, 0.000000000000000000 ) ) ;
#165 = CARTESIAN_POINT ( 'NONE',  ( 0.000000000000000000, 0.000000000000000000, 0.000000000000000000 ) ) ;
#166 = ORIENTED_EDGE ( 'NONE', *, *, #318, .T. ) ;
#167 = ORIENTED_EDGE ( 'NONE', *, *, #284, .T. ) ;
#168 = AXIS2_PLACEMENT_3D ( 'NONE', #338, #54, #164 ) ;
#169 = ADVANCED_FACE ( 'NONE', ( #251 ), #105, .T. ) ;
#170 = CARTESIAN_POINT ( 'NONE',  ( -2.100000000000000089, 0.000000000000000000, 0.000000000000000000 ) ) ;
#171 = VERTEX_POINT ( 'NONE', #312 ) ;
#172 = DATE_AND_TIME ( #61, #48 ) ;
#173 = ORIENTED_EDGE ( 'NONE', *, *, #223, .F. ) ;
#174 = MECHANICAL_CONTEXT ( 'NONE', #163, 'mechanical' ) ;
#175 = VERTEX_POINT ( 'NONE', #21 ) ;
#176 = EDGE_CURVE ( 'NONE', #264, #55, #247, .T. ) ;
#177 = APPROVAL_STATUS ( 'not_yet_approved' ) ;
#178 = VERTEX_POINT ( 'NONE', #49 ) ;
#179 = EDGE_CURVE ( 'NONE', #5, #235, #187, .T. ) ;
#180 = COORDINATED_UNIVERSAL_TIME_OFFSET ( 3, 0, .BEHIND. ) ;
#181 = LINE ( 'NONE', #361, #218 ) ;
#182 = PRODUCT ( 'hexagon_nut_M4_plain', 'hexagon_nut_M4_plain', '', ( #174 ) ) ;
#183 = DIRECTION ( 'NONE',  ( -0.8660254037843289066, 0.5000000000001899592, 0.000000000000000000 ) ) ;
#184 = APPROVAL_DATE_TIME ( #172, #369 ) ;
#185 = LINE ( 'NONE', #304, #157 ) ;
#186 = LINE ( 'NONE', #45, #249 ) ;
#187 = LINE ( 'NONE', #158, #189 ) ;
#188 = CARTESIAN_POINT ( 'NONE',  ( 3.500000000000000000, 2.020725942163999811, 0.000000000000000000 ) ) ;
#189 = VECTOR ( 'NONE', #18, 1000.000000000000000 ) ;
#190 = EDGE_CURVE ( 'NONE', #175, #5, #364, .T. ) ;
#191 = DIRECTION ( 'NONE',  ( -1.000000000000000000, 0.000000000000000000, 0.000000000000000000 ) ) ;
#192 = CARTESIAN_POINT ( 'NONE',  ( 2.474675557025000149E-16, 4.041451884326999533, -3.200000000000000178 ) ) ;
#193 = ADVANCED_FACE ( 'NONE', ( #138 ), #309, .T. ) ;
#194 = FACE_OUTER_BOUND ( 'NONE', #11, .T. ) ;
#195 = VECTOR ( 'NONE', #16, 1000.000000000000114 ) ;
#196 = DATE_TIME_ROLE ( 'creation_date' ) ;
#197 = CARTESIAN_POINT ( 'NONE',  ( -1.831393034651000058E-16, -3.662786069302000609E-17, 0.000000000000000000 ) ) ;
#198 = EDGE_LOOP ( 'NONE', ( #261, #352 ) ) ;
#199 = CARTESIAN_POINT ( 'NONE',  ( 0.000000000000000000, 0.000000000000000000, -3.200000000000000178 ) ) ;
#200 = EDGE_LOOP ( 'NONE', ( #283, #124, #36, #229 ) ) ;
#201 = AXIS2_PLACEMENT_3D ( 'NONE', #199, #144, #285 ) ;
#202 = APPROVAL_ROLE ( '' ) ;
#203 = ORIENTED_EDGE ( 'NONE', *, *, #33, .F. ) ;
#204 = DIRECTION ( 'NONE',  ( -1.000000000000000000, 0.000000000000000000, 0.000000000000000000 ) ) ;
#205 = ORIENTED_EDGE ( 'NONE', *, *, #336, .T. ) ;
#206 = PERSON_AND_ORGANIZATION ( #18446744073709551615, #18446744073709551615 ) ;
#207 = ORIENTED_EDGE ( 'NONE', *, *, #179, .F. ) ;
#208 = APPROVAL_PERSON_ORGANIZATION ( #346, #369, #202 ) ;
#209 = DIRECTION ( 'NONE',  ( -1.000000000000000000, 3.296507462372000475E-16, 0.000000000000000000 ) ) ;
#210 = CARTESIAN_POINT ( 'NONE',  ( -3.500000000000000000, -2.020725942163999811, 0.000000000000000000 ) ) ;
#211 = FACE_OUTER_BOUND ( 'NONE', #200, .T. ) ;
#212 = DATE_AND_TIME ( #301, #342 ) ;
#213 = VECTOR ( 'NONE', #322, 1000.000000000000000 ) ;
#214 = DIRECTION ( 'NONE',  ( -1.098835820790999913E-16, 1.000000000000000000, 0.000000000000000000 ) ) ;
#215 = LINE ( 'NONE', #333, #42 ) ;
#216 = CARTESIAN_POINT ( 'NONE',  ( 3.500000000000000000, 2.020725942163999811, 0.000000000000000000 ) ) ;
#217 = CYLINDRICAL_SURFACE ( 'NONE', #224, 2.100000000000000089 ) ;
#218 = VECTOR ( 'NONE', #354, 1000.000000000000000 ) ;
#219 = DIRECTION ( 'NONE',  ( 0.000000000000000000, 0.000000000000000000, -1.000000000000000000 ) ) ;
#220 = APPROVAL ( #348, 'Coincidente' ) ;
#221 = PLANE ( 'NONE',  #319 ) ;
#222 = DIRECTION ( 'NONE',  ( 1.000000000000000000, 0.000000000000000000, 0.000000000000000000 ) ) ;
#223 = EDGE_CURVE ( 'NONE', #347, #55, #215, .T. ) ;
#224 = AXIS2_PLACEMENT_3D ( 'NONE', #74, #219, #50 ) ;
#225 = DATE_AND_TIME ( #343, #161 ) ;
#226 = EDGE_CURVE ( 'NONE', #92, #235, #137, .T. ) ;
#227 = ORIENTED_EDGE ( 'NONE', *, *, #223, .T. ) ;
#228 = DATE_AND_TIME ( #84, #366 ) ;
#229 = ORIENTED_EDGE ( 'NONE', *, *, #336, .F. ) ;
#230 = APPLICATION_PROTOCOL_DEFINITION ( 'international standard', 'config_control_design', 1994, #245 ) ;
#231 = ORIENTED_EDGE ( 'NONE', *, *, #176, .F. ) ;
#232 = AXIS2_PLACEMENT_3D ( 'NONE', #108, #52, #20 ) ;
#233 = APPROVAL_STATUS ( 'not_yet_approved' ) ;
#234 = ORIENTED_EDGE ( 'NONE', *, *, #273, .T. ) ;
#235 = VERTEX_POINT ( 'NONE', #306 ) ;
#236 = ORIENTED_EDGE ( 'NONE', *, *, #190, .T. ) ;
#237 = VECTOR ( 'NONE', #241, 1000.000000000000114 ) ;
#238 = DIRECTION ( 'NONE',  ( 0.000000000000000000, 0.000000000000000000, -1.000000000000000000 ) ) ;
#239 = LINE ( 'NONE', #363, #87 ) ;
#240 = PERSON_AND_ORGANIZATION ( #18446744073709551615, #18446744073709551615 ) ;
#241 = DIRECTION ( 'NONE',  ( 0.8660254037843289066, -0.5000000000001899592, 0.000000000000000000 ) ) ;
#242 = CC_DESIGN_APPROVAL ( #369, ( #53 ) ) ;
#243 = ADVANCED_FACE ( 'NONE', ( #106 ), #217, .F. ) ;
#244 = CARTESIAN_POINT ( 'NONE',  ( -7.424026671073999086E-16, -4.041451884326999533, 0.000000000000000000 ) ) ;
#245 = APPLICATION_CONTEXT ( 'configuration controlled 3d designs of mechanical parts and assemblies' ) ;
#246 = DIRECTION ( 'NONE',  ( -1.000000000000000000, 0.000000000000000000, 0.000000000000000000 ) ) ;
#247 = LINE ( 'NONE', #216, #141 ) ;
#248 = EDGE_CURVE ( 'NONE', #145, #294, #307, .T. ) ;
#249 = VECTOR ( 'NONE', #13, 1000.000000000000114 ) ;
#250 = DIRECTION ( 'NONE',  ( 0.5000000000001900702, 0.8660254037843290176, 0.000000000000000000 ) ) ;
#251 = FACE_OUTER_BOUND ( 'NONE', #146, .T. ) ;
#252 = FACE_OUTER_BOUND ( 'NONE', #254, .T. ) ;
#253 = CARTESIAN_POINT ( 'NONE',  ( -3.500000000000000000, 2.020725942163999811, 0.000000000000000000 ) ) ;
#254 = EDGE_LOOP ( 'NONE', ( #258, #166, #64, #154 ) ) ;
#255 = CARTESIAN_POINT ( 'NONE',  ( -7.424026671073999086E-16, -4.041451884326999533, 0.000000000000000000 ) ) ;
#256 = EDGE_LOOP ( 'NONE', ( #85, #227, #231, #27 ) ) ;
#257 = LINE ( 'NONE', #253, #4 ) ;
#258 = ORIENTED_EDGE ( 'NONE', *, *, #226, .T. ) ;
#259 = ADVANCED_FACE ( 'NONE', ( #368 ), #46, .T. ) ;
#260 = COORDINATED_UNIVERSAL_TIME_OFFSET ( 3, 0, .BEHIND. ) ;
#261 = ORIENTED_EDGE ( 'NONE', *, *, #303, .F. ) ;
#262 = SECURITY_CLASSIFICATION ( '', '', #331 ) ;
#263 = FACE_BOUND ( 'NONE', #57, .T. ) ;
#264 = VERTEX_POINT ( 'NONE', #188 ) ;
#265 = PLANE ( 'NONE',  #120 ) ;
#266 = CC_DESIGN_PERSON_AND_ORGANIZATION_ASSIGNMENT ( #34, #148, ( #291 ) ) ;
#267 = CARTESIAN_POINT ( 'NONE',  ( -3.500000000000000000, 2.020725942163999811, 0.000000000000000000 ) ) ;
#268 = VECTOR ( 'NONE', #41, 1000.000000000000000 ) ;
#269 = VECTOR ( 'NONE', #139, 1000.000000000000114 ) ;
#270 = DIRECTION ( 'NONE',  ( -0.5000000000001900702, 0.8660254037843290176, 0.000000000000000000 ) ) ;
#271 = DIRECTION ( 'NONE',  ( 0.8660254037843289066, 0.5000000000001899592, 0.000000000000000000 ) ) ;
#272 = CARTESIAN_POINT ( 'NONE',  ( 2.100000000000000089, 2.571758278209441464E-16, 0.000000000000000000 ) ) ;
#273 = EDGE_CURVE ( 'NONE', #178, #149, #160, .T. ) ;
#274 = AXIS2_PLACEMENT_3D ( 'NONE', #132, #109, #246 ) ;
#275 = DIRECTION ( 'NONE',  ( 0.000000000000000000, 0.000000000000000000, -1.000000000000000000 ) ) ;
#276 = DIRECTION ( 'NONE',  ( 0.000000000000000000, 0.000000000000000000, -1.000000000000000000 ) ) ;
#277 = CC_DESIGN_PERSON_AND_ORGANIZATION_ASSIGNMENT ( #356, #65, ( #262 ) ) ;
#278 = DIRECTION ( 'NONE',  ( -0.5000000000001900702, -0.8660254037843290176, 0.000000000000000000 ) ) ;
#279 = AXIS2_PLACEMENT_3D ( 'NONE', #372, #26, #142 ) ;
#280 = DIRECTION ( 'NONE',  ( -0.8660254037843289066, 0.5000000000001899592, 0.000000000000000000 ) ) ;
#281 = FACE_BOUND ( 'NONE', #198, .T. ) ;
#282 =( NAMED_UNIT ( * ) PLANE_ANGLE_UNIT ( ) SI_UNIT ( $, .RADIAN. ) );
#283 = ORIENTED_EDGE ( 'NONE', *, *, #24, .T. ) ;
#284 = EDGE_CURVE ( 'NONE', #286, #60, #371, .T. ) ;
#285 = DIRECTION ( 'NONE',  ( -1.000000000000000000, 0.000000000000000000, 0.000000000000000000 ) ) ;
#286 = VERTEX_POINT ( 'NONE', #335 ) ;
#287 = CC_DESIGN_APPROVAL ( #220, ( #291 ) ) ;
#288 =( LENGTH_UNIT ( ) NAMED_UNIT ( * ) SI_UNIT ( .MILLI., .METRE. ) );
#289 = EDGE_LOOP ( 'NONE', ( #115, #88, #2, #315 ) ) ;
#290 = FACE_OUTER_BOUND ( 'NONE', #292, .T. ) ;
#291 = PRODUCT_DEFINITION ( 'General', '', #53, #1 ) ;
#292 = EDGE_LOOP ( 'NONE', ( #67, #234, #205, #345, #29, #90 ) ) ;
#293 = APPROVAL_ROLE ( '' ) ;
#294 = VERTEX_POINT ( 'NONE', #75 ) ;
#295 = VECTOR ( 'NONE', #214, 1000.000000000000000 ) ;
#296 = DIRECTION ( 'NONE',  ( -1.000000000000000000, 0.000000000000000000, 0.000000000000000000 ) ) ;
#297 = ADVANCED_FACE ( 'NONE', ( #263, #290 ), #313, .T. ) ;
#298 = LINE ( 'NONE', #38, #111 ) ;
#299 = CARTESIAN_POINT ( 'NONE',  ( -3.500000000000000000, 2.020725942163999811, -3.200000000000000178 ) ) ;
#300 = VECTOR ( 'NONE', #276, 1000.000000000000000 ) ;
#301 = CALENDAR_DATE ( 2026, 14, 9 ) ;
#302 = PLANE ( 'NONE',  #349 ) ;
#303 = EDGE_CURVE ( 'NONE', #294, #145, #25, .T. ) ;
#304 = CARTESIAN_POINT ( 'NONE',  ( -7.424026671073999086E-16, -4.041451884326999533, -3.200000000000000178 ) ) ;
#305 = APPROVAL ( #177, 'Coincidente' ) ;
#306 = CARTESIAN_POINT ( 'NONE',  ( -3.500000000000000000, -2.020725942163999811, -3.200000000000000178 ) ) ;
#307 = CIRCLE ( 'NONE', #58, 2.100000000000000089 ) ;
#308 = CARTESIAN_POINT ( 'NONE',  ( -7.424026671073999086E-16, -4.041451884326999533, 0.000000000000000000 ) ) ;
#309 = PLANE ( 'NONE',  #94 ) ;
#310 = CARTESIAN_POINT ( 'NONE',  ( -3.500000000000000000, -2.020725942163999811, 0.000000000000000000 ) ) ;
#311 = CC_DESIGN_APPROVAL ( #305, ( #262 ) ) ;
#312 = CARTESIAN_POINT ( 'NONE',  ( -7.424026671073999086E-16, -4.041451884326999533, -3.200000000000000178 ) ) ;
#313 = PLANE ( 'NONE',  #136 ) ;
#314 = LINE ( 'NONE', #170, #213 ) ;
#315 = ORIENTED_EDGE ( 'NONE', *, *, #303, .T. ) ;
#316 = EDGE_CURVE ( 'NONE', #286, #294, #314, .T. ) ;
#317 = DIRECTION ( 'NONE',  ( 0.000000000000000000, 0.000000000000000000, -1.000000000000000000 ) ) ;
#318 = EDGE_CURVE ( 'NONE', #235, #171, #344, .T. ) ;
#319 = AXIS2_PLACEMENT_3D ( 'NONE', #81, #278, #280 ) ;
#320 = EDGE_LOOP ( 'NONE', ( #125, #350, #323, #86 ) ) ;
#321 = ORIENTED_EDGE ( 'NONE', *, *, #341, .F. ) ;
#322 = DIRECTION ( 'NONE',  ( 0.000000000000000000, 0.000000000000000000, -1.000000000000000000 ) ) ;
#323 = ORIENTED_EDGE ( 'NONE', *, *, #119, .F. ) ;
#324 = PERSON_AND_ORGANIZATION_ROLE ( 'creator' ) ;
#325 = LINE ( 'NONE', #37, #362 ) ;
#326 = CIRCLE ( 'NONE', #83, 2.100000000000000089 ) ;
#327 = FACE_OUTER_BOUND ( 'NONE', #151, .T. ) ;
#328 = VERTEX_POINT ( 'NONE', #255 ) ;
#329 = APPROVAL_DATE_TIME ( #360, #305 ) ;
#330 = CARTESIAN_POINT ( 'NONE',  ( -3.500000000000000000, -2.020725942163999811, 0.000000000000000000 ) ) ;
#331 = SECURITY_CLASSIFICATION_LEVEL ( 'unclassified' ) ;
#332 = LINE ( 'NONE', #155, #268 ) ;
#333 = CARTESIAN_POINT ( 'NONE',  ( 3.500000000000000000, -2.020725942163999811, -3.200000000000000178 ) ) ;
#334 = PRODUCT_DEFINITION_SHAPE ( 'NONE', 'NONE',  #291 ) ;
#335 = CARTESIAN_POINT ( 'NONE',  ( -2.100000000000000089, 0.000000000000000000, 0.000000000000000000 ) ) ;
#336 = EDGE_CURVE ( 'NONE', #149, #92, #257, .T. ) ;
#337 = VECTOR ( 'NONE', #271, 1000.000000000000114 ) ;
#338 = CARTESIAN_POINT ( 'NONE',  ( -1.831393034651000058E-16, -3.662786069302000609E-17, -3.200000000000000178 ) ) ;
#339 = DIRECTION ( 'NONE',  ( 0.5000000000001900702, -0.8660254037843290176, 0.000000000000000000 ) ) ;
#340 = CARTESIAN_POINT ( 'NONE',  ( 2.474675557025000149E-16, 4.041451884326999533, 0.000000000000000000 ) ) ;
#341 = EDGE_CURVE ( 'NONE', #60, #286, #326, .T. ) ;
#342 = LOCAL_TIME ( 10, 32, 39.00000000000000000, #72 ) ;
#343 = CALENDAR_DATE ( 2026, 14, 9 ) ;
#344 = LINE ( 'NONE', #59, #269 ) ;
#345 = ORIENTED_EDGE ( 'NONE', *, *, #63, .T. ) ;
#346 = PERSON_AND_ORGANIZATION ( #18446744073709551615, #18446744073709551615 ) ;
#347 = VERTEX_POINT ( 'NONE', #114 ) ;
#348 = APPROVAL_STATUS ( 'not_yet_approved' ) ;
#349 = AXIS2_PLACEMENT_3D ( 'NONE', #152, #270, #130 ) ;
#350 = ORIENTED_EDGE ( 'NONE', *, *, #15, .T. ) ;
#351 = ORIENTED_EDGE ( 'NONE', *, *, #15, .F. ) ;
#352 = ORIENTED_EDGE ( 'NONE', *, *, #248, .F. ) ;
#353 = CC_DESIGN_DATE_AND_TIME_ASSIGNMENT ( #212, #98, ( #262 ) ) ;
#354 = DIRECTION ( 'NONE',  ( 0.000000000000000000, 0.000000000000000000, -1.000000000000000000 ) ) ;
#355 = CLOSED_SHELL ( 'NONE', ( #96, #243, #153, #56, #169, #162, #297, #51, #259, #193 ) ) ;
#356 = PERSON_AND_ORGANIZATION ( #18446744073709551615, #18446744073709551615 ) ;
#357 = DIRECTION ( 'NONE',  ( 0.000000000000000000, 0.000000000000000000, -1.000000000000000000 ) ) ;
#358 = DIRECTION ( 'NONE',  ( 0.8660254037843289066, 0.5000000000001899592, 0.000000000000000000 ) ) ;
#359 = CC_DESIGN_DATE_AND_TIME_ASSIGNMENT ( #225, #196, ( #291 ) ) ;
#360 = DATE_AND_TIME ( #91, #126 ) ;
#361 = CARTESIAN_POINT ( 'NONE',  ( 2.100000000000000089, 2.571758278209441464E-16, 0.000000000000000000 ) ) ;
#362 = VECTOR ( 'NONE', #150, 1000.000000000000000 ) ;
#363 = CARTESIAN_POINT ( 'NONE',  ( -7.424026671073999086E-16, -4.041451884326999533, 0.000000000000000000 ) ) ;
#364 = LINE ( 'NONE', #192, #10 ) ;
#365 = DIRECTION ( 'NONE',  ( 0.000000000000000000, 0.000000000000000000, -1.000000000000000000 ) ) ;
#366 = LOCAL_TIME ( 10, 32, 39.00000000000000000, #260 ) ;
#367 = CARTESIAN_POINT ( 'NONE',  ( -3.500000000000000000, 2.020725942163999811, 0.000000000000000000 ) ) ;
#368 = FACE_OUTER_BOUND ( 'NONE', #256, .T. ) ;
#369 = APPROVAL ( #233, 'Coincidente' ) ;
#370 = DIRECTION ( 'NONE',  ( 0.000000000000000000, 0.000000000000000000, -1.000000000000000000 ) ) ;
#371 = CIRCLE ( 'NONE', #274, 2.100000000000000089 ) ;
#372 = CARTESIAN_POINT ( 'NONE',  ( 0.000000000000000000, 0.000000000000000000, 0.000000000000000000 ) ) ;
#373 = ORIENTED_EDGE ( 'NONE', *, *, #341, .T. ) ;
#374 = DIRECTION ( 'NONE',  ( -3.296507462372000475E-16, -1.000000000000000000, 0.000000000000000000 ) ) ;
#375 = ORIENTED_EDGE ( 'NONE', *, *, #119, .T. ) ;
ENDSEC;
END-ISO-10303-21;
