ISO-10303-21;
HEADER;
FILE_DESCRIPTION (( 'STEP AP203' ),
    '1' );
FILE_NAME ('hexagon_nut_M3_plain.STEP',
    '2026-09-14T13:32:40',
    ( '' ),
    ( '' ),
    'SwSTEP 2.0',
    'SolidWorks 2026',
    '' );
FILE_SCHEMA (( 'CONFIG_CONTROL_DESIGN' ));
ENDSEC;

DATA;
#1 = VERTEX_POINT ( 'NONE', #37 ) ;
#2 = CARTESIAN_POINT ( 'NONE',  ( 2.750000000000000000, -1.587713240271000137, 0.000000000000000000 ) ) ;
#3 = ORIENTED_EDGE ( 'NONE', *, *, #367, .T. ) ;
#4 = EDGE_LOOP ( 'NONE', ( #206, #375, #228, #187 ) ) ;
#5 = ORIENTED_EDGE ( 'NONE', *, *, #76, .T. ) ;
#6 = DIRECTION ( 'NONE',  ( -0.8660254037843289066, -0.5000000000001899592, 0.000000000000000000 ) ) ;
#7 = ADVANCED_FACE ( 'NONE', ( #268, #294 ), #156, .F. ) ;
#8 = CARTESIAN_POINT ( 'NONE',  ( -2.750000000000000000, 1.587713240271000137, 0.000000000000000000 ) ) ;
#9 = CC_DESIGN_PERSON_AND_ORGANIZATION_ASSIGNMENT ( #70, #40, ( #325 ) ) ;
#10 = APPROVAL_DATE_TIME ( #199, #295 ) ;
#11 = LINE ( 'NONE', #270, #183 ) ;
#12 = APPROVAL_PERSON_ORGANIZATION ( #142, #179, #351 ) ;
#13 = DIRECTION ( 'NONE',  ( 0.000000000000000000, 0.000000000000000000, -1.000000000000000000 ) ) ;
#14 = EDGE_CURVE ( 'NONE', #283, #226, #121, .T. ) ;
#15 = CARTESIAN_POINT ( 'NONE',  ( 1.944387937662000036E-16, 3.175426480543000363, -2.399999999999999911 ) ) ;
#16 = DIRECTION ( 'NONE',  ( 0.000000000000000000, 0.000000000000000000, -1.000000000000000000 ) ) ;
#17 = VECTOR ( 'NONE', #18, 1000.000000000000114 ) ;
#18 = DIRECTION ( 'NONE',  ( -0.8660254037843289066, 0.5000000000001899592, 0.000000000000000000 ) ) ;
#19 = EDGE_CURVE ( 'NONE', #262, #330, #11, .T. ) ;
#20 = CARTESIAN_POINT ( 'NONE',  ( 0.000000000000000000, 0.000000000000000000, -2.399999999999999911 ) ) ;
#21 = DIRECTION ( 'NONE',  ( 0.000000000000000000, 0.000000000000000000, 1.000000000000000000 ) ) ;
#22 = CC_DESIGN_APPROVAL ( #295, ( #325 ) ) ;
#23 =( NAMED_UNIT ( * ) PLANE_ANGLE_UNIT ( ) SI_UNIT ( $, .RADIAN. ) );
#24 = EDGE_LOOP ( 'NONE', ( #62, #285, #124, #116 ) ) ;
#25 = DIRECTION ( 'NONE',  ( -0.8660254037843289066, -0.5000000000001899592, 0.000000000000000000 ) ) ;
#26 = EDGE_LOOP ( 'NONE', ( #117, #100, #208, #168, #139, #350 ) ) ;
#27 = CARTESIAN_POINT ( 'NONE',  ( -2.750000000000000000, -1.587713240271000137, 0.000000000000000000 ) ) ;
#28 = ORIENTED_EDGE ( 'NONE', *, *, #32, .T. ) ;
#29 = CALENDAR_DATE ( 2026, 14, 9 ) ;
#30 = VECTOR ( 'NONE', #13, 1000.000000000000000 ) ;
#31 = ORIENTED_EDGE ( 'NONE', *, *, #99, .T. ) ;
#32 = EDGE_CURVE ( 'NONE', #232, #226, #157, .T. ) ;
#33 = EDGE_CURVE ( 'NONE', #152, #1, #217, .T. ) ;
#34 = CARTESIAN_POINT ( 'NONE',  ( 0.000000000000000000, 0.000000000000000000, 0.000000000000000000 ) ) ;
#35 = EDGE_LOOP ( 'NONE', ( #28, #355, #109, #119 ) ) ;
#36 = DIRECTION ( 'NONE',  ( 0.8660254037843289066, -0.5000000000001899592, 0.000000000000000000 ) ) ;
#37 = CARTESIAN_POINT ( 'NONE',  ( 1.600000000000000089, 1.959434878635765230E-16, -2.399999999999999911 ) ) ;
#38 = AXIS2_PLACEMENT_3D ( 'NONE', #20, #336, #188 ) ;
#39 = FACE_OUTER_BOUND ( 'NONE', #4, .T. ) ;
#40 = PERSON_AND_ORGANIZATION_ROLE ( 'design_supplier' ) ;
#41 = CARTESIAN_POINT ( 'NONE',  ( -5.833163812986999741E-16, -3.175426480543000363, 0.000000000000000000 ) ) ;
#42 = CARTESIAN_POINT ( 'NONE',  ( -2.750000000000000000, -1.587713240271000137, 0.000000000000000000 ) ) ;
#43 = VECTOR ( 'NONE', #16, 1000.000000000000000 ) ;
#44 = LINE ( 'NONE', #306, #17 ) ;
#45 = CARTESIAN_POINT ( 'NONE',  ( -2.750000000000000000, -1.587713240271000137, -2.399999999999999911 ) ) ;
#46 = FACE_OUTER_BOUND ( 'NONE', #24, .T. ) ;
#47 = VECTOR ( 'NONE', #83, 1000.000000000000000 ) ;
#48 = FACE_OUTER_BOUND ( 'NONE', #141, .T. ) ;
#49 = CARTESIAN_POINT ( 'NONE',  ( -5.833163812986999741E-16, -3.175426480543000363, 0.000000000000000000 ) ) ;
#50 = COORDINATED_UNIVERSAL_TIME_OFFSET ( 3, 0, .BEHIND. ) ;
#51 = ORIENTED_EDGE ( 'NONE', *, *, #316, .T. ) ;
#52 = VECTOR ( 'NONE', #6, 1000.000000000000114 ) ;
#53 = DIRECTION ( 'NONE',  ( -2.797036634739999731E-16, -1.000000000000000000, 0.000000000000000000 ) ) ;
#54 = VERTEX_POINT ( 'NONE', #236 ) ;
#55 = LINE ( 'NONE', #110, #120 ) ;
#56 = ORIENTED_EDGE ( 'NONE', *, *, #33, .F. ) ;
#57 = CARTESIAN_POINT ( 'NONE',  ( -2.750000000000000000, 1.587713240271000137, 0.000000000000000000 ) ) ;
#58 = ORIENTED_EDGE ( 'NONE', *, *, #332, .F. ) ;
#59 = ADVANCED_FACE ( 'NONE', ( #39 ), #185, .F. ) ;
#60 = DATE_AND_TIME ( #29, #222 ) ;
#61 = CC_DESIGN_APPROVAL ( #179, ( #243 ) ) ;
#62 = ORIENTED_EDGE ( 'NONE', *, *, #76, .F. ) ;
#63 = PERSON_AND_ORGANIZATION_ROLE ( 'creator' ) ;
#64 = PLANE ( 'NONE',  #364 ) ;
#65 = CARTESIAN_POINT ( 'NONE',  ( -2.750000000000000000, 1.587713240271000137, -2.399999999999999911 ) ) ;
#66 = PERSON_AND_ORGANIZATION ( #18446744073709551615, #18446744073709551615 ) ;
#67 = CARTESIAN_POINT ( 'NONE',  ( 0.000000000000000000, 2.097777476055000045E-16, -2.399999999999999911 ) ) ;
#68 = VECTOR ( 'NONE', #182, 1000.000000000000000 ) ;
#69 = CARTESIAN_POINT ( 'NONE',  ( 0.000000000000000000, 0.000000000000000000, 0.000000000000000000 ) ) ;
#70 = PERSON_AND_ORGANIZATION ( #18446744073709551615, #18446744073709551615 ) ;
#71 = CARTESIAN_POINT ( 'NONE',  ( 0.000000000000000000, 0.000000000000000000, -2.399999999999999911 ) ) ;
#72 = PRODUCT_DEFINITION_SHAPE ( 'NONE', 'NONE',  #243 ) ;
#73 = CARTESIAN_POINT ( 'NONE',  ( 2.750000000000000000, 1.587713240271000137, 0.000000000000000000 ) ) ;
#74 = AXIS2_PLACEMENT_3D ( 'NONE', #67, #214, #212 ) ;
#75 = LINE ( 'NONE', #161, #272 ) ;
#76 = EDGE_CURVE ( 'NONE', #265, #148, #311, .T. ) ;
#77 = CARTESIAN_POINT ( 'NONE',  ( 2.750000000000000000, -1.587713240271000137, -2.399999999999999911 ) ) ;
#78 = DIRECTION ( 'NONE',  ( -0.5000000000001900702, -0.8660254037843290176, 0.000000000000000000 ) ) ;
#79 = LINE ( 'NONE', #312, #82 ) ;
#80 = CALENDAR_DATE ( 2026, 14, 9 ) ;
#81 = ORIENTED_EDGE ( 'NONE', *, *, #85, .T. ) ;
#82 = VECTOR ( 'NONE', #135, 1000.000000000000000 ) ;
#83 = DIRECTION ( 'NONE',  ( 0.000000000000000000, 0.000000000000000000, -1.000000000000000000 ) ) ;
#84 = ORIENTED_EDGE ( 'NONE', *, *, #224, .F. ) ;
#85 = EDGE_CURVE ( 'NONE', #177, #54, #361, .T. ) ;
#86 = DIRECTION ( 'NONE',  ( 1.000000000000000000, 0.000000000000000000, 0.000000000000000000 ) ) ;
#87 = ORIENTED_EDGE ( 'NONE', *, *, #224, .T. ) ;
#88 = COORDINATED_UNIVERSAL_TIME_OFFSET ( 3, 0, .BEHIND. ) ;
#89 = ORIENTED_EDGE ( 'NONE', *, *, #219, .T. ) ;
#90 = APPROVAL_PERSON_ORGANIZATION ( #155, #360, #180 ) ;
#91 = ORIENTED_EDGE ( 'NONE', *, *, #32, .F. ) ;
#92 = EDGE_CURVE ( 'NONE', #226, #262, #327, .T. ) ;
#93 = ORIENTED_EDGE ( 'NONE', *, *, #301, .F. ) ;
#94 = PERSON_AND_ORGANIZATION_ROLE ( 'classification_officer' ) ;
#95 = ORIENTED_EDGE ( 'NONE', *, *, #112, .F. ) ;
#96 = DIRECTION ( 'NONE',  ( 0.000000000000000000, 0.000000000000000000, -1.000000000000000000 ) ) ;
#97 = VECTOR ( 'NONE', #244, 1000.000000000000000 ) ;
#98 = CALENDAR_DATE ( 2026, 14, 9 ) ;
#99 = EDGE_CURVE ( 'NONE', #203, #232, #237, .T. ) ;
#100 = ORIENTED_EDGE ( 'NONE', *, *, #92, .F. ) ;
#101 = FACE_OUTER_BOUND ( 'NONE', #144, .T. ) ;
#102 = CYLINDRICAL_SURFACE ( 'NONE', #277, 1.600000000000000089 ) ;
#103 = CIRCLE ( 'NONE', #127, 1.600000000000000089 ) ;
#104 = FACE_BOUND ( 'NONE', #324, .T. ) ;
#105 = CARTESIAN_POINT ( 'NONE',  ( -5.833163812986999741E-16, -3.175426480543000363, 0.000000000000000000 ) ) ;
#106 = DIRECTION ( 'NONE',  ( -0.8660254037843289066, 0.5000000000001899592, 0.000000000000000000 ) ) ;
#107 = CLOSED_SHELL ( 'NONE', ( #194, #59, #248, #302, #231, #7, #260, #210, #249, #164 ) ) ;
#108 = APPROVAL_ROLE ( '' ) ;
#109 = ORIENTED_EDGE ( 'NONE', *, *, #367, .F. ) ;
#110 = CARTESIAN_POINT ( 'NONE',  ( 1.944387937662000036E-16, 3.175426480543000363, 0.000000000000000000 ) ) ;
#111 = ORIENTED_EDGE ( 'NONE', *, *, #99, .F. ) ;
#112 = EDGE_CURVE ( 'NONE', #373, #54, #269, .T. ) ;
#113 = CC_DESIGN_PERSON_AND_ORGANIZATION_ASSIGNMENT ( #291, #263, ( #243 ) ) ;
#114 = CIRCLE ( 'NONE', #38, 1.600000000000000089 ) ;
#115 = LINE ( 'NONE', #2, #331 ) ;
#116 = ORIENTED_EDGE ( 'NONE', *, *, #358, .F. ) ;
#117 = ORIENTED_EDGE ( 'NONE', *, *, #19, .F. ) ;
#118 = CALENDAR_DATE ( 2026, 14, 9 ) ;
#119 = ORIENTED_EDGE ( 'NONE', *, *, #316, .F. ) ;
#120 = VECTOR ( 'NONE', #25, 1000.000000000000114 ) ;
#121 = LINE ( 'NONE', #150, #169 ) ;
#122 = DIRECTION ( 'NONE',  ( -1.000000000000000000, 0.000000000000000000, 0.000000000000000000 ) ) ;
#123 = APPROVAL_STATUS ( 'not_yet_approved' ) ;
#124 = ORIENTED_EDGE ( 'NONE', *, *, #288, .T. ) ;
#125 = EDGE_CURVE ( 'NONE', #148, #265, #103, .T. ) ;
#126 = DIRECTION ( 'NONE',  ( -1.000000000000000000, 0.000000000000000000, 0.000000000000000000 ) ) ;
#127 = AXIS2_PLACEMENT_3D ( 'NONE', #238, #213, #128 ) ;
#128 = DIRECTION ( 'NONE',  ( -1.000000000000000000, 0.000000000000000000, 0.000000000000000000 ) ) ;
#129 = APPLICATION_CONTEXT ( 'configuration controlled 3d designs of mechanical parts and assemblies' ) ;
#130 = LINE ( 'NONE', #193, #43 ) ;
#131 = PLANE ( 'NONE',  #259 ) ;
#132 = AXIS2_PLACEMENT_3D ( 'NONE', #275, #78, #106 ) ;
#133 = LINE ( 'NONE', #363, #297 ) ;
#134 = CARTESIAN_POINT ( 'NONE',  ( 0.000000000000000000, 0.000000000000000000, 0.000000000000000000 ) ) ;
#135 = DIRECTION ( 'NONE',  ( 0.000000000000000000, 0.000000000000000000, -1.000000000000000000 ) ) ;
#136 = AXIS2_PLACEMENT_3D ( 'NONE', #278, #307, #221 ) ;
#137 = AXIS2_PLACEMENT_3D ( 'NONE', #69, #153, #122 ) ;
#138 = PERSON_AND_ORGANIZATION ( #18446744073709551615, #18446744073709551615 ) ;
#139 = ORIENTED_EDGE ( 'NONE', *, *, #85, .F. ) ;
#140 = APPROVAL_STATUS ( 'not_yet_approved' ) ;
#141 = EDGE_LOOP ( 'NONE', ( #322, #171, #91, #111 ) ) ;
#142 = PERSON_AND_ORGANIZATION ( #18446744073709551615, #18446744073709551615 ) ;
#143 = PRODUCT_RELATED_PRODUCT_CATEGORY ( 'detail', '', ( #178 ) ) ;
#144 = EDGE_LOOP ( 'NONE', ( #87, #89, #172, #93 ) ) ;
#145 =( NAMED_UNIT ( * ) SI_UNIT ( $, .STERADIAN. ) SOLID_ANGLE_UNIT ( ) );
#146 = EDGE_LOOP ( 'NONE', ( #256, #296, #292, #230 ) ) ;
#147 = CARTESIAN_POINT ( 'NONE',  ( -1.600000000000000089, 0.000000000000000000, 0.000000000000000000 ) ) ;
#148 = VERTEX_POINT ( 'NONE', #362 ) ;
#149 = APPLICATION_CONTEXT ( 'configuration controlled 3d designs of mechanical parts and assemblies' ) ;
#150 = CARTESIAN_POINT ( 'NONE',  ( -2.750000000000000000, -1.587713240271000137, -2.399999999999999911 ) ) ;
#151 = VECTOR ( 'NONE', #197, 1000.000000000000000 ) ;
#152 = VERTEX_POINT ( 'NONE', #300 ) ;
#153 = DIRECTION ( 'NONE',  ( 0.000000000000000000, 0.000000000000000000, -1.000000000000000000 ) ) ;
#154 = CC_DESIGN_DATE_AND_TIME_ASSIGNMENT ( #167, #344, ( #243 ) ) ;
#155 = PERSON_AND_ORGANIZATION ( #18446744073709551615, #18446744073709551615 ) ;
#156 = PLANE ( 'NONE',  #74 ) ;
#157 = LINE ( 'NONE', #41, #97 ) ;
#158 = APPROVAL_PERSON_ORGANIZATION ( #138, #295, #108 ) ;
#159 = PLANE ( 'NONE',  #290 ) ;
#160 = FACE_OUTER_BOUND ( 'NONE', #287, .T. ) ;
#161 = CARTESIAN_POINT ( 'NONE',  ( 2.750000000000000000, -1.587713240271000137, 0.000000000000000000 ) ) ;
#162 = VECTOR ( 'NONE', #317, 1000.000000000000114 ) ;
#163 = CARTESIAN_POINT ( 'NONE',  ( -2.750000000000000000, -1.587713240271000137, 0.000000000000000000 ) ) ;
#164 = ADVANCED_FACE ( 'NONE', ( #101 ), #64, .T. ) ;
#165 = EDGE_CURVE ( 'NONE', #54, #283, #329, .T. ) ;
#166 = FACE_OUTER_BOUND ( 'NONE', #35, .T. ) ;
#167 = DATE_AND_TIME ( #223, #304 ) ;
#168 = ORIENTED_EDGE ( 'NONE', *, *, #165, .F. ) ;
#169 = VECTOR ( 'NONE', #36, 1000.000000000000114 ) ;
#170 = DIRECTION ( 'NONE',  ( 0.000000000000000000, 0.000000000000000000, 1.000000000000000000 ) ) ;
#171 = ORIENTED_EDGE ( 'NONE', *, *, #14, .T. ) ;
#172 = ORIENTED_EDGE ( 'NONE', *, *, #184, .F. ) ;
#173 = DIRECTION ( 'NONE',  ( 0.000000000000000000, 0.000000000000000000, -1.000000000000000000 ) ) ;
#174 = ORIENTED_EDGE ( 'NONE', *, *, #271, .F. ) ;
#175 = VECTOR ( 'NONE', #321, 1000.000000000000000 ) ;
#176 = APPROVAL_DATE_TIME ( #60, #179 ) ;
#177 = VERTEX_POINT ( 'NONE', #15 ) ;
#178 = PRODUCT ( 'hexagon_nut_M3_plain', 'hexagon_nut_M3_plain', '', ( #198 ) ) ;
#179 = APPROVAL ( #140, 'Coincidente' ) ;
#180 = APPROVAL_ROLE ( '' ) ;
#181 = CARTESIAN_POINT ( 'NONE',  ( 0.000000000000000000, 0.000000000000000000, 0.000000000000000000 ) ) ;
#182 = DIRECTION ( 'NONE',  ( -2.797036634739999731E-16, -1.000000000000000000, 0.000000000000000000 ) ) ;
#183 = VECTOR ( 'NONE', #335, 1000.000000000000000 ) ;
#184 = EDGE_CURVE ( 'NONE', #255, #177, #79, .T. ) ;
#185 = CYLINDRICAL_SURFACE ( 'NONE', #201, 1.600000000000000089 ) ;
#186 = CARTESIAN_POINT ( 'NONE',  ( 1.944387937662000036E-16, 3.175426480543000363, -2.399999999999999911 ) ) ;
#187 = ORIENTED_EDGE ( 'NONE', *, *, #33, .T. ) ;
#188 = DIRECTION ( 'NONE',  ( -1.000000000000000000, 0.000000000000000000, 0.000000000000000000 ) ) ;
#189 = CC_DESIGN_SECURITY_CLASSIFICATION ( #207, ( #325 ) ) ;
#190 = CARTESIAN_POINT ( 'NONE',  ( 1.944387937662000036E-16, 3.175426480543000363, 0.000000000000000000 ) ) ;
#191 = EDGE_CURVE ( 'NONE', #265, #1, #130, .T. ) ;
#192 = CARTESIAN_POINT ( 'NONE',  ( 1.600000000000000089, 1.959434878635765230E-16, 0.000000000000000000 ) ) ;
#193 = CARTESIAN_POINT ( 'NONE',  ( 1.600000000000000089, 1.959434878635765230E-16, 0.000000000000000000 ) ) ;
#194 = ADVANCED_FACE ( 'NONE', ( #46 ), #102, .F. ) ;
#195 = CC_DESIGN_PERSON_AND_ORGANIZATION_ASSIGNMENT ( #323, #348, ( #178 ) ) ;
#196 =( GEOMETRIC_REPRESENTATION_CONTEXT ( 3 ) GLOBAL_UNCERTAINTY_ASSIGNED_CONTEXT ( ( #345 ) ) GLOBAL_UNIT_ASSIGNED_CONTEXT ( ( #372, #23, #145 ) ) REPRESENTATION_CONTEXT ( 'NONE', 'WORKASPACE' ) );
#197 = DIRECTION ( 'NONE',  ( 0.000000000000000000, 0.000000000000000000, -1.000000000000000000 ) ) ;
#198 = MECHANICAL_CONTEXT ( 'NONE', #129, 'mechanical' ) ;
#199 = DATE_AND_TIME ( #80, #371 ) ;
#200 = ORIENTED_EDGE ( 'NONE', *, *, #271, .T. ) ;
#201 = AXIS2_PLACEMENT_3D ( 'NONE', #181, #241, #273 ) ;
#202 = DIRECTION ( 'NONE',  ( -1.000000000000000000, 2.797036634739999731E-16, 0.000000000000000000 ) ) ;
#203 = VERTEX_POINT ( 'NONE', #163 ) ;
#204 = CARTESIAN_POINT ( 'NONE',  ( -2.750000000000000000, 1.587713240271000137, 0.000000000000000000 ) ) ;
#205 = ORIENTED_EDGE ( 'NONE', *, *, #318, .T. ) ;
#206 = ORIENTED_EDGE ( 'NONE', *, *, #191, .F. ) ;
#207 = SECURITY_CLASSIFICATION ( '', '', #267 ) ;
#208 = ORIENTED_EDGE ( 'NONE', *, *, #14, .F. ) ;
#209 = DIRECTION ( 'NONE',  ( 0.8660254037843289066, 0.5000000000001899592, 0.000000000000000000 ) ) ;
#210 = ADVANCED_FACE ( 'NONE', ( #245 ), #131, .T. ) ;
#211 = COORDINATED_UNIVERSAL_TIME_OFFSET ( 3, 0, .BEHIND. ) ;
#212 = DIRECTION ( 'NONE',  ( 1.000000000000000000, 0.000000000000000000, 0.000000000000000000 ) ) ;
#213 = DIRECTION ( 'NONE',  ( 0.000000000000000000, 0.000000000000000000, -1.000000000000000000 ) ) ;
#214 = DIRECTION ( 'NONE',  ( 0.000000000000000000, 0.000000000000000000, 1.000000000000000000 ) ) ;
#215 = DIRECTION ( 'NONE',  ( 1.000000000000000000, 0.000000000000000000, 0.000000000000000000 ) ) ;
#216 = DIRECTION ( 'NONE',  ( -0.8660254037843289066, 0.5000000000001899592, 0.000000000000000000 ) ) ;
#217 = CIRCLE ( 'NONE', #266, 1.600000000000000089 ) ;
#218 = DIRECTION ( 'NONE',  ( 0.000000000000000000, 0.000000000000000000, 1.000000000000000000 ) ) ;
#219 = EDGE_CURVE ( 'NONE', #330, #177, #133, .T. ) ;
#220 = CARTESIAN_POINT ( 'NONE',  ( -5.833163812986999741E-16, -3.175426480543000363, -2.399999999999999911 ) ) ;
#221 = DIRECTION ( 'NONE',  ( 0.000000000000000000, 1.000000000000000000, 0.000000000000000000 ) ) ;
#222 = LOCAL_TIME ( 10, 32, 40.00000000000000000, #88 ) ;
#223 = CALENDAR_DATE ( 2026, 14, 9 ) ;
#224 = EDGE_CURVE ( 'NONE', #264, #330, #251, .T. ) ;
#225 = COORDINATED_UNIVERSAL_TIME_OFFSET ( 3, 0, .BEHIND. ) ;
#226 = VERTEX_POINT ( 'NONE', #220 ) ;
#227 = LINE ( 'NONE', #27, #47 ) ;
#228 = ORIENTED_EDGE ( 'NONE', *, *, #358, .T. ) ;
#229 = VECTOR ( 'NONE', #53, 1000.000000000000000 ) ;
#230 = ORIENTED_EDGE ( 'NONE', *, *, #318, .F. ) ;
#231 = ADVANCED_FACE ( 'NONE', ( #166 ), #310, .T. ) ;
#232 = VERTEX_POINT ( 'NONE', #49 ) ;
#233 = CC_DESIGN_PERSON_AND_ORGANIZATION_ASSIGNMENT ( #299, #63, ( #325 ) ) ;
#234 = DATE_TIME_ROLE ( 'classification_date' ) ;
#235 = ORIENTED_EDGE ( 'NONE', *, *, #184, .T. ) ;
#236 = CARTESIAN_POINT ( 'NONE',  ( -2.750000000000000000, 1.587713240271000137, -2.399999999999999911 ) ) ;
#237 = LINE ( 'NONE', #42, #314 ) ;
#238 = CARTESIAN_POINT ( 'NONE',  ( 0.000000000000000000, 0.000000000000000000, 0.000000000000000000 ) ) ;
#239 = DATE_AND_TIME ( #98, #305 ) ;
#240 = AXIS2_PLACEMENT_3D ( 'NONE', #34, #353, #86 ) ;
#241 = DIRECTION ( 'NONE',  ( 0.000000000000000000, 0.000000000000000000, -1.000000000000000000 ) ) ;
#242 = ADVANCED_BREP_SHAPE_REPRESENTATION ( 'hexagon_nut_M3_plain', ( #279, #240 ), #196 ) ;
#243 = PRODUCT_DEFINITION ( 'General', '', #325, #309 ) ;
#244 = DIRECTION ( 'NONE',  ( 0.000000000000000000, 0.000000000000000000, -1.000000000000000000 ) ) ;
#245 = FACE_OUTER_BOUND ( 'NONE', #303, .T. ) ;
#246 = DIRECTION ( 'NONE',  ( 0.000000000000000000, 0.000000000000000000, -1.000000000000000000 ) ) ;
#247 = VECTOR ( 'NONE', #209, 1000.000000000000114 ) ;
#248 = ADVANCED_FACE ( 'NONE', ( #48 ), #276, .T. ) ;
#249 = ADVANCED_FACE ( 'NONE', ( #365 ), #280, .T. ) ;
#250 = FACE_OUTER_BOUND ( 'NONE', #146, .T. ) ;
#251 = LINE ( 'NONE', #73, #151 ) ;
#252 = DIRECTION ( 'NONE',  ( -1.000000000000000000, 0.000000000000000000, 0.000000000000000000 ) ) ;
#253 = LOCAL_TIME ( 10, 32, 40.00000000000000000, #293 ) ;
#254 = APPROVAL_STATUS ( 'not_yet_approved' ) ;
#255 = VERTEX_POINT ( 'NONE', #341 ) ;
#256 = ORIENTED_EDGE ( 'NONE', *, *, #112, .T. ) ;
#257 = CARTESIAN_POINT ( 'NONE',  ( 2.750000000000000000, 1.587713240271000137, -2.399999999999999911 ) ) ;
#258 = VERTEX_POINT ( 'NONE', #337 ) ;
#259 = AXIS2_PLACEMENT_3D ( 'NONE', #190, #368, #218 ) ;
#260 = ADVANCED_FACE ( 'NONE', ( #104, #160 ), #338, .T. ) ;
#261 = CARTESIAN_POINT ( 'NONE',  ( -2.750000000000000000, 1.587713240271000137, 0.000000000000000000 ) ) ;
#262 = VERTEX_POINT ( 'NONE', #77 ) ;
#263 = PERSON_AND_ORGANIZATION_ROLE ( 'creator' ) ;
#264 = VERTEX_POINT ( 'NONE', #274 ) ;
#265 = VERTEX_POINT ( 'NONE', #192 ) ;
#266 = AXIS2_PLACEMENT_3D ( 'NONE', #71, #333, #126 ) ;
#267 = SECURITY_CLASSIFICATION_LEVEL ( 'unclassified' ) ;
#268 = FACE_BOUND ( 'NONE', #289, .T. ) ;
#269 = LINE ( 'NONE', #8, #30 ) ;
#270 = CARTESIAN_POINT ( 'NONE',  ( 2.750000000000000000, -1.587713240271000137, -2.399999999999999911 ) ) ;
#271 = EDGE_CURVE ( 'NONE', #258, #264, #75, .T. ) ;
#272 = VECTOR ( 'NONE', #370, 1000.000000000000000 ) ;
#273 = DIRECTION ( 'NONE',  ( -1.000000000000000000, 0.000000000000000000, 0.000000000000000000 ) ) ;
#274 = CARTESIAN_POINT ( 'NONE',  ( 2.750000000000000000, 1.587713240271000137, 0.000000000000000000 ) ) ;
#275 = CARTESIAN_POINT ( 'NONE',  ( -2.750000000000000000, -1.587713240271000137, 0.000000000000000000 ) ) ;
#276 = PLANE ( 'NONE',  #132 ) ;
#277 = AXIS2_PLACEMENT_3D ( 'NONE', #134, #246, #252 ) ;
#278 = CARTESIAN_POINT ( 'NONE',  ( 2.750000000000000000, -1.587713240271000137, 0.000000000000000000 ) ) ;
#279 = MANIFOLD_SOLID_BREP ( '0cf7ef759d64[1]', #107 ) ;
#280 = PLANE ( 'NONE',  #136 ) ;
#281 = LINE ( 'NONE', #147, #175 ) ;
#282 = CC_DESIGN_APPROVAL ( #360, ( #207 ) ) ;
#283 = VERTEX_POINT ( 'NONE', #45 ) ;
#284 = LINE ( 'NONE', #261, #229 ) ;
#285 = ORIENTED_EDGE ( 'NONE', *, *, #191, .T. ) ;
#286 = APPLICATION_PROTOCOL_DEFINITION ( 'international standard', 'config_control_design', 1994, #149 ) ;
#287 = EDGE_LOOP ( 'NONE', ( #340, #319, #205, #31, #51, #200 ) ) ;
#288 = EDGE_CURVE ( 'NONE', #1, #152, #114, .T. ) ;
#289 = EDGE_LOOP ( 'NONE', ( #56, #315 ) ) ;
#290 = AXIS2_PLACEMENT_3D ( 'NONE', #204, #202, #170 ) ;
#291 = PERSON_AND_ORGANIZATION ( #18446744073709551615, #18446744073709551615 ) ;
#292 = ORIENTED_EDGE ( 'NONE', *, *, #343, .F. ) ;
#293 = COORDINATED_UNIVERSAL_TIME_OFFSET ( 3, 0, .BEHIND. ) ;
#294 = FACE_OUTER_BOUND ( 'NONE', #26, .T. ) ;
#295 = APPROVAL ( #254, 'Coincidente' ) ;
#296 = ORIENTED_EDGE ( 'NONE', *, *, #165, .T. ) ;
#297 = VECTOR ( 'NONE', #216, 1000.000000000000114 ) ;
#298 = CARTESIAN_POINT ( 'NONE',  ( -5.833163812986999741E-16, -3.175426480543000363, -2.399999999999999911 ) ) ;
#299 = PERSON_AND_ORGANIZATION ( #18446744073709551615, #18446744073709551615 ) ;
#300 = CARTESIAN_POINT ( 'NONE',  ( -1.600000000000000089, 0.000000000000000000, -2.399999999999999911 ) ) ;
#301 = EDGE_CURVE ( 'NONE', #264, #255, #44, .T. ) ;
#302 = ADVANCED_FACE ( 'NONE', ( #250 ), #159, .T. ) ;
#303 = EDGE_LOOP ( 'NONE', ( #235, #81, #95, #58 ) ) ;
#304 = LOCAL_TIME ( 10, 32, 40.00000000000000000, #50 ) ;
#305 = LOCAL_TIME ( 10, 32, 40.00000000000000000, #211 ) ;
#306 = CARTESIAN_POINT ( 'NONE',  ( 2.750000000000000000, 1.587713240271000137, 0.000000000000000000 ) ) ;
#307 = DIRECTION ( 'NONE',  ( 1.000000000000000000, 0.000000000000000000, 0.000000000000000000 ) ) ;
#308 = DIRECTION ( 'NONE',  ( 0.000000000000000000, 0.000000000000000000, -1.000000000000000000 ) ) ;
#309 = DESIGN_CONTEXT ( 'detailed design', #149, 'design' ) ;
#310 = PLANE ( 'NONE',  #342 ) ;
#311 = CIRCLE ( 'NONE', #137, 1.600000000000000089 ) ;
#312 = CARTESIAN_POINT ( 'NONE',  ( 1.944387937662000036E-16, 3.175426480543000363, 0.000000000000000000 ) ) ;
#313 = APPLICATION_PROTOCOL_DEFINITION ( 'international standard', 'config_control_design', 1994, #129 ) ;
#314 = VECTOR ( 'NONE', #357, 1000.000000000000114 ) ;
#315 = ORIENTED_EDGE ( 'NONE', *, *, #288, .F. ) ;
#316 = EDGE_CURVE ( 'NONE', #232, #258, #346, .T. ) ;
#317 = DIRECTION ( 'NONE',  ( 0.8660254037843289066, 0.5000000000001899592, 0.000000000000000000 ) ) ;
#318 = EDGE_CURVE ( 'NONE', #373, #203, #284, .T. ) ;
#319 = ORIENTED_EDGE ( 'NONE', *, *, #332, .T. ) ;
#320 = CC_DESIGN_PERSON_AND_ORGANIZATION_ASSIGNMENT ( #66, #94, ( #207 ) ) ;
#321 = DIRECTION ( 'NONE',  ( 0.000000000000000000, 0.000000000000000000, -1.000000000000000000 ) ) ;
#322 = ORIENTED_EDGE ( 'NONE', *, *, #343, .T. ) ;
#323 = PERSON_AND_ORGANIZATION ( #18446744073709551615, #18446744073709551615 ) ;
#324 = EDGE_LOOP ( 'NONE', ( #347, #5 ) ) ;
#325 = PRODUCT_DEFINITION_FORMATION_WITH_SPECIFIED_SOURCE ( 'Simétric', '', #178, .NOT_KNOWN. ) ;
#326 = SHAPE_DEFINITION_REPRESENTATION ( #72, #242 ) ;
#327 = LINE ( 'NONE', #298, #247 ) ;
#328 = APPROVAL_DATE_TIME ( #239, #360 ) ;
#329 = LINE ( 'NONE', #65, #68 ) ;
#330 = VERTEX_POINT ( 'NONE', #257 ) ;
#331 = VECTOR ( 'NONE', #173, 1000.000000000000000 ) ;
#332 = EDGE_CURVE ( 'NONE', #255, #373, #55, .T. ) ;
#333 = DIRECTION ( 'NONE',  ( 0.000000000000000000, 0.000000000000000000, -1.000000000000000000 ) ) ;
#334 = DATE_AND_TIME ( #118, #253 ) ;
#335 = DIRECTION ( 'NONE',  ( 0.000000000000000000, 1.000000000000000000, 0.000000000000000000 ) ) ;
#336 = DIRECTION ( 'NONE',  ( 0.000000000000000000, 0.000000000000000000, -1.000000000000000000 ) ) ;
#337 = CARTESIAN_POINT ( 'NONE',  ( 2.750000000000000000, -1.587713240271000137, 0.000000000000000000 ) ) ;
#338 = PLANE ( 'NONE',  #349 ) ;
#339 = DIRECTION ( 'NONE',  ( 0.5000000000001900702, -0.8660254037843290176, 0.000000000000000000 ) ) ;
#340 = ORIENTED_EDGE ( 'NONE', *, *, #301, .T. ) ;
#341 = CARTESIAN_POINT ( 'NONE',  ( 1.944387937662000036E-16, 3.175426480543000363, 0.000000000000000000 ) ) ;
#342 = AXIS2_PLACEMENT_3D ( 'NONE', #105, #339, #308 ) ;
#343 = EDGE_CURVE ( 'NONE', #203, #283, #227, .T. ) ;
#344 = DATE_TIME_ROLE ( 'creation_date' ) ;
#345 = UNCERTAINTY_MEASURE_WITH_UNIT (LENGTH_MEASURE( 1.000000000000000082E-05 ), #372, 'distance_accuracy_value', 'NONE');
#346 = LINE ( 'NONE', #374, #162 ) ;
#347 = ORIENTED_EDGE ( 'NONE', *, *, #125, .T. ) ;
#348 = PERSON_AND_ORGANIZATION_ROLE ( 'design_owner' ) ;
#349 = AXIS2_PLACEMENT_3D ( 'NONE', #366, #21, #215 ) ;
#350 = ORIENTED_EDGE ( 'NONE', *, *, #219, .F. ) ;
#351 = APPROVAL_ROLE ( '' ) ;
#352 = EDGE_LOOP ( 'NONE', ( #3, #354, #84, #174 ) ) ;
#353 = DIRECTION ( 'NONE',  ( 0.000000000000000000, 0.000000000000000000, 1.000000000000000000 ) ) ;
#354 = ORIENTED_EDGE ( 'NONE', *, *, #19, .T. ) ;
#355 = ORIENTED_EDGE ( 'NONE', *, *, #92, .T. ) ;
#356 = DIRECTION ( 'NONE',  ( 0.5000000000001900702, 0.8660254037843290176, 0.000000000000000000 ) ) ;
#357 = DIRECTION ( 'NONE',  ( 0.8660254037843289066, -0.5000000000001899592, 0.000000000000000000 ) ) ;
#358 = EDGE_CURVE ( 'NONE', #148, #152, #281, .T. ) ;
#359 = CARTESIAN_POINT ( 'NONE',  ( 2.750000000000000000, 1.587713240271000137, 0.000000000000000000 ) ) ;
#360 = APPROVAL ( #123, 'Coincidente' ) ;
#361 = LINE ( 'NONE', #186, #52 ) ;
#362 = CARTESIAN_POINT ( 'NONE',  ( -1.600000000000000089, 0.000000000000000000, 0.000000000000000000 ) ) ;
#363 = CARTESIAN_POINT ( 'NONE',  ( 2.750000000000000000, 1.587713240271000137, -2.399999999999999911 ) ) ;
#364 = AXIS2_PLACEMENT_3D ( 'NONE', #359, #356, #96 ) ;
#365 = FACE_OUTER_BOUND ( 'NONE', #352, .T. ) ;
#366 = CARTESIAN_POINT ( 'NONE',  ( 0.000000000000000000, 2.097777476055000045E-16, 0.000000000000000000 ) ) ;
#367 = EDGE_CURVE ( 'NONE', #258, #262, #115, .T. ) ;
#368 = DIRECTION ( 'NONE',  ( -0.5000000000001900702, 0.8660254037843290176, 0.000000000000000000 ) ) ;
#369 = CC_DESIGN_DATE_AND_TIME_ASSIGNMENT ( #334, #234, ( #207 ) ) ;
#370 = DIRECTION ( 'NONE',  ( 0.000000000000000000, 1.000000000000000000, 0.000000000000000000 ) ) ;
#371 = LOCAL_TIME ( 10, 32, 40.00000000000000000, #225 ) ;
#372 =( LENGTH_UNIT ( ) NAMED_UNIT ( * ) SI_UNIT ( .MILLI., .METRE. ) );
#373 = VERTEX_POINT ( 'NONE', #57 ) ;
#374 = CARTESIAN_POINT ( 'NONE',  ( -5.833163812986999741E-16, -3.175426480543000363, 0.000000000000000000 ) ) ;
#375 = ORIENTED_EDGE ( 'NONE', *, *, #125, .F. ) ;
ENDSEC;
END-ISO-10303-21;
