ISO-10303-21;
HEADER;
FILE_DESCRIPTION (( 'STEP AP203' ),
    '1' );
FILE_NAME ('socket_head_cap_screw_M4_l30mm_plain.STEP',
    '2026-09-14T13:32:39',
    ( '' ),
    ( '' ),
    'SwSTEP 2.0',
    'SolidWorks 2026',
    '' );
FILE_SCHEMA (( 'CONFIG_CONTROL_DESIGN' ));
ENDSEC;

DATA;
#1 = LINE ( 'NONE', #118, #474 ) ;
#2 = ORIENTED_EDGE ( 'NONE', *, *, #142, .F. ) ;
#3 = CARTESIAN_POINT ( 'NONE',  ( -3.500000000000000000, 4.286263797015736595E-16, 0.000000000000000000 ) ) ;
#4 = EDGE_LOOP ( 'NONE', ( #138, #334, #214, #96 ) ) ;
#5 = APPROVAL_PERSON_ORGANIZATION ( #64, #283, #220 ) ;
#6 = DIRECTION ( 'NONE',  ( 0.000000000000000000, 0.000000000000000000, 1.000000000000000000 ) ) ;
#7 = ORIENTED_EDGE ( 'NONE', *, *, #131, .T. ) ;
#8 = CARTESIAN_POINT ( 'NONE',  ( 1.580000000000000071, -0.9122134253199999376, 0.000000000000000000 ) ) ;
#9 = ORIENTED_EDGE ( 'NONE', *, *, #45, .F. ) ;
#10 = DIRECTION ( 'NONE',  ( 0.000000000000000000, 0.000000000000000000, 1.000000000000000000 ) ) ;
#11 = ORIENTED_EDGE ( 'NONE', *, *, #34, .F. ) ;
#12 = AXIS2_PLACEMENT_3D ( 'NONE', #105, #148, #420 ) ;
#13 = DIRECTION ( 'NONE',  ( -0.8660254037843289066, 0.5000000000001899592, 0.000000000000000000 ) ) ;
#14 = ORIENTED_EDGE ( 'NONE', *, *, #305, .T. ) ;
#15 = APPLICATION_CONTEXT ( 'configuration controlled 3d designs of mechanical parts and assemblies' ) ;
#16 = LINE ( 'NONE', #8, #482 ) ;
#17 = EDGE_LOOP ( 'NONE', ( #93, #486, #401, #429 ) ) ;
#18 = APPROVAL_STATUS ( 'not_yet_approved' ) ;
#19 = EDGE_LOOP ( 'NONE', ( #409, #297, #14, #492, #284, #193 ) ) ;
#20 = CONICAL_SURFACE ( 'NONE', #28, 1.899999999999999911, 0.2008272553700000129 ) ;
#21 = APPROVAL_PERSON_ORGANIZATION ( #430, #291, #436 ) ;
#22 = DATE_AND_TIME ( #377, #424 ) ;
#23 = ADVANCED_FACE ( 'NONE', ( #481, #463 ), #264, .F. ) ;
#24 = CARTESIAN_POINT ( 'NONE',  ( -1.899999999999999911, 2.326828918379971365E-16, -32.59999999999999432 ) ) ;
#25 = DIRECTION ( 'NONE',  ( 1.000000000000000000, 0.000000000000000000, 0.000000000000000000 ) ) ;
#26 = APPROVAL_DATE_TIME ( #66, #480 ) ;
#27 = DIRECTION ( 'NONE',  ( 1.000000000000000000, 0.000000000000000000, 0.000000000000000000 ) ) ;
#28 = AXIS2_PLACEMENT_3D ( 'NONE', #246, #282, #251 ) ;
#29 = LINE ( 'NONE', #147, #207 ) ;
#30 = CARTESIAN_POINT ( 'NONE',  ( -3.500000000000000000, 4.286263797015736595E-16, -4.000000000000000000 ) ) ;
#31 = ADVANCED_FACE ( 'NONE', ( #178 ), #258, .F. ) ;
#32 = LINE ( 'NONE', #67, #61 ) ;
#33 = DIRECTION ( 'NONE',  ( 0.000000000000000000, 0.000000000000000000, 1.000000000000000000 ) ) ;
#34 = EDGE_CURVE ( 'NONE', #440, #323, #101, .T. ) ;
#35 = AXIS2_PLACEMENT_3D ( 'NONE', #226, #454, #175 ) ;
#36 = LINE ( 'NONE', #111, #506 ) ;
#37 = VERTEX_POINT ( 'NONE', #307 ) ;
#38 = CARTESIAN_POINT ( 'NONE',  ( -1.580000000000000071, -0.9122134253199999376, -2.000000000000000000 ) ) ;
#39 = CARTESIAN_POINT ( 'NONE',  ( 0.000000000000000000, 0.000000000000000000, -4.000000000000000000 ) ) ;
#40 = EDGE_LOOP ( 'NONE', ( #88, #374, #511, #447 ) ) ;
#41 = EDGE_CURVE ( 'NONE', #204, #363, #299, .T. ) ;
#42 = DIRECTION ( 'NONE',  ( 1.000000000000000000, 0.000000000000000000, 0.000000000000000000 ) ) ;
#43 = AXIS2_PLACEMENT_3D ( 'NONE', #411, #213, #324 ) ;
#44 = ORIENTED_EDGE ( 'NONE', *, *, #218, .F. ) ;
#45 = EDGE_CURVE ( 'NONE', #478, #412, #219, .T. ) ;
#46 = FACE_OUTER_BOUND ( 'NONE', #170, .T. ) ;
#47 = EDGE_LOOP ( 'NONE', ( #237, #488, #55, #442 ) ) ;
#48 = CARTESIAN_POINT ( 'NONE',  ( -1.899999999999999911, 2.326828918379971365E-16, -32.59999999999999432 ) ) ;
#49 = VERTEX_POINT ( 'NONE', #223 ) ;
#50 = ADVANCED_FACE ( 'NONE', ( #348 ), #184, .F. ) ;
#51 = CARTESIAN_POINT ( 'NONE',  ( 0.000000000000000000, 0.000000000000000000, -34.00000000000000000 ) ) ;
#52 = VERTEX_POINT ( 'NONE', #497 ) ;
#53 = VECTOR ( 'NONE', #328, 1000.000000000000114 ) ;
#54 = DIRECTION ( 'NONE',  ( 0.000000000000000000, 0.000000000000000000, 1.000000000000000000 ) ) ;
#55 = ORIENTED_EDGE ( 'NONE', *, *, #427, .T. ) ;
#56 = DIRECTION ( 'NONE',  ( 1.000000000000000000, 0.000000000000000000, 0.000000000000000000 ) ) ;
#57 = VERTEX_POINT ( 'NONE', #340 ) ;
#58 = CARTESIAN_POINT ( 'NONE',  ( 0.000000000000000000, 0.000000000000000000, -4.000000000000000000 ) ) ;
#59 = LINE ( 'NONE', #346, #422 ) ;
#60 = EDGE_CURVE ( 'NONE', #438, #208, #141, .T. ) ;
#61 = VECTOR ( 'NONE', #300, 1000.000000000000000 ) ;
#62 = CYLINDRICAL_SURFACE ( 'NONE', #253, 3.500000000000000000 ) ;
#63 = DIRECTION ( 'NONE',  ( 0.000000000000000000, 0.000000000000000000, -1.000000000000000000 ) ) ;
#64 = PERSON_AND_ORGANIZATION ( #18446744073709551615, #18446744073709551615 ) ;
#65 = DIRECTION ( 'NONE',  ( 0.000000000000000000, 0.000000000000000000, 1.000000000000000000 ) ) ;
#66 = DATE_AND_TIME ( #347, #386 ) ;
#67 = CARTESIAN_POINT ( 'NONE',  ( 3.500000000000000000, 0.000000000000000000, -4.000000000000000000 ) ) ;
#68 = AXIS2_PLACEMENT_3D ( 'NONE', #350, #473, #318 ) ;
#69 = SECURITY_CLASSIFICATION_LEVEL ( 'unclassified' ) ;
#70 = CC_DESIGN_APPROVAL ( #480, ( #366 ) ) ;
#71 = FACE_OUTER_BOUND ( 'NONE', #287, .T. ) ;
#72 = CYLINDRICAL_SURFACE ( 'NONE', #68, 3.500000000000000000 ) ;
#73 = ORIENTED_EDGE ( 'NONE', *, *, #171, .F. ) ;
#74 = EDGE_CURVE ( 'NONE', #187, #83, #443, .T. ) ;
#75 = CARTESIAN_POINT ( 'NONE',  ( 0.000000000000000000, 0.000000000000000000, -34.00000000000000000 ) ) ;
#76 = VERTEX_POINT ( 'NONE', #24 ) ;
#77 = CIRCLE ( 'NONE', #391, 3.500000000000000000 ) ;
#78 = DIRECTION ( 'NONE',  ( 1.000000000000000000, 0.000000000000000000, 0.000000000000000000 ) ) ;
#79 = DIRECTION ( 'NONE',  ( 1.000000000000000000, 0.000000000000000000, 0.000000000000000000 ) ) ;
#80 = EDGE_LOOP ( 'NONE', ( #156, #132 ) ) ;
#81 = DIRECTION ( 'NONE',  ( -1.217064991381999788E-16, 1.000000000000000000, 0.000000000000000000 ) ) ;
#82 = EDGE_CURVE ( 'NONE', #160, #57, #345, .T. ) ;
#83 = VERTEX_POINT ( 'NONE', #221 ) ;
#84 = LINE ( 'NONE', #243, #150 ) ;
#85 = CIRCLE ( 'NONE', #407, 3.500000000000000000 ) ;
#86 = VERTEX_POINT ( 'NONE', #416 ) ;
#87 = DIRECTION ( 'NONE',  ( -3.651194974145999857E-16, -1.000000000000000000, 0.000000000000000000 ) ) ;
#88 = ORIENTED_EDGE ( 'NONE', *, *, #269, .T. ) ;
#89 = CC_DESIGN_PERSON_AND_ORGANIZATION_ASSIGNMENT ( #421, #145, ( #467 ) ) ;
#90 = CARTESIAN_POINT ( 'NONE',  ( -1.580000000000000071, -0.9122134253199999376, 0.000000000000000000 ) ) ;
#91 = ORIENTED_EDGE ( 'NONE', *, *, #410, .T. ) ;
#92 = CARTESIAN_POINT ( 'NONE',  ( -1.580000000000000071, 0.9122134253199999376, 0.000000000000000000 ) ) ;
#93 = ORIENTED_EDGE ( 'NONE', *, *, #276, .T. ) ;
#94 = AXIS2_PLACEMENT_3D ( 'NONE', #215, #102, #298 ) ;
#95 = DIRECTION ( 'NONE',  ( 0.000000000000000000, 0.000000000000000000, 1.000000000000000000 ) ) ;
#96 = ORIENTED_EDGE ( 'NONE', *, *, #41, .F. ) ;
#97 = APPLICATION_PROTOCOL_DEFINITION ( 'international standard', 'config_control_design', 1994, #127 ) ;
#98 = PLANE ( 'NONE',  #217 ) ;
#99 = COORDINATED_UNIVERSAL_TIME_OFFSET ( 3, 0, .BEHIND. ) ;
#100 = DIRECTION ( 'NONE',  ( 1.000000000000000000, 1.217064991381999788E-16, 0.000000000000000000 ) ) ;
#101 = CIRCLE ( 'NONE', #165, 1.614999999999999991 ) ;
#102 = DIRECTION ( 'NONE',  ( 0.000000000000000000, 0.000000000000000000, 1.000000000000000000 ) ) ;
#103 = DIRECTION ( 'NONE',  ( 0.000000000000000000, 0.000000000000000000, 1.000000000000000000 ) ) ;
#104 = ADVANCED_FACE ( 'NONE', ( #71 ), #461, .F. ) ;
#105 = CARTESIAN_POINT ( 'NONE',  ( 0.000000000000000000, 0.000000000000000000, -32.59999999999999432 ) ) ;
#106 = APPROVAL_STATUS ( 'not_yet_approved' ) ;
#107 = DIRECTION ( 'NONE',  ( 1.000000000000000000, 0.000000000000000000, 0.000000000000000000 ) ) ;
#108 = DESIGN_CONTEXT ( 'detailed design', #127, 'design' ) ;
#109 = VECTOR ( 'NONE', #130, 1000.000000000000114 ) ;
#110 = CARTESIAN_POINT ( 'NONE',  ( 0.000000000000000000, 0.000000000000000000, 0.000000000000000000 ) ) ;
#111 = CARTESIAN_POINT ( 'NONE',  ( 1.580000000000000071, -0.9122134253199999376, 0.000000000000000000 ) ) ;
#112 = ORIENTED_EDGE ( 'NONE', *, *, #356, .T. ) ;
#113 = CARTESIAN_POINT ( 'NONE',  ( 1.899999999999999911, 0.000000000000000000, -4.000000000000000000 ) ) ;
#114 = ORIENTED_EDGE ( 'NONE', *, *, #301, .F. ) ;
#115 = CIRCLE ( 'NONE', #43, 1.899999999999999911 ) ;
#116 = CARTESIAN_POINT ( 'NONE',  ( 1.580000000000000071, 0.9122134253199999376, 0.000000000000000000 ) ) ;
#117 = ORIENTED_EDGE ( 'NONE', *, *, #45, .T. ) ;
#118 = CARTESIAN_POINT ( 'NONE',  ( -3.351417754371000224E-16, -1.824426850638999786, 0.000000000000000000 ) ) ;
#119 = LINE ( 'NONE', #333, #261 ) ;
#120 = EDGE_CURVE ( 'NONE', #86, #363, #59, .T. ) ;
#121 = CARTESIAN_POINT ( 'NONE',  ( 1.614999999999999991, 0.000000000000000000, -34.00000000000000000 ) ) ;
#122 = AXIS2_PLACEMENT_3D ( 'NONE', #279, #277, #78 ) ;
#123 = EDGE_LOOP ( 'NONE', ( #351, #293, #172, #376 ) ) ;
#124 = ADVANCED_FACE ( 'NONE', ( #387 ), #458, .T. ) ;
#125 = DIRECTION ( 'NONE',  ( 1.000000000000000000, 0.000000000000000000, 0.000000000000000000 ) ) ;
#126 = VERTEX_POINT ( 'NONE', #139 ) ;
#127 = APPLICATION_CONTEXT ( 'configuration controlled 3d designs of mechanical parts and assemblies' ) ;
#128 = LINE ( 'NONE', #286, #313 ) ;
#129 = ORIENTED_EDGE ( 'NONE', *, *, #267, .T. ) ;
#130 = DIRECTION ( 'NONE',  ( 0.8660254037843289066, 0.5000000000001899592, 0.000000000000000000 ) ) ;
#131 = EDGE_CURVE ( 'NONE', #126, #57, #32, .T. ) ;
#132 = ORIENTED_EDGE ( 'NONE', *, *, #330, .T. ) ;
#133 = AXIS2_PLACEMENT_3D ( 'NONE', #379, #503, #501 ) ;
#134 = PRODUCT ( 'socket_head_cap_screw_M4_l30mm_plain', 'socket_head_cap_screw_M4_l30mm_plain', '', ( #453 ) ) ;
#135 = SECURITY_CLASSIFICATION ( '', '', #69 ) ;
#136 = CC_DESIGN_PERSON_AND_ORGANIZATION_ASSIGNMENT ( #375, #137, ( #135 ) ) ;
#137 = PERSON_AND_ORGANIZATION_ROLE ( 'classification_officer' ) ;
#138 = ORIENTED_EDGE ( 'NONE', *, *, #433, .T. ) ;
#139 = CARTESIAN_POINT ( 'NONE',  ( 3.500000000000000000, 0.000000000000000000, -4.000000000000000000 ) ) ;
#140 = DATE_TIME_ROLE ( 'creation_date' ) ;
#141 = LINE ( 'NONE', #303, #434 ) ;
#142 = EDGE_CURVE ( 'NONE', #166, #160, #385, .T. ) ;
#143 = VECTOR ( 'NONE', #342, 1000.000000000000114 ) ;
#144 = VECTOR ( 'NONE', #315, 1000.000000000000114 ) ;
#145 = PERSON_AND_ORGANIZATION_ROLE ( 'creator' ) ;
#146 = CARTESIAN_POINT ( 'NONE',  ( 0.000000000000000000, 0.000000000000000000, -4.000000000000000000 ) ) ;
#147 = CARTESIAN_POINT ( 'NONE',  ( -1.580000000000000071, -0.9122134253199999376, 0.000000000000000000 ) ) ;
#148 = DIRECTION ( 'NONE',  ( 0.000000000000000000, 0.000000000000000000, 1.000000000000000000 ) ) ;
#149 = CARTESIAN_POINT ( 'NONE',  ( -1.580000000000000071, 0.9122134253199999376, -2.000000000000000000 ) ) ;
#150 = VECTOR ( 'NONE', #400, 1000.000000000000114 ) ;
#151 = CYLINDRICAL_SURFACE ( 'NONE', #122, 1.899999999999999911 ) ;
#152 = EDGE_LOOP ( 'NONE', ( #320, #11 ) ) ;
#153 = DIRECTION ( 'NONE',  ( 0.000000000000000000, 0.000000000000000000, 1.000000000000000000 ) ) ;
#154 = ADVANCED_FACE ( 'NONE', ( #505 ), #98, .F. ) ;
#155 = DIRECTION ( 'NONE',  ( 0.000000000000000000, 0.000000000000000000, 1.000000000000000000 ) ) ;
#156 = ORIENTED_EDGE ( 'NONE', *, *, #74, .T. ) ;
#157 = AXIS2_PLACEMENT_3D ( 'NONE', #51, #95, #56 ) ;
#158 = CARTESIAN_POINT ( 'NONE',  ( 0.000000000000000000, 0.000000000000000000, -34.00000000000000000 ) ) ;
#159 = CARTESIAN_POINT ( 'NONE',  ( 1.580000000000000071, -0.9122134253199999376, 0.000000000000000000 ) ) ;
#160 = VERTEX_POINT ( 'NONE', #3 ) ;
#161 = ADVANCED_FACE ( 'NONE', ( #466 ), #72, .T. ) ;
#162 = DIRECTION ( 'NONE',  ( -0.1994800280622450739, 2.442925778602526543E-17, 0.9799018922342613847 ) ) ;
#163 = EDGE_LOOP ( 'NONE', ( #91, #329 ) ) ;
#164 = CARTESIAN_POINT ( 'NONE',  ( 1.580000000000000071, 0.9122134253199999376, 0.000000000000000000 ) ) ;
#165 = AXIS2_PLACEMENT_3D ( 'NONE', #383, #270, #25 ) ;
#166 = VERTEX_POINT ( 'NONE', #437 ) ;
#167 = FACE_OUTER_BOUND ( 'NONE', #445, .T. ) ;
#168 = EDGE_LOOP ( 'NONE', ( #235, #484, #211, #390 ) ) ;
#169 = DIRECTION ( 'NONE',  ( 0.000000000000000000, 0.000000000000000000, -1.000000000000000000 ) ) ;
#170 = EDGE_LOOP ( 'NONE', ( #393, #239, #281, #250 ) ) ;
#171 = EDGE_CURVE ( 'NONE', #244, #327, #509, .T. ) ;
#172 = ORIENTED_EDGE ( 'NONE', *, *, #74, .F. ) ;
#173 = CIRCLE ( 'NONE', #241, 1.899999999999999911 ) ;
#174 = DATE_TIME_ROLE ( 'classification_date' ) ;
#175 = DIRECTION ( 'NONE',  ( -0.8660254037843289066, 0.5000000000001899592, 0.000000000000000000 ) ) ;
#176 = PERSON_AND_ORGANIZATION ( #18446744073709551615, #18446744073709551615 ) ;
#177 = ADVANCED_FACE ( 'NONE', ( #353, #229 ), #311, .T. ) ;
#178 = FACE_OUTER_BOUND ( 'NONE', #247, .T. ) ;
#179 = CALENDAR_DATE ( 2026, 14, 9 ) ;
#180 = CARTESIAN_POINT ( 'NONE',  ( -3.351417754371000224E-16, -1.824426850638999786, 0.000000000000000000 ) ) ;
#181 = AXIS2_PLACEMENT_3D ( 'NONE', #477, #485, #169 ) ;
#182 = CARTESIAN_POINT ( 'NONE',  ( -3.351417754371000224E-16, -1.824426850638999786, 0.000000000000000000 ) ) ;
#183 = DIRECTION ( 'NONE',  ( 0.000000000000000000, 0.000000000000000000, 1.000000000000000000 ) ) ;
#184 = PLANE ( 'NONE',  #133 ) ;
#185 = APPROVAL_STATUS ( 'not_yet_approved' ) ;
#186 = DIRECTION ( 'NONE',  ( 1.000000000000000000, 0.000000000000000000, 0.000000000000000000 ) ) ;
#187 = VERTEX_POINT ( 'NONE', #113 ) ;
#188 = VECTOR ( 'NONE', #87, 1000.000000000000000 ) ;
#189 = DIRECTION ( 'NONE',  ( 1.000000000000000000, 0.000000000000000000, 0.000000000000000000 ) ) ;
#190 = ORIENTED_EDGE ( 'NONE', *, *, #312, .F. ) ;
#191 = DATE_AND_TIME ( #425, #197 ) ;
#192 = CARTESIAN_POINT ( 'NONE',  ( 1.014220826152000071E-16, 1.014220826152000010E-17, -2.000000000000000000 ) ) ;
#193 = ORIENTED_EDGE ( 'NONE', *, *, #120, .T. ) ;
#194 = CARTESIAN_POINT ( 'NONE',  ( -1.899999999999999911, 2.326828918379971365E-16, -34.00000000000000000 ) ) ;
#195 = ORIENTED_EDGE ( 'NONE', *, *, #316, .T. ) ;
#196 = AXIS2_PLACEMENT_3D ( 'NONE', #192, #389, #189 ) ;
#197 = LOCAL_TIME ( 10, 32, 39.00000000000000000, #273 ) ;
#198 = LINE ( 'NONE', #149, #188 ) ;
#199 = UNCERTAINTY_MEASURE_WITH_UNIT (LENGTH_MEASURE( 1.000000000000000082E-05 ), #419, 'distance_accuracy_value', 'NONE');
#200 = DIRECTION ( 'NONE',  ( 0.000000000000000000, 0.000000000000000000, -1.000000000000000000 ) ) ;
#201 = EDGE_LOOP ( 'NONE', ( #508, #44 ) ) ;
#202 = PRODUCT_RELATED_PRODUCT_CATEGORY ( 'detail', '', ( #134 ) ) ;
#203 = CARTESIAN_POINT ( 'NONE',  ( -3.351417754371000224E-16, -1.824426850638999786, -2.000000000000000000 ) ) ;
#204 = VERTEX_POINT ( 'NONE', #116 ) ;
#205 = LINE ( 'NONE', #371, #475 ) ;
#206 = VECTOR ( 'NONE', #432, 1000.000000000000114 ) ;
#207 = VECTOR ( 'NONE', #341, 1000.000000000000114 ) ;
#208 = VERTEX_POINT ( 'NONE', #38 ) ;
#209 = ADVANCED_FACE ( 'NONE', ( #236 ), #151, .T. ) ;
#210 = DIRECTION ( 'NONE',  ( 0.000000000000000000, 0.000000000000000000, -1.000000000000000000 ) ) ;
#211 = ORIENTED_EDGE ( 'NONE', *, *, #464, .T. ) ;
#212 = EDGE_CURVE ( 'NONE', #208, #37, #428, .T. ) ;
#213 = DIRECTION ( 'NONE',  ( 0.000000000000000000, 0.000000000000000000, 1.000000000000000000 ) ) ;
#214 = ORIENTED_EDGE ( 'NONE', *, *, #457, .F. ) ;
#215 = CARTESIAN_POINT ( 'NONE',  ( 0.000000000000000000, 0.000000000000000000, 0.000000000000000000 ) ) ;
#216 = CARTESIAN_POINT ( 'NONE',  ( 0.000000000000000000, 0.000000000000000000, 0.000000000000000000 ) ) ;
#217 = AXIS2_PLACEMENT_3D ( 'NONE', #456, #100, #260 ) ;
#218 = EDGE_CURVE ( 'NONE', #166, #126, #77, .T. ) ;
#219 = LINE ( 'NONE', #180, #143 ) ;
#220 = APPROVAL_ROLE ( '' ) ;
#221 = CARTESIAN_POINT ( 'NONE',  ( -1.899999999999999911, 2.326828918379971365E-16, -4.000000000000000000 ) ) ;
#222 = PERSON_AND_ORGANIZATION_ROLE ( 'design_supplier' ) ;
#223 = CARTESIAN_POINT ( 'NONE',  ( -1.580000000000000071, 0.9122134253199999376, -2.000000000000000000 ) ) ;
#224 = CLOSED_SHELL ( 'NONE', ( #504, #395, #382, #240, #124, #225, #209, #154, #338, #104, #431, #31, #50, #23, #177, #161 ) ) ;
#225 = ADVANCED_FACE ( 'NONE', ( #470 ), #234, .T. ) ;
#226 = CARTESIAN_POINT ( 'NONE',  ( -1.580000000000000071, -0.9122134253199999376, 0.000000000000000000 ) ) ;
#227 = CC_DESIGN_PERSON_AND_ORGANIZATION_ASSIGNMENT ( #455, #262, ( #134 ) ) ;
#228 = MANIFOLD_SOLID_BREP ( '73290b59de2b[1]', #224 ) ;
#229 = FACE_OUTER_BOUND ( 'NONE', #163, .T. ) ;
#230 = EDGE_LOOP ( 'NONE', ( #337, #404, #9, #396, #256, #332 ) ) ;
#231 = DIRECTION ( 'NONE',  ( 0.000000000000000000, 0.000000000000000000, 1.000000000000000000 ) ) ;
#232 = ORIENTED_EDGE ( 'NONE', *, *, #212, .F. ) ;
#233 = CC_DESIGN_DATE_AND_TIME_ASSIGNMENT ( #460, #140, ( #366 ) ) ;
#234 = PLANE ( 'NONE',  #196 ) ;
#235 = ORIENTED_EDGE ( 'NONE', *, *, #268, .F. ) ;
#236 = FACE_OUTER_BOUND ( 'NONE', #168, .T. ) ;
#237 = ORIENTED_EDGE ( 'NONE', *, *, #356, .F. ) ;
#238 = LINE ( 'NONE', #468, #144 ) ;
#239 = ORIENTED_EDGE ( 'NONE', *, *, #60, .T. ) ;
#240 = ADVANCED_FACE ( 'NONE', ( #394 ), #507, .F. ) ;
#241 = AXIS2_PLACEMENT_3D ( 'NONE', #448, #54, #125 ) ;
#242 = AXIS2_PLACEMENT_3D ( 'NONE', #403, #483, #10 ) ;
#243 = CARTESIAN_POINT ( 'NONE',  ( 1.899999999999999911, 0.000000000000000000, -32.59999999999999432 ) ) ;
#244 = VERTEX_POINT ( 'NONE', #439 ) ;
#245 = CC_DESIGN_PERSON_AND_ORGANIZATION_ASSIGNMENT ( #502, #309, ( #366 ) ) ;
#246 = CARTESIAN_POINT ( 'NONE',  ( 0.000000000000000000, 0.000000000000000000, -32.59999999999999432 ) ) ;
#247 = EDGE_LOOP ( 'NONE', ( #195, #406, #359, #73 ) ) ;
#248 = PRODUCT_DEFINITION_SHAPE ( 'NONE', 'NONE',  #366 ) ;
#249 = CARTESIAN_POINT ( 'NONE',  ( -1.614999999999999991, 2.152316749501494072E-16, -34.00000000000000000 ) ) ;
#250 = ORIENTED_EDGE ( 'NONE', *, *, #343, .F. ) ;
#251 = DIRECTION ( 'NONE',  ( 1.000000000000000000, 0.000000000000000000, 0.000000000000000000 ) ) ;
#252 = CIRCLE ( 'NONE', #321, 1.614999999999999991 ) ;
#253 = AXIS2_PLACEMENT_3D ( 'NONE', #58, #259, #339 ) ;
#254 = ORIENTED_EDGE ( 'NONE', *, *, #308, .T. ) ;
#255 = CARTESIAN_POINT ( 'NONE',  ( 0.000000000000000000, 0.000000000000000000, 0.000000000000000000 ) ) ;
#256 = ORIENTED_EDGE ( 'NONE', *, *, #402, .F. ) ;
#257 = APPROVAL_DATE_TIME ( #344, #283 ) ;
#258 = PLANE ( 'NONE',  #370 ) ;
#259 = DIRECTION ( 'NONE',  ( 0.000000000000000000, 0.000000000000000000, 1.000000000000000000 ) ) ;
#260 = DIRECTION ( 'NONE',  ( -1.217064991381999788E-16, 1.000000000000000000, 0.000000000000000000 ) ) ;
#261 = VECTOR ( 'NONE', #408, 1000.000000000000114 ) ;
#262 = PERSON_AND_ORGANIZATION_ROLE ( 'design_owner' ) ;
#263 = EDGE_CURVE ( 'NONE', #327, #49, #238, .T. ) ;
#264 = PLANE ( 'NONE',  #352 ) ;
#265 = APPLICATION_PROTOCOL_DEFINITION ( 'international standard', 'config_control_design', 1994, #15 ) ;
#266 = CARTESIAN_POINT ( 'NONE',  ( 1.117139251456999993E-16, 1.824426850638999786, 0.000000000000000000 ) ) ;
#267 = EDGE_CURVE ( 'NONE', #323, #440, #252, .T. ) ;
#268 = EDGE_CURVE ( 'NONE', #76, #83, #397, .T. ) ;
#269 = EDGE_CURVE ( 'NONE', #126, #166, #360, .T. ) ;
#270 = DIRECTION ( 'NONE',  ( 0.000000000000000000, 0.000000000000000000, 1.000000000000000000 ) ) ;
#271 = CIRCLE ( 'NONE', #498, 1.899999999999999911 ) ;
#272 = APPROVAL_PERSON_ORGANIZATION ( #176, #480, #491 ) ;
#273 = COORDINATED_UNIVERSAL_TIME_OFFSET ( 3, 0, .BEHIND. ) ;
#274 = CARTESIAN_POINT ( 'NONE',  ( -1.580000000000000071, -0.9122134253199999376, -2.000000000000000000 ) ) ;
#275 = CARTESIAN_POINT ( 'NONE',  ( 1.117139251456999993E-16, 1.824426850638999786, 0.000000000000000000 ) ) ;
#276 = EDGE_CURVE ( 'NONE', #412, #204, #36, .T. ) ;
#277 = DIRECTION ( 'NONE',  ( 0.000000000000000000, 0.000000000000000000, 1.000000000000000000 ) ) ;
#278 = VECTOR ( 'NONE', #210, 1000.000000000000000 ) ;
#279 = CARTESIAN_POINT ( 'NONE',  ( 0.000000000000000000, 0.000000000000000000, -34.00000000000000000 ) ) ;
#280 = DIRECTION ( 'NONE',  ( 0.000000000000000000, 0.000000000000000000, -1.000000000000000000 ) ) ;
#281 = ORIENTED_EDGE ( 'NONE', *, *, #305, .F. ) ;
#282 = DIRECTION ( 'NONE',  ( 0.000000000000000000, 0.000000000000000000, 1.000000000000000000 ) ) ;
#283 = APPROVAL ( #106, 'Coincidente' ) ;
#284 = ORIENTED_EDGE ( 'NONE', *, *, #312, .T. ) ;
#285 = AXIS2_PLACEMENT_3D ( 'NONE', #216, #423, #414 ) ;
#286 = CARTESIAN_POINT ( 'NONE',  ( -1.580000000000000071, 0.9122134253199999376, 0.000000000000000000 ) ) ;
#287 = EDGE_LOOP ( 'NONE', ( #290, #365, #232, #452 ) ) ;
#288 = EDGE_CURVE ( 'NONE', #76, #52, #271, .T. ) ;
#289 = LINE ( 'NONE', #164, #53 ) ;
#290 = ORIENTED_EDGE ( 'NONE', *, *, #494, .T. ) ;
#291 = APPROVAL ( #185, 'Coincidente' ) ;
#292 = LINE ( 'NONE', #462, #435 ) ;
#293 = ORIENTED_EDGE ( 'NONE', *, *, #268, .T. ) ;
#294 = CARTESIAN_POINT ( 'NONE',  ( 1.580000000000000071, 0.9122134253199999376, -2.000000000000000000 ) ) ;
#295 = VECTOR ( 'NONE', #495, 1000.000000000000000 ) ;
#296 =( GEOMETRIC_REPRESENTATION_CONTEXT ( 3 ) GLOBAL_UNCERTAINTY_ASSIGNED_CONTEXT ( ( #199 ) ) GLOBAL_UNIT_ASSIGNED_CONTEXT ( ( #419, #417, #493 ) ) REPRESENTATION_CONTEXT ( 'NONE', 'WORKASPACE' ) );
#297 = ORIENTED_EDGE ( 'NONE', *, *, #263, .T. ) ;
#298 = DIRECTION ( 'NONE',  ( 1.000000000000000000, 0.000000000000000000, 0.000000000000000000 ) ) ;
#299 = LINE ( 'NONE', #418, #295 ) ;
#300 = DIRECTION ( 'NONE',  ( 0.000000000000000000, 0.000000000000000000, 1.000000000000000000 ) ) ;
#301 = EDGE_CURVE ( 'NONE', #478, #37, #1, .T. ) ;
#302 = FACE_OUTER_BOUND ( 'NONE', #40, .T. ) ;
#303 = CARTESIAN_POINT ( 'NONE',  ( -1.580000000000000071, -0.9122134253199999376, 0.000000000000000000 ) ) ;
#304 = AXIS2_PLACEMENT_3D ( 'NONE', #110, #153, #322 ) ;
#305 = EDGE_CURVE ( 'NONE', #49, #208, #198, .T. ) ;
#306 = PERSON_AND_ORGANIZATION ( #18446744073709551615, #18446744073709551615 ) ;
#307 = CARTESIAN_POINT ( 'NONE',  ( -3.351417754371000224E-16, -1.824426850638999786, -2.000000000000000000 ) ) ;
#308 = EDGE_CURVE ( 'NONE', #412, #86, #16, .T. ) ;
#309 = PERSON_AND_ORGANIZATION_ROLE ( 'creator' ) ;
#310 = DIRECTION ( 'NONE',  ( -0.5000000000001900702, 0.8660254037843290176, 0.000000000000000000 ) ) ;
#311 = PLANE ( 'NONE',  #304 ) ;
#312 = EDGE_CURVE ( 'NONE', #37, #86, #479, .T. ) ;
#313 = VECTOR ( 'NONE', #446, 1000.000000000000000 ) ;
#314 = CC_DESIGN_APPROVAL ( #291, ( #135 ) ) ;
#315 = DIRECTION ( 'NONE',  ( -0.8660254037843289066, -0.5000000000001899592, 0.000000000000000000 ) ) ;
#316 = EDGE_CURVE ( 'NONE', #244, #372, #119, .T. ) ;
#317 = SHAPE_DEFINITION_REPRESENTATION ( #248, #354 ) ;
#318 = DIRECTION ( 'NONE',  ( 1.000000000000000000, 0.000000000000000000, 0.000000000000000000 ) ) ;
#319 = DIRECTION ( 'NONE',  ( 0.000000000000000000, 0.000000000000000000, -1.000000000000000000 ) ) ;
#320 = ORIENTED_EDGE ( 'NONE', *, *, #267, .F. ) ;
#321 = AXIS2_PLACEMENT_3D ( 'NONE', #158, #155, #79 ) ;
#322 = DIRECTION ( 'NONE',  ( 1.000000000000000000, 0.000000000000000000, 0.000000000000000000 ) ) ;
#323 = VERTEX_POINT ( 'NONE', #121 ) ;
#324 = DIRECTION ( 'NONE',  ( 1.000000000000000000, 0.000000000000000000, 0.000000000000000000 ) ) ;
#325 = EDGE_LOOP ( 'NONE', ( #129, #112, #398, #449 ) ) ;
#326 = FACE_OUTER_BOUND ( 'NONE', #325, .T. ) ;
#327 = VERTEX_POINT ( 'NONE', #364 ) ;
#328 = DIRECTION ( 'NONE',  ( -0.8660254037843289066, 0.5000000000001899592, 0.000000000000000000 ) ) ;
#329 = ORIENTED_EDGE ( 'NONE', *, *, #82, .T. ) ;
#330 = EDGE_CURVE ( 'NONE', #83, #187, #115, .T. ) ;
#331 = LINE ( 'NONE', #92, #278 ) ;
#332 = ORIENTED_EDGE ( 'NONE', *, *, #316, .F. ) ;
#333 = CARTESIAN_POINT ( 'NONE',  ( 1.117139251456999993E-16, 1.824426850638999786, 0.000000000000000000 ) ) ;
#334 = ORIENTED_EDGE ( 'NONE', *, *, #171, .T. ) ;
#335 = VECTOR ( 'NONE', #392, 1000.000000000000000 ) ;
#336 = EDGE_CURVE ( 'NONE', #52, #76, #173, .T. ) ;
#337 = ORIENTED_EDGE ( 'NONE', *, *, #433, .F. ) ;
#338 = ADVANCED_FACE ( 'NONE', ( #167 ), #487, .F. ) ;
#339 = DIRECTION ( 'NONE',  ( 1.000000000000000000, 0.000000000000000000, 0.000000000000000000 ) ) ;
#340 = CARTESIAN_POINT ( 'NONE',  ( 3.500000000000000000, 0.000000000000000000, 0.000000000000000000 ) ) ;
#341 = DIRECTION ( 'NONE',  ( 0.8660254037843289066, -0.5000000000001899592, 0.000000000000000000 ) ) ;
#342 = DIRECTION ( 'NONE',  ( 0.8660254037843289066, 0.5000000000001899592, 0.000000000000000000 ) ) ;
#343 = EDGE_CURVE ( 'NONE', #372, #49, #331, .T. ) ;
#344 = DATE_AND_TIME ( #179, #500 ) ;
#345 = CIRCLE ( 'NONE', #285, 3.500000000000000000 ) ;
#346 = CARTESIAN_POINT ( 'NONE',  ( 1.580000000000000071, -0.9122134253199999376, -2.000000000000000000 ) ) ;
#347 = CALENDAR_DATE ( 2026, 14, 9 ) ;
#348 = FACE_OUTER_BOUND ( 'NONE', #4, .T. ) ;
#349 = DIRECTION ( 'NONE',  ( 0.000000000000000000, 0.000000000000000000, 1.000000000000000000 ) ) ;
#350 = CARTESIAN_POINT ( 'NONE',  ( 0.000000000000000000, 0.000000000000000000, -4.000000000000000000 ) ) ;
#351 = ORIENTED_EDGE ( 'NONE', *, *, #336, .T. ) ;
#352 = AXIS2_PLACEMENT_3D ( 'NONE', #380, #183, #107 ) ;
#353 = FACE_BOUND ( 'NONE', #230, .T. ) ;
#354 = ADVANCED_BREP_SHAPE_REPRESENTATION ( 'socket_head_cap_screw_M4_l30mm_plain', ( #228, #94 ), #296 ) ;
#355 = DIRECTION ( 'NONE',  ( 0.000000000000000000, 0.000000000000000000, 1.000000000000000000 ) ) ;
#356 = EDGE_CURVE ( 'NONE', #440, #76, #373, .T. ) ;
#357 = APPROVAL_DATE_TIME ( #191, #291 ) ;
#358 = DIRECTION ( 'NONE',  ( 1.000000000000000000, 0.000000000000000000, 0.000000000000000000 ) ) ;
#359 = ORIENTED_EDGE ( 'NONE', *, *, #263, .F. ) ;
#360 = CIRCLE ( 'NONE', #369, 3.500000000000000000 ) ;
#361 = CC_DESIGN_APPROVAL ( #283, ( #467 ) ) ;
#362 = CARTESIAN_POINT ( 'NONE',  ( 0.000000000000000000, 0.000000000000000000, -4.000000000000000000 ) ) ;
#363 = VERTEX_POINT ( 'NONE', #294 ) ;
#364 = CARTESIAN_POINT ( 'NONE',  ( 1.117139251456999993E-16, 1.824426850638999786, -2.000000000000000000 ) ) ;
#365 = ORIENTED_EDGE ( 'NONE', *, *, #301, .T. ) ;
#366 = PRODUCT_DEFINITION ( 'General', '', #467, #108 ) ;
#367 = FACE_OUTER_BOUND ( 'NONE', #123, .T. ) ;
#368 = ORIENTED_EDGE ( 'NONE', *, *, #218, .T. ) ;
#369 = AXIS2_PLACEMENT_3D ( 'NONE', #39, #231, #358 ) ;
#370 = AXIS2_PLACEMENT_3D ( 'NONE', #266, #310, #103 ) ;
#371 = CARTESIAN_POINT ( 'NONE',  ( 1.580000000000000071, 0.9122134253199999376, -2.000000000000000000 ) ) ;
#372 = VERTEX_POINT ( 'NONE', #451 ) ;
#373 = LINE ( 'NONE', #48, #465 ) ;
#374 = ORIENTED_EDGE ( 'NONE', *, *, #142, .T. ) ;
#375 = PERSON_AND_ORGANIZATION ( #18446744073709551615, #18446744073709551615 ) ;
#376 = ORIENTED_EDGE ( 'NONE', *, *, #464, .F. ) ;
#377 = CALENDAR_DATE ( 2026, 14, 9 ) ;
#378 = AXIS2_PLACEMENT_3D ( 'NONE', #146, #65, #27 ) ;
#379 = CARTESIAN_POINT ( 'NONE',  ( 1.580000000000000071, 0.9122134253199999376, 0.000000000000000000 ) ) ;
#380 = CARTESIAN_POINT ( 'NONE',  ( 0.000000000000000000, 0.000000000000000000, -4.000000000000000000 ) ) ;
#381 = COORDINATED_UNIVERSAL_TIME_OFFSET ( 3, 0, .BEHIND. ) ;
#382 = ADVANCED_FACE ( 'NONE', ( #326 ), #20, .T. ) ;
#383 = CARTESIAN_POINT ( 'NONE',  ( 0.000000000000000000, 0.000000000000000000, -34.00000000000000000 ) ) ;
#384 = DIRECTION ( 'NONE',  ( 0.000000000000000000, 0.000000000000000000, 1.000000000000000000 ) ) ;
#385 = LINE ( 'NONE', #30, #399 ) ;
#386 = LOCAL_TIME ( 10, 32, 39.00000000000000000, #496 ) ;
#387 = FACE_OUTER_BOUND ( 'NONE', #47, .T. ) ;
#388 = DIRECTION ( 'NONE',  ( 1.000000000000000000, 0.000000000000000000, 0.000000000000000000 ) ) ;
#389 = DIRECTION ( 'NONE',  ( 0.000000000000000000, 0.000000000000000000, 1.000000000000000000 ) ) ;
#390 = ORIENTED_EDGE ( 'NONE', *, *, #330, .F. ) ;
#391 = AXIS2_PLACEMENT_3D ( 'NONE', #362, #426, #388 ) ;
#392 = DIRECTION ( 'NONE',  ( 0.000000000000000000, 0.000000000000000000, 1.000000000000000000 ) ) ;
#393 = ORIENTED_EDGE ( 'NONE', *, *, #402, .T. ) ;
#394 = FACE_OUTER_BOUND ( 'NONE', #152, .T. ) ;
#395 = ADVANCED_FACE ( 'NONE', ( #367 ), #405, .T. ) ;
#396 = ORIENTED_EDGE ( 'NONE', *, *, #494, .F. ) ;
#397 = LINE ( 'NONE', #194, #335 ) ;
#398 = ORIENTED_EDGE ( 'NONE', *, *, #336, .F. ) ;
#399 = VECTOR ( 'NONE', #349, 1000.000000000000000 ) ;
#400 = DIRECTION ( 'NONE',  ( 0.1994800280622450739, 0.000000000000000000, 0.9799018922342613847 ) ) ;
#401 = ORIENTED_EDGE ( 'NONE', *, *, #120, .F. ) ;
#402 = EDGE_CURVE ( 'NONE', #372, #438, #128, .T. ) ;
#403 = CARTESIAN_POINT ( 'NONE',  ( -1.580000000000000071, 0.9122134253199999376, 0.000000000000000000 ) ) ;
#404 = ORIENTED_EDGE ( 'NONE', *, *, #276, .F. ) ;
#405 = CYLINDRICAL_SURFACE ( 'NONE', #157, 1.899999999999999911 ) ;
#406 = ORIENTED_EDGE ( 'NONE', *, *, #343, .T. ) ;
#407 = AXIS2_PLACEMENT_3D ( 'NONE', #255, #6, #441 ) ;
#408 = DIRECTION ( 'NONE',  ( -0.8660254037843289066, -0.5000000000001899592, 0.000000000000000000 ) ) ;
#409 = ORIENTED_EDGE ( 'NONE', *, *, #457, .T. ) ;
#410 = EDGE_CURVE ( 'NONE', #57, #160, #85, .T. ) ;
#411 = CARTESIAN_POINT ( 'NONE',  ( 0.000000000000000000, 0.000000000000000000, -4.000000000000000000 ) ) ;
#412 = VERTEX_POINT ( 'NONE', #159 ) ;
#413 = COORDINATED_UNIVERSAL_TIME_OFFSET ( 3, 0, .BEHIND. ) ;
#414 = DIRECTION ( 'NONE',  ( 1.000000000000000000, 0.000000000000000000, 0.000000000000000000 ) ) ;
#415 = VECTOR ( 'NONE', #319, 1000.000000000000000 ) ;
#416 = CARTESIAN_POINT ( 'NONE',  ( 1.580000000000000071, -0.9122134253199999376, -2.000000000000000000 ) ) ;
#417 =( NAMED_UNIT ( * ) PLANE_ANGLE_UNIT ( ) SI_UNIT ( $, .RADIAN. ) );
#418 = CARTESIAN_POINT ( 'NONE',  ( 1.580000000000000071, 0.9122134253199999376, 0.000000000000000000 ) ) ;
#419 =( LENGTH_UNIT ( ) NAMED_UNIT ( * ) SI_UNIT ( .MILLI., .METRE. ) );
#420 = DIRECTION ( 'NONE',  ( 1.000000000000000000, 0.000000000000000000, 0.000000000000000000 ) ) ;
#421 = PERSON_AND_ORGANIZATION ( #18446744073709551615, #18446744073709551615 ) ;
#422 = VECTOR ( 'NONE', #459, 1000.000000000000000 ) ;
#423 = DIRECTION ( 'NONE',  ( 0.000000000000000000, 0.000000000000000000, 1.000000000000000000 ) ) ;
#424 = LOCAL_TIME ( 10, 32, 39.00000000000000000, #413 ) ;
#425 = CALENDAR_DATE ( 2026, 14, 9 ) ;
#426 = DIRECTION ( 'NONE',  ( 0.000000000000000000, 0.000000000000000000, 1.000000000000000000 ) ) ;
#427 = EDGE_CURVE ( 'NONE', #323, #52, #84, .T. ) ;
#428 = LINE ( 'NONE', #274, #206 ) ;
#429 = ORIENTED_EDGE ( 'NONE', *, *, #308, .F. ) ;
#430 = PERSON_AND_ORGANIZATION ( #18446744073709551615, #18446744073709551615 ) ;
#431 = ADVANCED_FACE ( 'NONE', ( #46 ), #444, .F. ) ;
#432 = DIRECTION ( 'NONE',  ( 0.8660254037843289066, -0.5000000000001899592, 0.000000000000000000 ) ) ;
#433 = EDGE_CURVE ( 'NONE', #204, #244, #289, .T. ) ;
#434 = VECTOR ( 'NONE', #63, 1000.000000000000000 ) ;
#435 = VECTOR ( 'NONE', #384, 1000.000000000000000 ) ;
#436 = APPROVAL_ROLE ( '' ) ;
#437 = CARTESIAN_POINT ( 'NONE',  ( -3.500000000000000000, 4.286263797015736595E-16, -4.000000000000000000 ) ) ;
#438 = VERTEX_POINT ( 'NONE', #90 ) ;
#439 = CARTESIAN_POINT ( 'NONE',  ( 1.117139251456999993E-16, 1.824426850638999786, 0.000000000000000000 ) ) ;
#440 = VERTEX_POINT ( 'NONE', #249 ) ;
#441 = DIRECTION ( 'NONE',  ( 1.000000000000000000, 0.000000000000000000, 0.000000000000000000 ) ) ;
#442 = ORIENTED_EDGE ( 'NONE', *, *, #288, .F. ) ;
#443 = CIRCLE ( 'NONE', #378, 1.899999999999999911 ) ;
#444 = PLANE ( 'NONE',  #242 ) ;
#445 = EDGE_LOOP ( 'NONE', ( #117, #254, #190, #114 ) ) ;
#446 = DIRECTION ( 'NONE',  ( -3.651194974145999857E-16, -1.000000000000000000, 0.000000000000000000 ) ) ;
#447 = ORIENTED_EDGE ( 'NONE', *, *, #131, .F. ) ;
#448 = CARTESIAN_POINT ( 'NONE',  ( 0.000000000000000000, 0.000000000000000000, -32.59999999999999432 ) ) ;
#449 = ORIENTED_EDGE ( 'NONE', *, *, #427, .F. ) ;
#450 = LOCAL_TIME ( 10, 32, 39.00000000000000000, #99 ) ;
#451 = CARTESIAN_POINT ( 'NONE',  ( -1.580000000000000071, 0.9122134253199999376, 0.000000000000000000 ) ) ;
#452 = ORIENTED_EDGE ( 'NONE', *, *, #60, .F. ) ;
#453 = MECHANICAL_CONTEXT ( 'NONE', #15, 'mechanical' ) ;
#454 = DIRECTION ( 'NONE',  ( -0.5000000000001900702, -0.8660254037843290176, 0.000000000000000000 ) ) ;
#455 = PERSON_AND_ORGANIZATION ( #18446744073709551615, #18446744073709551615 ) ;
#456 = CARTESIAN_POINT ( 'NONE',  ( 1.580000000000000071, -0.9122134253199999376, 0.000000000000000000 ) ) ;
#457 = EDGE_CURVE ( 'NONE', #363, #327, #205, .T. ) ;
#458 = CONICAL_SURFACE ( 'NONE', #12, 1.899999999999999911, 0.2008272553700000129 ) ;
#459 = DIRECTION ( 'NONE',  ( -1.217064991381999788E-16, 1.000000000000000000, 0.000000000000000000 ) ) ;
#460 = DATE_AND_TIME ( #499, #450 ) ;
#461 = PLANE ( 'NONE',  #35 ) ;
#462 = CARTESIAN_POINT ( 'NONE',  ( 1.899999999999999911, 0.000000000000000000, -34.00000000000000000 ) ) ;
#463 = FACE_OUTER_BOUND ( 'NONE', #201, .T. ) ;
#464 = EDGE_CURVE ( 'NONE', #52, #187, #292, .T. ) ;
#465 = VECTOR ( 'NONE', #162, 1000.000000000000114 ) ;
#466 = FACE_OUTER_BOUND ( 'NONE', #469, .T. ) ;
#467 = PRODUCT_DEFINITION_FORMATION_WITH_SPECIFIED_SOURCE ( 'Simétric', '', #134, .NOT_KNOWN. ) ;
#468 = CARTESIAN_POINT ( 'NONE',  ( 1.117139251456999993E-16, 1.824426850638999786, -2.000000000000000000 ) ) ;
#469 = EDGE_LOOP ( 'NONE', ( #2, #368, #7, #471 ) ) ;
#470 = FACE_OUTER_BOUND ( 'NONE', #19, .T. ) ;
#471 = ORIENTED_EDGE ( 'NONE', *, *, #82, .F. ) ;
#472 = CC_DESIGN_PERSON_AND_ORGANIZATION_ASSIGNMENT ( #306, #222, ( #467 ) ) ;
#473 = DIRECTION ( 'NONE',  ( 0.000000000000000000, 0.000000000000000000, 1.000000000000000000 ) ) ;
#474 = VECTOR ( 'NONE', #280, 1000.000000000000000 ) ;
#475 = VECTOR ( 'NONE', #13, 1000.000000000000114 ) ;
#476 = CARTESIAN_POINT ( 'NONE',  ( 0.000000000000000000, 0.000000000000000000, -32.59999999999999432 ) ) ;
#477 = CARTESIAN_POINT ( 'NONE',  ( -3.351417754371000224E-16, -1.824426850638999786, 0.000000000000000000 ) ) ;
#478 = VERTEX_POINT ( 'NONE', #182 ) ;
#479 = LINE ( 'NONE', #203, #109 ) ;
#480 = APPROVAL ( #18, 'Coincidente' ) ;
#481 = FACE_BOUND ( 'NONE', #80, .T. ) ;
#482 = VECTOR ( 'NONE', #200, 1000.000000000000000 ) ;
#483 = DIRECTION ( 'NONE',  ( -1.000000000000000000, 3.651194974145999857E-16, 0.000000000000000000 ) ) ;
#484 = ORIENTED_EDGE ( 'NONE', *, *, #288, .T. ) ;
#485 = DIRECTION ( 'NONE',  ( 0.5000000000001900702, -0.8660254037843290176, 0.000000000000000000 ) ) ;
#486 = ORIENTED_EDGE ( 'NONE', *, *, #41, .T. ) ;
#487 = PLANE ( 'NONE',  #181 ) ;
#488 = ORIENTED_EDGE ( 'NONE', *, *, #34, .T. ) ;
#489 = AXIS2_PLACEMENT_3D ( 'NONE', #75, #33, #186 ) ;
#490 = CC_DESIGN_SECURITY_CLASSIFICATION ( #135, ( #467 ) ) ;
#491 = APPROVAL_ROLE ( '' ) ;
#492 = ORIENTED_EDGE ( 'NONE', *, *, #212, .T. ) ;
#493 =( NAMED_UNIT ( * ) SI_UNIT ( $, .STERADIAN. ) SOLID_ANGLE_UNIT ( ) );
#494 = EDGE_CURVE ( 'NONE', #438, #478, #29, .T. ) ;
#495 = DIRECTION ( 'NONE',  ( 0.000000000000000000, 0.000000000000000000, -1.000000000000000000 ) ) ;
#496 = COORDINATED_UNIVERSAL_TIME_OFFSET ( 3, 0, .BEHIND. ) ;
#497 = CARTESIAN_POINT ( 'NONE',  ( 1.899999999999999911, 0.000000000000000000, -32.59999999999999432 ) ) ;
#498 = AXIS2_PLACEMENT_3D ( 'NONE', #476, #355, #42 ) ;
#499 = CALENDAR_DATE ( 2026, 14, 9 ) ;
#500 = LOCAL_TIME ( 10, 32, 39.00000000000000000, #381 ) ;
#501 = DIRECTION ( 'NONE',  ( 0.000000000000000000, 0.000000000000000000, -1.000000000000000000 ) ) ;
#502 = PERSON_AND_ORGANIZATION ( #18446744073709551615, #18446744073709551615 ) ;
#503 = DIRECTION ( 'NONE',  ( 0.5000000000001900702, 0.8660254037843290176, 0.000000000000000000 ) ) ;
#504 = ADVANCED_FACE ( 'NONE', ( #302 ), #62, .T. ) ;
#505 = FACE_OUTER_BOUND ( 'NONE', #17, .T. ) ;
#506 = VECTOR ( 'NONE', #81, 1000.000000000000000 ) ;
#507 = PLANE ( 'NONE',  #489 ) ;
#508 = ORIENTED_EDGE ( 'NONE', *, *, #269, .F. ) ;
#509 = LINE ( 'NONE', #275, #415 ) ;
#510 = CC_DESIGN_DATE_AND_TIME_ASSIGNMENT ( #22, #174, ( #135 ) ) ;
#511 = ORIENTED_EDGE ( 'NONE', *, *, #410, .F. ) ;
ENDSEC;
END-ISO-10303-21;
