ISO-10303-21;
HEADER;
FILE_DESCRIPTION (( 'STEP AP203' ),
    '1' );
FILE_NAME ('socket_head_cap_screw_M3_l20mm_plain.STEP',
    '2026-09-14T13:32:39',
    ( '' ),
    ( '' ),
    'SwSTEP 2.0',
    'SolidWorks 2026',
    '' );
FILE_SCHEMA (( 'CONFIG_CONTROL_DESIGN' ));
ENDSEC;

DATA;
#1 = FACE_OUTER_BOUND ( 'NONE', #326, .T. ) ;
#2 = VECTOR ( 'NONE', #293, 1000.000000000000000 ) ;
#3 = ORIENTED_EDGE ( 'NONE', *, *, #387, .F. ) ;
#4 = CALENDAR_DATE ( 2026, 14, 9 ) ;
#5 = CARTESIAN_POINT ( 'NONE',  ( -1.330000000000000071, -0.7678758580219999796, -1.300000000000000044 ) ) ;
#6 = ORIENTED_EDGE ( 'NONE', *, *, #178, .T. ) ;
#7 = CARTESIAN_POINT ( 'NONE',  ( 1.330000000000000071, 0.7678758580219999796, 0.000000000000000000 ) ) ;
#8 = ORIENTED_EDGE ( 'NONE', *, *, #130, .T. ) ;
#9 = CC_DESIGN_PERSON_AND_ORGANIZATION_ASSIGNMENT ( #464, #69, ( #45 ) ) ;
#10 = CARTESIAN_POINT ( 'NONE',  ( 0.000000000000000000, 0.000000000000000000, -22.00000000000000000 ) ) ;
#11 = ORIENTED_EDGE ( 'NONE', *, *, #337, .T. ) ;
#12 = AXIS2_PLACEMENT_3D ( 'NONE', #493, #482, #372 ) ;
#13 = CARTESIAN_POINT ( 'NONE',  ( 1.330000000000000071, -0.7678758580219999796, -1.300000000000000044 ) ) ;
#14 = ORIENTED_EDGE ( 'NONE', *, *, #25, .F. ) ;
#15 = EDGE_CURVE ( 'NONE', #414, #407, #17, .T. ) ;
#16 = LINE ( 'NONE', #287, #265 ) ;
#17 = LINE ( 'NONE', #102, #112 ) ;
#18 = CARTESIAN_POINT ( 'NONE',  ( 0.000000000000000000, 0.000000000000000000, -22.00000000000000000 ) ) ;
#19 = EDGE_LOOP ( 'NONE', ( #144, #6, #405, #23 ) ) ;
#20 = VECTOR ( 'NONE', #401, 1000.000000000000000 ) ;
#21 = VECTOR ( 'NONE', #30, 1000.000000000000000 ) ;
#22 = COORDINATED_UNIVERSAL_TIME_OFFSET ( 3, 0, .BEHIND. ) ;
#23 = ORIENTED_EDGE ( 'NONE', *, *, #46, .F. ) ;
#24 = DATE_AND_TIME ( #182, #220 ) ;
#25 = EDGE_CURVE ( 'NONE', #439, #173, #424, .T. ) ;
#26 = CARTESIAN_POINT ( 'NONE',  ( -2.750000000000000000, 3.367778697655221012E-16, -3.000000000000000000 ) ) ;
#27 = APPROVAL_DATE_TIME ( #24, #194 ) ;
#28 = DIRECTION ( 'NONE',  ( 1.000000000000000000, 0.000000000000000000, 0.000000000000000000 ) ) ;
#29 = AXIS2_PLACEMENT_3D ( 'NONE', #100, #93, #215 ) ;
#30 = DIRECTION ( 'NONE',  ( 0.000000000000000000, 0.000000000000000000, 1.000000000000000000 ) ) ;
#31 = DIRECTION ( 'NONE',  ( 0.000000000000000000, 0.000000000000000000, -1.000000000000000000 ) ) ;
#32 = EDGE_CURVE ( 'NONE', #243, #57, #426, .T. ) ;
#33 = DIRECTION ( 'NONE',  ( 1.000000000000000000, 0.000000000000000000, 0.000000000000000000 ) ) ;
#34 = CARTESIAN_POINT ( 'NONE',  ( -1.330000000000000071, 0.7678758580219999796, 0.000000000000000000 ) ) ;
#35 = LINE ( 'NONE', #391, #354 ) ;
#36 = VECTOR ( 'NONE', #176, 1000.000000000000000 ) ;
#37 = DIRECTION ( 'NONE',  ( -0.2055172342865889956, 2.516860231386878999E-17, 0.9786534966019337922 ) ) ;
#38 = PERSON_AND_ORGANIZATION ( #18446744073709551615, #18446744073709551615 ) ;
#39 = DIRECTION ( 'NONE',  ( 0.000000000000000000, 0.000000000000000000, 1.000000000000000000 ) ) ;
#40 = SHAPE_DEFINITION_REPRESENTATION ( #382, #396 ) ;
#41 = PLANE ( 'NONE',  #434 ) ;
#42 = ORIENTED_EDGE ( 'NONE', *, *, #377, .F. ) ;
#43 = LINE ( 'NONE', #443, #421 ) ;
#44 = AXIS2_PLACEMENT_3D ( 'NONE', #158, #120, #472 ) ;
#45 = SECURITY_CLASSIFICATION ( '', '', #186 ) ;
#46 = EDGE_CURVE ( 'NONE', #213, #81, #475, .T. ) ;
#47 = EDGE_CURVE ( 'NONE', #52, #371, #35, .T. ) ;
#48 = DIRECTION ( 'NONE',  ( 0.000000000000000000, 0.000000000000000000, 1.000000000000000000 ) ) ;
#49 = EDGE_LOOP ( 'NONE', ( #394, #137, #250, #237 ) ) ;
#50 = APPROVAL ( #113, 'Coincidente' ) ;
#51 = LINE ( 'NONE', #56, #36 ) ;
#52 = VERTEX_POINT ( 'NONE', #34 ) ;
#53 = DIRECTION ( 'NONE',  ( 0.000000000000000000, 0.000000000000000000, 1.000000000000000000 ) ) ;
#54 = VERTEX_POINT ( 'NONE', #501 ) ;
#55 = CIRCLE ( 'NONE', #319, 1.399999999999999911 ) ;
#56 = CARTESIAN_POINT ( 'NONE',  ( -1.330000000000000071, -0.7678758580219999796, 0.000000000000000000 ) ) ;
#57 = VERTEX_POINT ( 'NONE', #230 ) ;
#58 = DIRECTION ( 'NONE',  ( -1.445836606302999927E-16, 1.000000000000000000, 0.000000000000000000 ) ) ;
#59 = ORIENTED_EDGE ( 'NONE', *, *, #478, .F. ) ;
#60 = DIRECTION ( 'NONE',  ( 0.000000000000000000, 0.000000000000000000, 1.000000000000000000 ) ) ;
#61 = ORIENTED_EDGE ( 'NONE', *, *, #469, .T. ) ;
#62 = CIRCLE ( 'NONE', #246, 1.190000000000000169 ) ;
#63 = AXIS2_PLACEMENT_3D ( 'NONE', #310, #342, #105 ) ;
#64 = APPLICATION_PROTOCOL_DEFINITION ( 'international standard', 'config_control_design', 1994, #488 ) ;
#65 = CARTESIAN_POINT ( 'NONE',  ( -2.821130135007999864E-16, -1.535751716043999959, 0.000000000000000000 ) ) ;
#66 = EDGE_CURVE ( 'NONE', #57, #96, #193, .T. ) ;
#67 = DIRECTION ( 'NONE',  ( 0.000000000000000000, 0.000000000000000000, 1.000000000000000000 ) ) ;
#68 = FACE_OUTER_BOUND ( 'NONE', #19, .T. ) ;
#69 = PERSON_AND_ORGANIZATION_ROLE ( 'classification_officer' ) ;
#70 = DIRECTION ( 'NONE',  ( 0.5000000000001900702, -0.8660254037843290176, 0.000000000000000000 ) ) ;
#71 = CIRCLE ( 'NONE', #195, 1.399999999999999911 ) ;
#72 = CARTESIAN_POINT ( 'NONE',  ( 0.000000000000000000, 0.000000000000000000, 0.000000000000000000 ) ) ;
#73 = CC_DESIGN_PERSON_AND_ORGANIZATION_ASSIGNMENT ( #386, #350, ( #91 ) ) ;
#74 = PLANE ( 'NONE',  #429 ) ;
#75 =( NAMED_UNIT ( * ) PLANE_ANGLE_UNIT ( ) SI_UNIT ( $, .RADIAN. ) );
#76 = DIRECTION ( 'NONE',  ( 1.000000000000000000, 0.000000000000000000, 0.000000000000000000 ) ) ;
#77 = FACE_OUTER_BOUND ( 'NONE', #412, .T. ) ;
#78 = ORIENTED_EDGE ( 'NONE', *, *, #454, .F. ) ;
#79 = CIRCLE ( 'NONE', #127, 2.750000000000000000 ) ;
#80 = DIRECTION ( 'NONE',  ( 0.000000000000000000, 0.000000000000000000, 1.000000000000000000 ) ) ;
#81 = VERTEX_POINT ( 'NONE', #187 ) ;
#82 = DIRECTION ( 'NONE',  ( 1.000000000000000000, 0.000000000000000000, 0.000000000000000000 ) ) ;
#83 = ORIENTED_EDGE ( 'NONE', *, *, #32, .F. ) ;
#84 = DIRECTION ( 'NONE',  ( 0.000000000000000000, 0.000000000000000000, 1.000000000000000000 ) ) ;
#85 = EDGE_LOOP ( 'NONE', ( #332, #240, #294, #166 ) ) ;
#86 = ADVANCED_FACE ( 'NONE', ( #68 ), #286, .T. ) ;
#87 = CYLINDRICAL_SURFACE ( 'NONE', #147, 2.750000000000000000 ) ;
#88 = AXIS2_PLACEMENT_3D ( 'NONE', #506, #302, #383 ) ;
#89 = ORIENTED_EDGE ( 'NONE', *, *, #107, .T. ) ;
#90 = CARTESIAN_POINT ( 'NONE',  ( -1.330000000000000071, 0.7678758580219999796, 0.000000000000000000 ) ) ;
#91 = PRODUCT ( 'socket_head_cap_screw_M3_l20mm_plain', 'socket_head_cap_screw_M3_l20mm_plain', '', ( #384 ) ) ;
#92 = EDGE_LOOP ( 'NONE', ( #338, #481, #216, #42 ) ) ;
#93 = DIRECTION ( 'NONE',  ( 1.000000000000000000, 1.445836606302999927E-16, 0.000000000000000000 ) ) ;
#94 = EDGE_LOOP ( 'NONE', ( #89, #200, #3, #455 ) ) ;
#95 = DIRECTION ( 'NONE',  ( 1.000000000000000000, 0.000000000000000000, 0.000000000000000000 ) ) ;
#96 = VERTEX_POINT ( 'NONE', #225 ) ;
#97 = VECTOR ( 'NONE', #53, 1000.000000000000000 ) ;
#98 = CARTESIAN_POINT ( 'NONE',  ( -2.821130135007999864E-16, -1.535751716043999959, -1.300000000000000044 ) ) ;
#99 = ORIENTED_EDGE ( 'NONE', *, *, #178, .F. ) ;
#100 = CARTESIAN_POINT ( 'NONE',  ( 1.330000000000000071, -0.7678758580219999796, 0.000000000000000000 ) ) ;
#101 = ORIENTED_EDGE ( 'NONE', *, *, #478, .T. ) ;
#102 = CARTESIAN_POINT ( 'NONE',  ( 1.330000000000000071, -0.7678758580219999796, -1.300000000000000044 ) ) ;
#103 = CC_DESIGN_PERSON_AND_ORGANIZATION_ASSIGNMENT ( #495, #184, ( #395 ) ) ;
#104 = CIRCLE ( 'NONE', #460, 1.190000000000000169 ) ;
#105 = DIRECTION ( 'NONE',  ( 1.000000000000000000, 0.000000000000000000, 0.000000000000000000 ) ) ;
#106 = DIRECTION ( 'NONE',  ( 0.000000000000000000, 0.000000000000000000, 1.000000000000000000 ) ) ;
#107 = EDGE_CURVE ( 'NONE', #57, #52, #343, .T. ) ;
#108 = APPROVAL_ROLE ( '' ) ;
#109 = CARTESIAN_POINT ( 'NONE',  ( -2.750000000000000000, 3.367778697655221012E-16, 0.000000000000000000 ) ) ;
#110 = DATE_AND_TIME ( #152, #320 ) ;
#111 = DIRECTION ( 'NONE',  ( 0.8660254037843289066, -0.5000000000001899592, 0.000000000000000000 ) ) ;
#112 = VECTOR ( 'NONE', #463, 1000.000000000000000 ) ;
#113 = APPROVAL_STATUS ( 'not_yet_approved' ) ;
#114 = CC_DESIGN_SECURITY_CLASSIFICATION ( #45, ( #395 ) ) ;
#115 = CARTESIAN_POINT ( 'NONE',  ( 0.000000000000000000, 0.000000000000000000, -22.00000000000000000 ) ) ;
#116 = DIRECTION ( 'NONE',  ( 0.000000000000000000, 0.000000000000000000, 1.000000000000000000 ) ) ;
#117 = FACE_OUTER_BOUND ( 'NONE', #402, .T. ) ;
#118 = ORIENTED_EDGE ( 'NONE', *, *, #400, .F. ) ;
#119 = VECTOR ( 'NONE', #168, 1000.000000000000114 ) ;
#120 = DIRECTION ( 'NONE',  ( 0.000000000000000000, 0.000000000000000000, 1.000000000000000000 ) ) ;
#121 = VECTOR ( 'NONE', #221, 1000.000000000000000 ) ;
#122 = ADVANCED_FACE ( 'NONE', ( #388 ), #74, .F. ) ;
#123 = DIRECTION ( 'NONE',  ( 0.000000000000000000, 0.000000000000000000, 1.000000000000000000 ) ) ;
#124 = ORIENTED_EDGE ( 'NONE', *, *, #415, .F. ) ;
#125 = DIRECTION ( 'NONE',  ( 1.000000000000000000, 0.000000000000000000, 0.000000000000000000 ) ) ;
#126 = DIRECTION ( 'NONE',  ( 0.000000000000000000, 0.000000000000000000, 1.000000000000000000 ) ) ;
#127 = AXIS2_PLACEMENT_3D ( 'NONE', #203, #84, #316 ) ;
#128 = ORIENTED_EDGE ( 'NONE', *, *, #133, .F. ) ;
#129 = APPROVAL_PERSON_ORGANIZATION ( #303, #194, #108 ) ;
#130 = EDGE_CURVE ( 'NONE', #132, #448, #499, .T. ) ;
#131 = CARTESIAN_POINT ( 'NONE',  ( 1.330000000000000071, 0.7678758580219999796, -1.300000000000000044 ) ) ;
#132 = VERTEX_POINT ( 'NONE', #109 ) ;
#133 = EDGE_CURVE ( 'NONE', #371, #298, #351, .T. ) ;
#134 = LINE ( 'NONE', #90, #305 ) ;
#135 = ORIENTED_EDGE ( 'NONE', *, *, #454, .T. ) ;
#136 = FACE_BOUND ( 'NONE', #494, .T. ) ;
#137 = ORIENTED_EDGE ( 'NONE', *, *, #268, .T. ) ;
#138 = AXIS2_PLACEMENT_3D ( 'NONE', #249, #260, #325 ) ;
#139 = DIRECTION ( 'NONE',  ( 1.000000000000000000, 0.000000000000000000, 0.000000000000000000 ) ) ;
#140 = ADVANCED_FACE ( 'NONE', ( #467 ), #190, .F. ) ;
#141 = EDGE_LOOP ( 'NONE', ( #491, #444, #160, #202 ) ) ;
#142 = ADVANCED_FACE ( 'NONE', ( #304 ), #153, .F. ) ;
#143 = PERSON_AND_ORGANIZATION ( #18446744073709551615, #18446744073709551615 ) ;
#144 = ORIENTED_EDGE ( 'NONE', *, *, #235, .F. ) ;
#145 = DATE_AND_TIME ( #340, #345 ) ;
#146 = DIRECTION ( 'NONE',  ( 0.000000000000000000, 0.000000000000000000, -1.000000000000000000 ) ) ;
#147 = AXIS2_PLACEMENT_3D ( 'NONE', #510, #399, #159 ) ;
#148 = COORDINATED_UNIVERSAL_TIME_OFFSET ( 3, 0, .BEHIND. ) ;
#149 = DIRECTION ( 'NONE',  ( 1.000000000000000000, 0.000000000000000000, 0.000000000000000000 ) ) ;
#150 = COORDINATED_UNIVERSAL_TIME_OFFSET ( 3, 0, .BEHIND. ) ;
#151 = CARTESIAN_POINT ( 'NONE',  ( -2.821130135007999864E-16, -1.535751716043999959, 0.000000000000000000 ) ) ;
#152 = CALENDAR_DATE ( 2026, 14, 9 ) ;
#153 = PLANE ( 'NONE',  #210 ) ;
#154 = AXIS2_PLACEMENT_3D ( 'NONE', #285, #39, #125 ) ;
#155 = AXIS2_PLACEMENT_3D ( 'NONE', #10, #171, #329 ) ;
#156 = CARTESIAN_POINT ( 'NONE',  ( -2.821130135007999864E-16, -1.535751716043999959, -1.300000000000000044 ) ) ;
#157 = PRODUCT_RELATED_PRODUCT_CATEGORY ( 'detail', '', ( #91 ) ) ;
#158 = CARTESIAN_POINT ( 'NONE',  ( 0.000000000000000000, 0.000000000000000000, -23.00000000000000000 ) ) ;
#159 = DIRECTION ( 'NONE',  ( 1.000000000000000000, 0.000000000000000000, 0.000000000000000000 ) ) ;
#160 = ORIENTED_EDGE ( 'NONE', *, *, #288, .F. ) ;
#161 = ADVANCED_FACE ( 'NONE', ( #392 ), #352, .F. ) ;
#162 = EDGE_CURVE ( 'NONE', #173, #279, #459, .T. ) ;
#163 = VECTOR ( 'NONE', #58, 1000.000000000000000 ) ;
#164 = CARTESIAN_POINT ( 'NONE',  ( 1.330000000000000071, -0.7678758580219999796, 0.000000000000000000 ) ) ;
#165 = CC_DESIGN_APPROVAL ( #339, ( #45 ) ) ;
#166 = ORIENTED_EDGE ( 'NONE', *, *, #295, .F. ) ;
#167 = DATE_AND_TIME ( #4, #508 ) ;
#168 = DIRECTION ( 'NONE',  ( 0.8660254037843289066, -0.5000000000001899592, 0.000000000000000000 ) ) ;
#169 = EDGE_LOOP ( 'NONE', ( #59, #300, #135, #356 ) ) ;
#170 = DIRECTION ( 'NONE',  ( -0.8660254037843289066, 0.5000000000001899592, 0.000000000000000000 ) ) ;
#171 = DIRECTION ( 'NONE',  ( 0.000000000000000000, 0.000000000000000000, 1.000000000000000000 ) ) ;
#172 = VECTOR ( 'NONE', #428, 1000.000000000000000 ) ;
#173 = VERTEX_POINT ( 'NONE', #65 ) ;
#174 = LINE ( 'NONE', #131, #219 ) ;
#175 = ORIENTED_EDGE ( 'NONE', *, *, #272, .T. ) ;
#176 = DIRECTION ( 'NONE',  ( 0.000000000000000000, 0.000000000000000000, -1.000000000000000000 ) ) ;
#177 = VERTEX_POINT ( 'NONE', #26 ) ;
#178 = EDGE_CURVE ( 'NONE', #511, #283, #62, .T. ) ;
#179 = CARTESIAN_POINT ( 'NONE',  ( 9.403767116694000537E-17, 1.535751716043999959, -1.300000000000000044 ) ) ;
#180 = ORIENTED_EDGE ( 'NONE', *, *, #347, .T. ) ;
#181 = AXIS2_PLACEMENT_3D ( 'NONE', #307, #505, #465 ) ;
#182 = CALENDAR_DATE ( 2026, 14, 9 ) ;
#183 = ORIENTED_EDGE ( 'NONE', *, *, #387, .T. ) ;
#184 = PERSON_AND_ORGANIZATION_ROLE ( 'creator' ) ;
#185 = CARTESIAN_POINT ( 'NONE',  ( 1.330000000000000071, 0.7678758580219999796, 0.000000000000000000 ) ) ;
#186 = SECURITY_CLASSIFICATION_LEVEL ( 'unclassified' ) ;
#187 = CARTESIAN_POINT ( 'NONE',  ( 1.399999999999999911, 0.000000000000000000, -22.00000000000000000 ) ) ;
#188 = VECTOR ( 'NONE', #385, 1000.000000000000114 ) ;
#189 =( GEOMETRIC_REPRESENTATION_CONTEXT ( 3 ) GLOBAL_UNCERTAINTY_ASSIGNED_CONTEXT ( ( #234 ) ) GLOBAL_UNIT_ASSIGNED_CONTEXT ( ( #226, #75, #500 ) ) REPRESENTATION_CONTEXT ( 'NONE', 'WORKASPACE' ) );
#190 = PLANE ( 'NONE',  #181 ) ;
#191 = CARTESIAN_POINT ( 'NONE',  ( -1.190000000000000391, 1.585917604895832820E-16, -23.00000000000000000 ) ) ;
#192 = CARTESIAN_POINT ( 'NONE',  ( 9.403767116694000537E-17, 1.535751716043999959, 0.000000000000000000 ) ) ;
#193 = LINE ( 'NONE', #271, #172 ) ;
#194 = APPROVAL ( #275, 'Coincidente' ) ;
#195 = AXIS2_PLACEMENT_3D ( 'NONE', #252, #126, #453 ) ;
#196 = CC_DESIGN_APPROVAL ( #194, ( #395 ) ) ;
#197 = CYLINDRICAL_SURFACE ( 'NONE', #44, 1.399999999999999911 ) ;
#198 = ORIENTED_EDGE ( 'NONE', *, *, #133, .T. ) ;
#199 = PLANE ( 'NONE',  #468 ) ;
#200 = ORIENTED_EDGE ( 'NONE', *, *, #47, .T. ) ;
#201 = CARTESIAN_POINT ( 'NONE',  ( -1.330000000000000071, 0.7678758580219999796, 0.000000000000000000 ) ) ;
#202 = ORIENTED_EDGE ( 'NONE', *, *, #268, .F. ) ;
#203 = CARTESIAN_POINT ( 'NONE',  ( 0.000000000000000000, 0.000000000000000000, -3.000000000000000000 ) ) ;
#204 = ORIENTED_EDGE ( 'NONE', *, *, #214, .F. ) ;
#205 = LINE ( 'NONE', #156, #238 ) ;
#206 = FACE_OUTER_BOUND ( 'NONE', #85, .T. ) ;
#207 = ORIENTED_EDGE ( 'NONE', *, *, #15, .F. ) ;
#208 = CC_DESIGN_PERSON_AND_ORGANIZATION_ASSIGNMENT ( #458, #420, ( #241 ) ) ;
#209 = DIRECTION ( 'NONE',  ( -0.8660254037843289066, -0.5000000000001899592, 0.000000000000000000 ) ) ;
#210 = AXIS2_PLACEMENT_3D ( 'NONE', #311, #430, #76 ) ;
#211 = ORIENTED_EDGE ( 'NONE', *, *, #15, .T. ) ;
#212 = CARTESIAN_POINT ( 'NONE',  ( -1.330000000000000071, 0.7678758580219999796, -1.300000000000000044 ) ) ;
#213 = VERTEX_POINT ( 'NONE', #239 ) ;
#214 = EDGE_CURVE ( 'NONE', #279, #414, #441, .T. ) ;
#215 = DIRECTION ( 'NONE',  ( -1.445836606302999927E-16, 1.000000000000000000, 0.000000000000000000 ) ) ;
#216 = ORIENTED_EDGE ( 'NONE', *, *, #436, .F. ) ;
#217 = DIRECTION ( 'NONE',  ( 1.000000000000000000, 0.000000000000000000, 0.000000000000000000 ) ) ;
#218 = ORIENTED_EDGE ( 'NONE', *, *, #438, .F. ) ;
#219 = VECTOR ( 'NONE', #170, 1000.000000000000114 ) ;
#220 = LOCAL_TIME ( 10, 32, 39.00000000000000000, #22 ) ;
#221 = DIRECTION ( 'NONE',  ( 0.000000000000000000, 0.000000000000000000, 1.000000000000000000 ) ) ;
#222 = DIRECTION ( 'NONE',  ( 1.000000000000000000, 0.000000000000000000, 0.000000000000000000 ) ) ;
#223 = ADVANCED_FACE ( 'NONE', ( #242 ), #87, .T. ) ;
#224 = LINE ( 'NONE', #497, #21 ) ;
#225 = CARTESIAN_POINT ( 'NONE',  ( 9.403767116694000537E-17, 1.535751716043999959, -1.300000000000000044 ) ) ;
#226 =( LENGTH_UNIT ( ) NAMED_UNIT ( * ) SI_UNIT ( .MILLI., .METRE. ) );
#227 = CARTESIAN_POINT ( 'NONE',  ( 0.000000000000000000, 0.000000000000000000, 0.000000000000000000 ) ) ;
#228 = AXIS2_PLACEMENT_3D ( 'NONE', #227, #349, #149 ) ;
#229 = APPLICATION_PROTOCOL_DEFINITION ( 'international standard', 'config_control_design', 1994, #374 ) ;
#230 = CARTESIAN_POINT ( 'NONE',  ( 9.403767116694000537E-17, 1.535751716043999959, 0.000000000000000000 ) ) ;
#231 = ADVANCED_FACE ( 'NONE', ( #236 ), #41, .F. ) ;
#232 = APPROVAL_DATE_TIME ( #167, #339 ) ;
#233 = CARTESIAN_POINT ( 'NONE',  ( -1.330000000000000071, -0.7678758580219999796, 0.000000000000000000 ) ) ;
#234 = UNCERTAINTY_MEASURE_WITH_UNIT (LENGTH_MEASURE( 1.000000000000000082E-05 ), #226, 'distance_accuracy_value', 'NONE');
#235 = EDGE_CURVE ( 'NONE', #511, #213, #317, .T. ) ;
#236 = FACE_OUTER_BOUND ( 'NONE', #496, .T. ) ;
#237 = ORIENTED_EDGE ( 'NONE', *, *, #469, .F. ) ;
#238 = VECTOR ( 'NONE', #355, 1000.000000000000114 ) ;
#239 = CARTESIAN_POINT ( 'NONE',  ( -1.399999999999999911, 1.714505518806294391E-16, -22.00000000000000000 ) ) ;
#240 = ORIENTED_EDGE ( 'NONE', *, *, #235, .T. ) ;
#241 = PRODUCT_DEFINITION ( 'General', '', #395, #353 ) ;
#242 = FACE_OUTER_BOUND ( 'NONE', #334, .T. ) ;
#243 = VERTEX_POINT ( 'NONE', #404 ) ;
#244 = DIRECTION ( 'NONE',  ( -1.000000000000000000, 4.337509818909999909E-16, 0.000000000000000000 ) ) ;
#245 = ORIENTED_EDGE ( 'NONE', *, *, #377, .T. ) ;
#246 = AXIS2_PLACEMENT_3D ( 'NONE', #341, #498, #461 ) ;
#247 = CARTESIAN_POINT ( 'NONE',  ( 1.190000000000000169, 0.000000000000000000, -23.00000000000000000 ) ) ;
#248 = EDGE_CURVE ( 'NONE', #476, #177, #79, .T. ) ;
#249 = CARTESIAN_POINT ( 'NONE',  ( 0.000000000000000000, 0.000000000000000000, -3.000000000000000000 ) ) ;
#250 = ORIENTED_EDGE ( 'NONE', *, *, #272, .F. ) ;
#251 = CC_DESIGN_PERSON_AND_ORGANIZATION_ASSIGNMENT ( #143, #301, ( #395 ) ) ;
#252 = CARTESIAN_POINT ( 'NONE',  ( 0.000000000000000000, 0.000000000000000000, -3.000000000000000000 ) ) ;
#253 = ORIENTED_EDGE ( 'NONE', *, *, #416, .T. ) ;
#254 = CARTESIAN_POINT ( 'NONE',  ( -1.330000000000000071, -0.7678758580219999796, 0.000000000000000000 ) ) ;
#255 = VECTOR ( 'NONE', #423, 1000.000000000000114 ) ;
#256 = ADVANCED_FACE ( 'NONE', ( #1 ), #199, .F. ) ;
#257 = APPROVAL_PERSON_ORGANIZATION ( #38, #339, #315 ) ;
#258 = ORIENTED_EDGE ( 'NONE', *, *, #66, .T. ) ;
#259 = ADVANCED_FACE ( 'NONE', ( #480 ), #363, .T. ) ;
#260 = DIRECTION ( 'NONE',  ( 0.000000000000000000, 0.000000000000000000, 1.000000000000000000 ) ) ;
#261 = ORIENTED_EDGE ( 'NONE', *, *, #273, .F. ) ;
#262 = CARTESIAN_POINT ( 'NONE',  ( 2.750000000000000000, 0.000000000000000000, -3.000000000000000000 ) ) ;
#263 = ORIENTED_EDGE ( 'NONE', *, *, #438, .T. ) ;
#264 = CARTESIAN_POINT ( 'NONE',  ( -2.821130135007999864E-16, -1.535751716043999959, 0.000000000000000000 ) ) ;
#265 = VECTOR ( 'NONE', #406, 1000.000000000000000 ) ;
#266 = FACE_OUTER_BOUND ( 'NONE', #92, .T. ) ;
#267 = CARTESIAN_POINT ( 'NONE',  ( 0.000000000000000000, 0.000000000000000000, -22.00000000000000000 ) ) ;
#268 = EDGE_CURVE ( 'NONE', #173, #324, #43, .T. ) ;
#269 = DIRECTION ( 'NONE',  ( 0.000000000000000000, 0.000000000000000000, 1.000000000000000000 ) ) ;
#270 = DATE_AND_TIME ( #425, #477 ) ;
#271 = CARTESIAN_POINT ( 'NONE',  ( 9.403767116694000537E-17, 1.535751716043999959, 0.000000000000000000 ) ) ;
#272 = EDGE_CURVE ( 'NONE', #298, #324, #393, .T. ) ;
#273 = EDGE_CURVE ( 'NONE', #283, #511, #104, .T. ) ;
#274 = VECTOR ( 'NONE', #309, 1000.000000000000000 ) ;
#275 = APPROVAL_STATUS ( 'not_yet_approved' ) ;
#276 = CARTESIAN_POINT ( 'NONE',  ( -1.330000000000000071, 0.7678758580219999796, -1.300000000000000044 ) ) ;
#277 = DIRECTION ( 'NONE',  ( 0.2055172342865889956, 0.000000000000000000, 0.9786534966019337922 ) ) ;
#278 = PLANE ( 'NONE',  #280 ) ;
#279 = VERTEX_POINT ( 'NONE', #323 ) ;
#280 = AXIS2_PLACEMENT_3D ( 'NONE', #433, #80, #447 ) ;
#281 = CONICAL_SURFACE ( 'NONE', #155, 1.399999999999999911, 0.2069921942200000364 ) ;
#282 = DIRECTION ( 'NONE',  ( 0.5000000000001900702, 0.8660254037843290176, 0.000000000000000000 ) ) ;
#283 = VERTEX_POINT ( 'NONE', #247 ) ;
#284 = CARTESIAN_POINT ( 'NONE',  ( 1.330000000000000071, 0.7678758580219999796, 0.000000000000000000 ) ) ;
#285 = CARTESIAN_POINT ( 'NONE',  ( -2.409727677172000065E-17, 2.409727677172000065E-17, -1.300000000000000044 ) ) ;
#286 = CONICAL_SURFACE ( 'NONE', #410, 1.399999999999999911, 0.2069921942200000364 ) ;
#287 = CARTESIAN_POINT ( 'NONE',  ( 1.399999999999999911, 0.000000000000000000, -23.00000000000000000 ) ) ;
#288 = EDGE_CURVE ( 'NONE', #324, #414, #205, .T. ) ;
#289 = ORIENTED_EDGE ( 'NONE', *, *, #436, .T. ) ;
#290 = CARTESIAN_POINT ( 'NONE',  ( 2.750000000000000000, 0.000000000000000000, -3.000000000000000000 ) ) ;
#291 = ORIENTED_EDGE ( 'NONE', *, *, #400, .T. ) ;
#292 = ADVANCED_FACE ( 'NONE', ( #431 ), #313, .T. ) ;
#293 = DIRECTION ( 'NONE',  ( 0.000000000000000000, 0.000000000000000000, -1.000000000000000000 ) ) ;
#294 = ORIENTED_EDGE ( 'NONE', *, *, #347, .F. ) ;
#295 = EDGE_CURVE ( 'NONE', #283, #81, #358, .T. ) ;
#296 = DIRECTION ( 'NONE',  ( -4.337509818909999909E-16, -1.000000000000000000, 0.000000000000000000 ) ) ;
#297 = AXIS2_PLACEMENT_3D ( 'NONE', #267, #269, #28 ) ;
#298 = VERTEX_POINT ( 'NONE', #474 ) ;
#299 = CARTESIAN_POINT ( 'NONE',  ( 0.000000000000000000, 0.000000000000000000, 0.000000000000000000 ) ) ;
#300 = ORIENTED_EDGE ( 'NONE', *, *, #46, .T. ) ;
#301 = PERSON_AND_ORGANIZATION_ROLE ( 'design_supplier' ) ;
#302 = DIRECTION ( 'NONE',  ( -0.5000000000001900702, 0.8660254037843290176, 0.000000000000000000 ) ) ;
#303 = PERSON_AND_ORGANIZATION ( #18446744073709551615, #18446744073709551615 ) ;
#304 = FACE_OUTER_BOUND ( 'NONE', #366, .T. ) ;
#305 = VECTOR ( 'NONE', #296, 1000.000000000000000 ) ;
#306 = DATE_TIME_ROLE ( 'creation_date' ) ;
#307 = CARTESIAN_POINT ( 'NONE',  ( -1.330000000000000071, -0.7678758580219999796, 0.000000000000000000 ) ) ;
#308 = ADVANCED_FACE ( 'NONE', ( #77 ), #197, .T. ) ;
#309 = DIRECTION ( 'NONE',  ( -4.337509818909999909E-16, -1.000000000000000000, 0.000000000000000000 ) ) ;
#310 = CARTESIAN_POINT ( 'NONE',  ( 0.000000000000000000, 0.000000000000000000, -3.000000000000000000 ) ) ;
#311 = CARTESIAN_POINT ( 'NONE',  ( 0.000000000000000000, 0.000000000000000000, -23.00000000000000000 ) ) ;
#312 = AXIS2_PLACEMENT_3D ( 'NONE', #471, #116, #82 ) ;
#313 = CYLINDRICAL_SURFACE ( 'NONE', #312, 1.399999999999999911 ) ;
#314 = ADVANCED_FACE ( 'NONE', ( #437, #117 ), #278, .T. ) ;
#315 = APPROVAL_ROLE ( '' ) ;
#316 = DIRECTION ( 'NONE',  ( 1.000000000000000000, 0.000000000000000000, 0.000000000000000000 ) ) ;
#317 = LINE ( 'NONE', #359, #344 ) ;
#318 = EDGE_LOOP ( 'NONE', ( #83, #124, #442, #14, #457, #409 ) ) ;
#319 = AXIS2_PLACEMENT_3D ( 'NONE', #18, #335, #95 ) ;
#320 = LOCAL_TIME ( 10, 32, 39.00000000000000000, #150 ) ;
#321 = DIRECTION ( 'NONE',  ( 0.000000000000000000, 0.000000000000000000, -1.000000000000000000 ) ) ;
#322 = ADVANCED_FACE ( 'NONE', ( #486 ), #490, .F. ) ;
#323 = CARTESIAN_POINT ( 'NONE',  ( 1.330000000000000071, -0.7678758580219999796, 0.000000000000000000 ) ) ;
#324 = VERTEX_POINT ( 'NONE', #98 ) ;
#325 = DIRECTION ( 'NONE',  ( 1.000000000000000000, 0.000000000000000000, 0.000000000000000000 ) ) ;
#326 = EDGE_LOOP ( 'NONE', ( #373, #258, #450, #218 ) ) ;
#327 = CLOSED_SHELL ( 'NONE', ( #503, #308, #470, #142, #86, #259, #292, #322, #122, #140, #231, #161, #256, #346, #314, #223 ) ) ;
#328 = CC_DESIGN_APPROVAL ( #50, ( #241 ) ) ;
#329 = DIRECTION ( 'NONE',  ( 1.000000000000000000, 0.000000000000000000, 0.000000000000000000 ) ) ;
#330 = ORIENTED_EDGE ( 'NONE', *, *, #440, .T. ) ;
#331 = LINE ( 'NONE', #7, #2 ) ;
#332 = ORIENTED_EDGE ( 'NONE', *, *, #273, .T. ) ;
#333 = LINE ( 'NONE', #462, #121 ) ;
#334 = EDGE_LOOP ( 'NONE', ( #487, #330, #245, #473 ) ) ;
#335 = DIRECTION ( 'NONE',  ( 0.000000000000000000, 0.000000000000000000, 1.000000000000000000 ) ) ;
#336 = ORIENTED_EDGE ( 'NONE', *, *, #47, .F. ) ;
#337 = EDGE_CURVE ( 'NONE', #398, #54, #71, .T. ) ;
#338 = ORIENTED_EDGE ( 'NONE', *, *, #248, .T. ) ;
#339 = APPROVAL ( #357, 'Coincidente' ) ;
#340 = CALENDAR_DATE ( 2026, 14, 9 ) ;
#341 = CARTESIAN_POINT ( 'NONE',  ( 0.000000000000000000, 0.000000000000000000, -23.00000000000000000 ) ) ;
#342 = DIRECTION ( 'NONE',  ( 0.000000000000000000, 0.000000000000000000, 1.000000000000000000 ) ) ;
#343 = LINE ( 'NONE', #192, #369 ) ;
#344 = VECTOR ( 'NONE', #37, 1000.000000000000114 ) ;
#345 = LOCAL_TIME ( 10, 32, 39.00000000000000000, #381 ) ;
#346 = ADVANCED_FACE ( 'NONE', ( #136, #375 ), #445, .F. ) ;
#347 = EDGE_CURVE ( 'NONE', #81, #213, #55, .T. ) ;
#348 = APPROVAL_ROLE ( '' ) ;
#349 = DIRECTION ( 'NONE',  ( 0.000000000000000000, 0.000000000000000000, 1.000000000000000000 ) ) ;
#350 = PERSON_AND_ORGANIZATION_ROLE ( 'design_owner' ) ;
#351 = LINE ( 'NONE', #276, #274 ) ;
#352 = PLANE ( 'NONE',  #88 ) ;
#353 = DESIGN_CONTEXT ( 'detailed design', #374, 'design' ) ;
#354 = VECTOR ( 'NONE', #146, 1000.000000000000000 ) ;
#355 = DIRECTION ( 'NONE',  ( 0.8660254037843289066, 0.5000000000001899592, 0.000000000000000000 ) ) ;
#356 = ORIENTED_EDGE ( 'NONE', *, *, #337, .F. ) ;
#357 = APPROVAL_STATUS ( 'not_yet_approved' ) ;
#358 = LINE ( 'NONE', #509, #378 ) ;
#359 = CARTESIAN_POINT ( 'NONE',  ( -1.399999999999999911, 1.714505518806294391E-16, -22.00000000000000000 ) ) ;
#360 = ORIENTED_EDGE ( 'NONE', *, *, #248, .F. ) ;
#361 = CIRCLE ( 'NONE', #138, 2.750000000000000000 ) ;
#362 = EDGE_CURVE ( 'NONE', #52, #439, #134, .T. ) ;
#363 = PLANE ( 'NONE',  #154 ) ;
#364 = ORIENTED_EDGE ( 'NONE', *, *, #415, .T. ) ;
#365 = DIRECTION ( 'NONE',  ( 1.000000000000000000, 0.000000000000000000, 0.000000000000000000 ) ) ;
#366 = EDGE_LOOP ( 'NONE', ( #261, #99 ) ) ;
#367 = CARTESIAN_POINT ( 'NONE',  ( 0.000000000000000000, 0.000000000000000000, -3.000000000000000000 ) ) ;
#368 = EDGE_LOOP ( 'NONE', ( #364, #263, #207, #204 ) ) ;
#369 = VECTOR ( 'NONE', #502, 1000.000000000000114 ) ;
#370 = CARTESIAN_POINT ( 'NONE',  ( 1.330000000000000071, 0.7678758580219999796, -1.300000000000000044 ) ) ;
#371 = VERTEX_POINT ( 'NONE', #212 ) ;
#372 = DIRECTION ( 'NONE',  ( 1.000000000000000000, 0.000000000000000000, 0.000000000000000000 ) ) ;
#373 = ORIENTED_EDGE ( 'NONE', *, *, #32, .T. ) ;
#374 = APPLICATION_CONTEXT ( 'configuration controlled 3d designs of mechanical parts and assemblies' ) ;
#375 = FACE_OUTER_BOUND ( 'NONE', #446, .T. ) ;
#376 = ORIENTED_EDGE ( 'NONE', *, *, #288, .T. ) ;
#377 = EDGE_CURVE ( 'NONE', #476, #448, #449, .T. ) ;
#378 = VECTOR ( 'NONE', #277, 1000.000000000000114 ) ;
#379 = EDGE_LOOP ( 'NONE', ( #253, #183, #198, #175, #376, #211 ) ) ;
#380 = CC_DESIGN_DATE_AND_TIME_ASSIGNMENT ( #110, #306, ( #241 ) ) ;
#381 = COORDINATED_UNIVERSAL_TIME_OFFSET ( 3, 0, .BEHIND. ) ;
#382 = PRODUCT_DEFINITION_SHAPE ( 'NONE', 'NONE',  #241 ) ;
#383 = DIRECTION ( 'NONE',  ( 0.000000000000000000, 0.000000000000000000, 1.000000000000000000 ) ) ;
#384 = MECHANICAL_CONTEXT ( 'NONE', #488, 'mechanical' ) ;
#385 = DIRECTION ( 'NONE',  ( -0.8660254037843289066, 0.5000000000001899592, 0.000000000000000000 ) ) ;
#386 = PERSON_AND_ORGANIZATION ( #18446744073709551615, #18446744073709551615 ) ;
#387 = EDGE_CURVE ( 'NONE', #96, #371, #408, .T. ) ;
#388 = FACE_OUTER_BOUND ( 'NONE', #141, .T. ) ;
#389 = VECTOR ( 'NONE', #209, 1000.000000000000114 ) ;
#390 = CYLINDRICAL_SURFACE ( 'NONE', #63, 2.750000000000000000 ) ;
#391 = CARTESIAN_POINT ( 'NONE',  ( -1.330000000000000071, 0.7678758580219999796, 0.000000000000000000 ) ) ;
#392 = FACE_OUTER_BOUND ( 'NONE', #94, .T. ) ;
#393 = LINE ( 'NONE', #5, #119 ) ;
#394 = ORIENTED_EDGE ( 'NONE', *, *, #25, .T. ) ;
#395 = PRODUCT_DEFINITION_FORMATION_WITH_SPECIFIED_SOURCE ( 'Simétric', '', #91, .NOT_KNOWN. ) ;
#396 = ADVANCED_BREP_SHAPE_REPRESENTATION ( 'socket_head_cap_screw_M3_l20mm_plain', ( #417, #452 ), #189 ) ;
#397 = DIRECTION ( 'NONE',  ( 0.000000000000000000, 0.000000000000000000, -1.000000000000000000 ) ) ;
#398 = VERTEX_POINT ( 'NONE', #456 ) ;
#399 = DIRECTION ( 'NONE',  ( 0.000000000000000000, 0.000000000000000000, 1.000000000000000000 ) ) ;
#400 = EDGE_CURVE ( 'NONE', #54, #398, #492, .T. ) ;
#401 = DIRECTION ( 'NONE',  ( 0.000000000000000000, 0.000000000000000000, -1.000000000000000000 ) ) ;
#402 = EDGE_LOOP ( 'NONE', ( #289, #8 ) ) ;
#403 = VECTOR ( 'NONE', #111, 1000.000000000000114 ) ;
#404 = CARTESIAN_POINT ( 'NONE',  ( 1.330000000000000071, 0.7678758580219999796, 0.000000000000000000 ) ) ;
#405 = ORIENTED_EDGE ( 'NONE', *, *, #295, .T. ) ;
#406 = DIRECTION ( 'NONE',  ( 0.000000000000000000, 0.000000000000000000, 1.000000000000000000 ) ) ;
#407 = VERTEX_POINT ( 'NONE', #370 ) ;
#408 = LINE ( 'NONE', #179, #389 ) ;
#409 = ORIENTED_EDGE ( 'NONE', *, *, #107, .F. ) ;
#410 = AXIS2_PLACEMENT_3D ( 'NONE', #115, #106, #222 ) ;
#411 = CARTESIAN_POINT ( 'NONE',  ( 2.750000000000000000, 0.000000000000000000, 0.000000000000000000 ) ) ;
#412 = EDGE_LOOP ( 'NONE', ( #180, #101, #118, #78 ) ) ;
#413 = CARTESIAN_POINT ( 'NONE',  ( 1.330000000000000071, -0.7678758580219999796, 0.000000000000000000 ) ) ;
#414 = VERTEX_POINT ( 'NONE', #13 ) ;
#415 = EDGE_CURVE ( 'NONE', #279, #243, #418, .T. ) ;
#416 = EDGE_CURVE ( 'NONE', #407, #96, #174, .T. ) ;
#417 = MANIFOLD_SOLID_BREP ( 'c48e0ed95160[1]', #327 ) ;
#418 = LINE ( 'NONE', #413, #163 ) ;
#419 = ORIENTED_EDGE ( 'NONE', *, *, #440, .F. ) ;
#420 = PERSON_AND_ORGANIZATION_ROLE ( 'creator' ) ;
#421 = VECTOR ( 'NONE', #321, 1000.000000000000000 ) ;
#422 = APPROVAL_PERSON_ORGANIZATION ( #466, #50, #348 ) ;
#423 = DIRECTION ( 'NONE',  ( 0.8660254037843289066, 0.5000000000001899592, 0.000000000000000000 ) ) ;
#424 = LINE ( 'NONE', #233, #403 ) ;
#425 = CALENDAR_DATE ( 2026, 14, 9 ) ;
#426 = LINE ( 'NONE', #185, #188 ) ;
#427 = DATE_TIME_ROLE ( 'classification_date' ) ;
#428 = DIRECTION ( 'NONE',  ( 0.000000000000000000, 0.000000000000000000, -1.000000000000000000 ) ) ;
#429 = AXIS2_PLACEMENT_3D ( 'NONE', #151, #70, #31 ) ;
#430 = DIRECTION ( 'NONE',  ( 0.000000000000000000, 0.000000000000000000, 1.000000000000000000 ) ) ;
#431 = FACE_OUTER_BOUND ( 'NONE', #169, .T. ) ;
#432 = CC_DESIGN_DATE_AND_TIME_ASSIGNMENT ( #270, #427, ( #45 ) ) ;
#433 = CARTESIAN_POINT ( 'NONE',  ( 0.000000000000000000, 0.000000000000000000, 0.000000000000000000 ) ) ;
#434 = AXIS2_PLACEMENT_3D ( 'NONE', #201, #244, #48 ) ;
#435 = COORDINATED_UNIVERSAL_TIME_OFFSET ( 3, 0, .BEHIND. ) ;
#436 = EDGE_CURVE ( 'NONE', #448, #132, #451, .T. ) ;
#437 = FACE_BOUND ( 'NONE', #318, .T. ) ;
#438 = EDGE_CURVE ( 'NONE', #243, #407, #331, .T. ) ;
#439 = VERTEX_POINT ( 'NONE', #254 ) ;
#440 = EDGE_CURVE ( 'NONE', #177, #476, #361, .T. ) ;
#441 = LINE ( 'NONE', #164, #20 ) ;
#442 = ORIENTED_EDGE ( 'NONE', *, *, #162, .F. ) ;
#443 = CARTESIAN_POINT ( 'NONE',  ( -2.821130135007999864E-16, -1.535751716043999959, 0.000000000000000000 ) ) ;
#444 = ORIENTED_EDGE ( 'NONE', *, *, #214, .T. ) ;
#445 = PLANE ( 'NONE',  #12 ) ;
#446 = EDGE_LOOP ( 'NONE', ( #360, #419 ) ) ;
#447 = DIRECTION ( 'NONE',  ( 1.000000000000000000, 0.000000000000000000, 0.000000000000000000 ) ) ;
#448 = VERTEX_POINT ( 'NONE', #411 ) ;
#449 = LINE ( 'NONE', #262, #97 ) ;
#450 = ORIENTED_EDGE ( 'NONE', *, *, #416, .F. ) ;
#451 = CIRCLE ( 'NONE', #507, 2.750000000000000000 ) ;
#452 = AXIS2_PLACEMENT_3D ( 'NONE', #72, #67, #33 ) ;
#453 = DIRECTION ( 'NONE',  ( 1.000000000000000000, 0.000000000000000000, 0.000000000000000000 ) ) ;
#454 = EDGE_CURVE ( 'NONE', #81, #54, #16, .T. ) ;
#455 = ORIENTED_EDGE ( 'NONE', *, *, #66, .F. ) ;
#456 = CARTESIAN_POINT ( 'NONE',  ( -1.399999999999999911, 1.714505518806294391E-16, -3.000000000000000000 ) ) ;
#457 = ORIENTED_EDGE ( 'NONE', *, *, #362, .F. ) ;
#458 = PERSON_AND_ORGANIZATION ( #18446744073709551615, #18446744073709551615 ) ;
#459 = LINE ( 'NONE', #264, #255 ) ;
#460 = AXIS2_PLACEMENT_3D ( 'NONE', #479, #123, #365 ) ;
#461 = DIRECTION ( 'NONE',  ( 1.000000000000000000, 0.000000000000000000, 0.000000000000000000 ) ) ;
#462 = CARTESIAN_POINT ( 'NONE',  ( -1.399999999999999911, 1.714505518806294391E-16, -23.00000000000000000 ) ) ;
#463 = DIRECTION ( 'NONE',  ( -1.445836606302999927E-16, 1.000000000000000000, 0.000000000000000000 ) ) ;
#464 = PERSON_AND_ORGANIZATION ( #18446744073709551615, #18446744073709551615 ) ;
#465 = DIRECTION ( 'NONE',  ( -0.8660254037843289066, 0.5000000000001899592, 0.000000000000000000 ) ) ;
#466 = PERSON_AND_ORGANIZATION ( #18446744073709551615, #18446744073709551615 ) ;
#467 = FACE_OUTER_BOUND ( 'NONE', #49, .T. ) ;
#468 = AXIS2_PLACEMENT_3D ( 'NONE', #284, #282, #397 ) ;
#469 = EDGE_CURVE ( 'NONE', #439, #298, #51, .T. ) ;
#470 = ADVANCED_FACE ( 'NONE', ( #206 ), #281, .T. ) ;
#471 = CARTESIAN_POINT ( 'NONE',  ( 0.000000000000000000, 0.000000000000000000, -23.00000000000000000 ) ) ;
#472 = DIRECTION ( 'NONE',  ( 1.000000000000000000, 0.000000000000000000, 0.000000000000000000 ) ) ;
#473 = ORIENTED_EDGE ( 'NONE', *, *, #130, .F. ) ;
#474 = CARTESIAN_POINT ( 'NONE',  ( -1.330000000000000071, -0.7678758580219999796, -1.300000000000000044 ) ) ;
#475 = CIRCLE ( 'NONE', #297, 1.399999999999999911 ) ;
#476 = VERTEX_POINT ( 'NONE', #290 ) ;
#477 = LOCAL_TIME ( 10, 32, 39.00000000000000000, #148 ) ;
#478 = EDGE_CURVE ( 'NONE', #213, #398, #333, .T. ) ;
#479 = CARTESIAN_POINT ( 'NONE',  ( 0.000000000000000000, 0.000000000000000000, -23.00000000000000000 ) ) ;
#480 = FACE_OUTER_BOUND ( 'NONE', #379, .T. ) ;
#481 = ORIENTED_EDGE ( 'NONE', *, *, #489, .T. ) ;
#482 = DIRECTION ( 'NONE',  ( 0.000000000000000000, 0.000000000000000000, 1.000000000000000000 ) ) ;
#483 = AXIS2_PLACEMENT_3D ( 'NONE', #367, #484, #139 ) ;
#484 = DIRECTION ( 'NONE',  ( 0.000000000000000000, 0.000000000000000000, 1.000000000000000000 ) ) ;
#485 = ORIENTED_EDGE ( 'NONE', *, *, #362, .T. ) ;
#486 = FACE_OUTER_BOUND ( 'NONE', #368, .T. ) ;
#487 = ORIENTED_EDGE ( 'NONE', *, *, #489, .F. ) ;
#488 = APPLICATION_CONTEXT ( 'configuration controlled 3d designs of mechanical parts and assemblies' ) ;
#489 = EDGE_CURVE ( 'NONE', #177, #132, #224, .T. ) ;
#490 = PLANE ( 'NONE',  #29 ) ;
#491 = ORIENTED_EDGE ( 'NONE', *, *, #162, .T. ) ;
#492 = CIRCLE ( 'NONE', #483, 1.399999999999999911 ) ;
#493 = CARTESIAN_POINT ( 'NONE',  ( 0.000000000000000000, 0.000000000000000000, -3.000000000000000000 ) ) ;
#494 = EDGE_LOOP ( 'NONE', ( #291, #11 ) ) ;
#495 = PERSON_AND_ORGANIZATION ( #18446744073709551615, #18446744073709551615 ) ;
#496 = EDGE_LOOP ( 'NONE', ( #485, #61, #128, #336 ) ) ;
#497 = CARTESIAN_POINT ( 'NONE',  ( -2.750000000000000000, 3.367778697655221012E-16, -3.000000000000000000 ) ) ;
#498 = DIRECTION ( 'NONE',  ( 0.000000000000000000, 0.000000000000000000, 1.000000000000000000 ) ) ;
#499 = CIRCLE ( 'NONE', #228, 2.750000000000000000 ) ;
#500 =( NAMED_UNIT ( * ) SI_UNIT ( $, .STERADIAN. ) SOLID_ANGLE_UNIT ( ) );
#501 = CARTESIAN_POINT ( 'NONE',  ( 1.399999999999999911, 0.000000000000000000, -3.000000000000000000 ) ) ;
#502 = DIRECTION ( 'NONE',  ( -0.8660254037843289066, -0.5000000000001899592, 0.000000000000000000 ) ) ;
#503 = ADVANCED_FACE ( 'NONE', ( #266 ), #390, .T. ) ;
#504 = APPROVAL_DATE_TIME ( #145, #50 ) ;
#505 = DIRECTION ( 'NONE',  ( -0.5000000000001900702, -0.8660254037843290176, 0.000000000000000000 ) ) ;
#506 = CARTESIAN_POINT ( 'NONE',  ( 9.403767116694000537E-17, 1.535751716043999959, 0.000000000000000000 ) ) ;
#507 = AXIS2_PLACEMENT_3D ( 'NONE', #299, #60, #217 ) ;
#508 = LOCAL_TIME ( 10, 32, 39.00000000000000000, #435 ) ;
#509 = CARTESIAN_POINT ( 'NONE',  ( 1.399999999999999911, 0.000000000000000000, -22.00000000000000000 ) ) ;
#510 = CARTESIAN_POINT ( 'NONE',  ( 0.000000000000000000, 0.000000000000000000, -3.000000000000000000 ) ) ;
#511 = VERTEX_POINT ( 'NONE', #191 ) ;
ENDSEC;
END-ISO-10303-21;
