ISO-10303-21;
HEADER;
FILE_DESCRIPTION (( 'STEP AP203' ),
    '1' );
FILE_NAME ('socket_head_cap_screw_M4_l25mm_plain.STEP',
    '2026-09-14T13:32:39',
    ( '' ),
    ( '' ),
    'SwSTEP 2.0',
    'SolidWorks 2026',
    '' );
FILE_SCHEMA (( 'CONFIG_CONTROL_DESIGN' ));
ENDSEC;

DATA;
#1 = CARTESIAN_POINT ( 'NONE',  ( 0.000000000000000000, 0.000000000000000000, 0.000000000000000000 ) ) ;
#2 = ADVANCED_FACE ( 'NONE', ( #96 ), #105, .T. ) ;
#3 = LINE ( 'NONE', #121, #144 ) ;
#4 = CIRCLE ( 'NONE', #116, 1.899999999999999911 ) ;
#5 = ORIENTED_EDGE ( 'NONE', *, *, #476, .F. ) ;
#6 = DIRECTION ( 'NONE',  ( 1.000000000000000000, 1.217064991381999788E-16, 0.000000000000000000 ) ) ;
#7 = ORIENTED_EDGE ( 'NONE', *, *, #230, .F. ) ;
#8 = PRODUCT_DEFINITION_SHAPE ( 'NONE', 'NONE',  #194 ) ;
#9 = DIRECTION ( 'NONE',  ( 0.000000000000000000, 0.000000000000000000, 1.000000000000000000 ) ) ;
#10 = VERTEX_POINT ( 'NONE', #102 ) ;
#11 = CARTESIAN_POINT ( 'NONE',  ( 0.000000000000000000, 0.000000000000000000, -4.000000000000000000 ) ) ;
#12 = EDGE_LOOP ( 'NONE', ( #367, #450, #220, #330, #277, #489 ) ) ;
#13 = DIRECTION ( 'NONE',  ( 0.000000000000000000, 0.000000000000000000, 1.000000000000000000 ) ) ;
#14 = EDGE_LOOP ( 'NONE', ( #485, #179, #143, #376 ) ) ;
#15 = CARTESIAN_POINT ( 'NONE',  ( -3.351417754371000224E-16, -1.824426850638999786, -2.000000000000000000 ) ) ;
#16 = VERTEX_POINT ( 'NONE', #505 ) ;
#17 = CARTESIAN_POINT ( 'NONE',  ( 1.580000000000000071, -0.9122134253199999376, 0.000000000000000000 ) ) ;
#18 = ORIENTED_EDGE ( 'NONE', *, *, #317, .F. ) ;
#19 = AXIS2_PLACEMENT_3D ( 'NONE', #23, #189, #455 ) ;
#20 = AXIS2_PLACEMENT_3D ( 'NONE', #192, #350, #298 ) ;
#21 = PERSON_AND_ORGANIZATION ( #18446744073709551615, #18446744073709551615 ) ;
#22 = EDGE_CURVE ( 'NONE', #237, #147, #149, .T. ) ;
#23 = CARTESIAN_POINT ( 'NONE',  ( 1.014220826152000071E-16, 1.014220826152000010E-17, -2.000000000000000000 ) ) ;
#24 = ADVANCED_FACE ( 'NONE', ( #502 ), #303, .T. ) ;
#25 = PERSON_AND_ORGANIZATION ( #18446744073709551615, #18446744073709551615 ) ;
#26 = DIRECTION ( 'NONE',  ( 0.000000000000000000, 0.000000000000000000, 1.000000000000000000 ) ) ;
#27 =( NAMED_UNIT ( * ) SI_UNIT ( $, .STERADIAN. ) SOLID_ANGLE_UNIT ( ) );
#28 = LINE ( 'NONE', #150, #30 ) ;
#29 = EDGE_CURVE ( 'NONE', #374, #472, #197, .T. ) ;
#30 = VECTOR ( 'NONE', #462, 1000.000000000000000 ) ;
#31 = DATE_AND_TIME ( #146, #349 ) ;
#32 = DIRECTION ( 'NONE',  ( 0.000000000000000000, 0.000000000000000000, 1.000000000000000000 ) ) ;
#33 = CARTESIAN_POINT ( 'NONE',  ( 1.580000000000000071, 0.9122134253199999376, 0.000000000000000000 ) ) ;
#34 = FACE_OUTER_BOUND ( 'NONE', #474, .T. ) ;
#35 = VERTEX_POINT ( 'NONE', #33 ) ;
#36 = CC_DESIGN_PERSON_AND_ORGANIZATION_ASSIGNMENT ( #184, #300, ( #145 ) ) ;
#37 = AXIS2_PLACEMENT_3D ( 'NONE', #331, #213, #136 ) ;
#38 = PLANE ( 'NONE',  #286 ) ;
#39 = ORIENTED_EDGE ( 'NONE', *, *, #345, .F. ) ;
#40 = ADVANCED_FACE ( 'NONE', ( #343 ), #231, .T. ) ;
#41 = DIRECTION ( 'NONE',  ( 0.8660254037843289066, 0.5000000000001899592, 0.000000000000000000 ) ) ;
#42 = EDGE_LOOP ( 'NONE', ( #435, #7 ) ) ;
#43 = APPROVAL_ROLE ( '' ) ;
#44 = DIRECTION ( 'NONE',  ( 1.000000000000000000, 0.000000000000000000, 0.000000000000000000 ) ) ;
#45 = EDGE_CURVE ( 'NONE', #54, #234, #4, .T. ) ;
#46 = LINE ( 'NONE', #473, #123 ) ;
#47 = CIRCLE ( 'NONE', #37, 1.899999999999999911 ) ;
#48 = VERTEX_POINT ( 'NONE', #387 ) ;
#49 = DIRECTION ( 'NONE',  ( -0.5000000000001900702, 0.8660254037843290176, 0.000000000000000000 ) ) ;
#50 = VERTEX_POINT ( 'NONE', #384 ) ;
#51 = FACE_OUTER_BOUND ( 'NONE', #78, .T. ) ;
#52 = ORIENTED_EDGE ( 'NONE', *, *, #22, .F. ) ;
#53 = LINE ( 'NONE', #484, #466 ) ;
#54 = VERTEX_POINT ( 'NONE', #267 ) ;
#55 = VECTOR ( 'NONE', #26, 1000.000000000000000 ) ;
#56 = CARTESIAN_POINT ( 'NONE',  ( 0.000000000000000000, 0.000000000000000000, -27.59999999999999787 ) ) ;
#57 = EDGE_CURVE ( 'NONE', #339, #201, #386, .T. ) ;
#58 = ORIENTED_EDGE ( 'NONE', *, *, #131, .T. ) ;
#59 = DIRECTION ( 'NONE',  ( -3.651194974145999857E-16, -1.000000000000000000, 0.000000000000000000 ) ) ;
#60 = ORIENTED_EDGE ( 'NONE', *, *, #57, .T. ) ;
#61 = LINE ( 'NONE', #17, #170 ) ;
#62 = CARTESIAN_POINT ( 'NONE',  ( -1.580000000000000071, -0.9122134253199999376, 0.000000000000000000 ) ) ;
#63 = AXIS2_PLACEMENT_3D ( 'NONE', #56, #412, #174 ) ;
#64 = LINE ( 'NONE', #383, #55 ) ;
#65 = DIRECTION ( 'NONE',  ( 0.000000000000000000, 0.000000000000000000, -1.000000000000000000 ) ) ;
#66 = PLANE ( 'NONE',  #328 ) ;
#67 = PERSON_AND_ORGANIZATION_ROLE ( 'design_owner' ) ;
#68 = CC_DESIGN_PERSON_AND_ORGANIZATION_ASSIGNMENT ( #385, #494, ( #401 ) ) ;
#69 = DIRECTION ( 'NONE',  ( 0.000000000000000000, 0.000000000000000000, 1.000000000000000000 ) ) ;
#70 = VECTOR ( 'NONE', #321, 1000.000000000000000 ) ;
#71 = PLANE ( 'NONE',  #98 ) ;
#72 = APPROVAL_PERSON_ORGANIZATION ( #340, #167, #111 ) ;
#73 = CARTESIAN_POINT ( 'NONE',  ( 0.000000000000000000, 0.000000000000000000, -29.00000000000000000 ) ) ;
#74 = DIRECTION ( 'NONE',  ( 1.000000000000000000, 0.000000000000000000, 0.000000000000000000 ) ) ;
#75 = EDGE_LOOP ( 'NONE', ( #130, #122 ) ) ;
#76 = PRODUCT_RELATED_PRODUCT_CATEGORY ( 'detail', '', ( #405 ) ) ;
#77 = LINE ( 'NONE', #202, #427 ) ;
#78 = EDGE_LOOP ( 'NONE', ( #365, #120, #181, #52 ) ) ;
#79 = ADVANCED_FACE ( 'NONE', ( #418 ), #391, .T. ) ;
#80 = AXIS2_PLACEMENT_3D ( 'NONE', #200, #158, #160 ) ;
#81 = PLANE ( 'NONE',  #371 ) ;
#82 = EDGE_LOOP ( 'NONE', ( #403, #327, #293, #86 ) ) ;
#83 = FACE_BOUND ( 'NONE', #75, .T. ) ;
#84 = ORIENTED_EDGE ( 'NONE', *, *, #138, .T. ) ;
#85 = FACE_BOUND ( 'NONE', #416, .T. ) ;
#86 = ORIENTED_EDGE ( 'NONE', *, *, #138, .F. ) ;
#87 = PLANE ( 'NONE',  #389 ) ;
#88 = CIRCLE ( 'NONE', #411, 3.500000000000000000 ) ;
#89 = ORIENTED_EDGE ( 'NONE', *, *, #131, .F. ) ;
#90 = DIRECTION ( 'NONE',  ( -0.8660254037843289066, -0.5000000000001899592, 0.000000000000000000 ) ) ;
#91 = ORIENTED_EDGE ( 'NONE', *, *, #268, .F. ) ;
#92 = DIRECTION ( 'NONE',  ( 0.000000000000000000, 0.000000000000000000, -1.000000000000000000 ) ) ;
#93 = ORIENTED_EDGE ( 'NONE', *, *, #57, .F. ) ;
#94 = EDGE_CURVE ( 'NONE', #234, #50, #28, .T. ) ;
#95 = CARTESIAN_POINT ( 'NONE',  ( -1.580000000000000071, 0.9122134253199999376, -2.000000000000000000 ) ) ;
#96 = FACE_OUTER_BOUND ( 'NONE', #14, .T. ) ;
#97 = CLOSED_SHELL ( 'NONE', ( #113, #79, #269, #216, #408, #24, #40, #359, #465, #107, #460, #446, #142, #238, #244, #2 ) ) ;
#98 = AXIS2_PLACEMENT_3D ( 'NONE', #380, #424, #306 ) ;
#99 = LINE ( 'NONE', #172, #133 ) ;
#100 = EDGE_LOOP ( 'NONE', ( #252, #248, #84, #39 ) ) ;
#101 = PERSON_AND_ORGANIZATION_ROLE ( 'creator' ) ;
#102 = CARTESIAN_POINT ( 'NONE',  ( 3.500000000000000000, 0.000000000000000000, 0.000000000000000000 ) ) ;
#103 = CC_DESIGN_DATE_AND_TIME_ASSIGNMENT ( #346, #500, ( #194 ) ) ;
#104 = CARTESIAN_POINT ( 'NONE',  ( -3.351417754371000224E-16, -1.824426850638999786, 0.000000000000000000 ) ) ;
#105 = CYLINDRICAL_SURFACE ( 'NONE', #153, 3.500000000000000000 ) ;
#106 = CIRCLE ( 'NONE', #178, 3.500000000000000000 ) ;
#107 = ADVANCED_FACE ( 'NONE', ( #299 ), #66, .F. ) ;
#108 = CARTESIAN_POINT ( 'NONE',  ( 1.580000000000000071, -0.9122134253199999376, -2.000000000000000000 ) ) ;
#109 = DIRECTION ( 'NONE',  ( 0.000000000000000000, 0.000000000000000000, 1.000000000000000000 ) ) ;
#110 = DESIGN_CONTEXT ( 'detailed design', #503, 'design' ) ;
#111 = APPROVAL_ROLE ( '' ) ;
#112 = CARTESIAN_POINT ( 'NONE',  ( 1.117139251456999993E-16, 1.824426850638999786, -2.000000000000000000 ) ) ;
#113 = ADVANCED_FACE ( 'NONE', ( #456 ), #459, .T. ) ;
#114 = APPROVAL_STATUS ( 'not_yet_approved' ) ;
#115 = DIRECTION ( 'NONE',  ( 1.000000000000000000, 0.000000000000000000, 0.000000000000000000 ) ) ;
#116 = AXIS2_PLACEMENT_3D ( 'NONE', #464, #271, #382 ) ;
#117 = LOCAL_TIME ( 10, 32, 39.00000000000000000, #426 ) ;
#118 = CARTESIAN_POINT ( 'NONE',  ( 0.000000000000000000, 0.000000000000000000, 0.000000000000000000 ) ) ;
#119 = CARTESIAN_POINT ( 'NONE',  ( 0.000000000000000000, 0.000000000000000000, -27.59999999999999787 ) ) ;
#120 = ORIENTED_EDGE ( 'NONE', *, *, #373, .T. ) ;
#121 = CARTESIAN_POINT ( 'NONE',  ( 1.580000000000000071, 0.9122134253199999376, 0.000000000000000000 ) ) ;
#122 = ORIENTED_EDGE ( 'NONE', *, *, #345, .T. ) ;
#123 = VECTOR ( 'NONE', #125, 1000.000000000000000 ) ;
#124 = CC_DESIGN_APPROVAL ( #379, ( #145 ) ) ;
#125 = DIRECTION ( 'NONE',  ( 0.000000000000000000, 0.000000000000000000, 1.000000000000000000 ) ) ;
#126 = ORIENTED_EDGE ( 'NONE', *, *, #22, .T. ) ;
#127 = DIRECTION ( 'NONE',  ( -1.217064991381999788E-16, 1.000000000000000000, 0.000000000000000000 ) ) ;
#128 = ORIENTED_EDGE ( 'NONE', *, *, #289, .F. ) ;
#129 = DIRECTION ( 'NONE',  ( -3.651194974145999857E-16, -1.000000000000000000, 0.000000000000000000 ) ) ;
#130 = ORIENTED_EDGE ( 'NONE', *, *, #414, .T. ) ;
#131 = EDGE_CURVE ( 'NONE', #35, #237, #422, .T. ) ;
#132 = LINE ( 'NONE', #15, #214 ) ;
#133 = VECTOR ( 'NONE', #92, 1000.000000000000000 ) ;
#134 = EDGE_LOOP ( 'NONE', ( #511, #166, #438, #5 ) ) ;
#135 = APPROVAL ( #315, 'Coincidente' ) ;
#136 = DIRECTION ( 'NONE',  ( 1.000000000000000000, 0.000000000000000000, 0.000000000000000000 ) ) ;
#137 = ORIENTED_EDGE ( 'NONE', *, *, #355, .F. ) ;
#138 = EDGE_CURVE ( 'NONE', #54, #285, #64, .T. ) ;
#139 = CARTESIAN_POINT ( 'NONE',  ( -1.580000000000000071, -0.9122134253199999376, -2.000000000000000000 ) ) ;
#140 = ORIENTED_EDGE ( 'NONE', *, *, #338, .T. ) ;
#141 = DIRECTION ( 'NONE',  ( 0.8660254037843289066, 0.5000000000001899592, 0.000000000000000000 ) ) ;
#142 = ADVANCED_FACE ( 'NONE', ( #191 ), #226, .F. ) ;
#143 = ORIENTED_EDGE ( 'NONE', *, *, #204, .T. ) ;
#144 = VECTOR ( 'NONE', #278, 1000.000000000000000 ) ;
#145 = PRODUCT_DEFINITION_FORMATION_WITH_SPECIFIED_SOURCE ( 'Simétric', '', #405, .NOT_KNOWN. ) ;
#146 = CALENDAR_DATE ( 2026, 14, 9 ) ;
#147 = VERTEX_POINT ( 'NONE', #112 ) ;
#148 = APPROVAL_DATE_TIME ( #463, #167 ) ;
#149 = LINE ( 'NONE', #307, #279 ) ;
#150 = CARTESIAN_POINT ( 'NONE',  ( -1.899999999999999911, 2.326828918379971365E-16, -29.00000000000000000 ) ) ;
#151 = ADVANCED_BREP_SHAPE_REPRESENTATION ( 'socket_head_cap_screw_M4_l25mm_plain', ( #240, #20 ), #206 ) ;
#152 = AXIS2_PLACEMENT_3D ( 'NONE', #118, #313, #361 ) ;
#153 = AXIS2_PLACEMENT_3D ( 'NONE', #309, #228, #495 ) ;
#154 = PERSON_AND_ORGANIZATION ( #18446744073709551615, #18446744073709551615 ) ;
#155 = DIRECTION ( 'NONE',  ( 0.000000000000000000, 0.000000000000000000, -1.000000000000000000 ) ) ;
#156 = EDGE_CURVE ( 'NONE', #201, #339, #186, .T. ) ;
#157 = CARTESIAN_POINT ( 'NONE',  ( 0.000000000000000000, 0.000000000000000000, -29.00000000000000000 ) ) ;
#158 = DIRECTION ( 'NONE',  ( 0.000000000000000000, 0.000000000000000000, 1.000000000000000000 ) ) ;
#159 = VECTOR ( 'NONE', #415, 1000.000000000000114 ) ;
#160 = DIRECTION ( 'NONE',  ( 1.000000000000000000, 0.000000000000000000, 0.000000000000000000 ) ) ;
#161 = ORIENTED_EDGE ( 'NONE', *, *, #29, .T. ) ;
#162 = CARTESIAN_POINT ( 'NONE',  ( -1.580000000000000071, -0.9122134253199999376, 0.000000000000000000 ) ) ;
#163 = EDGE_LOOP ( 'NONE', ( #440, #314, #210, #322 ) ) ;
#164 = EDGE_CURVE ( 'NONE', #472, #241, #439, .T. ) ;
#165 = CARTESIAN_POINT ( 'NONE',  ( 1.117139251456999993E-16, 1.824426850638999786, 0.000000000000000000 ) ) ;
#166 = ORIENTED_EDGE ( 'NONE', *, *, #289, .T. ) ;
#167 = APPROVAL ( #421, 'Coincidente' ) ;
#168 = DATE_AND_TIME ( #275, #246 ) ;
#169 = AXIS2_PLACEMENT_3D ( 'NONE', #193, #348, #155 ) ;
#170 = VECTOR ( 'NONE', #65, 1000.000000000000000 ) ;
#171 = FACE_OUTER_BOUND ( 'NONE', #413, .T. ) ;
#172 = CARTESIAN_POINT ( 'NONE',  ( -1.580000000000000071, 0.9122134253199999376, 0.000000000000000000 ) ) ;
#173 = ORIENTED_EDGE ( 'NONE', *, *, #177, .F. ) ;
#174 = DIRECTION ( 'NONE',  ( 1.000000000000000000, 0.000000000000000000, 0.000000000000000000 ) ) ;
#175 = VERTEX_POINT ( 'NONE', #364 ) ;
#176 = DIRECTION ( 'NONE',  ( 0.000000000000000000, 0.000000000000000000, 1.000000000000000000 ) ) ;
#177 = EDGE_CURVE ( 'NONE', #339, #234, #393, .T. ) ;
#178 = AXIS2_PLACEMENT_3D ( 'NONE', #392, #207, #467 ) ;
#179 = ORIENTED_EDGE ( 'NONE', *, *, #230, .T. ) ;
#180 = LINE ( 'NONE', #182, #199 ) ;
#181 = ORIENTED_EDGE ( 'NONE', *, *, #311, .F. ) ;
#182 = CARTESIAN_POINT ( 'NONE',  ( -1.580000000000000071, 0.9122134253199999376, -2.000000000000000000 ) ) ;
#183 = EDGE_LOOP ( 'NONE', ( #291, #431, #208, #442 ) ) ;
#184 = PERSON_AND_ORGANIZATION ( #18446744073709551615, #18446744073709551615 ) ;
#185 = VERTEX_POINT ( 'NONE', #356 ) ;
#186 = CIRCLE ( 'NONE', #400, 1.614999999999999991 ) ;
#187 = APPROVAL_PERSON_ORGANIZATION ( #360, #135, #43 ) ;
#188 = SECURITY_CLASSIFICATION_LEVEL ( 'unclassified' ) ;
#189 = DIRECTION ( 'NONE',  ( 0.000000000000000000, 0.000000000000000000, 1.000000000000000000 ) ) ;
#190 = CALENDAR_DATE ( 2026, 14, 9 ) ;
#191 = FACE_OUTER_BOUND ( 'NONE', #410, .T. ) ;
#192 = CARTESIAN_POINT ( 'NONE',  ( 0.000000000000000000, 0.000000000000000000, 0.000000000000000000 ) ) ;
#193 = CARTESIAN_POINT ( 'NONE',  ( 1.580000000000000071, 0.9122134253199999376, 0.000000000000000000 ) ) ;
#194 = PRODUCT_DEFINITION ( 'General', '', #145, #110 ) ;
#195 = CARTESIAN_POINT ( 'NONE',  ( 1.580000000000000071, 0.9122134253199999376, 0.000000000000000000 ) ) ;
#196 = UNCERTAINTY_MEASURE_WITH_UNIT (LENGTH_MEASURE( 1.000000000000000082E-05 ), #504, 'distance_accuracy_value', 'NONE');
#197 = LINE ( 'NONE', #497, #254 ) ;
#198 = DIRECTION ( 'NONE',  ( 1.000000000000000000, 0.000000000000000000, 0.000000000000000000 ) ) ;
#199 = VECTOR ( 'NONE', #129, 1000.000000000000000 ) ;
#200 = CARTESIAN_POINT ( 'NONE',  ( 0.000000000000000000, 0.000000000000000000, 0.000000000000000000 ) ) ;
#201 = VERTEX_POINT ( 'NONE', #276 ) ;
#202 = CARTESIAN_POINT ( 'NONE',  ( 1.117139251456999993E-16, 1.824426850638999786, 0.000000000000000000 ) ) ;
#203 = CARTESIAN_POINT ( 'NONE',  ( -1.899999999999999911, 2.326828918379971365E-16, -27.59999999999999787 ) ) ;
#204 = EDGE_CURVE ( 'NONE', #453, #10, #46, .T. ) ;
#205 = CIRCLE ( 'NONE', #381, 3.500000000000000000 ) ;
#206 =( GEOMETRIC_REPRESENTATION_CONTEXT ( 3 ) GLOBAL_UNCERTAINTY_ASSIGNED_CONTEXT ( ( #196 ) ) GLOBAL_UNIT_ASSIGNED_CONTEXT ( ( #504, #461, #27 ) ) REPRESENTATION_CONTEXT ( 'NONE', 'WORKASPACE' ) );
#207 = DIRECTION ( 'NONE',  ( 0.000000000000000000, 0.000000000000000000, 1.000000000000000000 ) ) ;
#208 = ORIENTED_EDGE ( 'NONE', *, *, #423, .F. ) ;
#209 = FACE_OUTER_BOUND ( 'NONE', #134, .T. ) ;
#210 = ORIENTED_EDGE ( 'NONE', *, *, #45, .F. ) ;
#211 = PLANE ( 'NONE',  #491 ) ;
#212 = ORIENTED_EDGE ( 'NONE', *, *, #264, .T. ) ;
#213 = DIRECTION ( 'NONE',  ( 0.000000000000000000, 0.000000000000000000, 1.000000000000000000 ) ) ;
#214 = VECTOR ( 'NONE', #141, 1000.000000000000114 ) ;
#215 = VERTEX_POINT ( 'NONE', #242 ) ;
#216 = ADVANCED_FACE ( 'NONE', ( #171 ), #38, .F. ) ;
#217 = LINE ( 'NONE', #441, #468 ) ;
#218 = ORIENTED_EDGE ( 'NONE', *, *, #344, .F. ) ;
#219 = PLANE ( 'NONE',  #222 ) ;
#220 = ORIENTED_EDGE ( 'NONE', *, *, #423, .T. ) ;
#221 = DIRECTION ( 'NONE',  ( 0.000000000000000000, 0.000000000000000000, -1.000000000000000000 ) ) ;
#222 = AXIS2_PLACEMENT_3D ( 'NONE', #372, #6, #256 ) ;
#223 = LINE ( 'NONE', #108, #451 ) ;
#224 = DIRECTION ( 'NONE',  ( -0.5000000000001900702, -0.8660254037843290176, 0.000000000000000000 ) ) ;
#225 = EDGE_CURVE ( 'NONE', #335, #10, #272, .T. ) ;
#226 = PLANE ( 'NONE',  #169 ) ;
#227 = DATE_AND_TIME ( #266, #475 ) ;
#228 = DIRECTION ( 'NONE',  ( 0.000000000000000000, 0.000000000000000000, 1.000000000000000000 ) ) ;
#229 = VECTOR ( 'NONE', #41, 1000.000000000000114 ) ;
#230 = EDGE_CURVE ( 'NONE', #175, #453, #106, .T. ) ;
#231 = CYLINDRICAL_SURFACE ( 'NONE', #261, 1.899999999999999911 ) ;
#232 = CARTESIAN_POINT ( 'NONE',  ( -3.351417754371000224E-16, -1.824426850638999786, 0.000000000000000000 ) ) ;
#233 = LINE ( 'NONE', #353, #362 ) ;
#234 = VERTEX_POINT ( 'NONE', #433 ) ;
#235 = CC_DESIGN_DATE_AND_TIME_ASSIGNMENT ( #31, #258, ( #401 ) ) ;
#236 = DIRECTION ( 'NONE',  ( 0.000000000000000000, 0.000000000000000000, 1.000000000000000000 ) ) ;
#237 = VERTEX_POINT ( 'NONE', #165 ) ;
#238 = ADVANCED_FACE ( 'NONE', ( #83, #318 ), #81, .F. ) ;
#239 = CARTESIAN_POINT ( 'NONE',  ( 0.000000000000000000, 0.000000000000000000, -29.00000000000000000 ) ) ;
#240 = MANIFOLD_SOLID_BREP ( 'c468b6c32bd0[1]', #97 ) ;
#241 = VERTEX_POINT ( 'NONE', #429 ) ;
#242 = CARTESIAN_POINT ( 'NONE',  ( -1.580000000000000071, 0.9122134253199999376, 0.000000000000000000 ) ) ;
#243 = ORIENTED_EDGE ( 'NONE', *, *, #432, .F. ) ;
#244 = ADVANCED_FACE ( 'NONE', ( #85, #34 ), #510, .T. ) ;
#245 = CIRCLE ( 'NONE', #419, 1.899999999999999911 ) ;
#246 = LOCAL_TIME ( 10, 32, 39.00000000000000000, #469 ) ;
#247 = DIRECTION ( 'NONE',  ( 0.000000000000000000, 0.000000000000000000, 1.000000000000000000 ) ) ;
#248 = ORIENTED_EDGE ( 'NONE', *, *, #344, .T. ) ;
#249 = LINE ( 'NONE', #290, #483 ) ;
#250 = ORIENTED_EDGE ( 'NONE', *, *, #333, .F. ) ;
#251 = CARTESIAN_POINT ( 'NONE',  ( 0.000000000000000000, 0.000000000000000000, -4.000000000000000000 ) ) ;
#252 = ORIENTED_EDGE ( 'NONE', *, *, #94, .F. ) ;
#253 = CARTESIAN_POINT ( 'NONE',  ( -1.614999999999999991, 2.152316749501494319E-16, -29.00000000000000000 ) ) ;
#254 = VECTOR ( 'NONE', #351, 1000.000000000000114 ) ;
#255 = VERTEX_POINT ( 'NONE', #274 ) ;
#256 = DIRECTION ( 'NONE',  ( -1.217064991381999788E-16, 1.000000000000000000, 0.000000000000000000 ) ) ;
#257 = ORIENTED_EDGE ( 'NONE', *, *, #164, .F. ) ;
#258 = DATE_TIME_ROLE ( 'classification_date' ) ;
#259 = DIRECTION ( 'NONE',  ( 0.000000000000000000, 0.000000000000000000, 1.000000000000000000 ) ) ;
#260 = CARTESIAN_POINT ( 'NONE',  ( 0.000000000000000000, 0.000000000000000000, -4.000000000000000000 ) ) ;
#261 = AXIS2_PLACEMENT_3D ( 'NONE', #157, #259, #115 ) ;
#262 = EDGE_CURVE ( 'NONE', #374, #48, #282, .T. ) ;
#263 = APPLICATION_PROTOCOL_DEFINITION ( 'international standard', 'config_control_design', 1994, #407 ) ;
#264 = EDGE_CURVE ( 'NONE', #453, #175, #88, .T. ) ;
#265 = DIRECTION ( 'NONE',  ( 1.000000000000000000, 0.000000000000000000, 0.000000000000000000 ) ) ;
#266 = CALENDAR_DATE ( 2026, 14, 9 ) ;
#267 = CARTESIAN_POINT ( 'NONE',  ( 1.899999999999999911, 0.000000000000000000, -27.59999999999999787 ) ) ;
#268 = EDGE_CURVE ( 'NONE', #241, #35, #233, .T. ) ;
#269 = ADVANCED_FACE ( 'NONE', ( #470 ), #395, .T. ) ;
#270 = MECHANICAL_CONTEXT ( 'NONE', #407, 'mechanical' ) ;
#271 = DIRECTION ( 'NONE',  ( 0.000000000000000000, 0.000000000000000000, 1.000000000000000000 ) ) ;
#272 = CIRCLE ( 'NONE', #80, 3.500000000000000000 ) ;
#273 = APPROVAL_PERSON_ORGANIZATION ( #21, #379, #342 ) ;
#274 = CARTESIAN_POINT ( 'NONE',  ( 1.580000000000000071, 0.9122134253199999376, -2.000000000000000000 ) ) ;
#275 = CALENDAR_DATE ( 2026, 14, 9 ) ;
#276 = CARTESIAN_POINT ( 'NONE',  ( 1.614999999999999991, 0.000000000000000000, -29.00000000000000000 ) ) ;
#277 = ORIENTED_EDGE ( 'NONE', *, *, #317, .T. ) ;
#278 = DIRECTION ( 'NONE',  ( 0.000000000000000000, 0.000000000000000000, -1.000000000000000000 ) ) ;
#279 = VECTOR ( 'NONE', #221, 1000.000000000000000 ) ;
#280 = CC_DESIGN_PERSON_AND_ORGANIZATION_ASSIGNMENT ( #25, #67, ( #405 ) ) ;
#281 = CARTESIAN_POINT ( 'NONE',  ( 0.000000000000000000, 0.000000000000000000, -4.000000000000000000 ) ) ;
#282 = LINE ( 'NONE', #162, #70 ) ;
#283 = EDGE_LOOP ( 'NONE', ( #394, #325, #18, #243 ) ) ;
#284 = LINE ( 'NONE', #366, #490 ) ;
#285 = VERTEX_POINT ( 'NONE', #396 ) ;
#286 = AXIS2_PLACEMENT_3D ( 'NONE', #239, #430, #508 ) ;
#287 = FACE_OUTER_BOUND ( 'NONE', #183, .T. ) ;
#288 = ORIENTED_EDGE ( 'NONE', *, *, #156, .F. ) ;
#289 = EDGE_CURVE ( 'NONE', #35, #255, #3, .T. ) ;
#290 = CARTESIAN_POINT ( 'NONE',  ( -3.351417754371000224E-16, -1.824426850638999786, 0.000000000000000000 ) ) ;
#291 = ORIENTED_EDGE ( 'NONE', *, *, #355, .T. ) ;
#292 = LINE ( 'NONE', #324, #347 ) ;
#293 = ORIENTED_EDGE ( 'NONE', *, *, #414, .F. ) ;
#294 = EDGE_CURVE ( 'NONE', #237, #215, #77, .T. ) ;
#295 = LINE ( 'NONE', #139, #159 ) ;
#296 = AXIS2_PLACEMENT_3D ( 'NONE', #73, #352, #506 ) ;
#297 = ORIENTED_EDGE ( 'NONE', *, *, #225, .T. ) ;
#298 = DIRECTION ( 'NONE',  ( 1.000000000000000000, 0.000000000000000000, 0.000000000000000000 ) ) ;
#299 = FACE_OUTER_BOUND ( 'NONE', #406, .T. ) ;
#300 = PERSON_AND_ORGANIZATION_ROLE ( 'creator' ) ;
#301 = DIRECTION ( 'NONE',  ( 1.000000000000000000, 0.000000000000000000, 0.000000000000000000 ) ) ;
#302 = APPROVAL_DATE_TIME ( #227, #379 ) ;
#303 = PLANE ( 'NONE',  #19 ) ;
#304 = VECTOR ( 'NONE', #310, 1000.000000000000114 ) ;
#305 = EDGE_CURVE ( 'NONE', #10, #335, #205, .T. ) ;
#306 = DIRECTION ( 'NONE',  ( 0.000000000000000000, 0.000000000000000000, -1.000000000000000000 ) ) ;
#307 = CARTESIAN_POINT ( 'NONE',  ( 1.117139251456999993E-16, 1.824426850638999786, 0.000000000000000000 ) ) ;
#308 = APPLICATION_PROTOCOL_DEFINITION ( 'international standard', 'config_control_design', 1994, #503 ) ;
#309 = CARTESIAN_POINT ( 'NONE',  ( 0.000000000000000000, 0.000000000000000000, -4.000000000000000000 ) ) ;
#310 = DIRECTION ( 'NONE',  ( -0.1994800280622450739, 2.442925778602526543E-17, 0.9799018922342613847 ) ) ;
#311 = EDGE_CURVE ( 'NONE', #147, #357, #480, .T. ) ;
#312 = CC_DESIGN_APPROVAL ( #135, ( #401 ) ) ;
#313 = DIRECTION ( 'NONE',  ( 0.000000000000000000, 0.000000000000000000, 1.000000000000000000 ) ) ;
#314 = ORIENTED_EDGE ( 'NONE', *, *, #177, .T. ) ;
#315 = APPROVAL_STATUS ( 'not_yet_approved' ) ;
#316 = CARTESIAN_POINT ( 'NONE',  ( 0.000000000000000000, 0.000000000000000000, -4.000000000000000000 ) ) ;
#317 = EDGE_CURVE ( 'NONE', #185, #16, #132, .T. ) ;
#318 = FACE_OUTER_BOUND ( 'NONE', #42, .T. ) ;
#319 = ORIENTED_EDGE ( 'NONE', *, *, #388, .F. ) ;
#320 = AXIS2_PLACEMENT_3D ( 'NONE', #260, #109, #265 ) ;
#321 = DIRECTION ( 'NONE',  ( 0.000000000000000000, 0.000000000000000000, -1.000000000000000000 ) ) ;
#322 = ORIENTED_EDGE ( 'NONE', *, *, #434, .F. ) ;
#323 = CC_DESIGN_PERSON_AND_ORGANIZATION_ASSIGNMENT ( #154, #101, ( #194 ) ) ;
#324 = CARTESIAN_POINT ( 'NONE',  ( 1.580000000000000071, 0.9122134253199999376, -2.000000000000000000 ) ) ;
#325 = ORIENTED_EDGE ( 'NONE', *, *, #476, .T. ) ;
#326 = CARTESIAN_POINT ( 'NONE',  ( 3.500000000000000000, 0.000000000000000000, -4.000000000000000000 ) ) ;
#327 = ORIENTED_EDGE ( 'NONE', *, *, #94, .T. ) ;
#328 = AXIS2_PLACEMENT_3D ( 'NONE', #62, #224, #341 ) ;
#329 = FACE_OUTER_BOUND ( 'NONE', #283, .T. ) ;
#330 = ORIENTED_EDGE ( 'NONE', *, *, #333, .T. ) ;
#331 = CARTESIAN_POINT ( 'NONE',  ( 0.000000000000000000, 0.000000000000000000, -27.59999999999999787 ) ) ;
#332 = EDGE_LOOP ( 'NONE', ( #212, #140, #487, #479 ) ) ;
#333 = EDGE_CURVE ( 'NONE', #48, #185, #295, .T. ) ;
#334 = FACE_OUTER_BOUND ( 'NONE', #445, .T. ) ;
#335 = VERTEX_POINT ( 'NONE', #452 ) ;
#336 = PERSON_AND_ORGANIZATION_ROLE ( 'design_supplier' ) ;
#337 = AXIS2_PLACEMENT_3D ( 'NONE', #11, #247, #402 ) ;
#338 = EDGE_CURVE ( 'NONE', #175, #335, #284, .T. ) ;
#339 = VERTEX_POINT ( 'NONE', #253 ) ;
#340 = PERSON_AND_ORGANIZATION ( #18446744073709551615, #18446744073709551615 ) ;
#341 = DIRECTION ( 'NONE',  ( -0.8660254037843289066, 0.5000000000001899592, 0.000000000000000000 ) ) ;
#342 = APPROVAL_ROLE ( '' ) ;
#343 = FACE_OUTER_BOUND ( 'NONE', #100, .T. ) ;
#344 = EDGE_CURVE ( 'NONE', #234, #54, #47, .T. ) ;
#345 = EDGE_CURVE ( 'NONE', #50, #285, #499, .T. ) ;
#346 = DATE_AND_TIME ( #377, #501 ) ;
#347 = VECTOR ( 'NONE', #449, 1000.000000000000114 ) ;
#348 = DIRECTION ( 'NONE',  ( 0.5000000000001900702, 0.8660254037843290176, 0.000000000000000000 ) ) ;
#349 = LOCAL_TIME ( 10, 32, 39.00000000000000000, #492 ) ;
#350 = DIRECTION ( 'NONE',  ( 0.000000000000000000, 0.000000000000000000, 1.000000000000000000 ) ) ;
#351 = DIRECTION ( 'NONE',  ( 0.8660254037843289066, -0.5000000000001899592, 0.000000000000000000 ) ) ;
#352 = DIRECTION ( 'NONE',  ( 0.000000000000000000, 0.000000000000000000, 1.000000000000000000 ) ) ;
#353 = CARTESIAN_POINT ( 'NONE',  ( 1.580000000000000071, -0.9122134253199999376, 0.000000000000000000 ) ) ;
#354 = VECTOR ( 'NONE', #90, 1000.000000000000114 ) ;
#355 = EDGE_CURVE ( 'NONE', #215, #374, #53, .T. ) ;
#356 = CARTESIAN_POINT ( 'NONE',  ( -3.351417754371000224E-16, -1.824426850638999786, -2.000000000000000000 ) ) ;
#357 = VERTEX_POINT ( 'NONE', #95 ) ;
#358 = DIRECTION ( 'NONE',  ( -0.8660254037843289066, -0.5000000000001899592, 0.000000000000000000 ) ) ;
#359 = ADVANCED_FACE ( 'NONE', ( #209 ), #219, .F. ) ;
#360 = PERSON_AND_ORGANIZATION ( #18446744073709551615, #18446744073709551615 ) ;
#361 = DIRECTION ( 'NONE',  ( 1.000000000000000000, 0.000000000000000000, 0.000000000000000000 ) ) ;
#362 = VECTOR ( 'NONE', #127, 1000.000000000000000 ) ;
#363 = CC_DESIGN_APPROVAL ( #167, ( #194 ) ) ;
#364 = CARTESIAN_POINT ( 'NONE',  ( -3.500000000000000000, 4.286263797015736595E-16, -4.000000000000000000 ) ) ;
#365 = ORIENTED_EDGE ( 'NONE', *, *, #294, .T. ) ;
#366 = CARTESIAN_POINT ( 'NONE',  ( -3.500000000000000000, 4.286263797015736595E-16, -4.000000000000000000 ) ) ;
#367 = ORIENTED_EDGE ( 'NONE', *, *, #388, .T. ) ;
#368 = DIRECTION ( 'NONE',  ( -1.000000000000000000, 3.651194974145999857E-16, 0.000000000000000000 ) ) ;
#369 = ORIENTED_EDGE ( 'NONE', *, *, #432, .T. ) ;
#370 = AXIS2_PLACEMENT_3D ( 'NONE', #428, #32, #301 ) ;
#371 = AXIS2_PLACEMENT_3D ( 'NONE', #281, #477, #74 ) ;
#372 = CARTESIAN_POINT ( 'NONE',  ( 1.580000000000000071, -0.9122134253199999376, 0.000000000000000000 ) ) ;
#373 = EDGE_CURVE ( 'NONE', #215, #357, #99, .T. ) ;
#374 = VERTEX_POINT ( 'NONE', #486 ) ;
#375 = DIRECTION ( 'NONE',  ( 0.1994800280622450739, 0.000000000000000000, 0.9799018922342613847 ) ) ;
#376 = ORIENTED_EDGE ( 'NONE', *, *, #225, .F. ) ;
#377 = CALENDAR_DATE ( 2026, 14, 9 ) ;
#378 = ORIENTED_EDGE ( 'NONE', *, *, #29, .F. ) ;
#379 = APPROVAL ( #114, 'Coincidente' ) ;
#380 = CARTESIAN_POINT ( 'NONE',  ( -3.351417754371000224E-16, -1.824426850638999786, 0.000000000000000000 ) ) ;
#381 = AXIS2_PLACEMENT_3D ( 'NONE', #1, #398, #44 ) ;
#382 = DIRECTION ( 'NONE',  ( 1.000000000000000000, 0.000000000000000000, 0.000000000000000000 ) ) ;
#383 = CARTESIAN_POINT ( 'NONE',  ( 1.899999999999999911, 0.000000000000000000, -29.00000000000000000 ) ) ;
#384 = CARTESIAN_POINT ( 'NONE',  ( -1.899999999999999911, 2.326828918379971365E-16, -4.000000000000000000 ) ) ;
#385 = PERSON_AND_ORGANIZATION ( #18446744073709551615, #18446744073709551615 ) ;
#386 = CIRCLE ( 'NONE', #370, 1.614999999999999991 ) ;
#387 = CARTESIAN_POINT ( 'NONE',  ( -1.580000000000000071, -0.9122134253199999376, -2.000000000000000000 ) ) ;
#388 = EDGE_CURVE ( 'NONE', #255, #147, #292, .T. ) ;
#389 = AXIS2_PLACEMENT_3D ( 'NONE', #404, #49, #9 ) ;
#390 = APPROVAL_DATE_TIME ( #168, #135 ) ;
#391 = CYLINDRICAL_SURFACE ( 'NONE', #296, 1.899999999999999911 ) ;
#392 = CARTESIAN_POINT ( 'NONE',  ( 0.000000000000000000, 0.000000000000000000, -4.000000000000000000 ) ) ;
#393 = LINE ( 'NONE', #203, #304 ) ;
#394 = ORIENTED_EDGE ( 'NONE', *, *, #164, .T. ) ;
#395 = CONICAL_SURFACE ( 'NONE', #458, 1.899999999999999911, 0.2008272553700000129 ) ;
#396 = CARTESIAN_POINT ( 'NONE',  ( 1.899999999999999911, 0.000000000000000000, -4.000000000000000000 ) ) ;
#397 = ORIENTED_EDGE ( 'NONE', *, *, #434, .T. ) ;
#398 = DIRECTION ( 'NONE',  ( 0.000000000000000000, 0.000000000000000000, 1.000000000000000000 ) ) ;
#399 = DIRECTION ( 'NONE',  ( 1.000000000000000000, 0.000000000000000000, 0.000000000000000000 ) ) ;
#400 = AXIS2_PLACEMENT_3D ( 'NONE', #425, #69, #399 ) ;
#401 = SECURITY_CLASSIFICATION ( '', '', #188 ) ;
#402 = DIRECTION ( 'NONE',  ( 1.000000000000000000, 0.000000000000000000, 0.000000000000000000 ) ) ;
#403 = ORIENTED_EDGE ( 'NONE', *, *, #45, .T. ) ;
#404 = CARTESIAN_POINT ( 'NONE',  ( 1.117139251456999993E-16, 1.824426850638999786, 0.000000000000000000 ) ) ;
#405 = PRODUCT ( 'socket_head_cap_screw_M4_l25mm_plain', 'socket_head_cap_screw_M4_l25mm_plain', '', ( #270 ) ) ;
#406 = EDGE_LOOP ( 'NONE', ( #161, #369, #250, #448 ) ) ;
#407 = APPLICATION_CONTEXT ( 'configuration controlled 3d designs of mechanical parts and assemblies' ) ;
#408 = ADVANCED_FACE ( 'NONE', ( #334 ), #443, .T. ) ;
#409 = CARTESIAN_POINT ( 'NONE',  ( 1.117139251456999993E-16, 1.824426850638999786, -2.000000000000000000 ) ) ;
#410 = EDGE_LOOP ( 'NONE', ( #58, #126, #319, #128 ) ) ;
#411 = AXIS2_PLACEMENT_3D ( 'NONE', #316, #471, #198 ) ;
#412 = DIRECTION ( 'NONE',  ( 0.000000000000000000, 0.000000000000000000, 1.000000000000000000 ) ) ;
#413 = EDGE_LOOP ( 'NONE', ( #288, #93 ) ) ;
#414 = EDGE_CURVE ( 'NONE', #285, #50, #245, .T. ) ;
#415 = DIRECTION ( 'NONE',  ( 0.8660254037843289066, -0.5000000000001899592, 0.000000000000000000 ) ) ;
#416 = EDGE_LOOP ( 'NONE', ( #89, #91, #257, #378, #137, #493 ) ) ;
#417 = COORDINATED_UNIVERSAL_TIME_OFFSET ( 3, 0, .BEHIND. ) ;
#418 = FACE_OUTER_BOUND ( 'NONE', #82, .T. ) ;
#419 = AXIS2_PLACEMENT_3D ( 'NONE', #251, #13, #478 ) ;
#420 = DIRECTION ( 'NONE',  ( -0.8660254037843289066, 0.5000000000001899592, 0.000000000000000000 ) ) ;
#421 = APPROVAL_STATUS ( 'not_yet_approved' ) ;
#422 = LINE ( 'NONE', #195, #507 ) ;
#423 = EDGE_CURVE ( 'NONE', #357, #48, #180, .T. ) ;
#424 = DIRECTION ( 'NONE',  ( 0.5000000000001900702, -0.8660254037843290176, 0.000000000000000000 ) ) ;
#425 = CARTESIAN_POINT ( 'NONE',  ( 0.000000000000000000, 0.000000000000000000, -29.00000000000000000 ) ) ;
#426 = COORDINATED_UNIVERSAL_TIME_OFFSET ( 3, 0, .BEHIND. ) ;
#427 = VECTOR ( 'NONE', #358, 1000.000000000000114 ) ;
#428 = CARTESIAN_POINT ( 'NONE',  ( 0.000000000000000000, 0.000000000000000000, -29.00000000000000000 ) ) ;
#429 = CARTESIAN_POINT ( 'NONE',  ( 1.580000000000000071, -0.9122134253199999376, 0.000000000000000000 ) ) ;
#430 = DIRECTION ( 'NONE',  ( 0.000000000000000000, 0.000000000000000000, 1.000000000000000000 ) ) ;
#431 = ORIENTED_EDGE ( 'NONE', *, *, #262, .T. ) ;
#432 = EDGE_CURVE ( 'NONE', #472, #185, #249, .T. ) ;
#433 = CARTESIAN_POINT ( 'NONE',  ( -1.899999999999999911, 2.326828918379971365E-16, -27.59999999999999787 ) ) ;
#434 = EDGE_CURVE ( 'NONE', #201, #54, #217, .T. ) ;
#435 = ORIENTED_EDGE ( 'NONE', *, *, #264, .F. ) ;
#436 = CC_DESIGN_SECURITY_CLASSIFICATION ( #401, ( #145 ) ) ;
#437 = DIRECTION ( 'NONE',  ( 1.000000000000000000, 0.000000000000000000, 0.000000000000000000 ) ) ;
#438 = ORIENTED_EDGE ( 'NONE', *, *, #498, .F. ) ;
#439 = LINE ( 'NONE', #232, #229 ) ;
#440 = ORIENTED_EDGE ( 'NONE', *, *, #156, .T. ) ;
#441 = CARTESIAN_POINT ( 'NONE',  ( 1.899999999999999911, 0.000000000000000000, -27.59999999999999787 ) ) ;
#442 = ORIENTED_EDGE ( 'NONE', *, *, #373, .F. ) ;
#443 = CONICAL_SURFACE ( 'NONE', #63, 1.899999999999999911, 0.2008272553700000129 ) ;
#444 = CARTESIAN_POINT ( 'NONE',  ( -1.580000000000000071, 0.9122134253199999376, 0.000000000000000000 ) ) ;
#445 = EDGE_LOOP ( 'NONE', ( #173, #60, #397, #218 ) ) ;
#446 = ADVANCED_FACE ( 'NONE', ( #51 ), #87, .F. ) ;
#447 = DIRECTION ( 'NONE',  ( 0.000000000000000000, 0.000000000000000000, 1.000000000000000000 ) ) ;
#448 = ORIENTED_EDGE ( 'NONE', *, *, #262, .F. ) ;
#449 = DIRECTION ( 'NONE',  ( -0.8660254037843289066, 0.5000000000001899592, 0.000000000000000000 ) ) ;
#450 = ORIENTED_EDGE ( 'NONE', *, *, #311, .T. ) ;
#451 = VECTOR ( 'NONE', #454, 1000.000000000000000 ) ;
#452 = CARTESIAN_POINT ( 'NONE',  ( -3.500000000000000000, 4.286263797015736595E-16, 0.000000000000000000 ) ) ;
#453 = VERTEX_POINT ( 'NONE', #326 ) ;
#454 = DIRECTION ( 'NONE',  ( -1.217064991381999788E-16, 1.000000000000000000, 0.000000000000000000 ) ) ;
#455 = DIRECTION ( 'NONE',  ( 1.000000000000000000, 0.000000000000000000, 0.000000000000000000 ) ) ;
#456 = FACE_OUTER_BOUND ( 'NONE', #332, .T. ) ;
#457 = PERSON_AND_ORGANIZATION ( #18446744073709551615, #18446744073709551615 ) ;
#458 = AXIS2_PLACEMENT_3D ( 'NONE', #119, #236, #437 ) ;
#459 = CYLINDRICAL_SURFACE ( 'NONE', #320, 3.500000000000000000 ) ;
#460 = ADVANCED_FACE ( 'NONE', ( #287 ), #211, .F. ) ;
#461 =( NAMED_UNIT ( * ) PLANE_ANGLE_UNIT ( ) SI_UNIT ( $, .RADIAN. ) );
#462 = DIRECTION ( 'NONE',  ( 0.000000000000000000, 0.000000000000000000, 1.000000000000000000 ) ) ;
#463 = DATE_AND_TIME ( #190, #117 ) ;
#464 = CARTESIAN_POINT ( 'NONE',  ( 0.000000000000000000, 0.000000000000000000, -27.59999999999999787 ) ) ;
#465 = ADVANCED_FACE ( 'NONE', ( #329 ), #71, .F. ) ;
#466 = VECTOR ( 'NONE', #59, 1000.000000000000000 ) ;
#467 = DIRECTION ( 'NONE',  ( 1.000000000000000000, 0.000000000000000000, 0.000000000000000000 ) ) ;
#468 = VECTOR ( 'NONE', #375, 1000.000000000000114 ) ;
#469 = COORDINATED_UNIVERSAL_TIME_OFFSET ( 3, 0, .BEHIND. ) ;
#470 = FACE_OUTER_BOUND ( 'NONE', #163, .T. ) ;
#471 = DIRECTION ( 'NONE',  ( 0.000000000000000000, 0.000000000000000000, 1.000000000000000000 ) ) ;
#472 = VERTEX_POINT ( 'NONE', #104 ) ;
#473 = CARTESIAN_POINT ( 'NONE',  ( 3.500000000000000000, 0.000000000000000000, -4.000000000000000000 ) ) ;
#474 = EDGE_LOOP ( 'NONE', ( #482, #297 ) ) ;
#475 = LOCAL_TIME ( 10, 32, 39.00000000000000000, #496 ) ;
#476 = EDGE_CURVE ( 'NONE', #241, #16, #61, .T. ) ;
#477 = DIRECTION ( 'NONE',  ( 0.000000000000000000, 0.000000000000000000, 1.000000000000000000 ) ) ;
#478 = DIRECTION ( 'NONE',  ( 1.000000000000000000, 0.000000000000000000, 0.000000000000000000 ) ) ;
#479 = ORIENTED_EDGE ( 'NONE', *, *, #204, .F. ) ;
#480 = LINE ( 'NONE', #409, #354 ) ;
#481 = CC_DESIGN_PERSON_AND_ORGANIZATION_ASSIGNMENT ( #457, #336, ( #145 ) ) ;
#482 = ORIENTED_EDGE ( 'NONE', *, *, #305, .T. ) ;
#483 = VECTOR ( 'NONE', #488, 1000.000000000000000 ) ;
#484 = CARTESIAN_POINT ( 'NONE',  ( -1.580000000000000071, 0.9122134253199999376, 0.000000000000000000 ) ) ;
#485 = ORIENTED_EDGE ( 'NONE', *, *, #338, .F. ) ;
#486 = CARTESIAN_POINT ( 'NONE',  ( -1.580000000000000071, -0.9122134253199999376, 0.000000000000000000 ) ) ;
#487 = ORIENTED_EDGE ( 'NONE', *, *, #305, .F. ) ;
#488 = DIRECTION ( 'NONE',  ( 0.000000000000000000, 0.000000000000000000, -1.000000000000000000 ) ) ;
#489 = ORIENTED_EDGE ( 'NONE', *, *, #498, .T. ) ;
#490 = VECTOR ( 'NONE', #447, 1000.000000000000000 ) ;
#491 = AXIS2_PLACEMENT_3D ( 'NONE', #444, #368, #176 ) ;
#492 = COORDINATED_UNIVERSAL_TIME_OFFSET ( 3, 0, .BEHIND. ) ;
#493 = ORIENTED_EDGE ( 'NONE', *, *, #294, .F. ) ;
#494 = PERSON_AND_ORGANIZATION_ROLE ( 'classification_officer' ) ;
#495 = DIRECTION ( 'NONE',  ( 1.000000000000000000, 0.000000000000000000, 0.000000000000000000 ) ) ;
#496 = COORDINATED_UNIVERSAL_TIME_OFFSET ( 3, 0, .BEHIND. ) ;
#497 = CARTESIAN_POINT ( 'NONE',  ( -1.580000000000000071, -0.9122134253199999376, 0.000000000000000000 ) ) ;
#498 = EDGE_CURVE ( 'NONE', #16, #255, #223, .T. ) ;
#499 = CIRCLE ( 'NONE', #337, 1.899999999999999911 ) ;
#500 = DATE_TIME_ROLE ( 'creation_date' ) ;
#501 = LOCAL_TIME ( 10, 32, 39.00000000000000000, #417 ) ;
#502 = FACE_OUTER_BOUND ( 'NONE', #12, .T. ) ;
#503 = APPLICATION_CONTEXT ( 'configuration controlled 3d designs of mechanical parts and assemblies' ) ;
#504 =( LENGTH_UNIT ( ) NAMED_UNIT ( * ) SI_UNIT ( .MILLI., .METRE. ) );
#505 = CARTESIAN_POINT ( 'NONE',  ( 1.580000000000000071, -0.9122134253199999376, -2.000000000000000000 ) ) ;
#506 = DIRECTION ( 'NONE',  ( 1.000000000000000000, 0.000000000000000000, 0.000000000000000000 ) ) ;
#507 = VECTOR ( 'NONE', #420, 1000.000000000000114 ) ;
#508 = DIRECTION ( 'NONE',  ( 1.000000000000000000, 0.000000000000000000, 0.000000000000000000 ) ) ;
#509 = SHAPE_DEFINITION_REPRESENTATION ( #8, #151 ) ;
#510 = PLANE ( 'NONE',  #152 ) ;
#511 = ORIENTED_EDGE ( 'NONE', *, *, #268, .T. ) ;
ENDSEC;
END-ISO-10303-21;
