ISO-10303-21;
HEADER;
FILE_DESCRIPTION (( 'STEP AP203' ),
    '1' );
FILE_NAME ('washer_M3.STEP',
    '2026-09-14T13:32:39',
    ( '' ),
    ( '' ),
    'SwSTEP 2.0',
    'SolidWorks 2026',
    '' );
FILE_SCHEMA (( 'CONFIG_CONTROL_DESIGN' ));
ENDSEC;

DATA;
#1 = FACE_BOUND ( 'NONE', #143, .T. ) ;
#2 = CARTESIAN_POINT ( 'NONE',  ( 0.000000000000000000, 0.000000000000000000, 0.000000000000000000 ) ) ;
#3 = CARTESIAN_POINT ( 'NONE',  ( 1.600000000000000089, 0.000000000000000000, 0.000000000000000000 ) ) ;
#4 = CARTESIAN_POINT ( 'NONE',  ( 0.000000000000000000, 0.000000000000000000, 0.5000000000000000000 ) ) ;
#5 = AXIS2_PLACEMENT_3D ( 'NONE', #61, #140, #159 ) ;
#6 = EDGE_CURVE ( 'NONE', #80, #220, #24, .T. ) ;
#7 = CARTESIAN_POINT ( 'NONE',  ( 1.600000000000000089, 0.000000000000000000, 0.000000000000000000 ) ) ;
#8 = CARTESIAN_POINT ( 'NONE',  ( 0.000000000000000000, 0.000000000000000000, 0.000000000000000000 ) ) ;
#9 = AXIS2_PLACEMENT_3D ( 'NONE', #165, #149, #146 ) ;
#10 = DATE_AND_TIME ( #84, #92 ) ;
#11 = EDGE_CURVE ( 'NONE', #94, #194, #195, .T. ) ;
#12 = VERTEX_POINT ( 'NONE', #59 ) ;
#13 = PRODUCT_RELATED_PRODUCT_CATEGORY ( 'detail', '', ( #131 ) ) ;
#14 = CALENDAR_DATE ( 2026, 14, 9 ) ;
#15 = CC_DESIGN_SECURITY_CLASSIFICATION ( #151, ( #126 ) ) ;
#16 = ORIENTED_EDGE ( 'NONE', *, *, #67, .T. ) ;
#17 = CC_DESIGN_DATE_AND_TIME_ASSIGNMENT ( #104, #86, ( #233 ) ) ;
#18 = PERSON_AND_ORGANIZATION ( #18446744073709551615, #18446744073709551615 ) ;
#19 = AXIS2_PLACEMENT_3D ( 'NONE', #184, #141, #225 ) ;
#20 = CARTESIAN_POINT ( 'NONE',  ( 0.000000000000000000, 0.000000000000000000, 0.5000000000000000000 ) ) ;
#21 = ORIENTED_EDGE ( 'NONE', *, *, #120, .F. ) ;
#22 = CARTESIAN_POINT ( 'NONE',  ( 0.000000000000000000, 0.000000000000000000, 0.5000000000000000000 ) ) ;
#23 =( GEOMETRIC_REPRESENTATION_CONTEXT ( 3 ) GLOBAL_UNCERTAINTY_ASSIGNED_CONTEXT ( ( #240 ) ) GLOBAL_UNIT_ASSIGNED_CONTEXT ( ( #102, #66, #216 ) ) REPRESENTATION_CONTEXT ( 'NONE', 'WORKASPACE' ) );
#24 = LINE ( 'NONE', #60, #172 ) ;
#25 = EDGE_CURVE ( 'NONE', #12, #72, #109, .T. ) ;
#26 = ORIENTED_EDGE ( 'NONE', *, *, #77, .F. ) ;
#27 = FACE_OUTER_BOUND ( 'NONE', #71, .T. ) ;
#28 = CARTESIAN_POINT ( 'NONE',  ( 0.000000000000000000, 0.000000000000000000, 0.000000000000000000 ) ) ;
#29 = AXIS2_PLACEMENT_3D ( 'NONE', #144, #187, #185 ) ;
#30 = PERSON_AND_ORGANIZATION_ROLE ( 'design_owner' ) ;
#31 = COORDINATED_UNIVERSAL_TIME_OFFSET ( 3, 0, .BEHIND. ) ;
#32 = APPROVAL_STATUS ( 'not_yet_approved' ) ;
#33 = VECTOR ( 'NONE', #68, 1000.000000000000000 ) ;
#34 = SECURITY_CLASSIFICATION_LEVEL ( 'unclassified' ) ;
#35 = CC_DESIGN_APPROVAL ( #218, ( #233 ) ) ;
#36 = PERSON_AND_ORGANIZATION ( #18446744073709551615, #18446744073709551615 ) ;
#37 = DIRECTION ( 'NONE',  ( 0.000000000000000000, 0.000000000000000000, 1.000000000000000000 ) ) ;
#38 = CYLINDRICAL_SURFACE ( 'NONE', #118, 1.600000000000000089 ) ;
#39 = CARTESIAN_POINT ( 'NONE',  ( 1.600000000000000089, 0.000000000000000000, 0.5000000000000000000 ) ) ;
#40 = FACE_OUTER_BOUND ( 'NONE', #229, .T. ) ;
#41 = CIRCLE ( 'NONE', #19, 3.500000000000000000 ) ;
#42 = ORIENTED_EDGE ( 'NONE', *, *, #103, .T. ) ;
#43 = CARTESIAN_POINT ( 'NONE',  ( -1.600000000000000089, 1.959434878635765230E-16, 0.5000000000000000000 ) ) ;
#44 = AXIS2_PLACEMENT_3D ( 'NONE', #79, #196, #212 ) ;
#45 = CYLINDRICAL_SURFACE ( 'NONE', #9, 1.600000000000000089 ) ;
#46 = DIRECTION ( 'NONE',  ( 0.000000000000000000, 0.000000000000000000, 1.000000000000000000 ) ) ;
#47 = DATE_AND_TIME ( #56, #100 ) ;
#48 = AXIS2_PLACEMENT_3D ( 'NONE', #22, #183, #197 ) ;
#49 = COORDINATED_UNIVERSAL_TIME_OFFSET ( 3, 0, .BEHIND. ) ;
#50 = ORIENTED_EDGE ( 'NONE', *, *, #77, .T. ) ;
#51 = EDGE_CURVE ( 'NONE', #12, #194, #213, .T. ) ;
#52 = COORDINATED_UNIVERSAL_TIME_OFFSET ( 3, 0, .BEHIND. ) ;
#53 = APPROVAL_STATUS ( 'not_yet_approved' ) ;
#54 = PRODUCT_DEFINITION_SHAPE ( 'NONE', 'NONE',  #233 ) ;
#55 = EDGE_LOOP ( 'NONE', ( #75, #50, #42, #130 ) ) ;
#56 = CALENDAR_DATE ( 2026, 14, 9 ) ;
#57 = DIRECTION ( 'NONE',  ( 0.000000000000000000, 0.000000000000000000, 1.000000000000000000 ) ) ;
#58 = AXIS2_PLACEMENT_3D ( 'NONE', #162, #57, #246 ) ;
#59 = CARTESIAN_POINT ( 'NONE',  ( -1.600000000000000089, 1.959434878635765230E-16, 0.000000000000000000 ) ) ;
#60 = CARTESIAN_POINT ( 'NONE',  ( -3.500000000000000000, 4.286263797015736595E-16, 0.000000000000000000 ) ) ;
#61 = CARTESIAN_POINT ( 'NONE',  ( 0.000000000000000000, 0.000000000000000000, 0.5000000000000000000 ) ) ;
#62 = CIRCLE ( 'NONE', #58, 3.500000000000000000 ) ;
#63 = LINE ( 'NONE', #136, #208 ) ;
#64 = CC_DESIGN_PERSON_AND_ORGANIZATION_ASSIGNMENT ( #239, #237, ( #126 ) ) ;
#65 = CYLINDRICAL_SURFACE ( 'NONE', #29, 3.500000000000000000 ) ;
#66 =( NAMED_UNIT ( * ) PLANE_ANGLE_UNIT ( ) SI_UNIT ( $, .RADIAN. ) );
#67 = EDGE_CURVE ( 'NONE', #209, #80, #41, .T. ) ;
#68 = DIRECTION ( 'NONE',  ( 0.000000000000000000, 0.000000000000000000, 1.000000000000000000 ) ) ;
#69 = DIRECTION ( 'NONE',  ( 1.000000000000000000, 0.000000000000000000, 0.000000000000000000 ) ) ;
#70 = APPROVAL_ROLE ( '' ) ;
#71 = EDGE_LOOP ( 'NONE', ( #221, #175, #152, #190 ) ) ;
#72 = VERTEX_POINT ( 'NONE', #3 ) ;
#73 = MANIFOLD_SOLID_BREP ( '91c43d4278d9[1]', #217 ) ;
#74 = VECTOR ( 'NONE', #158, 1000.000000000000000 ) ;
#75 = ORIENTED_EDGE ( 'NONE', *, *, #6, .F. ) ;
#76 = CYLINDRICAL_SURFACE ( 'NONE', #88, 3.500000000000000000 ) ;
#77 = EDGE_CURVE ( 'NONE', #80, #209, #62, .T. ) ;
#78 = DIRECTION ( 'NONE',  ( 0.000000000000000000, 0.000000000000000000, 1.000000000000000000 ) ) ;
#79 = CARTESIAN_POINT ( 'NONE',  ( 0.000000000000000000, 0.000000000000000000, 0.5000000000000000000 ) ) ;
#80 = VERTEX_POINT ( 'NONE', #96 ) ;
#81 = AXIS2_PLACEMENT_3D ( 'NONE', #98, #227, #139 ) ;
#82 = FACE_BOUND ( 'NONE', #176, .T. ) ;
#83 = APPROVAL_ROLE ( '' ) ;
#84 = CALENDAR_DATE ( 2026, 14, 9 ) ;
#85 = AXIS2_PLACEMENT_3D ( 'NONE', #2, #189, #235 ) ;
#86 = DATE_TIME_ROLE ( 'creation_date' ) ;
#87 = ORIENTED_EDGE ( 'NONE', *, *, #11, .F. ) ;
#88 = AXIS2_PLACEMENT_3D ( 'NONE', #95, #78, #180 ) ;
#89 = DESIGN_CONTEXT ( 'detailed design', #137, 'design' ) ;
#90 = ORIENTED_EDGE ( 'NONE', *, *, #205, .F. ) ;
#91 = LOCAL_TIME ( 10, 32, 39.00000000000000000, #52 ) ;
#92 = LOCAL_TIME ( 10, 32, 39.00000000000000000, #31 ) ;
#93 = DIRECTION ( 'NONE',  ( 0.000000000000000000, 0.000000000000000000, 1.000000000000000000 ) ) ;
#94 = VERTEX_POINT ( 'NONE', #39 ) ;
#95 = CARTESIAN_POINT ( 'NONE',  ( 0.000000000000000000, 0.000000000000000000, 0.000000000000000000 ) ) ;
#96 = CARTESIAN_POINT ( 'NONE',  ( -3.500000000000000000, 4.286263797015736595E-16, 0.000000000000000000 ) ) ;
#97 = APPROVAL ( #53, 'Coincidente' ) ;
#98 = CARTESIAN_POINT ( 'NONE',  ( 0.000000000000000000, 0.000000000000000000, 0.000000000000000000 ) ) ;
#99 = APPROVAL_STATUS ( 'not_yet_approved' ) ;
#100 = LOCAL_TIME ( 10, 32, 39.00000000000000000, #127 ) ;
#101 = CARTESIAN_POINT ( 'NONE',  ( 3.500000000000000000, 0.000000000000000000, 0.000000000000000000 ) ) ;
#102 =( LENGTH_UNIT ( ) NAMED_UNIT ( * ) SI_UNIT ( .MILLI., .METRE. ) );
#103 = EDGE_CURVE ( 'NONE', #209, #161, #63, .T. ) ;
#104 = DATE_AND_TIME ( #236, #181 ) ;
#105 = LINE ( 'NONE', #7, #33 ) ;
#106 = AXIS2_PLACEMENT_3D ( 'NONE', #4, #169, #69 ) ;
#107 = PERSON_AND_ORGANIZATION_ROLE ( 'classification_officer' ) ;
#108 = ORIENTED_EDGE ( 'NONE', *, *, #6, .T. ) ;
#109 = CIRCLE ( 'NONE', #81, 1.600000000000000089 ) ;
#110 = PERSON_AND_ORGANIZATION_ROLE ( 'creator' ) ;
#111 = EDGE_LOOP ( 'NONE', ( #16, #108, #21, #154 ) ) ;
#112 = EDGE_CURVE ( 'NONE', #220, #161, #147, .T. ) ;
#113 = ORIENTED_EDGE ( 'NONE', *, *, #25, .T. ) ;
#114 = APPROVAL_PERSON_ORGANIZATION ( #206, #218, #83 ) ;
#115 = DIRECTION ( 'NONE',  ( 0.000000000000000000, 0.000000000000000000, 1.000000000000000000 ) ) ;
#116 = CARTESIAN_POINT ( 'NONE',  ( 0.000000000000000000, 0.000000000000000000, 0.000000000000000000 ) ) ;
#117 = FACE_OUTER_BOUND ( 'NONE', #55, .T. ) ;
#118 = AXIS2_PLACEMENT_3D ( 'NONE', #116, #115, #198 ) ;
#119 = DIRECTION ( 'NONE',  ( 0.000000000000000000, 0.000000000000000000, 1.000000000000000000 ) ) ;
#120 = EDGE_CURVE ( 'NONE', #161, #220, #203, .T. ) ;
#121 = FACE_OUTER_BOUND ( 'NONE', #177, .T. ) ;
#122 = CC_DESIGN_APPROVAL ( #132, ( #126 ) ) ;
#123 = PERSON_AND_ORGANIZATION ( #18446744073709551615, #18446744073709551615 ) ;
#124 = CARTESIAN_POINT ( 'NONE',  ( -3.500000000000000000, 4.286263797015736595E-16, 0.5000000000000000000 ) ) ;
#125 = PLANE ( 'NONE',  #106 ) ;
#126 = PRODUCT_DEFINITION_FORMATION_WITH_SPECIFIED_SOURCE ( 'Simétric', '', #131, .NOT_KNOWN. ) ;
#127 = COORDINATED_UNIVERSAL_TIME_OFFSET ( 3, 0, .BEHIND. ) ;
#128 = CC_DESIGN_DATE_AND_TIME_ASSIGNMENT ( #150, #193, ( #151 ) ) ;
#129 = CC_DESIGN_PERSON_AND_ORGANIZATION_ASSIGNMENT ( #36, #107, ( #151 ) ) ;
#130 = ORIENTED_EDGE ( 'NONE', *, *, #112, .F. ) ;
#131 = PRODUCT ( 'washer_M3', 'washer_M3', '', ( #204 ) ) ;
#132 = APPROVAL ( #99, 'Coincidente' ) ;
#133 = ADVANCED_FACE ( 'NONE', ( #40 ), #38, .F. ) ;
#134 = CIRCLE ( 'NONE', #245, 1.600000000000000089 ) ;
#135 = APPROVAL_DATE_TIME ( #47, #97 ) ;
#136 = CARTESIAN_POINT ( 'NONE',  ( 3.500000000000000000, 0.000000000000000000, 0.000000000000000000 ) ) ;
#137 = APPLICATION_CONTEXT ( 'configuration controlled 3d designs of mechanical parts and assemblies' ) ;
#138 = APPROVAL_PERSON_ORGANIZATION ( #18, #97, #70 ) ;
#139 = DIRECTION ( 'NONE',  ( 1.000000000000000000, 0.000000000000000000, 0.000000000000000000 ) ) ;
#140 = DIRECTION ( 'NONE',  ( 0.000000000000000000, 0.000000000000000000, 1.000000000000000000 ) ) ;
#141 = DIRECTION ( 'NONE',  ( 0.000000000000000000, 0.000000000000000000, 1.000000000000000000 ) ) ;
#142 = AXIS2_PLACEMENT_3D ( 'NONE', #20, #93, #178 ) ;
#143 = EDGE_LOOP ( 'NONE', ( #170, #113 ) ) ;
#144 = CARTESIAN_POINT ( 'NONE',  ( 0.000000000000000000, 0.000000000000000000, 0.000000000000000000 ) ) ;
#145 = EDGE_CURVE ( 'NONE', #194, #94, #191, .T. ) ;
#146 = DIRECTION ( 'NONE',  ( 1.000000000000000000, 0.000000000000000000, 0.000000000000000000 ) ) ;
#147 = CIRCLE ( 'NONE', #44, 3.500000000000000000 ) ;
#148 = APPLICATION_PROTOCOL_DEFINITION ( 'international standard', 'config_control_design', 1994, #137 ) ;
#149 = DIRECTION ( 'NONE',  ( 0.000000000000000000, 0.000000000000000000, 1.000000000000000000 ) ) ;
#150 = DATE_AND_TIME ( #222, #231 ) ;
#151 = SECURITY_CLASSIFICATION ( '', '', #34 ) ;
#152 = ORIENTED_EDGE ( 'NONE', *, *, #205, .T. ) ;
#153 = CC_DESIGN_PERSON_AND_ORGANIZATION_ASSIGNMENT ( #167, #166, ( #233 ) ) ;
#154 = ORIENTED_EDGE ( 'NONE', *, *, #103, .F. ) ;
#155 = APPROVAL_ROLE ( '' ) ;
#156 = CC_DESIGN_PERSON_AND_ORGANIZATION_ASSIGNMENT ( #171, #110, ( #126 ) ) ;
#157 = APPLICATION_CONTEXT ( 'configuration controlled 3d designs of mechanical parts and assemblies' ) ;
#158 = DIRECTION ( 'NONE',  ( 0.000000000000000000, 0.000000000000000000, 1.000000000000000000 ) ) ;
#159 = DIRECTION ( 'NONE',  ( 1.000000000000000000, 0.000000000000000000, 0.000000000000000000 ) ) ;
#160 = FACE_OUTER_BOUND ( 'NONE', #238, .T. ) ;
#161 = VERTEX_POINT ( 'NONE', #247 ) ;
#162 = CARTESIAN_POINT ( 'NONE',  ( 0.000000000000000000, 0.000000000000000000, 0.000000000000000000 ) ) ;
#163 = CC_DESIGN_APPROVAL ( #97, ( #151 ) ) ;
#164 = DIRECTION ( 'NONE',  ( 0.000000000000000000, 0.000000000000000000, 1.000000000000000000 ) ) ;
#165 = CARTESIAN_POINT ( 'NONE',  ( 0.000000000000000000, 0.000000000000000000, 0.000000000000000000 ) ) ;
#166 = PERSON_AND_ORGANIZATION_ROLE ( 'creator' ) ;
#167 = PERSON_AND_ORGANIZATION ( #18446744073709551615, #18446744073709551615 ) ;
#168 = ADVANCED_FACE ( 'NONE', ( #117 ), #76, .T. ) ;
#169 = DIRECTION ( 'NONE',  ( 0.000000000000000000, 0.000000000000000000, 1.000000000000000000 ) ) ;
#170 = ORIENTED_EDGE ( 'NONE', *, *, #210, .T. ) ;
#171 = PERSON_AND_ORGANIZATION ( #18446744073709551615, #18446744073709551615 ) ;
#172 = VECTOR ( 'NONE', #119, 1000.000000000000000 ) ;
#173 = CC_DESIGN_PERSON_AND_ORGANIZATION_ASSIGNMENT ( #123, #30, ( #131 ) ) ;
#174 = ADVANCED_FACE ( 'NONE', ( #1, #160 ), #228, .F. ) ;
#175 = ORIENTED_EDGE ( 'NONE', *, *, #210, .F. ) ;
#176 = EDGE_LOOP ( 'NONE', ( #87, #243 ) ) ;
#177 = EDGE_LOOP ( 'NONE', ( #214, #200 ) ) ;
#178 = DIRECTION ( 'NONE',  ( 1.000000000000000000, 0.000000000000000000, 0.000000000000000000 ) ) ;
#179 = ORIENTED_EDGE ( 'NONE', *, *, #67, .F. ) ;
#180 = DIRECTION ( 'NONE',  ( 1.000000000000000000, 0.000000000000000000, 0.000000000000000000 ) ) ;
#181 = LOCAL_TIME ( 10, 32, 39.00000000000000000, #234 ) ;
#182 = ADVANCED_FACE ( 'NONE', ( #82, #121 ), #125, .T. ) ;
#183 = DIRECTION ( 'NONE',  ( 0.000000000000000000, 0.000000000000000000, 1.000000000000000000 ) ) ;
#184 = CARTESIAN_POINT ( 'NONE',  ( 0.000000000000000000, 0.000000000000000000, 0.000000000000000000 ) ) ;
#185 = DIRECTION ( 'NONE',  ( 1.000000000000000000, 0.000000000000000000, 0.000000000000000000 ) ) ;
#186 = APPLICATION_PROTOCOL_DEFINITION ( 'international standard', 'config_control_design', 1994, #157 ) ;
#187 = DIRECTION ( 'NONE',  ( 0.000000000000000000, 0.000000000000000000, 1.000000000000000000 ) ) ;
#188 = DIRECTION ( 'NONE',  ( 1.000000000000000000, 0.000000000000000000, 0.000000000000000000 ) ) ;
#189 = DIRECTION ( 'NONE',  ( 0.000000000000000000, 0.000000000000000000, 1.000000000000000000 ) ) ;
#190 = ORIENTED_EDGE ( 'NONE', *, *, #11, .T. ) ;
#191 = CIRCLE ( 'NONE', #48, 1.600000000000000089 ) ;
#192 = ORIENTED_EDGE ( 'NONE', *, *, #145, .T. ) ;
#193 = DATE_TIME_ROLE ( 'classification_date' ) ;
#194 = VERTEX_POINT ( 'NONE', #43 ) ;
#195 = CIRCLE ( 'NONE', #5, 1.600000000000000089 ) ;
#196 = DIRECTION ( 'NONE',  ( 0.000000000000000000, 0.000000000000000000, 1.000000000000000000 ) ) ;
#197 = DIRECTION ( 'NONE',  ( 1.000000000000000000, 0.000000000000000000, 0.000000000000000000 ) ) ;
#198 = DIRECTION ( 'NONE',  ( 1.000000000000000000, 0.000000000000000000, 0.000000000000000000 ) ) ;
#199 = ORIENTED_EDGE ( 'NONE', *, *, #25, .F. ) ;
#200 = ORIENTED_EDGE ( 'NONE', *, *, #112, .T. ) ;
#201 = PERSON_AND_ORGANIZATION ( #18446744073709551615, #18446744073709551615 ) ;
#202 = DIRECTION ( 'NONE',  ( 1.000000000000000000, 0.000000000000000000, 0.000000000000000000 ) ) ;
#203 = CIRCLE ( 'NONE', #142, 3.500000000000000000 ) ;
#204 = MECHANICAL_CONTEXT ( 'NONE', #157, 'mechanical' ) ;
#205 = EDGE_CURVE ( 'NONE', #72, #94, #105, .T. ) ;
#206 = PERSON_AND_ORGANIZATION ( #18446744073709551615, #18446744073709551615 ) ;
#207 = APPROVAL_PERSON_ORGANIZATION ( #201, #132, #155 ) ;
#208 = VECTOR ( 'NONE', #37, 1000.000000000000000 ) ;
#209 = VERTEX_POINT ( 'NONE', #101 ) ;
#210 = EDGE_CURVE ( 'NONE', #72, #12, #134, .T. ) ;
#211 = ADVANCED_FACE ( 'NONE', ( #215 ), #65, .T. ) ;
#212 = DIRECTION ( 'NONE',  ( 1.000000000000000000, 0.000000000000000000, 0.000000000000000000 ) ) ;
#213 = LINE ( 'NONE', #230, #74 ) ;
#214 = ORIENTED_EDGE ( 'NONE', *, *, #120, .T. ) ;
#215 = FACE_OUTER_BOUND ( 'NONE', #111, .T. ) ;
#216 =( NAMED_UNIT ( * ) SI_UNIT ( $, .STERADIAN. ) SOLID_ANGLE_UNIT ( ) );
#217 = CLOSED_SHELL ( 'NONE', ( #211, #133, #224, #174, #182, #168 ) ) ;
#218 = APPROVAL ( #32, 'Coincidente' ) ;
#219 = DATE_AND_TIME ( #14, #91 ) ;
#220 = VERTEX_POINT ( 'NONE', #124 ) ;
#221 = ORIENTED_EDGE ( 'NONE', *, *, #51, .F. ) ;
#222 = CALENDAR_DATE ( 2026, 14, 9 ) ;
#223 = ADVANCED_BREP_SHAPE_REPRESENTATION ( 'washer_M3', ( #73, #226 ), #23 ) ;
#224 = ADVANCED_FACE ( 'NONE', ( #27 ), #45, .F. ) ;
#225 = DIRECTION ( 'NONE',  ( 1.000000000000000000, 0.000000000000000000, 0.000000000000000000 ) ) ;
#226 = AXIS2_PLACEMENT_3D ( 'NONE', #28, #46, #188 ) ;
#227 = DIRECTION ( 'NONE',  ( 0.000000000000000000, 0.000000000000000000, 1.000000000000000000 ) ) ;
#228 = PLANE ( 'NONE',  #85 ) ;
#229 = EDGE_LOOP ( 'NONE', ( #199, #242, #192, #90 ) ) ;
#230 = CARTESIAN_POINT ( 'NONE',  ( -1.600000000000000089, 1.959434878635765230E-16, 0.000000000000000000 ) ) ;
#231 = LOCAL_TIME ( 10, 32, 39.00000000000000000, #49 ) ;
#232 = APPROVAL_DATE_TIME ( #10, #218 ) ;
#233 = PRODUCT_DEFINITION ( 'General', '', #126, #89 ) ;
#234 = COORDINATED_UNIVERSAL_TIME_OFFSET ( 3, 0, .BEHIND. ) ;
#235 = DIRECTION ( 'NONE',  ( 1.000000000000000000, 0.000000000000000000, 0.000000000000000000 ) ) ;
#236 = CALENDAR_DATE ( 2026, 14, 9 ) ;
#237 = PERSON_AND_ORGANIZATION_ROLE ( 'design_supplier' ) ;
#238 = EDGE_LOOP ( 'NONE', ( #179, #26 ) ) ;
#239 = PERSON_AND_ORGANIZATION ( #18446744073709551615, #18446744073709551615 ) ;
#240 = UNCERTAINTY_MEASURE_WITH_UNIT (LENGTH_MEASURE( 1.000000000000000082E-05 ), #102, 'distance_accuracy_value', 'NONE');
#241 = SHAPE_DEFINITION_REPRESENTATION ( #54, #223 ) ;
#242 = ORIENTED_EDGE ( 'NONE', *, *, #51, .T. ) ;
#243 = ORIENTED_EDGE ( 'NONE', *, *, #145, .F. ) ;
#244 = APPROVAL_DATE_TIME ( #219, #132 ) ;
#245 = AXIS2_PLACEMENT_3D ( 'NONE', #8, #164, #202 ) ;
#246 = DIRECTION ( 'NONE',  ( 1.000000000000000000, 0.000000000000000000, 0.000000000000000000 ) ) ;
#247 = CARTESIAN_POINT ( 'NONE',  ( 3.500000000000000000, 0.000000000000000000, 0.5000000000000000000 ) ) ;
ENDSEC;
END-ISO-10303-21;
